<?xml version="1.0" encoding="utf-8"?>
<!-- Generator: Adobe Illustrator 26.3.1, SVG Export Plug-In . SVG Version: 6.00 Build 0)  -->
<svg version="1.1" id="Camada_1" xmlns="http://www.w3.org/2000/svg" xmlns:xlink="http://www.w3.org/1999/xlink" x="0px" y="0px"
	 viewBox="0 0 1183.6 238" style="enable-background:new 0 0 1183.6 238;" xml:space="preserve">
<style type="text/css">
	.st0{fill:#2F57A4;}
</style>
<path class="st0" d="M1180.1,138.9c2.4,6.3,3.6,13,3.5,19.8c0,14.6-6,26.6-17.9,36s-26.5,14.1-43.6,14.1c-24.3,0-45-6.3-62-18.9
	l8.8-11.8c15.5,11.1,34.1,16.9,53.2,16.7c12.5,0,23.2-3.3,31.9-9.9s13.1-15.3,13.1-26.2c0-7.7-1.9-14-5.6-19c-3.8-5-8.9-8.8-14.8-11
	c-6.6-2.5-13.3-4.4-20.2-5.9c-7.3-1.6-14.6-3.3-22-5.1c-6.9-1.6-13.7-4-20.1-7c-6.1-2.9-11.3-7.5-14.8-13.3
	c-3.7-6-5.6-13.4-5.6-22.1c0-13.1,5.6-24,16.9-32.9s25-13.2,41.1-13.2c20.3,0,38.7,5.1,55.1,15.3l-8.8,11.6
	c-13.8-8.7-29.3-13-46.3-13c-11.6,0-21.5,3-29.5,9.1s-12,13.8-12,23.1c-0.1,4.9,1.1,9.8,3.5,14.1c2.3,3.8,5.6,6.9,9.5,9.1
	c4.4,2.3,8.9,4.2,13.7,5.5c5.1,1.5,10.6,2.8,16.2,4s11.3,2.5,17,3.8c5.5,1.3,11,3.2,16.2,5.4c5,2.1,9.6,4.9,13.8,8.4
	C1174.7,129.1,1178.1,133.7,1180.1,138.9z"/>
<path class="st0" d="M1030.1,33.4v111.7c0,17.9-6.8,32.9-20.3,45c-13.5,12.1-30.1,18.1-49.6,18.1s-36.1-6-49.7-18.1
	s-20.4-27-20.4-45V33.4h16.1v111.7c0,14.1,5.2,25.9,15.6,35.2s23.2,13.9,38.3,13.9s27.9-4.7,38.3-13.9s15.6-21,15.6-35.2V33.4
	H1030.1z"/>
<polygon class="st0" points="867,33.4 803,118.9 867,204.7 847.8,204.7 793,130.2 738.3,204.7 719,204.7 783,118.9 719,33.4 
	738.3,33.4 793,107.5 847.8,33.4 "/>
<polygon class="st0" points="702,190.4 702,204.7 575.7,204.7 575.7,33.4 702,33.4 702,47.5 591.8,47.5 591.8,111.8 685.5,111.8 
	685.5,125.9 591.8,125.9 591.8,190.4 "/>
<polygon class="st0" points="539.8,33.1 539.8,211.7 415.9,67.4 415.9,204.7 399.8,204.7 399.8,26.3 523.8,170.7 523.8,33.1 "/>
<rect x="347.9" y="33.4" class="st0" width="16.1" height="171.2"/>
<path class="st0" d="M224.2,105.7L248,119l-124,69.4L0,119l23.8-13.3L124,161.8L224.2,105.7z M124,211.4L23.8,155.3L0,168.6L124,238
	l124-69.4l-23.8-13.3L124,211.4z M124,23l83,46.5L124,116L41,69.4L124,23z M124,0L0,69.4l124,69.4l124-69.4L124,0z"/>
</svg>
