<svg id="Camada_1" data-name="Camada 1" xmlns="http://www.w3.org/2000/svg" xmlns:xlink="http://www.w3.org/1999/xlink" viewBox="0 0 1515.4 320.02"><defs><style>.cls-1{fill:none;}.cls-2{fill:#b6bdd3;}.cls-3{clip-path:url(#clip-path);}</style><clipPath id="clip-path" transform="translate(-0.04 0.01)"><rect class="cls-1" x="1459.95" y="0.01" width="55.44" height="56"/></clipPath></defs><path class="cls-2" d="M119.54,78.81H210l-14,53.6a33.91,33.91,0,0,1-12,18,32.42,32.42,0,0,1-20.4,6.8h-42a40.73,40.73,0,0,0-25.4,8.4q-11,8.4-15.4,22.8a42.42,42.42,0,0,0-.6,20.4,43.94,43.94,0,0,0,7.8,17,40.11,40.11,0,0,0,14.4,11.8,42.17,42.17,0,0,0,19.2,4.4h25.6a14.4,14.4,0,0,1,11.8,5.8,13.9,13.9,0,0,1,2.6,13l-16,59.2h-28a112.92,112.92,0,0,1-53-12.6A119.64,119.64,0,0,1,24.34,274,117.89,117.89,0,0,1,4,172l1.6-6a118.28,118.28,0,0,1,42.2-63A120.13,120.13,0,0,1,81.2,85.2a116.17,116.17,0,0,1,38.4-6.4M165.14,320,244,24.81a33.86,33.86,0,0,1,12-18A32.38,32.38,0,0,1,276.33,0H360a112.92,112.92,0,0,1,53,12.6,118.9,118.9,0,0,1,62.21,80.8q6,26.61-1.6,54.6l-1.6,6a119.86,119.86,0,0,1-16,35.4,116.86,116.86,0,0,1-97.6,52.2H286l14.4-54a33.81,33.81,0,0,1,12-17.6,32.42,32.42,0,0,1,20.4-6.8H356a42.08,42.08,0,0,0,40.8-31.6,39.33,39.33,0,0,0,.6-19.6,44.3,44.3,0,0,0-7.8-17,42.6,42.6,0,0,0-14.4-12A40.85,40.85,0,0,0,356,78.4H311.2L252.8,295.6a33.81,33.81,0,0,1-12,17.6,31.79,31.79,0,0,1-20,6.8H165.2M664,162.41l1.2-4.4a5.86,5.86,0,0,0-1-5.4,6.12,6.12,0,0,0-5-2.2h-130a32,32,0,0,1-15.2-3.6,33.44,33.44,0,0,1-11.2-9.4,33,33,0,0,1-6-13.4,34.26,34.26,0,0,1,.4-15.6l8-30.4h176a63.16,63.16,0,0,1,30,7.2A69,69,0,0,1,733.8,104a67,67,0,0,1,12.4,26.6,66,66,0,0,1-.6,31L714,279.21a54.16,54.16,0,0,1-52.8,40.41l-130-.41a68.76,68.76,0,0,1-55.2-27,72.65,72.65,0,0,1-12.8-28A66,66,0,0,1,464,232l1.6-6a63.82,63.82,0,0,1,9.4-20.8,72.27,72.27,0,0,1,15.4-16.4A69.71,69.71,0,0,1,510,178.2a68.33,68.33,0,0,1,22.8-3.8H642l-8,30A33.66,33.66,0,0,1,622,222a31.86,31.86,0,0,1-20,6.81H553.2q-6.8,0-8.8,6.8a8.21,8.21,0,0,0,1.6,7.8,8.92,8.92,0,0,0,7.2,3.4H632a12.35,12.35,0,0,0,7.6-2.4,10.26,10.26,0,0,0,4-6.41l.8-3.19,19.6-72.4m232.73-83.6q29.19,0,53.4,12.6a119.83,119.83,0,0,1,40.2,33.4,118,118,0,0,1,21.8,47.6,114.45,114.45,0,0,1-1.8,54.8l-20,75.2a21.9,21.9,0,0,1-8.6,12.8,24.29,24.29,0,0,1-14.6,4.8H924a14.67,14.67,0,0,1-15-14.33h0a15,15,0,0,1,.59-4.46l24-90.8a39.28,39.28,0,0,0,.6-19.59,44.3,44.3,0,0,0-7.8-17,42.18,42.18,0,0,0-14.4-12,40.74,40.74,0,0,0-19.2-4.61H848l-38.8,145.2a21.9,21.9,0,0,1-8.6,12.8,24.87,24.87,0,0,1-15,4.8H742.8a14.4,14.4,0,0,1-11.8-5.8,13.84,13.84,0,0,1-2.6-13l59.2-222.4H896.8M1132.32,155a20.49,20.49,0,0,0-6.79,9.8l-18,68a12,12,0,0,0,8.36,14.77h0a12.14,12.14,0,0,0,3.23.43h165.59L1272,295.61a34,34,0,0,1-12,17.6,31.85,31.85,0,0,1-20,6.8H1089.2a64.58,64.58,0,0,1-30-7,65.84,65.84,0,0,1-22.6-18.8,68.27,68.27,0,0,1-12.4-26.8,61.14,61.14,0,0,1,1-30.6l24.4-90.8a90.84,90.84,0,0,1,57.79-62.2,87.88,87.88,0,0,1,29.4-5H1243.6a63.16,63.16,0,0,1,30,7.2,69.32,69.32,0,0,1,22.6,18.8,65,65,0,0,1,12.19,26.8,67.07,67.07,0,0,1-.79,30.8l-7.21,27.2a52,52,0,0,1-19.39,29,53.45,53.45,0,0,1-33,11H1127.2l8-29.6a31.66,31.66,0,0,1,11.6-17.6,32.42,32.42,0,0,1,20.4-6.8H1216q6.8,0,8.8-6.8l1.6-6a9.23,9.23,0,0,0-6.53-11.29,9.13,9.13,0,0,0-2.27-.31h-74.4a17,17,0,0,0-10.81,3.8m152,165,80.4-302a22.78,22.78,0,0,1,8.6-13,24.19,24.19,0,0,1,15-5h42.8a14.83,14.83,0,0,1,12.2,5.8,13.87,13.87,0,0,1,2.6,13l-60,222.8a98.8,98.8,0,0,1-14.2,32,104.69,104.69,0,0,1-23.2,24.6,108.42,108.42,0,0,1-29.8,16,102.3,102.3,0,0,1-34.4,5.8" transform="translate(-0.04 0.01)"/><rect class="cls-2" x="1459.91" y="0.02" width="55.44" height="56"/><rect class="cls-2" x="1459.91" y="0.02" width="55.44" height="56"/><rect class="cls-2" x="1459.91" y="0.02" width="55.44" height="56"/><g class="cls-3"><path class="cls-2" d="M1483.27,26.3h3.94a7,7,0,0,0,4.69-1.52,4.79,4.79,0,0,0,1.77-3.84A4.58,4.58,0,0,0,1492.1,17a8.22,8.22,0,0,0-5-1.19h-3.87Zm15.82-5.51a8.79,8.79,0,0,1-1.54,5.16,9.25,9.25,0,0,1-4.36,3.34l8.68,14.4h-6.12l-7.54-12.91h-4.94V43.69h-5.39V11.2h9.51c4,0,7,.8,8.88,2.37S1499.09,17.57,1499.09,20.79Zm-34.7,6.64A23.64,23.64,0,0,0,1488,51a22.76,22.76,0,0,0,11.77-3.18,23.59,23.59,0,0,0,8.63-8.58,22.78,22.78,0,0,0,3.18-11.83,22.91,22.91,0,0,0-3.17-11.78,23.56,23.56,0,0,0-40.78,0,22.89,22.89,0,0,0-3.19,11.83Zm-3.83,0a27.44,27.44,0,1,1,3.71,13.8,27.45,27.45,0,0,1-3.71-13.8" transform="translate(-0.04 0.01)"/></g></svg>