<?xml version="1.0" encoding="utf-8"?>
<!-- Generator: Adobe Illustrator 25.1.0, SVG Export Plug-In . SVG Version: 6.00 Build 0)  -->
<svg version="1.1" id="Camada_1" xmlns="http://www.w3.org/2000/svg" xmlns:xlink="http://www.w3.org/1999/xlink" x="0px" y="0px"
	 viewBox="0 0 721.7 188" style="enable-background:new 0 0 721.7 188;" xml:space="preserve">
<style type="text/css">
	.st0{fill:#B6BDD3;}
</style>
<path class="st0" d="M18.3,31.2C18.3,40,25.3,47,34,47h24.5v8.7H34C20.5,56.1,9.2,45.5,8.9,31.9C8.5,18.4,19.1,7.1,32.6,6.8h25.9
	v8.7H34C25.3,15.5,18.3,22.5,18.3,31.2z"/>
<path class="st0" d="M105.2,47l4.5,8.8h-9.8L95.3,47l-4.7-9.1l-0.2-0.4c-1.6-2.6-4.4-4.2-7.5-4.2h-8.7v22.5h-8.8v-49h31
	c7.3,0,13.2,6,13.2,13.3c0,5.2-3,9.8-7.7,12c-1.2,0.6-2.5,0.9-3.8,1.1l0,0L105.2,47z M96.5,24.5c0.6,0,1.3-0.1,1.8-0.4
	c1.6-0.7,2.7-2.3,2.6-4.1c0-1.2-0.5-2.4-1.3-3.2c-0.8-0.8-2-1.3-3.1-1.3H74.3v9L96.5,24.5z"/>
<path class="st0" d="M163.9,31.2c0,13.5-11,24.5-24.5,24.5S115,44.8,115,31.2c0-13.5,11-24.5,24.5-24.5c0,0,0,0,0,0l0,0
	C153,6.8,163.9,17.7,163.9,31.2z M155.2,31.2c0-8.7-7.1-15.8-15.8-15.8c-8.7,0-15.8,7.1-15.8,15.8c0,8.7,7.1,15.8,15.8,15.8
	c0,0,0,0,0,0C148.2,47,155.2,39.9,155.2,31.2z"/>
<path class="st0" d="M213.9,45.2L213.9,45.2l-3.1,10.6l0,0l-6.5-8.9l0,0l-9.7-13.3l-9.7,13.3l-6.4,8.9l0,0l-3.1-10.5L163.9,6.8h9.1
	l8.8,29.5l0,0l7.5-10.3l1.4-2l4-5.5l4,5.5l1.4,2l7.4,10.3l8.8-29.5h9.1L213.9,45.2z"/>
<path class="st0" d="M281.3,40.1c0,8.6-7,15.6-15.6,15.6h-33.4v-49h30.9c7.3,0,13.2,5.9,13.2,13.1c0,2.6-0.7,5.1-2.1,7.2
	C278.7,30,281.3,34.9,281.3,40.1z M241.1,24.5h22.2c2.5,0,4.5-2,4.5-4.5c0-2.5-2-4.5-4.5-4.5h-22.2V24.5z M272.6,40.1
	c0-3.8-3.1-6.9-6.9-6.9h-24.6V47h24.7C269.5,47,272.6,43.9,272.6,40.1L272.6,40.1z"/>
<path class="st0" d="M333.7,55.8h-9.8l-4.4-8.8l-10.7-21l-10.7,21l-4.5,8.8h-9.9l4.5-8.8l20.5-40.2L329.3,47L333.7,55.8z"/>
<path class="st0" d="M377.6,47l4.5,8.8h-9.8l-4.5-8.8l-4.7-9.1l-0.2-0.4c-1.6-2.6-4.4-4.2-7.5-4.2h-8.7v22.5H338v-49h30.9
	c7.3,0,13.2,6,13.2,13.3c0,5.2-3,9.8-7.7,12c-1.2,0.6-2.5,0.9-3.8,1.1l0,0L377.6,47z M368.9,24.5c0.6,0,1.3-0.1,1.8-0.4
	c1.6-0.7,2.7-2.3,2.7-4.1c0-1.2-0.5-2.4-1.3-3.2c-0.8-0.8-2-1.3-3.1-1.3h-22.2v9L368.9,24.5z"/>
<path class="st0" d="M397.1,31.2c0,8.7,7.1,15.8,15.8,15.8h24.5v8.7h-24.5c-13.5-0.4-24.2-11.7-23.8-25.2
	c0.4-13,10.8-23.4,23.8-23.8h24.5v8.7h-24.5C404.2,15.5,397.1,22.5,397.1,31.2z"/>
<path class="st0" d="M488.6,31.2c0,13.5-11,24.5-24.5,24.5s-24.5-11-24.5-24.5c0-13.5,11-24.5,24.5-24.5l0,0l0,0
	C477.6,6.8,488.6,17.7,488.6,31.2z M479.9,31.2c0-8.7-7.1-15.8-15.8-15.8c-8.7,0-15.8,7.1-15.8,15.8c0,8.7,7.1,15.8,15.8,15.8
	C472.8,47,479.9,39.9,479.9,31.2z"/>
<path class="st0" d="M542.9,31.2c0,5.8-2,11.4-5.8,15.8c-0.4,0.5-0.9,1-1.4,1.5c-4.6,4.6-10.8,7.2-17.3,7.2h-24.5v-49h24.5
	C532,6.7,542.9,17.7,542.9,31.2L542.9,31.2z M534.2,31.2c0-8.7-7.1-15.7-15.8-15.8h-15.8V47h15.8C527.1,47,534.2,39.9,534.2,31.2z"
	/>
<path class="st0" d="M558.7,20v4.5h31.5v8.7h-31.5v9.2c0,2.5,2,4.5,4.5,4.5h35.8v8.7h-35.8c-7.3,0-13.2-5.9-13.2-13.2c0,0,0,0,0,0
	V20c0-7.3,5.9-13.2,13.2-13.2c0,0,0,0,0,0h35.8v8.7h-35.8C560.7,15.5,558.7,17.5,558.7,20z"/>
<path class="st0" d="M82.6,78.9c-0.3,0.4-0.6,0.8-0.7,1.3c-0.2,0.5-0.3,1-0.4,1.5c-0.1,0.5-0.2,1-0.2,1.5c0,0.5,0.1,1,0.2,1.5
	c0.1,0.5,0.2,1.1,0.4,1.6c0.1,0.2,0.1,0.3,0.1,0.5c0.2,0.3,0.5,0.6,0.7,0.9c0.2,0.3,0.3,0.6,0.5,0.9l41.1,46.1
	c0.6,0.8,2.2,1.7,3,2.1c0.7,0.3,1.5,0.6,2.8,1.1c0.6,0.2,1.2,0.4,1.9,0.5c0.5,0.1,1.1,0.2,2,0.3c0.8,0.1,1.6,0.2,2.4,0.2
	c0.3,0,0.7,0.1,1,0.1l47.1-0.2c0,0,0,0,0,0l0,0l399.5-1.9c0.1,0,0.1,0,0.1,0c0,0,0.1,0,0.1,0l16.3-0.1c0.3,0,0.6,0,0.9,0
	c14.9-0.1,29-6,39.5-16.6c10.5-10.6,16.3-24.7,16.2-39.7c0-0.1,0-0.1,0-0.2c0.1-4.3,3.6-7.8,8-7.9c4.3,0,7.9,3.4,8.1,7.7
	c0,0.1,0,0.2,0,0.3l0.5,95.9c0,0,0,0.1,0,0.1c0,4.4,3.6,8,8,8l0,0c0,0,0,0,0,0c0,0,0,0,0,0c22-0.1,39.9-18.2,39.8-40.2l-0.3-63.5
	c0-0.2,0-0.3,0-0.5c-0.1-14.9-6-29-16.6-39.5c-10.6-10.5-24.7-16.3-39.7-16.2c-14.9,0.1-29,6-39.5,16.6
	c-10.5,10.6-16.3,24.7-16.2,39.7c0,0.1,0,0.1,0,0.2c-0.1,4.2-3.5,7.6-7.6,7.8c-0.1,0-0.2,0-0.3,0l-457.9,2.2l-33.3-22.5
	c-0.1-0.1-0.2-0.1-0.4-0.1c-0.7-0.4-1.4-0.7-2.2-0.9c-0.2,0-0.3-0.1-0.4-0.2c-0.9-0.2-1.8-0.2-2.8,0c-0.3,0-0.5,0.2-0.8,0.2
	c-0.5,0.1-0.9,0.2-1.4,0.4L85.7,76c-0.3,0.2-0.6,0.5-0.9,0.7c-0.3,0.2-0.6,0.3-0.9,0.5c-0.1,0.1-0.2,0.3-0.3,0.4
	C83.2,78,82.9,78.5,82.6,78.9L82.6,78.9z M576.2,104.9l0.1,16l-383.7,1.8l-0.1-16L576.2,104.9z M636.9,52.3
	c7.5-7.6,17.6-11.8,28.2-11.9c10.7-0.1,20.7,4.1,28.3,11.6c7.5,7.5,11.7,17.4,11.9,27.9c0,0.2,0,0.3,0,0.5l0.3,63.8
	c0,10.4-6.6,19.2-15.9,22.6l-0.4-86.2c0-0.2,0-0.3,0-0.4c-0.1-6.6-2.8-12.5-7.1-16.8c-4.4-4.3-10.4-7-17-7
	c-13.2,0.1-23.9,10.8-23.9,24.1c0,0.1,0,0.2,0,0.3c0,10.6-4.1,20.6-11.6,28.1c-7.5,7.5-17.3,11.7-27.9,11.9c-0.2,0-0.3,0-0.5,0
	l-9.1,0l-0.1-16l8.9,0c0.2,0,0.3,0,0.5,0c13.1-0.1,23.7-10.9,23.8-24c0-0.1,0-0.2,0-0.3C625.3,69.9,629.4,59.9,636.9,52.3
	L636.9,52.3z M136.6,105.6c1.3,0.9,2.9,1.4,4.5,1.4l35.4-0.2l0.1,16l-38.8,0.2c-0.2,0-0.4,0-0.6,0c-0.3,0-0.6-0.1-1.5-0.2
	c0,0-0.5-0.2-0.7-0.2l-32.8-36.8l2.9-1.4L136.6,105.6z"/>
</svg>
