<svg id="svg6384" xmlns="http://www.w3.org/2000/svg" viewBox="0 0 506.88 112.13"><defs><style>.cls-1{fill:#b6bdd3;}</style></defs><path id="path12" class="cls-1" d="M66.67,2.27,1.51,14.4V100l65.16,14.4Zm-21,28.86v9.34L30.56,41.81v8.11H44.79v9.34H30.56V69.7L46.2,71.31v9.34l-24.55-3V34Z" transform="translate(-1.51 -2.27)"/><path id="rect47" class="cls-1" d="M72.32,24.91v8.94l2.3,0c2.32.07,5.38,3.27,6.83,5.76.58,1-1.61,3.08-1.61,3.08L75.69,40.2a22.38,22.38,0,0,0-3.37-.33V54.71l6.18,6.11c2.44,3.77-.75,2.69-6.18-1.22V76.91a5.68,5.68,0,0,0,3.52-1.52l11-11.12c5.87-3.81,0,6-10,16.74a7,7,0,0,1-4.46,1.81v9.59h38c3.86,0,7-2.77,7-6.21V31.12c0-3.44-3.1-6.21-7-6.21Zm27.88,8.86c2.4,0,5.26.16,8.6.25,0,0,.28,4.56,0,14.6-.07,2.32-3.27,5.38-5.76,6.83C102,56,100,53.84,100,53.84l2.54-4.15c.46-2.77.61-6.21-.67-9-2-.9-6.58-1.75-9,.67l-11,11.12c-5.87,3.81,0-6,10-16.74,1.54-1.64,4.28-2,8.28-2ZM89.94,53.61c2.06.1,9.3,5.15,17,12.38,2.62,2.47,2,8,1.74,16.88,0,0-4.56.29-14.6,0-2.33-.07-5.39-3.27-6.83-5.76-.58-1,1.61-3.08,1.61-3.08L93,76.57c2.77.46,6.2.61,9-.67.9-2,1.75-6.58-.67-9L90.2,56c-1.07-1.65-1.06-2.37-.26-2.34Z" transform="translate(-1.51 -2.27)"/><path id="path22" class="cls-1" d="M181.35,90.4H146.13V25.18h33.74v6.91h-26v21.7h24v6.86h-24V83.49h27.43Z" transform="translate(-1.51 -2.27)"/><path id="path24" class="cls-1" d="M224.69,43.63,209,67.29,224.42,90.4H215.7l-9.17-15.16c-.58-.95-1.26-2.13-2.05-3.57h-.19c-.15.28-.86,1.47-2.14,3.57L192.79,90.4h-8.62L200.1,67.47,184.85,43.63h8.72l9,16c.67,1.19,1.32,2.4,2,3.65h.18l11.68-19.64Z" transform="translate(-1.51 -2.27)"/><path id="path26" class="cls-1" d="M262.3,88.31a22.82,22.82,0,0,1-12.18,3.15q-9.54,0-15.41-6.29t-5.83-16.42q0-11.22,6.31-18T252,43.91a23.06,23.06,0,0,1,10.36,2.22v7.45A17.9,17.9,0,0,0,251.77,50a14.28,14.28,0,0,0-11.23,5q-4.35,5-4.35,13.09t4.09,12.6a14.14,14.14,0,0,0,11.06,4.61,17.62,17.62,0,0,0,11-4Z" transform="translate(-1.51 -2.27)"/><path id="path28" class="cls-1" d="M310.84,90.4h-7.45V63.6q0-14.54-10.8-14.54a11.76,11.76,0,0,0-9.18,4.23,15.58,15.58,0,0,0-3.72,10.76V90.4h-7.45V21.54h7.45V51.61h.18q5.36-8.82,15.26-8.81,15.72,0,15.71,18.94Z" transform="translate(-1.51 -2.27)"/><path id="path30" class="cls-1" d="M356.94,90.4h-7.51V83.3h-.19a15.83,15.83,0,0,1-14.44,8.16q-7,0-11-3.59a12.26,12.26,0,0,1-3.94-9.54q0-12.72,15.49-14.81l14.08-1.91q0-11.58-9.68-11.58a23.56,23.56,0,0,0-15.31,5.59V48.17a29.85,29.85,0,0,1,16-4.26q16.55,0,16.54,16.94Zm-7.51-23L338.1,68.93a18.4,18.4,0,0,0-7.88,2.53q-2.66,1.77-2.66,6.34A6.93,6.93,0,0,0,330,83.26a9.85,9.85,0,0,0,6.56,2.08,12.2,12.2,0,0,0,9.21-3.77,13.35,13.35,0,0,0,3.67-9.63Z" transform="translate(-1.51 -2.27)"/><path id="path32" class="cls-1" d="M406.64,90.4h-7.4V64.49Q399.24,50,388.51,50a11.73,11.73,0,0,0-9.2,4.13,15,15,0,0,0-3.61,10.33V90.4h-7.4V45h7.4v7.54h.18q5.24-8.59,15.15-8.6,7.58,0,11.59,4.83t4,13.89Z" transform="translate(-1.51 -2.27)"/><path id="path34" class="cls-1" d="M458.13,86.76q0,25-23.51,25a31.06,31.06,0,0,1-14.45-3.19v-7.28q7.53,4.26,14.37,4.26,16.44,0,16.45-17.83v-5h-.18q-5.08,8.7-15.32,8.69a16.67,16.67,0,0,1-13.4-6q-5.05-6.08-5-16.28,0-11.58,5.44-18.41t15-6.83q9,0,13.36,7.36H451V45h7.14ZM451,69.86v-6.7a13.11,13.11,0,0,0-3.61-9.27A11.67,11.67,0,0,0,438.45,50,12.3,12.3,0,0,0,428.09,55q-3.73,4.89-3.74,13.71,0,7.59,3.57,12.16a11.62,11.62,0,0,0,9.53,4.52A12.24,12.24,0,0,0,447.2,81,16.29,16.29,0,0,0,451,69.86Z" transform="translate(-1.51 -2.27)"/><path id="path36" class="cls-1" d="M508.39,69.5H476.93q.17,7.59,4,11.72c2.55,2.75,6.07,4.12,10.53,4.12a21.63,21.63,0,0,0,13.84-5v6.83q-5.87,4.35-15.53,4.34-9.45,0-14.84-6.16t-5.4-17.44q0-10.59,5.87-17.25a18.8,18.8,0,0,1,14.67-6.7q8.74,0,13.54,5.76t4.78,16Zm-7.31-6.16q0-6.3-3-9.81a10,10,0,0,0-8.14-3.5,11.44,11.44,0,0,0-8.57,3.68A17,17,0,0,0,477,63.34Z" transform="translate(-1.51 -2.27)"/></svg>