<?xml version="1.0" encoding="utf-8"?>
<!-- Generator: Adobe Illustrator 25.1.0, SVG Export Plug-In . SVG Version: 6.00 Build 0)  -->
<svg version="1.1"
	 id="svg2" xmlns:cc="http://creativecommons.org/ns#" xmlns:dc="http://purl.org/dc/elements/1.1/" xmlns:rdf="http://www.w3.org/1999/02/22-rdf-syntax-ns#" xmlns:svg="http://www.w3.org/2000/svg"
	 xmlns="http://www.w3.org/2000/svg" xmlns:xlink="http://www.w3.org/1999/xlink" x="0px" y="0px" viewBox="0 0 526.8 140.4"
	 style="enable-background:new 0 0 526.8 140.4;" xml:space="preserve">
<style type="text/css">
	.st0{fill:#B6BDD3;}
</style>
<g id="g10" transform="matrix(1.25,0,0,-1.25,0,140.375)">
	<g id="g12" transform="scale(0.1,0.1)">
		<path id="path14" class="st0" d="M505.7,1122.9H177.9c-22.4,0-41.5-16.3-45-38.4L0.3,244c-2.6-16.6,10.2-31.5,27-31.5h156.5
			c22.4,0,41.5,16.3,45,38.5l35.8,226.7c3.5,22.2,22.6,38.5,45,38.5h103.8c215.9,0,340.5,104.5,373.1,311.5
			c14.7,90.6,0.6,161.8-41.8,211.6C698,1094,615.4,1122.9,505.7,1122.9L505.7,1122.9z M543.5,815.9
			c-17.9-117.6-107.8-117.6-194.7-117.6h-49.5L334.1,918c2.1,13.3,13.6,23.1,27,23.1h22.7c59.2,0,115,0,143.9-33.7
			C544.8,887.2,550.1,857.3,543.5,815.9"/>
		<path id="path16" class="st0" d="M1485.5,819.7h-157c-13.4,0-24.9-9.8-27-23.1l-6.9-43.9l-11,15.9c-34,49.3-109.8,65.8-185.4,65.8
			c-173.5,0-321.6-131.4-350.5-315.7c-15-91.9,6.3-179.8,58.5-241.1c47.8-56.4,116.3-79.8,197.7-79.8c139.8,0,217.3,89.9,217.3,89.9
			l-7-43.6c-2.6-16.7,10.2-31.6,26.9-31.6h141.4c22.5,0,41.5,16.3,45,38.5l84.8,537.2C1515.1,804.7,1502.3,819.7,1485.5,819.7z
			 M1266.7,514.2c-15.1-89.7-86.3-149.9-177.1-149.9c-45.6,0-82,14.6-105.4,42.3c-23.2,27.5-32,66.7-24.6,110.3
			c14.1,88.9,86.5,151.1,175.9,151.1c44.6,0,80.8-14.8,104.7-42.7C1264.1,597.1,1273.6,557.7,1266.7,514.2"/>
		<path id="path18" class="st0" d="M2321.5,819.7h-157.7c-15.1,0-29.2-7.5-37.7-20l-217.6-320.4l-92.2,307.9
			c-5.8,19.3-23.6,32.5-43.7,32.5h-155c-18.8,0-31.9-18.4-25.9-36.1l173.7-509.9L1602,43.1C1589.2,25,1602.1,0,1624.3,0h157.5
			c14.9,0,28.9,7.3,37.4,19.6l524.6,757.3C2356.5,794.9,2343.6,819.7,2321.5,819.7"/>
		<path id="path20" class="st0" d="M2843.7,1122.9h-327.8c-22.4,0-41.5-16.3-45-38.4L2338.3,244c-2.6-16.6,10.2-31.5,26.9-31.5
			h168.2c15.6,0,29,11.4,31.4,26.9l37.6,238.3c3.4,22.2,22.6,38.5,45,38.5h103.7c216,0,340.5,104.5,373.1,311.5
			c14.7,90.6,0.6,161.8-41.8,211.6C3036,1094,2953.4,1122.9,2843.7,1122.9L2843.7,1122.9z M2881.5,815.9
			c-17.9-117.6-107.7-117.6-194.7-117.6h-49.4l34.8,219.7c2.1,13.3,13.5,23.1,26.9,23.1h22.7c59.1,0,115,0,143.9-33.7
			C2882.9,887.2,2888.1,857.3,2881.5,815.9"/>
		<path id="path22" class="st0" d="M3823.5,819.7h-156.9c-13.5,0-24.9-9.8-26.9-23.1l-6.9-43.9l-11,15.9
			c-34,49.3-109.7,65.8-185.3,65.8c-173.5,0-321.6-131.4-350.4-315.7c-14.9-91.9,6.3-179.8,58.4-241.1
			c47.9-56.4,116.3-79.8,197.7-79.8c139.8,0,217.3,89.9,217.3,89.9l-7-43.6c-2.6-16.7,10.2-31.6,27-31.6h141.3
			c22.4,0,41.5,16.3,45,38.5l84.9,537.2C3853.1,804.7,3840.3,819.7,3823.5,819.7L3823.5,819.7z M3604.7,514.2
			c-15.1-89.7-86.3-149.9-177.1-149.9c-45.5,0-82,14.6-105.4,42.3c-23.2,27.5-31.9,66.7-24.6,110.3
			c14.2,88.9,86.5,151.1,175.9,151.1c44.6,0,80.8-14.8,104.7-42.7C3602.1,597.1,3611.6,557.7,3604.7,514.2"/>
		<path id="path24" class="st0" d="M4008.5,1099.9L3874,244c-2.6-16.6,10.2-31.5,26.9-31.5h135.2c22.5,0,41.6,16.3,45,38.5
			l132.7,840.5c2.6,16.6-10.2,31.6-26.9,31.6h-151.5C4022.1,1122.9,4010.6,1113.1,4008.5,1099.9"/>
	</g>
</g>
</svg>
