<svg id="layer" xmlns="http://www.w3.org/2000/svg" viewBox="0 0 600.1 134.5"><defs><style>.cls-1{fill:#b6bdd3;}</style></defs><path class="cls-1" d="M464.5,101a29.55,29.55,0,1,1,27.3-40.9h19.7c-.4-1.6-.8-3.1-1.3-4.6l11.4-10.3L516,35.3l-15.2,4.2a43.63,43.63,0,0,0-4.3-4.3l4.6-14.4-9.8-5.9L479.7,25.4a44.59,44.59,0,0,0-6-1.6L470.1,9.1l-11.4-.2-3.9,15a48.8,48.8,0,0,0-6.3,1.7L437.8,14.5l-10,5.5L432,35.4a52.87,52.87,0,0,0-4.1,4.1l-15.2-4.2-6,9.7,11.5,11.2a38.59,38.59,0,0,0-1.5,5.8l-14.9,4.2-.3,11.4,15.3,4.1a41.82,41.82,0,0,0,1.7,6.1L406.8,97.9l5.4,10,15.8-4.3a35.9,35.9,0,0,0,3.9,3.9l-3.7,15.8,9.7,5.5,11.5-11.2a46.46,46.46,0,0,0,5.3,1.4l3.7,15.5h11.4l3.8-15.5a60.75,60.75,0,0,0,6.1-1.6l10.5,11.3,10.1-5.6-4.2-15a45.59,45.59,0,0,0,4.5-4.4l14.7,4.4,5.8-9.8-9.2-9H488.4A29.65,29.65,0,0,1,464.5,101Z" transform="translate(0 0)"/><polygon class="cls-1" points="0 15.2 21.6 15.2 48.7 100.2 76.2 14.8 93.8 14.8 121.4 100.2 148.5 15.2 169.4 15.2 132.5 130.7 111.7 130.7 84.7 48.3 59.1 130.7 37.7 130.7 0 15.2"/><polygon class="cls-1" points="179.2 15.2 198.8 15.2 198.8 62.9 248.8 62.9 248.8 15.2 268.4 15.2 268.4 129.9 248.8 129.9 248.8 81.5 198.8 81.5 198.8 129.9 179.2 129.9 179.2 15.2"/><polygon class="cls-1" points="281.8 15.2 304.4 15.2 337.8 63 371.3 15.2 394.8 15.2 394.8 129.9 373.5 129.9 373.5 44.9 338.1 96.2 301.8 45.2 301.8 129.9 281.8 129.9 281.8 15.2"/><path class="cls-1" d="M521.7,100.6v21.5a84.49,84.49,0,0,0,36.8,9.5c19.5,0,41.6-9.6,41.6-32.3s-13.9-32.1-34.6-37.6-24.3-9.3-24.3-15.6c0-5.5,4.3-14,23.6-14a43.24,43.24,0,0,1,27.8,9.8V21.2s-16.1-7.7-30.7-7.7-40.2,3.4-40.2,34.4c0,40.7,57.1,24.5,57.1,50.5,0,10.5-10,14-24.3,13.8C538.7,112,521.7,100.6,521.7,100.6Z" transform="translate(0 0)"/><path class="cls-1" d="M498.4,20.9a19.26,19.26,0,1,0,.08,0Zm30.9,25.6a25.1,25.1,0,0,1-1.1,3.9l7.1,7-3.8,6.4L522,60.9a39.67,39.67,0,0,1-2.9,2.9l2.6,9.7-6.4,3.7-6.8-7.3c-1.3.4-2.6.8-4,1.1L502,81.1h-7.4L492.3,71a23.34,23.34,0,0,1-3.5-.9l-7.4,7.3-6.3-3.5,2.4-10.2a31.89,31.89,0,0,1-2.6-2.6l-10.2,2.8-3.3-6.3L469,51a26.31,26.31,0,0,1-1.1-4L458,44.4l.2-7.4,9.6-2.6a26.23,26.23,0,0,1,1-3.8l-7.5-7.2,3.9-6.3,9.8,2.6a31.89,31.89,0,0,1,2.6-2.6L475,7.1l6.5-3.5,7,7.2a27.88,27.88,0,0,1,4.1-1.1L495.2,0l7.4.2,2.3,9.6c1.3.3,2.6.6,3.9,1l7.5-6.9,6.4,3.8-3,9.4a37,37,0,0,1,2.8,2.8l9.8-2.8,3.6,6.5-7.4,6.7a38.74,38.74,0,0,1,1.2,4.5l10.1,2.6v7.4L529.7,47Z" transform="translate(0 0)"/></svg>