<svg xmlns="http://www.w3.org/2000/svg" viewBox="0 0 685.55 357.26"><defs><style>.cls-1{opacity:0.68;}.cls-2,.cls-3,.cls-5{fill:#9fbfff;}.cls-2,.cls-6{opacity:0.47;}.cls-3{opacity:0.41;}.cls-4{opacity:0.43;}.cls-7{fill:#17014c;}.cls-8{fill:#4e69ff;}.cls-9{fill:#ffb54a;}.cls-10,.cls-17,.cls-19{fill:#1b1b25;}.cls-11{fill:#fcf0e3;}.cls-12{fill:#fff;}.cls-13{fill:#fec29e;}.cls-14{fill:none;}.cls-15,.cls-18,.cls-20,.cls-21{fill:#ff887c;}.cls-15{opacity:0.17;}.cls-16{fill:#fb8e77;}.cls-17{opacity:0.05;}.cls-18{opacity:0.18;}.cls-19{opacity:0.35;}.cls-20{opacity:0.32;}.cls-21{opacity:0.08;}</style></defs><g id="BACKGROUND"><g class="cls-1"><path class="cls-2" d="M610.84,167.8a111.87,111.87,0,0,0-38.46-73.45c-35.3-30.14-88.7-37.74-135.5-30.77-19.6,2.92-39,8.09-59.11,6.46-29.27-2.37-55.06-18.65-81.71-30.58-36.29-16.23-77.88-25-116.45-17.91C135.88,29.57,100,59.82,95.74,100c-1.93,18.2,17.77,50.24,11.55,67.49-6.31,17.48-52.35,71-51.21,111.78,1.13,40.59,11.73,53.22,26.72,73.84H572.1c9.33-20.9,16.64-37.62,5.72-65.06-8.73-21.93,15-40,24.16-60.41C610.14,209.44,612.83,187.6,610.84,167.8Z"/></g><path class="cls-3" d="M4.07,171.88a37.14,37.14,0,0,1,16.19-50c18.27-9.33,53.33-8.56,62.66,9.71s-18.79,33.87-30.28,50.86C36.61,206.18,13.4,190.15,4.07,171.88Z"/><path class="cls-3" d="M645.5,242.59c8.93,9.68,9.66,23.55,1.62,31s-27.38,10.73-36.32,1.05,3.18-21.83,5.9-33C620.5,226,636.56,232.9,645.5,242.59Z"/><path class="cls-3" d="M570.27,24.68A21.21,21.21,0,0,1,599,33.54c5.47,10.36,5.31,30.41-5.06,35.88s-19.5-10.48-29.3-16.91C550.93,43.54,559.91,30.15,570.27,24.68Z"/><g class="cls-4"><path class="cls-5" d="M556.86,329.17c4.77-23.7-2.88-43.92-4.78-67.17-1.81-22,6-40.51,10.35-61.47,3.85-18.65,2.57-39.78-2.28-58.11-6.61-25-21.84-48.21-43.79-62.34-34.19-22-79.8-19.42-117.57-4.28C383,82.14,367.65,90.58,350.7,92.72c-24.71,3.11-48.76-7.54-72.83-13.93-32.77-8.7-68.74-9.34-99.66,4.39-35.06,15.56-60,50.7-57.07,89.4,1.32,17.54,8.07,34.85,5.68,52.27-2.42,17.67-12.92,32.45-18.48,49.09-7.58,22.72-8.27,56.1,3.92,79.14H548.65A96,96,0,0,0,556.86,329.17Z"/></g><g class="cls-6"><path class="cls-5" d="M475.71,254.9A59.91,59.91,0,0,0,456,216c-18.08-16-45.44-20-69.42-16.31-10,1.54-20,4.28-30.28,3.42-15-1.26-28.21-9.88-41.87-16.2-18.58-8.6-39.89-13.23-59.65-9.49-22.41,4.25-40.78,20.28-43,41.55-1,9.64,9.1,26.63,5.92,35.76S190.92,292.37,191.5,314s6,28.19,13.69,39.12H455.87c4.78-11.07,8.52-19.93,2.93-34.47-4.48-11.62,7.67-21.19,12.37-32C475.36,277,476.73,265.39,475.71,254.9Z"/></g><path class="cls-5" d="M679.48,356.22H29.35a1.58,1.58,0,0,1-1.58-1.58h0a1.58,1.58,0,0,1,1.58-1.58H679.48a1.57,1.57,0,0,1,1.58,1.58h0A1.58,1.58,0,0,1,679.48,356.22Z"/><circle class="cls-7" cx="654.68" cy="206.58" r="4.5"/><circle class="cls-8" cx="622.68" cy="331.58" r="3.5"/><circle class="cls-8" cx="79.68" cy="50.58" r="4.5"/><path class="cls-7" d="M37.33,318.51a4.78,4.78,0,1,1-4.78-4.78A4.78,4.78,0,0,1,37.33,318.51Z"/><circle class="cls-7" cx="50.68" cy="72.58" r="1.5"/><path class="cls-8" d="M434.19,14.53A12,12,0,1,1,425,.27,12,12,0,0,1,434.19,14.53Z"/><path class="cls-9" d="M623.69,32.53a3.65,3.65,0,1,1-2.81-4.33A3.65,3.65,0,0,1,623.69,32.53Z"/><path class="cls-9" d="M153.82,9.31A3.65,3.65,0,1,1,151,5,3.65,3.65,0,0,1,153.82,9.31Z"/><path class="cls-8" d="M653.75,114.67a3.65,3.65,0,1,1-2.81-4.33A3.65,3.65,0,0,1,653.75,114.67Z"/><path class="cls-7" d="M391.1,26a2.86,2.86,0,1,1-2.2-3.39A2.86,2.86,0,0,1,391.1,26Z"/></g><g id="OBJECTS"><circle class="cls-10" cx="345.21" cy="84.61" r="57.47"/><circle class="cls-9" cx="339.15" cy="78.55" r="57.47"/><path class="cls-11" d="M339.15,125a46.29,46.29,0,1,1,46.29-46.28A46.34,46.34,0,0,1,339.15,125Zm0-89.57a43.29,43.29,0,1,0,43.29,43.29A43.34,43.34,0,0,0,339.15,35.38Z"/><path class="cls-10" d="M335.77,99.41a32.46,32.46,0,0,1-8.36-2.16,32.12,32.12,0,0,1-7.36-4.16l5.19-7.6a39.67,39.67,0,0,0,5.3,3.43,20.19,20.19,0,0,0,5.56,2V80.3a45.57,45.57,0,0,1-6.29-2.2,15.86,15.86,0,0,1-4.47-2.87,10.93,10.93,0,0,1-2.66-3.89,13.76,13.76,0,0,1-.9-5.17V66a12.35,12.35,0,0,1,1-5.06,11.49,11.49,0,0,1,2.83-3.93,14.48,14.48,0,0,1,4.43-2.7A21.86,21.86,0,0,1,335.77,53V49.12h6.93v4a28.56,28.56,0,0,1,6.62,1.76,29.3,29.3,0,0,1,5.77,3.17l-4.47,7.79a37.15,37.15,0,0,0-4.06-2.36,20.8,20.8,0,0,0-4.2-1.57V72q7.61,2.07,11,5.4a11.88,11.88,0,0,1,3.43,8.92v.13a12.22,12.22,0,0,1-1,5.07,12,12,0,0,1-2.87,3.93,14.94,14.94,0,0,1-4.43,2.73,20.82,20.82,0,0,1-5.79,1.4v6.59h-6.93Zm.33-38.1a6,6,0,0,0-3.5,1.43,3.71,3.71,0,0,0-1.1,2.7v.13a4,4,0,0,0,.94,2.64,8.87,8.87,0,0,0,3.66,2.09Zm6.26,29.91c3.16-.49,4.73-1.91,4.73-4.26v-.14a4,4,0,0,0-1-2.83,9.54,9.54,0,0,0-3.73-2.09Z"/><circle class="cls-10" cx="345.21" cy="84.61" r="57.47"/><circle class="cls-9" cx="339.15" cy="78.55" r="57.47"/><path class="cls-11" d="M339.15,125a46.29,46.29,0,1,1,46.29-46.28A46.34,46.34,0,0,1,339.15,125Zm0-89.57a43.29,43.29,0,1,0,43.29,43.29A43.34,43.34,0,0,0,339.15,35.38Z"/><path class="cls-10" d="M335.77,99.41a32.46,32.46,0,0,1-8.36-2.16,32.12,32.12,0,0,1-7.36-4.16l5.19-7.6a39.67,39.67,0,0,0,5.3,3.43,20.19,20.19,0,0,0,5.56,2V80.3a45.57,45.57,0,0,1-6.29-2.2,15.86,15.86,0,0,1-4.47-2.87,10.93,10.93,0,0,1-2.66-3.89,13.76,13.76,0,0,1-.9-5.17V66a12.35,12.35,0,0,1,1-5.06,11.49,11.49,0,0,1,2.83-3.93,14.48,14.48,0,0,1,4.43-2.7A21.86,21.86,0,0,1,335.77,53V49.12h6.93v4a28.56,28.56,0,0,1,6.62,1.76,29.3,29.3,0,0,1,5.77,3.17l-4.47,7.79a37.15,37.15,0,0,0-4.06-2.36,20.8,20.8,0,0,0-4.2-1.57V72q7.61,2.07,11,5.4a11.88,11.88,0,0,1,3.43,8.92v.13a12.22,12.22,0,0,1-1,5.07,12,12,0,0,1-2.87,3.93,14.94,14.94,0,0,1-4.43,2.73,20.82,20.82,0,0,1-5.79,1.4v6.59h-6.93Zm.33-38.1a6,6,0,0,0-3.5,1.43,3.71,3.71,0,0,0-1.1,2.7v.13a4,4,0,0,0,.94,2.64,8.87,8.87,0,0,0,3.66,2.09Zm6.26,29.91c3.16-.49,4.73-1.91,4.73-4.26v-.14a4,4,0,0,0-1-2.83,9.54,9.54,0,0,0-3.73-2.09Z"/><circle class="cls-10" cx="281.89" cy="51.95" r="26"/><circle class="cls-9" cx="279.15" cy="49.21" r="26"/><path class="cls-11" d="M279.15,70.21a20.95,20.95,0,1,1,20.94-20.95A21,21,0,0,1,279.15,70.21Zm0-40.53a19.59,19.59,0,1,0,19.58,19.58A19.61,19.61,0,0,0,279.15,29.68Z"/><path class="cls-10" d="M277.62,58.65a15,15,0,0,1-3.79-1,14.68,14.68,0,0,1-3.33-1.88l2.35-3.44a17.86,17.86,0,0,0,2.4,1.55,8.77,8.77,0,0,0,2.52.89V50a20.38,20.38,0,0,1-2.85-1,7.18,7.18,0,0,1-2-1.3A5.09,5.09,0,0,1,271.69,46a6.27,6.27,0,0,1-.4-2.34v-.06a5.64,5.64,0,0,1,.45-2.29A5.26,5.26,0,0,1,273,39.48a6.53,6.53,0,0,1,2-1.22,9.9,9.9,0,0,1,2.6-.62V35.9h3.13v1.8a12.93,12.93,0,0,1,3,.8,13.3,13.3,0,0,1,2.61,1.43l-2,3.53a17.2,17.2,0,0,0-1.84-1.07,9.32,9.32,0,0,0-1.9-.71v4.55a11.64,11.64,0,0,1,5,2.44,5.41,5.41,0,0,1,1.55,4v.06a5.38,5.38,0,0,1-1.76,4.07,6.63,6.63,0,0,1-2,1.24,9.41,9.41,0,0,1-2.62.63v3h-3.13Zm.15-17.24a2.76,2.76,0,0,0-1.59.65,1.66,1.66,0,0,0-.49,1.22v.06a1.78,1.78,0,0,0,.42,1.19,4,4,0,0,0,1.66.95Zm2.83,13.53c1.43-.22,2.14-.86,2.14-1.92V53a1.86,1.86,0,0,0-.45-1.29,4.52,4.52,0,0,0-1.69-1Z"/><path class="cls-12" d="M249.78,95.91h0a11.3,11.3,0,0,0-11.29-11.3h0a11.29,11.29,0,0,0,11.29-11.29h0a11.28,11.28,0,0,0,11.29,11.29h0A11.29,11.29,0,0,0,249.78,95.91Z"/><path class="cls-12" d="M382.44,152.68h0a8.3,8.3,0,0,0-8.3-8.29h0a8.31,8.31,0,0,0,8.3-8.3h0a8.3,8.3,0,0,0,8.29,8.3h0A8.29,8.29,0,0,0,382.44,152.68Z"/><path class="cls-12" d="M328.23,192.62h0A15.25,15.25,0,0,0,313,177.37h0a15.25,15.25,0,0,0,15.25-15.25h0a15.25,15.25,0,0,0,15.25,15.25h0A15.25,15.25,0,0,0,328.23,192.62Z"/><path class="cls-11" d="M380.88,75h0a14.29,14.29,0,0,0-14.29-14.29h0a14.29,14.29,0,0,0,14.29-14.29h0a14.29,14.29,0,0,0,14.29,14.29h0A14.29,14.29,0,0,0,380.88,75Z"/><path class="cls-12" d="M428.65,84.61h0a7.88,7.88,0,0,0-7.88-7.88h0a7.88,7.88,0,0,0,7.88-7.88h0a7.88,7.88,0,0,0,7.88,7.88h0A7.88,7.88,0,0,0,428.65,84.61Z"/><path class="cls-8" d="M187.1,58.31H99.3a16.35,16.35,0,1,0,0,32.7h72.36l10,9.07V91h5.49a16.35,16.35,0,0,0,0-32.7Z"/><path class="cls-9" d="M107.22,72.41a5.19,5.19,0,1,0-6.62,0,9.6,9.6,0,0,0-6.31,9c0,5.31,19.23,5.31,19.23,0A9.61,9.61,0,0,0,107.22,72.41Z"/><path class="cls-12" d="M188.2,67.1H125.28a.5.5,0,0,1-.5-.5.51.51,0,0,1,.5-.5H188.2a.51.51,0,0,1,.5.5A.5.5,0,0,1,188.2,67.1Z"/><path class="cls-12" d="M178.44,81.86H125.28a.5.5,0,0,1-.5-.5.51.51,0,0,1,.5-.5h53.16a.51.51,0,0,1,.5.5A.5.5,0,0,1,178.44,81.86Z"/><path class="cls-12" d="M164,75H125.28a.5.5,0,0,1,0-1H164a.5.5,0,0,1,0,1Z"/><path class="cls-12" d="M188.2,75H168.79a.5.5,0,0,1,0-1H188.2a.5.5,0,0,1,0,1Z"/><path class="cls-12" d="M110.13,79.93a1.45,1.45,0,0,1-1.06-.44l-3.77-3.76a1.5,1.5,0,1,1,2.12-2.13l2.71,2.71L117.4,69a1.5,1.5,0,1,1,2.12,2.12l-8.33,8.33A1.48,1.48,0,0,1,110.13,79.93Z"/><path class="cls-9" d="M578.69,143.46h90.08a16.78,16.78,0,1,1,0,33.55H594.53l-10.21,9.31V177h-5.63a16.78,16.78,0,1,1,0-33.55Z"/><path class="cls-8" d="M666.75,157.77a5.19,5.19,0,1,0-6.61,0,9.61,9.61,0,0,0-6.31,9c0,5.31,19.23,5.31,19.23,0A9.61,9.61,0,0,0,666.75,157.77Z"/><path class="cls-12" d="M674.65,160.66h-2.48v-2.49a.48.48,0,0,0-.49-.48h-2.27a.48.48,0,0,0-.49.48v2.49h-2.48a.49.49,0,0,0-.49.48v2.27a.49.49,0,0,0,.49.49h2.48v2.48a.49.49,0,0,0,.49.49h2.27a.49.49,0,0,0,.49-.49V163.9h2.48a.49.49,0,0,0,.49-.49v-2.27A.49.49,0,0,0,674.65,160.66Z"/><path class="cls-12" d="M646,153.47H583.05a.51.51,0,0,1-.5-.5.5.5,0,0,1,.5-.5H646a.5.5,0,0,1,.5.5A.5.5,0,0,1,646,153.47Z"/><path class="cls-12" d="M636.2,168.23H583.05a.51.51,0,0,1-.5-.5.5.5,0,0,1,.5-.5H636.2a.5.5,0,0,1,.5.5A.5.5,0,0,1,636.2,168.23Z"/><path class="cls-12" d="M621.73,161.31H583.05a.5.5,0,0,1-.5-.5.51.51,0,0,1,.5-.5h38.68a.5.5,0,0,1,.5.5A.5.5,0,0,1,621.73,161.31Z"/><path class="cls-12" d="M646,161.31H626.55a.5.5,0,0,1-.5-.5.51.51,0,0,1,.5-.5H646a.5.5,0,0,1,.5.5A.5.5,0,0,1,646,161.31Z"/><path class="cls-8" d="M465.46,46.76h62.05a11.56,11.56,0,1,1,0,23.11H465.46a11.56,11.56,0,1,1,0-23.11Z"/><path class="cls-12" d="M520.51,54.51H472.4a.5.5,0,0,1,0-1h48.11a.5.5,0,0,1,0,1Z"/><path class="cls-12" d="M513,63.25H472.4a.5.5,0,0,1-.5-.5.5.5,0,0,1,.5-.5H513a.5.5,0,0,1,.5.5A.5.5,0,0,1,513,63.25Z"/><path class="cls-12" d="M502,59.16H472.4a.5.5,0,0,1,0-1H502a.5.5,0,0,1,0,1Z"/><path class="cls-12" d="M520.51,59.16H505.66a.5.5,0,0,1,0-1h14.85a.5.5,0,0,1,0,1Z"/><path class="cls-9" d="M44.88,210.59h55.18a10.28,10.28,0,0,1,0,20.55H44.88a10.28,10.28,0,1,1,0-20.55Z"/><path class="cls-12" d="M93.83,217.54H51.05a.5.5,0,0,1-.5-.5.5.5,0,0,1,.5-.5H93.83a.5.5,0,0,1,.5.5A.51.51,0,0,1,93.83,217.54Z"/><path class="cls-12" d="M87.19,225.31H51.05a.5.5,0,0,1-.5-.5.5.5,0,0,1,.5-.5H87.19a.5.5,0,0,1,.5.5A.5.5,0,0,1,87.19,225.31Z"/><path class="cls-12" d="M77.35,221.67H51.05a.5.5,0,1,1,0-1h26.3a.5.5,0,0,1,0,1Z"/><path class="cls-12" d="M93.83,221.67H80.63a.5.5,0,1,1,0-1h13.2a.5.5,0,1,1,0,1Z"/><path class="cls-12" d="M452.7,266.15h-98a.5.5,0,1,1,0-1h98a.5.5,0,0,1,0,1Z"/><path class="cls-12" d="M452.7,289.15H369.87a.5.5,0,0,1-.5-.5.5.5,0,0,1,.5-.5H452.7a.51.51,0,0,1,.5.5A.5.5,0,0,1,452.7,289.15Z"/><path class="cls-12" d="M452.7,278.38H392.43a.5.5,0,1,1,0-1H452.7a.5.5,0,0,1,0,1Z"/><path class="cls-12" d="M384.91,278.38H354.66a.5.5,0,1,1,0-1h30.25a.5.5,0,0,1,0,1Z"/><path class="cls-12" d="M341.82,302.64h-98a.5.5,0,1,1,0-1h98a.5.5,0,1,1,0,1Z"/><path class="cls-12" d="M326.61,325.64H243.78a.5.5,0,0,1-.5-.5.51.51,0,0,1,.5-.5h82.83a.5.5,0,0,1,.5.5A.5.5,0,0,1,326.61,325.64Z"/><path class="cls-12" d="M304.05,314.87H243.78a.5.5,0,1,1,0-1h60.27a.5.5,0,1,1,0,1Z"/><path class="cls-12" d="M341.82,314.87H311.57a.5.5,0,0,1,0-1h30.25a.5.5,0,1,1,0,1Z"/><path class="cls-13" d="M415.73,209.73l0-.11,14.47-50.37-.06-.05a18.07,18.07,0,0,1,5.79-6.41,16.77,16.77,0,0,0,6.68-11.06c3.19-3.09,6.78-5.72,10-8.74a2.24,2.24,0,0,0,.79-1.11,1.91,1.91,0,0,0-.41-1.44c-1.68-2.49-4.77-2.85-7.34-1.7a17.88,17.88,0,0,0-4.1,2.68,20.06,20.06,0,0,0-3.26,2.79l11.51-24.59c1-2.19.36-4.68-1.48-5.54h0a3.41,3.41,0,0,0-2.91.06,4.54,4.54,0,0,0-1.6,1.28l.05-.29c-13.49-11.34-30.13,27.26-30.13,27.26l-4.72,11.15L369,217.81a21.58,21.58,0,0,0,9.64,29.44h0l.48.22a21.77,21.77,0,0,0,10.91,2.92H468.9l17-40.38Zm22.46-75.15Z"/><path class="cls-14" d="M413.47,217.6l-2,7C412.19,222.19,412.88,219.81,413.47,217.6Z"/><path class="cls-15" d="M402.23,250.37Z"/><path class="cls-15" d="M402.24,250.37l.65,0Z"/><path class="cls-15" d="M415.77,209.62l-2.3,8c-.59,2.21-1.28,4.59-2,7l-2.77,9.64a21.46,21.46,0,0,1-1.44,3.52c-2.38,7.14-4.35,12.61-4.35,12.61l28.35-40.6C424.19,209.79,422.57,209.62,415.77,209.62Z"/><path class="cls-15" d="M402.23,250.37h0Z"/><path class="cls-16" d="M427.18,136.72a.5.5,0,0,1-.4-.8,9.17,9.17,0,0,1,11.86-3.1.5.5,0,0,1,.19.68.51.51,0,0,1-.68.2c-.24-.14-6.07-3.28-10.57,2.82A.49.49,0,0,1,427.18,136.72Z"/><path class="cls-16" d="M444.17,105.32a75.2,75.2,0,0,0-5.72,8.24,36.35,36.35,0,0,0-2.28,4.43,10.91,10.91,0,0,0-1.07,4.65v0a.5.5,0,0,1-.47.53.5.5,0,0,1-.53-.47h0a11.82,11.82,0,0,1,1.24-5.08,39.58,39.58,0,0,1,2.42-4.5,78.56,78.56,0,0,1,5.95-8.2.3.3,0,0,1,.47.37Z"/><path class="cls-16" d="M440.7,103.89a18.89,18.89,0,0,0-3.57,3.36,30.71,30.71,0,0,0-2.83,4.06,36.52,36.52,0,0,0-2.16,4.45c-.33.76-.57,1.55-.86,2.33l-.72,2.37v0a.5.5,0,0,1-.95-.29h0l.78-2.41c.31-.79.57-1.59.92-2.37a37.65,37.65,0,0,1,2.3-4.52,30.7,30.7,0,0,1,3-4.1,19.94,19.94,0,0,1,3.78-3.43.32.32,0,0,1,.43.09.31.31,0,0,1-.08.43Z"/><path class="cls-16" d="M435.24,104.28a48.52,48.52,0,0,0-5.23,6.47,27.73,27.73,0,0,0-2.07,3.58,14.9,14.9,0,0,0-1.26,3.84h0a.5.5,0,1,1-1-.16h0a15.49,15.49,0,0,1,1.45-4.08,29,29,0,0,1,2.21-3.63,50.26,50.26,0,0,1,5.48-6.44.31.31,0,0,1,.42,0,.3.3,0,0,1,0,.41Z"/><path class="cls-8" d="M597.69,283.07l-19.34-52.72c-2.3-11.57-13.3-20.34-26.54-20.34l-54-.43-60.87.24v40.57h18.89l-9.75,105.83,134,.75-.75-71.66Z"/><path class="cls-17" d="M497.68,210l.11-.46-60.87.24v40.57h18.89l.1-1.07C455.91,227.91,474.53,210.5,497.68,210Z"/><path class="cls-18" d="M420.77,151.32s3.41,29,3.61,28.32l5.86-20.39Z"/><path class="cls-10" d="M500.54,298.21l-5.11-25.78-3.95-19.88a4.34,4.34,0,0,0-5.1-3.41l-19.75,3.92a4.33,4.33,0,0,0-3.41,5.09l4,20,3.15,15.88,1.94,9.77a4.35,4.35,0,0,0,5.1,3.41L489,304.92l8.09-1.61A4.34,4.34,0,0,0,500.54,298.21Z"/><path class="cls-13" d="M605.7,322l-8.91-38.79-40.5,4.95,2.22,9.87-.21-.05-44-10.9,0,.05a14.73,14.73,0,0,1-5.51-5.06,13.2,13.2,0,0,0-9.89-5.67c-1.2-1.25-2.31-2.59-3.41-3.94l1,5.2-.26.14a16.68,16.68,0,0,1-9.11,1.89l-19.36-1.51a3,3,0,0,0-2.9,1.65c-5.67,11.91,18.66,22.81,24.22,25.12h0l.2.08.23.09.21.08.18.08.16.06.07,0,.08,0,9.52,3.57L575.08,346a21.64,21.64,0,0,0,2.12.89,18.88,18.88,0,0,0,12.08,1.25h0A21.88,21.88,0,0,0,605.7,322Z"/><path class="cls-15" d="M602.83,309.46l-46.54-21.33c1.55,6.77.65,3.79,2,9.82l3.17.78C574.87,299.64,602.83,309.46,602.83,309.46Z"/><path class="cls-19" d="M552.53,288.63a.49.49,0,0,1-.49-.39l-5.82-28.17a.5.5,0,0,1,1-.21l5.72,27.72,19.59-2.49a.5.5,0,0,1,.56.43.51.51,0,0,1-.44.56l-20,2.55Z"/><path class="cls-15" d="M603.14,311.07l.08.4Z"/><path class="cls-15" d="M603.22,311.47Z"/><path class="cls-15" d="M602.83,309.46s.11.55.21,1.07C603,310.25,602.92,309.91,602.83,309.46Z"/><path class="cls-15" d="M603,310.53l.1.54C603.11,310.91,603.08,310.72,603,310.53Z"/><path class="cls-10" d="M547.94,105.57a15.93,15.93,0,0,0-23.82-11.48,14,14,0,0,0-21.76-2.79,18.52,18.52,0,0,0-20.53,30.46l-3.76,20.12a10.64,10.64,0,0,0,8.5,12.42l44.62,8.35a10.64,10.64,0,0,0,12.42-8.5l7.31-39.05A10.66,10.66,0,0,0,547.94,105.57Z"/><path class="cls-11" d="M482.9,116.58a.49.49,0,0,1-.42-.24c-8-12.61,3-20.7,3.12-20.78a.5.5,0,0,1,.69.11.51.51,0,0,1-.11.7c-.43.31-10.32,7.63-2.86,19.44a.5.5,0,0,1-.15.69A.56.56,0,0,1,482.9,116.58Z"/><path class="cls-13" d="M540.72,145l-1-.18-9.86-21.17a16,16,0,0,1-6.66-2.58,12,12,0,0,1-16.93.71,18.52,18.52,0,0,1-22.37,1.58L477.07,160a20.18,20.18,0,0,0,2.54,14.13A20.5,20.5,0,0,0,494,186.47v24.21A15.33,15.33,0,0,0,509.33,226h4.82a15.33,15.33,0,0,0,15.29-15.29V183.19a20.4,20.4,0,0,0,5-10l1.25-6.69,1,.18a10.73,10.73,0,0,0,12.5-8.56l.11-.58A10.76,10.76,0,0,0,540.72,145Z"/><path class="cls-20" d="M533.42,165.63l-.89,4.78a20.29,20.29,0,0,1-23.68,16.21l-15.57-2.92a20.21,20.21,0,0,1-13.67-9.55,20.52,20.52,0,0,0,15.26,12.52l.62.12a15.32,15.32,0,0,0,13.77,8.69h4.88A15.35,15.35,0,0,0,529,183.66a20.45,20.45,0,0,0,5.42-10.49l1.25-6.69Z"/><path class="cls-16" d="M541.58,159.37a.5.5,0,0,1-.31-.1l-3.89-3a.54.54,0,0,1-.19-.38.5.5,0,0,1,.15-.38l4.8-4.53a.5.5,0,1,1,.69.73l-4.38,4.12,3.43,2.67a.49.49,0,0,1,.09.7A.51.51,0,0,1,541.58,159.37Z"/><path class="cls-10" d="M516.83,140.76a5.8,5.8,0,0,1-2.29-.87c-.77-.42-1.56-.82-2.25-1.14s-1.5-.67-2.31-1a5.84,5.84,0,0,1-2.15-1.19c-.47-.53-.38-1.37.74-1.92a6.76,6.76,0,0,1,5.53.37,6.58,6.58,0,0,1,3.79,4C518.15,140.19,517.55,140.79,516.83,140.76Z"/><path class="cls-10" d="M485,138a6.52,6.52,0,0,0,2.4.5c.87.07,1.75.17,2.5.28s1.63.25,2.49.42a6.5,6.5,0,0,0,2.44.18c.68-.15,1-.82.39-1.78a7.23,7.23,0,0,0-4.88-2.47,7,7,0,0,0-5.31,1C484.2,137,484.39,137.69,485,138Z"/><rect class="cls-10" x="508.62" y="145.27" width="2.54" height="4.09" rx="1.24" transform="translate(983.94 385.98) rotate(-169.39)"/><rect class="cls-10" x="487.06" y="141.76" width="2.54" height="4.09" rx="1.24" transform="translate(941.84 375.08) rotate(-169.39)"/><rect class="cls-15" x="509" y="152.15" width="7.52" height="3.15" rx="1.53" transform="translate(1005.12 363.8) rotate(-173.58)"/><rect class="cls-15" x="479.81" y="147.55" width="7.52" height="3.15" rx="1.53" transform="translate(947.45 351.37) rotate(-173.58)"/><path class="cls-16" d="M494.08,173.08a.51.51,0,0,1-.4-.2.49.49,0,0,1,.11-.7,4.74,4.74,0,0,1,5.39,0,.51.51,0,0,1,.12.7.5.5,0,0,1-.7.12,3.73,3.73,0,0,0-4.22,0A.55.55,0,0,1,494.08,173.08Z"/><path class="cls-12" d="M497.46,158.87l11.7-1.67-1.28,4.06a6.26,6.26,0,0,1-6,4.37h0a4.16,4.16,0,0,1-4.13-3.71Z"/><path class="cls-16" d="M500.49,154.72h-.13l-3.63-1a5.09,5.09,0,0,1-3.17-7.41l5.52-9.94a.5.5,0,0,1,.68-.19.51.51,0,0,1,.2.68l-5.53,9.94a4.11,4.11,0,0,0,2.56,6l3.62.94a.5.5,0,0,1,.36.61A.49.49,0,0,1,500.49,154.72Z"/><path class="cls-13" d="M330.67,226.62,290.6,152.34l-4.72-11.14s-16.64-38.61-30.13-27.26l.06.28A4.63,4.63,0,0,0,254.2,113a3.41,3.41,0,0,0-2.91-.06h0c-1.84.86-2.5,3.35-1.48,5.53L261.32,143a20.88,20.88,0,0,0-3.25-2.78,18.32,18.32,0,0,0-4.11-2.69c-2.57-1.15-5.66-.79-7.34,1.7a2,2,0,0,0-.41,1.45,2.35,2.35,0,0,0,.79,1.11c3.26,3,6.85,5.65,10,8.73a16.75,16.75,0,0,0,6.68,11.06,18.07,18.07,0,0,1,5.79,6.42l-.06.05L284,218.54l-21.19.28V259.2h46.86a21.78,21.78,0,0,0,10.93-2.93l.46-.21h0A21.59,21.59,0,0,0,330.67,226.62Z"/><path class="cls-15" d="M296.8,259.2h0S285.91,229.9,284,218.42c-7.21,0-8.31.32-15.53.32Z"/><path class="cls-16" d="M272.51,145.53a.49.49,0,0,1-.4-.21c-4.5-6.1-10.32-2.95-10.57-2.82a.5.5,0,0,1-.68-.19.51.51,0,0,1,.19-.68,9.16,9.16,0,0,1,11.86,3.1.5.5,0,0,1-.4.8Z"/><path class="cls-16" d="M256,113.72a42.27,42.27,0,0,1,3.37,3.84,43.63,43.63,0,0,1,2.9,4.21,30.88,30.88,0,0,1,2.24,4.63,20.07,20.07,0,0,1,1.12,5.06.5.5,0,0,1-.46.54.52.52,0,0,1-.54-.46h0v0a18.6,18.6,0,0,0-1-4.81,30.85,30.85,0,0,0-2.08-4.53,39.8,39.8,0,0,0-2.77-4.18,41,41,0,0,0-3.23-3.84h0a.3.3,0,0,1,0-.42A.31.31,0,0,1,256,113.72Z"/><path class="cls-16" d="M259.34,111.8a13,13,0,0,1,3.94,3.42,26.72,26.72,0,0,1,2.88,4.28,42.94,42.94,0,0,1,2.21,4.65l.91,2.4.81,2.44a.5.5,0,1,1-.95.31h0v0l-.75-2.41-.85-2.38a43,43,0,0,0-2.08-4.59,26.64,26.64,0,0,0-2.72-4.22,12.62,12.62,0,0,0-3.63-3.3l-.05,0a.31.31,0,0,1,.29-.55Z"/><path class="cls-16" d="M264.83,112.65a23.88,23.88,0,0,1,3.06,3,29.43,29.43,0,0,1,2.57,3.4,27.55,27.55,0,0,1,2.05,3.73,27.26,27.26,0,0,1,1.48,4,.5.5,0,0,1-1,.29h0v0a26,26,0,0,0-1.33-3.9,26.67,26.67,0,0,0-1.9-3.68,27.69,27.69,0,0,0-2.43-3.37,23.79,23.79,0,0,0-2.89-3v0a.29.29,0,0,1,.37-.44Z"/><path class="cls-18" d="M267.64,165.2l15.49-1.91-9.58,19S270.7,168.17,267.64,165.2Z"/><path class="cls-12" d="M205.43,218.82v0l-.72,0H155.8a24.83,24.83,0,0,0-23.22,16h0l-.07.21,0,.09-20.8,56.71L131,294.24v63H236.08l7.86-98h18.29V218.62Z"/><path class="cls-17" d="M262.77,218.62l-55.84.23h0a39.31,39.31,0,0,1,37.64,39.27l-.09,1.07h18.29Z"/><path class="cls-10" d="M243.26,261.86l-19.75-3.92a4.36,4.36,0,0,0-5.1,3.41l-3.94,19.89L209.35,307a4.36,4.36,0,0,0,3.41,5.1l8.09,1.6L232.52,316a4.34,4.34,0,0,0,5.09-3.41l1.94-9.77L242.7,287l4-20A4.35,4.35,0,0,0,243.26,261.86Z"/><path class="cls-13" d="M245.33,288.41a2.83,2.83,0,0,0-1.1-1.22c-.09-.12-.15-.25-.24-.37l-.48.06a2.94,2.94,0,0,0-1.07-.12l-19.36,1.51a16.69,16.69,0,0,1-9.12-1.89l-.46-.25,1-4.89c-1.05,1.28-2.11,2.55-3.24,3.74a13.58,13.58,0,0,0-6.88,2.6,12.45,12.45,0,0,0-3.19,3.27,15.52,15.52,0,0,1-3.58,3.84,12.11,12.11,0,0,1-1.65,1l0-.06-44,10.91-.21.05,2.24-9.92-40.52-4.91-8.91,38.8a21.87,21.87,0,0,0,16.42,26.2h0A18.85,18.85,0,0,0,133,355.53a22.61,22.61,0,0,0,2.12-.88L209.62,318l10.1-3.78,1.13-.46-.15,0C225.31,311.82,251.16,300.64,245.33,288.41Z"/><path class="cls-15" d="M106.75,319.84c0,.21-.06.34-.07.4Z"/><path class="cls-15" d="M151.58,306.76c.92-4.2.65-3.84,2-9.87l-46.55,21.38s4.61-1.39,11-3.08c.6-.21,1.2-.41,1.82-.58Z"/><path class="cls-15" d="M106.87,319.27l-.12.57Z"/><path class="cls-15" d="M106.68,320.24Z"/><path class="cls-15" d="M107.07,318.27c-.09.41-.15.72-.2,1Z"/><path class="cls-19" d="M157.37,297.39h-.06l-8.84-1.09a.5.5,0,1,1,.12-1l8.36,1,4.65-29.7a.5.5,0,0,1,.57-.41.49.49,0,0,1,.42.57L157.86,297A.49.49,0,0,1,157.37,297.39Z"/><path class="cls-21" d="M167.69,302.6l20-.5c3.72.49,9.65-2.87,9-6.56h0Z"/><path class="cls-10" d="M230.65,206.05l-6.79-46.19a50.93,50.93,0,0,0-4.27-14.24l3.68-.59s-2.59-37.49-44.63-28.54a51.19,51.19,0,0,0-12.71.27h0a37.4,37.4,0,0,0-31.56,42.43l4,26.92a37.38,37.38,0,0,0,42.42,31.55l46.32-6.8A4.24,4.24,0,0,0,230.65,206.05Z"/><path class="cls-11" d="M202.76,143.56a.5.5,0,0,1-.07-1l13.52-1.85a.39.39,0,0,0,.34-.44c-2.19-12.19-13.42-17.81-13.53-17.87a.5.5,0,1,1,.44-.9c.12.06,11.8,5.89,14.07,18.59a1.36,1.36,0,0,1-.24,1,1.43,1.43,0,0,1-.95.57l-13.52,1.84Z"/><path class="cls-13" d="M215.78,146.23l-37,6-9-13.29c1.77,14.82-9.16,24.4-9.16,24.4l-.31-.43-.3,0a10.74,10.74,0,0,0-8.56,12.51h0A10.73,10.73,0,0,0,164,184l.71-.13a27.43,27.43,0,0,0,8,14v23.72A15.33,15.33,0,0,0,188,236.87h0a15.33,15.33,0,0,0,15.29-15.29V202.85a27.73,27.73,0,0,0,13.58-13.62l0,0a27.35,27.35,0,0,0,3.41-19.11Z"/><path class="cls-20" d="M198.32,202.13h0a27.46,27.46,0,0,1-31.15-18.47c-.14-.42-2.55.13-2.49.39a27.59,27.59,0,0,0,8.06,13.88A15.33,15.33,0,0,0,188,211.81h0a15.34,15.34,0,0,0,13.55-8.24,27.74,27.74,0,0,0,15.34-14.36A27.4,27.4,0,0,1,198.32,202.13Z"/><path class="cls-16" d="M158.89,177a.51.51,0,0,1-.4-.2.5.5,0,0,1,.09-.7l3.32-2.58-4.24-4a.5.5,0,0,1,.69-.73l4.67,4.41a.5.5,0,0,1,.15.38.52.52,0,0,1-.19.37l-3.79,2.94A.5.5,0,0,1,158.89,177Z"/><path class="cls-10" d="M185.52,158.72a3.77,3.77,0,0,0,1.36-.52c.46-.25.92-.49,1.33-.68s.9-.39,1.38-.58a3.54,3.54,0,0,0,1.27-.71c.28-.32.23-.81-.44-1.14a4,4,0,0,0-3.28.22,3.91,3.91,0,0,0-2.25,2.36C184.73,158.38,185.09,158.73,185.52,158.72Z"/><path class="cls-10" d="M212,154.1a3.51,3.51,0,0,1-1.45-.12c-.51-.11-1-.21-1.47-.28s-1-.13-1.48-.18a3.62,3.62,0,0,1-1.42-.33c-.36-.23-.44-.72.1-1.22a4,4,0,0,1,3.22-.69,3.91,3.91,0,0,1,2.82,1.64C212.7,153.56,212.46,154,212,154.1Z"/><path class="cls-16" d="M197.06,179.41a9.91,9.91,0,0,1-6.88-3.26.52.52,0,0,1,.07-.71.49.49,0,0,1,.7.07c.16.19,4,4.62,9.26,2.17a.49.49,0,0,1,.66.25.49.49,0,0,1-.24.66A8.4,8.4,0,0,1,197.06,179.41Z"/><path class="cls-16" d="M200,172.43a.51.51,0,0,1-.49-.41.5.5,0,0,1,.4-.58l3.51-.7a4,4,0,0,0,3.19-4.74,1.47,1.47,0,0,0-1.72-1.15,3.42,3.42,0,0,1-4-2.69l-.85-4.31a.51.51,0,0,1,1-.2l.84,4.32a2.43,2.43,0,0,0,2.84,1.9,2.45,2.45,0,0,1,2.89,1.94,5.06,5.06,0,0,1-4,5.92l-3.52.69Z"/><path class="cls-10" d="M190.08,167.15h0a1.22,1.22,0,0,1-1.44-1l-.28-1.48a1.24,1.24,0,0,1,1-1.44h0a1.23,1.23,0,0,1,1.44,1l.28,1.47A1.24,1.24,0,0,1,190.08,167.15Z"/><path class="cls-10" d="M211.05,163.75h0a1.24,1.24,0,0,1-1.44-1l-.28-1.48a1.24,1.24,0,0,1,1-1.44h0a1.23,1.23,0,0,1,1.44,1l.28,1.47A1.25,1.25,0,0,1,211.05,163.75Z"/><path class="cls-15" d="M189.21,172.73l-4.23.47a1.53,1.53,0,0,1-1.69-1.35h0a1.53,1.53,0,0,1,1.35-1.69l4.22-.48a1.55,1.55,0,0,1,1.7,1.35h0A1.55,1.55,0,0,1,189.21,172.73Z"/><path class="cls-15" d="M217.6,168.26l-4.22.47a1.54,1.54,0,0,1-1.7-1.35h0a1.54,1.54,0,0,1,1.35-1.69l4.23-.48a1.54,1.54,0,0,1,1.69,1.35h0A1.54,1.54,0,0,1,217.6,168.26Z"/><path class="cls-16" d="M205.09,190.29a.46.46,0,0,1-.29-.1,3.64,3.64,0,0,0-4.1,0,.5.5,0,0,1-.57-.82,4.61,4.61,0,0,1,5.26,0,.5.5,0,0,1-.3.9Z"/></g></svg>