<svg xmlns="http://www.w3.org/2000/svg" viewBox="0 0 641.53 460.71"><defs><style>.cls-1{fill:#e0e0e0;}.cls-2{fill:#fafafa;}.cls-3{fill:#ebebeb;}.cls-4{fill:#fff;}.cls-5{fill:#263238;}.cls-6{fill:#2f57a4;}.cls-7{fill:#ffbf9d;}.cls-8{fill:#ff9a6c;}.cls-9{fill:#455a64;}.cls-10{opacity:0.6;}.cls-11{opacity:0.3;}.cls-12{fill:#ae7461;}.cls-13{fill:#6f4439;}.cls-14{fill:#f5f5f5;}</style></defs><g id="Background_Complete" data-name="Background Complete"><path class="cls-1" d="M447.57,338.21a35.08,35.08,0,0,0-15-5.15c-2.44-.25-5.11-.18-7.07,1.3a1.47,1.47,0,0,0-.73,1.3,1.61,1.61,0,0,0,.69.88c6.09,4.64,15.29,5.23,22.07,1.67"/><path class="cls-1" d="M447.18,337.79a72.3,72.3,0,0,1-9.65-8.5,24.46,24.46,0,0,1-6.06-11.2,4.51,4.51,0,0,1,.48-3.75c7.7,6,13.75,13.79,15.23,23.45"/><path class="cls-1" d="M447.49,338.15a34.86,34.86,0,0,1,.18-12.68A17.12,17.12,0,0,1,454.42,315c1.33,3.11.76,6.69-.18,9.94a48.33,48.33,0,0,1-6.69,14.1"/><path class="cls-1" d="M455,351.68c-4.59.55-8.58,3-12,6.07a22.72,22.72,0,0,0-6.86,11.77c4.5-.27,8.31-3.44,11.07-7s4.69-7.45,7.72-10.77"/><path class="cls-1" d="M456.68,353.84a29.58,29.58,0,0,1,3.41-28c2.61,9.29,1.65,19.77-3.41,28"/><path class="cls-1" d="M466.65,365.72a21.38,21.38,0,0,0-20.45,11.77c-.26.51-.48,1.15-.14,1.6a1.49,1.49,0,0,0,1.35.4c4-.26,7.61-2.68,10.56-5.45s5.51-6,8.77-8.34"/><path class="cls-1" d="M466.33,365.07a38.13,38.13,0,0,1-.38-21.28c.75-2.74,2-5.62,4.54-6.91a.7.7,0,0,1,1.14.39,12.87,12.87,0,0,1,1.07,6.11,39.49,39.49,0,0,1-1,6.18c-.8,3.77-1.22,7.83-3.29,11.09a20.5,20.5,0,0,0-1.32,2.44c-.39.82-.4,1.11-.76,1.77"/><path class="cls-1" d="M492.73,369c-2-7.44.12-16.46,4.81-22.56.34-.44.8-.93,1.37-.87.86.08,1.08,1.23,1,2.09A40.72,40.72,0,0,1,492.73,369"/><path class="cls-1" d="M495.11,370.63A32.8,32.8,0,0,0,522,365.15a21.88,21.88,0,0,0-14.58-1.79c-4.87,1.12-9.32,3.3-12.35,7.27"/><path class="cls-1" d="M497.12,365.68c5.06-8.26,14.76-13.64,24.43-14.13-1.11,3.93-4.34,7-8,8.83s-7.72,2.65-11.73,3.43c-1.56.31-3.7.64-4.71,1.87"/><path class="cls-1" d="M493.23,341.64a71.47,71.47,0,0,0,3.13-14.31c.37-4.88-.32-10-2.85-14.16-4.73,9.15-5.21,19.84-.42,29"/><path class="cls-1" d="M509.15,333.59c5.53-10,16.81-18.08,28.23-19.2-4.4,11-16.41,19.44-28.23,19.2"/><path class="cls-1" d="M505.67,335.56c8.25,1.26,15.28,6.53,23,9.72a10.36,10.36,0,0,0,5.2,1,4.07,4.07,0,0,0,2.55-7.19,11.14,11.14,0,0,0-3.78-2.29c-8.39-3.49-17.39-3.58-26.24-1.46"/><path class="cls-1" d="M500.9,341.35c1.87.53,2.51,1.5,4,2.76a43,43,0,0,0,17.42,8.95c.67.16,1.54.23,1.87-.37s-.08-1.16-.45-1.63a23.94,23.94,0,0,0-10.52-7.14c-4-1.5-7.51-3.31-12.31-2.92"/><path class="cls-1" d="M495.52,306.41A33,33,0,0,0,520.8,315a1.7,1.7,0,0,0,1.15-.41c.64-.69-.13-1.76-.87-2.34-7.43-5.79-16.43-8.2-25.56-5.85"/><path class="cls-1" d="M501.9,304.07a35.25,35.25,0,0,1,31.55-5.2,25.07,25.07,0,0,1-15,6.6,47.47,47.47,0,0,1-16.52-1.4"/><path class="cls-1" d="M499.36,288c-.73-7.42-.25-13.28-.77-20.73,0-.6-.17-1.31-.72-1.53-.78-.3-1.43.66-1.68,1.45a23.78,23.78,0,0,0,3.16,20.65"/><path class="cls-1" d="M498.83,288.84a43.66,43.66,0,0,0,12.29-11.94c2.43-3.33,4.47-7.31,3.92-11.38a11.73,11.73,0,0,0-8.86,4.4,24.65,24.65,0,0,0-4.52,9.09c-1,3.27-1.68,6.62-2.83,9.83"/><path class="cls-1" d="M510.91,285.49a99.34,99.34,0,0,0,30.24-17.84c-3.61-1.45-7.75-.58-11.36.87-8.25,3.34-15,9-19,16.89"/><path class="cls-1" d="M502.23,292.9c5.58.61,11.25,1,16.79.08s10.59-3.07,15.68-5.21a1.88,1.88,0,0,0,1.07-.81,1.23,1.23,0,0,0-.39-1.34,3.34,3.34,0,0,0-1.33-.63c-5.54-1.54-11.51-.82-16.95,1a78,78,0,0,0-14.87,6.89"/><path class="cls-1" d="M470.34,306.66c-3.81-7.68-3.56-16.66-.27-24.58,2.32,3.53,2.6,8,2.18,12.22s-1.71,8.53-1.79,12.75"/><path class="cls-1" d="M455.12,299a34.28,34.28,0,0,0-25.48,10.86,23.82,23.82,0,0,0,13.95-2.59,70.73,70.73,0,0,0,12-8"/><path class="cls-1" d="M444.89,295.57c-4.65-.38-9.13-1-13.6.41s-8.55,4.49-10.37,8.8a24.56,24.56,0,0,0,12.75-2.41,73.36,73.36,0,0,0,11.22-6.8"/><path class="cls-1" d="M460,295.72c-4.18-2.74-8.48-5.53-13.36-6.67s-10.52-.29-13.92,3.38c3.95,2.31,8.73,2.59,13.31,2.58s10.18-.05,14.49,1.47"/><path class="cls-1" d="M460.07,295.94c-7.16-7-9.87-19.65-7-29.25a44.61,44.61,0,0,1,7,29.25"/><path class="cls-1" d="M479.74,276c1.35-3.13,2.3-6.43,3.51-9.62a27.58,27.58,0,0,1,5-8.87,13.1,13.1,0,0,1,8.86-4.59,35.76,35.76,0,0,1-17.2,23.14"/><path class="cls-1" d="M476.18,280.18c-2.23-3.07-4.81-7.24-7.84-9.54s-7-3.68-10.67-2.8a24.83,24.83,0,0,0,18.51,12.34"/><path class="cls-1" d="M476.9,276.29a53.25,53.25,0,0,1-3.54-11.43,17.88,17.88,0,0,1,1.79-11.63c3.93,7.43,5.2,15.4,2,23.15"/><path class="cls-1" d="M479.78,253.23c2.22-7.36,9-12.78,16.24-15.26a6,6,0,0,1,2.85-.43,2.47,2.47,0,0,1,2.1,1.75c.26,1.25-.77,2.37-1.74,3.21a55.33,55.33,0,0,1-19.45,10.73"/><path class="cls-1" d="M479.86,247.21c.28-4.74.58-9.56,2.12-14.05s4.52-8.72,8.85-10.69c.74,4.8-1.38,9.56-3.93,13.69s-5.62,8-7.16,12.62"/><path class="cls-1" d="M479.74,250.48c-1.84-5.36-2-12.18-5.24-16.85-2.24-3.27-5.84-5.49-7.77-8.95a13.56,13.56,0,0,0,.45,10.16,29.27,29.27,0,0,0,5.94,8.51c2.38,2.54,4.41,4.45,6.62,7.13"/><path class="cls-1" d="M479.78,408.46c-.14,0-.27-35.78-.28-79.92s.1-79.93.24-79.93.27,35.78.28,79.93S479.92,408.46,479.78,408.46Z"/><path class="cls-1" d="M511.05,301.26a6.69,6.69,0,0,1-1.34.51L506,303c-3.12,1.06-7.41,2.6-12.06,4.51s-9,3.58-11.43,5.73a8.34,8.34,0,0,0-2.3,3c-.36.84-.42,1.35-.47,1.34a1.3,1.3,0,0,1,0-.37,5.77,5.77,0,0,1,.26-1,8.12,8.12,0,0,1,2.24-3.24,20.49,20.49,0,0,1,5-3.08c2-.92,4.19-1.89,6.52-2.85,4.67-1.91,9-3.4,12.15-4.38,1.58-.49,2.87-.85,3.76-1.09A7.91,7.91,0,0,1,511.05,301.26Z"/><path class="cls-1" d="M521.3,276.09s-.11.15-.37.4-.69.64-1.15,1.08l-4.29,3.89-14.27,12.71c-5.57,4.95-10.38,9.69-13.72,13.26-1.67,1.78-3,3.25-3.88,4.29l-1,1.18a2.44,2.44,0,0,1-.38.39,1.93,1.93,0,0,1,.3-.46c.22-.28.53-.71,1-1.24.85-1.08,2.12-2.59,3.76-4.41a182.44,182.44,0,0,1,13.65-13.4c5.59-4.95,10.67-9.39,14.37-12.59,1.81-1.56,3.3-2.84,4.4-3.77l1.21-1C521.14,276.18,521.29,276.07,521.3,276.09Z"/><path class="cls-1" d="M495.21,299.21c-.15-.07,1-2.75,2.18-6.15s1.72-6.27,1.87-6.24a21.34,21.34,0,0,1-1.38,6.4,41.87,41.87,0,0,1-1.74,4.3A6.57,6.57,0,0,1,495.21,299.21Z"/><path class="cls-1" d="M479.81,320.87a7,7,0,0,1-.86-1l-2.19-2.82c-1.85-2.39-4.41-5.68-7.27-9.29s-5.49-6.84-7.4-9.18l-2.24-2.78a6.19,6.19,0,0,1-.78-1.06,5.73,5.73,0,0,1,.93.93c.57.62,1.38,1.53,2.37,2.67,2,2.29,4.66,5.49,7.53,9.1s5.37,6.95,7.15,9.39c.88,1.23,1.59,2.22,2.07,2.92A6.46,6.46,0,0,1,479.81,320.87Z"/><path class="cls-1" d="M473,312.06a12.44,12.44,0,0,1-2.88-5.37,15.49,15.49,0,0,1-.65-5.43l.23,0c-.1.42-.18.64-.22.63s0-.24,0-.66h.23a24.37,24.37,0,0,0,.92,5.28A37.06,37.06,0,0,0,473,312.06Z"/><path class="cls-1" d="M464.1,300.93a9,9,0,0,0-2-1.17,13.56,13.56,0,0,0-5.57-.44,33.83,33.83,0,0,0-5.61.91,17.17,17.17,0,0,1-2.31.55,8.2,8.2,0,0,1,2.21-.91,25.52,25.52,0,0,1,5.67-1.06,12,12,0,0,1,5.74.61A3.55,3.55,0,0,1,464.1,300.93Z"/><path class="cls-1" d="M462,298.23c0,.08-1.16-.47-3.07-1.12a32,32,0,0,0-7.67-1.58,31.43,31.43,0,0,0-7.81.4c-2,.35-3.18.73-3.21.64a3.46,3.46,0,0,1,.81-.35,20.54,20.54,0,0,1,2.32-.65,27.42,27.42,0,0,1,15.69,1.2,21,21,0,0,1,2.19,1A2.78,2.78,0,0,1,462,298.23Z"/><path class="cls-1" d="M479.74,286.82A66,66,0,0,1,477.5,279a62.77,62.77,0,0,1-1.74-7.91,63.79,63.79,0,0,1,2.24,7.79A62.77,62.77,0,0,1,479.74,286.82Z"/><path class="cls-1" d="M479.89,286.82a38.08,38.08,0,0,0-2.49-4.66,21,21,0,0,0-3.65-3.78,3.57,3.57,0,0,1,1.41.73,11.52,11.52,0,0,1,2.67,2.75A10.5,10.5,0,0,1,479.89,286.82Z"/><path class="cls-1" d="M479.78,389.39c-.06,0-.16-.86-.56-2.38a33.55,33.55,0,0,0-2.4-6.2c-2.47-5.05-7-11.46-12.68-17.88-2.84-3.23-5.59-6.29-7.92-9.21a65.27,65.27,0,0,1-5.66-8.16,39.21,39.21,0,0,1-2.85-6.06c-.27-.74-.46-1.33-.57-1.73a2.54,2.54,0,0,1-.14-.62s.3.82.89,2.28a44.19,44.19,0,0,0,3,5.95,69.61,69.61,0,0,0,5.71,8c2.34,2.9,5.1,5.93,7.93,9.17,5.74,6.44,10.23,12.93,12.63,18.06a30.78,30.78,0,0,1,2.26,6.31,16.66,16.66,0,0,1,.32,1.79A2.79,2.79,0,0,1,479.78,389.39Z"/><path class="cls-1" d="M508,357.47a14.16,14.16,0,0,1-1.48.83,30.84,30.84,0,0,0-3.84,2.54,43.64,43.64,0,0,0-5.05,4.6c-1.77,1.87-3.59,4-5.46,6.37-3.72,4.67-7.2,8.8-9.28,12.1-1.06,1.64-1.83,3-2.34,4a12.59,12.59,0,0,1-.81,1.49s0-.16.14-.42.26-.67.49-1.16a38.65,38.65,0,0,1,2.21-4.09c2-3.38,5.48-7.57,9.19-12.23,1.87-2.34,3.71-4.51,5.52-6.38a40.28,40.28,0,0,1,5.17-4.57,27.25,27.25,0,0,1,4-2.42c.49-.25.89-.4,1.15-.51S508,357.45,508,357.47Z"/><path class="cls-1" d="M508.59,367.82a21,21,0,0,1-3.13.46,41.3,41.3,0,0,0-7.42,1.46,22.25,22.25,0,0,0-6.65,3.49c-1.53,1.18-2.25,2.16-2.33,2.1a2.86,2.86,0,0,1,.47-.72,11.59,11.59,0,0,1,1.63-1.67,20.05,20.05,0,0,1,6.72-3.69,33.22,33.22,0,0,1,7.55-1.34A17,17,0,0,1,508.59,367.82Z"/><path class="cls-1" d="M490,374.2c-.17-.1,1.25-2.25,2.34-5.15s1.27-5.49,1.45-5.46a4.71,4.71,0,0,1,0,1.68,18.09,18.09,0,0,1-.91,4,19.63,19.63,0,0,1-1.82,3.63A5.26,5.26,0,0,1,490,374.2Z"/><path class="cls-1" d="M517.19,329.67a2.79,2.79,0,0,1-.5.26l-1.47.67c-.64.28-1.43.63-2.31,1.09s-1.91.93-3,1.57l-1.71,1c-.59.34-1.18.74-1.8,1.13-1.26.76-2.52,1.71-3.86,2.67a71.81,71.81,0,0,0-8.08,7.09,73.21,73.21,0,0,0-6.82,8.31c-.91,1.38-1.81,2.68-2.53,4-.37.64-.75,1.24-1.07,1.84s-.62,1.18-.91,1.74c-.61,1.09-1,2.14-1.47,3s-.76,1.69-1,2.35-.46,1.09-.62,1.49a2.53,2.53,0,0,1-.25.51,2.48,2.48,0,0,1,.15-.55c.14-.4.32-.91.53-1.53s.52-1.47.93-2.38.82-2,1.41-3.1c.29-.56.58-1.15.89-1.76s.69-1.22,1.05-1.87c.71-1.3,1.6-2.61,2.51-4a70.94,70.94,0,0,1,6.84-8.4,69.89,69.89,0,0,1,8.16-7.12c1.37-.95,2.64-1.89,3.92-2.64.63-.39,1.23-.78,1.83-1.12l1.74-.95c1.09-.62,2.14-1.07,3-1.51s1.69-.76,2.35-1l1.51-.58A2.12,2.12,0,0,1,517.19,329.67Z"/><path class="cls-1" d="M494.83,344.65a3.54,3.54,0,0,1,1.23-1.83,7.74,7.74,0,0,1,4.95-1.9,13.55,13.55,0,0,1,5.22,1,7.31,7.31,0,0,1,2,1,12.86,12.86,0,0,1-2.09-.62,15.66,15.66,0,0,0-5.08-.84,8.1,8.1,0,0,0-4.74,1.66A13.76,13.76,0,0,0,494.83,344.65Z"/><path class="cls-1" d="M491.48,348.1a18.64,18.64,0,0,0,1.41-4.58,18.27,18.27,0,0,0-.32-4.78,3.11,3.11,0,0,1,.59,1.34,9.58,9.58,0,0,1-.8,6.86C491.92,347.73,491.53,348.14,491.48,348.1Z"/><path class="cls-1" d="M455.06,394.51c.77,13.68,4.9,27.59,11.23,41.65h27.57c6.05-13.92,9.88-27.81,10.56-41.65Z"/><path class="cls-2" d="M500,416.64c0,.15-9.08.26-20.27.26s-20.27-.11-20.27-.26,9.07-.25,20.27-.25S500,416.5,500,416.64Z"/><path class="cls-2" d="M499.34,421.6c0,.14-8.51.26-19,.26s-19-.12-19-.26,8.51-.26,19-.26S499.34,421.46,499.34,421.6Z"/><path class="cls-2" d="M466.74,403.49a77.67,77.67,0,0,1,0,12.7,77.67,77.67,0,0,1,0-12.7Z"/><path class="cls-2" d="M481.51,403.49a83.27,83.27,0,0,1,0,13.15,83.27,83.27,0,0,1,0-13.15Z"/><path class="cls-2" d="M495.37,403.38a86.71,86.71,0,0,1,0,13.42,90.17,90.17,0,0,1,0-13.42Z"/><path class="cls-2" d="M503.55,403.49c0,.15-10.65.26-23.77.26s-23.78-.11-23.78-.26,10.64-.25,23.78-.25S503.55,403.35,503.55,403.49Z"/><path class="cls-1" d="M126.93,343.11a33,33,0,0,0-14.2-4.89c-2.33-.24-4.86-.17-6.72,1.23a1.4,1.4,0,0,0-.7,1.23,1.51,1.51,0,0,0,.66.84c5.78,4.41,14.53,5,21,1.59"/><path class="cls-1" d="M126.57,342.71a69.22,69.22,0,0,1-9.18-8.08A23.17,23.17,0,0,1,111.64,324a4.31,4.31,0,0,1,.45-3.56c7.32,5.71,13.07,13.1,14.48,22.28"/><path class="cls-1" d="M126.86,343.05A33.19,33.19,0,0,1,127,331a16.32,16.32,0,0,1,6.42-9.94c1.26,3,.72,6.36-.17,9.45a46.12,46.12,0,0,1-6.37,13.4"/><path class="cls-1" d="M134,355.9c-4.35.53-8.14,2.82-11.39,5.77a21.44,21.44,0,0,0-6.52,11.19c4.27-.27,7.89-3.28,10.52-6.65s4.44-7.09,7.33-10.24"/><path class="cls-1" d="M135.59,358a28.11,28.11,0,0,1,3.24-26.59c2.48,8.83,1.57,18.79-3.24,26.59"/><path class="cls-1" d="M145.06,369.24a20.32,20.32,0,0,0-19.43,11.18c-.24.48-.45,1.1-.13,1.53a1.46,1.46,0,0,0,1.29.38c3.83-.25,7.22-2.56,10-5.18s5.24-5.65,8.34-7.92"/><path class="cls-1" d="M144.76,368.62a36.09,36.09,0,0,1-.36-20.21c.71-2.6,1.91-5.34,4.31-6.56a.84.84,0,0,1,.66-.12.9.9,0,0,1,.42.48,12.36,12.36,0,0,1,1,5.8,36.67,36.67,0,0,1-.91,5.88c-.76,3.58-1.16,7.44-3.13,10.53a20.74,20.74,0,0,0-1.25,2.32c-.38.79-.38,1.06-.72,1.69"/><path class="cls-1" d="M169.84,372.36c-1.86-7.07.11-15.64,4.57-21.43.32-.43.76-.88,1.29-.83.82.07,1,1.16,1,2a38.7,38.7,0,0,1-6.86,20.27"/><path class="cls-1" d="M172.1,373.91a31.17,31.17,0,0,0,25.58-5.21,20.79,20.79,0,0,0-13.85-1.7c-4.62,1.06-8.85,3.13-11.73,6.91"/><path class="cls-1" d="M174,369.2c4.81-7.84,14-13,23.21-13.42-1.06,3.73-4.13,6.64-7.59,8.39s-7.33,2.52-11.15,3.26c-1.48.29-3.51.6-4.47,1.77"/><path class="cls-1" d="M170.32,346.36a67.75,67.75,0,0,0,3-13.59,22.73,22.73,0,0,0-2.71-13.45c-4.49,8.69-5,18.85-.4,27.51"/><path class="cls-1" d="M185.44,338.72c5.25-9.55,16-17.17,26.82-18.24-4.19,10.41-15.6,18.46-26.82,18.24"/><path class="cls-1" d="M182.14,340.59c7.83,1.19,14.5,6.2,21.83,9.23a9.75,9.75,0,0,0,4.93.95,3.87,3.87,0,0,0,2.42-6.84,10.55,10.55,0,0,0-3.58-2.17c-8-3.32-16.53-3.41-24.93-1.39"/><path class="cls-1" d="M177.6,346.09c1.78.5,2.38,1.42,3.79,2.62a40.79,40.79,0,0,0,16.55,8.5c.63.16,1.46.22,1.78-.35s-.08-1.1-.43-1.55a22.83,22.83,0,0,0-10-6.78c-3.82-1.43-7.13-3.14-11.69-2.77"/><path class="cls-1" d="M172.49,312.9a31.34,31.34,0,0,0,24,8.17,1.67,1.67,0,0,0,1.09-.39c.6-.66-.12-1.68-.83-2.22-7.06-5.51-15.61-7.79-24.28-5.56"/><path class="cls-1" d="M178.55,310.68a33.47,33.47,0,0,1,30-4.95A23.78,23.78,0,0,1,194.24,312a45.15,45.15,0,0,1-15.69-1.32"/><path class="cls-1" d="M176.14,295.43c-.69-7.05-.24-12.62-.73-19.7,0-.56-.16-1.24-.69-1.45-.74-.28-1.35.62-1.6,1.38a22.59,22.59,0,0,0,3,19.61"/><path class="cls-1" d="M175.63,296.21a41.65,41.65,0,0,0,11.68-11.35c2.31-3.16,4.25-6.94,3.73-10.81a11.18,11.18,0,0,0-8.43,4.18,23.53,23.53,0,0,0-4.29,8.64c-.94,3.1-1.59,6.29-2.69,9.34"/><path class="cls-1" d="M187.1,293a94.35,94.35,0,0,0,28.74-16.94c-3.43-1.39-7.36-.56-10.79.83a34,34,0,0,0-18.09,16"/><path class="cls-1" d="M178.86,300.06c5.3.58,10.69,1,15.95.08s10.07-2.91,14.9-4.95a1.73,1.73,0,0,0,1-.77,1.16,1.16,0,0,0-.36-1.27,3.11,3.11,0,0,0-1.27-.6c-5.26-1.47-10.93-.78-16.1,1a75.18,75.18,0,0,0-14.13,6.55"/><path class="cls-1" d="M148.57,313.14c-3.62-7.31-3.38-15.83-.26-23.36,2.2,3.35,2.47,7.62,2.07,11.61s-1.62,8.1-1.7,12.11"/><path class="cls-1" d="M134.11,305.85a32.55,32.55,0,0,0-24.21,10.31,22.57,22.57,0,0,0,13.26-2.46,67.2,67.2,0,0,0,11.36-7.6"/><path class="cls-1" d="M124.39,302.6c-4.42-.36-8.67-.91-12.92.39a15.51,15.51,0,0,0-9.85,8.36,23.47,23.47,0,0,0,12.11-2.29,70.21,70.21,0,0,0,10.66-6.46"/><path class="cls-1" d="M138.78,302.74c-4-2.6-8.06-5.25-12.69-6.33s-10-.28-13.22,3.2c3.75,2.2,8.29,2.46,12.64,2.46s9.67-.05,13.77,1.4"/><path class="cls-1" d="M138.81,303c-6.8-6.67-9.38-18.66-6.64-27.79A42.41,42.41,0,0,1,138.81,303"/><path class="cls-1" d="M157.5,284c1.28-3,2.18-6.11,3.34-9.14a26.28,26.28,0,0,1,4.75-8.43A12.56,12.56,0,0,1,174,262.1a33.92,33.92,0,0,1-16.34,22"/><path class="cls-1" d="M154.12,288c-2.12-2.92-4.57-6.88-7.45-9.06s-6.63-3.5-10.14-2.66A23.6,23.6,0,0,0,154.12,288"/><path class="cls-1" d="M154.79,284.28a50.17,50.17,0,0,1-3.35-10.86,17,17,0,0,1,1.7-11c3.73,7.05,4.93,14.63,1.85,22"/><path class="cls-1" d="M157.54,262.38c2.11-7,8.51-12.14,15.43-14.51a5.84,5.84,0,0,1,2.7-.4,2.34,2.34,0,0,1,2,1.66c.26,1.19-.73,2.26-1.65,3.05a52.5,52.5,0,0,1-18.47,10.2"/><path class="cls-1" d="M157.61,256.66c.27-4.51.55-9.08,2-13.36s4.29-8.27,8.4-10.14c.7,4.55-1.31,9.08-3.73,13s-5.34,7.62-6.8,12"/><path class="cls-1" d="M157.5,259.76c-1.75-5.09-1.93-11.57-5-16-2.13-3.1-5.55-5.21-7.39-8.5a13,13,0,0,0,.43,9.65,28.1,28.1,0,0,0,5.65,8.09c2.26,2.41,4.19,4.22,6.29,6.77"/><path class="cls-1" d="M157.54,409.85c-.14,0-.26-34-.27-75.93s.1-75.93.23-75.93.25,34,.26,75.93S157.67,409.85,157.54,409.85Z"/><path class="cls-1" d="M187.25,308a8.43,8.43,0,0,1-1.28.48l-3.52,1.19c-3,1-7,2.47-11.46,4.28s-8.51,3.41-10.86,5.44a8.11,8.11,0,0,0-2.19,2.89c-.33.8-.39,1.29-.44,1.28s0-.13,0-.36a4.28,4.28,0,0,1,.25-1,7.66,7.66,0,0,1,2.12-3.08,19.39,19.39,0,0,1,4.72-2.92c1.88-.88,4-1.8,6.19-2.71,4.44-1.82,8.54-3.24,11.54-4.16,1.5-.47,2.72-.82,3.57-1A6.92,6.92,0,0,1,187.25,308Z"/><path class="cls-1" d="M197,284.09a2.41,2.41,0,0,1-.35.38l-1.1,1-4.07,3.7-13.55,12.06c-5.3,4.72-9.87,9.22-13,12.6-1.58,1.7-2.83,3.1-3.69,4.08l-1,1.12c-.23.26-.36.39-.37.37a2.41,2.41,0,0,1,.29-.43c.21-.27.51-.68.92-1.19.81-1,2-2.45,3.58-4.18a171.39,171.39,0,0,1,13-12.73c5.31-4.7,10.14-8.92,13.65-12,1.73-1.47,3.14-2.69,4.18-3.58l1.15-1A2.24,2.24,0,0,1,197,284.09Z"/><path class="cls-1" d="M172.19,306.05c-.13-.06,1-2.61,2.07-5.84s1.64-5.95,1.78-5.93a20,20,0,0,1-1.31,6.09,41.69,41.69,0,0,1-1.65,4.09A6.22,6.22,0,0,1,172.19,306.05Z"/><path class="cls-1" d="M157.57,326.63a6.05,6.05,0,0,1-.82-.94L154.66,323c-1.75-2.27-4.18-5.4-6.9-8.83s-5.22-6.5-7-8.72l-2.13-2.64a6.85,6.85,0,0,1-.74-1,5.66,5.66,0,0,1,.88.88c.55.59,1.32,1.46,2.26,2.55,1.88,2.16,4.42,5.21,7.15,8.64s5.1,6.6,6.79,8.92c.84,1.16,1.51,2.11,2,2.77A6.9,6.9,0,0,1,157.57,326.63Z"/><path class="cls-1" d="M151.05,318.27a12,12,0,0,1-2.73-5.11,14.71,14.71,0,0,1-.62-5.15l.22,0c-.1.39-.17.6-.21.59s0-.22,0-.63l.21,0a23.8,23.8,0,0,0,.87,5A37.43,37.43,0,0,0,151.05,318.27Z"/><path class="cls-1" d="M142.64,307.69a8.65,8.65,0,0,0-1.9-1.11,12.8,12.8,0,0,0-5.29-.42,33.16,33.16,0,0,0-5.33.86,17.56,17.56,0,0,1-2.19.53,7.29,7.29,0,0,1,2.1-.86,24.42,24.42,0,0,1,5.38-1,11.6,11.6,0,0,1,5.46.59A3.34,3.34,0,0,1,142.64,307.69Z"/><path class="cls-1" d="M140.65,305.13c0,.07-1.11-.45-2.92-1.07A29.32,29.32,0,0,0,123,302.94c-1.88.34-3,.69-3,.61a2.89,2.89,0,0,1,.78-.33,17.07,17.07,0,0,1,2.2-.62,26.12,26.12,0,0,1,7.53-.53,25.8,25.8,0,0,1,7.37,1.67,17.92,17.92,0,0,1,2.08.94A2.9,2.9,0,0,1,140.65,305.13Z"/><path class="cls-1" d="M157.5,294.28a61,61,0,0,1-2.13-7.39,61.15,61.15,0,0,1-1.65-7.52,62.2,62.2,0,0,1,2.13,7.4A61.67,61.67,0,0,1,157.5,294.28Z"/><path class="cls-1" d="M157.64,294.28a36.58,36.58,0,0,0-2.36-4.42,19.76,19.76,0,0,0-3.48-3.59,3.2,3.2,0,0,1,1.34.69,10.92,10.92,0,0,1,2.54,2.61A9.89,9.89,0,0,1,157.64,294.28Z"/><path class="cls-1" d="M157.54,391.72c-.06,0-.16-.81-.54-2.26a32.2,32.2,0,0,0-2.27-5.88c-2.35-4.8-6.63-10.89-12.06-17-2.69-3.08-5.3-6-7.51-8.76a60.87,60.87,0,0,1-5.38-7.75,36.4,36.4,0,0,1-2.71-5.75c-.25-.71-.44-1.27-.54-1.65a3,3,0,0,1-.14-.59s.29.78.85,2.17a41.54,41.54,0,0,0,2.84,5.64,64.29,64.29,0,0,0,5.43,7.65c2.22,2.75,4.84,5.63,7.53,8.71,5.45,6.11,9.71,12.28,12,17.16a28.92,28.92,0,0,1,2.14,6,17,17,0,0,1,.31,1.7A5.45,5.45,0,0,1,157.54,391.72Z"/><path class="cls-1" d="M184.38,361.4a11.07,11.07,0,0,1-1.4.79,30.42,30.42,0,0,0-3.65,2.41,43.06,43.06,0,0,0-4.8,4.37c-1.68,1.78-3.41,3.85-5.18,6.06-3.54,4.43-6.84,8.36-8.82,11.49-1,1.56-1.74,2.87-2.22,3.79a11.84,11.84,0,0,1-.77,1.41s0-.14.13-.39.24-.64.47-1.11a37,37,0,0,1,2.09-3.88c1.92-3.21,5.21-7.19,8.74-11.62,1.77-2.22,3.52-4.28,5.24-6.06a37.71,37.71,0,0,1,4.91-4.33,25,25,0,0,1,3.77-2.31c.46-.23.84-.38,1.09-.48A1.64,1.64,0,0,1,184.38,361.4Z"/><path class="cls-1" d="M184.91,371.24a20.9,20.9,0,0,1-3,.43,39.18,39.18,0,0,0-7.05,1.39,21.4,21.4,0,0,0-6.31,3.31c-1.46,1.13-2.15,2.06-2.21,2s.11-.28.44-.69a10.48,10.48,0,0,1,1.55-1.59,19.08,19.08,0,0,1,6.38-3.51,32.25,32.25,0,0,1,7.17-1.27A15.83,15.83,0,0,1,184.91,371.24Z"/><path class="cls-1" d="M167.22,377.29c-.15-.08,1.19-2.13,2.23-4.88s1.2-5.22,1.38-5.19a4.83,4.83,0,0,1-.05,1.59,17,17,0,0,1-.87,3.76,18.35,18.35,0,0,1-1.72,3.45C167.66,376.85,167.28,377.33,167.22,377.29Z"/><path class="cls-1" d="M193.08,335a2.33,2.33,0,0,1-.48.25l-1.4.64c-.61.26-1.35.59-2.19,1s-1.82.88-2.84,1.49l-1.62.92c-.57.32-1.12.71-1.71,1.08-1.2.73-2.4,1.62-3.68,2.53A63,63,0,0,0,165,357.58c-.87,1.31-1.72,2.54-2.41,3.76-.35.6-.71,1.17-1,1.74l-.86,1.66c-.58,1-1,2-1.4,2.89s-.72,1.6-1,2.22-.43,1-.59,1.42a3.3,3.3,0,0,1-.23.49,1.78,1.78,0,0,1,.14-.52l.5-1.45c.22-.64.5-1.41.89-2.27s.77-1.88,1.34-2.94q.41-.79.84-1.68c.3-.58.66-1.16,1-1.77.67-1.24,1.52-2.48,2.38-3.81a60.6,60.6,0,0,1,14.25-14.74c1.3-.91,2.51-1.8,3.73-2.51.6-.37,1.16-.75,1.73-1.07l1.65-.9c1-.59,2-1,2.89-1.43s1.61-.73,2.24-1l1.43-.55A1.93,1.93,0,0,1,193.08,335Z"/><path class="cls-1" d="M171.83,349.23a3.37,3.37,0,0,1,1.17-1.74,7.33,7.33,0,0,1,4.71-1.81,12.87,12.87,0,0,1,4.95,1,6.72,6.72,0,0,1,1.87.91,11.44,11.44,0,0,1-2-.58,14.93,14.93,0,0,0-4.82-.81,7.69,7.69,0,0,0-4.5,1.58A12.63,12.63,0,0,0,171.83,349.23Z"/><path class="cls-1" d="M168.65,352.5a17.12,17.12,0,0,0,1.34-4.35,18,18,0,0,0-.3-4.54,3,3,0,0,1,.55,1.27,8.75,8.75,0,0,1,.24,3.33,9,9,0,0,1-1,3.19C169.07,352.15,168.7,352.54,168.65,352.5Z"/><path class="cls-1" d="M134.05,396.6c.74,13,4.65,26.2,10.67,39.56h26.19c5.75-13.22,9.39-26.42,10-39.56Z"/><path class="cls-2" d="M176.7,417.62c0,.14-8.62.25-19.25.25s-19.26-.11-19.26-.25,8.62-.25,19.26-.25S176.7,417.48,176.7,417.62Z"/><path class="cls-2" d="M176.12,422.33c0,.13-8.08.24-18.05.24s-18.06-.11-18.06-.24,8.08-.25,18.06-.25S176.12,422.19,176.12,422.33Z"/><path class="cls-2" d="M145.15,405.13a75.87,75.87,0,0,1,0,12.06,72.85,72.85,0,0,1,0-12.06Z"/><path class="cls-2" d="M159.18,405.13a81.37,81.37,0,0,1,0,12.49,78.13,78.13,0,0,1,0-12.49Z"/><path class="cls-2" d="M172.35,405a81.28,81.28,0,0,1,0,12.74,81.28,81.28,0,0,1,0-12.74Z"/><path class="cls-2" d="M180.12,405.13c0,.13-10.12.24-22.59.24s-22.59-.11-22.59-.24,10.11-.25,22.59-.25S180.12,405,180.12,405.13Z"/><rect class="cls-1" x="9.41" width="108.71" height="179.95"/><rect class="cls-3" x="5.8" width="108.71" height="179.95"/><rect class="cls-4" x="10.43" y="3.65" width="99.45" height="172.65"/><rect class="cls-3" x="29.36" y="26.08" width="61.16" height="127.78"/><path class="cls-1" d="M29.36,108.65C29.22,96.71,40,85.06,51.77,83.39c5.64-.79,11.63.33,16.89-1.83,9.4-3.86,12.4-16.35,21.86-20.05L91,153.86H29.36Z"/><rect class="cls-1" x="468.7" y="1.72" width="108.71" height="179.95"/><rect class="cls-3" x="465.08" y="1.72" width="108.71" height="179.95"/><rect class="cls-4" x="469.71" y="5.37" width="99.45" height="172.65"/><rect class="cls-3" x="488.65" y="27.81" width="61.16" height="127.78"/><path class="cls-1" d="M488.65,110.37c-.15-11.94,10.59-23.59,22.41-25.25,5.63-.8,11.62.32,16.89-1.84,9.4-3.85,12.39-16.34,21.85-20.05l.43,92.36H488.65Z"/><polygon class="cls-1" points="377.2 6.48 377.2 88.46 259.46 88.46 255.22 7.05 377.2 6.48"/><rect class="cls-3" x="273.47" y="-11.2" width="81.23" height="117.74" transform="translate(266.42 361.76) rotate(-90)"/><rect class="cls-4" x="267.97" y="17.14" width="92.24" height="61.05"/><path class="cls-1" d="M360.21,17.14l-.46,0-1.31,0-5.06,0-19,.07-66.4.13.27-.27c0,18.66,0,39.32,0,61h0L268,77.9l92.24.06-.23.23c0-18.58.09-33.81.12-44.42,0-5.3,0-9.44.06-12.28,0-1.4,0-2.48,0-3.23s0-1.12,0-1.12,0,.36,0,1.07,0,1.81,0,3.19c0,2.83,0,7,.06,12.23,0,10.64.07,25.92.12,44.56v.23h-.23L268,78.48h-.29v-.29h0c0-21.72,0-42.38,0-61v-.26H268l66.57.13,18.95.07,5,0,1.29,0Z"/><path class="cls-1" d="M255.22,6.82a9.92,9.92,0,0,1,2,1.31c1.21.87,2.85,2.11,4.62,3.52s3.33,2.76,4.42,3.77A9.52,9.52,0,0,1,268,17.14c-.11.13-2.94-2.21-6.48-5S255.11,7,255.22,6.82Z"/><path class="cls-1" d="M373,7.05a56.31,56.31,0,0,1-6.19,5.28,57.47,57.47,0,0,1-6.56,4.81,57.83,57.83,0,0,1,6.2-5.27A57.8,57.8,0,0,1,373,7.05Z"/><path class="cls-4" d="M372.87,88.3,359.74,77.66"/><path class="cls-1" d="M359.74,77.66a60.66,60.66,0,0,1,6.75,5.09,61.62,61.62,0,0,1,6.38,5.55,63.19,63.19,0,0,1-6.75-5.1A63.78,63.78,0,0,1,359.74,77.66Z"/><path class="cls-1" d="M255.22,88.28a55.79,55.79,0,0,1,6.13-5.21,56.36,56.36,0,0,1,6.49-4.77,56.34,56.34,0,0,1-6.13,5.22A55.05,55.05,0,0,1,255.22,88.28Z"/><rect class="cls-1" x="305.5" y="17.37" width="20.44" height="58.04" transform="translate(269.33 362.1) rotate(-90)"/></g><g id="Speech_Bubble_2" data-name="Speech Bubble 2"><path class="cls-2" d="M591.93,73.18l7.87,1.4a23.86,23.86,0,1,0-4.43-7.31h0Z"/><path class="cls-5" d="M591.93,73.18l.21-.38c.15-.26.37-.64.64-1.14l2.53-4.43a.07.07,0,0,1,.08,0l0,0h0l-.11.06a23.61,23.61,0,0,1-.66-15.2c.18-.62.42-1.23.64-1.86a15.92,15.92,0,0,1,.8-1.87,23.93,23.93,0,0,1,5.14-7,23.79,23.79,0,0,1,29.06-2.88,22.19,22.19,0,0,1,2.35,1.66,14.26,14.26,0,0,1,1.1,1c.35.34.73.64,1.06,1a24,24,0,0,1,1.9,2.25c.29.4.6.79.88,1.2l.76,1.28a23.93,23.93,0,0,1,1.2,21.51,23.93,23.93,0,0,1-22.63,14.36,26,26,0,0,1-3.93-.43,31.54,31.54,0,0,1-3.55-1,23.59,23.59,0,0,1-9.68-6.61l0,0-5.86-1.08-1.49-.28-.5-.1.53.08,1.51.26,5.84,1,0,0a23.74,23.74,0,0,0,9.65,6.51A29.76,29.76,0,0,0,613,82a25.6,25.6,0,0,0,3.9.41,23.74,23.74,0,0,0,22.36-14.25,23.68,23.68,0,0,0-1.19-21.25l-.75-1.27c-.28-.4-.58-.79-.87-1.19a23.46,23.46,0,0,0-1.88-2.22,14.12,14.12,0,0,0-1.05-1,14.1,14.1,0,0,0-1.08-.95,20.8,20.8,0,0,0-2.33-1.64,24.19,24.19,0,0,0-10.38-3.53,23.91,23.91,0,0,0-18.35,6.35,23.37,23.37,0,0,0-5.11,7,13.14,13.14,0,0,0-.81,1.85c-.21.62-.46,1.22-.64,1.84a23,23,0,0,0-.76,3.61,24,24,0,0,0,1.34,11.49,0,0,0,0,1,0,.07.06.06,0,0,1-.07,0h.09l-2.57,4.37c-.29.5-.51.88-.67,1.14Z"/><path class="cls-5" d="M624.91,59.43a2.42,2.42,0,1,1,2.42,2.43A2.42,2.42,0,0,1,624.91,59.43Z"/><path class="cls-5" d="M615.22,59.43a2.42,2.42,0,1,1,2.42,2.43A2.43,2.43,0,0,1,615.22,59.43Z"/><path class="cls-5" d="M605.56,60.64a2.42,2.42,0,1,1,3.31.89A2.42,2.42,0,0,1,605.56,60.64Z"/></g><g id="Speech_Bubble_1" data-name="Speech Bubble 1"><polygon class="cls-4" points="148.61 64.71 142.74 86.86 164.96 79.1 175.04 96.33 186.61 75.49 208.81 83.19 194.88 63.45 212.7 47.45 189.8 38.63 194.77 15.43 174.15 26.34 161.91 10.14 156.24 29.85 135.92 26.34 146.88 46.34 127.84 57.2 148.61 64.71"/><path class="cls-5" d="M148.61,64.71l-1.4-.48-4-1.43L127.8,57.32l-.26-.1.24-.13,19-10.89-.06.23-11-20-.2-.36.41.07,20.33,3.49-.25.16c1.79-6.25,3.69-12.86,5.66-19.71l.13-.46.28.38,12.25,16.19-.32-.07,20.62-10.91.49-.26-.12.54c-1.59,7.42-3.26,15.24-5,23.2l-.16-.3,5.16,2,17.73,6.82.39.16-.31.28-17.82,16,0-.33L209,83.05l.44.62-.71-.25-22.19-7.71.27-.11L175.22,96.42l-.17.31-.18-.3L164.81,79.19l.2.08L142.78,87l-.23.08.07-.23c1.92-7.15,3.41-12.67,4.42-16.42.5-1.86.89-3.28,1.15-4.25s.42-1.45.42-1.45-.11.47-.35,1.42l-1.1,4.25c-1,3.76-2.43,9.31-4.3,16.52l-.17-.15,22.21-7.81.13,0,.08.13c3.07,5.24,6.43,10.94,10.11,17.2h-.35l11.54-20.85.09-.16.18.06L208.89,83l-.28.37L194.67,63.6l-.13-.19.17-.15,17.81-16,.08.44-17.73-6.83-5.16-2-.21-.08.05-.21c1.7-8,3.38-15.78,5-23.2l.37.28-20.62,10.9-.19.1-.13-.17-12.23-16.2.42-.08-5.68,19.7-.06.2-.19,0-20.33-3.53.21-.3,10.93,20,.08.15-.14.08L127.9,57.31l0-.23,15.4,5.64,4,1.48Z"/><path class="cls-1" d="M172.9,50.83a7,7,0,1,0-5.08,0c-10.76,1.52-10.28,12.5-10.28,12.5l25.45.11S183.57,52.34,172.9,50.83Z"/><path class="cls-5" d="M172.9,50.83l1.26.2.65.12.79.27c.28.1.59.19.91.33l1,.51a10.36,10.36,0,0,1,3.93,4,14.58,14.58,0,0,1,1.77,7.2v.19H183l-25.45-.06h-.25v-.24a14.85,14.85,0,0,1,1.47-6.55,10.81,10.81,0,0,1,3.8-4.34,13.92,13.92,0,0,1,5.22-1.88l-.06.49a7.23,7.23,0,0,1-1.22-12.84,7.16,7.16,0,0,1,10.69,8.08,7,7,0,0,1-1.8,3,7.07,7.07,0,0,1-1.78,1.27c-.44.21-.69.25-.71.28l.67-.36a7.75,7.75,0,0,0,1.7-1.31,7,7,0,0,0,1.67-2.93,6.82,6.82,0,1,0-9,4.36l.86.33-.92.16a13.28,13.28,0,0,0-5,1.81A10.27,10.27,0,0,0,159.23,57a14.5,14.5,0,0,0-1.43,6.3l-.25-.25,25.44.17-.2.19a14.42,14.42,0,0,0-1.64-7,10.42,10.42,0,0,0-3.78-4l-.94-.52c-.31-.14-.62-.24-.89-.35l-.77-.29-.68-.16Z"/><path class="cls-6" d="M189,62.41a7.47,7.47,0,1,1-6.62-8.22A7.46,7.46,0,0,1,189,62.41Z"/><rect class="cls-4" x="181.2" y="58.08" width="1.64" height="7.33"/><rect class="cls-4" x="181.2" y="58.08" width="1.64" height="7.33" transform="translate(120.26 243.76) rotate(-90)"/></g><g id="Character_4" data-name="Character 4"><path class="cls-7" d="M478.06,94.81l4.64,13.66,1.63,2.29s1.41,7.59,1.5,9.21-2,10.12-2,10.12l4.71,7.55-13,5s-3.54-6.9-4.52-7.68-1.69-3-1.93-4.53S466.84,120,466.84,120s-5.79-9.89-3.37-10.39a8.51,8.51,0,0,1,1.81,0s3.49,6.5,4.42,6.64l1.32-.77s-2.72-9.95-2.86-11.81.24-3.17,1.67-3.39c0,0,1.08.44,1.18.91s2.81,11.57,3.42,11.36.33-1.21.33-1.21-3.62-13.46-3.45-14.24a2.11,2.11,0,0,1,2.16-1.84l2.77,7.39S475,96.44,476,95.33A1.76,1.76,0,0,1,478.06,94.81Z"/><path class="cls-8" d="M475.3,125c.11,0,0-1.16.47-3a11.66,11.66,0,0,1,4.05-6.29l.18-.14-.05-.2c-.22-1-.46-2-.71-3.1v-.06l0-.06a12.26,12.26,0,0,1-.68-1.07,12.13,12.13,0,0,1-1.51-3.94,4.35,4.35,0,0,1,0-1.84,1.31,1.31,0,0,1,1-1l-.22-.08c1.56,1.49,2.87,2.72,3.8,3.56a7.37,7.37,0,0,0,1.52,1.26,9.33,9.33,0,0,0-1.29-1.5c-.86-.91-2.11-2.2-3.63-3.74l-.09-.09H478a1.88,1.88,0,0,0-1.55,1.4,4.79,4.79,0,0,0-.08,2.13,12.23,12.23,0,0,0,1.56,4.18,13,13,0,0,0,.73,1.14l-.06-.13c.25,1.07.5,2.1.73,3.09l.14-.35a11.42,11.42,0,0,0-4.08,6.74,9.79,9.79,0,0,0-.18,2.28C475.22,124.75,475.26,125,475.3,125Z"/><path class="cls-8" d="M475.3,114c-.06-.17-2,.41-4.15,1.81s-3.42,3-3.29,3.11,1.63-1.2,3.67-2.54S475.37,114.17,475.3,114Z"/><path class="cls-1" d="M471.58,143.58s14,48,28.3,46.93a24.86,24.86,0,0,0,20-13l-.21-29.25L503.94,147l-3.15,7.56-11-19.79Z"/><path class="cls-5" d="M569.28,77.2a83.33,83.33,0,0,0,4.62-13.73,29.28,29.28,0,0,0-.14-14.35c-.21-.71-2.06-5.46-2.79-5.43-.53,0,.51,4.39.22,4.83-2.82,4.13-3.86,9.26-3.81,14.26a66.31,66.31,0,0,0,1.9,14.42"/><path class="cls-7" d="M540.37,102c.2-3.41.35-6.1.32-6.1s-11.6-2-11.56-13.63c0-5.62,1-17.18,2-27.64a21.69,21.69,0,0,1,21.93-19.59l1.12,0c12.09.91,18.08,11.68,16.85,23.74l-3,42.32-8.89,9.21a11,11,0,0,1-18.8-8.33Z"/><path class="cls-8" d="M540.69,95.93a28.1,28.1,0,0,0,15.22-4.23s-3.83,8.4-15.42,7.16Z"/><path class="cls-5" d="M533.9,64.91a1.67,1.67,0,0,0,1.58,1.71,1.6,1.6,0,0,0,1.74-1.47,1.67,1.67,0,0,0-1.58-1.71A1.6,1.6,0,0,0,533.9,64.91Z"/><path class="cls-5" d="M533.56,59.52c.2.22,1.48-.69,3.27-.66s3.08,1,3.28.73-.11-.49-.67-.91a4.65,4.65,0,0,0-2.63-.86,4.41,4.41,0,0,0-2.6.8C533.66,59,533.46,59.42,533.56,59.52Z"/><path class="cls-5" d="M549.84,65.9a1.67,1.67,0,0,0,1.57,1.71,1.6,1.6,0,0,0,1.74-1.47,1.67,1.67,0,0,0-1.57-1.71A1.59,1.59,0,0,0,549.84,65.9Z"/><path class="cls-5" d="M550.19,60.42c.21.22,1.48-.69,3.27-.66s3.08,1,3.28.73-.11-.49-.67-.91a4.65,4.65,0,0,0-2.63-.86,4.41,4.41,0,0,0-2.6.8C550.29,59.93,550.09,60.32,550.19,60.42Z"/><path class="cls-5" d="M544.43,74.16a10.93,10.93,0,0,0-2.9-.57c-.46-.06-.89-.16-1-.47a2.36,2.36,0,0,1,.33-1.35c.45-1.1.91-2.25,1.41-3.45,2-4.92,3.37-9,3.17-9s-1.94,3.84-3.9,8.76c-.47,1.21-.92,2.37-1.34,3.48A2.58,2.58,0,0,0,540,73.3a1.13,1.13,0,0,0,.74.68,2.59,2.59,0,0,0,.77.12A11.91,11.91,0,0,0,544.43,74.16Z"/><path class="cls-5" d="M550.44,54.4c.25.45,2,0,4.09-.12s3.88.24,4.09-.23c.09-.23-.27-.63-1-1a6.84,6.84,0,0,0-3.14-.59,6.93,6.93,0,0,0-3.09.85C550.66,53.75,550.33,54.18,550.44,54.4Z"/><path class="cls-5" d="M534.19,53.27c.31.41,1.55,0,3,0s2.73.31,3-.11c.13-.2-.06-.61-.61-1a4.35,4.35,0,0,0-4.87.07C534.24,52.66,534.06,53.07,534.19,53.27Z"/><path class="cls-7" d="M570,67.43c.2-.09,8-2.24,7.64,5.71s-8.28,5.92-8.28,5.7S570,67.43,570,67.43Z"/><path class="cls-8" d="M571.89,75.94s.13.11.36.22a1.4,1.4,0,0,0,1,.08c.85-.27,1.62-1.57,1.73-3a4.49,4.49,0,0,0-.29-2,1.62,1.62,0,0,0-1-1.12.72.72,0,0,0-.84.34c-.12.22-.07.38-.12.39s-.16-.14-.08-.46a.88.88,0,0,1,.34-.49,1,1,0,0,1,.77-.16A1.94,1.94,0,0,1,575.2,71a4.55,4.55,0,0,1,.37,2.24c-.12,1.6-1,3.06-2.18,3.33a1.48,1.48,0,0,1-1.26-.27C571.9,76.13,571.86,76,571.89,75.94Z"/><path class="cls-5" d="M537,41.78c-1.24-.78,2.86-4.72,6.1-6,4.9-1.89,12.26-2.81,16.6-1.31,5.21,1.8,9.47,4.69,11.85,9.67a31.23,31.23,0,0,1,2.6,16.15,9.46,9.46,0,0,1-1.4,4.79c-1.21,1.7-3.4,2.68-3.44,5.11a3.32,3.32,0,0,1-1,2.38c-1.54,1.46-3.23-.09-4-1.6-1.57-3.21-1.55-6.93-1.5-10.51a23.43,23.43,0,0,1,.93-7.52c.47-1.31,1.16-2.52,1.55-3.85a4.77,4.77,0,0,0-.33-4,5.4,5.4,0,0,0-.61-.68,8.29,8.29,0,0,0-8.13-2C551.75,43.72,544,45.65,542.07,44c-2.75-2.35-3.35-3.82-3.35-3.82Z"/><path class="cls-5" d="M544.75,80.34c0,.14.39.31,1.08.29a4.52,4.52,0,0,0,2.49-.91,4.68,4.68,0,0,0,1.61-2.11c.22-.66.16-1.09,0-1.13-.3-.07-.86,1.33-2.29,2.36S544.76,80,544.75,80.34Z"/><path class="cls-5" d="M542.48,402.93l1.17,21.36s-21.31,8.36-21.48,12.33l41.48-.79-.45-33.34Z"/><path class="cls-1" d="M556.44,422.25a1.69,1.69,0,0,1,1.21,1.91,1.63,1.63,0,0,1-1.88,1.21,1.79,1.79,0,0,1-1.27-2,1.69,1.69,0,0,1,2.1-1"/><path class="cls-9" d="M563.65,435.83l-.17-3.36-39.71,2s-1.83.84-1.6,2.14Z"/><path class="cls-4" d="M543,424.09c0,.2,1,.27,2,.91s1.55,1.47,1.74,1.39-.14-1.25-1.38-2S542.93,423.9,543,424.09Z"/><path class="cls-4" d="M538.66,426c0,.2.84.53,1.54,1.37s.92,1.75,1.12,1.73.31-1.16-.58-2.19S538.66,425.78,538.66,426Z"/><path class="cls-4" d="M536.28,431.23c.19,0,.45-1-.09-2.08s-1.5-1.53-1.58-1.35.52.75.95,1.66S536.08,431.21,536.28,431.23Z"/><path class="cls-4" d="M543.25,419.19c.09.19,1-.11,2.16-.05s2,.4,2.14.22-.77-.88-2.12-.93S543.14,419,543.25,419.19Z"/><path class="cls-5" d="M592.7,400.83,595,426.61l-4.1,20.9a2.66,2.66,0,0,0,2.27,3.14h0a2.65,2.65,0,0,0,2.28-.84c3.7-4,17.23-18.93,17-20.8-.32-2.18-.57-27.35-.57-27.35Z"/><path class="cls-9" d="M593.12,450.65l19.12-23.39.07,1.1a4,4,0,0,1-.77,2.64c-1.52,2-5.83,7.55-16.06,18.81a2.69,2.69,0,0,1-2.36.84Z"/><g class="cls-10"><path class="cls-4" d="M606.41,419.28a1.58,1.58,0,0,0-.3,2.11,1.53,1.53,0,0,0,2.09.32,1.67,1.67,0,0,0,.31-2.24,1.59,1.59,0,0,0-2.21-.09"/></g><path class="cls-4" d="M598.3,439a8,8,0,0,0-2.4-1.87,8.29,8.29,0,0,0-3-.38c0-.06.28-.28.88-.4a4.24,4.24,0,0,1,4.18,1.73C598.29,438.58,598.36,439,598.3,439Z"/><path class="cls-4" d="M596.68,442.56a21.12,21.12,0,0,0-2.36-1,22.23,22.23,0,0,0-2.54-.17,3,3,0,0,1,2.67-.39C596,441.39,596.81,442.48,596.68,442.56Z"/><path class="cls-4" d="M601.44,434.33a28,28,0,0,0-3.54-1.73c-2.07-.68-3.87-.47-3.89-.65a7.28,7.28,0,0,1,7.43,2.38Z"/><path class="cls-4" d="M601.41,426.44c-.06.16-1.53-.34-3.39-.29s-3.3.59-3.37.43a6.61,6.61,0,0,1,6.76-.14Z"/><path class="cls-4" d="M600.94,418.86a8.41,8.41,0,0,0-6.88.68c0-.05.21-.39.79-.78a5.83,5.83,0,0,1,5.16-.51C600.65,418.52,601,418.8,600.94,418.86Z"/><path class="cls-4" d="M597.38,417a2.13,2.13,0,0,1-.1-1,6.91,6.91,0,0,1,.61-2.61,3.07,3.07,0,0,1,1.2-1.52,1.07,1.07,0,0,1,1.21.16,1.76,1.76,0,0,1,.49,1.14,3.75,3.75,0,0,1-3.06,3.67,4.33,4.33,0,0,1-4.4-2,1.5,1.5,0,0,1-.16-1.25,1.06,1.06,0,0,1,1.06-.62,3.62,3.62,0,0,1,1.76.77,7.74,7.74,0,0,1,1.89,1.9,2.22,2.22,0,0,1,.45.86,12.1,12.1,0,0,0-2.56-2.42,3.35,3.35,0,0,0-1.55-.64.56.56,0,0,0-.58.33,1,1,0,0,0,.15.82,3.86,3.86,0,0,0,3.84,1.68,3.23,3.23,0,0,0,2.63-3.07,1.21,1.21,0,0,0-.3-.81.58.58,0,0,0-.67-.1,2.72,2.72,0,0,0-1,1.27A9.88,9.88,0,0,0,597.38,417Z"/><path class="cls-9" d="M521.93,223.59a91.8,91.8,0,0,0-2,27c.45,5.74,19.82,164.59,19.82,164.59H565.9l-7.35-149.29,2.14.46s14.28,63.68,15.45,74c1.05,9.26,13.09,76.58,13.09,76.58l23.92.28-7.64-89.05-8.89-85.44-3.35-24.87Z"/><path class="cls-5" d="M562.67,250.68a4.59,4.59,0,0,1-1.09.61,12.55,12.55,0,0,1-3.24,1.14,6.7,6.7,0,0,1-2.41,0,4.89,4.89,0,0,1-2.52-1.21,6,6,0,0,1-1.53-2.67c-.3-1-.48-2.07-.7-3.15-.83-4.3-1.4-8.24-1.73-11.09-.16-1.43-.27-2.59-.33-3.39a5,5,0,0,1,0-1.25,5.23,5.23,0,0,1,.24,1.22c.14.91.31,2,.51,3.36.43,2.84,1.06,6.75,1.89,11.05.42,2.12.71,4.29,2,5.55a5.42,5.42,0,0,0,4.52,1.18,15,15,0,0,0,3.22-.94A5.4,5.4,0,0,1,562.67,250.68Z"/><path class="cls-5" d="M554.8,230.43s.17-.14.54-.16a2.29,2.29,0,0,1,1.46.47,2.61,2.61,0,0,1,1.1,2,2.59,2.59,0,0,1-4.41,1.66,2.61,2.61,0,0,1-.5-2.25,2.39,2.39,0,0,1,.79-1.32c.29-.22.5-.25.51-.23a3,3,0,0,0-.92,1.62,2.32,2.32,0,0,0,.5,1.84,2.12,2.12,0,0,0,3.52-1.32,2.26,2.26,0,0,0-.83-1.71A3,3,0,0,0,554.8,230.43Z"/><path class="cls-5" d="M596.26,241.2a3.08,3.08,0,0,1-.89.14,18.75,18.75,0,0,1-2.46,0,23.81,23.81,0,0,1-14.69-6.19,16.72,16.72,0,0,1-1.69-1.78,3,3,0,0,1-.52-.73c.07-.07.91.9,2.47,2.21A26.31,26.31,0,0,0,592.94,241C595,241.17,596.25,241.1,596.26,241.2Z"/><path class="cls-5" d="M532.66,230.91a11.47,11.47,0,0,1-1.21,2.67,29.55,29.55,0,0,1-4,5.63,27.15,27.15,0,0,1-5.12,4.37,10.06,10.06,0,0,1-2.41,1.29,24.3,24.3,0,0,1,2.22-1.62,34.23,34.23,0,0,0,5-4.44,37,37,0,0,0,4.09-5.45C532.09,231.86,532.59,230.87,532.66,230.91Z"/><path class="cls-1" d="M582.78,154.06l10,9.65-3.23-18.45,20.31-6.43s5.4,25.32,6.34,31.31c1.68,10.75-.39,26-10.4,27.1-10.83,1.16-19-9.52-24.22-16.53-4-5.39-10.46-14.82-10.46-14.82l11.65-11.83"/><path class="cls-1" d="M503.33,149.25c.17-.61,7.34-27.66,10.54-33.63,3.83-7.15,12-10.1,17-10.41.65,0,3-.1,5,0,13.75.59,53.3,3.75,53.3,3.75s15,3.76,18,17.31C611,143.24,614,160,614,160l-26.78,5.78-3.15-7.93-50.33,11.23-12.29-18.18Z"/><path class="cls-1" d="M592.41,191.73l-.7-24.2,1-57-20.87-9.2-2.34-9-24.36,11.52L540,98.18l-2.27,6.15-5.2,2L522,127l-5.95,16.32s1.89,70.83,3.39,82.23c0,0,4.9,1.82,17,2.11,24.54.59,58-1,58-1l.35-1.08a21.59,21.59,0,0,0,.83-9.28l-3.23-24.61"/><path class="cls-5" d="M536.57,225.55a1,1,0,0,1-.05-.29c0-.24,0-.52-.06-.87-.05-.82-.11-1.93-.19-3.34-.13-3-.32-7.14-.54-12.28-.39-10.38-.88-24.72-.72-40.58.1-7.93.37-15.49,1.12-22.34s2-12.92,3-18,2.06-9.16,2.75-12l.81-3.24c.09-.34.17-.61.23-.84a.87.87,0,0,1,.1-.28,1,1,0,0,1,0,.3c0,.23-.1.51-.16.85-.17.8-.41,1.89-.7,3.27-.61,2.84-1.53,6.93-2.54,12s-2.13,11.17-2.89,18-1,14.36-1.06,22.28c-.17,15.83.25,30.17.52,40.55.15,5.14.26,9.33.34,12.29,0,1.41.05,2.52.07,3.34v.87A1,1,0,0,1,536.57,225.55Z"/><path class="cls-5" d="M552.27,136.33a11.63,11.63,0,0,1,1.42,0l4.12.25,15,1,.29,0,0,.29c-.52,6.88-1.14,15.12-1.82,24v.16l-.13.09c-.7.51-1.46,1-2.24,1.54a43.65,43.65,0,0,1-4.23,2.44,12.45,12.45,0,0,1-4.58,1.48,9.21,9.21,0,0,1-4.54-1.05,19.92,19.92,0,0,1-3.67-2.46c-.55-.46-1.09-.92-1.59-1.4a3.05,3.05,0,0,1-.72-.86,5.05,5.05,0,0,1-.4-1,15.54,15.54,0,0,1-.36-4,57.74,57.74,0,0,1,.63-7c.62-4.25,1.36-7.65,1.89-10,.26-1.17.49-2.07.65-2.69a5.88,5.88,0,0,1,.29-.92,5.63,5.63,0,0,1-.15,1c-.13.68-.31,1.58-.53,2.7-.45,2.36-1.11,5.77-1.66,10a58,58,0,0,0-.55,6.95,15.33,15.33,0,0,0,.38,3.8,3,3,0,0,0,1,1.57c.5.47,1,.92,1.57,1.36a19.38,19.38,0,0,0,3.57,2.36,8.49,8.49,0,0,0,4.2,1,12,12,0,0,0,4.32-1.41,43.83,43.83,0,0,0,4.15-2.42c.77-.5,1.53-1,2.21-1.51l-.14.26c.72-8.9,1.38-17.13,1.94-24l.26.31L558,136.92l-4.17-.4-1.11-.12A2,2,0,0,1,552.27,136.33Z"/><path class="cls-5" d="M572.65,144.16c0,.2-4.89,0-10.89-.5s-10.85-1-10.83-1.19,4.89,0,10.89.5S572.67,144,572.65,144.16Z"/><g class="cls-11"><path d="M549.89,161.86c1.17,1.93,2.26,4.58,3.86,6.18a9.51,9.51,0,0,0,5.94,3,9.73,9.73,0,0,0,5.63-1.67,14.9,14.9,0,0,0,5.62-7.37c.17-.21-3.9,2.5-6.11,3.68a10,10,0,0,1-6.25,1.34c-3.28-.26-6.21-3-8.69-5.11"/></g><g class="cls-11"><polygon points="545.17 105 543.39 118.65 569.04 102.79 545.43 114.97 545.17 105"/></g><path class="cls-6" d="M540.59,118.15a382.57,382.57,0,0,0-8.69,56.74c-1,13.26-1.75,30.83-1.75,30.83l5.91,7.32,9.07-8s-.4-37.32.08-49.81c.39-10.28-1.23-36.51-1.23-36.51Z"/><path class="cls-5" d="M586.53,134.75a5.29,5.29,0,0,1,.24,1.06c.14.75.32,1.73.53,2.92.44,2.53,1,5.9,1.66,9.64s1.21,7.17,1.58,9.65c.19,1.24.33,2.24.42,2.94a6.57,6.57,0,0,1,.1,1.08,5.29,5.29,0,0,1-.24-1.06c-.14-.75-.32-1.73-.53-2.92-.44-2.52-1-5.9-1.69-9.63s-1.18-7.18-1.55-9.66c-.17-1.19-.31-2.18-.42-2.94A8.39,8.39,0,0,1,586.53,134.75Z"/><path class="cls-5" d="M594.26,112.1c0,.05-.71.63-1.76,1.71A21.25,21.25,0,0,0,587,124.06c-.32,1.48-.39,2.42-.46,2.41a2.82,2.82,0,0,1,0-.66,13.1,13.1,0,0,1,.21-1.8,19.12,19.12,0,0,1,5.58-10.38,15.27,15.27,0,0,1,1.38-1.17A2.36,2.36,0,0,1,594.26,112.1Z"/><polygon class="cls-6" points="545.21 109.08 543 107.78 540.68 111.95 540.59 118.15 543.98 118.7 545.37 115.07 545.21 109.08"/><path class="cls-5" d="M545.37,103.73s-.5.86-1.32,2.24a60.23,60.23,0,0,0-2.95,5.52l-.25.54-.16.35-.17-.35a43.42,43.42,0,0,1-2.17-5.5c-.22-.71-.38-1.29-.48-1.7a2.41,2.41,0,0,1-.12-.64s.33.86.84,2.27a56.91,56.91,0,0,0,2.26,5.41h-.33c.08-.17.16-.36.25-.54a45.66,45.66,0,0,1,3.06-5.51c.44-.67.82-1.2,1.09-1.57S545.35,103.71,545.37,103.73Z"/><path class="cls-5" d="M571.83,101.31a2,2,0,0,1-.36.21l-1.05.55-3.87,2c-3.27,1.7-7.75,4.12-12.7,6.77-3,1.61-5.89,3.1-8.37,4.34l-.23.12v-.26c0-3.22,0-5.94-.07-7.91v-2.23a4.37,4.37,0,0,1,0-.79,5.4,5.4,0,0,1,.06.79c0,.56.05,1.3.09,2.23,0,2,.12,4.68.2,7.91l-.23-.14c2.48-1.27,5.33-2.77,8.35-4.38,5-2.65,9.45-5,12.75-6.68,1.65-.83,3-1.47,3.93-1.91l1.08-.49C571.69,101.35,571.82,101.29,571.83,101.31Z"/><path class="cls-5" d="M543.38,119.42c0,.08-.64-.19-1.31-.62s-1.18-.84-1.13-.92.65.19,1.32.62S543.44,119.34,543.38,119.42Z"/><path class="cls-5" d="M543.94,117.54a16.67,16.67,0,0,1-1.58-3.14,17.6,17.6,0,0,1-1.25-3.29,16.67,16.67,0,0,1,1.58,3.14A17.6,17.6,0,0,1,543.94,117.54Z"/><path class="cls-5" d="M616.21,170.14s.21,1.05.4,3.09a43.43,43.43,0,0,1-.12,9.05,29.67,29.67,0,0,1-1.46,6.46,14.87,14.87,0,0,1-4.33,6.61,9.39,9.39,0,0,1-4.05,1.88,14.71,14.71,0,0,1-4.78.05,20.47,20.47,0,0,1-9.41-4.36l.23-.13q1,7.44,2.12,16c.36,2.84.79,5.74,1.12,8.77a22.39,22.39,0,0,1-1.29,9.24l0,.12h-.13c-10.7.48-22.44.86-35,1.05-6.3.09-12.81.12-19.51,0-3.34-.06-6.75-.11-10.19-.42a50.4,50.4,0,0,1-10.34-1.76l-.14,0v-.15c-.42-3.5-.6-7.05-.82-10.65s-.35-7.24-.54-10.92q-.48-11.06-.88-22.57l.45.15a24.89,24.89,0,0,1-13,8.42,26,26,0,0,1-3.94.69,10.67,10.67,0,0,1-2,0,8.85,8.85,0,0,1-2-.58,17.13,17.13,0,0,1-6.29-5.1,68.88,68.88,0,0,1-8.51-14c-2.39-5-4.48-10.16-6.41-15.44-1.44-3.95-2.78-7.92-4-11.91l-.06-.21.2-.09q9.21-4.47,18.23-8.83l.22-.11.12.21,11,19.8-.45,0c1.06-2.54,2.11-5.05,3.15-7.56l.23-.15-.24.18q2-7.44,4.15-14.65c1.45-4.8,2.87-9.53,4.62-14.09a19.1,19.1,0,0,1,3.74-6.25,21.24,21.24,0,0,1,5.71-4.33,23.91,23.91,0,0,1,6.65-2.32A16.28,16.28,0,0,1,532,105l3.44,0-.09,0,2.27-.85-.13.13c.78-2.11,1.53-4.14,2.28-6.15l.13-.34.25.27,5.1,5.64-.26,0,24.37-11.5.23-.11.06.24c.82,3.17,1.58,6.12,2.33,9l-.11-.13,17.34,7.66h0c7.4,2.22,13.56,6.92,16.48,12.87.32.75.65,1.49.94,2.24l.66,2.29c.32,1.51.64,3,1,4.44q.91,4.33,1.74,8.19l-.12-.1.12.1c2.14,10.16,3.74,18,4.77,23.28.51,2.64.89,4.65,1.12,6s.33,2,.33,2,0-.17-.11-.51-.16-.85-.28-1.52c-.27-1.36-.66-3.36-1.19-6-1.07-5.28-2.7-13.1-4.88-23.25l.12.1-.12-.1q-.82-3.86-1.77-8.18c-.67-2.87-1.06-6-2.55-8.9-2.88-5.84-9-10.48-16.3-12.66h0l-17.35-7.63-.09,0,0-.1-2.35-9,.29.14L545.22,104l-.15.07L545,104c-1.66-1.84-3.35-3.69-5.11-5.63l.38-.08L538,104.41l0,.1-.09,0-2.27.85h-.09l-3.41,0a16.11,16.11,0,0,0-3.4.29,23.43,23.43,0,0,0-6.52,2.28,20.88,20.88,0,0,0-5.58,4.24,18.62,18.62,0,0,0-3.63,6.1c-1.74,4.53-3.16,9.26-4.6,14.05s-2.79,9.69-4.14,14.65l-.25.18.24-.15q-1.57,3.75-3.15,7.56l-.21.48-.25-.46q-5.42-9.74-11-19.79l.34.11-18.23,8.83.14-.3c1.19,4,2.52,7.93,4,11.87,1.93,5.27,4,10.43,6.39,15.4a68.32,68.32,0,0,0,8.44,13.93,16.67,16.67,0,0,0,6.08,5,8.7,8.7,0,0,0,1.85.54,10.38,10.38,0,0,0,1.93,0,25.26,25.26,0,0,0,3.87-.67,24.53,24.53,0,0,0,12.72-8.25l.42-.52,0,.67q.39,11.51.87,22.57.25,5.52.53,10.92c.21,3.59.39,7.15.8,10.61l-.16-.19a51.06,51.06,0,0,0,10.22,1.74c3.42.31,6.81.37,10.16.42,6.69.11,13.2.09,19.49,0,12.59-.17,24.33-.53,35-1l-.16.13a21.9,21.9,0,0,0,1.29-9.1c-.32-3-.75-5.92-1.1-8.75q-1.11-8.5-2.08-16l0-.36.29.22a20.18,20.18,0,0,0,9.27,4.33,14.8,14.8,0,0,0,4.7,0,9.26,9.26,0,0,0,3.95-1.82,14.64,14.64,0,0,0,4.28-6.49,30.06,30.06,0,0,0,1.5-6.42,45.88,45.88,0,0,0,.2-9c-.09-1-.18-1.8-.24-2.31S616.21,170.14,616.21,170.14Z"/><g class="cls-11"><path d="M573.35,173.38s5.21,6,8.29,9.82c2.54,3.17,7.19,6.53,11,9.74l.76,6.46c-3.06-.61-7.19-4.16-9.27-6.49a44.89,44.89,0,0,1-5.78-7.5c-2.8-5-6.63-9.8-7.61-15.43Z"/></g><path class="cls-5" d="M593,193.17a3.51,3.51,0,0,0-.51-.39c-.34-.26-.88-.58-1.52-1.07a56.9,56.9,0,0,1-5.22-4.55,153.59,153.59,0,0,1-15.25-18l0,.27c1.09-2.64,2.22-5.39,3.39-8.21l4.06-9.88-.44.11,23.89,20.2a3.07,3.07,0,0,0-.4-.46c-.28-.28-.71-.68-1.27-1.2-1.13-1-2.79-2.5-4.88-4.34-4.19-3.67-10.12-8.77-17-14.63l-.29-.25-.15.36c-1.29,3.11-2.66,6.44-4.08,9.87L570,169.24l-.06.15.09.13a142.09,142.09,0,0,0,15.46,17.91,48.94,48.94,0,0,0,5.35,4.44c.67.47,1.22.77,1.58,1A2.73,2.73,0,0,0,593,193.17Z"/><path class="cls-5" d="M515,123.09a2.12,2.12,0,0,0,0,.6c0,.46,0,1,0,1.72,0,1.49,0,3.66,0,6.33.1,5.34.42,12.72.88,20.86s.84,15.51,1,20.85c.1,2.61.18,4.75.23,6.32,0,.69.06,1.26.08,1.72a2.41,2.41,0,0,0,.06.6,2.2,2.2,0,0,0,.05-.6c0-.46,0-1,0-1.72,0-1.5,0-3.66,0-6.33-.09-5.35-.42-12.73-.88-20.87s-.84-15.51-1-20.84c-.1-2.61-.17-4.75-.23-6.32,0-.7-.06-1.27-.08-1.72A2.31,2.31,0,0,0,515,123.09Z"/><path class="cls-5" d="M512.11,133.92l8.36,31.56a3.94,3.94,0,0,0,3.87,2.92l43.26-.85a3.93,3.93,0,0,0,3.76-4.74L565,132.59a3.93,3.93,0,0,0-3.84-3.12H515.53A3.54,3.54,0,0,0,512.11,133.92Z"/><path class="cls-7" d="M579.2,153.62l-2.06-1.92s-1.36-4.53-2.22-5.39a9.48,9.48,0,0,0-3.16-1.5l-5.17-4.74.95,4.23-7.5-.05a2.13,2.13,0,0,0-2,1.3.89.89,0,0,0-.06.41,2.74,2.74,0,0,0,1.5,2l1.07.51s-1.57.45-1.76,1.83a2.34,2.34,0,0,0,1.56,2.53s-1.84.83-.79,3c0,0-1.71,2-.72,3.41s6.68,3.68,6.68,3.68l3.15,1.43a5.38,5.38,0,0,0,2.36.14l1.23.17,1.31,1.09S581.05,161.64,579.2,153.62Z"/><path class="cls-8" d="M571.12,150.37a5.6,5.6,0,0,1-1.7,0,29.52,29.52,0,0,1-4.06-.55,30.59,30.59,0,0,1-4-1.07,5.77,5.77,0,0,1-1.56-.67c0-.13,2.5.68,5.61,1.3S571.13,150.23,571.12,150.37Z"/><path class="cls-8" d="M573.18,156.28a49.41,49.41,0,0,1-6.49-1.52,48.44,48.44,0,0,1-6.38-2,98.11,98.11,0,0,1,12.87,3.48Z"/><path class="cls-8" d="M572.58,160.69a7.48,7.48,0,0,1-2.08-.27,32.37,32.37,0,0,1-4.86-1.39,34.25,34.25,0,0,1-4.59-2.11,8,8,0,0,1-1.75-1.15,12.31,12.31,0,0,1,1.9.87c1.15.56,2.77,1.29,4.6,2s3.53,1.17,4.77,1.5A12,12,0,0,1,572.58,160.69Z"/><path class="cls-8" d="M574,155c-.13,0,.12-.88-.06-1.89s-.66-1.73-.56-1.82.81.58,1,1.74A2.23,2.23,0,0,1,574,155Z"/><path class="cls-8" d="M574.06,149.54c-.09-.09.3-.55.36-1.25s-.2-1.23-.1-1.3.2.06.34.3a1.81,1.81,0,0,1-.21,2C574.26,149.52,574.1,149.59,574.06,149.54Z"/><path class="cls-8" d="M573.55,160.43c-.09-.09.2-.55.38-1.18s.19-1.17.32-1.19.33.58.11,1.32S573.63,160.52,573.55,160.43Z"/><path class="cls-8" d="M562,144.29a30.65,30.65,0,0,0,4.39.36c2.41.16,4.36.42,4.39.25a12.3,12.3,0,0,0-4.35-.83A11.91,11.91,0,0,0,562,144.29Z"/><path class="cls-5" d="M506.39,172.37a19.62,19.62,0,0,1-.59-2.71,63.55,63.55,0,0,0-1.62-6.44c-.76-2.48-1.62-4.67-2.28-6.24a20,20,0,0,1-1-2.56,11.22,11.22,0,0,1,1.38,2.41,43,43,0,0,1,2.45,6.24,43.76,43.76,0,0,1,1.49,6.53A12.31,12.31,0,0,1,506.39,172.37Z"/></g><g id="Characters_2_and_3" data-name="Characters 2 and 3"><path class="cls-7" d="M353.38,112.72a8.8,8.8,0,0,0-4.4-1.12c-1.47,0-12,6.46-12,6.46L327,129.15l-3,7.92,6.37,3.47L339.48,121l9.46-5.72Z"/><path class="cls-6" d="M323.8,133.42s-14.4,26.27-14.8,25.74-12.93-11.73-12.93-11.73-6.14-14.13-8.68-19.21c-1.92-3.83-8.49-6.16-8.49-6.16l3.63,46.57c-.61-1.27,20.07,12.78,24.67,14.67,4.39,1.79,9-2.4,12.36-4.53s18.11-35.08,18.11-35.08Z"/><path class="cls-5" d="M308.65,172.36a22.2,22.2,0,0,1,.3-11.81c.16,0-.35,2.64-.43,5.9S308.81,172.33,308.65,172.36Z"/><path class="cls-5" d="M277.81,43.59c-4.25-1.44-8.83,2.28-13.2,1.29-2.66-.6-4.62-2.79-7-4.19a13.72,13.72,0,0,0-12.2-.81c-3.68,1.74-6.08,3.65-6.69,7.67-3.25-2-8.88,2-10.87,6s-1.64,8.12-.7,12.45a58.61,58.61,0,0,0,9.09,20.86c.39.56,1,1.18,1.63.91a1.49,1.49,0,0,0,.67-1.17c.74-3.92.36-7.94.13-11.92s-.28-8.08,1.08-11.83,4.42-7.11,8.35-7.77a12.64,12.64,0,0,1,8.4,2c2.53,1.51,4.73,3.5,7.13,5.21a16.19,16.19,0,0,0,8,3.38c2.94.21,6.13-1.08,7.46-3.71s0-6.45-2.83-7.14a5.79,5.79,0,0,0,1.48-11.26Z"/><path class="cls-7" d="M273.8,90.53c0-5.45-.82-16.68-1.71-26.84A21,21,0,0,0,251,44.48H249.9c-11.74.76-16.28,11.61-15.19,23.32l.12,39,22.58,18.93,4.07-8,1.31-14.22S273.74,101.82,273.8,90.53Z"/><path class="cls-8" d="M262.79,103.59a26.66,26.66,0,0,1-15.07-4s3.56,7.9,14.82,6.81Z"/><path class="cls-5" d="M267.24,74.51a1.6,1.6,0,0,1-1.54,1.63A1.54,1.54,0,0,1,264,74.7a1.63,1.63,0,0,1,1.55-1.64A1.55,1.55,0,0,1,267.24,74.51Z"/><path class="cls-5" d="M269.7,69.23c-.19.21-1.42-.69-3.16-.67s-3,.89-3.19.68.11-.47.66-.88a4.39,4.39,0,0,1,2.55-.81,4.19,4.19,0,0,1,2.52.8C269.62,68.75,269.8,69.13,269.7,69.23Z"/><path class="cls-5" d="M250.42,74.51a1.6,1.6,0,0,1-1.54,1.63,1.54,1.54,0,0,1-1.68-1.44,1.63,1.63,0,0,1,1.55-1.64A1.55,1.55,0,0,1,250.42,74.51Z"/><path class="cls-5" d="M252.65,69.66c-.2.22-1.43-.68-3.16-.66s-3,.89-3.19.68.11-.48.66-.88a4.36,4.36,0,0,1,2.55-.81,4.31,4.31,0,0,1,2.52.79C252.56,69.19,252.75,69.57,252.65,69.66Z"/><path class="cls-5" d="M259,82.49a11.44,11.44,0,0,1,2.81-.53c.44,0,.86-.14.93-.44a2.17,2.17,0,0,0-.3-1.31c-.42-1.07-.87-2.19-1.33-3.37-1.86-4.79-3.2-8.73-3-8.8s1.86,3.75,3.71,8.54c.44,1.18.87,2.31,1.28,3.39a2.56,2.56,0,0,1,.24,1.73,1.11,1.11,0,0,1-.73.66,3.16,3.16,0,0,1-.75.11A11.38,11.38,0,0,1,259,82.49Z"/><path class="cls-5" d="M252.76,60.77c-.16.48-1.9.26-3.93.52s-3.68.83-4,.41c-.12-.2.16-.65.82-1.11a6.89,6.89,0,0,1,6-.71C252.46,60.18,252.84,60.55,252.76,60.77Z"/><path class="cls-5" d="M269,64.21c-.3.39-1.5,0-2.94,0s-2.65.29-2.93-.12c-.12-.2.06-.6.59-1a4.26,4.26,0,0,1,4.74.12C269,63.61,269.17,64,269,64.21Z"/><path class="cls-7" d="M235.21,75.66c-.19-.09-8.66-2.18-8.36,5.54s8,5.83,8,5.6S235.21,75.66,235.21,75.66Z"/><path class="cls-8" d="M232.36,84s-.13.1-.35.21a1.32,1.32,0,0,1-1,.06c-.83-.26-1.57-1.53-1.66-2.92a4.5,4.5,0,0,1,.3-1.94,1.57,1.57,0,0,1,1-1.07.68.68,0,0,1,.81.34c.11.21.07.36.11.37s.16-.13.09-.45a.9.9,0,0,0-.32-.47,1,1,0,0,0-.75-.17,1.91,1.91,0,0,0-1.36,1.25,4.55,4.55,0,0,0-.39,2.17c.11,1.56,1,3,2.09,3.26a1.47,1.47,0,0,0,1.23-.25C232.36,84.16,232.39,84,232.36,84Z"/><path class="cls-5" d="M272.16,53.15a14.84,14.84,0,0,0-4.78-5.43,25.14,25.14,0,0,0-14.62-5.11,20.47,20.47,0,0,0-14.33,5.52,21.7,21.7,0,0,0-5.87,10.95,38.39,38.39,0,0,0-.51,13.76c.34,1.81,1.37,2.46,2.65,3.78.8.83,2.17,1.37,3.08.66a3,3,0,0,0,.89-1.78c1.44-6,2.87-12.39.65-18.11a17.82,17.82,0,0,1,5.28-4.92,9.19,9.19,0,0,1,7-1c3.44,1,5.59,4.37,8.35,6.68a16.31,16.31,0,0,0,14.51,3.17Z"/><path class="cls-1" d="M226.65,63.27c0-.09.83,0,2.13-.09a13.92,13.92,0,0,0,9-4.27c.9-.94,1.34-1.64,1.41-1.59A5.56,5.56,0,0,1,238,59.15a12.48,12.48,0,0,1-9.23,4.38A5.56,5.56,0,0,1,226.65,63.27Z"/><path class="cls-1" d="M226.77,67.07c0-.09.88-.17,2.26-.52a17,17,0,0,0,5.05-2.21,17.24,17.24,0,0,0,4.09-3.7c.89-1.11,1.33-1.89,1.4-1.85a6.51,6.51,0,0,1-1.12,2.06,15.16,15.16,0,0,1-9.34,6A7,7,0,0,1,226.77,67.07Z"/><path class="cls-1" d="M278.2,57.39c.06,0,0,.54-.42,1.29a6.26,6.26,0,0,1-5.48,3.24,2.53,2.53,0,0,1-1.34-.25,7.86,7.86,0,0,1,1.32-.1,6.95,6.95,0,0,0,5.2-3.07C277.94,57.84,278.13,57.36,278.2,57.39Z"/><path class="cls-1" d="M279.11,59c.06,0,0,.52-.43,1.24a7.23,7.23,0,0,1-5,3.57,2.55,2.55,0,0,1-1.31,0,12.26,12.26,0,0,0,3.95-1.62A12,12,0,0,0,279.11,59Z"/><path class="cls-8" d="M254.09,84.58a29.11,29.11,0,0,1,4.77,2.31l1.62.92c-.73.88-1.53,2.36-2.51,2.74a3.46,3.46,0,0,1-3.35-.54,4,4,0,0,1-.88-2.57A13.89,13.89,0,0,1,254.09,84.58Z"/><path class="cls-5" d="M259.69,88.87c-.05,0-.17.22-.48.57a3,3,0,0,1-1.64.94,3.62,3.62,0,0,1-2.68-.59,3.5,3.5,0,0,1-.95-3.14,8.53,8.53,0,0,1,.53-2.06l-.36.14c1.86.94,3.49,1.75,4.66,2.3a9.59,9.59,0,0,0,1.92.81,8.91,8.91,0,0,0-1.77-1.1c-1.13-.64-2.73-1.5-4.58-2.47l-.25-.13-.11.27a9,9,0,0,0-.57,2.18,3.39,3.39,0,0,0,4.24,4.16,2.88,2.88,0,0,0,1.72-1.19A1.46,1.46,0,0,0,259.69,88.87Z"/><path class="cls-5" d="M259.72,402.36l-1.07,21.87s21.87,8.43,22.07,12.49l-42.48-.55.27-34.14Z"/><path class="cls-1" d="M245.54,422.22a1.74,1.74,0,0,0-1.22,2,1.66,1.66,0,0,0,1.93,1.23,1.84,1.84,0,0,0,1.29-2.09,1.73,1.73,0,0,0-2.16-1.06"/><path class="cls-9" d="M238.24,436.17l.16-3.44,40.67,1.82s1.88.84,1.65,2.17Z"/><path class="cls-4" d="M259.34,424c0,.21-1,.29-2.07,1s-1.59,1.52-1.78,1.43.14-1.28,1.4-2S259.39,423.84,259.34,424Z"/><path class="cls-4" d="M263.77,425.92c.05.21-.85.55-1.57,1.42s-.93,1.79-1.14,1.78-.32-1.19.59-2.25S263.77,425.73,263.77,425.92Z"/><path class="cls-4" d="M266.24,431.29c-.19,0-.47-1,.08-2.13s1.52-1.57,1.61-1.39-.53.77-1,1.7S266.44,431.27,266.24,431.29Z"/><path class="cls-4" d="M259,419c-.09.19-1-.11-2.21,0s-2.09.42-2.2.24.79-.91,2.17-1S259.14,418.85,259,419Z"/><path class="cls-5" d="M209.67,409.68l-2.3,26.38,4.2,21.4a2.71,2.71,0,0,1-2.32,3.21h0a2.71,2.71,0,0,1-2.34-.85c-3.78-4.12-17.63-19.38-17.36-21.3.33-2.22.58-28,.58-28Z"/><path class="cls-9" d="M209.25,460.67l-19.58-23.93-.07,1.12a4.08,4.08,0,0,0,.79,2.7c1.56,2.08,6,7.73,16.44,19.26a2.71,2.71,0,0,0,2.42.85Z"/><g class="cls-10"><path class="cls-4" d="M195.64,428.56a1.64,1.64,0,0,1,.31,2.17,1.57,1.57,0,0,1-2.14.32,1.71,1.71,0,0,1-.32-2.29,1.63,1.63,0,0,1,2.27-.1"/></g><path class="cls-4" d="M204,448.74a8.07,8.07,0,0,1,2.45-1.91,8.33,8.33,0,0,1,3.08-.39c0-.06-.3-.29-.91-.41a4.3,4.3,0,0,0-4.28,1.77C204,448.32,203.88,448.71,204,448.74Z"/><path class="cls-4" d="M205.6,452.4a23.47,23.47,0,0,1,2.42-1c1.38-.33,2.55,0,2.6-.17s-1.15-.77-2.73-.4S205.47,452.32,205.6,452.4Z"/><path class="cls-4" d="M200.73,444a26.12,26.12,0,0,1,3.63-1.78c2.11-.69,4-.48,4-.66a6,6,0,0,0-4.16.11A6,6,0,0,0,200.73,444Z"/><path class="cls-4" d="M200.76,435.9c.06.16,1.56-.36,3.47-.3s3.38.6,3.45.44a5.32,5.32,0,0,0-3.44-1A5.25,5.25,0,0,0,200.76,435.9Z"/><path class="cls-4" d="M201.24,428.13a8.6,8.6,0,0,1,7,.7c.05-.05-.22-.4-.81-.79a5.59,5.59,0,0,0-2.58-.89,5.77,5.77,0,0,0-2.71.36C201.54,427.78,201.21,428.07,201.24,428.13Z"/><path class="cls-4" d="M204.89,426.24a2.39,2.39,0,0,0,.1-1,6.88,6.88,0,0,0-.63-2.67,3.1,3.1,0,0,0-1.22-1.56,1.1,1.1,0,0,0-1.25.17,1.74,1.74,0,0,0-.49,1.16,3.83,3.83,0,0,0,3.13,3.76,4.45,4.45,0,0,0,4.51-2,1.53,1.53,0,0,0,.15-1.28,1.08,1.08,0,0,0-1.08-.64,3.79,3.79,0,0,0-1.8.8,7.54,7.54,0,0,0-1.93,1.93,2.45,2.45,0,0,0-.47.89,12.62,12.62,0,0,1,2.63-2.48,3.47,3.47,0,0,1,1.59-.65.57.57,0,0,1,.59.34,1.09,1.09,0,0,1-.15.83,4,4,0,0,1-3.94,1.73,3.33,3.33,0,0,1-2.7-3.15,1.32,1.32,0,0,1,.31-.83.59.59,0,0,1,.69-.1,2.78,2.78,0,0,1,1.06,1.3A10.31,10.31,0,0,1,204.89,426.24Z"/><path class="cls-5" d="M279.67,223.53a94,94,0,0,1,2.05,27.66c-.45,5.88-20.29,168.5-20.29,168.5H234.65l7.53-152.84-2.2.47s-14.62,65.19-15.81,75.74c-1.07,9.49-14.2,84.06-14.2,84.06l-25.27-.28,9.4-96.25,9.1-87.47,3.43-25.47Z"/><path class="cls-5" d="M239.61,251.25a4.56,4.56,0,0,0,1.12.63A12.6,12.6,0,0,0,244,253a6.8,6.8,0,0,0,2.47,0,5,5,0,0,0,2.58-1.24,6.21,6.21,0,0,0,1.57-2.73c.31-1,.49-2.13.71-3.22.86-4.42,1.44-8.44,1.77-11.37.17-1.46.28-2.64.35-3.46a5.32,5.32,0,0,0,0-1.29,5.42,5.42,0,0,0-.25,1.26c-.14.93-.32,2.08-.52,3.44-.44,2.9-1.08,6.91-1.93,11.31-.44,2.17-.73,4.39-2.09,5.68a5.55,5.55,0,0,1-4.62,1.21,15,15,0,0,1-3.29-1A7.11,7.11,0,0,0,239.61,251.25Z"/><path class="cls-5" d="M247.67,230.52s-.17-.14-.55-.16a2.43,2.43,0,0,0-1.5.48,2.72,2.72,0,0,0-1.13,2.07,2.66,2.66,0,0,0,4.52,1.7,2.65,2.65,0,0,0,.51-2.3,2.37,2.37,0,0,0-.81-1.35c-.3-.23-.51-.27-.52-.24a3,3,0,0,1,.94,1.66,2.34,2.34,0,0,1-.51,1.88,2.16,2.16,0,0,1-3.6-1.35,2.3,2.3,0,0,1,.85-1.75A3.13,3.13,0,0,1,247.67,230.52Z"/><path class="cls-5" d="M205.23,241.55a2.76,2.76,0,0,0,.91.14,16.42,16.42,0,0,0,2.51,0,24.36,24.36,0,0,0,15-6.33,16.46,16.46,0,0,0,1.73-1.82c.38-.46.57-.73.54-.75s-.94.92-2.53,2.26a27,27,0,0,1-14.81,6.24C206.54,241.52,205.23,241.45,205.23,241.55Z"/><path class="cls-5" d="M270.33,231a12.81,12.81,0,0,0,1.24,2.73,30.73,30.73,0,0,0,4.14,5.76A27.72,27.72,0,0,0,281,244a9.46,9.46,0,0,0,2.46,1.31,25.85,25.85,0,0,0-2.27-1.65,35.27,35.27,0,0,1-5.09-4.55,37.86,37.86,0,0,1-4.19-5.57A25.33,25.33,0,0,0,270.33,231Z"/><path class="cls-12" d="M397.41,106.65,398,60c.52-11.6-5.8-21.56-17.4-21.76l-1.07,0a20.74,20.74,0,0,0-19.88,19.91c-.39,10.05-.7,21.16-.41,26.53C359.82,95.88,371,97.15,371,97.15s.07,6.77.07,10l-2.62,7.64,9.16-2.23Z"/><path class="cls-13" d="M371,97.15a26.93,26.93,0,0,0,14.31-4.88s-3.14,8.5-14.28,8Z"/><path class="cls-5" d="M365.32,68.22a1.59,1.59,0,0,0,1.6,1.54,1.52,1.52,0,0,0,1.58-1.5,1.59,1.59,0,0,0-1.6-1.54A1.53,1.53,0,0,0,365.32,68.22Z"/><path class="cls-5" d="M362.2,63c.21.2,1.37-.74,3.08-.81s3,.74,3.18.52-.13-.46-.69-.83a4.41,4.41,0,0,0-2.56-.68,4.15,4.15,0,0,0-2.44.91C362.26,62.57,362.1,63,362.2,63Z"/><path class="cls-5" d="M381.51,67.82a1.59,1.59,0,0,0,1.6,1.54,1.53,1.53,0,0,0,1.58-1.5,1.59,1.59,0,0,0-1.6-1.54A1.52,1.52,0,0,0,381.51,67.82Z"/><path class="cls-5" d="M379,62.75c.21.19,1.38-.75,3.09-.81s3,.74,3.17.52-.12-.46-.69-.84A4.38,4.38,0,0,0,382,61a4.16,4.16,0,0,0-2.44.9C379,62.28,378.87,62.66,379,62.75Z"/><path class="cls-5" d="M373.38,76.14a11,11,0,0,0-2.79-.39c-.44,0-.86-.1-.94-.39a2.2,2.2,0,0,1,.23-1.31c.37-1.07.75-2.2,1.16-3.38,1.59-4.8,2.73-8.75,2.54-8.81s-1.65,3.78-3.25,8.59c-.38,1.18-.75,2.31-1.09,3.39a2.52,2.52,0,0,0-.16,1.73,1.12,1.12,0,0,0,.74.61,3.54,3.54,0,0,0,.75.07A11.69,11.69,0,0,0,373.38,76.14Z"/><path class="cls-5" d="M378.2,57.42c.25.43,1.89-.1,3.91-.23s3.71.12,3.9-.34c.08-.22-.28-.6-1-.92a6.82,6.82,0,0,0-5.95.43C378.39,56.79,378.09,57.22,378.2,57.42Z"/><path class="cls-5" d="M361.91,58c.37.38,1.75-.06,3.43-.13s3.1.18,3.41-.23c.14-.2-.09-.59-.72-.94a5.4,5.4,0,0,0-2.8-.56,5.32,5.32,0,0,0-2.71.85C361.94,57.43,361.75,57.83,361.91,58Z"/><path class="cls-12" d="M397.41,68.3c.19-.09,7.55-2.57,7.62,5s-7.59,6.12-7.6,5.9S397.41,68.3,397.41,68.3Z"/><path class="cls-13" d="M399.73,76.33s.13.09.36.19a1.31,1.31,0,0,0,1,0,3.31,3.31,0,0,0,1.49-3,4.42,4.42,0,0,0-.39-1.9,1.53,1.53,0,0,0-1-1,.68.68,0,0,0-.78.37c-.1.22-.05.37-.09.38s-.16-.13-.1-.44a.83.83,0,0,1,.29-.48,1,1,0,0,1,.73-.2,1.86,1.86,0,0,1,1.4,1.17,4.54,4.54,0,0,1,.48,2.12c0,1.53-.81,3-1.91,3.3A1.38,1.38,0,0,1,400,76.7C399.74,76.52,399.7,76.35,399.73,76.33Z"/><path class="cls-5" d="M378.75,77.19c-.26,0-.27,1.74-1.77,3s-3.36,1-3.38,1.28.41.34,1.2.37a4.39,4.39,0,0,0,2.82-1A3.82,3.82,0,0,0,379,78.35C379.07,77.62,378.87,77.18,378.75,77.19Z"/><path class="cls-5" d="M344.26,48.21a1.83,1.83,0,0,1,.84-1.07,5.61,5.61,0,0,1,2.84-.49,16.12,16.12,0,0,0,6.95-1.83,7.78,7.78,0,0,1-2.07-1.42,4.79,4.79,0,0,1-1.43-4.73,1.07,1.07,0,0,1,.59-.74c.49-.16.93.33,1.28.71a4.13,4.13,0,0,0,3.9,1.59,6.58,6.58,0,0,0,2.88-.89l.09-.1,1.15-1.19h0c2.83-2.88,5.27-4.88,7.8-5.93,3.7-1.54,9.91-2.21,13.8-1.24s7.4,4.08,8,8.05c2.15-1.87,5.41-1.89,8.07-.86l.07,0c3,1,4.67,4.11,5.58,7.11,0,.16.09.33.14.49a11.58,11.58,0,0,0,4,3.83c.29.17.61.37.65.69a.94.94,0,0,1-.49.79,5.86,5.86,0,0,1-2.38,1,13.05,13.05,0,0,0,1,2.06c.34.56.74,1.23.46,1.82a1.26,1.26,0,0,1-1.3.59,3.7,3.7,0,0,1-1.38-.61l1,2.35a6.84,6.84,0,0,1-3.21-.18c-.6,2.82-1,8-1.71,9.95-2,.06-2.51-.15-3.53.2-1.31.45-.79,2.78-2.51,2.13-.88-.32-2.26-3.62-2.56-4.51a43.59,43.59,0,0,1-2.09-18.38,14,14,0,0,0-4.35-3.07l.13.12c-3.12-1.05-6.66-2.07-9.6-.58-2.28,1.16-3.6,3.56-5.29,5.47a15.9,15.9,0,0,1-11.7,5.86c-.4,3.37-.46,8.87-.59,12L356.57,61v0a10.55,10.55,0,0,1-.58-1.1l-.06-.11v0c-.29-.59-.55-1.18-.91-1.77l0,0a2,2,0,0,1-2.89-2.59,4.55,4.55,0,0,1,.94-1,3.09,3.09,0,0,1-3,.8,2.44,2.44,0,0,1-1.75-2.38,2.11,2.11,0,0,1,1.22-1.68,6.94,6.94,0,0,1-4-.83C344.78,49.92,344,49.2,344.26,48.21Z"/><path class="cls-9" d="M387.38,40.24a9.65,9.65,0,0,1,1.13,1,8,8,0,0,1,1.76,3.69,14.32,14.32,0,0,1,.31,2.82c0,1-.05,2.13-.12,3.29a29.53,29.53,0,0,0,0,3.66,12.89,12.89,0,0,0,.28,1.92,4,4,0,0,0,.8,1.86,1.69,1.69,0,0,0,1.58.51,2.46,2.46,0,0,0,1.41-.81,5.8,5.8,0,0,0,1-2.85l-.23,0a9.08,9.08,0,0,0,1.38,2.32,3.33,3.33,0,0,0,2.18,1.16,2.14,2.14,0,0,0,1.15-.22,1.79,1.79,0,0,0,.77-.77,2,2,0,0,0,.23-1,1.47,1.47,0,0,0-.37-.87l-.12.11a7,7,0,0,0,2.42,1.77,5.89,5.89,0,0,0,.74.28.85.85,0,0,0,.27.06l-.26-.1c-.16-.07-.41-.17-.72-.32A7.31,7.31,0,0,1,400.64,56l-.12.1a1.45,1.45,0,0,1,.1,1.66,1.72,1.72,0,0,1-.7.69,2,2,0,0,1-1,.18,3.13,3.13,0,0,1-2-1.1,9.49,9.49,0,0,1-1.33-2.27l-.16-.36-.07.39a5.56,5.56,0,0,1-1,2.72,2.23,2.23,0,0,1-1.25.73,1.45,1.45,0,0,1-1.35-.43,3.82,3.82,0,0,1-.74-1.75,12.17,12.17,0,0,1-.27-1.88,31.28,31.28,0,0,1,0-3.63c.06-1.16.13-2.26.1-3.3a14,14,0,0,0-.35-2.87,7.81,7.81,0,0,0-1.86-3.7A4.54,4.54,0,0,0,387.38,40.24Z"/><path class="cls-9" d="M353,51.48s0,0,.09.08l.28.2a3.58,3.58,0,0,0,.47.29,6.28,6.28,0,0,0,.69.35,9.93,9.93,0,0,0,4.78.81A12.66,12.66,0,0,0,366,50.65a22,22,0,0,0,5.71-6.73c.79-1.36,1.44-2.75,2.15-4a15.3,15.3,0,0,1,2.45-3.42,7.6,7.6,0,0,1,3.19-2,5.57,5.57,0,0,1,1.69-.22,6.44,6.44,0,0,1,1.56.28,6.51,6.51,0,0,1,2.34,1.38,6.42,6.42,0,0,1,1.28,1.61A8.1,8.1,0,0,1,387,39.2a1.09,1.09,0,0,0,0-.12c0-.09,0-.2-.06-.34a5.4,5.4,0,0,0-.44-1.25,6.07,6.07,0,0,0-1.26-1.68,6.52,6.52,0,0,0-2.38-1.44,6.38,6.38,0,0,0-1.61-.31,5.69,5.69,0,0,0-1.76.21,7.8,7.8,0,0,0-3.29,2,14.9,14.9,0,0,0-2.51,3.47c-.72,1.3-1.37,2.68-2.16,4a21.7,21.7,0,0,1-5.62,6.66A12.51,12.51,0,0,1,359.32,53a9.92,9.92,0,0,1-4.72-.71A14.21,14.21,0,0,1,353,51.48Z"/><path class="cls-9" d="M352,46.6a1.83,1.83,0,0,0,.4.27,8.72,8.72,0,0,0,1.19.59,12,12,0,0,0,1.88.59,12.62,12.62,0,0,0,2.4.29,13,13,0,0,0,2.41-.19,11.8,11.8,0,0,0,1.91-.52,9,9,0,0,0,1.21-.53c.27-.15.42-.24.41-.26s-.63.28-1.68.62a13.54,13.54,0,0,1-1.89.45,14.55,14.55,0,0,1-2.36.17,14.08,14.08,0,0,1-2.36-.26,14.84,14.84,0,0,1-1.86-.53C352.58,46.9,352,46.55,352,46.6Z"/><path class="cls-9" d="M356,402.82l.83,21.85s-21.93,8.17-22.17,12.23l42.41-.08.12-34.09Z"/><path class="cls-1" d="M369.91,422.81a1.72,1.72,0,0,1,1.2,2,1.67,1.67,0,0,1-1.95,1.21,1.83,1.83,0,0,1-1.26-2.1,1.74,1.74,0,0,1,2.17-1"/><path class="cls-5" d="M377,436.82l-.12-3.44-40.62,1.36s-1.89.83-1.67,2.16Z"/><path class="cls-4" d="M356.11,424.45c0,.21,1,.3,2.06,1s1.57,1.53,1.76,1.45-.12-1.28-1.37-2.06S356.06,424.26,356.11,424.45Z"/><path class="cls-4" d="M351.66,426.3c0,.2.86.55,1.56,1.43s.91,1.8,1.12,1.79.33-1.18-.57-2.25S351.67,426.1,351.66,426.3Z"/><path class="cls-4" d="M349.15,431.63c.19,0,.47-1-.06-2.12s-1.5-1.59-1.59-1.41.51.77.93,1.71S348.94,431.61,349.15,431.63Z"/><path class="cls-4" d="M356.47,419.45c.09.19,1-.09,2.21,0s2.09.45,2.19.27-.77-.91-2.15-1S356.37,419.29,356.47,419.45Z"/><path class="cls-9" d="M406.86,404.18,408,430.6l-5.09,21.17a2.7,2.7,0,0,0,2.18,3.3h0a2.71,2.71,0,0,0,2.37-.75c3.95-4,18-18.78,18.08-20.2.09-2.24.74-28.27.74-28.27Z"/><path class="cls-5" d="M405.12,455.07,425.67,432l0,1.12a4.29,4.29,0,0,1-.91,2.67c-1.64,2-6.27,7.45-17.21,18.51a2.71,2.71,0,0,1-2.45.75Z"/><g class="cls-10"><path class="cls-4" d="M420.06,423.61a1.64,1.64,0,0,0-.41,2.15,1.58,1.58,0,0,0,2.13.42,1.73,1.73,0,0,0,.41-2.28,1.63,1.63,0,0,0-2.26-.19"/></g><path class="cls-4" d="M410.91,443.39a7.93,7.93,0,0,0-2.36-2,8.46,8.46,0,0,0-3.06-.52c0-.06.31-.27.93-.37a4.28,4.28,0,0,1,4.19,1.95C410.93,443,411,443.36,410.91,443.39Z"/><path class="cls-4" d="M409.11,447c-.13.12-1-.73-2.37-1.09a21,21,0,0,0-2.59-.27c-.08-.14,1.18-.73,2.74-.29S409.24,446.89,409.11,447Z"/><path class="cls-4" d="M414.32,438.77a27.44,27.44,0,0,0-3.54-1.92c-2.08-.78-3.93-.65-3.94-.83a7.39,7.39,0,0,1,7.48,2.75Z"/><path class="cls-4" d="M414.63,430.71c-.06.16-1.54-.42-3.44-.45s-3.4.47-3.46.3a5.33,5.33,0,0,1,3.47-.88A5.25,5.25,0,0,1,414.63,430.71Z"/><path class="cls-4" d="M414.49,423a12.88,12.88,0,0,0-3.58-.56,13.39,13.39,0,0,0-3.48.95c-.05,0,.23-.39.83-.76a5.89,5.89,0,0,1,2.62-.77,5.79,5.79,0,0,1,2.69.48C414.21,422.58,414.52,422.89,414.49,423Z"/><path class="cls-4" d="M410.93,420.91a2.23,2.23,0,0,1-.06-1,6.86,6.86,0,0,1,.74-2.64,3.07,3.07,0,0,1,1.29-1.5,1.08,1.08,0,0,1,1.23.22,1.7,1.7,0,0,1,.44,1.18,3.82,3.82,0,0,1-3.28,3.62,4.44,4.44,0,0,1-4.41-2.23,1.57,1.57,0,0,1-.1-1.28,1.06,1.06,0,0,1,1.11-.59,3.79,3.79,0,0,1,1.76.87,7.88,7.88,0,0,1,1.85,2,2.31,2.31,0,0,1,.42.91,12,12,0,0,0-2.51-2.59,3.54,3.54,0,0,0-1.56-.72.56.56,0,0,0-.6.32,1,1,0,0,0,.11.84,4,4,0,0,0,3.85,1.88,3.32,3.32,0,0,0,2.83-3,1.27,1.27,0,0,0-.28-.84.57.57,0,0,0-.67-.12,2.73,2.73,0,0,0-1.12,1.25A10.27,10.27,0,0,0,410.93,420.91Z"/><path class="cls-5" d="M342.92,220.09a93.83,93.83,0,0,0-3.21,27.51c.2,5.89,13.11,169,13.11,169l26.72,1.13L378.49,264.9l2.17.56s11.83,65.66,12.57,76.23c.67,9.51,10,78.79,10,78.79l24.34-.67-3.86-89.29-5.38-87.65L416,217.33Z"/><path class="cls-9" d="M383.36,249.52a4.41,4.41,0,0,1-1.14.58,12.54,12.54,0,0,1-3.35,1,6.94,6.94,0,0,1-2.47-.09,5,5,0,0,1-2.52-1.34,6,6,0,0,1-1.44-2.8c-.27-1-.41-2.14-.58-3.24-.67-4.44-1.08-8.48-1.29-11.41-.1-1.47-.17-2.65-.19-3.48a5.15,5.15,0,0,1,0-1.28,6.24,6.24,0,0,1,.2,1.27c.1.93.22,2.09.37,3.45.31,2.92.78,6.94,1.45,11.36.34,2.19.54,4.41,1.84,5.77a5.54,5.54,0,0,0,4.56,1.39,15,15,0,0,0,3.32-.82A6.23,6.23,0,0,1,383.36,249.52Z"/><path class="cls-9" d="M376.2,228.5s.18-.13.56-.14a2.45,2.45,0,0,1,1.47.54,2.68,2.68,0,0,1,1,2.12,2.65,2.65,0,0,1-4.58,1.5,2.68,2.68,0,0,1-.42-2.32,2.38,2.38,0,0,1,.87-1.31c.31-.22.52-.24.53-.22a3.07,3.07,0,0,0-1,1.62,2.37,2.37,0,0,0,.43,1.9,2.17,2.17,0,0,0,3.66-1.2,2.34,2.34,0,0,0-.78-1.78A3,3,0,0,0,376.2,228.5Z"/><path class="cls-9" d="M418.07,241.29a2.63,2.63,0,0,1-.91.11,16.51,16.51,0,0,1-2.51-.08,24.29,24.29,0,0,1-14.73-7,17,17,0,0,1-1.66-1.88,3.18,3.18,0,0,1-.5-.77c.08-.07.9.95,2.43,2.37a27.73,27.73,0,0,0,6.74,4.52,27.17,27.17,0,0,0,7.77,2.32C416.77,241.21,418.07,241.19,418.07,241.29Z"/><path class="cls-9" d="M353.57,228a11.12,11.12,0,0,1-1.5,2.67,30.61,30.61,0,0,1-10.95,9.77,11,11,0,0,1-2.82,1.19c0-.08,1-.58,2.63-1.54a38.69,38.69,0,0,0,5.88-4.29,37.71,37.71,0,0,0,4.93-5.37A29.91,29.91,0,0,1,353.57,228Z"/><path class="cls-14" d="M232.51,104.15l2-3.54,18.1,17.24,2.81,5.1c.16-.23,2.72-5.5,2.72-5.5l3.89-5.76,1.46,2L273.7,222.82s-10.63,3.91-19.36,4.21-18.07,0-18.07,0-8.88-13.55-8.88-14.15,6.93-83.19,6.93-83.19Z"/><path class="cls-6" d="M242.62,131.79c-2.11-8.92-11-29.8-11-29.8L225,110.44s-19.71,7.74-20.88,8.68,4.69,60.76,4.69,60.76L204,196.77,187.67,256s25.75,8,35.37,6.12,10.9-13.75,12.54-19.85,8-50.44,9.15-69S244.73,140.7,242.62,131.79Z"/><path class="cls-5" d="M244.39,177.83a5.41,5.41,0,0,1-.29-.74c-.19-.53-.43-1.25-.74-2.14-.65-1.92-1.54-4.61-2.65-7.9-2.19-6.74-5.2-16-8.52-26.15-1.15-3.54-2.25-7-3.29-10.21l-.05-.13.1-.11,4.11-4.68.18.39-6.33,0h-.19l0-.18c-.53-4.69-1-8.55-1.28-11.29-.13-1.31-.24-2.35-.32-3.12,0-.33,0-.6-.07-.82a.14.14,0,1,1,.06,0l.13.81c.11.77.25,1.8.43,3.11.36,2.74.86,6.59,1.46,11.27l-.2-.19,6.33,0h.52l-.34.39c-1.31,1.49-2.67,3.06-4.1,4.7l.05-.24,3.31,10.2,8.38,26.19c1,3.32,1.89,6,2.49,8l.65,2.17A4.23,4.23,0,0,1,244.39,177.83Z"/><path class="cls-6" d="M263.49,113c.27.53,3.11,5.13,3.11,5.13s13.06,2.8,15.93,6.53,4.16,13.2,4.16,13.2l-3.77,43.73-2,30.68s2.5,34.67,2.84,40.27-.69,12-2.84,11.74-3.22.8-4.29-5.21-8.68-56.15-8.68-56.15l-3.05-43.59-2.8-34Z"/><path class="cls-5" d="M269.44,180.79a2.75,2.75,0,0,1,0-.66c0-.48.11-1.09.19-1.86.2-1.68.48-4,.82-6.84.74-5.82,1.75-13.76,2.87-22.53l1.48-11.11.08.22-4.74-3.88L270,134l.13-.17c.63-.79,1.21-1.54,1.78-2.25l0,.21c-1.59-3.24-2.88-5.91-3.82-7.83l-1-2.15a6.8,6.8,0,0,1-.32-.78,4,4,0,0,1,.43.72l1.11,2.11,4,7.75.05.11-.07.1-1.75,2.28,0-.3c1.49,1.19,3.09,2.48,4.78,3.85l.11.08,0,.14c-.45,3.45-.93,7.19-1.44,11.1-1.18,8.77-2.25,16.7-3,22.52-.4,2.83-.74,5.14-1,6.82-.12.76-.21,1.37-.29,1.85A4.38,4.38,0,0,1,269.44,180.79Z"/><path class="cls-5" d="M203.41,214.88a4.8,4.8,0,0,1-.15.67c-.12.48-.29,1.09-.48,1.84l-.78,2.87c-.15.56-.32,1.15-.49,1.78a4,4,0,0,0-.29,1.93,1.82,1.82,0,0,0,1.48,1.33l2.39.71c1.65.48,3.42,1,5.29,1.49s3.83,1,5.88,1.48c1,.23,2.07.45,3.14.62a14.43,14.43,0,0,0,1.61.19,4.17,4.17,0,0,0,.79,0,1.36,1.36,0,0,0,.36-.06.41.41,0,0,0,.25-.16,5.27,5.27,0,0,0,1.1-2.29,21.37,21.37,0,0,0,.54-2.57c.28-1.72.43-3.4.53-5l.19.25-15.28-3.58L205,215.31l-1.2-.31-.43-.12s.13,0,.39.05l1.17.23,4.42.93,15.49,3.39.2,0v.21c-.09,1.63-.24,3.32-.51,5.06a22.8,22.8,0,0,1-.55,2.63,5.58,5.58,0,0,1-1.26,2.54.94.94,0,0,1-.44.27,2,2,0,0,1-.46.08,5.05,5.05,0,0,1-.87,0c-.57,0-1.12-.11-1.66-.19-1.09-.18-2.14-.4-3.17-.64-2.06-.47-4-1-5.9-1.51s-3.63-1.05-5.28-1.55l-2.39-.74a2.41,2.41,0,0,1-1.11-.57,2.1,2.1,0,0,1-.56-2.2c.1-.34.2-.67.29-1,.2-.64.38-1.24.55-1.81l.89-2.86c.23-.74.42-1.33.56-1.79A4.38,4.38,0,0,1,203.41,214.88Z"/><path class="cls-5" d="M285.78,134.59a9.8,9.8,0,0,1,.13,1.68c.06,1.08.08,2.64.08,4.58,0,3.88-.31,9.23-.87,15.1S284,167.15,283.71,171c-.15,1.86-.27,3.4-.36,4.57a9.72,9.72,0,0,1-.18,1.67,11.51,11.51,0,0,1,0-1.68c0-1.09.08-2.65.19-4.58.21-3.87.71-9.2,1.26-15.07s.91-11.2,1-15.07c.05-1.93.09-3.49.09-4.57A11.17,11.17,0,0,1,285.78,134.59Z"/><g class="cls-11"><path d="M260.4,199.72a180.5,180.5,0,0,1-29.72-2.46l-24.79-3.11a15.21,15.21,0,0,0,13.21,15.92c4,.53,8-.55,12-1.26,6.82-1.22,13.78-1.36,20.69-1.74,2.27-.13,4.63-.31,6.54-1.53S261.48,201.71,260.4,199.72Z"/></g><path class="cls-6" d="M204.15,119.12s-7,4.46-8.45,11.49,3.4,43.49,5.28,51.59c2.76,11.9,8.87,22.09,14.62,22.79s42.78-2.81,42.78-2.81l3.11-20.1-35-2.67-1.64-2.17-4.06-32.78"/><path class="cls-5" d="M220.81,144.46s0,.19.09.56.14,1,.24,1.68c.19,1.5.48,3.68.85,6.49.72,5.66,1.76,13.85,3.06,24l0-.09,1.65,2.16-.14-.07,35,2.62.26,0,0,.25c-1,6.39-2,13.13-3.1,20.11l0,.2-.19,0c-7.48.7-15.24,1.37-23.19,2-3.94.29-7.84.55-11.69.74-1.92.09-3.83.19-5.74.17a13.73,13.73,0,0,1-1.43,0l-.72,0c-.24,0-.48-.1-.72-.15a8,8,0,0,1-2.62-1.19,17.06,17.06,0,0,1-4-4,33.06,33.06,0,0,1-2.88-4.64,52.69,52.69,0,0,1-3.87-9.82,76.22,76.22,0,0,1-2-9.81q-.77-4.81-1.36-9.35c-.81-6-1.46-11.67-1.95-16.83s-.85-9.83-.91-14a21.51,21.51,0,0,1,.45-5.73,15.34,15.34,0,0,1,2-4.39,22,22,0,0,1,4.48-4.94c.59-.48,1.06-.83,1.39-1a4.75,4.75,0,0,1,.5-.31l-.47.36c-.31.23-.77.58-1.35,1.08a22.55,22.55,0,0,0-4.38,5,15.27,15.27,0,0,0-1.93,4.35,21.34,21.34,0,0,0-.4,5.66c.09,4.1.47,8.78,1,13.92s1.19,10.78,2,16.81q.62,4.53,1.38,9.33a75.85,75.85,0,0,0,2.06,9.76,51.77,51.77,0,0,0,3.85,9.71,32.54,32.54,0,0,0,2.84,4.58,16.62,16.62,0,0,0,3.83,3.84A7.47,7.47,0,0,0,215,204.6c.22.05.43.11.66.14l.69,0c.46,0,.93,0,1.41,0,1.88,0,3.79-.08,5.71-.17,3.84-.19,7.73-.46,11.67-.75,7.95-.61,15.71-1.28,23.18-2l-.23.22c1.09-7,2.13-13.73,3.13-20.11l.21.28-35-2.73h-.08l0-.07-1.64-2.17,0,0v-.05c-1.23-10.18-2.22-18.38-2.9-24-.33-2.81-.58-5-.76-6.49-.08-.73-.14-1.29-.18-1.69S220.81,144.46,220.81,144.46Z"/><path class="cls-5" d="M220.53,137.1c-.1,0,0-1.37-.54-3.49a15.26,15.26,0,0,0-11.3-11.38c-2.11-.52-3.49-.46-3.48-.56a3.31,3.31,0,0,1,.95-.08,13.39,13.39,0,0,1,2.61.28,14.81,14.81,0,0,1,11.58,11.66,13.08,13.08,0,0,1,.26,2.61A3,3,0,0,1,220.53,137.1Z"/><path class="cls-9" d="M316.21,178.43a4.91,4.91,0,0,1,.73-2.42c.64-.72,3.47-1.21,3.47-1.21l9.34-14.12.91-8.55,3.68-25.33s7.07-12.93,16.23-13.67c3.73-.3-.6,27.3-.93,29.1-.06.35-3.5,37.33-3.5,37.33l-2.26,13.07s-7.26,2.76-9.92,4-4.12-.33-4.12-.33Z"/><path class="cls-5" d="M405.13,217a2.12,2.12,0,0,1-.54.26l-1.58.64c-1.37.55-3.39,1.28-5.91,2.1s-5.55,1.71-9,2.56S381,224.15,377,224.78s-7.83,1-11.33,1.28-6.65.33-9.3.31-4.79-.09-6.27-.2l-1.7-.12a2.13,2.13,0,0,1-.59-.08,2.65,2.65,0,0,1,.59,0l1.71,0c1.48.05,3.62.07,6.26,0s5.78-.16,9.27-.41,7.3-.7,11.28-1.31,7.74-1.41,11.14-2.21,6.43-1.66,8.95-2.45,4.56-1.44,5.95-1.94l1.62-.55A3.51,3.51,0,0,1,405.13,217Z"/><path class="cls-9" d="M350.57,113.13l21.9-7.2s-.12,5.89,8.4,6.08c9.81.21,18-8.41,18-8.41s20.39,6.35,24.68,9.8-9.71,75.6-9.71,75.6l-1.27,21.49a16,16,0,0,1,2.1,7.21c0,3.73.14,6.21.14,6.21-26.15,7.89-52.09,14.72-76,7.09,0,0,.6-12.68,2-16.13S342,211.1,342,211.1l2.27-39.68.41-29.84Z"/><path class="cls-9" d="M423.79,113.37A22.29,22.29,0,0,1,432,126.73c1.8,9,5.72,60.94,5.72,60.94l-24.95-.9s-5-43-5-44,5.4-22.35,5.72-22.84S423.79,113.37,423.79,113.37Z"/><path class="cls-5" d="M419,113.88a47.91,47.91,0,0,0-4.47,3.51,46.89,46.89,0,0,0-3.62,4.37A12.08,12.08,0,0,1,414.2,117,12.27,12.27,0,0,1,419,113.88Z"/><path class="cls-12" d="M435.29,187.64l0,6.21c0,4.59-10,52.69-10,52.69l-14.86-5,5.22-46.74.22-7.86Z"/><path class="cls-12" d="M410.12,244.87s-5.93,4.48-7.24,6.25S398.36,259.2,396,261a1.82,1.82,0,0,0,2.87,1.23,20.46,20.46,0,0,0,6.26-5.44c1-1.54,2.07-.64,2.13.71S406.13,268,406.13,268s-2.85,10.11-2.08,11.24a1.84,1.84,0,0,0,2.89.13c.39-.53,3.59-9,3.59-9l.82-4.59s-1.65,14.56-.73,15.7a1.59,1.59,0,0,0,2.56.11c.63-.58,1.3-7,1.3-7L416,266l-.27,16.37s.18,1.55,1.39,1.61,2-1.73,2-1.73l1.76-16.87s-.56,9.38.06,9.86c.85.66,1.62.44,1.89-.27.57-1.47,1.39-9.9,1.39-9.9L425,249l.83-7.74-15-1Z"/><path class="cls-9" d="M367.58,109.82c.31-2.19,3.29-8.67,3.29-8.67l5.83,7.54h0l20.67-12.43,5.08,8.48L386.17,116l-8.23-1.29-6.39-1.17Z"/><path class="cls-5" d="M407.88,140.43c.15,0,1.06,8,2,17.9s1.65,17.95,1.51,18-1.06-8-2-17.9S407.74,140.44,407.88,140.43Z"/><path class="cls-5" d="M437.75,187.67a2.45,2.45,0,0,1-.61.06c-.4,0-1,0-1.75.05-1.53,0-3.73,0-6.44-.15s-5.95-.28-9.54-.32c-.9,0-1.81,0-2.77,0a6,6,0,0,1-2.88-.72,5.07,5.07,0,0,1-2-2.36,12.5,12.5,0,0,1-.86-3,11.66,11.66,0,0,1-.2-3.12,5.16,5.16,0,0,1,.32-1.54,2.12,2.12,0,0,1,.42-.72,1.74,1.74,0,0,1,.74-.45,6.77,6.77,0,0,1,1.5-.17l1.43-.07,2.76-.1c3.6-.09,6.84,0,9.56,0l6.43.11,1.75,0a2.45,2.45,0,0,1,.61.06,4.19,4.19,0,0,1-.61.05l-1.75.05-6.43.06c-2.72,0-6,0-9.55.14l-2.75.11-1.42.08a7.36,7.36,0,0,0-1.38.16c-.81.21-1,1.32-1.11,2.25a11.24,11.24,0,0,0,.2,3,12.85,12.85,0,0,0,.82,2.89,4.6,4.6,0,0,0,1.78,2.12c1.63.93,3.62.6,5.4.69,3.6.07,6.83.29,9.54.43s4.91.27,6.43.32l1.75.05A2.92,2.92,0,0,1,437.75,187.67Z"/><path class="cls-5" d="M344.19,134.59a3.75,3.75,0,0,1,0,.7c0,.51,0,1.17-.06,2-.06,1.8-.15,4.3-.26,7.37-.23,6.21-.5,14.8-.69,24.29S343,187,343,193.26c0,3.07,0,5.57,0,7.37,0,.83,0,1.49,0,2a2.88,2.88,0,0,1-.05.69,3.87,3.87,0,0,1-.06-.69c0-.51,0-1.18-.08-2-.05-1.74-.11-4.25-.15-7.36-.09-6.23-.1-14.83.08-24.33s.52-18.09.84-24.3c.17-3.11.31-5.62.44-7.36.06-.82.11-1.49.15-2A3.23,3.23,0,0,1,344.19,134.59Z"/><path class="cls-5" d="M338.06,192.39c-.08,0-.61-1.36-1.57-3.56a29.87,29.87,0,0,0-4.82-7.94,15.48,15.48,0,0,0-7.75-4.79,17.11,17.11,0,0,0-3.84-.33,3.26,3.26,0,0,1,1-.2,10.1,10.1,0,0,1,2.87.17,15,15,0,0,1,8.07,4.81,27,27,0,0,1,4.77,8.14c.44,1.12.76,2,1,2.69A4.07,4.07,0,0,1,338.06,192.39Z"/><path class="cls-5" d="M335.82,165.28a8.53,8.53,0,0,1-3.05-1.33,8.27,8.27,0,0,1-2.62-2A15.18,15.18,0,0,1,333,163.5,15,15,0,0,1,335.82,165.28Z"/><path class="cls-5" d="M402.2,104.74s-.13.15-.4.38-.67.57-1.2,1c-1.05.85-2.61,2-4.59,3.46a115.27,115.27,0,0,1-16.48,9.7l-.2.1-.13-.19c-.25-.39-.52-.81-.77-1.24a23.23,23.23,0,0,1-2.65-6.83l.5,0a13.45,13.45,0,0,1-1.75,4.45,42.09,42.09,0,0,1-2.29,3.63l-.24.34-.13-.39-2.95-8.32-.79-2.32a5.27,5.27,0,0,1-.24-.84,4.55,4.55,0,0,1,.36.79l.9,2.28c.77,2,1.84,4.87,3.12,8.26l-.38,0c.75-1.09,1.51-2.3,2.23-3.61a13.42,13.42,0,0,0,1.66-4.27l.18-1.43.31,1.4a23,23,0,0,0,2.61,6.68c.24.42.51.83.75,1.21l-.32-.09a127.49,127.49,0,0,0,16.49-9.53c2-1.36,3.59-2.51,4.68-3.31l1.26-.92A2.13,2.13,0,0,1,402.2,104.74Z"/><path class="cls-5" d="M372.07,233a.94.94,0,0,1,0-.29v-.87c0-.79,0-1.91.07-3.32.08-2.92.19-7.08.33-12.21.33-10.34.79-24.57,1.29-40.28s1.08-29.94,1.45-40.28c.21-5.13.38-9.29.5-12.21.07-1.41.12-2.52.16-3.31l.06-.87a1.11,1.11,0,0,1,0-.29,1,1,0,0,1,0,.3v.86c0,.8,0,1.91-.07,3.32-.08,2.92-.19,7.08-.33,12.21-.33,10.34-.79,24.57-1.3,40.29s-1.07,29.93-1.44,40.27c-.21,5.13-.38,9.29-.5,12.21-.07,1.41-.12,2.52-.16,3.32l-.06.86A1.11,1.11,0,0,1,372.07,233Z"/><path class="cls-7" d="M332.45,139.91s3.56-2.92,4.26-6.55,1.9-7.77,1.9-7.77,4.34-2.46,4.22-4.21-2.34-2.35-2.34-2.35a32.12,32.12,0,0,0-6,4.46c-2.11,2.22-7.44,12.35-7.44,12.35Z"/><path class="cls-12" d="M286,184.39s9.51.43,12.71-.27,19.2-6.29,19.2-6.29,12.93,7.07,13.73,12.13-1.06,6.71-1.06,6.71l-42.14,2.21-5.94-5Z"/><path class="cls-7" d="M270.3,184.39h7.25S297.34,194.91,298,196.2c1,1.88.73,3.07-1.34,2.75-1.17-.17-10.55-4.72-10.55-4.72l-.24.79s4.73,4.39,4.73,5.74-1.18,3.71-3.23,2.92c0,0-1,3-2.21,3.46a4,4,0,0,1-2.52,0s-.78,1.81-2.28,1.81a5.54,5.54,0,0,1-3-1.26l-7.95-7.79L259,199.74l2.46-16.08Z"/><path class="cls-8" d="M280.89,204.29c.12-.08.59.44,1,1.16s.72,1.36.6,1.44-.59-.44-1-1.16S280.77,204.36,280.89,204.29Z"/><path class="cls-8" d="M284.66,200.81c.12-.09.75.54,1.5,1.34s1.34,1.47,1.25,1.58-.86-.4-1.63-1.22S284.55,200.89,284.66,200.81Z"/><path class="cls-12" d="M288.07,185.66s-6.69-6.06-7.88-6.22-6.69.16-7.95,1.6-.63,8.09-.39,8.17a2.84,2.84,0,0,0,3.07-.87,18.93,18.93,0,0,0,1.89-4.41l1.34.44s1.07,3.18,7.5,4.08Z"/><path class="cls-12" d="M262.08,199.65s-.23,1.82,1,2.45a4.66,4.66,0,0,0,3.07,0l.47-2.74S263.19,197.12,262.08,199.65Z"/><path class="cls-12" d="M269.05,204.77s-4.33,0-3.55-2.67,2.68-4.33,3.55-4.33,3.62,0,2.6,2.64A15.55,15.55,0,0,1,269.05,204.77Z"/><path class="cls-12" d="M273,206.11s-4.51,1.18-4-1.34,2.34-6,4-5.51,3.05,1.18,2.49,2.6A31.55,31.55,0,0,1,273,206.11Z"/><path class="cls-12" d="M278.81,206.39s-1.42,1.77-2.52,1.77-3.28-2-3.28-2l2.9-5.11a2.1,2.1,0,0,1,2.11,1.8,20.21,20.21,0,0,1,.23,2.46Z"/><path class="cls-13" d="M276,201.12a17.37,17.37,0,0,1-3.07,5.14,9,9,0,0,1,1.31-2.7A8.6,8.6,0,0,1,276,201.12Z"/><path class="cls-13" d="M272.11,199.38c.11.1-.85,1.21-1.74,2.74S269,205,268.84,205a6.07,6.07,0,0,1,1.08-3.13A6.23,6.23,0,0,1,272.11,199.38Z"/><path class="cls-13" d="M268.21,198.35c.09.12-.82.84-1.56,2s-1,2.28-1.2,2.25a3.55,3.55,0,0,1,.76-2.54C267,198.81,268.15,198.23,268.21,198.35Z"/></g><g id="Character_1" data-name="Character 1"><path class="cls-5" d="M88.55,75.68A17.38,17.38,0,0,1,95,90.4c-.21,2.7-1,5.78.8,7.85s5.16,2,6.82,4.08c2,2.47.32,6.15,1,9.23a6.25,6.25,0,0,0,6.64,4.65,24.45,24.45,0,0,1-12.09,5.25l-3.39-4.35c1.29,1.52,1,4-.3,5.5a10.23,10.23,0,0,1-5.05,3,30.92,30.92,0,0,1-27.13-4.41"/><path class="cls-5" d="M37.75,99.55c.68-2.07,1.82-4,2.27-6.12,1-4.58-1.25-9.74,1-13.86,1.58-2.93,4.95-4.37,8.14-5.35s6.6-1.81,9-4.15c1.74-1.72,2.73-4.08,4.47-5.8,2.47-2.45,6.12-3.28,9.6-3.5a21,21,0,0,1,10.48,1.7,11.46,11.46,0,0,1,6.45,8.07c.28,1.72.07,3.53.61,5.18.59,1.83,2,3.25,2.91,5a9.2,9.2,0,0,1-2.29,11L65.82,123.33c-5.15,2-17.63-.4-21.61-4.21S36,104.78,37.75,99.55Z"/><path class="cls-7" d="M89.69,87.64c-1-7.19-6.48-15.68-13.62-14.37L54,80.68a4.25,4.25,0,0,0-3.46,4.59l6.49,52s-1.62,1.35-2.68.94a.3.3,0,0,0-.36.45c2.65,3.84,15.14,20.64,28,15.51,2.88-1.14-.3-10.21,0-13.57l-.39-8.58c-.28-4.38-.42-6.17-.41-6.13s9.11-2.24,10.09-14.43C91.87,105.43,90.81,95.63,89.69,87.64Z"/><path class="cls-5" d="M88.15,98.71a1.55,1.55,0,0,1-1.37,1.67,1.49,1.49,0,0,1-1.7-1.27,1.56,1.56,0,0,1,1.37-1.67A1.48,1.48,0,0,1,88.15,98.71Z"/><path class="cls-5" d="M73.14,99.65a1.54,1.54,0,0,1-1.37,1.67,1.47,1.47,0,0,1-1.69-1.27,1.54,1.54,0,0,1,1.36-1.67A1.48,1.48,0,0,1,73.14,99.65Z"/><path class="cls-5" d="M88.71,93.62c-.17.28-1.61-.63-3.41-.37s-3,1.5-3.19,1.27,0-.59.53-1.16A4.14,4.14,0,0,1,85.14,92a4.1,4.1,0,0,1,2.76.6C88.53,93.06,88.79,93.49,88.71,93.62Z"/><path class="cls-5" d="M72.55,95c-.21.26-1.63-.77-3.56-.68s-3.31,1.17-3.53.93.1-.57.7-1.08A4.68,4.68,0,0,1,69,93.06a4.57,4.57,0,0,1,2.84.86C72.43,94.39,72.65,94.83,72.55,95Z"/><path class="cls-5" d="M78.62,106.34a11.08,11.08,0,0,1,2.66-.69c.42-.08.81-.19.86-.49a2.11,2.11,0,0,0-.38-1.24c-.47-1-1-2-1.5-3.13-2.1-4.47-3.65-8.15-3.47-8.24s2,3.47,4.13,7.94c.5,1.1,1,2.15,1.45,3.16a2.5,2.5,0,0,1,.35,1.65,1.08,1.08,0,0,1-.65.67,2.78,2.78,0,0,1-.72.16A10.34,10.34,0,0,1,78.62,106.34Z"/><path class="cls-8" d="M81.28,125.92a30.79,30.79,0,0,1-16.46-3.06s4.7,8.14,16.67,6.08Z"/><path class="cls-8" d="M73.55,111.19a2.54,2.54,0,0,1,.85-1,2.09,2.09,0,0,1,1.44-.15,3.4,3.4,0,0,1,1.88,1,2,2,0,0,1,.48,2h0c-.19.7-1.23,1.08-1.94,1.2a3.17,3.17,0,0,1-2.07-.43,1.86,1.86,0,0,1-1.06-1.38A2.2,2.2,0,0,1,73.55,111.19Z"/><path class="cls-5" d="M73.89,108.85c.27,0,.41,1.77,2,2.93s3.55.82,3.58,1.07-.4.38-1.21.47a4.56,4.56,0,0,1-3-.79,4,4,0,0,1-1.61-2.47C73.6,109.31,73.76,108.85,73.89,108.85Z"/><path class="cls-5" d="M72.41,88.45c-.13.46-1.81.37-3.74.76s-3.47,1-3.76.65c-.13-.18.11-.63.71-1.12a6.42,6.42,0,0,1,2.73-1.19,6.23,6.23,0,0,1,3,.12C72.07,87.9,72.46,88.23,72.41,88.45Z"/><path class="cls-5" d="M87.68,87.53c-.3.41-1.64.12-3.22.22s-2.88.48-3.22.11c-.15-.19,0-.58.59-1a4.87,4.87,0,0,1,2.56-.82,5,5,0,0,1,2.63.56C87.6,87,87.82,87.34,87.68,87.53Z"/><path class="cls-5" d="M49.15,82.41c1.12-1.71,3.11-2.59,5-3.32A111.32,111.32,0,0,1,79.7,72.58c1.08,1.8.08,4.23-1.56,5.54s-3.75,1.82-5.71,2.55-4,1.87-4.79,3.8-.13,4.49-.88,6.59c-1.3,3.61-6.34,4.77-7.62,8.38-1,2.74.62,5.65,1,8.52A10.36,10.36,0,0,1,50,119.76q-.9-15.53-1.79-31.06C48.06,86.55,48,84.22,49.15,82.41Z"/><path class="cls-5" d="M28.3,108.56c1.63-1.46,3.68-2.73,4.34-4.83,1-3-1.51-6.64.07-9.42,1.44-2.53,5.69-2.41,7-5,1.05-2-.15-3.81.25-5.59s2.92-3.33,4.72-3.12l14.14,20.49c1.31,6.87,2.63,10.53,1.16,14.55a32,32,0,0,0-2.18,6.68c-.32,2.33.28,5,2.18,6.34-8.45.67-16.37-3.76-23.69-8l-7.75-4.53a5.68,5.68,0,0,1-2.13-1.77C25.29,112.45,26.67,110,28.3,108.56Z"/><path class="cls-9" d="M36.09,118.55a3.67,3.67,0,0,0,.91.18,7.57,7.57,0,0,0,2.63-.19,8.14,8.14,0,0,0,3.67-2,8,8,0,0,0,2.42-4.94,8.42,8.42,0,0,0-.28-3.24,13.18,13.18,0,0,0-1.57-3.14A12.73,12.73,0,0,1,42.25,102a4.18,4.18,0,0,1,.46-3.58c.76-1,2.19-1.28,3.52-1.82A3.91,3.91,0,0,0,48,95.25,3.75,3.75,0,0,0,48.61,93a24.41,24.41,0,0,0-1-4.4,4.78,4.78,0,0,1,0-2.16,3,3,0,0,1,1.22-1.72,8.42,8.42,0,0,1,4.27-1.14,9.22,9.22,0,0,0,4.36-1.28,8.18,8.18,0,0,0,3-3.23,13.44,13.44,0,0,0,1.1-4,19.36,19.36,0,0,1,.83-3.8,8.3,8.3,0,0,1,2-3,9.48,9.48,0,0,1,11.08-1.56,11.68,11.68,0,0,1,3.26,2.48,15.77,15.77,0,0,1,2,2.89s0-.08-.08-.22-.15-.36-.3-.62a10.83,10.83,0,0,0-1.49-2.17,11.47,11.47,0,0,0-3.27-2.6,9.87,9.87,0,0,0-5.39-1.19A10,10,0,0,0,64.1,68,9.05,9.05,0,0,0,62,71.09,19.27,19.27,0,0,0,61.12,75a13.14,13.14,0,0,1-1.07,3.91,7.73,7.73,0,0,1-2.82,3,8.65,8.65,0,0,1-4.14,1.2,8.94,8.94,0,0,0-4.52,1.23,3.56,3.56,0,0,0-1.41,2,5.31,5.31,0,0,0,0,2.38,24.3,24.3,0,0,1,1,4.32A3.37,3.37,0,0,1,47.64,95a3.47,3.47,0,0,1-1.59,1.17c-.63.26-1.31.45-2,.72a4.07,4.07,0,0,0-1.74,1.25,4.66,4.66,0,0,0-.51,4,12.84,12.84,0,0,0,1.7,3.37,13,13,0,0,1,1.55,3,8.06,8.06,0,0,1,.29,3.1,7.73,7.73,0,0,1-2.26,4.78,8.22,8.22,0,0,1-3.53,2A8.84,8.84,0,0,1,36.09,118.55Z"/><path class="cls-5" d="M24.82,104a1.81,1.81,0,0,0-.28.69,3,3,0,0,0,.36,2.1A3.3,3.3,0,0,0,26,107.91a3.35,3.35,0,0,0,1.81.48,4.19,4.19,0,0,0,3.7-2.35,5.65,5.65,0,0,0,.6-2.57,7.94,7.94,0,0,0-.59-2.8c-.67-1.83-1.89-3.61-1.91-5.75a3.87,3.87,0,0,1,1-2.9,4.22,4.22,0,0,1,3.07-1,10.35,10.35,0,0,0,3.66-.38,3.15,3.15,0,0,0,1.5-1.27,4.46,4.46,0,0,0,.62-1.86,14.9,14.9,0,0,0-.3-3.76,8.13,8.13,0,0,1,.19-3.48,8.79,8.79,0,0,1,3.94-5.17,12.42,12.42,0,0,1,5.86-1.33A17.59,17.59,0,0,0,54.46,73a11.42,11.42,0,0,0,5.86-5,8.09,8.09,0,0,0,1-2.69,14.5,14.5,0,0,1-1.17,2.59,11.26,11.26,0,0,1-2.09,2.56,11,11,0,0,1-3.72,2.25,17.33,17.33,0,0,1-5.26.77A12.75,12.75,0,0,0,43,74.75a9.21,9.21,0,0,0-4.17,5.43,8.72,8.72,0,0,0-.22,3.67,14.56,14.56,0,0,1,.3,3.64,3.15,3.15,0,0,1-1.82,2.74,10.26,10.26,0,0,1-3.48.35,4.74,4.74,0,0,0-3.4,1.1,4.4,4.4,0,0,0-1.1,3.25,8.17,8.17,0,0,0,.78,3.15c.41,1,.86,1.85,1.21,2.74a7.51,7.51,0,0,1,.59,2.65,5.2,5.2,0,0,1-.53,2.41,3.92,3.92,0,0,1-3.39,2.24,3.15,3.15,0,0,1-1.68-.41,2.93,2.93,0,0,1-1-1,3,3,0,0,1-.43-2A5.35,5.35,0,0,1,24.82,104Z"/><path class="cls-5" d="M113.9,109a3.32,3.32,0,0,1,0,2.21,2.89,2.89,0,0,1-1.75,1.78,3.07,3.07,0,0,1-3.11-.85,2.78,2.78,0,0,1-.72-1.77,5.81,5.81,0,0,1,.32-2.14c.45-1.43,1.36-3,1.22-4.85a6.84,6.84,0,0,0-2.57-4.89,8,8,0,0,0-2.63-1.38,11.41,11.41,0,0,0-3-.44,16.14,16.14,0,0,1-2.92-.3A3.88,3.88,0,0,1,96.42,95a4.74,4.74,0,0,1-.82-2.5,9.4,9.4,0,0,1,.22-2.6,20.24,20.24,0,0,0,.76-5,7.62,7.62,0,0,0-1.51-4.11,9.8,9.8,0,0,0-2.76-2.32A18.57,18.57,0,0,1,90.11,77a5.81,5.81,0,0,1-1.39-1.78,1.31,1.31,0,0,0,0,.14,2.29,2.29,0,0,0,.17.42,4.64,4.64,0,0,0,1,1.36,17.17,17.17,0,0,0,2.18,1.61A9.6,9.6,0,0,1,94.79,81,7.2,7.2,0,0,1,96.17,85a20.1,20.1,0,0,1-.8,4.84,10.18,10.18,0,0,0-.24,2.73,5.23,5.23,0,0,0,.9,2.75,4.36,4.36,0,0,0,2.55,1.6,16.13,16.13,0,0,0,3,.33,11.27,11.27,0,0,1,2.89.4,7.54,7.54,0,0,1,2.48,1.3,6.41,6.41,0,0,1,2.42,4.54c.15,1.7-.7,3.2-1.16,4.7a6.25,6.25,0,0,0-.31,2.29,3.12,3.12,0,0,0,.85,2,3.35,3.35,0,0,0,3.45.87,3.08,3.08,0,0,0,1.84-2,3.16,3.16,0,0,0,.09-1.72A1.8,1.8,0,0,0,113.9,109Z"/><polygon class="cls-7" points="57.48 401.03 61.26 433.69 75.58 431.51 76.54 399.32 57.48 401.03"/><path class="cls-9" d="M75.62,425s-9.6,8.15-15,2.17l-1.07,3.18-4.2,22.43a3,3,0,0,0,1.87,3.41,2.75,2.75,0,0,0,2.9-.81C64.05,451,78.24,434.84,78,432.82l-.44-5.39a2.74,2.74,0,0,0-1.89-2.4Z"/><g class="cls-10"><path class="cls-4" d="M57.78,456.33l20-25.39.08,1.18a3.36,3.36,0,0,1-.84,2.68c-1.59,2.57-6.07,8.37-16.8,20.6a2.77,2.77,0,0,1-2.48.93Z"/></g><g class="cls-10"><path class="cls-4" d="M74.39,427.68a1.77,1.77,0,0,0-.31,2.29,1.6,1.6,0,0,0,2.21.32,1.85,1.85,0,0,0,.32-2.42,1.66,1.66,0,0,0-2.34-.08"/></g><path class="cls-5" d="M63.18,443.7a8.54,8.54,0,0,0-2.53-2,8.32,8.32,0,0,0-3.17-.39c0-.06.3-.3.93-.44a4.27,4.27,0,0,1,2.47.26,4.34,4.34,0,0,1,1.94,1.57C63.18,443.27,63.25,443.68,63.18,443.7Z"/><path class="cls-5" d="M61.49,447.58a20.07,20.07,0,0,0-2.49-1,23.17,23.17,0,0,0-2.68-.16,3.11,3.11,0,0,1,2.82-.44C60.77,446.32,61.63,447.49,61.49,447.58Z"/><path class="cls-5" d="M66.47,438.66c-.12.14-1.55-1.16-3.74-1.84s-4.08-.48-4.1-.66,1.94-.68,4.28.08A6.16,6.16,0,0,1,66.47,438.66Z"/><path class="cls-5" d="M66.48,431.93c-.06.17-1.61-.36-3.57-.29s-3.48.67-3.55.5A5.37,5.37,0,0,1,62.9,431,5.38,5.38,0,0,1,66.48,431.93Z"/><path class="cls-5" d="M61.79,431.67a2.64,2.64,0,0,1,.08-1.05A7.6,7.6,0,0,1,63,428a3.23,3.23,0,0,1,1.53-1.39,1.1,1.1,0,0,1,1.22.39,1.9,1.9,0,0,1,.29,1.3,4,4,0,0,1-3.85,3.34A4.57,4.57,0,0,1,58,428.66a1.67,1.67,0,0,1,.07-1.36,1.09,1.09,0,0,1,1.21-.46A3.8,3.8,0,0,1,61,428a8.08,8.08,0,0,1,1.61,2.36,2.7,2.7,0,0,1,.31,1,12.76,12.76,0,0,0-2.21-3.06,3.72,3.72,0,0,0-1.49-1,.57.57,0,0,0-.66.25,1.13,1.13,0,0,0,0,.89,4.06,4.06,0,0,0,3.67,2.5,3.47,3.47,0,0,0,3.31-2.78,1.34,1.34,0,0,0-.17-.91.58.58,0,0,0-.67-.23,3,3,0,0,0-1.32,1.15A11.28,11.28,0,0,0,61.79,431.67Z"/><path class="cls-7" d="M114.18,426.76c-.33-.5-3.33-11.43-3.33-11.43l18.53-5L132,426Z"/><path class="cls-9" d="M131.85,422.94v1.26s20.39,8.3,20.66,12.35l-40.3.29.46-14.1C118.69,425.62,125,425.9,131.85,422.94Z"/><g class="cls-10"><path class="cls-4" d="M116.79,427.22a1.75,1.75,0,0,0-1.13,2,1.58,1.58,0,0,0,1.86,1.19,1.82,1.82,0,0,0,1.18-2.1,1.62,1.62,0,0,0-2.06-1"/></g><g class="cls-10"><path class="cls-4" d="M112.22,436.84l.11-3.39,38.58,1s1.8.81,1.61,2.14Z"/></g><path class="cls-5" d="M132,424.31c0,.21-1,.31-2,1s-1.47,1.55-1.65,1.47.1-1.28,1.28-2.07S132.05,424.12,132,424.31Z"/><path class="cls-5" d="M136.24,426.12c0,.2-.8.56-1.46,1.44s-.85,1.8-1.05,1.79-.33-1.17.52-2.25S136.24,425.92,136.24,426.12Z"/><path class="cls-5" d="M138.68,431.42c-.18,0-.46-1,0-2.12s1.41-1.6,1.5-1.43-.48.79-.88,1.72S138.88,431.4,138.68,431.42Z"/><path class="cls-5" d="M98.44,221.86S111.85,275.11,120.5,328c7.11,43.48,10.25,90.55,10.25,90.55l-20.93,1.23s-12.76-53.92-22.69-92.68C78,291.32,70.52,272.56,70.52,272.56l-7-52.42Z"/><path class="cls-5" d="M43.86,220.14S25.5,245,27.05,270.88c.92,15.5,30.43,147.64,30.43,147.64H79.17L72,277.17l6.3-47.91Z"/><path class="cls-7" d="M125.58,123.62l-3.31,12.21-1.29,2.1s-.82,6.72-.81,8.15,2.32,8.74,2.32,8.74l-3.71,6.87,11.71,3.67s2.71-6.24,3.53-7,1.32-2.73,1.43-4.07,1.34-9.28,1.34-9.28,4.52-9,2.38-9.28a7.25,7.25,0,0,0-1.58.13s-2.7,5.89-3.5,6.06l-1.2-.6s1.83-8.86,1.85-10.5-.39-2.76-1.66-2.87c0,0-.91.44-1,.86s-1.83,10.28-2.37,10.13-.35-1-.35-1,2.42-12,2.23-12.65a1.86,1.86,0,0,0-2-1.5l-2,6.63s.79-5.52-.15-6.44A1.54,1.54,0,0,0,125.58,123.62Z"/><path class="cls-8" d="M129.67,149.93c-.1,0-.1-1-.58-2.62a10.29,10.29,0,0,0-3.9-5.28l-.16-.11,0-.18c.14-.88.29-1.8.45-2.75v-.05l0-.06a11.06,11.06,0,0,0,.54-1,10.7,10.7,0,0,0,1.1-3.52,3.9,3.9,0,0,0-.12-1.62,1.15,1.15,0,0,0-.93-.82l.19-.09c-1.28,1.4-2.36,2.54-3.13,3.33a7.69,7.69,0,0,1-1.26,1.19,7.11,7.11,0,0,1,1-1.38c.71-.85,1.73-2.05,3-3.48l.08-.09h.11a1.66,1.66,0,0,1,1.44,1.14,4.34,4.34,0,0,1,.19,1.86,10.84,10.84,0,0,1-1.14,3.74c-.18.36-.37.71-.57,1l0-.12c-.16.95-.32,1.87-.47,2.75l-.14-.3a10,10,0,0,1,3.94,5.67,9.23,9.23,0,0,1,.29,2A2.24,2.24,0,0,1,129.67,149.93Z"/><path class="cls-8" d="M129.06,140.25a8.14,8.14,0,0,1,3.72,1.36c1.93,1.1,3.17,2.42,3.05,2.54a37,37,0,0,1-3.35-2C130.63,141.06,129,140.42,129.06,140.25Z"/><path class="cls-5" d="M100.22,153.33a2.85,2.85,0,0,1,.1.77c0,.57.1,1.31.17,2.22.14,1.92.24,4.71.31,8.15.13,6.9-.19,16.42-.88,26.91s-1.28,20-1.41,26.87c-.08,3.44-.11,6.22-.08,8.15v2.21a3.66,3.66,0,0,1-.05.78,4.82,4.82,0,0,1-.08-.77c0-.57-.06-1.31-.11-2.22-.09-1.92-.13-4.71-.11-8.16,0-6.9.55-16.41,1.24-26.9s1.08-20,1.06-26.86c0-3.44,0-6.23-.13-8.15,0-.92,0-1.65,0-2.22A4.77,4.77,0,0,1,100.22,153.33Z"/><path class="cls-9" d="M117.38,158,113,174.3l-8.52-29.22a10.31,10.31,0,0,0-6.72-6.85l-6.86-1.56,7.59,58.46,1.7,4.39a11.73,11.73,0,0,0,6,6c7.1,3.21,16.07-.35,17.95-7.92l9.81-35Z"/><path class="cls-4" d="M45.22,155.35l5.31,66.51,43.56.37,4.1,4.17L97,172.92l-15.1-38.09h0c-1.8,3.4-5.24,4.56-9.39,4.24-2.82-.22-8-.74-10.27-2.4l-5.93-5.57Z"/><path class="cls-9" d="M56.1,128l-4.58,5.43L28.6,142.43l14.08,68.08L32,236.86a65.34,65.34,0,0,0-2.81,8.52l-6.61,25.84S49.17,281.86,55,278.48s12.15-39.2,14.32-47,2.38-32.48.86-44.84-4.11-30.56-5.41-36.85S56.1,128,56.1,128Z"/><path class="cls-9" d="M82,129.92l3.31,5.14,13.81,3.49s3.64,18.19,3.64,23.17-2.06,60.25-2.06,62.85,10,37.94,9.11,40.1-11.28,3.69-11.28,3.69-3.9-30.56-3.9-41-.43-36-2.6-48.55-10-43.79-10-43.79Z"/><path class="cls-5" d="M94.83,233.2a.76.76,0,0,1,0-.26c0-.2,0-.45,0-.76,0-.71,0-1.68,0-2.92.06-2.58.15-6.23.25-10.73.21-9.06.58-21.58.8-35.4,0-1.73,0-3.44,0-5.12s-.18-3.31-.3-4.94c-.26-3.25-.52-6.38-.83-9.36s-.64-5.8-1.09-8.42a35.8,35.8,0,0,0-2-7.08,91.33,91.33,0,0,0-4.54-9.69L85.75,136l-.37-.67a1,1,0,0,1-.11-.23s.06.06.16.2.25.38.41.64c.36.57.87,1.41,1.49,2.51a83,83,0,0,1,4.72,9.66,36.62,36.62,0,0,1,2.11,7.14c.47,2.63.82,5.46,1.14,8.45s.59,6.11.86,9.37c.13,1.62.31,3.27.31,5s0,3.4,0,5.13c-.23,13.83-.66,26.34-1,35.4-.18,4.5-.32,8.15-.42,10.73-.06,1.23-.11,2.2-.15,2.92,0,.3,0,.55,0,.75A.9.9,0,0,1,94.83,233.2Z"/><path class="cls-5" d="M69.13,212.4a4.52,4.52,0,0,1-.12-.82c-.06-.53-.12-1.32-.19-2.34-.13-2-.25-5-.19-8.65,0-1.83.1-3.83.24-6a26.8,26.8,0,0,0-.81-6.7,112.52,112.52,0,0,0-5-14.83c-2.08-5.16-4.24-10-6.25-14.39a58.87,58.87,0,0,1-2.66-6.33,55.49,55.49,0,0,1-1.42-5.82C52.05,143,51.67,140,51.42,138c-.12-1-.2-1.81-.24-2.34a3.9,3.9,0,0,1,0-.82,4.36,4.36,0,0,1,.15.81c.09.58.2,1.35.35,2.32.31,2,.75,4.93,1.49,8.5a56,56,0,0,0,1.46,5.76,61.92,61.92,0,0,0,2.7,6.26c2,4.38,4.21,9.22,6.3,14.39a110.44,110.44,0,0,1,5,14.92,27.14,27.14,0,0,1,.77,6.86c-.16,2.13-.25,4.13-.31,5.95-.11,3.64,0,6.59,0,8.63,0,1,.06,1.76.08,2.35A5.16,5.16,0,0,1,69.13,212.4Z"/><path class="cls-5" d="M102.37,154.14a3.31,3.31,0,0,1,.09.71q.06.78.15,2c.13,1.78.23,4.36.29,7.54.12,6.37-.18,15.17-.82,24.86s-1.18,18.47-1.3,24.82c-.07,3.18-.1,5.76-.07,7.53,0,.85,0,1.53,0,2.05a4.47,4.47,0,0,1,0,.72,3.16,3.16,0,0,1-.08-.71c0-.53-.06-1.21-.1-2-.09-1.78-.12-4.36-.1-7.54,0-6.37.51-15.16,1.14-24.85s1-18.47,1-24.83c0-3.18-.05-5.75-.12-7.53,0-.84,0-1.52,0-2.05A3.28,3.28,0,0,1,102.37,154.14Z"/><path class="cls-5" d="M39.9,179a6.8,6.8,0,0,1-.09-1.43c0-.91-.07-2.24-.19-3.87a67.24,67.24,0,0,0-2.09-12.58,68.23,68.23,0,0,0-4.46-12c-.72-1.47-1.33-2.65-1.78-3.45a6.81,6.81,0,0,1-.63-1.28,7.65,7.65,0,0,1,.82,1.17c.5.77,1.17,1.93,1.94,3.38a59.87,59.87,0,0,1,4.65,12,60.14,60.14,0,0,1,2,12.7c.06,1.64.06,3,0,3.89A6.9,6.9,0,0,1,39.9,179Z"/><rect class="cls-1" x="3.13" y="239.42" width="68.94" height="48.92" rx="2.71" transform="translate(-42.64 9.7) rotate(-9.41)"/><path class="cls-7" d="M36,263.62s5,3.78,6.12,5.28,3.82,6.83,5.85,8.38a1.53,1.53,0,0,1-2.42,1,17.18,17.18,0,0,1-5.29-4.59c-.86-1.3-1.75-.54-1.8.59s.92,8.83.92,8.83,2.4,8.54,1.75,9.5a1.56,1.56,0,0,1-2.44.11c-.32-.44-3-7.59-3-7.59l-.69-3.88s1.39,12.3.61,13.27a1.35,1.35,0,0,1-2.16.1c-.54-.49-1.1-5.93-1.1-5.93L31,281.47l.23,13.84s-.15,1.31-1.18,1.36-1.71-1.47-1.71-1.47l-1.49-14.26s.48,7.93-.05,8.34c-.72.56-1.37.37-1.6-.23-.48-1.24-1.17-8.37-1.17-8.37l-.66-13.57-.69-6.54,12.7-.83Z"/><path class="cls-9" d="M28.6,142.43s-5.91,7.36-7.59,14.43c-2.83,11.95-9.17,50.44-8.52,58.07s6,51.48,6,51.48L38.05,262l-3.52-50,5.53-32.36"/><path class="cls-5" d="M40.06,179.58s0,.19-.07.57-.15.95-.26,1.67c-.24,1.48-.59,3.64-1,6.42-.94,5.6-2.29,13.69-4,23.73v0c1,13.48,2.2,30.7,3.59,50l0,.21-.21.05-19.54,4.45-.28.06,0-.29c-.45-3.8-.92-7.82-1.4-11.9-.92-7.89-1.82-15.6-2.69-23q-.64-5.58-1.27-11l-.62-5.31a36.66,36.66,0,0,1,.09-5.25c.55-6.88,1.51-13.35,2.4-19.41s1.84-11.67,2.75-16.8S19.31,164,20.17,160a41.09,41.09,0,0,1,1.46-5.58,33.73,33.73,0,0,1,2-4.43,49.37,49.37,0,0,1,3.55-5.69c.45-.62.8-1.09,1-1.4s.39-.45.39-.45-.11.17-.34.49l-1,1.42a54.74,54.74,0,0,0-3.45,5.72,36.45,36.45,0,0,0-1.94,4.42,41.35,41.35,0,0,0-1.4,5.56c-.84,4.05-1.7,8.68-2.58,13.8s-1.79,10.76-2.69,16.81-1.8,12.53-2.34,19.37a35.81,35.81,0,0,0-.08,5.18c.2,1.75.41,3.52.62,5.31q.63,5.37,1.29,11c.87,7.43,1.78,15.13,2.7,23,.48,4.08.95,8.1,1.39,11.9l-.31-.22L38,261.73l-.2.26c-1.33-19.33-2.52-36.55-3.46-50v-.05c1.75-10,3.16-18.11,4.14-23.71.49-2.77.88-4.92,1.14-6.4.13-.72.24-1.27.31-1.66S40.06,179.58,40.06,179.58Z"/><path class="cls-5" d="M77.76,194.35A9.1,9.1,0,0,0,79.23,192a38.56,38.56,0,0,0,1.87-6.46,44,44,0,0,0,.82-6.7,23.32,23.32,0,0,1,.13-2.81,11.22,11.22,0,0,1,.24,2.82,34.14,34.14,0,0,1-.67,6.79,31,31,0,0,1-2.05,6.51A4.23,4.23,0,0,1,77.76,194.35Z"/></g></svg>