<svg xmlns="http://www.w3.org/2000/svg" viewBox="0 0 478.26 480.98"><defs><style>.cls-1{isolation:isolate;}.cls-2,.cls-23{opacity:0.3;}.cls-11,.cls-15,.cls-16,.cls-17,.cls-3,.cls-9{fill:none;stroke-miterlimit:10;}.cls-16,.cls-17,.cls-3{stroke:#2c54ac;}.cls-3{stroke-width:0.97px;stroke-dasharray:4.01 4.01;}.cls-12,.cls-4{fill:#9ddcf9;}.cls-4{mix-blend-mode:overlay;opacity:0.25;}.cls-5{opacity:0.39;}.cls-6,.cls-8{fill:#2c54ac;}.cls-23,.cls-25,.cls-6,.cls-7{mix-blend-mode:multiply;}.cls-14,.cls-7{fill:#55a3f3;}.cls-11,.cls-9{stroke:#55a3f3;}.cls-9{stroke-width:0.78px;}.cls-10{opacity:0.4;}.cls-11{stroke-width:4.35px;}.cls-13,.cls-25{fill:#ff675d;}.cls-15{stroke:#fff;stroke-dasharray:4;}.cls-17{stroke-dasharray:3.95 3.95;}.cls-18{fill:#fff;}.cls-19{fill:#ff4648;}.cls-20{fill:#ff8775;}.cls-21{fill:#73c3ff;}.cls-22{fill:#0a2a6b;}.cls-24{fill:#ff5748;}.cls-25{opacity:0.6;}.cls-26{opacity:0.2;}</style></defs><g class="cls-1"><g id="OBJECTS"><g class="cls-2"><path class="cls-3" d="M271.35,31.8c14.82,12.59,24.94,29.7,37.31,44.71a184.08,184.08,0,0,0,53.47,44.24c21.64,11.85,45.7,19.36,65.87,33.59,33.69,23.76,53.2,66.23,49.28,107.27s-31.14,79.05-68.73,96c-12.79,5.76-26.58,9.22-39.06,15.63-40.95,21-64.29,71.57-109.07,82.22-52.06,11.67-96-31.89-118.24-74.83-11.78-21.14-22.74-44.91-44.13-56.22-14.89-7.88-32.6-8.34-48.29-14.47-33.4-13-52.53-51.73-48.82-87.39s26.93-67.25,56.39-87.68c17.71-12.28,38.14-21.47,52-38C118.35,86,123.9,72.71,131.07,60.51c27.78-47.27,96.7-65.74,140.28-28.71Z"/></g><path class="cls-4" d="M244.31,29.59C260.63,40.18,272.85,55.85,287,69.15a184.23,184.23,0,0,0,58.71,37c23,9,47.81,13.34,69.63,24.86C451.84,150.27,476.64,189.9,478,231.1s-20.75,82.39-55.85,104c-12,7.36-25.18,12.56-36.74,20.52-37.91,26.1-54.58,79.22-97.62,95.53-23.46,8.89-50.54,4.27-72.51-7.85s-39.44-31-54.36-51.21c-14.39-19.45-28.31-41.61-51-50.09-15.78-5.9-33.4-4.09-49.75-8.16C25.42,325.19,1.48,289.28.59,253.44s18.08-70.16,44.68-94.2c16-14.44,35.08-26.18,46.65-44.36,7.6-11.93,11.4-25.81,16.94-38.82C130.36,25.61,196.34-1.55,244.31,29.59Z"/><g class="cls-5"><rect class="cls-6" x="8.69" y="42.87" width="21.12" height="18.48" rx="3.59"/><rect class="cls-7" x="21.96" y="52.1" width="15.06" height="13.62" rx="2.6"/><rect class="cls-6" x="207.46" y="410.59" width="14.79" height="12.94" rx="2.51"/><rect class="cls-7" x="216.75" y="417.07" width="10.55" height="9.54" rx="1.82"/><rect class="cls-6" x="412.63" y="200.5" width="25.23" height="22.07" rx="4.29"/><rect class="cls-7" x="428.48" y="195.26" width="17.99" height="16.27" rx="3.11"/></g><path class="cls-8" d="M322.09,340.88l1.05,3.67a11.85,11.85,0,0,1,2.73,1.11l3.38-1.85,3,3-1.88,3.33a12.13,12.13,0,0,1,1.13,2.7l3.71,1v4.22l-3.71,1a12.13,12.13,0,0,1-1.13,2.7l1.88,3.33-3,3-3.38-1.85a12.31,12.31,0,0,1-2.73,1.11l-1.05,3.67h-4.28l-1.05-3.67a12.2,12.2,0,0,1-2.74-1.11l-3.37,1.85-3-3,1.88-3.33a11.26,11.26,0,0,1-1.13-2.7l-3.72-1v-4.22l3.72-1a11.26,11.26,0,0,1,1.13-2.7l-1.88-3.33,3-3,3.37,1.85a11.75,11.75,0,0,1,2.74-1.11l1.05-3.67ZM312,356a8,8,0,1,0,8-7.89A8,8,0,0,0,312,356Z"/><path class="cls-9" d="M294.63,303.37l1.49,5.16A16.65,16.65,0,0,1,300,310.1l4.76-2.61,4.25,4.19-2.65,4.7a16.33,16.33,0,0,1,1.59,3.8l5.23,1.47v6l-5.23,1.46a16.33,16.33,0,0,1-1.59,3.8l2.65,4.7-4.25,4.2L300,339.14a16.65,16.65,0,0,1-3.85,1.57l-1.49,5.17h-6l-1.49-5.17a16.65,16.65,0,0,1-3.85-1.57l-4.76,2.62-4.25-4.2,2.65-4.7a16.33,16.33,0,0,1-1.59-3.8l-5.23-1.46v-6l5.23-1.47a16.33,16.33,0,0,1,1.59-3.8l-2.65-4.7,4.25-4.19,4.76,2.61a16.65,16.65,0,0,1,3.85-1.57l1.49-5.16Zm-14.26,21.25a11.25,11.25,0,1,0,11.25-11.11A11.2,11.2,0,0,0,280.37,324.62Z"/><g class="cls-10"><polyline class="cls-11" points="400.52 26.66 390.51 36.67 365.38 11.54"/><polyline class="cls-11" points="430.03 26.66 420.02 36.67 394.88 11.54"/></g><g class="cls-10"><polyline class="cls-11" points="128.98 451.92 118.97 461.93 93.84 436.8"/><polyline class="cls-11" points="158.49 451.92 148.48 461.93 123.34 436.8"/></g><rect class="cls-12" x="331.37" y="70.96" width="129" height="93.61" rx="11.54" transform="translate(791.74 235.53) rotate(180)"/><polygon class="cls-12" points="383.74 161.48 395.87 189.28 408 161.48 383.74 161.48"/><path class="cls-13" d="M396.18,152.76l1.69-1.12c1.42-.95,34.82-23.35,34.68-43.34-.1-14.23-10.25-21.6-20.24-21.53A21.51,21.51,0,0,0,395.78,95a21.48,21.48,0,0,0-16.65-8c-10,.07-20,7.58-19.94,21.8.14,20,33.84,41.94,35.28,42.86Z"/><path class="cls-14" d="M307.1,8l3.83,13.35a43.94,43.94,0,0,1,10,4.06l12.3-6.75,11,10.85-6.84,12.14a42.83,42.83,0,0,1,4.11,9.83L355,55.28V70.65l-13.52,3.79a42.83,42.83,0,0,1-4.11,9.83l6.84,12.14-11,10.85-12.3-6.75a43.94,43.94,0,0,1-10,4.06l-3.83,13.34H291.52l-3.83-13.34a44.21,44.21,0,0,1-10-4.06l-12.29,6.75-11-10.85,6.84-12.14a42.39,42.39,0,0,1-4.11-9.83l-13.52-3.79V55.28l13.52-3.79a42.39,42.39,0,0,1,4.11-9.83l-6.84-12.14,11-10.85,12.29,6.75a44.21,44.21,0,0,1,10-4.06L291.52,8Zm-7.79,26.24A28.72,28.72,0,1,0,328.4,63,29,29,0,0,0,299.31,34.25Z"/><ellipse class="cls-15" cx="299.31" cy="62.96" rx="36.62" ry="36.15"/><path class="cls-16" d="M45,393.42,47.14,401a25.67,25.67,0,0,1,5.65,2.3l7-3.82L66,405.59l-3.87,6.88A24.13,24.13,0,0,1,64.43,418l7.65,2.15v8.7L64.43,431a24.39,24.39,0,0,1-2.33,5.57L66,443.47l-6.22,6.14-7-3.82a25.19,25.19,0,0,1-5.65,2.3L45,455.64H36.15L34,448.09a25.11,25.11,0,0,1-5.64-2.3l-7,3.82-6.22-6.14L19,436.6A24.39,24.39,0,0,1,16.7,431l-7.65-2.15v-8.7L16.7,418A24.13,24.13,0,0,1,19,412.47l-3.87-6.88,6.22-6.14,7,3.82A25.59,25.59,0,0,1,34,401l2.17-7.55Zm-4.41,14.85A16.26,16.26,0,1,0,57,424.53,16.4,16.4,0,0,0,40.56,408.27Z"/><path class="cls-17" d="M40.56,403.26A21.45,21.45,0,0,0,19,424.53c1.23,28.22,41.87,28.21,43.09,0a21.46,21.46,0,0,0-21.55-21.27Z"/><path class="cls-8" d="M13.33,266.15A7.68,7.68,0,0,1,21,258.47H146.66a7.68,7.68,0,0,1,7.68,7.68v4.43h-141Z"/><path class="cls-12" d="M154.34,270.58v95.93a7.68,7.68,0,0,1-7.68,7.69H21a7.69,7.69,0,0,1-7.69-7.69V270.58Z"/><path class="cls-14" d="M44.27,264.53a2.87,2.87,0,1,0,2.87-2.87A2.87,2.87,0,0,0,44.27,264.53Z"/><path class="cls-18" d="M32.84,264.53a2.87,2.87,0,1,0,2.87-2.87A2.87,2.87,0,0,0,32.84,264.53Z"/><path class="cls-19" d="M21.41,264.53a2.87,2.87,0,1,0,2.87-2.87A2.87,2.87,0,0,0,21.41,264.53Z"/><path class="cls-20" d="M63,312.81H85.31a2.58,2.58,0,0,0,1.31-4.8c-9.71-5.73-14.76-12.43-15.42-20.46a5.54,5.54,0,0,0-5.53-5A10.88,10.88,0,0,0,55,293.46h0v.87c0,7,2.08,11.51,5.92,17.32A2.56,2.56,0,0,0,63,312.81Z"/><path class="cls-20" d="M35.71,315.73a8.08,8.08,0,0,1,8.07-8.07H85.31a2.62,2.62,0,0,1,1.31.35c2.91,1.73,5.85,3.15,8.22,4.29l2.31,1.12a2.59,2.59,0,0,1,1.43,2.31v33a2.57,2.57,0,0,1-1.43,2.3c-10.41,5.21-19.06,5.84-29.16,5.84l-4.8,0c-1.82,0-3.7,0-5.67,0H49.38a8.09,8.09,0,0,1-8.08-8.07,7.93,7.93,0,0,1,1.13-4.1,8.08,8.08,0,0,1-2.75-11,8.07,8.07,0,0,1-1.76-12.33A8,8,0,0,1,35.71,315.73Z"/><path id="SVGCleanerId_0" data-name="SVGCleanerId 0" class="cls-21" d="M104.45,343.25v13.57h5.15V343.25a2.58,2.58,0,1,0-5.15,0Z"/><path id="SVGCleanerId_0-2" data-name="SVGCleanerId 0" class="cls-21" d="M104.45,343.25v13.57h5.15V343.25a2.58,2.58,0,1,0-5.15,0Z"/><path class="cls-8" d="M96,307.66h22a2.58,2.58,0,0,1,2.58,2.57v44a2.64,2.64,0,0,1-2.58,2.61H101.53a8.17,8.17,0,0,1-7.22-4.51,7.92,7.92,0,0,1-.85-3.6V310.23A2.57,2.57,0,0,1,96,307.66Z"/><path class="cls-22" d="M104.45,343.07v13.75h5.15V343.07a2.58,2.58,0,0,0-5.15,0Z"/><path class="cls-8" d="M147.58,370.5l22.78,12.72a10.17,10.17,0,0,0,13.25-3l77.76-109.88L212.25,242.9,153.67,347.78a10.18,10.18,0,0,1-5,4.45h0A10.16,10.16,0,0,0,147.58,370.5Z"/><path class="cls-22" d="M151.09,372.46l22.77,12.72a10.18,10.18,0,0,0,13.26-3l77.76-109.88-49.12-27.44L157.18,349.74a10.11,10.11,0,0,1-5,4.44h0A10.17,10.17,0,0,0,151.09,372.46Z"/><ellipse class="cls-14" cx="311.12" cy="239.2" rx="58.89" ry="21.52" transform="translate(-49.42 394.18) rotate(-60.82)"/><path class="cls-12" d="M177.76,37.75A328.42,328.42,0,0,0,297.61,164c4.47,11.12-1.09,35-14.72,59.44S251.8,265.11,240,267.13A328.43,328.43,0,0,0,69.66,231.29l-3.64.22,110-197Z"/><path class="cls-14" d="M282.89,223.42C296.52,199,302.08,175.1,297.61,164q4.74,2.86,9.58,5.57l32.65,18.24L282.41,290.61l-32.65-18.24q-4.84-2.7-9.77-5.24C251.8,265.11,269.25,247.83,282.89,223.42Z"/><g class="cls-2"><path class="cls-14" d="M209.53,275.82l18.37,10.26a2.6,2.6,0,0,0,3.54-1h0a2.6,2.6,0,0,0-1-3.54l-18.37-10.26a2.6,2.6,0,0,0-3.54,1h0A2.61,2.61,0,0,0,209.53,275.82Z"/><path class="cls-14" d="M204.51,284.81l18.37,10.26a2.6,2.6,0,0,0,3.54-1h0a2.6,2.6,0,0,0-1-3.54L207,280.27a2.59,2.59,0,0,0-3.53,1h0A2.61,2.61,0,0,0,204.51,284.81Z"/><path class="cls-14" d="M199.49,293.8l18.37,10.26a2.61,2.61,0,0,0,3.54-1h0a2.61,2.61,0,0,0-1-3.54L202,289.26a2.59,2.59,0,0,0-3.53,1h0A2.6,2.6,0,0,0,199.49,293.8Z"/><path class="cls-14" d="M194.47,302.79l18.37,10.26a2.59,2.59,0,0,0,3.53-1h0a2.6,2.6,0,0,0-1-3.54L197,298.25a2.59,2.59,0,0,0-3.53,1h0A2.59,2.59,0,0,0,194.47,302.79Z"/><path class="cls-14" d="M189.45,311.78,207.82,322a2.59,2.59,0,0,0,3.53-1h0a2.61,2.61,0,0,0-1-3.54L192,307.24a2.61,2.61,0,0,0-3.54,1h0A2.6,2.6,0,0,0,189.45,311.78Z"/><path class="cls-14" d="M184.42,320.77,202.8,331a2.59,2.59,0,0,0,3.53-1h0a2.59,2.59,0,0,0-1-3.53L187,316.23a2.61,2.61,0,0,0-3.54,1h0A2.6,2.6,0,0,0,184.42,320.77Z"/><path class="cls-14" d="M179.4,329.76,197.77,340a2.6,2.6,0,0,0,3.54-1h0a2.59,2.59,0,0,0-1-3.53l-18.37-10.27a2.6,2.6,0,0,0-3.54,1h0A2.59,2.59,0,0,0,179.4,329.76Z"/><path class="cls-14" d="M174.38,338.75,192.75,349a2.6,2.6,0,0,0,3.54-1h0a2.59,2.59,0,0,0-1-3.53l-18.38-10.26a2.59,2.59,0,0,0-3.53,1h0A2.59,2.59,0,0,0,174.38,338.75Z"/><path class="cls-14" d="M169.36,347.74,187.73,358a2.6,2.6,0,0,0,3.54-1h0a2.59,2.59,0,0,0-1-3.53l-18.37-10.26a2.59,2.59,0,0,0-3.53,1h0A2.59,2.59,0,0,0,169.36,347.74Z"/></g><g class="cls-23"><path class="cls-14" d="M174.52,200.28c50.86,14.57,98.34,39.48,141.57,70.06-12.8,15.92-26.13,24.49-33.68,20.27L260.55,278.4,187.12,382.17a10.18,10.18,0,0,1-13.26,3l-22.77-12.72h0l-3.51-2a10.16,10.16,0,0,1,1.09-18.27,10.18,10.18,0,0,0,5-4.45L207,252.38a328.34,328.34,0,0,0-137.3-21.09l-3.64.22.06-.1c-5.8,1.21-11,.71-15.33-1.71C40.64,224.06,37,209,39.12,188.73,84.25,183.05,130.7,187.71,174.52,200.28Z"/></g><ellipse class="cls-14" cx="108.64" cy="126.05" rx="118.72" ry="45.28" transform="translate(-54.38 159.43) rotate(-60.82)"/><ellipse class="cls-22" cx="108.64" cy="126.05" rx="109.91" ry="40.48" transform="translate(-54.38 159.43) rotate(-60.82)"/><path class="cls-8" d="M67.35,77.18l18.42,8.76c-4.29,6.4-8.48,13.21-12.47,20.37-1,1.82-2,3.63-3,5.45L54,101.15A13.76,13.76,0,0,1,49.43,82.9h0A13.76,13.76,0,0,1,67.35,77.18Z"/><path class="cls-8" d="M85.77,85.94l71.12,33.81c-3.7,8.53-8,17.26-12.91,26q-2.83,5.09-5.8,9.93l-67.85-44c1-1.82,2-3.63,3-5.45C77.29,99.15,81.48,92.34,85.77,85.94Z"/><polygon class="cls-22" points="359.67 373.23 289.91 395.94 245.92 338.76 230.6 350.61 281.29 433.05 365.76 414.28 359.67 373.23"/><path class="cls-20" d="M409.78,332.52c-.06,8.81-.39,17.36-.9,26.16-4.87,6.81-11.54,12.63-19.57,15-5.65,1.68-11.68,1.59-17.54.9-5.18-.61-10.13-2-14.37-5,2.41-3.76,4.86-7.63,5.69-12,.55-2.85,1-32,1-32s-13.28-3.68-18.28-6.6a9.15,9.15,0,0,1-3.88-3.47,8.79,8.79,0,0,1-.4-5,65.75,65.75,0,0,1,1.86-9.22,27.67,27.67,0,0,0,15.21-6.44,66.75,66.75,0,0,1-12.36-1.54,34.88,34.88,0,0,0,1.82-4.68c-3.07-3.52-6.2-7.14-9-10.87,5.76-2.94,11.59-6.4,17-9.87a72.1,72.1,0,0,1,9.07-16.19c1.56-2.08,4.41-3.13,6.94-3.73a26.81,26.81,0,0,1,16.13,1.46,37.58,37.58,0,0,1,13.31,9.46,47.18,47.18,0,0,1,12.11,26c.85,6.79.2,13.68-.64,20.47C411.9,314.47,409.85,323.3,409.78,332.52Z"/><path class="cls-22" d="M365.18,252.41s18.06,9.83,28.41,9.68a92.84,92.84,0,0,1-3.83,10.16c-2.64,6.28-4.89,12.34-7.54,18.63a44.48,44.48,0,0,0,7.25,2.7c1.85-4.27,3.83-8.76,5.68-13,3.88-.94,8.1,1.66,9.57,5.37s.47,8.1-2,11.27a11.45,11.45,0,0,1-5.27,3.95c-2.31.79-5,.51-7.43.36a46.42,46.42,0,0,0,5.24,39,27.05,27.05,0,0,1,1.1-11.07,38.23,38.23,0,0,0,12.7,18.16c.38-7.43,3.74-14.43,8-20.53s9.48-11.46,14.19-17.23,9-12.08,11-19.25,1.89-16-2.51-22c3.54-3.59,3.84-9.55,1.63-14.08s-6.47-7.75-11-9.87-9.52-3.27-14.33-4.75a108.32,108.32,0,0,1-20.24-8.59c-5.42-3-10.84-6.53-17-7.11-4.57-.42-9.15.85-13.42,2.53-5.91,2.32-11.94,6-14.06,11.93-1.72,4.87,0,10.05,2.5,14.57a18.16,18.16,0,0,1,2.27-10.09c-.67,5.46.44,11.72,4.52,15.39A44.28,44.28,0,0,1,365.18,252.41Z"/><path class="cls-14" d="M335.85,481s1.4-53.91,6.44-76a117.34,117.34,0,0,1,17.25-38.81L375,369.73,359.7,481Z"/><path class="cls-22" d="M443.54,481l-34.43-133.4s-28.19,4.74-39.67,19a101.32,101.32,0,0,0-16.31,29.93l-55.35,24.66-66.44-51.82-15.45,21.68,75.73,60.09,59-12.88L345.37,481Z"/><path class="cls-12" d="M240,376.12c18.93,14.39,39.38,30.15,58.08,44.7l-.47-.06,24.82-10.55c22.11-9.37,52.45-22,74.67-31.15-22,9.65-52.17,22.65-74.3,32L298,421.62l-.25.1-.22-.17C278.84,407,258.54,390.93,240,376.12Z"/><path class="cls-12" d="M350.63,438.26c13.27-3.91,26.81-7.19,40.4-9.78-13.27,3.91-26.81,7.19-40.4,9.78Z"/><polygon class="cls-22" points="364.11 325.55 375.02 328.49 364.01 330.77 364.11 325.55"/><path class="cls-22" d="M362.08,274.56a3,3,0,1,0,3-3A3,3,0,0,0,362.08,274.56Z"/><path class="cls-22" d="M376.14,275.1c-1.16-4.26-3.75-8.35-7.85-10.15-2.57-1.26-4-2.58-6.59-4.67l0-.5a8.14,8.14,0,0,1,9.41,1.13,18.49,18.49,0,0,1,5.08,8.13,14.77,14.77,0,0,1,.41,6l-.5,0Z"/><path class="cls-24" d="M391.94,298.55c1.6-.4,3.32-.89,4.35-2.18a2.17,2.17,0,0,0,.54-1.6,2.43,2.43,0,0,0-2.08-1.69,5.81,5.81,0,0,0-2.49.06,22.71,22.71,0,0,1,2.64-5.59,6.55,6.55,0,0,1,2.73-2.62,3.81,3.81,0,0,1,5.24,2.91s1.11,3.9-3,8.36S391.94,298.55,391.94,298.55Z"/><path class="cls-22" d="M402.87,287.84a3.69,3.69,0,0,0-6.25-1.74,20.38,20.38,0,0,0-3.9,7.18l-.58-.61c2.81-.84,7,1.26,4.05,4.23a8,8,0,0,1-4.25,1.65,13.59,13.59,0,0,0,2.74-1.16c1.63-.92,2.85-3,.41-3.76a6.33,6.33,0,0,0-3.55.18,23,23,0,0,1,1.93-4.8c1-1.82,2.32-4.08,4.59-4.59a3.93,3.93,0,0,1,4.81,3.42Z"/><path class="cls-25" d="M360.15,287.55c-.41,1.76,1.78,3.78,4.88,4.5s6-.12,6.37-1.88-1.78-3.79-4.88-4.51S360.56,285.78,360.15,287.55Z"/><g class="cls-26"><path class="cls-12" d="M355.79,243.42c1.65-5.42,8.21-10.33,13.64-11.51,6.47-1.32,11.68,3.67,16.89,6.61a64.65,64.65,0,0,0,22.61,8.6A105.15,105.15,0,0,1,421,249.46c7.75,2,16,8.61,14.18,17.44,1.33-8.67-6.74-14.94-14.39-16.7-3.91-1-8-1.52-12-2.18a62.07,62.07,0,0,1-22.92-8.72c-5.1-2.86-10-7.87-16.31-6.77-5.36,1.08-11.84,5.64-13.75,10.89Z"/><path class="cls-12" d="M362.68,255.49c-5.56-5.74-.59-18.09,7.78-17,3.94.73,6.94,3.53,9.9,6s5.69,5.13,9,6.95c6.74,3.93,14.79,2.29,22.26,2.61,9.19.28,14.11,3.61,18.76,11.4-2.24-3.06-4.54-6.27-7.87-8.12-8.66-4.79-18.87-.89-28.16-2.95-5.83-1.13-10.33-5.44-14.56-9.21-3.89-3.3-9.44-8.45-14.57-4.65-4.53,3.26-6.28,10.53-2.51,15Z"/><path class="cls-12" d="M390.89,262.08a111.92,111.92,0,0,1,32.86,3.22c-10.63-1.3-22.18-2.44-32.86-3.22Z"/><path class="cls-12" d="M417.42,269c-10.83,9-8.51,27.61-2,38.59a40.45,40.45,0,0,0,9,10.63A35.49,35.49,0,0,1,414.75,308c-7-10.82-9.17-30.74,2.67-39Z"/><path class="cls-12" d="M426.47,271.82A28.85,28.85,0,0,0,432,302.2a29.9,29.9,0,0,0,3.43,3.22,24.36,24.36,0,0,1-3.77-2.87c-8.34-7.59-10.66-20.85-5.15-30.73Z"/><path class="cls-12" d="M440.75,294.64a19.31,19.31,0,0,1-7.83-18.36l.28-1.58.45-1.54c.19-.5.38-1,.59-1.48-.2.89-.45,2.19-.56,3.1a24.09,24.09,0,0,0,7.07,19.86Z"/></g><path class="cls-20" d="M231.34,369.37l-21.4-21.72-13.29,19.67a50.47,50.47,0,0,0,13.61,9.11,65.42,65.42,0,0,0,13,4.29Z"/><path class="cls-20" d="M209.85,347.88c-6.3-4.95-13.13-9.79-21-11.07a3.38,3.38,0,0,0-1.76.06,1.26,1.26,0,0,0-.84,1.4,1.29,1.29,0,0,0,.4.58,9.32,9.32,0,0,0,2,1.35,127.87,127.87,0,0,1,19.07,12.22c-7.9-3.63-15.7-7.26-24.36-8.05a7.56,7.56,0,0,0-4,.4c-.31.15-.64.37-.7.71s.36.87.76,1.13c3.6,2.32,7.86,3.33,11.92,4.69a68.32,68.32,0,0,1,13.56,6.26c-9.34-3.1-18.23-5.95-28-6.76l-.47,0a1.63,1.63,0,0,0-1.15,2.86,10,10,0,0,0,2.81,1.66,34.21,34.21,0,0,0,5,1.51c1.12.25,2.24.44,3.34.76a27.91,27.91,0,0,1,3.39,1.31l11.44,5a77.61,77.61,0,0,0-23.36-4.66c-.53,0-.83.58-.88,1.1a1.59,1.59,0,0,0,.65,1.36,4.24,4.24,0,0,0,1.36.64,26.14,26.14,0,0,0,7.38,1.26c2.86,0,5.55,1.9,8.07,3.25a8,8,0,0,0,4,1.4,5.69,5.69,0,0,0,3.38-.41,15.13,15.13,0,0,0,8-18.21"/><polygon class="cls-20" points="245.92 338.76 229.6 322.14 215.88 341.47 230.6 350.61 245.92 338.76"/><path class="cls-20" d="M245.92,338.77s-5.11-12-9.24-15.14-14.34-6.24-16-5.53-.15,5.5,3.28,7.52,6.89,4.46,6.89,4.46Z"/><path class="cls-22" d="M226.19,327a43.51,43.51,0,0,1,6.39,2.52V333a17.8,17.8,0,0,0,.23,3.17,4.65,4.65,0,0,1-.69-1.5,16.23,16.23,0,0,1-.53-4.86l.28.46a43,43,0,0,1-5.69-3.28Z"/><polygon class="cls-12" points="110.27 2.66 154.38 74.04 105.28 6 110.27 2.66 110.27 2.66"/><polygon class="cls-12" points="33.86 0 150.68 98.62 30.08 4.66 33.86 0 33.86 0"/><polygon class="cls-12" points="23.54 165.25 107.93 182.08 22.57 171.18 23.54 165.25 23.54 165.25"/><polygon class="cls-12" points="4.74 109.99 125.64 164.77 2.38 115.5 4.74 109.99 4.74 109.99"/></g></g></svg>