<svg xmlns="http://www.w3.org/2000/svg" viewBox="0 0 630.18 406.91"><defs><style>.cls-1{fill:#f0f0f0;}.cls-2{fill:#e6e6e6;}.cls-3{fill:#fff;}.cls-4{fill:#e0e0e0;}.cls-5{fill:#ebebeb;}.cls-6{fill:#fafafa;}.cls-7{fill:#f5f5f5;}.cls-8{fill:#263238;}.cls-9{fill:#455a64;}.cls-10{fill:#2f57a4;}.cls-11{fill:#e5baab;}.cls-12{fill:#d78776;}.cls-13{fill:#b78876;}.cls-14{fill:#a36957;}.cls-15{opacity:0.2;}</style></defs><g id="Background_Complete" data-name="Background Complete"><rect class="cls-1" x="58.61" y="61.5" width="338.21" height="226.52" transform="translate(455.43 349.51) rotate(180)"/><rect class="cls-2" x="58.61" y="61.5" width="338.21" height="22.63" transform="translate(455.43 145.62) rotate(180)"/><path class="cls-3" d="M382.17,72.81a2.74,2.74,0,1,0,2.73-2.54A2.64,2.64,0,0,0,382.17,72.81Z"/><path class="cls-3" d="M373.35,72.81a2.74,2.74,0,1,0,2.73-2.54A2.64,2.64,0,0,0,373.35,72.81Z"/><path class="cls-3" d="M364.53,72.81a2.74,2.74,0,1,0,2.73-2.54A2.64,2.64,0,0,0,364.53,72.81Z"/><path class="cls-4" d="M22,76a10.44,10.44,0,0,1-6.21-9.65c0-5.76,4.34-10.45,9.74-10.47s9.8,4.62,9.82,10.38A10.41,10.41,0,0,1,29.14,76c15,2.26,14.36,18.62,14.36,18.62L7.92,94.8S7.11,78.27,22,76Z"/><rect class="cls-5" x="417.63" y="36.45" width="174.63" height="70.63" rx="6.01"/><circle class="cls-6" cx="548.71" cy="71.77" r="27.68"/><path class="cls-7" d="M535.7,63.28a9.63,9.63,0,0,0,5.07-2.3A6.7,6.7,0,0,0,552.6,62.3a25.76,25.76,0,0,0,1.94,7.15,11,11,0,0,0,3.51,4.29c0,2.55.05,6.6.07,6.72a2.8,2.8,0,0,0,1,.21l-.45,5.61a3.41,3.41,0,0,0,.81-.5L559.4,97.3a27.59,27.59,0,0,1-17.11,1.39c-.13-1.85-.27-4.55-.35-6.29h0c7,.2,8.89-5,8.89-5a16.32,16.32,0,0,1-9,3.16v.1c-.14,0-7.08-.73-7.59-7.67-.38-5.06-.37-14.89-.33-20A2.67,2.67,0,0,0,535.7,63.28Zm9.76,8.57a1,1,0,1,0,1.67-1.17,1,1,0,0,0-1.67,1.17Zm-.39-1.37c.12.11.77-.46,1.74-.53s1.7.4,1.8.26-.08-.27-.4-.48a2.38,2.38,0,0,0-1.44-.36,2.29,2.29,0,0,0-1.38.57C545.1,70.2,545,70.42,545.07,70.48ZM543.45,82.1c2.06-.9,1.44-2.54,1.44-2.54,1-.66-2.68,1.65-4.65,1.67A2.66,2.66,0,0,0,543.45,82.1Zm-4.25-3.66a.65.65,0,0,0,.46.37,1.33,1.33,0,0,0,.43,0,4.88,4.88,0,0,0,1.6-.15,4.73,4.73,0,0,0-1.59-.24c-.25,0-.45,0-.48-.19a1.32,1.32,0,0,1,.14-.73c.2-.66.42-1.32.64-2a26.57,26.57,0,0,0,1.33-5.27,28.3,28.3,0,0,0-1.86,5.1c-.21.7-.4,1.37-.6,2A1.63,1.63,0,0,0,539.2,78.44Zm-4.33-6.65a1,1,0,0,0,1.45,0,1,1,0,1,0-1.45,0Zm-.35-1.52c.12.12.77-.46,1.74-.52s1.7.39,1.8.26-.08-.27-.4-.48a2.25,2.25,0,0,0-1.44-.36,2.35,2.35,0,0,0-1.38.56C534.55,70,534.46,70.22,534.52,70.27Z"/><path class="cls-4" d="M536.3,70.33a1,1,0,0,1,0,1.44,1,1,0,1,1-1.46-1.43A1,1,0,0,1,536.3,70.33Z"/><path class="cls-4" d="M537.66,69.53c.32.21.45.42.4.48s-.84-.34-1.8-.26-1.62.64-1.74.52,0-.28.32-.54a2.35,2.35,0,0,1,1.38-.56A2.25,2.25,0,0,1,537.66,69.53Z"/><path class="cls-4" d="M547.13,70.68a1,1,0,1,1-1.67,1.17,1,1,0,0,1,1.67-1.17Z"/><path class="cls-4" d="M546.77,69.37a2.38,2.38,0,0,1,1.44.36c.32.21.45.43.4.48s-.83-.34-1.8-.26-1.62.64-1.74.53,0-.28.32-.54A2.29,2.29,0,0,1,546.77,69.37Z"/><path class="cls-4" d="M539.87,75.35a28.3,28.3,0,0,1,1.86-5.1,26.57,26.57,0,0,1-1.33,5.27c-.22.69-.44,1.35-.64,2a1.32,1.32,0,0,0-.14.73c0,.14.23.18.48.19a4.73,4.73,0,0,1,1.59.24,4.88,4.88,0,0,1-1.6.15,1.33,1.33,0,0,1-.43,0,.65.65,0,0,1-.46-.37,1.63,1.63,0,0,1,.07-1.06C539.47,76.72,539.66,76.05,539.87,75.35Z"/><path class="cls-3" d="M544.89,79.56s.62,1.64-1.44,2.54a2.66,2.66,0,0,1-3.21-.87C542.21,81.21,545.86,78.9,544.89,79.56Z"/><path class="cls-4" d="M550.83,87.42s-1.85,5.18-8.89,5h0l-.09-1.72v-.1A16.32,16.32,0,0,0,550.83,87.42Z"/><path class="cls-4" d="M536.77,55.51c.39,0,1-2.37,3.7-3a5.48,5.48,0,0,1,4.6,1.23c1.22-.3,3.55-2,6.7-1.3,2.2.48,4.46,2.5,5.93,4.22a15,15,0,0,0,1.79,2.1A22,22,0,0,0,561.42,60a7.08,7.08,0,0,1,3,5.69A12.55,12.55,0,0,1,562.64,72l-.31.56a4.19,4.19,0,0,0-4.29-.83s0,.85,0,2a11,11,0,0,1-3.51-4.29,25.76,25.76,0,0,1-1.94-7.15A6.7,6.7,0,0,1,540.77,61a9.63,9.63,0,0,1-5.07,2.3,2.67,2.67,0,0,1-1.77-.25l-.15-.08c-.64-.51-.43-1.47-.62-2.27C532.63,58.53,532.88,55.79,536.77,55.51Z"/><path class="cls-4" d="M559.16,80.67c1.25.09,3.25-.11,4.14-1.81a3.29,3.29,0,0,1,.16.44,2.67,2.67,0,0,1-.32,2.43,1.54,1.54,0,0,1-2.23.22,3.94,3.94,0,0,1-1.39,3.83,3.41,3.41,0,0,1-.81.5Z"/><path class="cls-7" d="M559.16,80.67a2.8,2.8,0,0,1-1-.21c0-.12,0-4.17-.07-6.72,0-1.17,0-2,0-2a4.19,4.19,0,0,1,4.29.83A5.68,5.68,0,0,1,563.7,76a5,5,0,0,1-.4,2.9C562.41,80.56,560.41,80.76,559.16,80.67Zm2.4-6.55a1.48,1.48,0,0,0-1.19-.8.79.79,0,0,0-.55.22.72.72,0,0,0-.2.4c0,.25.11.35.12.34s0-.13,0-.31a.54.54,0,0,1,.58-.35,1.19,1.19,0,0,1,.87.7,3.39,3.39,0,0,1,.46,1.45,2.57,2.57,0,0,1-.92,2.44,1,1,0,0,1-.77.07c-.19-.06-.28-.14-.3-.12s0,.15.23.27a1.09,1.09,0,0,0,1,0,2.71,2.71,0,0,0,1.22-2.74A3.51,3.51,0,0,0,561.56,74.12Z"/><path class="cls-4" d="M560.89,78.48a1.09,1.09,0,0,1-1,0c-.2-.12-.25-.25-.23-.27s.11.06.3.12a1,1,0,0,0,.77-.07,2.57,2.57,0,0,0,.92-2.44,3.39,3.39,0,0,0-.46-1.45,1.19,1.19,0,0,0-.87-.7.54.54,0,0,0-.58.35c-.06.18,0,.29,0,.31s-.13-.09-.12-.34a.72.72,0,0,1,.2-.4.79.79,0,0,1,.55-.22,1.48,1.48,0,0,1,1.19.8,3.51,3.51,0,0,1,.55,1.62A2.71,2.71,0,0,1,560.89,78.48Z"/><rect class="cls-4" x="435.18" y="61.26" width="74.3" height="4.85" transform="translate(944.66 127.38) rotate(180)"/><rect class="cls-4" x="435.18" y="73.87" width="74.3" height="4.85" transform="translate(944.66 152.58) rotate(180)"/><path class="cls-4" d="M555.51,148.24c2.18-2.61,6.15-2.51,8.68-.42s3.63,4.48,3.95,8a10.82,10.82,0,0,1,5.19-7.41c2.8-1.75,6.78-1.33,8.62,1.55a8.3,8.3,0,0,1,.88,6,11.45,11.45,0,0,1-2.49,5.61c-4.86,5.17-7.38,6-13.41,9.49-5.47-4.26-7.25-5.36-11.35-11.12a11.41,11.41,0,0,1-1.73-5.88A8.37,8.37,0,0,1,555.51,148.24Z"/></g><g id="Device"><path class="cls-8" d="M120.18,79H460.61a10.62,10.62,0,0,1,10.63,10.62V330.08a10.63,10.63,0,0,1-10.63,10.63H330s-8.31,25.7,17.45,39H225.24s29.09-10,21.61-39H120.18a10.63,10.63,0,0,1-10.62-10.62V89.63A10.62,10.62,0,0,1,120.18,79Z"/><path class="cls-9" d="M285.85,315.42c-4.63,6.62,2.62,13.87,9.24,9.24a2.21,2.21,0,0,0,.57-.57c4.62-6.62-2.62-13.86-9.24-9.24A2.57,2.57,0,0,0,285.85,315.42Z"/><rect class="cls-2" x="117.95" y="93.42" width="345.61" height="205" rx="3.27" transform="translate(581.51 391.84) rotate(180)"/><rect class="cls-3" x="118.24" y="108.54" width="345.61" height="189.98" transform="translate(582.09 407.06) rotate(180)"/><path class="cls-9" d="M435.21,101.34A2.76,2.76,0,1,0,438,98.58,2.77,2.77,0,0,0,435.21,101.34Z"/><path class="cls-9" d="M451.94,101.34a2.76,2.76,0,1,0,2.76-2.76A2.77,2.77,0,0,0,451.94,101.34Z"/><path class="cls-9" d="M443.91,101.34a2.76,2.76,0,1,0,2.76-2.76A2.77,2.77,0,0,0,443.91,101.34Z"/><rect class="cls-4" x="304.36" y="177.5" width="26.89" height="3.41" transform="translate(635.6 358.41) rotate(180)"/><rect class="cls-7" x="204.27" y="188.48" width="126.98" height="57.17" transform="translate(535.51 434.13) rotate(180)"/><polygon class="cls-4" points="326.66 240.75 290.75 204.58 259.61 232.08 242.77 217.04 210.36 240.75 326.66 240.75"/><path class="cls-4" d="M257.78,209.87a4.26,4.26,0,1,0,4.26-4.25A4.25,4.25,0,0,0,257.78,209.87Z"/><path class="cls-4" d="M210.67,240.91a.72.72,0,0,0,0-.23c0-.17,0-.39,0-.67,0-.6,0-1.46.06-2.57,0-2.27.09-5.55.15-9.71.07-8.35.17-20.24.29-34.52l-.56.24,115.53,0-.64-.27h0v6.46q0,3.21,0,6.37,0,6.3,0,12.31c0,8,0,15.58.06,22.54l.57-.24-83.54.12-23.56.07-6.25,0h-2.19a4.33,4.33,0,0,0,.5,0h1.56l6.14,0,23.44.07,83.9.12h.57v-.25c0-7,0-14.53.06-22.54q0-6,0-12.31V193.23h0l-.66-.29-115.53,0h-.56v.24c.12,14.34.21,26.29.28,34.68.07,4.14.12,7.4.15,9.65,0,1.09.05,1.93.06,2.53,0,.26,0,.47,0,.64S210.66,240.92,210.67,240.91Z"/><path class="cls-10" d="M318.76,263a5.05,5.05,0,1,0,5.05-5.05A5,5,0,0,0,318.76,263Z"/><path class="cls-10" d="M235.84,260.29c0,.15,17.66.26,39.44.26s39.44-.11,39.44-.26-17.65-.26-39.44-.26S235.84,260.15,235.84,260.29Z"/><path class="cls-10" d="M235.84,263.88c0,.14,17.66.26,39.44.26s39.44-.12,39.44-.26-17.65-.26-39.44-.26S235.84,263.74,235.84,263.88Z"/><path class="cls-10" d="M272.56,268.05a11,11,0,0,0,1.66.1l4.52.08c3.81,0,9.08.08,14.9.08s11.1,0,14.91-.08l4.52-.08a11,11,0,0,0,1.65-.1,9.48,9.48,0,0,0-1.65-.1l-4.52-.09c-3.81,0-9.09-.07-14.91-.07s-11.09,0-14.9.07l-4.52.09A9.55,9.55,0,0,0,272.56,268.05Z"/><circle class="cls-10" cx="323.81" cy="282.11" r="5.05"/><path class="cls-10" d="M235.84,279.41c0,.14,17.66.26,39.44.26s39.44-.12,39.44-.26-17.65-.26-39.44-.26S235.84,279.26,235.84,279.41Z"/><path class="cls-10" d="M235.84,283c0,.15,17.66.26,39.44.26s39.44-.11,39.44-.26-17.65-.26-39.44-.26S235.84,282.85,235.84,283Z"/><path class="cls-10" d="M272.56,287.16a9.55,9.55,0,0,0,1.66.1l4.52.09c3.81,0,9.08.07,14.9.07s11.1,0,14.91-.07l4.52-.09a9.48,9.48,0,0,0,1.65-.1,11,11,0,0,0-1.65-.1l-4.52-.08c-3.81-.05-9.09-.08-14.91-.08s-11.09,0-14.9.08l-4.52.08A11,11,0,0,0,272.56,287.16Z"/><rect class="cls-9" x="117.95" y="108.25" width="345.61" height="56.76" transform="translate(581.51 273.26) rotate(180)"/><rect class="cls-6" x="230.02" y="127.85" width="80.4" height="5.9" transform="translate(540.44 261.61) rotate(180)"/><path class="cls-6" d="M193.89,144.36l.4,0,1.2,0,4.58.05,16.86.08,55.63.08,55.63-.08,16.86-.08,4.58-.05,1.2,0,.4,0-.4,0-1.2,0-4.58-.05-16.86-.08-55.63-.08-55.63.08-16.86.08-4.58.05-1.2,0Z"/><path class="cls-6" d="M227.71,150.54a5.89,5.89,0,0,0,.87.05l2.47,0,9.11.08,30.06.08,30.06-.08,9.11-.08,2.47,0a5.89,5.89,0,0,0,.87-.05,4.52,4.52,0,0,0-.87,0l-2.47-.05-9.11-.09-30.06-.07-30.06.07-9.11.09-2.47.05A4.52,4.52,0,0,0,227.71,150.54Z"/><path class="cls-6" d="M380.55,165a29,29,0,1,0,29-29A29,29,0,0,0,380.55,165Z"/><path class="cls-8" d="M374.81,228.19c0,.15,14.89.28,33.24.28s33.24-.13,33.24-.28-14.88-.29-33.24-.29S374.81,228,374.81,228.19Z"/><path class="cls-8" d="M374.81,235.54c0,.15,14.89.28,33.24.28s33.24-.13,33.24-.28-14.88-.28-33.24-.28S374.81,235.38,374.81,235.54Z"/><path class="cls-8" d="M374.81,242.89c0,.16,14.89.28,33.24.28s33.24-.12,33.24-.28-14.88-.28-33.24-.28S374.81,242.74,374.81,242.89Z"/><path class="cls-8" d="M403.1,250.4c0,.16,8.63.28,19.27.28s19.27-.12,19.27-.28-8.62-.28-19.27-.28S403.1,250.25,403.1,250.4Z"/><rect class="cls-8" x="395.49" y="213.18" width="45.8" height="3.35"/><path class="cls-10" d="M427.69,187.16a28.08,28.08,0,0,1-36.76,0c1.54-5.24,5.28-11.46,14.37-12.84a11.36,11.36,0,0,1-6.79-10.53c0-6.3,4.74-11.42,10.63-11.45s10.71,5.06,10.74,11.35a11.38,11.38,0,0,1-6.81,10.63C422.31,175.7,426.12,182,427.69,187.16Z"/><rect class="cls-8" x="415.61" y="261.88" width="25.68" height="3.13" transform="translate(856.9 526.88) rotate(180)"/></g><g id="Speech_Bubbles" data-name="Speech Bubbles"><path class="cls-8" d="M67.28,105.91a3.29,3.29,0,0,1-.64.08l-1.88.13a22.17,22.17,0,0,0-3,.41c-.59.12-1.24.16-1.91.36l-2.13.59a35.1,35.1,0,0,0-10.16,5,35.88,35.88,0,0,0-10,11.12,37.68,37.68,0,0,0-3.51,8A38.64,38.64,0,0,0,32.52,141a37.94,37.94,0,0,0,.09,5c0,.85.22,1.69.33,2.54a18.76,18.76,0,0,0,.48,2.55,36,36,0,0,0,3.86,10A35.59,35.59,0,0,0,54.06,176.3,32.62,32.62,0,0,0,65.89,179a32,32,0,0,0,12.35-1.78l1.21-.44.16-.06.14.07,17.37,8.82-.51.44c-1.86-5.76-3.66-11.34-5.38-16.69l-.07-.21.16-.15a37.36,37.36,0,0,0,9.12-15.17,38.22,38.22,0,0,0,1.32-16.14,37.14,37.14,0,0,0-12.41-23.29,38.28,38.28,0,0,0-8.53-5.43,37.72,37.72,0,0,0-7.21-2.27l-2.7-.46-2-.14L67.69,106a2.26,2.26,0,0,1-.41-.06h.41l1.23,0,2,.08,2.72.41A36.56,36.56,0,0,1,81,108.62,38,38,0,0,1,89.64,114a37.39,37.39,0,0,1,8,9.67,38,38,0,0,1,4.7,13.87A38.71,38.71,0,0,1,101.07,154a37.75,37.75,0,0,1-9.25,15.47l.08-.36c1.74,5.35,3.54,10.93,5.41,16.68l.27.85-.79-.4-17.38-8.81h.31l-1.24.46a32.75,32.75,0,0,1-12.62,1.81A33.39,33.39,0,0,1,53.77,177a37,37,0,0,1-21-25.77,19,19,0,0,1-.48-2.59c-.11-.87-.29-1.72-.33-2.58A37.56,37.56,0,0,1,31.9,141a39.07,39.07,0,0,1,1.59-9.47,38,38,0,0,1,3.6-8.1,36.16,36.16,0,0,1,10.21-11.2,35.1,35.1,0,0,1,10.31-5l2.16-.56c.68-.19,1.34-.22,1.93-.33a19.75,19.75,0,0,1,3-.34l1.89-.06Z"/><path class="cls-10" d="M75.13,138.07H72.59L67,130.33v-5.08s-3.93-.24-3.47,6.41,0,5,0,5-8.35,0-9.05.76c-.5.53-.73,8.83-.82,13.33a4.87,4.87,0,0,0,3.46,4.9,3.5,3.5,0,0,0,.9.13c2.08,0,12.73-1.7,12.73-1.7h4.39Z"/><polygon class="cls-10" points="82.42 136.68 80.85 154.09 76.49 154.09 76.49 137.03 82.42 136.68"/><path class="cls-10" d="M32.59,201.47H186.53a6,6,0,0,1,6,6v48.81a6,6,0,0,1-6,6H183V280L165.56,262.3h-133a6,6,0,0,1-6-6V207.48A6,6,0,0,1,32.59,201.47Z"/><path class="cls-6" d="M73.28,240.36c.09-2.77,0-6.88-.07-10.55v0a11.52,11.52,0,0,0-2.77-12.47c-5.76-5.94-9.62-4.62-11.84-4.58-2.06,0-12.48,2.49-15.38,14.75-.12.52-.22,1.48-.31,2.38h0c-.06.61-.11,1.18-.16,1.6h0a12.89,12.89,0,0,1-6.7,10.61,25.39,25.39,0,1,1,36.17,11.61A36.3,36.3,0,0,0,73.28,240.36Z"/><path class="cls-8" d="M73.26,241c0-.2,0-.4,0-.61a36.3,36.3,0,0,1-1.06,13.38,25,25,0,0,1-5.32,2.38c.08-3.54.37-8.57.37-8.57S73,246.83,73.26,241Z"/><path class="cls-11" d="M52,230.2s9.39-1.08,10.9-9.87l0,0c.58,1.33,1.6,4.18,1,6.5L72.26,229l.95.86c.09,3.67.16,7.78.07,10.55,0,.21,0,.41,0,.61-.25,5.86-6,6.58-6,6.58a14,14,0,0,1-7.6-2.49s1.79,4.27,7.5,3.93l.1-1.44s-.29,5-.37,8.57a25.18,25.18,0,0,1-7.61,1.16,25.85,25.85,0,0,1-6.45-.82Zm11.54,1.42a.74.74,0,0,0-.74-.74.75.75,0,0,0-.72.77.73.73,0,1,0,1.46,0Zm.17-1.26a1.84,1.84,0,0,0-1.13-.44,1.87,1.87,0,0,0-1.17.33c-.25.19-.35.37-.31.42s.67-.31,1.46-.27,1.33.49,1.42.4S63.9,230.56,63.66,230.36Zm8.71-.16a2,2,0,0,0-1.13-.44,1.94,1.94,0,0,0-1.17.34c-.25.19-.35.37-.31.41s.67-.3,1.46-.26,1.33.49,1.42.39S72.61,230.41,72.37,230.2ZM72,231.47a.73.73,0,0,0-.74-.73.75.75,0,0,0,0,1.49A.72.72,0,0,0,72,231.47Zm-3.43,6.1a.5.5,0,0,0,.34-.3,1.34,1.34,0,0,0-.09-.85c-.17-.53-.36-1.08-.55-1.67a30.18,30.18,0,0,0-1.58-4.22,29,29,0,0,0,1.26,4.33l.57,1.67a1.12,1.12,0,0,1,.13.64c0,.14-.23.18-.43.19a4.62,4.62,0,0,0-1.28.2,4.83,4.83,0,0,0,1.29.05A1.08,1.08,0,0,0,68.52,237.57Zm-3,2.88a2.16,2.16,0,0,0,2.6-.81c-1.61,0-4.63-1.8-3.83-1.27A1.7,1.7,0,0,0,65.53,240.45Z"/><path class="cls-8" d="M70.49,231.5a.74.74,0,0,1,.72-.76.75.75,0,0,1,0,1.49A.74.74,0,0,1,70.49,231.5Z"/><path class="cls-8" d="M71.22,230.25c-.79,0-1.37.37-1.46.26s.06-.22.31-.41a1.94,1.94,0,0,1,1.17-.34,2,2,0,0,1,1.13.44c.24.21.32.4.27.44S72,230.28,71.22,230.25Z"/><path class="cls-8" d="M62,231.65a.75.75,0,0,1,.72-.77.74.74,0,0,1,.74.74.73.73,0,1,1-1.46,0Z"/><path class="cls-8" d="M62.51,230.4c-.79,0-1.37.37-1.46.27s.06-.23.31-.42a1.87,1.87,0,0,1,1.17-.33,1.84,1.84,0,0,1,1.13.44c.24.2.32.39.27.44S63.29,230.43,62.51,230.4Z"/><path class="cls-8" d="M66.89,237.56a4.62,4.62,0,0,1,1.28-.2c.2,0,.39-.05.43-.19a1.12,1.12,0,0,0-.13-.64l-.57-1.67a29,29,0,0,1-1.26-4.33,30.18,30.18,0,0,1,1.58,4.22c.19.59.38,1.14.55,1.67a1.34,1.34,0,0,1,.09.85.5.5,0,0,1-.34.3,1.08,1.08,0,0,1-.34,0A4.83,4.83,0,0,1,66.89,237.56Z"/><path class="cls-3" d="M68.13,239.64a2.16,2.16,0,0,1-2.6.81,1.7,1.7,0,0,1-1.23-2.08C63.5,237.84,66.52,239.67,68.13,239.64Z"/><path class="cls-12" d="M59.67,245.06a14,14,0,0,0,7.6,2.49l-.1,1.44C61.46,249.33,59.67,245.06,59.67,245.06Z"/><path class="cls-8" d="M42.75,231.52h0c.05-.42.1-1,.16-1.6h0c.09-.9.19-1.86.31-2.38,2.9-12.26,13.32-14.72,15.38-14.75,2.22,0,6.08-1.36,11.84,4.58a11.52,11.52,0,0,1,2.77,12.47v0l-.95-.86-8.38-2.07c.62-2.32-.4-5.17-1-6.5l0,0C61.34,229.12,52,230.2,52,230.2l.89,26.26c-.35-.1-.69-.19-1-.3a25.44,25.44,0,0,1-15.76-14A12.89,12.89,0,0,0,42.75,231.52Z"/><rect class="cls-6" x="93.92" y="219.38" width="79.82" height="4.4" transform="translate(267.67 443.15) rotate(180)"/><rect class="cls-6" x="93.92" y="230.69" width="79.82" height="4.4" transform="translate(267.67 465.78) rotate(180)"/><rect class="cls-6" x="134.18" y="241.69" width="39.56" height="4.4" transform="translate(307.93 487.77) rotate(180)"/></g><g id="Character_2" data-name="Character 2"><path class="cls-10" d="M40,371.59l1.87-9.47,17.75,3.37-2.57,13.89L56,379.24c-5-.66-25.13-3.7-28.22-5.31C24.3,372.12,40,371.59,40,371.59Z"/><path class="cls-1" d="M50.67,378a6.27,6.27,0,0,1,3-3.35,6.07,6.07,0,0,1,4.4-.5l-.94,5Z"/><path class="cls-1" d="M32.3,372.11s-5.58.53-5.09,1.52,20.78,4.84,29.87,5.75l.05-.41-23.7-4.27S33.32,372.35,32.3,372.11Z"/><path class="cls-8" d="M57.41,379a2.33,2.33,0,0,1-.31,0l-.89-.11L53,378.41c-2.74-.42-6.53-1.05-10.69-1.83s-7.92-1.58-10.63-2.19l-3.2-.75-.87-.22-.3-.09.31.05.88.18,3.21.68c2.72.57,6.48,1.34,10.64,2.12s7.94,1.44,10.68,1.89l3.24.54.88.16Z"/><path class="cls-8" d="M33.39,375a7.87,7.87,0,0,0-.32-1.66,7,7,0,0,0-.86-1.44,2.41,2.41,0,0,1,1.07,1.36A2.48,2.48,0,0,1,33.39,375Z"/><path class="cls-8" d="M39.13,373.31c-.06,0-.25-.33-.43-.79a2.05,2.05,0,0,1-.23-.87c.06,0,.25.33.43.79S39.19,373.29,39.13,373.31Z"/><path class="cls-8" d="M40.71,372.82c-.05,0-.29-.2-.54-.54s-.43-.63-.38-.66.3.2.55.53S40.76,372.78,40.71,372.82Z"/><path class="cls-8" d="M41.94,371.32a2.18,2.18,0,0,1-.95-.06,2.15,2.15,0,0,1-.91-.27,2.08,2.08,0,0,1,1,.05A2.08,2.08,0,0,1,41.94,371.32Z"/><path class="cls-8" d="M42.47,370.19a2.6,2.6,0,0,1-2.13-.24,6.34,6.34,0,0,1,1.07.13A6.34,6.34,0,0,1,42.47,370.19Z"/><path class="cls-8" d="M38.82,371.65a3.6,3.6,0,0,1-1.14-.23,6.75,6.75,0,0,1-1.16-.5,3.27,3.27,0,0,1-.64-.41.64.64,0,0,1-.22-.41.45.45,0,0,1,.26-.43,2.14,2.14,0,0,1,2.47,1.11,2,2,0,0,1,.23.83.65.65,0,0,1,0,.31,3.21,3.21,0,0,0-.33-1.07,2.14,2.14,0,0,0-.86-.82,1.84,1.84,0,0,0-1.38-.16c-.2.1-.17.32,0,.48a3.83,3.83,0,0,0,.59.4,9.08,9.08,0,0,0,1.12.53C38.39,371.53,38.83,371.61,38.82,371.65Z"/><path class="cls-8" d="M38.51,371.65a1.23,1.23,0,0,1,0-.82,2,2,0,0,1,.47-.78,1.19,1.19,0,0,1,1.06-.4.47.47,0,0,1,.25.6,1.17,1.17,0,0,1-.29.47,3.5,3.5,0,0,1-.67.59,1.75,1.75,0,0,1-.74.34s.27-.17.65-.47a4.15,4.15,0,0,0,.61-.59c.2-.21.39-.63.12-.73a1,1,0,0,0-.85.34,2,2,0,0,0-.46.68A4,4,0,0,0,38.51,371.65Z"/><path class="cls-8" d="M58,374.09s-.5-.15-1.32-.2a5.75,5.75,0,0,0-3.08.63,5.92,5.92,0,0,0-2.27,2.19c-.42.71-.54,1.22-.58,1.21a1.32,1.32,0,0,1,.07-.36,4.72,4.72,0,0,1,.37-.92,5.52,5.52,0,0,1,5.51-2.91,4.5,4.5,0,0,1,1,.21A1.06,1.06,0,0,1,58,374.09Z"/><path class="cls-8" d="M57.52,366.35A32.07,32.07,0,0,1,57,370a30.5,30.5,0,0,1-.76,3.63,30.94,30.94,0,0,1,.54-3.67A33,33,0,0,1,57.52,366.35Z"/><path class="cls-8" d="M48.76,375.86a10.06,10.06,0,0,1-2.64-.23,10.53,10.53,0,0,1-2.56-.7c0-.06,1.16.23,2.6.48S48.76,375.8,48.76,375.86Z"/><path class="cls-8" d="M52.24,376.51c0,.06-.14.23-.31.47s-.28.47-.34.46,0-.3.16-.58S52.21,376.46,52.24,376.51Z"/><path class="cls-8" d="M53.86,375.13c0,.05-.11.21-.33.36s-.43.24-.46.19.11-.22.33-.37S53.83,375.08,53.86,375.13Z"/><path class="cls-8" d="M55.88,374.74c0,.06-.26,0-.54.05s-.49.15-.53.1.16-.27.5-.31S55.91,374.69,55.88,374.74Z"/><path class="cls-8" d="M57.28,374.64c0,.06-.11.13-.26.16s-.3,0-.31-.05.11-.14.27-.17S57.27,374.58,57.28,374.64Z"/><path class="cls-8" d="M116.9,353.84s-24.58-55-47.69-55.47c0,0-13.33-3-18.54,24.17-2.62,13.63-11.4,46.36-11.4,46.36l23.34,4,8.72-40.62,11,25.21Z"/><polygon class="cls-9" points="64.18 370.9 63.49 373.87 38.12 369.07 38.71 365.95 64.18 370.9"/><path class="cls-9" d="M79.72,320.85c0,.13.35.38.89.53s1.06.1,1-.06-.38-.28-.91-.44S79.76,320.71,79.72,320.85Z"/><path class="cls-9" d="M71.91,319.44a6.61,6.61,0,0,0,2,.28c1.08.12,2,.22,2,.07s-.82-.46-1.94-.59S71.88,319.29,71.91,319.44Z"/><path class="cls-9" d="M67.58,325.4c.14,0,.53-.76.89-1.8s.53-1.92.39-2-.53.75-.88,1.8S67.44,325.36,67.58,325.4Z"/><path class="cls-9" d="M65.46,333.09c.13,0,.48-.8.76-1.86s.4-2,.26-2-.48.8-.76,1.86S65.32,333.05,65.46,333.09Z"/><path class="cls-9" d="M63.51,340.83c.14,0,.47-.8.73-1.87s.37-2,.23-2-.47.8-.73,1.87S63.37,340.8,63.51,340.83Z"/><path class="cls-9" d="M61.65,348.59c.14,0,.46-.81.71-1.89s.35-2,.21-2-.46.81-.71,1.88S61.51,348.55,61.65,348.59Z"/><path class="cls-9" d="M59.84,356.36c.14,0,.45-.81.7-1.89s.34-2,.2-2-.46.81-.71,1.89S59.7,356.33,59.84,356.36Z"/><path class="cls-9" d="M58.07,364.14c.14,0,.45-.81.69-1.89s.33-2,.19-2-.45.81-.69,1.89S57.93,364.11,58.07,364.14Z"/><path class="cls-9" d="M56.77,370c.14,0,.35-.38.47-.92s.1-1,0-1-.35.38-.47.92S56.63,370,56.77,370Z"/><path class="cls-10" d="M155.3,277.93h0l3.11.25L167,297.52l-5.25,21.19c-2.82,9.83,5.08,22.37,6.43,31.12L122.65,351l-2.24-29.91-1.51,13.27-19.67,2.48,10.59-37.39c5.7-21.53,24.16-21.3,24.16-21.3"/><path class="cls-13" d="M135.1,277.92c.28-1.68-.36-7.82-.36-7.82s-6.43-.68-6.82-7.06,0-21.09,0-21.09l11.72-5.73,11.07,9.87-.14,31.79Z"/><path class="cls-8" d="M129.7,252.61a.82.82,0,1,0,1.63,0,.82.82,0,0,0-1.63,0Z"/><path class="cls-8" d="M128.5,252c.11.1.71-.41,1.59-.46s1.54.38,1.63.26-.06-.25-.35-.45a2.22,2.22,0,0,0-1.31-.34,2.12,2.12,0,0,0-1.26.5C128.54,251.77,128.45,252,128.5,252Z"/><path class="cls-8" d="M139.2,252.46a.82.82,0,1,0,.81-.82A.82.82,0,0,0,139.2,252.46Z"/><path class="cls-8" d="M138,251.87c.11.11.71-.4,1.59-.45s1.54.38,1.63.26-.06-.25-.35-.45a2.24,2.24,0,0,0-1.31-.34,2.12,2.12,0,0,0-1.26.5C138,251.62,138,251.83,138,251.87Z"/><path class="cls-8" d="M135,259.21a5.79,5.79,0,0,0-1.44-.19c-.22,0-.44,0-.48-.2a1.16,1.16,0,0,1,.12-.71l.6-1.82a35.13,35.13,0,0,0,1.35-4.75,33,33,0,0,0-1.69,4.64c-.2.64-.39,1.25-.58,1.83a1.42,1.42,0,0,0-.08.92.56.56,0,0,0,.37.32,1.8,1.8,0,0,0,.38,0A5.94,5.94,0,0,0,135,259.21Z"/><path class="cls-3" d="M137.89,260a9.63,9.63,0,0,1-4.25,1.46,2.43,2.43,0,0,0,2.91.83C138.43,261.54,137.89,260,137.89,260Z"/><path class="cls-14" d="M134.74,270.1a16,16,0,0,0,8.46-2.85s-1.92,4.68-8.32,4.42Z"/><path class="cls-8" d="M161.21,252.61c-.05-.3-.1-.76-.16-1.29s-.05-.62-.05-.62h0c-.14-1.24-.29-2.64-.38-3.25-2.72-16.79-16.89-15.8-16.89-15.8-.76,0-5.27-.39-10.81,3.49a15.34,15.34,0,0,0-7.1,12.52,13.62,13.62,0,0,0,.17,2.67,3.36,3.36,0,0,0,.24.95c.1,0-.19-1.39,0-3.6a16.47,16.47,0,0,1,1.08-4.79,12.09,12.09,0,0,0,.48,8l11.37-1.77c-.73-2.5-.19-6.45.15-8.38,2,9.28,10,13.74,10,13.74l.95-.15v14.13c9.67-2.06,10.84-11.68,10.88-15.84Z"/><path class="cls-8" d="M160.66,248a8.08,8.08,0,0,1,11.18-.85,4.47,4.47,0,0,1,1.44,1.92,2.31,2.31,0,0,1-.41,2.28,1.59,1.59,0,0,1-2.18.13,1.84,1.84,0,1,1-2.26,2.53,4.46,4.46,0,0,1,.31,1.84,1.73,1.73,0,0,1-1,1.49,1.9,1.9,0,0,1-2-.66,15,15,0,0,1-1.25-1.88,6,6,0,0,0-5-2.56"/><path class="cls-8" d="M170.42,243.22a3.47,3.47,0,0,0-1.67-.33,8.35,8.35,0,0,0-7.12,3.57,3.3,3.3,0,0,0-.74,1.53,14.5,14.5,0,0,0,1-1.31,9.34,9.34,0,0,1,6.84-3.42A11.44,11.44,0,0,0,170.42,243.22Z"/><path class="cls-9" d="M160.56,247.58a12.47,12.47,0,0,0,.18,2.93,13.21,13.21,0,0,0,.35,2.9,6.24,6.24,0,0,0,.17-2.95A6.58,6.58,0,0,0,160.56,247.58Z"/><path class="cls-13" d="M149.86,257.57a2.61,2.61,0,0,0,3.28-.45,3.83,3.83,0,0,0,.84-3.36,2.91,2.91,0,0,0-1.06-1.85,3,3,0,0,0-2.81.17Z"/><path class="cls-14" d="M151.3,256.56c0-.09.31-.14.68-.41a1.63,1.63,0,0,0-.26-2.82c-.41-.2-.73-.19-.74-.27s.32-.23.87-.09a1.87,1.87,0,0,1,1.36,1.64,1.89,1.89,0,0,1-1,1.87C151.66,256.72,151.3,256.62,151.3,256.56Z"/><path class="cls-5" d="M153.69,256.61a2,2,0,0,1,1.16.72,1.59,1.59,0,0,1,.29,1.4,1.65,1.65,0,0,1-3.21-.77,4,4,0,0,1,.54-1.29,1.08,1.08,0,0,0-.26.29,2.52,2.52,0,0,0-.42,1,1.8,1.8,0,0,0,.35,1.53,1.8,1.8,0,0,0,3.18-.69,1.73,1.73,0,0,0-.35-1.54A1.54,1.54,0,0,0,153.69,256.61Z"/><path class="cls-10" d="M157.61,278.11s9.58.15,14.45,12.82a26.86,26.86,0,0,1,.06,18.58l-1.75,4.93L151,308.83Z"/><path class="cls-8" d="M121.25,328.84a6.36,6.36,0,0,0,.08-1.33,33.62,33.62,0,0,0-.17-3.63,38.63,38.63,0,0,0-.9-5.32c-.46-2-1.23-4.1-1.79-6.33a11.31,11.31,0,0,1,.34-6.35,33.54,33.54,0,0,1,2-4.92l1.65-3.22a6.53,6.53,0,0,0,.56-1.21,6.86,6.86,0,0,0-.74,1.11c-.44.74-1.08,1.8-1.8,3.15a31.26,31.26,0,0,0-2.18,4.95,14.18,14.18,0,0,0-.67,3.15,10.21,10.21,0,0,0,.28,3.46c.58,2.29,1.36,4.37,1.83,6.33a44.36,44.36,0,0,1,1,5.24c.19,1.51.28,2.75.33,3.6A6.75,6.75,0,0,0,121.25,328.84Z"/><rect class="cls-10" x="134.73" y="274.27" width="16.28" height="3.84"/><path class="cls-8" d="M131.44,349.83a3.54,3.54,0,0,0,.09-.73c0-.53.09-1.23.16-2.1.12-1.88.29-4.51.5-7.74.43-6.53,1.05-15.54,2-25.48s2.1-18.91,3-25.38c.49-3.2.88-5.8,1.16-7.67.13-.86.23-1.55.31-2.08a5,5,0,0,0,.08-.73,3.35,3.35,0,0,0-.18.71c-.1.53-.24,1.21-.41,2.07-.35,1.8-.8,4.41-1.32,7.64-1,6.47-2.24,15.44-3.19,25.39s-1.52,19-1.85,25.51c-.16,3.27-.28,5.92-.34,7.75,0,.87,0,1.57,0,2.11A3.69,3.69,0,0,0,131.44,349.83Z"/><path class="cls-8" d="M139.1,274.31s-.1.24-.18.67a8.8,8.8,0,0,0-.13,1.9,4.61,4.61,0,0,0,.93,2.71,3.37,3.37,0,0,0,1.42,1,5.36,5.36,0,0,0,1.83.29,14.25,14.25,0,0,0,6-1.59,7.1,7.1,0,0,0,2.13-1.46c0-.07-.86.49-2.29,1.13a15.91,15.91,0,0,1-5.88,1.4,3.55,3.55,0,0,1-2.87-1.1,4.46,4.46,0,0,1-.94-2.43C139,275.31,139.2,274.32,139.1,274.31Z"/><path class="cls-8" d="M134.59,277.56c-.08,0-.1.65.5,1.41a2.72,2.72,0,0,0,1.38,1,2.07,2.07,0,0,0,1.05-.08,2.18,2.18,0,0,0,1-.56,3.19,3.19,0,0,0,.74-1.93,10.13,10.13,0,0,0,.05-1.61,3.9,3.9,0,0,0-.18-1.47,4.59,4.59,0,0,0-.19,1.46c0,.45-.07,1-.15,1.56a2.89,2.89,0,0,1-.65,1.63,1.63,1.63,0,0,1-.74.43,1.83,1.83,0,0,1-.8.11,2.66,2.66,0,0,1-1.2-.77A5.64,5.64,0,0,1,134.59,277.56Z"/><path class="cls-3" d="M163.82,288.16c.05,0,.64-.89,1.63-1.8s1.94-1.45,1.91-1.51a5.93,5.93,0,0,0-2.06,1.35A5.76,5.76,0,0,0,163.82,288.16Z"/><path class="cls-3" d="M165,286.7a3,3,0,0,0,.31-1.42,4.82,4.82,0,0,0-.06-1.46,5.55,5.55,0,0,0-.14,1.45C165,286.06,164.9,286.69,165,286.7Z"/><path class="cls-3" d="M164.59,287.11a2.37,2.37,0,0,0,1,.29,2.78,2.78,0,0,0,1,.1,2.56,2.56,0,0,0-1-.3A2.38,2.38,0,0,0,164.59,287.11Z"/><path class="cls-3" d="M124.18,312.2s.64-.9,1.63-1.81,1.94-1.44,1.91-1.5a7.19,7.19,0,0,0-3.54,3.31Z"/><path class="cls-3" d="M125.31,310.74a2.9,2.9,0,0,0,.31-1.43,4.42,4.42,0,0,0-.06-1.45,6.07,6.07,0,0,0-.14,1.44C125.38,310.1,125.26,310.72,125.31,310.74Z"/><path class="cls-3" d="M125,311.15a2.79,2.79,0,0,0,1,.29,2.43,2.43,0,0,0,1,.09,2.65,2.65,0,0,0-1-.29A2.38,2.38,0,0,0,125,311.15Z"/><path class="cls-3" d="M158.49,346.23a23.73,23.73,0,0,1,1.63-1.81c1-.92,1.95-1.45,1.92-1.51a6,6,0,0,0-2.06,1.35A5.86,5.86,0,0,0,158.49,346.23Z"/><path class="cls-3" d="M159.62,344.77a3,3,0,0,0,.32-1.43,4.86,4.86,0,0,0-.06-1.46,5.29,5.29,0,0,0-.15,1.45C159.7,344.12,159.57,344.75,159.62,344.77Z"/><path class="cls-3" d="M159.26,345.17a2.56,2.56,0,0,0,1,.3,2.89,2.89,0,0,0,1,.09,2.56,2.56,0,0,0-1-.3A2.43,2.43,0,0,0,159.26,345.17Z"/><path class="cls-3" d="M145.51,303.55c0-.05-.83-.72-1.65-1.79s-1.27-2.07-1.33-2a7.27,7.27,0,0,0,3,3.83Z"/><path class="cls-3" d="M144.16,302.29a3,3,0,0,0-1.39-.44,4.72,4.72,0,0,0-1.46-.08,5.18,5.18,0,0,0,1.43.28C143.53,302.16,144.14,302.34,144.16,302.29Z"/><path class="cls-3" d="M144.53,302.69a2.66,2.66,0,0,0,.38-.95,2.7,2.7,0,0,0,.19-1,2.38,2.38,0,0,0-.39.94A2.58,2.58,0,0,0,144.53,302.69Z"/><path class="cls-3" d="M113.72,296.38c0,.06,1-.44,2.33-.71a24.26,24.26,0,0,1,2.42-.3,5.75,5.75,0,0,0-2.46.1A5.91,5.91,0,0,0,113.72,296.38Z"/><path class="cls-3" d="M115.44,295.71a2.91,2.91,0,0,0,1-1.06,4.84,4.84,0,0,0,.7-1.28,5.59,5.59,0,0,0-.87,1.17C115.84,295.2,115.41,295.67,115.44,295.71Z"/><path class="cls-3" d="M114.93,295.87c0,.05.26.38.68.76a2.65,2.65,0,0,0,.82.6s-.26-.38-.68-.76A2.87,2.87,0,0,0,114.93,295.87Z"/><path class="cls-3" d="M149.34,289c0-.05-.84-.72-1.66-1.79s-1.26-2.07-1.32-2a7.27,7.27,0,0,0,3,3.83Z"/><path class="cls-3" d="M148,287.78a3,3,0,0,0-1.4-.45,4.83,4.83,0,0,0-1.45-.07,5.17,5.17,0,0,0,1.42.28C147.35,287.65,148,287.83,148,287.78Z"/><path class="cls-3" d="M148.36,288.18a2.88,2.88,0,0,0,.38-.95,2.36,2.36,0,0,0,.18-1,2.66,2.66,0,0,0-.38.94A2.38,2.38,0,0,0,148.36,288.18Z"/><path class="cls-3" d="M113,315.7c0-.05-.83-.72-1.65-1.78s-1.26-2.08-1.32-2.05a7.31,7.31,0,0,0,3,3.83Z"/><path class="cls-3" d="M111.62,314.44a3,3,0,0,0-1.39-.44,4.82,4.82,0,0,0-1.45-.07,5.79,5.79,0,0,0,1.42.27C111,314.31,111.6,314.49,111.62,314.44Z"/><path class="cls-3" d="M112,314.84a2.47,2.47,0,0,0,.39-.95,2.8,2.8,0,0,0,.18-1,2.37,2.37,0,0,0-.38.94A2.71,2.71,0,0,0,112,314.84Z"/><path class="cls-3" d="M129.91,288.81c0-.05-.83-.73-1.65-1.79s-1.27-2.07-1.33-2a6.11,6.11,0,0,0,1.16,2.17A6,6,0,0,0,129.91,288.81Z"/><path class="cls-3" d="M128.56,287.55a2.89,2.89,0,0,0-1.39-.45,4.89,4.89,0,0,0-1.46-.07,5.66,5.66,0,0,0,1.43.28C127.93,287.41,128.54,287.6,128.56,287.55Z"/><path class="cls-3" d="M128.93,287.94a2.29,2.29,0,0,0,.38-.94,2.71,2.71,0,0,0,.19-1,4.84,4.84,0,0,0-.57,1.95Z"/><path class="cls-3" d="M139.44,317.09c0,.07,1.09-.21,2.43-.2s2.41.28,2.43.21a7.32,7.32,0,0,0-4.86,0Z"/><path class="cls-3" d="M141.27,316.8a2.82,2.82,0,0,0,1.21-.82,5.1,5.1,0,0,0,1-1.1,5.18,5.18,0,0,0-1.1.95C141.76,316.38,141.24,316.76,141.27,316.8Z"/><path class="cls-3" d="M140.73,316.85a2.55,2.55,0,0,0,.51.89c.33.45.63.79.68.76a2.65,2.65,0,0,0-.51-.89C141.08,317.16,140.78,316.82,140.73,316.85Z"/><path class="cls-8" d="M133.21,300.36c0-.05-.16-.22-.47-.06a.57.57,0,0,0-.27.54.66.66,0,0,0,.52.54.59.59,0,0,0,.69-.43.57.57,0,0,0-.16-.59l-.11-.08-.06,0c-.18.09-.28.18-.27.24s.15.09.35.09l-.17-.05c.05.11-.07.34-.17.28s-.2-.14-.12-.28S133.18,300.43,133.21,300.36Z"/><path class="cls-8" d="M132.11,313.81c0-.06-.17-.23-.47-.06a.54.54,0,0,0-.27.53.63.63,0,0,0,.52.54.58.58,0,0,0,.69-.43.55.55,0,0,0-.17-.59l-.1-.08-.06,0c-.18.09-.28.18-.27.24s.15.1.35.09l-.17-.05c.05.11-.07.34-.17.28s-.2-.14-.12-.28S132.08,313.87,132.11,313.81Z"/><path class="cls-8" d="M131.2,325.69c0-.05-.16-.23-.46-.06a.54.54,0,0,0-.27.54.64.64,0,0,0,.52.54.6.6,0,0,0,.69-.44.58.58,0,0,0-.17-.58l-.11-.08-.06,0c-.18.09-.28.18-.26.24s.14.09.35.09l-.17-.05c.05.11-.07.34-.17.28s-.21-.14-.12-.28S131.18,325.76,131.2,325.69Z"/><path class="cls-8" d="M135.22,287.8c0-.06-.16-.23-.47-.06a.54.54,0,0,0-.27.53.65.65,0,0,0,.52.54.58.58,0,0,0,.69-.43.57.57,0,0,0-.16-.59l-.11-.08-.06,0c-.18.09-.28.18-.27.24s.15.1.35.09l-.17-.05c0,.11-.07.34-.17.28s-.2-.14-.12-.28S135.19,287.86,135.22,287.8Z"/><path class="cls-8" d="M168.3,348.89s10.08,27.86-14.4,29c-21.89,1-51.06.91-62.22.89-5.25,0-9.44.85-14.23-1.31-5.19-2.34-10.49-6.19-10.91-12.25-.55-7.86,4.68-15.28,22.88-16.32S168.3,348.89,168.3,348.89Z"/><path class="cls-9" d="M163.87,350.71c.14,0,.11-.51-.07-1s-.44-.92-.57-.87-.11.51.07,1S163.74,350.75,163.87,350.71Z"/><path class="cls-9" d="M165.18,358.63c.14,0,.33-.9.25-2s-.37-2-.51-2a5.4,5.4,0,0,0,0,2C165,357.73,165,358.62,165.18,358.63Z"/><path class="cls-9" d="M161.86,365.79c.08.11.89-.4,1.56-1.34s.93-1.86.8-1.91-.58.72-1.22,1.6S161.76,365.68,161.86,365.79Z"/><path class="cls-9" d="M154.41,368.66c0,.14.94.12,2-.14s1.93-.67,1.88-.8-.92,0-2,.29S154.39,368.52,154.41,368.66Z"/><path class="cls-9" d="M146.35,369.24c0,.15.91.25,2,.23a4.1,4.1,0,0,0,2-.33c0-.15-.92-.22-2-.19A4.3,4.3,0,0,0,146.35,369.24Z"/><path class="cls-9" d="M138.26,369.33c0,.15.91.25,2,.24s2-.13,2-.28a4.24,4.24,0,0,0-2-.24A4.19,4.19,0,0,0,138.26,369.33Z"/><path class="cls-9" d="M130.17,369.37c0,.15.91.26,2,.26a4.29,4.29,0,0,0,2-.27,4.17,4.17,0,0,0-2-.25A4.22,4.22,0,0,0,130.17,369.37Z"/><path class="cls-9" d="M122.08,369.37c0,.15.91.26,2,.27a4.22,4.22,0,0,0,2-.26c0-.15-.91-.26-2-.26A4.2,4.2,0,0,0,122.08,369.37Z"/><path class="cls-9" d="M114,369.33c0,.15.9.27,2,.28a4.25,4.25,0,0,0,2-.25c0-.15-.9-.27-2-.27A4.21,4.21,0,0,0,114,369.33Z"/><path class="cls-9" d="M105.91,369.27a4.19,4.19,0,0,0,2,.28c1.12,0,2-.1,2-.25a4.26,4.26,0,0,0-2-.27C106.82,369,105.91,369.12,105.91,369.27Z"/><path class="cls-9" d="M97.83,369.19a8,8,0,0,0,4,0c0-.15-.9-.27-2-.28S97.83,369,97.83,369.19Z"/><path class="cls-9" d="M89.75,369.1a4.16,4.16,0,0,0,2,.28c1.12,0,2-.09,2-.24a4.19,4.19,0,0,0-2-.28A4.18,4.18,0,0,0,89.75,369.1Z"/><path class="cls-9" d="M81.67,369c0,.15.9.27,2,.28a4.24,4.24,0,0,0,2-.24,4.22,4.22,0,0,0-2-.28A4.18,4.18,0,0,0,81.67,369Z"/><path class="cls-9" d="M73.58,369c0,.15.9.27,2,.28a4.25,4.25,0,0,0,2-.25,4.12,4.12,0,0,0-2-.27A4.21,4.21,0,0,0,73.58,369Z"/><path class="cls-9" d="M67.54,368.94c0,.14.45.26,1,.26s1-.11,1-.25-.44-.27-1-.27S67.54,368.8,67.54,368.94Z"/><path class="cls-9" d="M68.83,370.91l.3,0,.88,0,3.38.06,12.43.14c10.49.11,25,.26,41,.18,8-.05,15.64-.15,22.57-.28a47.26,47.26,0,0,0,9.85-.77,10.27,10.27,0,0,0,4.15-1.79,12.44,12.44,0,0,0,2.75-3.13,8.18,8.18,0,0,0,.93-3.67,22.2,22.2,0,0,0,0-3.36,28.27,28.27,0,0,0-1-5.27c-.39-1.42-.75-2.5-1-3.23-.12-.35-.21-.62-.29-.83s-.11-.28-.11-.28a1.09,1.09,0,0,0,.06.29l.24.85c.21.74.54,1.83.89,3.25a29.08,29.08,0,0,1,.87,5.24,23.28,23.28,0,0,1,0,3.32,8,8,0,0,1-.92,3.51,12.34,12.34,0,0,1-2.68,3,9.88,9.88,0,0,1-4,1.68,48.26,48.26,0,0,1-9.76.71c-6.94.11-14.57.19-22.57.24-16,.08-30.51,0-41,0l-12.43,0-3.38,0-.88,0Z"/><path class="cls-10" d="M117.38,343.66s51,4.61,54-18.79c3.25-24.83,1.56-28,1.56-28l-19.61.22s-1,23.78-3.21,25.07c-9.57,5.72-26.16,7.5-31.71,7.49Z"/><path class="cls-8" d="M117.38,343.66a7.2,7.2,0,0,0,.13-1q.1-1,.27-2.79c.21-2.48.51-6,.87-10.19l-.19.18a165,165,0,0,0,22.68-3.51,17.18,17.18,0,0,0,7-2.77,11,11,0,0,0,3.74-5.89,28.12,28.12,0,0,0,.94-6.25c.15-1.95.28-3.78.41-5.45.23-3.34.35-6.05.36-7.92,0-.94,0-1.66,0-2.16a4.07,4.07,0,0,0-.07-.75,4.16,4.16,0,0,0,0,.76c0,.54,0,1.25-.07,2.15-.08,1.86-.25,4.56-.53,7.89-.14,1.67-.3,3.49-.47,5.45a27.85,27.85,0,0,1-1,6.14,11.16,11.16,0,0,1-3.6,5.63,16.82,16.82,0,0,1-6.77,2.66,179.31,179.31,0,0,1-22.59,3.62h-.18v.17c-.29,4.25-.52,7.73-.69,10.21-.06,1.17-.12,2.11-.16,2.8A5.71,5.71,0,0,0,117.38,343.66Z"/><path class="cls-8" d="M116.67,343.6a2.81,2.81,0,0,0,.67.15c.44.07,1.09.22,1.94.31a52.57,52.57,0,0,0,7.22.4,118.86,118.86,0,0,0,23.65-2.91,43.61,43.61,0,0,0,12.44-4.23,21.17,21.17,0,0,0,4.63-3.43,18.56,18.56,0,0,0,3.05-4,14.09,14.09,0,0,0,1.91-6.95,8.75,8.75,0,0,0-.35-2.63,23.6,23.6,0,0,1,.15,2.63,14.33,14.33,0,0,1-2,6.77,18.75,18.75,0,0,1-3,3.87,21.32,21.32,0,0,1-4.57,3.32A44.59,44.59,0,0,1,150,341a128.78,128.78,0,0,1-23.54,3.06,64.09,64.09,0,0,1-7.2-.24c-.85-.06-1.5-.17-2-.21A3.15,3.15,0,0,0,116.67,343.6Z"/><path class="cls-3" d="M157.34,301.18c.06,0,.65-.9,1.63-1.81s1.95-1.45,1.92-1.5a5.75,5.75,0,0,0-2.06,1.35A5.94,5.94,0,0,0,157.34,301.18Z"/><path class="cls-3" d="M158.48,299.72a3.08,3.08,0,0,0,.31-1.43,4.74,4.74,0,0,0-.06-1.45,5.68,5.68,0,0,0-.15,1.44C158.55,299.07,158.42,299.7,158.48,299.72Z"/><path class="cls-3" d="M158.12,300.12a2.39,2.39,0,0,0,1,.3,2.64,2.64,0,0,0,1,.09,2.56,2.56,0,0,0-1-.3A2.84,2.84,0,0,0,158.12,300.12Z"/><path class="cls-13" d="M118,333s-8.52-.15-9.85,2.28-2.54,8-2.54,8l11.64-.46Z"/><path class="cls-3" d="M129,338.09s-.83-.72-1.65-1.79-1.27-2.07-1.33-2a7.27,7.27,0,0,0,3,3.83Z"/><path class="cls-3" d="M127.69,336.83a3,3,0,0,0-1.39-.44,4.72,4.72,0,0,0-1.46-.08,5.18,5.18,0,0,0,1.43.28C127.05,336.7,127.67,336.88,127.69,336.83Z"/><path class="cls-3" d="M128.06,337.23a2.66,2.66,0,0,0,.38-1,2.7,2.7,0,0,0,.19-1,2.38,2.38,0,0,0-.39.94A2.58,2.58,0,0,0,128.06,337.23Z"/><path class="cls-3" d="M163.08,331.66c0-.05-.83-.73-1.65-1.79s-1.27-2.07-1.33-2a7.27,7.27,0,0,0,3,3.83Z"/><path class="cls-3" d="M161.73,330.4a3,3,0,0,0-1.39-.45,4.89,4.89,0,0,0-1.46-.07,5.66,5.66,0,0,0,1.43.28C161.09,330.27,161.71,330.45,161.73,330.4Z"/><path class="cls-3" d="M162.1,330.79a2.46,2.46,0,0,0,.38-.94,2.71,2.71,0,0,0,.19-1,2.57,2.57,0,0,0-.39,1A2.36,2.36,0,0,0,162.1,330.79Z"/><path class="cls-3" d="M141.09,333c.06,0,.58-.94,1.49-1.92s1.84-1.58,1.8-1.64a7.3,7.3,0,0,0-3.29,3.56Z"/><path class="cls-3" d="M142.11,331.43a2.85,2.85,0,0,0,.21-1.44,5,5,0,0,0-.16-1.45,5.49,5.49,0,0,0,0,1.45C142.14,330.79,142.06,331.42,142.11,331.43Z"/><path class="cls-3" d="M141.78,331.86a2.51,2.51,0,0,0,1,.23,3,3,0,0,0,1,0,2.57,2.57,0,0,0-1-.23A2.68,2.68,0,0,0,141.78,331.86Z"/><path class="cls-3" d="M164.51,314.8c.06,0,.58-.94,1.5-1.93a22.62,22.62,0,0,1,1.8-1.63,5.88,5.88,0,0,0-2,1.49A5.79,5.79,0,0,0,164.51,314.8Z"/><path class="cls-3" d="M165.53,313.26a2.94,2.94,0,0,0,.22-1.45,4.69,4.69,0,0,0-.17-1.44,5.73,5.73,0,0,0,0,1.45C165.56,312.61,165.48,313.25,165.53,313.26Z"/><path class="cls-3" d="M165.2,313.69a5.2,5.2,0,0,0,2,.24,2.41,2.41,0,0,0-1-.22A2.47,2.47,0,0,0,165.2,313.69Z"/><path class="cls-8" d="M167.38,294.68a13.84,13.84,0,0,0-.85-1.22,10.23,10.23,0,0,0-.83-1.23,5.14,5.14,0,0,0,1.68,2.45Z"/><path class="cls-8" d="M156.32,287.54a6.57,6.57,0,0,0,.84-1.4,6.68,6.68,0,0,0,.65-1.49A5.92,5.92,0,0,0,157,286,6.44,6.44,0,0,0,156.32,287.54Z"/><path class="cls-8" d="M145.39,296.68A10,10,0,0,0,144,295a11.09,11.09,0,0,0-1.52-1.5,11.25,11.25,0,0,0,1.37,1.64A11.09,11.09,0,0,0,145.39,296.68Z"/><path class="cls-8" d="M143.92,310a2.71,2.71,0,0,0,1.33-.69,2.76,2.76,0,0,0,.92-1.19s-.43.51-1,1S143.9,309.92,143.92,310Z"/><path class="cls-8" d="M138.18,310.64a3.45,3.45,0,0,0-.19-1.19,3.68,3.68,0,0,0-.4-1.15,3.49,3.49,0,0,0,.19,1.2A3.69,3.69,0,0,0,138.18,310.64Z"/><path class="cls-8" d="M145.15,322.27a5.61,5.61,0,0,0,1.24-.92,6,6,0,0,0,1.11-1.09,5.6,5.6,0,0,0-1.24.93A5.77,5.77,0,0,0,145.15,322.27Z"/><path class="cls-8" d="M137.33,325a2.14,2.14,0,0,0,.11-.95,2.11,2.11,0,0,0-.11-.94,2.2,2.2,0,0,0-.1.94A2.23,2.23,0,0,0,137.33,325Z"/><path class="cls-8" d="M124.23,320.45a8.61,8.61,0,0,0,1.7.81,7.89,7.89,0,0,0,1.77.62,9,9,0,0,0-1.69-.81A7.7,7.7,0,0,0,124.23,320.45Z"/><path class="cls-8" d="M120.71,310.32a4.85,4.85,0,0,0,.06-1.4,4.47,4.47,0,0,0-.15-1.39,5.32,5.32,0,0,0-.06,1.4A4.85,4.85,0,0,0,120.71,310.32Z"/><path class="cls-8" d="M126.5,302.39a3.11,3.11,0,0,0,1.5-.51,3,3,0,0,0,1.18-1.05c-.05,0-.55.45-1.29.87S126.48,302.33,126.5,302.39Z"/><path class="cls-8" d="M125.49,291.22a7.33,7.33,0,0,0-1.15-1.25,6.68,6.68,0,0,0-1.31-1.09,6.92,6.92,0,0,0,1.16,1.24A7.12,7.12,0,0,0,125.49,291.22Z"/><path class="cls-8" d="M130.08,282a4,4,0,0,0,1.19-.2,3.41,3.41,0,0,0,1.15-.4,4,4,0,0,0-1.2.2A3.41,3.41,0,0,0,130.08,282Z"/><path class="cls-8" d="M144.8,278.17a3.35,3.35,0,0,0-.6-.95,3.53,3.53,0,0,0-.76-.83,3,3,0,0,0,.59.95A3.24,3.24,0,0,0,144.8,278.17Z"/><path class="cls-8" d="M140.35,285.52a4.74,4.74,0,0,0,.87-1.17,5.16,5.16,0,0,0,.69-1.28,5,5,0,0,0-.87,1.17A5.16,5.16,0,0,0,140.35,285.52Z"/><path class="cls-8" d="M150.4,300.05a6.63,6.63,0,0,0,.2-1.67,7.41,7.41,0,0,0,0-1.68,6.53,6.53,0,0,0-.2,1.67A7.48,7.48,0,0,0,150.4,300.05Z"/><path class="cls-8" d="M111.86,306.18a4.32,4.32,0,0,0,1.12-.65,4.15,4.15,0,0,0,1-.81,3.82,3.82,0,0,0-1.12.64A3.63,3.63,0,0,0,111.86,306.18Z"/><path class="cls-8" d="M116.9,320.93a5.69,5.69,0,0,0-.29-1.42,4.93,4.93,0,0,0-.5-1.37,5.61,5.61,0,0,0,.29,1.42A4.93,4.93,0,0,0,116.9,320.93Z"/><path class="cls-8" d="M111.33,325.21a12.27,12.27,0,0,0,2.79-1.57,12.73,12.73,0,0,0-2.79,1.57Z"/><path class="cls-8" d="M151.87,344a7.42,7.42,0,0,0,1.26,1.16,7.56,7.56,0,0,0,1.39,1,7,7,0,0,0-1.26-1.16A7.56,7.56,0,0,0,151.87,344Z"/><path class="cls-8" d="M142.23,346.83a3.87,3.87,0,0,0,1-.88,4.17,4.17,0,0,0,.81-1,4.58,4.58,0,0,0-1,.89A4.45,4.45,0,0,0,142.23,346.83Z"/><path class="cls-8" d="M163.26,339.58a2.12,2.12,0,0,0,1,.9,2.2,2.2,0,0,0,1.26.37c0-.06-.55-.2-1.15-.55S163.3,339.54,163.26,339.58Z"/><path class="cls-8" d="M165.38,303.75a8.39,8.39,0,0,0,1.47-1.09,8.18,8.18,0,0,0,1.33-1.26,8.17,8.17,0,0,0-1.47,1.1A7.9,7.9,0,0,0,165.38,303.75Z"/><path class="cls-8" d="M156.79,308.73a9.78,9.78,0,0,0,1.39,1.47,9.32,9.32,0,0,0,1.53,1.31,9.47,9.47,0,0,0-1.39-1.46A9.72,9.72,0,0,0,156.79,308.73Z"/><path class="cls-8" d="M164,322.94a9.34,9.34,0,0,0,3.24-2.34,17,17,0,0,0-1.62,1.18A19.69,19.69,0,0,0,164,322.94Z"/><path class="cls-8" d="M153.55,326.52a11.75,11.75,0,0,0,.45-2.21,12,12,0,0,0,.24-2.25,13.41,13.41,0,0,0-.44,2.21A12.59,12.59,0,0,0,153.55,326.52Z"/><path class="cls-8" d="M148.57,336a6.36,6.36,0,0,0,1.82.66,6.25,6.25,0,0,0,1.92.26,16.09,16.09,0,0,0-1.87-.46A16.05,16.05,0,0,0,148.57,336Z"/><path class="cls-8" d="M134.32,333.33a24.08,24.08,0,0,0,2,4,12.66,12.66,0,0,0-.92-2A11.91,11.91,0,0,0,134.32,333.33Z"/><path class="cls-8" d="M121.25,340.25a6.32,6.32,0,0,0,1.35.92,6.08,6.08,0,0,0,1.45.75,6.66,6.66,0,0,0-1.35-.92A6.08,6.08,0,0,0,121.25,340.25Z"/><path class="cls-8" d="M129.18,299.72a7.31,7.31,0,0,0-1.32-.28c-.89-.16-2.19-.38-3.79-.62l-.21,0,0,.22c-.23,1.7-.5,3.66-.79,5.77l0,.13.1.09.45.44,1.82,1.72.13.13.16-.08,3-1.56.11-.06v-.12c.17-1.77.28-3.23.35-4.23a8.65,8.65,0,0,0,.05-1.52,12,12,0,0,0-.29,1.63c-.15,1-.35,2.41-.55,4.07l.12-.17-3,1.5.29.05-1.81-1.74-.45-.43.08.22c.25-2.11.49-4.08.7-5.78l-.24.18c1.51.18,2.77.3,3.68.38A10.3,10.3,0,0,0,129.18,299.72Z"/><path class="cls-8" d="M124.12,301.56a8,8,0,0,0,2.51.31,6.72,6.72,0,0,0,2.35,0,6.13,6.13,0,0,0-2.42-.4A5.91,5.91,0,0,0,124.12,301.56Z"/><polygon class="cls-2" points="135.79 348.24 135.78 346.49 115.08 343.57 104.82 317.69 65.55 317.69 79.59 348.26 135.79 348.24"/><path class="cls-3" d="M88.24,333.4a2,2,0,1,0,.61-2.75A2,2,0,0,0,88.24,333.4Z"/></g><g id="Character_1" data-name="Character 1"><path class="cls-10" d="M560.78,391.67,555.5,386l10.54-10,7.81,8.2-.61.66c-2.76,2.91-14.22,14.59-16.72,15.84C553.73,402.14,560.78,391.67,560.78,391.67Z"/><path class="cls-1" d="M570,387.78a5.07,5.07,0,0,1-.78-3.52,4.94,4.94,0,0,1,1.74-3.09l2.79,2.94Z"/><path class="cls-1" d="M557.48,396.94s-2.28,3.87-1.4,4,12.9-11.23,17.77-16.71l-.24-.22L559.7,397.42S558.12,396.39,557.48,396.94Z"/><path class="cls-8" d="M573.77,383.87a1.05,1.05,0,0,1-.16.19l-.49.52-1.84,1.9c-1.56,1.58-3.75,3.75-6.21,6.08s-4.75,4.41-6.42,5.88l-2,1.73-.55.46-.2.16s.06-.07.17-.18l.53-.49,1.95-1.77c1.65-1.5,3.92-3.58,6.38-5.91s4.67-4.49,6.25-6.05l1.88-1.85.51-.5A1.73,1.73,0,0,1,573.77,383.87Z"/><path class="cls-8" d="M559.85,397.58a3.74,3.74,0,0,0-2.56-.69,1.92,1.92,0,0,1,1.39-.06A2,2,0,0,1,559.85,397.58Z"/><path class="cls-8" d="M561.47,393.06c0,.05-.33,0-.71-.09s-.69-.21-.67-.26.33,0,.71.09A1.72,1.72,0,0,1,561.47,393.06Z"/><path class="cls-8" d="M561.9,391.8c0,.05-.27.1-.61.11a1.24,1.24,0,0,1-.61-.07s.27-.1.61-.11A1.24,1.24,0,0,1,561.9,391.8Z"/><path class="cls-8" d="M561.5,390.3s-.19.3-.49.59-.57.5-.6.46.18-.29.48-.59S561.46,390.27,561.5,390.3Z"/><path class="cls-8" d="M561,389.42a1.41,1.41,0,0,1-.45.76c-.33.37-.68.56-.71.52s.27-.29.58-.64S561,389.4,561,389.42Z"/><path class="cls-8" d="M560.24,392.48a2.58,2.58,0,0,1-.68.64,5.54,5.54,0,0,1-.87.52,2.51,2.51,0,0,1-.57.22.5.5,0,0,1-.37-.05.39.39,0,0,1-.15-.37,1.7,1.7,0,0,1,1.88-1.09,2,2,0,0,1,.65.24.65.65,0,0,1,.19.17,2.69,2.69,0,0,0-.86-.28,1.62,1.62,0,0,0-.93.17,1.41,1.41,0,0,0-.76.81c0,.19.13.27.32.23a2.41,2.41,0,0,0,.53-.2,6.21,6.21,0,0,0,.87-.47C560,392.7,560.23,392.46,560.24,392.48Z"/><path class="cls-8" d="M560.1,392.68s-.26-.06-.52-.4a1.38,1.38,0,0,1-.28-.66.91.91,0,0,1,.23-.88.38.38,0,0,1,.51.11,1.09,1.09,0,0,1,.17.41,3.23,3.23,0,0,1,.07.72,1.45,1.45,0,0,1-.13.64s0-.25,0-.64a3,3,0,0,0-.1-.68c0-.23-.22-.55-.42-.42a.84.84,0,0,0-.17.71,1.51,1.51,0,0,0,.22.62C559.89,392.54,560.12,392.65,560.1,392.68Z"/><path class="cls-8" d="M570.83,381.19s-.33.26-.75.76a4.73,4.73,0,0,0-1,2.31,4.64,4.64,0,0,0,.36,2.5c.27.61.54.92.51.94s-.08-.06-.2-.21a3.57,3.57,0,0,1-.42-.68,4.38,4.38,0,0,1-.42-2.58,4.5,4.5,0,0,1,1.12-2.36,3.23,3.23,0,0,1,.59-.53C570.73,381.23,570.82,381.18,570.83,381.19Z"/><path class="cls-8" d="M565.59,377.84a24.48,24.48,0,0,1,2.14,2.08,22.41,22.41,0,0,1,2,2.2,54.72,54.72,0,0,1-4.15-4.28Z"/><path class="cls-8" d="M567.65,388a8.08,8.08,0,0,1-1.39,1.6,7.92,7.92,0,0,1-1.66,1.33s.7-.64,1.54-1.45S567.62,388,567.65,388Z"/><path class="cls-8" d="M569.72,386.05s.08.2.16.42.17.4.13.44-.21-.12-.3-.38S569.67,386.05,569.72,386.05Z"/><path class="cls-8" d="M569.58,384.35s.08.17.08.38,0,.39-.1.39-.08-.18-.08-.39S569.53,384.35,569.58,384.35Z"/><path class="cls-8" d="M570.27,382.85s-.11.17-.21.38-.14.38-.19.39-.1-.23,0-.48S570.25,382.81,570.27,382.85Z"/><path class="cls-8" d="M570.87,381.89s0,.14,0,.25-.14.2-.18.17,0-.13,0-.24S570.83,381.87,570.87,381.89Z"/><path class="cls-10" d="M463.29,402.74l.27-7.73,14.49.41-.27,11.32-.9,0c-4,.11-20.37.27-23-.62C450.9,405.16,463.29,402.74,463.29,402.74Z"/><path class="cls-10" d="M472.53,406.48a5,5,0,0,1,1.93-3,4.91,4.91,0,0,1,3.42-1l-.11,4Z"/><path class="cls-1" d="M457.23,404.14s-4.35,1.12-3.83,1.85,17.06,1.19,24.38.75l0-.32-19.3-.38S458.07,404.2,457.23,404.14Z"/><path class="cls-8" d="M478,406.42l-.25,0-.71,0-2.64,0c-2.23,0-5.31,0-8.7-.09s-6.47-.25-8.7-.39l-2.63-.18-.71-.06-.25,0h.25l.72,0,2.63.13c2.22.11,5.3.24,8.69.33s6.47.13,8.7.14l2.63,0h.72A.67.67,0,0,1,478,406.42Z"/><path class="cls-8" d="M458.46,406.27A6.21,6.21,0,0,0,458,405a6.1,6.1,0,0,0-.87-1,2.37,2.37,0,0,1,1.33,2.31Z"/><path class="cls-8" d="M462.79,404.22s-.23-.23-.44-.57a1.61,1.61,0,0,1-.29-.66s.24.23.44.57S462.84,404.19,462.79,404.22Z"/><path class="cls-8" d="M464,403.63s-.26-.12-.51-.36-.41-.44-.38-.48.26.13.5.36S464,403.59,464,403.63Z"/><path class="cls-8" d="M464.77,402.28a1.66,1.66,0,0,1-.76.08.39.39,0,1,1,.76-.08Z"/><path class="cls-8" d="M465.05,401.33a1.52,1.52,0,0,1-.85.22,1.56,1.56,0,0,1-.87-.14,5,5,0,0,1,.86,0A4.27,4.27,0,0,1,465.05,401.33Z"/><path class="cls-8" d="M462.34,402.94a2.81,2.81,0,0,1-.93,0,5.74,5.74,0,0,1-1-.25,2.48,2.48,0,0,1-.56-.25.48.48,0,0,1-.22-.29.35.35,0,0,1,.15-.37,1.71,1.71,0,0,1,2.1.56,1.65,1.65,0,0,1,.28.63c0,.16,0,.25,0,.25a2.49,2.49,0,0,0-.4-.81,1.78,1.78,0,0,0-.78-.54,1.47,1.47,0,0,0-1.11.05c-.15.1-.1.28.06.38a3.08,3.08,0,0,0,.52.24,6.88,6.88,0,0,0,.95.28C462,402.9,462.34,402.91,462.34,402.94Z"/><path class="cls-8" d="M462.1,403a.85.85,0,0,1-.09-.65,1.4,1.4,0,0,1,.27-.67.94.94,0,0,1,.79-.46.38.38,0,0,1,.27.44,1,1,0,0,1-.17.41,2.37,2.37,0,0,1-.45.55,1.5,1.5,0,0,1-.55.37s.19-.17.46-.45A3.74,3.74,0,0,0,463,402c.13-.19.23-.55,0-.59s-.47.19-.62.37a1.61,1.61,0,0,0-.28.6A3.31,3.31,0,0,0,462.1,403Z"/><path class="cls-8" d="M477.81,402.44s-.42-.05-1.07,0a4.53,4.53,0,0,0-3.88,2.92c-.24.61-.28,1-.31,1a1,1,0,0,1,0-.3,3.67,3.67,0,0,1,.18-.77,4.41,4.41,0,0,1,4-3,3.53,3.53,0,0,1,.79,0A.92.92,0,0,1,477.81,402.44Z"/><path class="cls-8" d="M476.47,396.37a25.12,25.12,0,0,1,0,3,25.44,25.44,0,0,1-.14,3,26.73,26.73,0,0,1,0-3C476.37,397.7,476.43,396.37,476.47,396.37Z"/><path class="cls-8" d="M470.74,405a7.64,7.64,0,0,1-2.12.15,8.68,8.68,0,0,1-2.11-.22c0-.06.95,0,2.12.05S470.74,405,470.74,405Z"/><path class="cls-8" d="M473.58,405.09s-.08.2-.18.41-.16.41-.21.4-.07-.23.05-.47S473.55,405.05,473.58,405.09Z"/><path class="cls-8" d="M474.69,403.79s-.06.18-.22.33-.3.24-.34.2.07-.18.22-.33S474.66,403.75,474.69,403.79Z"/><path class="cls-8" d="M476.24,403.22s-.2,0-.42.11-.37.18-.41.15.09-.23.36-.32S476.26,403.18,476.24,403.22Z"/><path class="cls-8" d="M477.34,403c0,.05-.07.12-.19.17s-.24,0-.25,0,.07-.12.19-.16S477.32,402.92,477.34,403Z"/><path class="cls-8" d="M498.3,289.3l5.61,34.46c1.56,6.79,3.59,15.08,7.32,20.95L554,395.57l19.32-19.8L530.53,321l-10.37-56.35Z"/><path class="cls-8" d="M524.29,279,500,332l-17.18,67.71-27.7.36,18.36-73.44,23.12-74.17,36.09-6.5.42,3.77a38.4,38.4,0,0,1-5.5,24.83A36.54,36.54,0,0,1,524.29,279Z"/><path class="cls-9" d="M515.93,277.65c.13.07.54-.48.93-1.21s.59-1.38.46-1.45-.54.47-.93,1.21S515.8,277.58,515.93,277.65Z"/><path class="cls-9" d="M513.21,283c.13.06.54-.49.91-1.22s.57-1.4.44-1.46-.53.48-.9,1.22S513.08,282.93,513.21,283Z"/><path class="cls-9" d="M510.57,288.38c.13.07.53-.49.89-1.23s.55-1.4.42-1.46-.53.49-.89,1.23S510.44,288.32,510.57,288.38Z"/><path class="cls-9" d="M508,293.8c.13.07.52-.49.87-1.24s.53-1.41.4-1.47-.52.5-.87,1.25S507.87,293.74,508,293.8Z"/><path class="cls-9" d="M505.5,299.26c.14.06.52-.5.86-1.26s.51-1.41.38-1.47-.51.5-.85,1.26S505.37,299.2,505.5,299.26Z"/><path class="cls-9" d="M503.09,304.76c.13.06.5-.51.83-1.27s.5-1.42.36-1.48-.5.51-.83,1.27S503,304.7,503.09,304.76Z"/><path class="cls-9" d="M500.75,310.28c.13.06.5-.52.82-1.28s.47-1.43.34-1.48-.5.51-.82,1.28S500.62,310.23,500.75,310.28Z"/><path class="cls-9" d="M498.49,315.84c.14.06.5-.52.8-1.29s.46-1.44.32-1.49-.49.52-.8,1.29S498.36,315.79,498.49,315.84Z"/><path class="cls-9" d="M496.32,321.43c.13.05.48-.53.78-1.3s.43-1.44.3-1.5-.49.54-.79,1.31S496.18,321.38,496.32,321.43Z"/><path class="cls-9" d="M494.22,327.06c.14.05.48-.54.77-1.32s.41-1.45.27-1.5-.48.54-.76,1.32S494.09,327,494.22,327.06Z"/><path class="cls-9" d="M492.21,332.71c.14.05.47-.55.75-1.33s.38-1.45.25-1.5-.47.54-.75,1.33S492.08,332.66,492.21,332.71Z"/><path class="cls-9" d="M490.28,338.39c.14,0,.46-.56.73-1.34s.36-1.46.23-1.5-.46.55-.73,1.33S490.15,338.34,490.28,338.39Z"/><path class="cls-9" d="M488.44,344.1c.13,0,.45-.56.7-1.35s.35-1.47.21-1.51-.45.56-.71,1.35S488.3,344.05,488.44,344.1Z"/><path class="cls-9" d="M486.67,349.83c.14,0,.45-.57.69-1.36s.32-1.47.18-1.51-.44.57-.68,1.36S486.54,349.79,486.67,349.83Z"/><path class="cls-9" d="M485,355.59c.14,0,.44-.57.67-1.37s.3-1.47.16-1.51-.43.57-.66,1.37S484.86,355.55,485,355.59Z"/><path class="cls-9" d="M483.4,361.38c.14,0,.43-.58.64-1.38s.28-1.48.15-1.52-.43.58-.65,1.38S483.26,361.34,483.4,361.38Z"/><path class="cls-9" d="M481.89,367.18c.13,0,.41-.59.62-1.39s.26-1.48.12-1.51-.42.58-.62,1.38S481.75,367.15,481.89,367.18Z"/><path class="cls-9" d="M480.45,373c.14,0,.42-.59.61-1.4s.24-1.48.1-1.52-.41.59-.61,1.4S480.32,373,480.45,373Z"/><path class="cls-9" d="M479.11,378.85c.14,0,.4-.59.58-1.4s.22-1.49.08-1.52-.4.6-.58,1.4S479,378.82,479.11,378.85Z"/><path class="cls-9" d="M477.84,384.72c.14,0,.4-.6.57-1.41s.19-1.49,0-1.53-.39.61-.56,1.42S477.7,384.69,477.84,384.72Z"/><path class="cls-9" d="M476.66,390.6c.14,0,.38-.61.54-1.42s.18-1.49,0-1.52-.39.6-.55,1.42S476.52,390.57,476.66,390.6Z"/><path class="cls-9" d="M475.82,395c.14,0,.32-.28.4-.69s0-.75-.13-.78-.31.28-.39.69S475.68,395,475.82,395Z"/><polygon class="cls-9" points="484.2 395.01 482.78 399.68 455.08 400.04 456.22 395.5 484.2 395.01"/><path class="cls-9" d="M478.05,395.42a1.19,1.19,0,0,0,.11-.31c.06-.24.15-.55.26-.94.22-.87.54-2.08.94-3.63.82-3.18,2-7.73,3.44-13.34S486,364.87,488,357.43s4.18-15.59,6.8-24.06c1.33-4.23,2.81-8.3,4.38-12.17s3.14-7.6,4.66-11.13c3.08-7.05,6-13.34,8.43-18.61L518.14,279l1.61-3.38c.17-.37.31-.66.41-.89a1.38,1.38,0,0,0,.12-.3l-.17.28-.45.86c-.41.8-1,1.92-1.7,3.34-1.45,2.91-3.54,7.14-6,12.39s-5.43,11.53-8.53,18.58c-1.54,3.53-3.14,7.24-4.69,11.13s-3.08,8-4.41,12.2c-2.62,8.49-4.79,16.67-6.77,24.1s-3.66,14.15-5.08,19.8-2.49,10.19-3.27,13.38c-.37,1.56-.65,2.78-.85,3.65-.09.4-.16.71-.21.95A2.85,2.85,0,0,0,478.05,395.42Z"/><path class="cls-9" d="M564.4,372.48c-.11.09.24.68.78,1.31s1.06,1.06,1.17,1-.24-.68-.77-1.31S564.51,372.38,564.4,372.48Z"/><path class="cls-9" d="M560.56,367.87c-.11.09.23.68.76,1.32s1,1.08,1.15,1-.22-.68-.75-1.32S560.67,367.78,560.56,367.87Z"/><path class="cls-9" d="M556.78,363.2c-.11.09.22.69.74,1.34s1,1.09,1.15,1-.22-.68-.74-1.33S556.89,363.11,556.78,363.2Z"/><path class="cls-9" d="M553,358.51c-.11.09.22.69.73,1.34s1,1.1,1.14,1-.21-.69-.73-1.34S553.16,358.42,553,358.51Z"/><path class="cls-9" d="M549.32,353.81c-.11.09.21.69.73,1.34s1,1.1,1.13,1-.21-.69-.73-1.34S549.43,353.72,549.32,353.81Z"/><path class="cls-9" d="M545.59,349.11c-.11.09.21.69.73,1.34s1,1.1,1.14,1-.22-.69-.73-1.34S545.7,349,545.59,349.11Z"/><path class="cls-9" d="M541.83,344.43c-.12.1.22.69.74,1.34s1,1.09,1.14,1-.22-.69-.74-1.33S541.94,344.34,541.83,344.43Z"/><path class="cls-9" d="M538,339.8c-.11.1.23.69.76,1.32s1.05,1.08,1.16,1-.23-.68-.76-1.32S538.12,339.71,538,339.8Z"/><path class="cls-9" d="M534.12,335.24c-.11.09.25.67.78,1.3s1.07,1.06,1.18,1-.24-.68-.78-1.31S534.23,335.14,534.12,335.24Z"/><path class="cls-9" d="M530.23,330.67c-.11.09.23.68.77,1.31s1.06,1.07,1.17,1-.24-.68-.77-1.32S530.34,330.57,530.23,330.67Z"/><path class="cls-9" d="M526.46,326c-.12.09.21.68.72,1.34s1,1.1,1.14,1-.21-.69-.73-1.34S526.57,325.91,526.46,326Z"/><path class="cls-9" d="M523.93,320.64c-.14,0-.07.72.15,1.52a6.21,6.21,0,0,0,.36,1c.11.25.27.4.32.36s0-.19,0-.46a6.58,6.58,0,0,0-.21-1C524.36,321.22,524.07,320.6,523.93,320.64Z"/><path class="cls-9" d="M522.5,314.81c-.14,0-.1.71.09,1.52s.45,1.44.59,1.4.1-.71-.09-1.52S522.64,314.78,522.5,314.81Z"/><path class="cls-9" d="M521.29,308.94c-.14,0-.13.7,0,1.52s.41,1.45.55,1.42.12-.71,0-1.52S521.43,308.91,521.29,308.94Z"/><path class="cls-9" d="M520.24,303c-.14,0-.15.71,0,1.52s.37,1.46.51,1.44.14-.71,0-1.52S520.38,303,520.24,303Z"/><path class="cls-9" d="M519.26,297.12c-.14,0-.15.7,0,1.52s.35,1.46.5,1.43.14-.7,0-1.52S519.4,297.09,519.26,297.12Z"/><path class="cls-9" d="M518.43,292.12c-.14,0-.18.5-.08,1.06s.28,1,.42,1,.18-.5.09-1.07S518.57,292.09,518.43,292.12Z"/><polygon class="cls-9" points="573.33 375.77 569.48 370.72 550.46 391.36 554 395.57 573.33 375.77"/><path class="cls-15" d="M523.22,281.28s-15.69,55.59-15.9,55-3.41-12.52-3.41-12.52Z"/><path class="cls-11" d="M503.79,206.71,487,204.18s-7.85,17.12-10,17.69c-11.74,3.18-25.21,1.46-30,.68-.54-.43-1.17-1-1.88-1.6a7.31,7.31,0,0,1-1.5-1.94,11.52,11.52,0,0,1-1.15-2.84,1,1,0,0,0-1.74-.46c-.4.76-.08,3.34,1.58,5.89s-2.89,1.08-4.56.58-6.91-1.81-7.47-1.42c-.82.58-.36,1.56,1.32,2s6.61,2.2,6.31,3.07-8.77-1.82-8.77-1.82-1.71-.86-2.1.13c-.7,1.79,8.5,4,9.38,4.15.61.13.31,1.08-.34.91s-8.37-2.86-9.1-1c-.56,1.39,7.55,1.86,8.84,3.3s-6.12-1-6.6.37c-.18.51-.24.91,4.21,1.68a90.34,90.34,0,0,0,9.76.75v.05s41.43,9.86,51-8.25C503.66,208.17,503.79,206.71,503.79,206.71Z"/><path class="cls-9" d="M502,168.4c-1.46-1.14-3.67-.69-5.15.42a22.73,22.73,0,0,0-3.62,4.19c-1.16,1.44-2.68,2.79-4.53,2.93a4.76,4.76,0,0,0,7.77,2.21,4.1,4.1,0,0,0-1.32,1.3,1.42,1.42,0,0,0,.19,1.73,1.93,1.93,0,0,0,1.44.27,8.84,8.84,0,0,0,7.76-9.95,5.94,5.94,0,0,0-1.28-3.1,3.6,3.6,0,0,0-3-1.3"/><path class="cls-11" d="M503.26,184.37a56.42,56.42,0,0,0,0-6.86s-6-.64-6.4-6.62,0-19.79,0-19.79l11-5.37L519.06,155l-.24,29.22,6,.23-19.21,26.48c-2.66-10.28-6.14-19.81-6.27-26Z"/><path class="cls-8" d="M498.06,161.16a.77.77,0,1,0,1.53,0,.77.77,0,0,0-1.53,0Z"/><path class="cls-8" d="M497.32,160.33c.1.1.66-.39,1.49-.43s1.44.35,1.53.24-.06-.23-.33-.41a2,2,0,0,0-2.41.14C497.35,160.09,497.27,160.28,497.32,160.33Z"/><path class="cls-8" d="M506.94,161.16a.77.77,0,0,0,.76.77.78.78,0,0,0,.77-.77.77.77,0,0,0-.77-.76A.76.76,0,0,0,506.94,161.16Z"/><path class="cls-8" d="M506.46,160.33c.1.1.66-.39,1.49-.43s1.44.35,1.53.24-.06-.23-.33-.41a2,2,0,0,0-2.41.14C506.49,160.09,506.41,160.28,506.46,160.33Z"/><path class="cls-3" d="M506.21,168.07a15.09,15.09,0,0,1-4,1.37,2.31,2.31,0,0,0,2.73.78A1.71,1.71,0,0,0,506.21,168.07Z"/><path class="cls-12" d="M503.26,177.51a15,15,0,0,0,7.93-2.68s-1.8,4.39-7.8,4.15Z"/><path class="cls-9" d="M528.11,156.63c-3.61-12.39-14.23-14.81-16.4-14.81-2.33,0-6.4-1.28-12.33,4.89a13.09,13.09,0,0,0-2.25,3.1,13.43,13.43,0,0,0-2.65,5.64,6.82,6.82,0,0,0-.14,3c.12,0,.14-1.13.6-2.86a14.56,14.56,0,0,1,1.15-2.95,11.3,11.3,0,0,0,.61,6.89l2.13-.58,7.62-2.59c-.7-2.37.32-5.3.9-6.66l.06,0c1.74,8.95,11.61,9.88,11.61,9.88l-.49,17c10.13-2.17,10.26-13.23,10.19-16A28.28,28.28,0,0,0,528.11,156.63Z"/><path class="cls-8" d="M503.48,167.29a5.62,5.62,0,0,0-1.35-.17c-.2,0-.41,0-.46-.19a1.28,1.28,0,0,1,.12-.67l.57-1.71c.39-1.21.73-2.32.95-3.13a5.9,5.9,0,0,0,.31-1.32,5.09,5.09,0,0,0-.53,1.25c-.28.79-.66,1.88-1,3.1l-.54,1.72a1.31,1.31,0,0,0-.08.86.52.52,0,0,0,.35.3,1.54,1.54,0,0,0,.36,0A5.2,5.2,0,0,0,503.48,167.29Z"/><path class="cls-8" d="M517.4,162.42c-1.87-.36-3.44-.62-4-.66a5.24,5.24,0,0,0,.11-1,4.84,4.84,0,0,0-.95-2.87,4.78,4.78,0,0,0-2.25-1.68,4.86,4.86,0,0,0-2.54-.2,4.72,4.72,0,0,0-2,.93,4.67,4.67,0,0,0-1.7,2.66,3.46,3.46,0,0,0-.1.86c0,.19,0,.3,0,.3s0-.42.21-1.13a4.64,4.64,0,0,1,1.71-2.51,4.57,4.57,0,0,1,6.41,1,4.55,4.55,0,0,1-2.1,6.94,4.68,4.68,0,0,1-2.38.21,4.6,4.6,0,0,1-1.93-.84,4.66,4.66,0,0,1-1.71-2.5,5.08,5.08,0,0,1-.17-.87c.15,0,.24-.07.24-.12s-.11-.09-.28-.12v0s0,0,0,0a4.35,4.35,0,0,0-.57,0,2.92,2.92,0,0,0-.69.07v-.05a4.84,4.84,0,0,0-1-2.87,4.78,4.78,0,0,0-2.25-1.68A4.89,4.89,0,0,0,497,156a4.73,4.73,0,0,0-2,.93,4.67,4.67,0,0,0-1.7,2.66,3.46,3.46,0,0,0-.1.86,1,1,0,0,0,0,.3s0-.42.21-1.13a4.64,4.64,0,0,1,1.71-2.51,4.57,4.57,0,0,1,6.41,1,4.55,4.55,0,0,1-2.1,6.94,4.68,4.68,0,0,1-2.38.21,4.6,4.6,0,0,1-1.93-.84,4.66,4.66,0,0,1-1.71-2.5c-.19-.72-.18-1.14-.21-1.13a1,1,0,0,0,0,.3,3.51,3.51,0,0,0,.1.86,4.7,4.7,0,0,0,1.7,2.66,4.78,4.78,0,0,0,2,.92,5,5,0,0,0,2.55-.19,4.8,4.8,0,0,0,2.25-1.69,4.73,4.73,0,0,0,.93-2.63,2.51,2.51,0,0,0,.71.08,4.18,4.18,0,0,0,.56,0v0a3.51,3.51,0,0,0,.1.86,4.7,4.7,0,0,0,1.7,2.66,4.82,4.82,0,0,0,2,.92,5,5,0,0,0,2.54-.19,4.8,4.8,0,0,0,2.25-1.69,4.54,4.54,0,0,0,.81-1.8c.51.17,2.06.53,3.93.9a27.89,27.89,0,0,0,4.19.66A27.64,27.64,0,0,0,517.4,162.42Z"/><path class="cls-9" d="M525.31,170.63c1.45-1.14,3.66-.69,5.14.42a22.41,22.41,0,0,1,3.62,4.19c1.16,1.44,2.69,2.78,4.53,2.93a4.76,4.76,0,0,1-7.77,2.2,4.27,4.27,0,0,1,1.33,1.31,1.42,1.42,0,0,1-.2,1.72,1.84,1.84,0,0,1-1.44.27,8.83,8.83,0,0,1-7.75-9.94,5.92,5.92,0,0,1,1.27-3.11,3.57,3.57,0,0,1,3-1.29"/><path class="cls-8" d="M522.75,175.24c.08,0,0-.44.14-1.11a4.78,4.78,0,0,1,1-2.36,4.68,4.68,0,0,1,2.1-1.45c.63-.22,1.07-.25,1.07-.33s-.45-.17-1.17,0a4.28,4.28,0,0,0-2.41,1.48,4.35,4.35,0,0,0-1,2.66C522.52,174.83,522.69,175.26,522.75,175.24Z"/><path class="cls-9" d="M489.08,171.31s-.17-.15-.53-.12a1.55,1.55,0,0,0-1.19.9,1.92,1.92,0,0,0,.56,2.13,2.86,2.86,0,0,0,2.63.52,6.47,6.47,0,0,0,2.31-1.25,8.83,8.83,0,0,0,1.5-1.5,3.83,3.83,0,0,0,.94-1.7c-.08,0-.43.61-1.22,1.46a10.36,10.36,0,0,1-1.51,1.35,6.51,6.51,0,0,1-2.15,1.14,2.46,2.46,0,0,1-2.18-.38,1.53,1.53,0,0,1-.53-1.63,1.38,1.38,0,0,1,.88-.84C488.88,171.31,489.07,171.35,489.08,171.31Z"/><path class="cls-9" d="M528.19,171.55c0,.08.65.24,1.57.79s2.06,1.51,3.44,2.51a8.84,8.84,0,0,0,2.14,1.13,4.92,4.92,0,0,0,2,.26c1.16-.1,1.73-.63,1.68-.67a7.24,7.24,0,0,1-1.69.3,6.63,6.63,0,0,1-3.8-1.45,26.4,26.4,0,0,0-3.57-2.41A3.28,3.28,0,0,0,528.19,171.55Z"/><path class="cls-8" d="M523.14,158.83c0-.09-1.09.15-2.84.09A13.91,13.91,0,0,1,509,152.53c-.95-1.46-1.31-2.5-1.39-2.47a2,2,0,0,0,.18.75,11.65,11.65,0,0,0,.9,1.91,13.23,13.23,0,0,0,11.66,6.57,11.93,11.93,0,0,0,2.1-.22C522.89,159,523.15,158.87,523.14,158.83Z"/><path class="cls-10" d="M492.42,223.63l-15.28-11,17.11-23.94h0a10.45,10.45,0,0,1,8.6-4.47s-2.26,14.42,6.81,14.53S520,184.32,520,184.32l.06-.28,1.44.06V184s.71,0,1.78.13l2.76.11.12.26a15.94,15.94,0,0,1,5.94,2c3.18,2.2,19.79,21.33,19.79,21.33l-17.27,12.72-3.7-4.8-1.75,7.05c-1.46,5.88,5.62,19.84,5.45,26.33L490.86,254l1.54-22.12Z"/><path class="cls-15" d="M492.42,223.63l-15.28-11,17.11-23.94h0a10.45,10.45,0,0,1,8.6-4.47s-2.26,14.42,6.81,14.53S520,184.32,520,184.32l.06-.28,1.44.06V184s.71,0,1.78.13l2.76.11.12.26a15.94,15.94,0,0,1,5.94,2c3.18,2.2,19.79,21.33,19.79,21.33l-17.27,12.72-3.7-4.8-1.75,7.05c-1.46,5.88,5.62,19.84,5.45,26.33L490.86,254l1.54-22.12Z"/><path class="cls-3" d="M484.78,202.9s.26,0,.75,0a4.4,4.4,0,0,1,2,.66,8.92,8.92,0,0,1,2.41,2.32,12.94,12.94,0,0,0,3.24,3.19,11,11,0,0,0,5.23,1.73,10.7,10.7,0,0,0,6.17-1.42c1.94-1.15,3.53-3,5.69-3.87s4.75-.37,7,.78,4.19,2.75,6.36,3.87a11.57,11.57,0,0,0,3.41,1.2,9.8,9.8,0,0,0,3.46,0,10.21,10.21,0,0,0,5.59-2.94,20.39,20.39,0,0,1,4-3.64,8,8,0,0,1,4.26-1,8.82,8.82,0,0,1,3.24.82,8.67,8.67,0,0,1,1.78,1.16,3.52,3.52,0,0,0,.56.5,4.15,4.15,0,0,0-.49-.58,8.29,8.29,0,0,0-1.76-1.27,8.91,8.91,0,0,0-3.31-.92,8.23,8.23,0,0,0-4.46.94,20.38,20.38,0,0,0-4.11,3.65,9.77,9.77,0,0,1-5.37,2.78,10.07,10.07,0,0,1-6.55-1.17c-2.11-1.09-4-2.71-6.36-3.89a12,12,0,0,0-3.65-1.22,6.89,6.89,0,0,0-3.74.44c-2.31,1-3.88,2.83-5.74,3.93a10.31,10.31,0,0,1-5.89,1.4,10.77,10.77,0,0,1-5.07-1.61,12.57,12.57,0,0,1-3.2-3.07,9,9,0,0,0-2.54-2.31,4.19,4.19,0,0,0-2.09-.58A2.26,2.26,0,0,0,484.78,202.9Z"/><path class="cls-3" d="M491.59,192.57a12,12,0,0,1,1.94.57,11.25,11.25,0,0,1,2.07,1.16,23.59,23.59,0,0,1,2.44,2,33.64,33.64,0,0,0,3,2.46,15.21,15.21,0,0,0,4,2,15.56,15.56,0,0,0,10.1-.21c3.43-1.27,6.23-3.33,8.91-4.87a29.36,29.36,0,0,1,3.91-2,17.07,17.07,0,0,1,3.65-1.07,12.06,12.06,0,0,1,5.45.25c1.25.37,1.88.76,1.9.71a1.9,1.9,0,0,0-.44-.29,8.69,8.69,0,0,0-1.4-.62,11.87,11.87,0,0,0-5.57-.42,17.68,17.68,0,0,0-3.75,1,28.75,28.75,0,0,0-4,2c-2.71,1.54-5.51,3.57-8.85,4.8a15,15,0,0,1-5.05.93,15.2,15.2,0,0,1-4.73-.69,15,15,0,0,1-3.92-1.87,32.35,32.35,0,0,1-3-2.38,26.15,26.15,0,0,0-2.53-2,11,11,0,0,0-2.16-1.1,7.83,7.83,0,0,0-1.48-.37A1.34,1.34,0,0,0,491.59,192.57Z"/><path class="cls-3" d="M519.15,188.36a9.55,9.55,0,0,0,1.78-.62,20.12,20.12,0,0,1,4.38-1,19.82,19.82,0,0,1,4.48,0,10.89,10.89,0,0,0,1.88.22,5,5,0,0,0-1.82-.59,15.38,15.38,0,0,0-9.05,1,9,9,0,0,0-1.24.64C519.28,188.22,519.13,188.33,519.15,188.36Z"/><path class="cls-3" d="M495.87,187c0,.05.22.39.77.83a8.09,8.09,0,0,0,2.42,1.26,8,8,0,0,0,2.71.37c.7,0,1.11-.16,1.1-.22a13.93,13.93,0,0,1-7-2.24Z"/><path class="cls-3" d="M480.94,215.21a1.72,1.72,0,0,0,.36.37,5.41,5.41,0,0,0,1.26.8A9.82,9.82,0,0,0,488,217c1.15-.14,2.38-.41,3.69-.65a20.39,20.39,0,0,1,4.22-.38,36.26,36.26,0,0,1,9.57,1.8,88.56,88.56,0,0,0,9.51,2.61,21.16,21.16,0,0,0,8.06.13,13.52,13.52,0,0,0,5.06-2,9.23,9.23,0,0,0,1.16-.91,2.05,2.05,0,0,0,.36-.37s-.16.08-.42.29-.67.49-1.21.82a14.31,14.31,0,0,1-5,1.8,21.37,21.37,0,0,1-7.9-.24,97.62,97.62,0,0,1-9.45-2.64,35.62,35.62,0,0,0-9.71-1.78,20.23,20.23,0,0,0-4.31.44c-1.32.26-2.54.54-3.66.71a9.92,9.92,0,0,1-5.26-.42A9.48,9.48,0,0,1,480.94,215.21Z"/><path class="cls-8" d="M520.93,204.22a24.55,24.55,0,0,0,2,2.44c1.28,1.47,3,3.51,4.89,5.81s3.54,4.41,4.74,5.94a22,22,0,0,0,2,2.43,17.39,17.39,0,0,0-1.72-2.65c-1.13-1.59-2.75-3.74-4.63-6.05s-3.68-4.32-5-5.73A16.42,16.42,0,0,0,520.93,204.22Z"/><path class="cls-8" d="M495.09,223.24c.07-.06-.87-1.12-2.14-3a12.39,12.39,0,0,1-1.67-3.52,7,7,0,0,1-.23-2.25,7.84,7.84,0,0,1,.61-2.36,21.09,21.09,0,0,1,2.55-4.08,26.71,26.71,0,0,0,2.22-3.34,9.08,9.08,0,0,0,.89-2.58,2.89,2.89,0,0,0,0-1,4,4,0,0,0-.22,1,10.4,10.4,0,0,1-1,2.44,30.81,30.81,0,0,1-2.27,3.24,19.41,19.41,0,0,0-2.65,4.16,7.85,7.85,0,0,0-.63,2.52,7,7,0,0,0,.26,2.41,11.54,11.54,0,0,0,1.84,3.6,22.39,22.39,0,0,0,1.72,2.09A3.37,3.37,0,0,0,495.09,223.24Z"/><path class="cls-8" d="M502.41,184.48s0,.53.09,1.48.05,2.34.09,4.06a13.29,13.29,0,0,0,1.3,5.94,6.35,6.35,0,0,0,2.55,2.62,7,7,0,0,0,3.84.75,8,8,0,0,0,3.7-1.28,10,10,0,0,0,2.62-2.51,15.11,15.11,0,0,0,2.48-5.54,30.89,30.89,0,0,0,.66-4,7.92,7.92,0,0,0,.09-1.49,8.44,8.44,0,0,0-.29,1.46c-.17.95-.38,2.32-.82,4a15.49,15.49,0,0,1-2.5,5.36,8.5,8.5,0,0,1-6,3.55,6.48,6.48,0,0,1-3.56-.68,6,6,0,0,1-2.37-2.4A13.31,13.31,0,0,1,503,190c-.09-1.71-.13-3.11-.26-4.06a10.9,10.9,0,0,0-.18-1.1C502.46,184.6,502.43,184.47,502.41,184.48Z"/><path class="cls-10" d="M460.8,270.94l-2-41.07a6,6,0,0,1,5.71-6.28l119.19-5.67a6,6,0,0,1,6.28,5.71l2,41.06a6,6,0,0,1-5.71,6.29l-102.84,4.89-10.64,11.4L472,276.42l-4.9.23A6,6,0,0,1,460.8,270.94Z"/><rect class="cls-6" x="473.28" y="238.69" width="63.21" height="3.48" transform="matrix(-1, 0.05, -0.05, -1, 1020.64, 456.59)"/><rect class="cls-6" x="473.71" y="247.64" width="63.21" height="3.48" transform="matrix(-1, 0.05, -0.05, -1, 1021.91, 474.46)"/><rect class="cls-6" x="505.98" y="255.58" width="31.33" height="3.48" transform="translate(1054.95 489.56) rotate(177.27)"/><circle class="cls-7" cx="565.32" cy="245.39" r="20.82" transform="translate(190.96 734.95) rotate(-76.06)"/><path class="cls-13" d="M554.92,240.64a.87.87,0,0,0,.11.09,6,6,0,0,0,2.62.62c5.59.55,9.31-2.85,12.14-3.28s2.76,2.9,2.76,2.9l.22,7.86,1.38,0,.66-4.67a3.39,3.39,0,0,1,1.16,0c1.13.15,2.67.89,2.58,3.8-.11,3.3-2.56,3.29-3.86,3l.49,12.81A20.48,20.48,0,0,1,562.34,266c-.13-1.22-.27-2.62-.36-3.61,5.28-.1,6.49-4.05,6.49-4.05a12.28,12.28,0,0,1-6.63,2.69v.08c-.11,0-5.34-.3-6-5.48C555.42,251.84,555.08,244.46,554.92,240.64Zm20.56,8.67a.84.84,0,0,0,.71.14,2,2,0,0,0,1.2-1.9,2.58,2.58,0,0,0-.23-1.26,1.13,1.13,0,0,0-.79-.73.63.63,0,0,0-.44.1.58.58,0,0,0-.19.28c0,.18,0,.27.06.26s0-.09.06-.22a.41.41,0,0,1,.47-.2.94.94,0,0,1,.57.62,2.74,2.74,0,0,1,.18,1.13,1.94,1.94,0,0,1-1,1.71.81.81,0,0,1-.59,0c-.13-.07-.18-.14-.2-.13S575.34,249.19,575.48,249.31Zm-9.3-3.8s-.06-.2-.31-.35a1.78,1.78,0,0,0-2.11.26c-.21.2-.26.38-.22.41s.56-.37,1.29-.45S566.11,245.61,566.18,245.51Zm-2.3,1.34a.77.77,0,1,0,1.21-.94.76.76,0,0,0-1.07-.13A.75.75,0,0,0,563.88,246.85ZM558,245.39a1.72,1.72,0,0,0-1.1-.22,1.77,1.77,0,0,0-1,.47c-.2.21-.26.38-.22.42s.57-.37,1.29-.46,1.29.24,1.36.14S558.2,245.54,558,245.39Zm1.87,4.29c-.13.53-.26,1-.38,1.54a1.17,1.17,0,0,0,0,.79.51.51,0,0,0,.36.27,1.21,1.21,0,0,0,.33,0,3.43,3.43,0,0,0,1.19-.17,3.47,3.47,0,0,0-1.2-.12c-.19,0-.34,0-.37-.12a1,1,0,0,1,.08-.56c.13-.5.27-1,.41-1.53a20.11,20.11,0,0,0,.81-4A20.87,20.87,0,0,0,559.82,249.68Zm2.92,4.93c1.51-.75,1-2,1-2,.7-.53-2,1.33-3.43,1.42A2,2,0,0,0,562.74,254.61Zm-6.8-7.43a.78.78,0,0,0,1.09-.06A.77.77,0,0,0,557,246a.76.76,0,0,0-1.08.07A.77.77,0,0,0,555.94,247.18Z"/><path class="cls-8" d="M555.88,246.1A.76.76,0,0,1,557,246a.77.77,0,0,1,.07,1.09.78.78,0,0,1-1.09.06A.77.77,0,0,1,555.88,246.1Z"/><path class="cls-8" d="M556.91,245.6c-.72.09-1.2.54-1.29.46s0-.21.22-.42a1.77,1.77,0,0,1,1-.47,1.72,1.72,0,0,1,1.1.22c.25.15.35.3.32.35S557.63,245.51,556.91,245.6Z"/><path class="cls-8" d="M564,245.78a.76.76,0,0,1,1.07.13.77.77,0,1,1-1.21.94A.75.75,0,0,1,564,245.78Z"/><path class="cls-8" d="M563.54,245.83s0-.21.22-.41a1.78,1.78,0,0,1,2.11-.26c.25.15.35.31.31.35s-.63-.22-1.35-.13S563.63,245.92,563.54,245.83Z"/><path class="cls-8" d="M559.81,251.31a1,1,0,0,0-.08.56c0,.1.18.12.37.12a3.47,3.47,0,0,1,1.2.12,3.43,3.43,0,0,1-1.19.17,1.21,1.21,0,0,1-.33,0,.51.51,0,0,1-.36-.27,1.17,1.17,0,0,1,0-.79c.12-.51.25-1,.38-1.54a20.87,20.87,0,0,1,1.21-3.9,20.11,20.11,0,0,1-.81,4C560.08,250.31,559.94,250.81,559.81,251.31Z"/><path class="cls-3" d="M563.73,252.65s.52,1.21-1,2a2,2,0,0,1-2.44-.54C561.78,254,564.43,252.12,563.73,252.65Z"/><path class="cls-14" d="M568.47,258.33s-1.21,3.95-6.49,4.05h0l-.13-1.28V261A12.28,12.28,0,0,0,568.47,258.33Z"/><path class="cls-8" d="M574.15,248.79l-1.38,0-.22-7.86s.07-3.32-2.76-2.9-6.55,3.83-12.14,3.28a6,6,0,0,1-2.62-.62.87.87,0,0,1-.11-.09,2.5,2.5,0,0,1-1.18-2.15,1.74,1.74,0,0,1,1.81-1.63,2,2,0,1,1,.91-3.71,5.91,5.91,0,0,1-1.6-1.82,2,2,0,0,1,.27-2.27,2.22,2.22,0,0,1,2.27-.25c1.14.43,2.07,1.33,3.23,1.67a12.51,12.51,0,0,0,3.67.08,6.54,6.54,0,0,1,3.85,1.13,4.38,4.38,0,0,1,1.87,3.46c1.7-.29,3.6-.41,5,.6a4.92,4.92,0,0,1,1.84,3.81,14.54,14.54,0,0,1-.82,4.29h0c0,.1-.06.17-.08.25a3.39,3.39,0,0,0-1.16,0Z"/><path class="cls-14" d="M575.54,249.21a.81.81,0,0,0,.59,0,1.94,1.94,0,0,0,1-1.71,2.74,2.74,0,0,0-.18-1.13.94.94,0,0,0-.57-.62.41.41,0,0,0-.47.2c-.07.13,0,.22-.06.22s-.1-.08-.06-.26a.58.58,0,0,1,.19-.28.63.63,0,0,1,.44-.1,1.13,1.13,0,0,1,.79.73,2.58,2.58,0,0,1,.23,1.26,2,2,0,0,1-1.2,1.9.84.84,0,0,1-.71-.14c-.14-.12-.16-.22-.14-.23S575.41,249.14,575.54,249.21Z"/><path class="cls-11" d="M537.52,266.8c2-1.21,4.43-2.93,4.64-4v0c.16-.87.26-1.53.3-1.76,1-6.92,1.81-23.06.64-32.54-.12-1-3.47-4.82-7.23-8.84l12.55-9.25,2,2.5c10.64,13.33,6.87,39.88,4.8,50.52h0l-1.13,5.8s-.93,6.37-1.77,6.76-1.31-.55-1.31-.55-.89,1.1-1.61,1c-.93-.11-1.37-1.8-1.37-1.8s-.84,1.37-1.64,1.36c-1,0-1.22-1.64-1.22-1.64a2.67,2.67,0,0,1-2.29,1.34,1.59,1.59,0,0,1-1.35-1.17s1.38-6,.57-6.59-2.05.48-2.55.68-3.56,1.52-5.11.66S535.53,268,537.52,266.8Z"/></g></svg>