<svg xmlns="http://www.w3.org/2000/svg" viewBox="0 0 675.79 473.66"><defs><style>.cls-1{fill:#e0e0e0;}.cls-2{fill:#f5f5f5;}.cls-3{fill:#fff;}.cls-4{fill:#ebebeb;}.cls-5{fill:#fafafa;}.cls-6{fill:#263238;}.cls-7{fill:#455a64;}.cls-8{opacity:0.3;}.cls-9{fill:#2f57a4;}.cls-10{fill:#ffbf9d;}.cls-11{fill:#ff9a6c;}.cls-12{fill:#ff725e;}</style></defs><g id="Background_Complete" data-name="Background Complete"><rect class="cls-1" x="560.76" y="78.08" width="101.4" height="146.98"/><rect class="cls-2" x="555.68" y="78.08" width="101.4" height="146.98"/><rect class="cls-3" x="568.28" y="94" width="76.21" height="115.14"/><path class="cls-1" d="M644.48,209.14s0-.2,0-.56,0-.93,0-1.64c0-1.44,0-3.56,0-6.31,0-5.52,0-13.56-.07-23.72,0-20.3-.07-49-.12-82.91l.25.25-76.19,0h0l.27-.27c0,43.43,0,83.48,0,115.14l-.22-.22,55.46.12,15.33.05,4,0c.91,0,1.39,0,1.39,0s-.45,0-1.34,0l-4,0-15.28.05-55.6.12h-.22v-.22c0-31.66,0-71.71-.06-115.14v-.28h.29l76.19,0h.26V94c-.06,33.92-.1,62.73-.13,83.08,0,10.13-.05,18.15-.07,23.66,0,2.73,0,4.83,0,6.26,0,.7,0,1.23,0,1.61S644.48,209.14,644.48,209.14Z"/><path class="cls-1" d="M657.37,78.08a19.11,19.11,0,0,1-1.81,2.63c-1.18,1.57-2.85,3.71-4.76,6s-3.69,4.37-5,5.83a18.32,18.32,0,0,1-2.23,2.27,18.75,18.75,0,0,1,1.93-2.53l4.88-5.92,4.88-5.93A18,18,0,0,1,657.37,78.08Z"/><path class="cls-3" d="M644.87,208.77a94.23,94.23,0,0,0,13.29,16.62"/><path class="cls-1" d="M658.16,225.39a15.21,15.21,0,0,1-2.32-2.11,73.69,73.69,0,0,1-9.42-11.79,15.31,15.31,0,0,1-1.55-2.72,21.85,21.85,0,0,1,1.87,2.5c1.12,1.57,2.69,3.72,4.52,6s3.58,4.3,4.87,5.74A20.28,20.28,0,0,1,658.16,225.39Z"/><path class="cls-3" d="M555.66,224.94,569,208.55"/><path class="cls-1" d="M569,208.55a101.13,101.13,0,0,1-6.43,8.37,98.74,98.74,0,0,1-6.86,8,105.22,105.22,0,0,1,6.43-8.37A103.14,103.14,0,0,1,569,208.55Z"/><path class="cls-1" d="M555.68,78.08a91.58,91.58,0,0,1,6.44,7.71,89.09,89.09,0,0,1,6,8,92.43,92.43,0,0,1-6.45-7.71A91.75,91.75,0,0,1,555.68,78.08Z"/><rect class="cls-1" x="595.22" y="117.38" width="25.52" height="72.45"/><rect class="cls-1" x="10.55" y="80.35" width="101.4" height="146.98"/><rect class="cls-2" x="5.47" y="80.35" width="101.4" height="146.98"/><rect class="cls-3" x="18.07" y="96.27" width="76.21" height="115.14"/><path class="cls-1" d="M94.27,211.41s0-.2,0-.57,0-.92,0-1.63c0-1.45,0-3.56,0-6.31,0-5.52,0-13.56-.06-23.72,0-20.31-.08-49.06-.13-82.91l.25.25-76.19,0h0l.27-.27c0,43.43,0,83.48-.05,115.14l-.22-.22,55.47.11,15.32.06,4,0,1.39,0-1.34,0-4,0-15.28,0-55.6.12h-.22v-.22c0-31.66,0-71.71-.06-115.14V96h.29l76.19,0h.26v.26c0,33.92-.1,62.73-.13,83.07,0,10.14-.05,18.16-.06,23.66,0,2.73,0,4.83,0,6.27,0,.7,0,1.23,0,1.6S94.27,211.41,94.27,211.41Z"/><path class="cls-1" d="M107.16,80.35A17.69,17.69,0,0,1,105.35,83c-1.18,1.58-2.85,3.72-4.76,6s-3.69,4.37-5,5.82a17.26,17.26,0,0,1-2.23,2.28,18.75,18.75,0,0,1,1.93-2.53l4.89-5.92L105,82.73A18.86,18.86,0,0,1,107.16,80.35Z"/><path class="cls-3" d="M94.66,211A95.43,95.43,0,0,0,108,227.66"/><path class="cls-1" d="M108,227.66a15.61,15.61,0,0,1-2.31-2.11,72.86,72.86,0,0,1-5-5.65,74.55,74.55,0,0,1-4.41-6.14A15.73,15.73,0,0,1,94.66,211a19.75,19.75,0,0,1,1.87,2.5c1.12,1.57,2.69,3.72,4.52,6s3.59,4.3,4.87,5.73A19.54,19.54,0,0,1,108,227.66Z"/><path class="cls-3" d="M5.46,227.21l13.28-16.39"/><path class="cls-1" d="M18.74,210.82a100.43,100.43,0,0,1-6.43,8.37,104.73,104.73,0,0,1-6.85,8,98.88,98.88,0,0,1,6.42-8.37A103.14,103.14,0,0,1,18.74,210.82Z"/><path class="cls-1" d="M5.47,80.35a89.28,89.28,0,0,1,6.45,7.7,91.75,91.75,0,0,1,6,8,91.47,91.47,0,0,1-6.45-7.7A93.53,93.53,0,0,1,5.47,80.35Z"/><rect class="cls-1" x="45.02" y="119.64" width="25.52" height="72.45"/><path class="cls-4" d="M310.08,378.7a28.9,28.9,0,0,1,7-3l1.44-6.91,11.67-.21,1.68,6.86a28.79,28.79,0,0,1,7.09,2.78l5.9-3.86,8.39,8.11-3.65,6a28.9,28.9,0,0,1,3,7l6.91,1.44.2,11.67-6.85,1.68a28.21,28.21,0,0,1-2.79,7.08l3.87,5.9-8.11,8.4-6-3.66a28.55,28.55,0,0,1-7,3l-1.44,6.91-11.67.2L318,431.26a28.59,28.59,0,0,1-7.08-2.79l-5.9,3.87-8.4-8.11,3.65-6a28.9,28.9,0,0,1-3-7l-6.91-1.44-.2-11.67,6.85-1.68a28.43,28.43,0,0,1,2.79-7.09l-3.87-5.9,8.11-8.4,6,3.66Zm6.22,15.55a12.53,12.53,0,1,0,17.71-.31A12.53,12.53,0,0,0,316.3,394.25Z"/><path class="cls-4" d="M248.47,371.17a19.87,19.87,0,0,1,4.79-2.08l1-4.73,8-.14,1.15,4.69a19.75,19.75,0,0,1,4.85,1.91l4.05-2.65,5.76,5.56-2.51,4.14a19.64,19.64,0,0,1,2.08,4.78l4.74,1,.14,8-4.7,1.15a20,20,0,0,1-1.91,4.86l2.65,4L273,407.45l-4.14-2.51a19.26,19.26,0,0,1-4.78,2.08l-1,4.74-8,.14-1.15-4.7a19.58,19.58,0,0,1-4.86-1.91l-4,2.65-5.76-5.56,2.51-4.13a19.49,19.49,0,0,1-2.08-4.79l-4.74-1-.14-8,4.7-1.15a19.51,19.51,0,0,1,1.91-4.85l-2.65-4.05,5.56-5.76,4.13,2.51Zm4.27,10.66a8.59,8.59,0,1,0,12.14-.21A8.59,8.59,0,0,0,252.74,381.83Z"/><path class="cls-4" d="M382.7,399.13a15,15,0,0,1,3.61-1.57l.74-3.57,6-.1.86,3.54a14.74,14.74,0,0,1,3.67,1.44l3.05-2,4.34,4.19-1.89,3.12a15,15,0,0,1,1.57,3.61l3.57.74.1,6-3.54.87a14.82,14.82,0,0,1-1.44,3.66l2,3-4.19,4.34-3.12-1.89a15,15,0,0,1-3.61,1.57l-.74,3.57-6,.1-.87-3.54a14.82,14.82,0,0,1-3.66-1.44l-3,2-4.34-4.19,1.89-3.12a15,15,0,0,1-1.57-3.61l-3.57-.74-.11-6,3.55-.87a14.82,14.82,0,0,1,1.44-3.66l-2-3.05,4.19-4.34,3.12,1.89Zm3.22,8a6.47,6.47,0,1,0,9.15-.16A6.47,6.47,0,0,0,385.92,407.17Z"/><path class="cls-4" d="M449.55,186.63a20.93,20.93,0,0,1,5.08-2.21l1.05-5,8.51-.15,1.23,5a21.07,21.07,0,0,1,5.16,2l4.3-2.81,6.12,5.91-2.66,4.39a21.22,21.22,0,0,1,2.21,5.09l5,1,.15,8.51-5,1.22a20.56,20.56,0,0,1-2,5.16l2.82,4.31-5.91,6.12-4.39-2.67a21,21,0,0,1-5.09,2.21l-1.05,5-8.51.15-1.22-5a20.74,20.74,0,0,1-5.17-2l-4.3,2.82-6.12-5.91,2.67-4.4a20.46,20.46,0,0,1-2.21-5.09l-5-1-.15-8.51,5-1.23a20.68,20.68,0,0,1,2-5.16l-2.82-4.3,5.91-6.12,4.4,2.66ZM454.08,198a9.13,9.13,0,1,0,12.91-.23A9.13,9.13,0,0,0,454.08,198Z"/><path class="cls-4" d="M176.2,17.93a28.87,28.87,0,0,1,7.09-3.08l1.46-7,11.85-.21,1.71,7a29.63,29.63,0,0,1,7.19,2.83l6-3.92L220,21.72l-3.72,6.12a28.5,28.5,0,0,1,3.08,7.09l7,1.46.21,11.85-7,1.71a29.23,29.23,0,0,1-2.83,7.19l3.92,6-8.23,8.53L206.39,68A29.25,29.25,0,0,1,199.3,71l-1.46,7L186,78.25l-1.71-7a29.23,29.23,0,0,1-7.19-2.83l-6,3.93-8.53-8.24L166.29,58a28.5,28.5,0,0,1-3.08-7.09l-7-1.46L156,37.63l7-1.71a29.23,29.23,0,0,1,2.83-7.19l-3.93-6,8.24-8.53,6.12,3.72Zm6.32,15.79a12.72,12.72,0,1,0,18-.32A12.71,12.71,0,0,0,182.52,33.72Z"/><path class="cls-4" d="M188.53,298a12.71,12.71,0,0,1,3.17-1.38l.65-3.14,5.31-.09.76,3.11a13.09,13.09,0,0,1,3.22,1.27l2.69-1.76,3.81,3.69-1.66,2.74a12.71,12.71,0,0,1,1.38,3.17l3.14.66.1,5.3-3.12.77a13,13,0,0,1-1.27,3.22l1.76,2.68-3.69,3.82L202,320.4a12.71,12.71,0,0,1-3.17,1.38l-.65,3.14-5.31.1-.77-3.12a12.42,12.42,0,0,1-3.21-1.27l-2.69,1.76-3.82-3.68,1.67-2.75a12.71,12.71,0,0,1-1.38-3.17l-3.14-.65-.1-5.31,3.12-.76a12.71,12.71,0,0,1,1.27-3.22l-1.76-2.68,3.69-3.82,2.74,1.66Zm2.83,7.07a5.69,5.69,0,1,0,8-.14A5.69,5.69,0,0,0,191.36,305.08Z"/><path class="cls-1" d="M40.56,374.58a30.06,30.06,0,0,0-12.9-4.43c-2.1-.22-4.41-.16-6.1,1.12a1.26,1.26,0,0,0-.62,1.11,1.34,1.34,0,0,0,.59.76,18.44,18.44,0,0,0,19,1.44"/><path class="cls-1" d="M40.23,374.22a62.53,62.53,0,0,1-8.33-7.33,21.09,21.09,0,0,1-5.22-9.65,3.85,3.85,0,0,1,.41-3.23c6.64,5.18,11.85,11.88,13.14,20.21"/><path class="cls-1" d="M40.49,374.53a30.18,30.18,0,0,1,.15-10.93,14.79,14.79,0,0,1,5.83-9c1.14,2.68.65,5.77-.16,8.57a41.94,41.94,0,0,1-5.77,12.16"/><path class="cls-1" d="M47,386.19a19,19,0,0,0-10.33,5.24,19.58,19.58,0,0,0-5.92,10.15c3.88-.24,7.16-3,9.55-6s4-6.42,6.65-9.29"/><path class="cls-1" d="M48.41,388.06a25.51,25.51,0,0,1,2.94-24.12c2.25,8,1.43,17-2.94,24.12"/><path class="cls-1" d="M57,398.3a18.44,18.44,0,0,0-17.64,10.14c-.21.44-.41,1-.11,1.39a1.28,1.28,0,0,0,1.16.34c3.48-.22,6.56-2.31,9.1-4.7s4.76-5.13,7.56-7.19"/><path class="cls-1" d="M56.73,397.74a32.91,32.91,0,0,1-.33-18.35c.65-2.36,1.73-4.84,3.92-5.95a.76.76,0,0,1,.6-.11.83.83,0,0,1,.38.44,11.17,11.17,0,0,1,.92,5.27,32.16,32.16,0,0,1-.83,5.32c-.68,3.26-1,6.76-2.84,9.57a19.19,19.19,0,0,0-1.13,2.1c-.34.71-.34,1-.65,1.53"/><path class="cls-1" d="M79.49,401.13a23.61,23.61,0,0,1,4.15-19.45c.29-.39.69-.8,1.17-.76.75.07.94,1.06.91,1.81a35.12,35.12,0,0,1-6.23,18.4"/><path class="cls-1" d="M81.54,402.53a28.27,28.27,0,0,0,23.21-4.72,18.75,18.75,0,0,0-12.56-1.54c-4.2,1-8,2.84-10.65,6.26"/><path class="cls-1" d="M83.27,398.26a26.84,26.84,0,0,1,21.07-12.18c-1,3.39-3.75,6-6.89,7.62a38.19,38.19,0,0,1-10.11,2.95c-1.35.27-3.2.55-4.07,1.61"/><path class="cls-1" d="M79.92,377.54a61,61,0,0,0,2.7-12.34A20.59,20.59,0,0,0,80.16,353c-4.08,7.88-4.49,17.1-.36,25"/><path class="cls-1" d="M93.65,370.6c4.77-8.66,14.49-15.58,24.33-16.55-3.79,9.45-14.15,16.75-24.33,16.55"/><path class="cls-1" d="M90.65,372.3c7.11,1.08,13.17,5.62,19.81,8.38a9,9,0,0,0,4.48.85,3.5,3.5,0,0,0,2.19-6.2,9.54,9.54,0,0,0-3.25-2c-7.24-3-15-3.09-22.62-1.26"/><path class="cls-1" d="M86.54,377.29c1.6.46,2.15,1.29,3.43,2.38a37.05,37.05,0,0,0,15,7.71c.58.15,1.33.2,1.61-.32s-.06-1-.39-1.4a20.6,20.6,0,0,0-9.07-6.16c-3.46-1.29-6.47-2.85-10.6-2.51"/><path class="cls-1" d="M81.89,347.17a28.39,28.39,0,0,0,21.8,7.41,1.48,1.48,0,0,0,1-.35c.55-.6-.11-1.52-.75-2-6.41-5-14.17-7.07-22-5"/><path class="cls-1" d="M87.4,345.15a30.38,30.38,0,0,1,27.2-4.48,21.66,21.66,0,0,1-13,5.69,41.16,41.16,0,0,1-14.23-1.21"/><path class="cls-1" d="M85.21,331.31c-.63-6.39-.22-11.44-.67-17.87,0-.51-.14-1.13-.62-1.31-.67-.26-1.23.56-1.45,1.24a20.5,20.5,0,0,0,2.73,17.8"/><path class="cls-1" d="M84.75,332a37.49,37.49,0,0,0,10.59-10.3c2.1-2.86,3.86-6.29,3.39-9.81a10.2,10.2,0,0,0-7.65,3.8,21.3,21.3,0,0,0-3.89,7.84c-.85,2.81-1.45,5.71-2.44,8.47"/><path class="cls-1" d="M95.16,329.13a85.31,85.31,0,0,0,26.07-15.38c-3.11-1.25-6.68-.5-9.79.76A30.91,30.91,0,0,0,95,329.06"/><path class="cls-1" d="M87.68,335.52a52.81,52.81,0,0,0,14.48.07c4.69-.78,9.13-2.64,13.51-4.49a1.57,1.57,0,0,0,.92-.7,1,1,0,0,0-.33-1.15,2.71,2.71,0,0,0-1.15-.54c-4.77-1.34-9.92-.71-14.61.87a67.47,67.47,0,0,0-12.82,5.94"/><path class="cls-1" d="M60.19,347.39a25.62,25.62,0,0,1-.23-21.2c2,3,2.24,6.92,1.87,10.54s-1.47,7.35-1.54,11"/><path class="cls-1" d="M47.07,340.77a29.56,29.56,0,0,0-22,9.36,20.54,20.54,0,0,0,12-2.23A61.61,61.61,0,0,0,47.44,341"/><path class="cls-1" d="M38.25,337.82c-4-.32-7.87-.82-11.73.36a14.07,14.07,0,0,0-8.94,7.58,21.23,21.23,0,0,0,11-2.08,62.42,62.42,0,0,0,9.67-5.86"/><path class="cls-1" d="M51.31,338c-3.61-2.37-7.31-4.78-11.52-5.76s-9.07-.25-12,2.92c3.4,2,7.53,2.23,11.47,2.22s8.78,0,12.5,1.27"/><path class="cls-1" d="M51.33,338.15c-6.17-6.06-8.51-16.94-6-25.23a38.42,38.42,0,0,1,6,25.23"/><path class="cls-1" d="M68.29,321c1.17-2.7,2-5.54,3-8.29A23.68,23.68,0,0,1,75.63,305a11.34,11.34,0,0,1,7.64-4A30.79,30.79,0,0,1,68.45,321"/><path class="cls-1" d="M65.22,324.56c-1.92-2.65-4.15-6.25-6.76-8.23s-6-3.17-9.19-2.41a21.44,21.44,0,0,0,15.95,10.64"/><path class="cls-1" d="M65.84,321.2a45.81,45.81,0,0,1-3-9.85,15.42,15.42,0,0,1,1.54-10c3.38,6.41,4.48,13.28,1.67,20"/><path class="cls-1" d="M68.33,301.32c1.91-6.34,7.72-11,14-13.16a5.32,5.32,0,0,1,2.45-.37,2.14,2.14,0,0,1,1.81,1.51c.23,1.08-.66,2.05-1.5,2.77a47.47,47.47,0,0,1-16.76,9.25"/><path class="cls-1" d="M68.39,296.14c.25-4.1.5-8.25,1.83-12.12s3.9-7.52,7.63-9.21c.64,4.13-1.19,8.24-3.39,11.8s-4.84,6.91-6.17,10.87"/><path class="cls-1" d="M68.29,299c-1.58-4.62-1.74-10.5-4.51-14.53-1.94-2.81-5-4.73-6.71-7.71a11.72,11.72,0,0,0,.39,8.76,25.46,25.46,0,0,0,5.13,7.33c2,2.19,3.8,3.84,5.7,6.15"/><path class="cls-1" d="M68.33,435.15c-.13,0-.23-30.85-.24-68.9s.08-68.91.2-68.91.23,30.85.24,68.91S68.45,435.15,68.33,435.15Z"/><path class="cls-1" d="M95.29,342.73a6.23,6.23,0,0,1-1.16.44l-3.2,1.07c-2.69.92-6.39,2.25-10.4,3.89s-7.72,3.09-9.85,4.94a7.15,7.15,0,0,0-2,2.62c-.31.73-.36,1.17-.41,1.16a1,1,0,0,1,0-.32,4.93,4.93,0,0,1,.22-.9,6.93,6.93,0,0,1,1.94-2.79,17.19,17.19,0,0,1,4.27-2.66c1.71-.8,3.61-1.63,5.62-2.46,4-1.65,7.75-2.93,10.48-3.78,1.36-.42,2.47-.73,3.24-.94A6.71,6.71,0,0,1,95.29,342.73Z"/><path class="cls-1" d="M104.12,321a1.83,1.83,0,0,1-.32.34l-1,.93-3.7,3.36-12.3,10.95c-4.8,4.28-9,8.36-11.83,11.44-1.44,1.53-2.57,2.8-3.34,3.69l-.9,1a1.87,1.87,0,0,1-.33.34,2.24,2.24,0,0,1,.26-.39c.19-.25.46-.62.83-1.08.74-.92,1.84-2.23,3.25-3.8a156.27,156.27,0,0,1,11.76-11.55c4.82-4.26,9.21-8.1,12.39-10.86l3.79-3.25,1-.87C104,321.11,104.11,321,104.12,321Z"/><path class="cls-1" d="M81.63,341c-.13-.06.88-2.37,1.87-5.3s1.49-5.4,1.62-5.38a18.41,18.41,0,0,1-1.19,5.52,37.43,37.43,0,0,1-1.5,3.71A6,6,0,0,1,81.63,341Z"/><path class="cls-1" d="M68.35,359.63a6.41,6.41,0,0,1-.74-.86l-1.89-2.43c-1.59-2.06-3.8-4.9-6.26-8s-4.74-5.89-6.38-7.91L51.14,338a6,6,0,0,1-.67-.92,5.07,5.07,0,0,1,.8.81c.5.53,1.2,1.32,2,2.31,1.71,2,4,4.72,6.49,7.84s4.63,6,6.16,8.09c.77,1.06,1.37,1.92,1.78,2.52A5,5,0,0,1,68.35,359.63Z"/><path class="cls-1" d="M62.44,352A10.81,10.81,0,0,1,60,347.41a13.45,13.45,0,0,1-.57-4.68l.2,0c-.09.36-.15.54-.19.54a1.44,1.44,0,0,1,0-.57h.19a21.4,21.4,0,0,0,.79,4.55A34.72,34.72,0,0,0,62.44,352Z"/><path class="cls-1" d="M54.81,342.44a7.62,7.62,0,0,0-1.73-1,11.39,11.39,0,0,0-4.8-.38,29.53,29.53,0,0,0-4.83.78,13.07,13.07,0,0,1-2,.47,7.29,7.29,0,0,1,1.9-.78,22,22,0,0,1,4.89-.92,10.43,10.43,0,0,1,5,.54A3,3,0,0,1,54.81,342.44Z"/><path class="cls-1" d="M53,340.12c0,.07-1-.41-2.65-1a27.71,27.71,0,0,0-6.61-1.36,27.16,27.16,0,0,0-6.74.34c-1.71.31-2.74.63-2.76.56a2.3,2.3,0,0,1,.7-.3,15.65,15.65,0,0,1,2-.57,23.77,23.77,0,0,1,6.84-.47,23.21,23.21,0,0,1,6.68,1.51,16.15,16.15,0,0,1,1.89.85C52.78,340,53,340.09,53,340.12Z"/><path class="cls-1" d="M68.29,330.28a58.13,58.13,0,0,1-1.93-6.71,54.36,54.36,0,0,1-1.5-6.82,53.09,53.09,0,0,1,1.93,6.71A54,54,0,0,1,68.29,330.28Z"/><path class="cls-1" d="M68.42,330.28a33.2,33.2,0,0,0-2.14-4A17.23,17.23,0,0,0,63.12,323a2.76,2.76,0,0,1,1.22.62,9.85,9.85,0,0,1,2.3,2.37A8.89,8.89,0,0,1,68.42,330.28Z"/><path class="cls-1" d="M68.33,418.7s-.14-.74-.49-2.05a28.89,28.89,0,0,0-2.06-5.34A73.67,73.67,0,0,0,54.84,395.9C52.4,393.11,50,390.48,48,388a54.93,54.93,0,0,1-4.88-7,34,34,0,0,1-2.46-5.22c-.23-.65-.4-1.15-.49-1.5a2.73,2.73,0,0,1-.13-.53s.27.71.78,2a36.62,36.62,0,0,0,2.57,5.13,58,58,0,0,0,4.93,6.94c2,2.49,4.39,5.11,6.83,7.9a69.65,69.65,0,0,1,10.89,15.57,26.55,26.55,0,0,1,2,5.44,14.61,14.61,0,0,1,.27,1.55A2.72,2.72,0,0,1,68.33,418.7Z"/><path class="cls-1" d="M92.69,391.18a10.22,10.22,0,0,1-1.28.72,27.78,27.78,0,0,0-3.31,2.19,38.28,38.28,0,0,0-4.35,4c-1.53,1.61-3.1,3.48-4.7,5.49-3.21,4-6.21,7.59-8,10.43-.91,1.41-1.58,2.6-2,3.44a11.3,11.3,0,0,1-.7,1.28s0-.13.11-.36.23-.58.43-1a34.61,34.61,0,0,1,1.9-3.53,115.07,115.07,0,0,1,7.93-10.54c1.61-2,3.2-3.89,4.75-5.5a35.37,35.37,0,0,1,4.46-3.93,22.64,22.64,0,0,1,3.42-2.09,9.15,9.15,0,0,1,1-.44A1.32,1.32,0,0,1,92.69,391.18Z"/><path class="cls-1" d="M93.17,400.11a18.1,18.1,0,0,1-2.7.39,36.57,36.57,0,0,0-6.4,1.26,19.41,19.41,0,0,0-5.74,3c-1.32,1-1.94,1.87-2,1.82a2,2,0,0,1,.4-.62,9.63,9.63,0,0,1,1.41-1.44,17.28,17.28,0,0,1,5.79-3.19,28.34,28.34,0,0,1,6.5-1.15A15.11,15.11,0,0,1,93.17,400.11Z"/><path class="cls-1" d="M77.12,405.61c-.14-.08,1.07-1.94,2-4.44s1.09-4.73,1.25-4.71a4.32,4.32,0,0,1,0,1.45,15.47,15.47,0,0,1-.78,3.41A16.44,16.44,0,0,1,78,404.45,4.51,4.51,0,0,1,77.12,405.61Z"/><path class="cls-1" d="M100.58,367.22a2.73,2.73,0,0,1-.43.23l-1.27.57c-.56.24-1.23.54-2,.94s-1.65.8-2.58,1.36l-1.47.84c-.51.29-1,.64-1.56,1-1.08.66-2.17,1.47-3.33,2.3a57.05,57.05,0,0,0-12.84,13.29c-.78,1.18-1.56,2.3-2.18,3.41-.32.54-.65,1.06-.92,1.58s-.54,1-.79,1.5c-.52,1-.9,1.85-1.26,2.62s-.66,1.46-.88,2-.39.94-.53,1.28a2.33,2.33,0,0,1-.21.44,1.79,1.79,0,0,1,.13-.47c.12-.35.27-.78.45-1.32s.45-1.27.81-2.05.7-1.71,1.21-2.67c.24-.49.5-1,.77-1.52s.59-1.05.9-1.61c.61-1.12,1.38-2.25,2.17-3.46a59.67,59.67,0,0,1,5.89-7.24,61,61,0,0,1,7-6.14c1.17-.82,2.28-1.63,3.38-2.28.54-.33,1.06-.67,1.57-1l1.5-.82c.94-.54,1.84-.93,2.62-1.3s1.46-.66,2-.88l1.3-.5A1.49,1.49,0,0,1,100.58,367.22Z"/><path class="cls-1" d="M81.3,380.14a3,3,0,0,1,1.06-1.58,6.62,6.62,0,0,1,4.27-1.64,11.51,11.51,0,0,1,4.49.88,6.12,6.12,0,0,1,1.7.82,10.51,10.51,0,0,1-1.8-.53,13.94,13.94,0,0,0-4.38-.73,7,7,0,0,0-4.08,1.44A11.82,11.82,0,0,0,81.3,380.14Z"/><path class="cls-1" d="M78.42,383.11a11.45,11.45,0,0,0,.94-8.07,2.62,2.62,0,0,1,.5,1.15,8.05,8.05,0,0,1,.21,3,8.27,8.27,0,0,1-.9,2.9C78.79,382.79,78.46,383.14,78.42,383.11Z"/><path class="cls-1" d="M47,423.12c.66,11.79,4.22,23.78,9.68,35.91H80.46c5.22-12,8.52-24,9.11-35.91Z"/><path class="cls-5" d="M85.72,442.2c0,.12-7.82.22-17.47.22s-17.48-.1-17.48-.22,7.82-.22,17.48-.22S85.72,442.08,85.72,442.2Z"/><path class="cls-5" d="M85.19,446.47c0,.13-7.34.22-16.38.22s-16.39-.09-16.39-.22,7.34-.22,16.39-.22S85.19,446.35,85.19,446.47Z"/><path class="cls-5" d="M57.08,430.86a65.28,65.28,0,0,1,0,10.95,68.24,68.24,0,0,1,0-10.95Z"/><path class="cls-5" d="M69.82,430.86a73.18,73.18,0,0,1,0,11.34,70,70,0,0,1,0-11.34Z"/><path class="cls-5" d="M81.77,430.77a76,76,0,0,1,0,11.56,76,76,0,0,1,0-11.56Z"/><path class="cls-5" d="M88.82,430.86c0,.13-9.18.23-20.5.23s-20.5-.1-20.5-.23,9.18-.22,20.5-.22S88.82,430.74,88.82,430.86Z"/></g><g id="Plant"><path class="cls-6" d="M488.79,433.11s-4.13-28.43-3.79-45S485,353,485,353h1.91s-1.29,32.84.11,52.64,5.1,27.49,5.1,27.49h-3.31"/><path class="cls-7" d="M501.11,321a5,5,0,0,0-1.73-2.54c-1.21-.77-2.8-.45-4.15,0-5.75,2-10.86,12.77-13.19,18.42l7.65,25.75C503.49,349.85,505.88,333.06,501.11,321Z"/><path class="cls-6" d="M498.93,319.49a1.57,1.57,0,0,1-.11.34c-.1.24-.22.56-.37.94-.34.81-.81,2-1.37,3.45-1.13,2.92-2.56,7-3.84,11.62s-2.16,8.85-2.7,11.94c-.28,1.54-.48,2.8-.61,3.66-.07.41-.12.74-.16,1a1.17,1.17,0,0,1-.08.34,1.33,1.33,0,0,1,0-.35c0-.26.07-.6.11-1,.09-.88.26-2.14.51-3.69a109,109,0,0,1,2.61-12,112.26,112.26,0,0,1,3.94-11.61c.59-1.46,1.09-2.63,1.46-3.42.18-.37.32-.68.43-.92A1.46,1.46,0,0,1,498.93,319.49Z"/><path class="cls-7" d="M486.29,368.83a23.33,23.33,0,0,1-11.78-19.58c-.28-5.72,1.48-11.33,3.47-16.69a2.18,2.18,0,0,1,.81-1.22,2.06,2.06,0,0,1,1.95.31c5.21,3,8.36,8.62,10,14.37A28.87,28.87,0,0,1,492,357.83a19.65,19.65,0,0,1-5.67,11"/><path class="cls-6" d="M486.29,368.83a1.6,1.6,0,0,1,0-.35l0-1c0-.86,0-2.1-.1-3.63a99.71,99.71,0,0,0-1.33-11.9c-.8-4.62-1.76-8.75-2.47-11.73l-.85-3.54-.22-1a1.48,1.48,0,0,1-.06-.35,1.68,1.68,0,0,1,.12.33c.07.25.16.56.28.95.23.83.56,2,.94,3.51.77,3,1.77,7.11,2.57,11.73a87.29,87.29,0,0,1,1.24,11.95c0,1.53,0,2.78,0,3.64,0,.4,0,.73,0,1A1.91,1.91,0,0,1,486.29,368.83Z"/><g class="cls-8"><path d="M486.29,368.83a23.33,23.33,0,0,1-11.78-19.58c-.28-5.72,1.48-11.33,3.47-16.69a2.18,2.18,0,0,1,.81-1.22,2.06,2.06,0,0,1,1.95.31c5.21,3,8.36,8.62,10,14.37A28.87,28.87,0,0,1,492,357.83a19.65,19.65,0,0,1-5.67,11"/></g><path class="cls-7" d="M494.37,412.33c7.06,1.55,12.86,6.53,19.67,8.94,4.5,1.6,9.59,2.17,13.18,5.32-.86-2.18-2.91-3.63-4.89-4.87a88.61,88.61,0,0,0-17.82-8.51c-3.2-1.1-6.68-2-9.94-1.12"/><path class="cls-7" d="M484.18,418.62c-8.83-.15-18.13-7.67-26.92-8.11,9.2-3,22.37-.55,26.92,8.11"/><path class="cls-7" d="M487.63,397.43a28.73,28.73,0,0,1,14.12-1,84.86,84.86,0,0,1,13.78,3.75c-.45-3.07-2.93-5.37-5.26-7.41a37.27,37.27,0,0,0-5.54-4.26,12.36,12.36,0,0,0-6.64-1.87,10.49,10.49,0,0,0-7.32,3.69,12.17,12.17,0,0,0-3.14,7.06"/><path class="cls-7" d="M469.5,387.68c-5.56-4.75-14-4.28-21.28-4.12a173.66,173.66,0,0,1,33,20.57C481.53,399,476.53,393.67,469.5,387.68Z"/><g class="cls-8"><path d="M469.5,387.68c-5.56-4.75-14-4.28-21.28-4.12a173.66,173.66,0,0,1,33,20.57C481.53,399,476.53,393.67,469.5,387.68Z"/></g><path class="cls-7" d="M490.13,381.13a61.35,61.35,0,0,1,8.55-5c2.93-1.33,5.66-3.45,8.48-5,3.67-2,6.84-4.74,10.2-7.2s7.06-4.68,11.18-5.33a21.91,21.91,0,0,0-10.17.58A65.85,65.85,0,0,0,508.8,363c-4.34,2-8.75,4-12.3,7.12s-6.74,6.31-6.37,11.05"/><path class="cls-6" d="M513.87,418.62l-.27-.13-.78-.39c-.66-.36-1.62-.88-2.82-1.49-.59-.31-1.25-.64-2-1s-1.48-.69-2.29-1.05a33.94,33.94,0,0,0-5.44-1.89,11.61,11.61,0,0,0-5.66-.14,15.09,15.09,0,0,0-2.4.71,12.1,12.1,0,0,0-1.94,1,12.42,12.42,0,0,0-2.44,2c-.51.55-.76.88-.78.86a1.76,1.76,0,0,1,.16-.26c.11-.16.29-.39.53-.68a11.86,11.86,0,0,1,4.37-3.17,15.76,15.76,0,0,1,2.43-.76,11.8,11.8,0,0,1,5.8.12,31.63,31.63,0,0,1,5.48,1.94c.82.36,1.59.72,2.3,1.08s1.37.69,2,1c1.19.64,2.13,1.19,2.77,1.58l.75.45C513.79,418.55,513.88,418.61,513.87,418.62Z"/><path class="cls-6" d="M477.59,414.24a2,2,0,0,1,.55.16,11.13,11.13,0,0,1,1.44.63,17.44,17.44,0,0,1,7.38,7.09,11.26,11.26,0,0,1,.68,1.41,2.19,2.19,0,0,1,.19.54c-.05,0-.38-.72-1.06-1.84a20,20,0,0,0-3.19-4,19.63,19.63,0,0,0-4.1-3C478.33,414.59,477.57,414.29,477.59,414.24Z"/><path class="cls-6" d="M458.05,387.24s.13,0,.38.11l1.06.37,1.67.62c.65.24,1.36.6,2.16,1a51.11,51.11,0,0,1,11.5,7.33,56,56,0,0,1,5.36,5.28,57.78,57.78,0,0,1,3.8,4.82c1,1.43,1.78,2.62,2.3,3.44.25.39.45.7.6.95a1.45,1.45,0,0,1,.2.34,2.69,2.69,0,0,1-.25-.31c-.15-.2-.38-.51-.65-.91-.56-.81-1.35-2-2.38-3.38s-2.32-3-3.84-4.76a59.36,59.36,0,0,0-5.35-5.23,53.75,53.75,0,0,0-11.39-7.37c-.79-.36-1.49-.73-2.13-1l-1.65-.66-1-.43Z"/><path class="cls-6" d="M500.88,392.47a3.51,3.51,0,0,1-.7-.1l-.81-.15c-.32-.06-.69-.06-1.09-.1a11.18,11.18,0,0,0-6.07,1.2,10.9,10.9,0,0,0-2.76,2.05,13,13,0,0,0-1.78,2.19,18.42,18.42,0,0,0-1.21,2.32,2.42,2.42,0,0,1,.18-.69,9.41,9.41,0,0,1,.84-1.74,11.83,11.83,0,0,1,1.76-2.29,11.09,11.09,0,0,1,2.82-2.12,10.74,10.74,0,0,1,6.24-1.14c.41.06.78.07,1.09.15l.81.21A2.19,2.19,0,0,1,500.88,392.47Z"/><path class="cls-6" d="M509.76,364.93a2.17,2.17,0,0,1-.34.21l-1,.53c-.86.46-2.09,1.14-3.59,2s-3.25,2-5.12,3.33a42.44,42.44,0,0,0-5.71,4.78,14.74,14.74,0,0,0-2.34,3c-.57,1.11-1.13,2.18-1.64,3.21a58.31,58.31,0,0,0-2.45,5.59,33.11,33.11,0,0,0-1.19,3.93c-.23.95-.31,1.48-.34,1.47a1.92,1.92,0,0,1,0-.39c0-.25.09-.63.19-1.11a29.44,29.44,0,0,1,1.1-4,54.88,54.88,0,0,1,2.4-5.64c.51-1,1.06-2.11,1.63-3.23a14.89,14.89,0,0,1,2.38-3.1,41,41,0,0,1,5.78-4.8c1.88-1.33,3.66-2.41,5.17-3.29s2.77-1.51,3.64-1.94l1-.48A1.65,1.65,0,0,1,509.76,364.93Z"/><path class="cls-6" d="M485,391.67a3.79,3.79,0,0,1-.17-.74c-.11-.55-.23-1.23-.39-2a52.45,52.45,0,0,0-4.19-13l-.86-1.89a4.83,4.83,0,0,1-.29-.71,3.86,3.86,0,0,1,.4.66c.23.43.56,1.06.95,1.85a45.77,45.77,0,0,1,2.62,6.35,45.22,45.22,0,0,1,1.59,6.69c.14.86.24,1.57.29,2.06A3.93,3.93,0,0,1,485,391.67Z"/><path class="cls-7" d="M484.35,371.58a23.86,23.86,0,0,0-2.87-9.54,31.48,31.48,0,0,0-21.33-15.91q9.87,14.73,19.75,29.44l2.55,5.26A15.06,15.06,0,0,0,484.35,371.58Z"/><rect class="cls-9" x="466.76" y="429.59" width="45.92" height="8.14"/><polygon class="cls-9" points="470.19 436.12 474.1 461.37 504.59 461.37 509.25 436.12 470.19 436.12"/><path class="cls-6" d="M512.66,437.74c0,.09-10.36.16-23.14.16s-23.13-.07-23.13-.16,10.35-.16,23.13-.16S512.66,437.65,512.66,437.74Z"/></g><g id="Speech_Bubble_2" data-name="Speech Bubble 2"><circle class="cls-3" cx="620.74" cy="93.09" r="21.96" transform="translate(300.14 632.72) rotate(-67.81)"/><path class="cls-6" d="M642.7,93.09a1.41,1.41,0,0,1-.05-.35c0-.27,0-.61-.08-1,0-.23,0-.48-.05-.76s-.09-.59-.14-.92a16.06,16.06,0,0,0-.47-2.26,21,21,0,0,0-2.44-5.8,22,22,0,0,0-5.56-6.17,21.72,21.72,0,0,0-20.57-3.08,22.71,22.71,0,0,0-2.83,1.24,23.53,23.53,0,0,0-2.66,1.71,20.35,20.35,0,0,0-4.59,4.61,21.37,21.37,0,0,0-3.1,6,21.48,21.48,0,0,0,0,13.69,21,21,0,0,0,3.1,6,20.35,20.35,0,0,0,4.59,4.61,23.53,23.53,0,0,0,2.66,1.71,24.37,24.37,0,0,0,2.83,1.25,21.88,21.88,0,0,0,11.41,1,21.52,21.52,0,0,0,9.16-4,21.8,21.8,0,0,0,5.56-6.16,21,21,0,0,0,2.44-5.8,16.06,16.06,0,0,0,.47-2.26c0-.33.11-.64.14-.92s0-.53.05-.76c0-.44.06-.78.08-1a1.45,1.45,0,0,1,.05-.36,3.24,3.24,0,0,1,0,.36c0,.26,0,.6,0,1,0,.24,0,.49,0,.77s-.08.59-.12.93a15.66,15.66,0,0,1-.42,2.29,21.15,21.15,0,0,1-2.39,5.9,22.07,22.07,0,0,1-26.54,9.56,23.18,23.18,0,0,1-2.9-1.27,25.62,25.62,0,0,1-2.73-1.74,25.26,25.26,0,0,1-2.52-2.14,26.89,26.89,0,0,1-2.18-2.57,21.72,21.72,0,0,1-3.18-6.12,23.82,23.82,0,0,1-1.15-7,24.15,24.15,0,0,1,1.15-7A21.72,21.72,0,0,1,602.85,80,25.71,25.71,0,0,1,605,77.39a24.28,24.28,0,0,1,2.53-2.14,24.53,24.53,0,0,1,2.72-1.74,23.18,23.18,0,0,1,2.9-1.27,22.08,22.08,0,0,1,26.54,9.56,21.15,21.15,0,0,1,2.39,5.9,15.66,15.66,0,0,1,.42,2.29c0,.34.1.64.12.93s0,.53,0,.77c0,.44,0,.78,0,1A3.24,3.24,0,0,1,642.7,93.09Z"/><path class="cls-3" d="M609.14,118a3.44,3.44,0,1,1-3.44-3.44A3.45,3.45,0,0,1,609.14,118Z"/><path class="cls-6" d="M609.14,118s0-.3-.2-.81a3.5,3.5,0,0,0-1.27-1.78,3.28,3.28,0,0,0-3.06-.42,3.21,3.21,0,0,0,0,6,3.28,3.28,0,0,0,3.06-.42,3.48,3.48,0,0,0,1.27-1.77c.15-.51.16-.82.2-.82a1.6,1.6,0,0,1,0,.87,3.43,3.43,0,0,1-1.24,2,3.6,3.6,0,0,1-3.44.57,3.67,3.67,0,0,1,0-6.92,3.6,3.6,0,0,1,3.44.58,3.37,3.37,0,0,1,1.24,2A1.57,1.57,0,0,1,609.14,118Z"/><path class="cls-9" d="M614.82,89.64H618a2.69,2.69,0,0,1,2.76-2.71,2.57,2.57,0,0,1,2.48,1.64,2.84,2.84,0,0,1-.23,2.56c-.53.88-1.71,1.69-3.84,1.31v7.13h3.13V95.39a6.1,6.1,0,0,0,4.38-6c0-4.63-4.14-5.7-5.92-5.7C619.38,83.73,614.76,84.06,614.82,89.64Z"/><rect class="cls-9" x="619.14" y="101.04" width="3.17" height="2.96"/></g><g id="Speech_Bubble_1" data-name="Speech Bubble 1"><circle class="cls-3" cx="57.89" cy="79.3" r="21.92" transform="translate(-13.5 11.9) rotate(-10.52)"/><path class="cls-6" d="M36,79.3A1.18,1.18,0,0,1,36,79l0-1,0-.77c0-.28.08-.59.12-.92a15.31,15.31,0,0,1,.42-2.28A21,21,0,0,1,39,68a22,22,0,0,1,26.49-9.54,23.71,23.71,0,0,1,2.89,1.27,21.21,21.21,0,0,1,2.72,1.74,22,22,0,0,1,2.52,2.13,24.63,24.63,0,0,1,2.18,2.57,21.45,21.45,0,0,1,3.17,6.1,21.88,21.88,0,0,1,0,14,21.2,21.2,0,0,1-3.17,6.1A24.63,24.63,0,0,1,73.57,95a23.18,23.18,0,0,1-2.52,2.14,20.22,20.22,0,0,1-5.61,3,22.18,22.18,0,0,1-11.63.93A22,22,0,0,1,39,90.57a21.1,21.1,0,0,1-2.39-5.89,15.66,15.66,0,0,1-.42-2.29c0-.33-.1-.64-.12-.92l0-.77,0-1a1.23,1.23,0,0,1,0-.36,2,2,0,0,1,0,.36l.08,1,0,.77c0,.28.09.58.14.91a15.78,15.78,0,0,0,.47,2.26,21,21,0,0,0,2.44,5.79,21.71,21.71,0,0,0,26.08,9.24,22.58,22.58,0,0,0,2.82-1.24,23.53,23.53,0,0,0,2.66-1.71,26.92,26.92,0,0,0,2.46-2.09,25.9,25.9,0,0,0,2.12-2.52,20.89,20.89,0,0,0,3.09-6,21.39,21.39,0,0,0,0-13.66,20.89,20.89,0,0,0-3.09-6A24.64,24.64,0,0,0,73.22,64a24.08,24.08,0,0,0-2.46-2.09,22.22,22.22,0,0,0-2.66-1.71,22.66,22.66,0,0,0-2.82-1.25A21.81,21.81,0,0,0,53.89,58a21.52,21.52,0,0,0-9.15,4,21.83,21.83,0,0,0-5.54,6.15A21,21,0,0,0,36.76,74a16.06,16.06,0,0,0-.47,2.26c0,.33-.11.63-.14.91l0,.77L36,79A2,2,0,0,1,36,79.3Z"/><path class="cls-3" d="M76.9,99.59a3.44,3.44,0,1,0,3.44-3.44A3.44,3.44,0,0,0,76.9,99.59Z"/><path class="cls-6" d="M76.9,99.59a1.74,1.74,0,0,1,0-.87,3.43,3.43,0,0,1,1.24-2,3.6,3.6,0,0,1,3.44-.58,3.67,3.67,0,0,1,0,6.91,3.58,3.58,0,0,1-3.44-.58,3.43,3.43,0,0,1-1.24-2,1.67,1.67,0,0,1,0-.86,7.52,7.52,0,0,1,.21.81,3.39,3.39,0,0,0,1.26,1.77,3.28,3.28,0,0,0,3.06.42,3.21,3.21,0,0,0,0-6,3.28,3.28,0,0,0-3.06.42,3.39,3.39,0,0,0-1.26,1.77C77,99.28,77,99.59,76.9,99.59Z"/><path class="cls-9" d="M51.93,75h3.19a2.69,2.69,0,0,1,2.77-2.71A2.58,2.58,0,0,1,60.39,74a2.87,2.87,0,0,1-.23,2.58c-.54.89-1.72,1.69-3.87,1.32V85h3.15v-4.2a6.15,6.15,0,0,0,4.41-6c0-4.65-4.17-5.73-6-5.73C56.53,69.1,51.87,69.43,51.93,75Z"/><rect class="cls-9" x="56.28" y="86.52" width="3.19" height="2.98"/></g><g id="Character_2" data-name="Character 2"><path class="cls-6" d="M213.83,29.77H435.75a10.87,10.87,0,0,1,10.87,10.87V368.58a10.87,10.87,0,0,1-10.87,10.87H213.83A10.88,10.88,0,0,1,203,368.58V40.64a10.88,10.88,0,0,1,10.88-10.88Z"/><path class="cls-6" d="M435.75,379.46l.76,0a6.37,6.37,0,0,0,.93-.11,10.23,10.23,0,0,0,1.28-.29A10.59,10.59,0,0,0,442,377.4a10.77,10.77,0,0,0,4.33-6.72,17,17,0,0,0,.21-3.4c0-2.41,0-5,0-7.88,0-5.68,0-12.25,0-19.63,0-29.56,0-72.33-.08-125.17,0-26.42,0-55.36,0-86.43q0-23.29,0-48.15V54.84q0-6.37,0-12.85a16.1,16.1,0,0,0-.17-3.19,10.2,10.2,0,0,0-1-3,10.83,10.83,0,0,0-4.4-4.52,11.39,11.39,0,0,0-3-1.08,16.4,16.4,0,0,0-3.23-.21H213.86a10.64,10.64,0,0,0-10.47,8.66,18.89,18.89,0,0,0-.19,3.7V83.26q0,29.46,0,58c0,38,0,74.7,0,109.63s0,68.14,0,99.21q0,5.83,0,11.56v5.69a18.45,18.45,0,0,0,.13,2.8,10.57,10.57,0,0,0,9.06,9,17.53,17.53,0,0,0,2.72.12h8.17l41.48,0,125.15.07,34,.05,8.85,0,3,0s-1,0-3,0l-8.85,0-34,.05-125.15.07-41.48,0h-8.17a18.46,18.46,0,0,1-2.77-.12,11.09,11.09,0,0,1-8.63-6.57,10.92,10.92,0,0,1-.77-2.75,17.17,17.17,0,0,1-.13-2.86V350.1c0-31.07,0-64.27,0-99.21s0-71.61,0-109.63V42.37a19.4,19.4,0,0,1,.2-3.79,11.12,11.12,0,0,1,11-9.06H434.59a17.69,17.69,0,0,1,3.32.21,12.43,12.43,0,0,1,3.14,1.14,11.22,11.22,0,0,1,4.58,4.7,10.58,10.58,0,0,1,1,3.13,16.4,16.4,0,0,1,.18,3.27V54.84q0,12.77,0,25.18,0,24.83,0,48.15c0,31.07,0,60,0,86.43,0,52.84-.06,95.61-.08,125.17,0,7.38,0,14,0,19.63,0,2.85,0,5.47,0,7.88a17.26,17.26,0,0,1-.22,3.42,11.19,11.19,0,0,1-1,2.92,10.83,10.83,0,0,1-6.71,5.44,8.44,8.44,0,0,1-1.28.27,5.11,5.11,0,0,1-.94.1C436,379.46,435.75,379.46,435.75,379.46Z"/><circle class="cls-7" cx="324.79" cy="361.89" r="9.35"/><path class="cls-7" d="M349.76,48.25H300a3.47,3.47,0,0,1-3.47-3.47h0A3.47,3.47,0,0,1,300,41.31h49.77a3.47,3.47,0,0,1,3.47,3.47h0A3.48,3.48,0,0,1,349.76,48.25Z"/><rect class="cls-3" x="210.43" y="54.72" width="228.31" height="292.03"/><path class="cls-10" d="M354.93,99.6a32.08,32.08,0,0,0-33.28-28l-1.66.08c-17.86,1.86-26.25,18-23.9,35.85l8.49,71.73,29.2,8.33,10.06-11c-.45-5-1.28-15.47-1.25-15.48s17.09-3.45,16.52-20.66C358.84,132.11,356.88,115,354.93,99.6Z"/><path class="cls-11" d="M342.59,161.09a41.57,41.57,0,0,1-22.7-5.61s6,12.7,23.07,10.37Z"/><path class="cls-6" d="M350.28,114.9a2.46,2.46,0,0,1-2.26,2.59,2.36,2.36,0,0,1-2.63-2.1,2.46,2.46,0,0,1,2.26-2.59A2.35,2.35,0,0,1,350.28,114.9Z"/><path class="cls-6" d="M351.62,107.36c-.29.34-2.21-1-4.86-.83s-4.52,1.54-4.82,1.22c-.15-.13.14-.72.95-1.38a6.8,6.8,0,0,1,3.85-1.38,6.47,6.47,0,0,1,3.88,1.07C351.46,106.64,351.76,107.21,351.62,107.36Z"/><path class="cls-6" d="M327.4,116.89a2.46,2.46,0,0,1-2.26,2.58,2.34,2.34,0,0,1-2.63-2.1,2.45,2.45,0,0,1,2.25-2.58A2.35,2.35,0,0,1,327.4,116.89Z"/><path class="cls-6" d="M325.73,109.15c-.29.33-2.22-1-4.86-.83s-4.52,1.53-4.82,1.22c-.15-.14.13-.73.95-1.38a6.8,6.8,0,0,1,3.85-1.38,6.54,6.54,0,0,1,3.88,1.06C325.57,108.43,325.87,109,325.73,109.15Z"/><path class="cls-6" d="M336.13,129c0-.15,1.62-.51,4.26-1,.68-.1,1.31-.26,1.4-.73a3.46,3.46,0,0,0-.54-2l-2.23-5c-3.1-7.19-5.38-13.12-5.09-13.24s3,5.61,6.14,12.8c.75,1.78,1.47,3.47,2.15,5.09a3.89,3.89,0,0,1,.47,2.63,1.73,1.73,0,0,1-1.06,1,4.48,4.48,0,0,1-1.14.21C337.81,129.1,336.15,129.18,336.13,129Z"/><path class="cls-6" d="M326.21,100.84c-.33.69-2.92.1-6,.17s-5.71.68-6.06,0c-.15-.32.35-1,1.43-1.55a10.47,10.47,0,0,1,9.22-.12C325.84,99.89,326.36,100.51,326.21,100.84Z"/><path class="cls-6" d="M351.39,99.58c-.51.64-2.7.14-5.29.27s-4.75.69-5.3.09c-.23-.29.07-.91,1-1.54A8.33,8.33,0,0,1,346,97.16a8.15,8.15,0,0,1,4.28,1C351.28,98.68,351.61,99.28,351.39,99.58Z"/><path class="cls-10" d="M298.07,120.17c-.3-.11-12-3-11.07,8.79s12.51,8.41,12.5,8.07S298.07,120.17,298.07,120.17Z"/><path class="cls-11" d="M295.57,132.86c-.05,0-.19.15-.53.34a2,2,0,0,1-1.52.15c-1.28-.36-2.48-2.25-2.7-4.36a6.91,6.91,0,0,1,.35-3,2.36,2.36,0,0,1,1.42-1.68,1,1,0,0,1,1.25.46c.18.32.12.56.19.57s.23-.21.1-.69a1.23,1.23,0,0,0-.52-.7,1.53,1.53,0,0,0-1.15-.21,2.89,2.89,0,0,0-2,2,6.94,6.94,0,0,0-.45,3.32c.25,2.36,1.64,4.49,3.37,4.84a2.18,2.18,0,0,0,1.85-.45C295.57,133.14,295.61,132.87,295.57,132.86Z"/><path class="cls-6" d="M377.28,82.1a2.8,2.8,0,0,0-1.43-1.52c-1.41-.7-3-.47-4.45-.38a24.77,24.77,0,0,1-10.95-1.9,12,12,0,0,0,3-2.45c1.76-2,2.63-5,1.57-7.49a1.63,1.63,0,0,0-1-1.06c-.78-.17-1.39.63-1.88,1.26-1.6,2.09-3.16,3-5.79,3a10.51,10.51,0,0,1-4.56-1l-.16-.16-1.93-1.68h0c-4.75-4-8.78-6.8-12.81-8.08-5.91-1.88-15.57-2.09-21.44-.07S304.58,67.84,304.21,74c-3.57-2.58-8.6-2.18-12.56-.23l-.11,0c-4.43,2-6.65,7-7.64,11.71-.06.26-.1.52-.15.78a18.11,18.11,0,0,1-5.67,6.44c-.42.29-.9.64-.92,1.15s.44.89.87,1.15a9,9,0,0,0,3.8,1.25,19.49,19.49,0,0,1-1.27,3.31c-.44.91-1,2-.46,2.87a1.91,1.91,0,0,0,2.07.72,5.69,5.69,0,0,0,2.05-1.11c-.42,1.25-.83,2.5-1.25,3.76a10.8,10.8,0,0,0,4.93-.71c1.29,4.27,2.62,12.25,4,15.1,3.12-.18,3.85-.57,5.46-.17,2.09.52,1.58,4.18,4.15,3,1.31-.62,3-5.89,3.34-7.29a67.18,67.18,0,0,0,.77-28.61,21.47,21.47,0,0,1,6.3-5.31l-.19.2c4.67-2,10-4.08,14.71-2.17,3.67,1.48,6,5,8.88,7.72,5.43,5.17,11.32,7.71,18.82,7.47,1.06,5.13,1.9,13.6,2.51,18.42l3.41-10v0a19.29,19.29,0,0,0,.75-1.78l.08-.18v0A28.47,28.47,0,0,1,362,98.6l.05,0c2.8,2.12,6.39-1.71,4.11-4.38a6.76,6.76,0,0,0-1.57-1.35,4.79,4.79,0,0,0,4.65.83,3.76,3.76,0,0,0,2.37-3.91,3.19,3.19,0,0,0-2.09-2.41,10.73,10.73,0,0,0,6-1.82C376.7,84.82,377.81,83.6,377.28,82.1Z"/><path class="cls-7" d="M309.77,75.6a13.74,13.74,0,0,0-1.61,1.71,12.37,12.37,0,0,0-2.21,5.9,21.84,21.84,0,0,0-.11,4.4c.11,1.59.37,3.27.62,5a46.86,46.86,0,0,1,.56,5.63,20.35,20.35,0,0,1-.17,3,6.25,6.25,0,0,1-1,3,2.61,2.61,0,0,1-2.37,1,3.86,3.86,0,0,1-2.27-1.07,8.88,8.88,0,0,1-2-4.25l.36,0a14.4,14.4,0,0,1-1.82,3.76,5.12,5.12,0,0,1-3.2,2.07,3.32,3.32,0,0,1-1.8-.18,2.83,2.83,0,0,1-1.29-1.09A2.92,2.92,0,0,1,291,103a2.14,2.14,0,0,1,.45-1.38l.19.15a11.11,11.11,0,0,1-3.48,3,9.13,9.13,0,0,1-1.11.53,1.83,1.83,0,0,1-.4.13,2.05,2.05,0,0,1,.37-.19c.25-.13.62-.31,1.07-.58a11.46,11.46,0,0,0,3.36-3.08l.19.15a2.21,2.21,0,0,0,.08,2.56,2.54,2.54,0,0,0,1.17,1,3,3,0,0,0,1.62.14,4.84,4.84,0,0,0,3-2,14.49,14.49,0,0,0,1.75-3.67l.2-.57.16.58a8.69,8.69,0,0,0,1.89,4.06,3.57,3.57,0,0,0,2,1,2.19,2.19,0,0,0,2-.85,5.92,5.92,0,0,0,.92-2.78,19.53,19.53,0,0,0,.16-2.94,47,47,0,0,0-.52-5.59c-.25-1.77-.49-3.47-.59-5.07a21.62,21.62,0,0,1,.16-4.47,12.15,12.15,0,0,1,2.37-6A6.85,6.85,0,0,1,309.77,75.6Z"/><path class="cls-7" d="M364.21,88.32s0,.05-.13.13l-.41.35a6.12,6.12,0,0,1-.69.52,11.12,11.12,0,0,1-1,.63,15.39,15.39,0,0,1-7.26,1.88,19.51,19.51,0,0,1-10.67-3.06,33.7,33.7,0,0,1-9.68-9.6c-1.41-2-2.59-4-3.86-5.93a22.83,22.83,0,0,0-4.24-4.94,11.75,11.75,0,0,0-5.18-2.64,8.37,8.37,0,0,0-2.63-.1,9.2,9.2,0,0,0-2.36.64,10,10,0,0,0-3.42,2.43,9.68,9.68,0,0,0-1.75,2.66,12.23,12.23,0,0,0-.7,2.64v-.18c0-.14,0-.32,0-.53a8.49,8.49,0,0,1,.5-2,10,10,0,0,1,1.73-2.76A10.15,10.15,0,0,1,316,65.94a9.26,9.26,0,0,1,2.43-.69,8.74,8.74,0,0,1,2.74.08A12.09,12.09,0,0,1,326.51,68a22.66,22.66,0,0,1,4.32,5c1.29,1.9,2.47,4,3.87,5.92a33.76,33.76,0,0,0,9.55,9.52,19.44,19.44,0,0,0,10.46,3.08,15.51,15.51,0,0,0,7.19-1.73A23,23,0,0,0,364.21,88.32Z"/><path class="cls-7" d="M365.2,80.65a2.72,2.72,0,0,1-.58.48,13.57,13.57,0,0,1-1.76,1.06,17.8,17.8,0,0,1-2.81,1.17,21.07,21.07,0,0,1-3.66.77,20.38,20.38,0,0,1-3.74,0,17,17,0,0,1-3-.54A14.14,14.14,0,0,1,347.7,83a3.36,3.36,0,0,1-.67-.34c0-.07,1,.34,2.68.73a19.6,19.6,0,0,0,3,.44,21.52,21.52,0,0,0,3.66,0,22.66,22.66,0,0,0,3.6-.73,20.23,20.23,0,0,0,2.8-1.06C364.29,81.2,365.16,80.59,365.2,80.65Z"/><path class="cls-11" d="M328.06,133.36a14.1,14.1,0,0,0-.65,3.83,4.35,4.35,0,0,0,1.25,3.37,4.75,4.75,0,0,0,3.69,1.7h0a5.31,5.31,0,0,0,5.25-4.53l.46-2.83C335.42,134.18,328.25,133.54,328.06,133.36Z"/><path class="cls-6" d="M335.07,141.45c0-.06-.33,0-.91.09a7.86,7.86,0,0,1-2.41,0,4.72,4.72,0,0,1-2.93-1.71,6.13,6.13,0,0,1-.54-6.32l-.36.17c2.57.39,4.81.7,6.41.89a10.41,10.41,0,0,0,2.58.18,11.31,11.31,0,0,0-2.51-.61c-1.59-.31-3.81-.71-6.37-1.13l-.24,0-.11.22a6.24,6.24,0,0,0-.71,2.59,6.39,6.39,0,0,0,1.35,4.46,5.09,5.09,0,0,0,3.36,1.79,6.72,6.72,0,0,0,2.54-.24A2.28,2.28,0,0,0,335.07,141.45Z"/><path class="cls-9" d="M262.13,186.24c-1,0-15.25,5.7-19,19.7s-14,65.29-14,65.29l-10.86,15s3.51,27.49,23.51,22.27c0,0,13.35,2.33,17.6-11.2s12.5-53.9,12.5-53.9Z"/><path class="cls-9" d="M385.13,309.38c.84,12.33-2.85-73.48-3-76.61l8.25-44.16-38.75-15.67-6-9.25L328.2,177l-24.46-14.19-7.55,11.43-34.06,12.05L271.88,285v34.47l-1,27.47,117.94-.18c2.62-8.63-2.06-13.88-2.43-14.89Z"/><path class="cls-9" d="M390.38,188.61s7.8,6.85,9.11,12.06,29.32,66,29.32,66l13.92,3.76,3.72,7.71a21.48,21.48,0,0,1-6.07,26.4,16.37,16.37,0,0,1-1.49,1c-7.53,4.48-26,3.15-33.9-6.15-7.46-8.8-24.33-39.32-24.33-39.32V221.29Z"/><path class="cls-10" d="M436,272.74l20-11.81,9.65,11.81-2,5.73L437.9,297.63a17.16,17.16,0,0,1-6-10.38C430.71,280.07,436,272.74,436,272.74Z"/><path class="cls-6" d="M429.68,266.64c0,.19-1.7,0-4.21.85a18.71,18.71,0,0,0-8.32,5.76,38,38,0,0,0-5.29,8.89c-1.1,2.44-1.76,4-1.9,3.93s.28-1.67,1.22-4.21a31.86,31.86,0,0,1,5.18-9.28,17.7,17.7,0,0,1,8.91-5.8C428,266.12,429.71,266.55,429.68,266.64Z"/><path class="cls-10" d="M455.72,267.49c-.18-.37-1.66-8.88,4.81-14.43s12.3-7.49,15.81-9.06,10.82-7.67,12.12-6.2,1.85,3.7,0,6.38-12.44,6.72-11,10.11c.61,1.4,3.94,1.64,3.94,1.64s12.76.83,18.12.37,10.17.55,9.9,2.4-1.3,2.87-5.74,3.24-11.65.09-12,1.11,1.11,1.66,3.7,1.48,14.8-.19,15.63,1.2a2.75,2.75,0,0,1-1.48,4l-2.87,1s1.67,2.31.28,3.61-4.53.83-4.53.83l-16.18-.46s-.93,1-.46,1.64,13.13-.25,13.22,1.13,1.2,2-2.59,3-13.32.93-16.74,0-17.75-1.57-17.75-1.57Z"/><path class="cls-10" d="M235.85,274.86l-18.72-15.54L206.38,271.4l1.31,5.92,23.41,22a16.26,16.26,0,0,0,7.35-9C240.77,283.74,235.85,274.86,235.85,274.86Z"/><path class="cls-10" d="M216.91,267.34c.23-.34,2.69-8.62-3.09-14.88s-11.34-8.88-14.65-10.85-9.85-8.88-11.31-7.56-2.27,3.46-.74,6.33,8.8,6.25,8.54,10a2.73,2.73,0,0,1-2.93,2.54s-12.77-.66-18-1.75-10.17-.63-10.11,1.24.95,3,5.32,3.88,11.56,1.45,11.81,2.5-1.3,1.52-3.85,1-14.67-1.91-15.66-.63a2.75,2.75,0,0,0,1,4.12l2.72,1.35s-1.92,2.1-.69,3.55,4.4,1.35,4.4,1.35L185.77,271s.8,1.07.26,1.68-13-1.78-13.26-.41-1.43,1.88,2.23,3.24,13.11,2.47,16.62,2,17.81.5,17.81.5Z"/><path class="cls-6" d="M350.67,175.77c.1.11-1.23,1.4-3.36,3.49s-5.06,5-8.15,8.35c-.65.71-1.29,1.4-1.9,2.08l-.41.45-.37-.48c-2.4-3.07-4.47-5.8-5.92-7.79a16.47,16.47,0,0,1-2.17-3.29,16.6,16.6,0,0,1,2.7,2.88c1.59,1.87,3.76,4.52,6.19,7.57l-.78,0,1.9-2.1a108.68,108.68,0,0,1,8.41-8.18C349.08,176.76,350.58,175.66,350.67,175.77Z"/><path class="cls-6" d="M264.35,212.43a8.67,8.67,0,0,1,.55,2.09c.29,1.36.65,3.34,1.05,5.79.79,4.9,1.62,11.72,2.32,19.26s1.21,14.37,1.59,19.31q.25,3.45.42,5.86a8.64,8.64,0,0,1,0,2.17,9,9,0,0,1-.43-2.13c-.21-1.37-.46-3.36-.75-5.83-.57-4.93-1.19-11.75-1.89-19.29s-1.41-14.33-2-19.25c-.28-2.28-.52-4.23-.72-5.83A8.91,8.91,0,0,1,264.35,212.43Z"/><path class="cls-6" d="M382.76,209a13.18,13.18,0,0,1,.37,2.63c.17,1.7.35,4.17.51,7.21.34,6.1.51,14.53.53,23.83v23.82c0,2.89,0,5.31,0,7.22a12.35,12.35,0,0,1-.12,2.65,13,13,0,0,1-.28-2.64c-.12-1.7-.24-4.17-.34-7.22-.2-6.09-.28-14.52-.3-23.82s-.08-17.72-.23-23.81c-.08-2.89-.14-5.3-.19-7.21A13.46,13.46,0,0,1,382.76,209Z"/><path class="cls-6" d="M249,296.31c-.16,0-.43-2-1-5.24a41,41,0,0,0-4-12,22.4,22.4,0,0,0-8.75-8.88c-2.87-1.53-5-1.72-4.92-1.91a3.44,3.44,0,0,1,1.46.06,14.06,14.06,0,0,1,3.79,1.2,21.23,21.23,0,0,1,9.32,9A35.63,35.63,0,0,1,248.65,291C249.09,294.25,249.1,296.3,249,296.31Z"/><path class="cls-6" d="M253.84,275.87c-.21.24-3.23-2.86-8.12-4.49s-9.16-1.11-9.17-1.43,4.34-1.35,9.5.45S254.08,275.75,253.84,275.87Z"/><path class="cls-6" d="M330.64,346.19a11.7,11.7,0,0,1-.11-1.69c0-1.2-.06-2.82-.11-4.85-.09-4.31-.21-10.38-.36-17.84-.35-15.15-.84-35.92-1.38-58.86s-.84-43.81-.81-58.89c0-7.53.08-13.63.18-17.84.06-2,.1-3.65.14-4.85a9.47,9.47,0,0,1,.12-1.7,10.88,10.88,0,0,1,.09,1.7c0,1.2,0,2.82.05,4.85,0,4.31.09,10.38.15,17.84.16,15.07.59,35.88,1.12,58.87s.95,43.8,1.07,58.87c.08,7.54.07,13.63,0,17.85,0,2-.06,3.65-.08,4.85A9.62,9.62,0,0,1,330.64,346.19Z"/><path class="cls-6" d="M234.93,274.21c.08-.11,1.48,1,2.74,3.53a17.78,17.78,0,0,1,1.59,4.62,19,19,0,0,1,.08,6,16.32,16.32,0,0,1-1.75,5.75,11.42,11.42,0,0,1-3.28,3.69c-2.35,1.65-4.22,1.61-4.2,1.52s1.69-.42,3.76-2.1a11.5,11.5,0,0,0,2.88-3.56,16.58,16.58,0,0,0,1.57-5.44,20.45,20.45,0,0,0,0-5.69A20.07,20.07,0,0,0,237,278,40.15,40.15,0,0,0,234.93,274.21Z"/><path class="cls-6" d="M441.66,299.78a3.09,3.09,0,0,1-1.26-.38,13.89,13.89,0,0,1-3-1.83,16.41,16.41,0,0,1-4.12-21.34,14.62,14.62,0,0,1,2.14-2.84c.6-.59,1-.86,1-.81s-1.22,1.41-2.53,4A16.65,16.65,0,0,0,437.83,297C440,298.92,441.74,299.61,441.66,299.78Z"/><path class="cls-6" d="M365.18,254.42a17.29,17.29,0,0,1-2.59,1.52c-1.7.91-4.18,2.19-7.27,3.73-6.17,3.07-14.8,7.12-24.49,11.22s-18.62,7.49-25.12,9.78c-3.25,1.15-5.9,2-7.74,2.62a16.12,16.12,0,0,1-2.89.8,18.22,18.22,0,0,1,2.76-1.18l7.62-2.92c6.43-2.47,15.28-5.95,25-10.05s18.34-8,24.59-10.93l7.4-3.43A16.79,16.79,0,0,1,365.18,254.42Z"/><path class="cls-11" d="M480.08,249.85c.12.12-.75,1-1.86,2.43a6.84,6.84,0,0,0-1.28,2.84c-.24,1.16-.23,2.53-.43,4a9.77,9.77,0,0,1-3.86,6.51c-1.61,1.16-2.86,1.34-2.88,1.23s1.05-.58,2.43-1.8a10.07,10.07,0,0,0,3.29-6.09,40.2,40.2,0,0,1,.52-4.08,7,7,0,0,1,1.64-3.09C479,250.38,480,249.77,480.08,249.85Z"/><path class="cls-11" d="M188.24,265.77c0,.27-5.05.54-11.26.24s-11.22-1-11.19-1.31,5.05,0,11.24.28S188.24,265.47,188.24,265.77Z"/><path class="cls-11" d="M199.7,264.92c0,.1-1.21-.1-2.63-1.3a8.3,8.3,0,0,1-2.85-6.46,21.4,21.4,0,0,1,.7-3.82,10.77,10.77,0,0,0,.39-2.94,9.82,9.82,0,0,0-.63-2.66c.06-.12,1.11.69,1.35,2.6a9.63,9.63,0,0,1-.17,3.2,24.74,24.74,0,0,0-.6,3.66,8.26,8.26,0,0,0,2.32,5.89C198.74,264.32,199.77,264.76,199.7,264.92Z"/><path class="cls-11" d="M483,268.49c0-.28,5.4-.07,12,.48s11.94,1.23,11.92,1.51-5.4.07-12-.48S482.94,268.78,483,268.49Z"/><path class="cls-6" d="M327.16,177.59c.13.06-.75,2.3-2.28,5.86l-1.27,2.92a32.8,32.8,0,0,1-1.59,3.37,2.18,2.18,0,0,1-2.13,1,5.37,5.37,0,0,1-2-1l-3.56-2.44c-4.87-3.36-9.26-6.45-12.4-8.73s-5-3.75-5-3.87,2.13,1.14,5.38,3.27,7.69,5.12,12.57,8.48l3.55,2.46a4.8,4.8,0,0,0,1.59.89,1.21,1.21,0,0,0,1.2-.62c1.14-2.09,2.1-4.34,3-6C325.91,179.66,327,177.53,327.16,177.59Z"/></g><g id="Chart_5" data-name="Chart 5"><path class="cls-1" d="M522.59,77.41a23,23,0,1,1-23.34-22.7A23.06,23.06,0,0,1,522.59,77.41Zm-34,.54a11,11,0,1,0,10.81-11.2A11,11,0,0,0,488.64,78Z"/><path class="cls-7" d="M522.59,77.41A23.06,23.06,0,0,1,500,100.85l-.19-12a11,11,0,0,0-.35-22.06l-.2-12A23,23,0,0,1,522.59,77.41Z"/><path class="cls-9" d="M502.05,102.7a26.25,26.25,0,0,1-26.87-26.14l14-.23c.12,7.12,5.53,11.6,12.61,11.48Z"/></g><g id="Chart_4" data-name="Chart 4"><rect class="cls-3" x="394.13" y="115.96" width="126.51" height="73.7" rx="8.14"/><path class="cls-6" d="M512.51,189.66l.25,0c.16,0,.41,0,.74-.06a8.46,8.46,0,0,0,2.76-.89,8.29,8.29,0,0,0,3.31-3.27,8.16,8.16,0,0,0,.91-2.85c.12-1.06,0-2.23.06-3.45,0-9.78,0-23.93-.08-41.4q0-6.56,0-13.72a8,8,0,0,0-6.37-7.66,21.32,21.32,0,0,0-3.77-.15l-32.82,0-75.2,0a7.9,7.9,0,0,0-7.4,5.18,12.71,12.71,0,0,0-.49,4.78v24.08q0,9.44,0,18.52v9c0,1.47,0,3,0,4.4a7.88,7.88,0,0,0,4.6,6.56,8.61,8.61,0,0,0,4.05.71h24.26l28.6,0,41.4.09,11.26.05,2.93,0,1,0s-.34,0-1,0l-2.93,0-11.26,0-41.4.08-28.6,0-15.93,0h-8.33a9.23,9.23,0,0,1-4.25-.75,8.22,8.22,0,0,1-3.37-2.79,8.38,8.38,0,0,1-1.52-4.16c-.06-1.5,0-2.95,0-4.44q0-4.44,0-9V150.26q0-9.44,0-19.19v-4.89c0-.82,0-1.63,0-2.47a7.77,7.77,0,0,1,.5-2.48,8.36,8.36,0,0,1,3.06-4,8.46,8.46,0,0,1,2.29-1.14,9.09,9.09,0,0,1,2.54-.39l75.2,0,32.82,0a22.61,22.61,0,0,1,3.85.17,8.48,8.48,0,0,1,3.47,1.6,8.37,8.37,0,0,1,3.22,6.47q0,7.15,0,13.73c0,17.47-.07,31.62-.08,41.4,0,1.23,0,2.38-.09,3.47a8.18,8.18,0,0,1-4.35,6.19,8,8,0,0,1-2.81.85A7.35,7.35,0,0,1,512.51,189.66Z"/><rect class="cls-9" x="410.78" y="143.98" width="3.63" height="31.77"/><rect class="cls-7" x="416.52" y="136.3" width="4.48" height="39.46"/><rect class="cls-9" x="436.16" y="166.74" width="3.63" height="9.02"/><rect class="cls-7" x="441.9" y="148.17" width="3.63" height="27.58"/><rect class="cls-9" x="459.84" y="130.4" width="3.63" height="45.35"/><rect class="cls-7" x="466.43" y="164.94" width="3.63" height="10.81"/><rect class="cls-9" x="483.51" y="135" width="3.63" height="40.76"/><rect class="cls-7" x="489.25" y="152.32" width="3.63" height="23.43"/><rect class="cls-9" x="501.26" y="172.59" width="3.63" height="3.16"/><rect class="cls-1" x="410.87" y="179.66" width="8.53" height="1.5" rx="0.61"/><rect class="cls-1" x="435.58" y="179.66" width="8.53" height="1.5" rx="0.61"/><rect class="cls-1" x="457.39" y="179.66" width="8.53" height="1.5" rx="0.61"/><rect class="cls-1" x="479.85" y="179.66" width="8.53" height="1.5" rx="0.61"/><rect class="cls-1" x="498.89" y="179.66" width="8.53" height="1.5" rx="0.61"/><path class="cls-6" d="M509.54,175.76c0,.14-23.35.26-52.15.26s-52.15-.12-52.15-.26,23.34-.26,52.15-.26S509.54,175.61,509.54,175.76Z"/><circle class="cls-1" cx="406.66" cy="126.38" r="1.99"/><path class="cls-1" d="M414.07,126.38a2,2,0,1,1-2-2A2,2,0,0,1,414.07,126.38Z"/><circle class="cls-1" cx="417.43" cy="126.38" r="1.99"/></g><g id="Chart_3" data-name="Chart 3"><circle class="cls-7" cx="429.5" cy="41.31" r="41.31" transform="translate(96.59 315.8) rotate(-45)"/><path class="cls-1" d="M429.5,41.31h41.31A41.31,41.31,0,1,1,462,15.76Z"/><path class="cls-9" d="M429.5,41.31h41.31A41.32,41.32,0,1,1,439.62,1.26Z"/><path class="cls-9" d="M429.5,41.31h41.31a41.31,41.31,0,0,1-79.27,16.28Z"/><g class="cls-8"><path d="M429.5,41.31h41.31a41.31,41.31,0,0,1-79.27,16.28Z"/></g></g><g id="Chart_2" data-name="Chart 2"><path class="cls-9" d="M186.68,152.27a29.44,29.44,0,1,0,29.44,29.44A29.44,29.44,0,0,0,186.68,152.27Zm0,45.88a16.45,16.45,0,1,1,16.45-16.44A16.44,16.44,0,0,1,186.68,198.15Z"/><path class="cls-1" d="M186.68,211.14a29.43,29.43,0,0,0,29.43-28.92h-13a16.42,16.42,0,0,1-32.83,0h-13A29.43,29.43,0,0,0,186.68,211.14Z"/><path class="cls-7" d="M186.68,152.27l-.51,0v13l.51,0a16.45,16.45,0,0,1,16.45,16.45c0,.17,0,.34,0,.51h13c0-.17,0-.34,0-.51A29.44,29.44,0,0,0,186.68,152.27Z"/><path class="cls-6" d="M203.11,182.22a16.39,16.39,0,0,1-5.93,12.14l8.1,10.16a29.36,29.36,0,0,0,10.82-22.3Z"/></g><g id="Chart_1" data-name="Chart 1"><rect class="cls-3" x="137.57" y="63.1" width="126.51" height="73.7" rx="8.14"/><path class="cls-6" d="M255.94,136.79l.25,0c.17,0,.42,0,.74-.07a8.17,8.17,0,0,0,6.07-4.16,8.09,8.09,0,0,0,.91-2.85c.12-1.06,0-2.22.07-3.44,0-9.79-.05-23.93-.09-41.41q0-6.56,0-13.72a8,8,0,0,0-6.37-7.66,23.36,23.36,0,0,0-3.77-.15l-32.82,0-75.2,0a7.88,7.88,0,0,0-7.4,5.18,12.84,12.84,0,0,0-.48,4.77V97.39q0,9.44,0,18.52v9c0,1.47,0,3,0,4.39a7.77,7.77,0,0,0,1.42,3.93,7.9,7.9,0,0,0,3.18,2.64,8.89,8.89,0,0,0,4.05.71h8.33l15.93,0,28.6,0,41.41.08,11.25.05,2.93,0,1,0-1,0-2.93,0-11.25,0-41.41.09-28.6,0H146.49a9.32,9.32,0,0,1-4.24-.75,8.37,8.37,0,0,1-4.89-7c-.07-1.5,0-2.94,0-4.43v-9q0-9.07,0-18.52V73.31c0-.82,0-1.62,0-2.47a7.86,7.86,0,0,1,.49-2.48,8.42,8.42,0,0,1,3.06-4,9.25,9.25,0,0,1,2.29-1.14,10,10,0,0,1,2.54-.39l75.2,0,32.82,0a21.63,21.63,0,0,1,3.85.17,8.34,8.34,0,0,1,6.69,8.07q0,7.16,0,13.72c0,17.48-.06,31.62-.08,41.41,0,1.22,0,2.37-.09,3.47a8.15,8.15,0,0,1-4.35,6.19,8,8,0,0,1-2.8.84A7.51,7.51,0,0,1,255.94,136.79Z"/><path class="cls-4" d="M226.12,78.7h16.52a.77.77,0,0,0,.55-1.3L234.93,69a.78.78,0,0,0-1.1,0l-8.25,8.44A.76.76,0,0,0,226.12,78.7Z"/><rect class="cls-4" x="229.32" y="77.13" width="10.59" height="43.22"/><rect class="cls-9" x="224.14" y="100.3" width="23.48" height="4.74" transform="translate(471.77 205.33) rotate(180)"/><path class="cls-6" d="M246.11,100.38a13.8,13.8,0,0,0-.1,2.29,14,14,0,0,0,.1,2.3,12.2,12.2,0,0,0,.11-2.3A12,12,0,0,0,246.11,100.38Z"/><path class="cls-6" d="M243.94,100.38a12.61,12.61,0,0,0-.1,2.29,12.77,12.77,0,0,0,.1,2.3,14,14,0,0,0,.1-2.3A13.8,13.8,0,0,0,243.94,100.38Z"/><path class="cls-6" d="M241.79,100.38a12,12,0,0,0-.11,2.29,12.2,12.2,0,0,0,.11,2.3,14,14,0,0,0,.1-2.3A13.8,13.8,0,0,0,241.79,100.38Z"/><path class="cls-6" d="M239.64,100.38a13.8,13.8,0,0,0-.1,2.29,14,14,0,0,0,.1,2.3,12.2,12.2,0,0,0,.11-2.3A12,12,0,0,0,239.64,100.38Z"/><path class="cls-6" d="M237.5,100.38a13.8,13.8,0,0,0-.1,2.29,14,14,0,0,0,.1,2.3,12.2,12.2,0,0,0,.11-2.3A12,12,0,0,0,237.5,100.38Z"/><path class="cls-6" d="M235.36,100.38a13.8,13.8,0,0,0-.1,2.29,14,14,0,0,0,.1,2.3,12.2,12.2,0,0,0,.11-2.3A12,12,0,0,0,235.36,100.38Z"/><path class="cls-6" d="M233.22,100.38a13.8,13.8,0,0,0-.1,2.29,14,14,0,0,0,.1,2.3,12.2,12.2,0,0,0,.11-2.3A12,12,0,0,0,233.22,100.38Z"/><path class="cls-6" d="M231.08,100.38a13.8,13.8,0,0,0-.1,2.29,14,14,0,0,0,.1,2.3,12.2,12.2,0,0,0,.11-2.3A12,12,0,0,0,231.08,100.38Z"/><path class="cls-6" d="M228.94,100.38a13.8,13.8,0,0,0-.1,2.29,14,14,0,0,0,.1,2.3,12.77,12.77,0,0,0,.1-2.3A12.61,12.61,0,0,0,228.94,100.38Z"/><path class="cls-6" d="M226.8,100.38a13.8,13.8,0,0,0-.1,2.29,14,14,0,0,0,.1,2.3,12.77,12.77,0,0,0,.1-2.3A12.61,12.61,0,0,0,226.8,100.38Z"/><path class="cls-6" d="M224.66,100.38a13.8,13.8,0,0,0-.1,2.29,14,14,0,0,0,.1,2.3,12.77,12.77,0,0,0,.1-2.3A12.61,12.61,0,0,0,224.66,100.38Z"/><rect class="cls-9" x="223.61" y="104.95" width="23.48" height="4.74" transform="translate(470.71 214.64) rotate(180)"/><path class="cls-6" d="M245.59,105a12.77,12.77,0,0,0-.1,2.3,12.61,12.61,0,0,0,.1,2.29,13.8,13.8,0,0,0,.1-2.29A14,14,0,0,0,245.59,105Z"/><path class="cls-6" d="M243.41,105a12.77,12.77,0,0,0-.1,2.3,12.61,12.61,0,0,0,.1,2.29,12.61,12.61,0,0,0,.1-2.29A12.77,12.77,0,0,0,243.41,105Z"/><path class="cls-6" d="M241.26,105a12.77,12.77,0,0,0-.1,2.3,12.61,12.61,0,0,0,.1,2.29,13.8,13.8,0,0,0,.1-2.29A14,14,0,0,0,241.26,105Z"/><path class="cls-6" d="M239.12,105a12.77,12.77,0,0,0-.1,2.3,12.61,12.61,0,0,0,.1,2.29,13.8,13.8,0,0,0,.1-2.29A14,14,0,0,0,239.12,105Z"/><path class="cls-6" d="M237,105a12.77,12.77,0,0,0-.1,2.3,12.61,12.61,0,0,0,.1,2.29,13.8,13.8,0,0,0,.1-2.29A14,14,0,0,0,237,105Z"/><path class="cls-6" d="M234.84,105a12.2,12.2,0,0,0-.11,2.3,12,12,0,0,0,.11,2.29,13.8,13.8,0,0,0,.1-2.29A14,14,0,0,0,234.84,105Z"/><path class="cls-6" d="M232.7,105a12.2,12.2,0,0,0-.11,2.3,12,12,0,0,0,.11,2.29,13.8,13.8,0,0,0,.1-2.29A14,14,0,0,0,232.7,105Z"/><path class="cls-6" d="M230.56,105a12.2,12.2,0,0,0-.11,2.3,12,12,0,0,0,.11,2.29,13.8,13.8,0,0,0,.1-2.29A14,14,0,0,0,230.56,105Z"/><path class="cls-6" d="M228.42,105a12.2,12.2,0,0,0-.11,2.3,12,12,0,0,0,.11,2.29,13.8,13.8,0,0,0,.1-2.29A14,14,0,0,0,228.42,105Z"/><path class="cls-6" d="M226.27,105a14,14,0,0,0-.1,2.3,13.8,13.8,0,0,0,.1,2.29,12,12,0,0,0,.11-2.29A12.2,12.2,0,0,0,226.27,105Z"/><path class="cls-6" d="M224.13,105a14,14,0,0,0-.1,2.3,13.8,13.8,0,0,0,.1,2.29,12,12,0,0,0,.11-2.29A12.2,12.2,0,0,0,224.13,105Z"/><g class="cls-8"><path d="M246.72,105A85.63,85.63,0,0,1,224,105Z"/></g><path class="cls-6" d="M223.61,105c0,.06,5.25.1,11.72.1s11.72,0,11.72-.1-5.25-.1-11.72-.1S223.61,104.91,223.61,105Z"/><rect class="cls-9" x="225.84" y="109.54" width="23.48" height="4.74" transform="translate(475.17 223.81) rotate(180)"/><path class="cls-6" d="M247.82,109.62a12.61,12.61,0,0,0-.1,2.29,12.77,12.77,0,0,0,.1,2.3,14,14,0,0,0,.1-2.3A13.8,13.8,0,0,0,247.82,109.62Z"/><path class="cls-6" d="M245.64,109.62a12.61,12.61,0,0,0-.1,2.29,12.77,12.77,0,0,0,.1,2.3,12.77,12.77,0,0,0,.1-2.3A12.61,12.61,0,0,0,245.64,109.62Z"/><path class="cls-6" d="M243.49,109.62a12.61,12.61,0,0,0-.1,2.29,12.77,12.77,0,0,0,.1,2.3,14,14,0,0,0,.1-2.3A13.8,13.8,0,0,0,243.49,109.62Z"/><path class="cls-6" d="M241.35,109.62a12.61,12.61,0,0,0-.1,2.29,12.77,12.77,0,0,0,.1,2.3,14,14,0,0,0,.1-2.3A13.8,13.8,0,0,0,241.35,109.62Z"/><path class="cls-6" d="M239.21,109.62a12,12,0,0,0-.11,2.29,12.2,12.2,0,0,0,.11,2.3,14,14,0,0,0,.1-2.3A13.8,13.8,0,0,0,239.21,109.62Z"/><path class="cls-6" d="M237.07,109.62a12,12,0,0,0-.11,2.29,12.2,12.2,0,0,0,.11,2.3,14,14,0,0,0,.1-2.3A13.8,13.8,0,0,0,237.07,109.62Z"/><path class="cls-6" d="M234.93,109.62a12,12,0,0,0-.11,2.29,12.2,12.2,0,0,0,.11,2.3,14,14,0,0,0,.1-2.3A13.8,13.8,0,0,0,234.93,109.62Z"/><path class="cls-6" d="M232.79,109.62a12,12,0,0,0-.11,2.29,12.2,12.2,0,0,0,.11,2.3,14,14,0,0,0,.1-2.3A13.8,13.8,0,0,0,232.79,109.62Z"/><path class="cls-6" d="M230.65,109.62a12,12,0,0,0-.11,2.29,12.2,12.2,0,0,0,.11,2.3,14,14,0,0,0,.1-2.3A13.8,13.8,0,0,0,230.65,109.62Z"/><path class="cls-6" d="M228.5,109.62a13.8,13.8,0,0,0-.1,2.29,14,14,0,0,0,.1,2.3,12.2,12.2,0,0,0,.11-2.3A12,12,0,0,0,228.5,109.62Z"/><path class="cls-6" d="M226.36,109.62a13.8,13.8,0,0,0-.1,2.29,14,14,0,0,0,.1,2.3,12.2,12.2,0,0,0,.11-2.3A12,12,0,0,0,226.36,109.62Z"/><g class="cls-8"><path d="M249,109.54a85.64,85.64,0,0,1-22.73,0Z"/></g><path class="cls-6" d="M225.84,109.55c0,.06,5.24.1,11.72.1s11.72,0,11.72-.1-5.25-.1-11.72-.1S225.84,109.5,225.84,109.55Z"/><rect class="cls-9" x="223.09" y="114.24" width="23.48" height="4.55" transform="translate(469.67 233.03) rotate(180)"/><path class="cls-6" d="M245.07,114.31a22.26,22.26,0,0,0,0,4.42,24.47,24.47,0,0,0,0-4.42Z"/><path class="cls-6" d="M242.89,114.31a24.47,24.47,0,0,0,0,4.42,24.47,24.47,0,0,0,0-4.42Z"/><path class="cls-6" d="M240.74,114.31a22.26,22.26,0,0,0,0,4.42,24.47,24.47,0,0,0,0-4.42Z"/><path class="cls-6" d="M238.6,114.31a22.26,22.26,0,0,0,0,4.42,24.47,24.47,0,0,0,0-4.42Z"/><path class="cls-6" d="M236.46,114.31a22.26,22.26,0,0,0,0,4.42,24.47,24.47,0,0,0,0-4.42Z"/><path class="cls-6" d="M234.32,114.31a22.26,22.26,0,0,0,0,4.42,24.47,24.47,0,0,0,0-4.42Z"/><path class="cls-6" d="M232.17,114.31a24.47,24.47,0,0,0,0,4.42,22.26,22.26,0,0,0,0-4.42Z"/><path class="cls-6" d="M230,114.31a24.47,24.47,0,0,0,0,4.42,22.26,22.26,0,0,0,0-4.42Z"/><path class="cls-6" d="M227.89,114.31a24.47,24.47,0,0,0,0,4.42,22.26,22.26,0,0,0,0-4.42Z"/><path class="cls-6" d="M225.75,114.31a24.47,24.47,0,0,0,0,4.42,22.26,22.26,0,0,0,0-4.42Z"/><path class="cls-6" d="M223.61,114.31a24.47,24.47,0,0,0,0,4.42,22.26,22.26,0,0,0,0-4.42Z"/><g class="cls-8"><path d="M246.2,114.24a67.23,67.23,0,0,1-22.73,0Z"/></g><path class="cls-6" d="M223.09,114.25c0,.06,5.24.1,11.72.1s11.72,0,11.72-.1-5.25-.1-11.72-.1S223.09,114.2,223.09,114.25Z"/><rect class="cls-9" x="224.6" y="118.79" width="23.48" height="4.55" transform="translate(472.69 242.14) rotate(180)"/><path class="cls-6" d="M246.58,118.87a22.26,22.26,0,0,0,0,4.42,24.47,24.47,0,0,0,0-4.42Z"/><path class="cls-6" d="M244.4,118.87a24.47,24.47,0,0,0,0,4.42,24.47,24.47,0,0,0,0-4.42Z"/><ellipse class="cls-6" cx="242.25" cy="121.08" rx="0.1" ry="2.21"/><path class="cls-6" d="M240.11,118.87a22.26,22.26,0,0,0,0,4.42,24.47,24.47,0,0,0,0-4.42Z"/><path class="cls-6" d="M238,118.87a22.26,22.26,0,0,0,0,4.42,24.47,24.47,0,0,0,0-4.42Z"/><path class="cls-6" d="M235.83,118.87a22.26,22.26,0,0,0,0,4.42,24.47,24.47,0,0,0,0-4.42Z"/><path class="cls-6" d="M233.68,118.87a24.47,24.47,0,0,0,0,4.42,22.26,22.26,0,0,0,0-4.42Z"/><path class="cls-6" d="M231.54,118.87a24.47,24.47,0,0,0,0,4.42,22.26,22.26,0,0,0,0-4.42Z"/><path class="cls-6" d="M229.4,118.87a24.47,24.47,0,0,0,0,4.42,22.26,22.26,0,0,0,0-4.42Z"/><ellipse class="cls-6" cx="227.26" cy="121.08" rx="0.1" ry="2.21"/><path class="cls-6" d="M225.12,118.87a24.47,24.47,0,0,0,0,4.42,22.26,22.26,0,0,0,0-4.42Z"/><g class="cls-8"><path d="M247.71,118.8a59.53,59.53,0,0,1-22.73,0Z"/></g><path class="cls-6" d="M224.6,118.81s5.24.1,11.72.1,11.72,0,11.72-.1-5.25-.1-11.72-.1S224.6,118.75,224.6,118.81Z"/><rect class="cls-9" x="223.26" y="123.29" width="23.48" height="4.55" transform="translate(470 251.13) rotate(180)"/><path class="cls-6" d="M245.23,123.36a24.47,24.47,0,0,0,0,4.42,22.26,22.26,0,0,0,0-4.42Z"/><path class="cls-6" d="M243.06,123.36a22.26,22.26,0,0,0,0,4.42,24.47,24.47,0,0,0,0-4.42Z"/><path class="cls-6" d="M240.9,123.36a24.47,24.47,0,0,0,0,4.42,22.26,22.26,0,0,0,0-4.42Z"/><path class="cls-6" d="M238.76,123.36a24.47,24.47,0,0,0,0,4.42,22.26,22.26,0,0,0,0-4.42Z"/><path class="cls-6" d="M236.62,123.36a24.47,24.47,0,0,0,0,4.42,22.26,22.26,0,0,0,0-4.42Z"/><path class="cls-6" d="M234.48,123.36a24.47,24.47,0,0,0,0,4.42,22.26,22.26,0,0,0,0-4.42Z"/><path class="cls-6" d="M232.34,123.36a24.47,24.47,0,0,0,0,4.42,24.47,24.47,0,0,0,0-4.42Z"/><path class="cls-6" d="M230.2,123.36a24.47,24.47,0,0,0,0,4.42,24.47,24.47,0,0,0,0-4.42Z"/><path class="cls-6" d="M228.06,123.36a24.47,24.47,0,0,0,0,4.42,24.47,24.47,0,0,0,0-4.42Z"/><path class="cls-6" d="M225.92,123.36a24.47,24.47,0,0,0,0,4.42,24.47,24.47,0,0,0,0-4.42Z"/><path class="cls-6" d="M223.78,123.36a24.47,24.47,0,0,0,0,4.42,24.47,24.47,0,0,0,0-4.42Z"/><g class="cls-8"><path d="M246.37,123.29a67.23,67.23,0,0,1-22.73,0Z"/></g><path class="cls-6" d="M223.25,123.3c0,.06,5.25.1,11.72.1s11.73,0,11.73-.1-5.25-.1-11.73-.1S223.25,123.24,223.25,123.3Z"/><path class="cls-6" d="M246.74,127.84v-.31c0-.21,0-.5,0-.88,0-.79,0-1.91,0-3.3v0H248l-.06.06c0-1.33,0-2.87,0-4.56l.07.07h-1.58v-.07c0-1.41,0-2.93,0-4.52v-.07h2.83l-.08.07c0-1.68,0-3.3,0-4.82l.07.07H247v-.07c0-1.65,0-3.14,0-4.42v0h.62l-.05,0c0-1.46,0-2.64,0-3.46,0-.4,0-.71,0-.93v-.25s0-.08,0-.08a.45.45,0,0,0,0,.08v.25q0,.33,0,.93c0,.82,0,2,.06,3.46v0h-.63l0-.06c0,1.28,0,2.77,0,4.42l-.07-.07h2.3v.07c0,1.52,0,3.14,0,4.82v.08h-2.83l.07-.08v4.52l-.07-.07h1.58v.07c0,1.69,0,3.23,0,4.56v.06h-1.35l0-.05c0,1.39,0,2.51,0,3.3,0,.38,0,.67,0,.88v.23S246.75,127.84,246.74,127.84Z"/><path class="cls-9" d="M232.83,88.66a3.88,3.88,0,0,1,1.26,3,4.34,4.34,0,0,1-.62,2.26,4.53,4.53,0,0,1-1.92,1.67,7.23,7.23,0,0,1-3.23.64,12.67,12.67,0,0,1-2.66-.29,8,8,0,0,1-2.31-.88l1.44-3.23a6.83,6.83,0,0,0,1.67.71,6.4,6.4,0,0,0,1.7.24,2.37,2.37,0,0,0,1.2-.27.85.85,0,0,0,.46-.75.75.75,0,0,0-.42-.7,3.24,3.24,0,0,0-1.49-.23h-3.66l.63-7.9h8.38v3.31h-4.88l-.09,1.28h.64A5.64,5.64,0,0,1,232.83,88.66Z"/><path class="cls-9" d="M237.68,95.42a5.36,5.36,0,0,1-2-2.34,9.49,9.49,0,0,1,0-7.3,5.47,5.47,0,0,1,2-2.34,5.89,5.89,0,0,1,5.93,0,5.47,5.47,0,0,1,2,2.34,9.49,9.49,0,0,1,0,7.3,5.36,5.36,0,0,1-2,2.34,5.83,5.83,0,0,1-5.93,0Zm4.41-6c0-2.19-.48-3.28-1.44-3.28s-1.45,1.09-1.45,3.28.48,3.29,1.45,3.29S242.09,91.63,242.09,89.43Z"/><path class="cls-9" d="M248.1,85.68a1.4,1.4,0,0,1,0-1.68.91.91,0,0,1,.73-.32,1,1,0,0,1,.74.31,1.3,1.3,0,0,1,.28.85,1.25,1.25,0,0,1-.28.84,1,1,0,0,1-.74.32A.94.94,0,0,1,248.1,85.68Zm1.12-.3a.94.94,0,0,0,.13-.54,1,1,0,0,0-.13-.55.48.48,0,0,0-.77,0,1.11,1.11,0,0,0,0,1.08.47.47,0,0,0,.38.2A.45.45,0,0,0,249.22,85.38Zm2.15-1.66H252L249.07,88h-.59Zm-.49,4a1.42,1.42,0,0,1,0-1.69,1,1,0,0,1,1.46,0,1.38,1.38,0,0,1,0,1.69,1,1,0,0,1-1.46,0Zm1.11-.3a1,1,0,0,0,.14-.55.94.94,0,0,0-.14-.54.47.47,0,0,0-.76,0,.87.87,0,0,0-.14.54.88.88,0,0,0,.14.55.47.47,0,0,0,.76,0Z"/><path class="cls-4" d="M192.33,85.19h16.52a.77.77,0,0,0,.55-1.31l-8.26-8.43a.77.77,0,0,0-1.1,0l-8.26,8.43A.77.77,0,0,0,192.33,85.19Z"/><rect class="cls-4" x="195.53" y="83.62" width="10.59" height="43.22"/><path class="cls-9" d="M199.26,106.88v3.42H188.77v-2.71l4.73-4.38a3.77,3.77,0,0,0,.82-1,1.74,1.74,0,0,0,.21-.8.92.92,0,0,0-.33-.76,1.44,1.44,0,0,0-.94-.27,2.14,2.14,0,0,0-1.93,1.21L188,99.94a5.44,5.44,0,0,1,2.19-2.22,7,7,0,0,1,3.48-.81,7.17,7.17,0,0,1,2.75.5,4.4,4.4,0,0,1,1.87,1.44A3.6,3.6,0,0,1,199,101a4.54,4.54,0,0,1-.46,2,7.58,7.58,0,0,1-1.78,2.14l-1.88,1.7Z"/><path class="cls-9" d="M209.56,103a3.86,3.86,0,0,1,1.3,3,4.22,4.22,0,0,1-.65,2.27,4.54,4.54,0,0,1-2,1.69,7.73,7.73,0,0,1-3.35.64,13,13,0,0,1-2.76-.3,8.49,8.49,0,0,1-2.4-.88l1.5-3.25a7.08,7.08,0,0,0,1.73.71,6.83,6.83,0,0,0,1.76.24,2.55,2.55,0,0,0,1.25-.27.82.82,0,0,0,.47-.76.75.75,0,0,0-.43-.7,3.64,3.64,0,0,0-1.55-.23h-3.8l.66-8H210v3.33h-5.07l-.1,1.29h.68A6,6,0,0,1,209.56,103Z"/><rect class="cls-9" x="188.71" y="114.24" width="23.48" height="4.55" transform="translate(400.9 233.03) rotate(180)"/><path class="cls-6" d="M210.68,114.31a24.47,24.47,0,0,0,0,4.42,24.47,24.47,0,0,0,0-4.42Z"/><path class="cls-6" d="M208.5,114.31a24.47,24.47,0,0,0,0,4.42,22.26,22.26,0,0,0,0-4.42Z"/><path class="cls-6" d="M206.35,114.31a24.47,24.47,0,0,0,0,4.42,24.47,24.47,0,0,0,0-4.42Z"/><path class="cls-6" d="M204.21,114.31a24.47,24.47,0,0,0,0,4.42,24.47,24.47,0,0,0,0-4.42Z"/><path class="cls-6" d="M202.07,114.31a24.47,24.47,0,0,0,0,4.42,24.47,24.47,0,0,0,0-4.42Z"/><path class="cls-6" d="M199.93,114.31a24.47,24.47,0,0,0,0,4.42,24.47,24.47,0,0,0,0-4.42Z"/><path class="cls-6" d="M197.79,114.31a24.47,24.47,0,0,0,0,4.42,24.47,24.47,0,0,0,0-4.42Z"/><path class="cls-6" d="M195.65,114.31a24.47,24.47,0,0,0,0,4.42,24.47,24.47,0,0,0,0-4.42Z"/><path class="cls-6" d="M193.51,114.31a24.47,24.47,0,0,0,0,4.42,24.47,24.47,0,0,0,0-4.42Z"/><path class="cls-6" d="M191.37,114.31a24.47,24.47,0,0,0,0,4.42,24.47,24.47,0,0,0,0-4.42Z"/><path class="cls-6" d="M189.23,114.31a24.47,24.47,0,0,0,0,4.42,24.47,24.47,0,0,0,0-4.42Z"/><path class="cls-6" d="M188.7,114.25c0,.06,5.25.1,11.72.1s11.72,0,11.72-.1-5.24-.1-11.72-.1S188.7,114.2,188.7,114.25Z"/><rect class="cls-9" x="190.22" y="118.79" width="23.48" height="4.55" transform="translate(403.92 242.14) rotate(180)"/><path class="cls-6" d="M212.19,118.87a24.47,24.47,0,0,0,0,4.42,24.47,24.47,0,0,0,0-4.42Z"/><path class="cls-6" d="M210,118.87a24.47,24.47,0,0,0,0,4.42,22.26,22.26,0,0,0,0-4.42Z"/><ellipse class="cls-6" cx="207.86" cy="121.08" rx="0.1" ry="2.21"/><path class="cls-6" d="M205.72,118.87a24.47,24.47,0,0,0,0,4.42,24.47,24.47,0,0,0,0-4.42Z"/><path class="cls-6" d="M203.58,118.87a24.47,24.47,0,0,0,0,4.42,24.47,24.47,0,0,0,0-4.42Z"/><path class="cls-6" d="M201.44,118.87a24.47,24.47,0,0,0,0,4.42,24.47,24.47,0,0,0,0-4.42Z"/><path class="cls-6" d="M199.3,118.87a24.47,24.47,0,0,0,0,4.42,24.47,24.47,0,0,0,0-4.42Z"/><path class="cls-6" d="M197.16,118.87a24.47,24.47,0,0,0,0,4.42,24.47,24.47,0,0,0,0-4.42Z"/><path class="cls-6" d="M195,118.87a24.47,24.47,0,0,0,0,4.42,24.47,24.47,0,0,0,0-4.42Z"/><ellipse class="cls-6" cx="192.88" cy="121.08" rx="0.1" ry="2.21"/><path class="cls-6" d="M190.74,118.87a24.47,24.47,0,0,0,0,4.42,24.47,24.47,0,0,0,0-4.42Z"/><g class="cls-8"><path d="M213.32,118.8a59.53,59.53,0,0,1-22.73,0Z"/></g><path class="cls-6" d="M190.21,118.81s5.25.1,11.72.1,11.72,0,11.72-.1-5.24-.1-11.72-.1S190.21,118.75,190.21,118.81Z"/><rect class="cls-9" x="188.88" y="123.29" width="23.48" height="4.55" transform="translate(401.24 251.13) rotate(180)"/><path class="cls-6" d="M210.85,123.36a24.47,24.47,0,0,0,0,4.42,24.47,24.47,0,0,0,0-4.42Z"/><path class="cls-6" d="M208.67,123.36a24.47,24.47,0,0,0,0,4.42,24.47,24.47,0,0,0,0-4.42Z"/><path class="cls-6" d="M206.52,123.36a24.47,24.47,0,0,0,0,4.42,24.47,24.47,0,0,0,0-4.42Z"/><path class="cls-6" d="M204.38,123.36a24.47,24.47,0,0,0,0,4.42,24.47,24.47,0,0,0,0-4.42Z"/><path class="cls-6" d="M202.24,123.36a24.47,24.47,0,0,0,0,4.42,24.47,24.47,0,0,0,0-4.42Z"/><path class="cls-6" d="M200.1,123.36a24.47,24.47,0,0,0,0,4.42,24.47,24.47,0,0,0,0-4.42Z"/><path class="cls-6" d="M198,123.36a24.47,24.47,0,0,0,0,4.42,24.47,24.47,0,0,0,0-4.42Z"/><path class="cls-6" d="M195.82,123.36a24.47,24.47,0,0,0,0,4.42,24.47,24.47,0,0,0,0-4.42Z"/><path class="cls-6" d="M193.68,123.36a24.47,24.47,0,0,0,0,4.42,24.47,24.47,0,0,0,0-4.42Z"/><path class="cls-6" d="M191.54,123.36a24.47,24.47,0,0,0,0,4.42,24.47,24.47,0,0,0,0-4.42Z"/><path class="cls-6" d="M189.4,123.36a24.47,24.47,0,0,0,0,4.42,24.47,24.47,0,0,0,0-4.42Z"/><g class="cls-8"><path d="M212,123.29a67.23,67.23,0,0,1-22.73,0Z"/></g><path class="cls-6" d="M188.87,123.3c0,.06,5.25.1,11.72.1s11.72,0,11.72-.1-5.24-.1-11.72-.1S188.87,123.24,188.87,123.3Z"/><path class="cls-9" d="M212,99.79a1.29,1.29,0,0,1-.28-.84,1.25,1.25,0,0,1,.28-.84.92.92,0,0,1,.73-.33,1,1,0,0,1,.74.32,1.42,1.42,0,0,1,0,1.69,1,1,0,0,1-1.47,0Zm1.12-.3a.94.94,0,0,0,.13-.54,1,1,0,0,0-.13-.55.44.44,0,0,0-.39-.19.46.46,0,0,0-.38.19,1,1,0,0,0-.14.55.94.94,0,0,0,.14.54.46.46,0,0,0,.38.19A.44.44,0,0,0,213.1,99.49Zm2.15-1.66h.6l-2.9,4.23h-.59Zm-.49,4a1.2,1.2,0,0,1-.28-.84,1.24,1.24,0,0,1,.28-.84,1,1,0,0,1,1.46,0,1.24,1.24,0,0,1,.29.84,1.21,1.21,0,0,1-.29.84,1,1,0,0,1-1.46,0Zm1.11-.3a1.11,1.11,0,0,0,0-1.08.46.46,0,0,0-.76,0,.94.94,0,0,0-.14.54,1,1,0,0,0,.14.55.44.44,0,0,0,.38.19A.44.44,0,0,0,215.87,101.48Z"/><path class="cls-9" d="M175.33,109.89a1.25,1.25,0,0,1-.27-.84,1.28,1.28,0,0,1,.27-.84,1,1,0,0,1,1.47,0,1.2,1.2,0,0,1,.28.84,1.25,1.25,0,0,1-.28.85.94.94,0,0,1-.74.31A.91.91,0,0,1,175.33,109.89Zm1.12-.29a1,1,0,0,0,.14-.55.94.94,0,0,0-.14-.54.45.45,0,0,0-.39-.2.44.44,0,0,0-.37.2,1,1,0,0,0,0,1.08.47.47,0,0,0,.76,0Zm2.16-1.67h.59l-2.89,4.24h-.6Zm-.5,4a1.4,1.4,0,0,1,0-1.68.89.89,0,0,1,.73-.32.93.93,0,0,1,.74.32,1.4,1.4,0,0,1,0,1.68,1,1,0,0,1-.74.32A.93.93,0,0,1,178.11,111.89Zm1.11-.3a1.11,1.11,0,0,0,0-1.08.44.44,0,0,0-.38-.2.46.46,0,0,0-.38.19,1,1,0,0,0-.14.55.94.94,0,0,0,.14.54.46.46,0,0,0,.76,0Z"/><path class="cls-4" d="M157.77,94.7h16.52a.76.76,0,0,0,.54-1.3L166.58,85a.77.77,0,0,0-1.1,0l-8.26,8.44A.77.77,0,0,0,157.77,94.7Z"/><rect class="cls-4" x="160.96" y="93.13" width="10.59" height="33.58"/><rect class="cls-9" x="153.88" y="123.33" width="23.48" height="4.55" transform="translate(331.24 251.21) rotate(180)"/><path class="cls-6" d="M175.85,123.41a12.74,12.74,0,0,0-.1,2.2,12.91,12.91,0,0,0,.1,2.21,11.8,11.8,0,0,0,.1-2.21A11.64,11.64,0,0,0,175.85,123.41Z"/><path class="cls-6" d="M173.67,123.41a12.74,12.74,0,0,0-.1,2.2,12.91,12.91,0,0,0,.1,2.21,11.27,11.27,0,0,0,.11-2.21A11.12,11.12,0,0,0,173.67,123.41Z"/><path class="cls-6" d="M171.52,123.41a12.74,12.74,0,0,0-.1,2.2,12.91,12.91,0,0,0,.1,2.21,11.8,11.8,0,0,0,.1-2.21A11.64,11.64,0,0,0,171.52,123.41Z"/><path class="cls-6" d="M169.38,123.41a12.74,12.74,0,0,0-.1,2.2,12.91,12.91,0,0,0,.1,2.21,11.8,11.8,0,0,0,.1-2.21A11.64,11.64,0,0,0,169.38,123.41Z"/><path class="cls-6" d="M167.24,123.41a11.64,11.64,0,0,0-.1,2.2,11.8,11.8,0,0,0,.1,2.21,11.8,11.8,0,0,0,.1-2.21A11.64,11.64,0,0,0,167.24,123.41Z"/><path class="cls-6" d="M165.1,123.41a11.64,11.64,0,0,0-.1,2.2,11.8,11.8,0,0,0,.1,2.21,11.8,11.8,0,0,0,.1-2.21A11.64,11.64,0,0,0,165.1,123.41Z"/><path class="cls-6" d="M163,123.41a11.64,11.64,0,0,0-.1,2.2,11.8,11.8,0,0,0,.1,2.21,11.8,11.8,0,0,0,.1-2.21A11.64,11.64,0,0,0,163,123.41Z"/><path class="cls-6" d="M160.82,123.41a11.64,11.64,0,0,0-.1,2.2,11.8,11.8,0,0,0,.1,2.21,11.8,11.8,0,0,0,.1-2.21A11.64,11.64,0,0,0,160.82,123.41Z"/><path class="cls-6" d="M158.68,123.41a11.64,11.64,0,0,0-.1,2.2,11.8,11.8,0,0,0,.1,2.21,11.8,11.8,0,0,0,.1-2.21A11.64,11.64,0,0,0,158.68,123.41Z"/><path class="cls-6" d="M156.54,123.41a11.64,11.64,0,0,0-.1,2.2,11.8,11.8,0,0,0,.1,2.21,11.8,11.8,0,0,0,.1-2.21A11.64,11.64,0,0,0,156.54,123.41Z"/><path class="cls-6" d="M154.4,123.41a11.64,11.64,0,0,0-.1,2.2,11.8,11.8,0,0,0,.1,2.21,11.8,11.8,0,0,0,.1-2.21A11.64,11.64,0,0,0,154.4,123.41Z"/><path class="cls-6" d="M153.87,123.34c0,.06,5.25.11,11.72.11s11.72,0,11.72-.11-5.24-.1-11.72-.1S153.87,123.29,153.87,123.34Z"/><path class="cls-9" d="M161.15,107.67v13.1h-4.41V111h-2.25v-3.33Z"/><path class="cls-9" d="M165.61,120.25a5.48,5.48,0,0,1-2.09-2.36,9.27,9.27,0,0,1,0-7.35,5.46,5.46,0,0,1,2.09-2.35,6.19,6.19,0,0,1,6.16,0,5.46,5.46,0,0,1,2.09,2.35,9.27,9.27,0,0,1,0,7.35,5.48,5.48,0,0,1-2.09,2.36,6.19,6.19,0,0,1-6.16,0Zm4.58-6c0-2.21-.5-3.31-1.5-3.31s-1.5,1.1-1.5,3.31.5,3.31,1.5,3.31S170.19,116.43,170.19,114.22Z"/></g><g id="Character_3" data-name="Character 3"><path class="cls-6" d="M585.71,160a46.92,46.92,0,0,1,4.74-11.86,20.62,20.62,0,0,1,9.32-8.48l.76,1a5.36,5.36,0,0,1,9.46.21,5.29,5.29,0,0,1,4.3,8.92,4.85,4.85,0,0,1,.6,9,7.06,7.06,0,0,1-6.43,11.45A5.58,5.58,0,0,1,598,173.42a5.61,5.61,0,0,1-5.21,4.72,7.63,7.63,0,0,1-6.5-3.37,12.12,12.12,0,0,1-2-7.26A30.58,30.58,0,0,1,585.71,160Z"/><path class="cls-12" d="M600.24,143.44c2.3,1.22,2.45,3.28,2.67,5,.46,3.73-1.68,8.75-4.21,11.53s-5,4-8.74,3.86l2.61-16.9Z"/><path class="cls-6" d="M599.92,153.35a5.92,5.92,0,0,0,.79-7.55c1.3-1.15,1.28-3.28.43-4.8a11.59,11.59,0,0,0-3.75-3.55,8,8,0,0,0-8.14-7.34c-1.5-3.35-5.75-4.58-9.39-4.18a9.23,9.23,0,0,1-2.67.11,15.79,15.79,0,0,1-1.88-.6c-3.44-1.1-7.38.77-9.33,3.81a6.63,6.63,0,0,1-1,1.39,8.85,8.85,0,0,1-2,1.09,5.73,5.73,0,0,0-2.9,3.78c-.29,1.36-.11,2.89-.91,4a20.4,20.4,0,0,0-1.35,1.6c-1,1.76.76,4.05,0,5.94-.15.38-.39.72-.57,1.09a3.57,3.57,0,0,0-.22,2.47,4.9,4.9,0,0,1,.46,1.88,6,6,0,0,1-.53,1.38c-.45,1.12,1.28,6.06,2.17,6.87l30.06,5.57a5.72,5.72,0,0,0,5.21-4.07,2.06,2.06,0,0,1,.47-1.06,2.44,2.44,0,0,1,.92-.39c2.12-.7,2.83-3.32,3-5.55a2.54,2.54,0,0,1,.18-.91A3.24,3.24,0,0,1,599.92,153.35Z"/><path class="cls-10" d="M591.28,151.88a16.36,16.36,0,0,0-6.07-15.57,20.3,20.3,0,0,0-7.36-3.21,12.4,12.4,0,0,0-7.37.24c-1.73.1-8.79,4.59-10.17,10.58-1.53,6.65-3.14,14.83-3.17,20-.07,10.35,7.45,12.91,7.45,12.91s-3.66,16.57-3.66,16.57l12.71,14.79,9.18-18.31Z"/><path class="cls-11" d="M564.59,176.81a26.14,26.14,0,0,0,14.14-1.37S574,182,564,179.35Z"/><path class="cls-10" d="M588.08,161.17c.13-.76,1.29-2.38,2-2.38,2,0,5.57.77,4.77,5.81-1.09,6.88-7.77,4.36-7.75,4.17S587.65,163.76,588.08,161.17Z"/><path class="cls-11" d="M589.44,166.55s.11.1.3.23a1.2,1.2,0,0,0,.89.16,3,3,0,0,0,1.8-2.44,4,4,0,0,0-.07-1.77,1.43,1.43,0,0,0-.75-1.07.62.62,0,0,0-.76.22c-.13.18-.1.32-.14.33s-.13-.14,0-.42a.82.82,0,0,1,.34-.39,1,1,0,0,1,.69-.07,1.74,1.74,0,0,1,1.08,1.27,4,4,0,0,1,.11,2c-.26,1.38-1.17,2.57-2.22,2.7a1.27,1.27,0,0,1-1.06-.36C589.43,166.72,589.42,166.56,589.44,166.55Z"/><path class="cls-6" d="M559,142.64a18.64,18.64,0,0,1,3.65-6.62,15,15,0,0,1,3.83-3.59,16.43,16.43,0,0,1,4.1-1.58c3.73-1,7.8-1.73,11.37-.24a19.26,19.26,0,0,1,5.08,3.54,21.41,21.41,0,0,1,3.32,3.41,15.89,15.89,0,0,1,1.89,3.72,21.67,21.67,0,0,1,1.43,9.78c-.35,3.3,1.61,6.63-.77,8.95a39.35,39.35,0,0,1-4,.33c-.6.13-1.1-.58-1-1.18a2.24,2.24,0,0,1,1.12-1.36,1.69,1.69,0,0,1-1.06-2.06,4.64,4.64,0,0,1,1.47-2.1.73.73,0,0,0,.2-.26c.08-.29-.21-.52-.44-.72a2.35,2.35,0,0,1,.39-3.66,3.14,3.14,0,0,1-1.42-4.29,1,1,0,0,0,.23-.75c-.07-.25-.34-.37-.57-.48a4,4,0,0,1-1.86-4.9,10,10,0,0,1-2.82-.63,3.37,3.37,0,0,1-2-2,3.78,3.78,0,0,1-6.35-.77,9.81,9.81,0,0,1-4.58-1.55,4.67,4.67,0,0,1-3.57,2.69,1.17,1.17,0,0,0-.82.32,1,1,0,0,0-.16.54c-.12,1-.84,1.26-1.51,2s-1.8,1.74-2.68,1.31a4,4,0,0,1-2.8,3.32Z"/><path class="cls-7" d="M557.82,141.14a2.72,2.72,0,0,1,.49-.68c.19-.2.44-.44.69-.74a3.24,3.24,0,0,0,.6-1.22,10.15,10.15,0,0,0,.25-1.71,7.44,7.44,0,0,1,.4-2,5.92,5.92,0,0,1,1.26-2,6.39,6.39,0,0,1,1-.83,10,10,0,0,1,1.22-.62,4.76,4.76,0,0,0,1.2-.73,5.51,5.51,0,0,0,.86-1.18,9.45,9.45,0,0,1,5.12-4,8,8,0,0,1,1.76-.34,7.11,7.11,0,0,1,1.84.1c.31,0,.61.14.92.22l.88.32a4.28,4.28,0,0,0,1.84.31c.63,0,1.27-.14,1.94-.19a12.13,12.13,0,0,1,2,0,12.67,12.67,0,0,1,2,.32,10.59,10.59,0,0,1,2,.71,6.87,6.87,0,0,1,3.08,2.86l.2.38-.1-.06a8.09,8.09,0,0,1,8.24,7.45l0-.08a22.71,22.71,0,0,1,2.2,1.67,7.44,7.44,0,0,1,1.67,2.09,4.77,4.77,0,0,1,.49,2.52,3.28,3.28,0,0,1-1,2.22v-.12a5.77,5.77,0,0,1,1,3.8,5.91,5.91,0,0,1-1.28,3.29,5.44,5.44,0,0,1-.57.6,7.68,7.68,0,0,0-.58.54,1.54,1.54,0,0,0-.36.63,5.93,5.93,0,0,0-.1.72,10.71,10.71,0,0,1-.51,2.59,5.32,5.32,0,0,1-1,1.88,3.35,3.35,0,0,1-1.25.93c-.4.18-.73.22-.92.31a3,3,0,0,0-.29.17,1,1,0,0,1,.28-.19c.19-.11.52-.16.91-.34a3.36,3.36,0,0,0,1.21-.93,5.62,5.62,0,0,0,1-1.86,11.75,11.75,0,0,0,.48-2.57,3.86,3.86,0,0,1,.1-.74,1.62,1.62,0,0,1,.38-.69c.18-.2.39-.37.58-.55a6.28,6.28,0,0,0,.56-.59,5.74,5.74,0,0,0,1.23-3.22,5.6,5.6,0,0,0-1-3.68l0-.06.06,0a3.13,3.13,0,0,0,1-2.1,4.58,4.58,0,0,0-.48-2.42,7.19,7.19,0,0,0-1.63-2,22.73,22.73,0,0,0-2.18-1.66l-.05,0v-.06a7.89,7.89,0,0,0-8-7.24h-.07l0-.07c-.07-.12-.13-.24-.19-.37a6.73,6.73,0,0,0-3-2.77,10.44,10.44,0,0,0-1.91-.7,12.34,12.34,0,0,0-2-.31,13.07,13.07,0,0,0-2,0c-.65,0-1.29.18-2,.19a4.52,4.52,0,0,1-1-.06,5.28,5.28,0,0,1-.93-.26l-.89-.32a8.7,8.7,0,0,0-.88-.22,6.76,6.76,0,0,0-1.79-.1,8.18,8.18,0,0,0-1.72.33,9.06,9.06,0,0,0-3,1.56,8.83,8.83,0,0,0-2.09,2.33,5.68,5.68,0,0,1-.9,1.21,4.2,4.2,0,0,1-1.24.75,8.43,8.43,0,0,0-1.2.61,5.63,5.63,0,0,0-1,.81,5.72,5.72,0,0,0-1.25,2,7.5,7.5,0,0,0-.41,2,9.4,9.4,0,0,1-.27,1.72,3.24,3.24,0,0,1-.63,1.23c-.26.31-.52.54-.7.74a3.34,3.34,0,0,0-.41.47A1.44,1.44,0,0,1,557.82,141.14Z"/><path class="cls-7" d="M586.28,128.06s-.16-.14-.47-.36a4.8,4.8,0,0,0-1.42-.69,4.39,4.39,0,0,0-2.32-.05,4.56,4.56,0,0,0-2.37,1.52,3.71,3.71,0,0,0-.47.72.87.87,0,0,0-.07.73l.13.26-.27-.12a2.86,2.86,0,0,0-2.16-.11,2.77,2.77,0,0,0-1.38,1.08,3,3,0,0,0-.46,1.09,4.19,4.19,0,0,1-.08.42.4.4,0,0,1,0-.11,2.33,2.33,0,0,1,0-.33,2.92,2.92,0,0,1,.42-1.14,2.81,2.81,0,0,1,1.43-1.17,3,3,0,0,1,2.31.08L579,130a1.07,1.07,0,0,1,.06-.91,4.34,4.34,0,0,1,.5-.76,4.67,4.67,0,0,1,2.48-1.58,4.57,4.57,0,0,1,2.41.1,4.23,4.23,0,0,1,1.43.77,2.58,2.58,0,0,1,.32.29C586.25,128,586.29,128.05,586.28,128.06Z"/><path class="cls-7" d="M596.1,137.82s-.08.09-.28.2a4.09,4.09,0,0,1-.86.41,3.39,3.39,0,0,1-1.44.18,2.49,2.49,0,0,1-1.62-.8h.15l-.25.25-.28.23A4.34,4.34,0,0,1,588,139a3.61,3.61,0,0,1-1-.43,1.09,1.09,0,0,1-.32-.25,6.18,6.18,0,0,0,1.4.54,4.52,4.52,0,0,0,1.61,0,4,4,0,0,0,1.8-.76l.26-.21.24-.24.08-.08.07.09a2.38,2.38,0,0,0,1.49.75,3.3,3.3,0,0,0,1.37-.13C595.67,138.06,596.09,137.78,596.1,137.82Z"/><path class="cls-7" d="M598.67,144.8a.93.93,0,0,1,0,.13,1.52,1.52,0,0,1-.21.3,1.87,1.87,0,0,1-1.23.55,3.62,3.62,0,0,1-1.93-.54c-.33-.19-.67-.37-1-.61a2,2,0,0,1-.81-1l0-.11.15.07a7.72,7.72,0,0,1-2.24.88,3.51,3.51,0,0,1-2-.12,2.61,2.61,0,0,1-1.1-.74,1.68,1.68,0,0,1-.21-.3.49.49,0,0,1,0-.11s.11.14.32.35a2.65,2.65,0,0,0,1.09.66,3.61,3.61,0,0,0,1.87.08,8.38,8.38,0,0,0,2.18-.88l.13-.07,0,.14,0,.1a1.7,1.7,0,0,0,.72.91c.32.23.66.42,1,.61a3.47,3.47,0,0,0,1.83.56,1.82,1.82,0,0,0,1.18-.46A3.07,3.07,0,0,0,598.67,144.8Z"/><path class="cls-6" d="M574.24,154.87a1.29,1.29,0,0,0,1,1.52,1.22,1.22,0,0,0,1.54-.86,1.29,1.29,0,0,0-1-1.53A1.24,1.24,0,0,0,574.24,154.87Z"/><path class="cls-6" d="M561.64,152.65a1.29,1.29,0,0,0,1,1.52,1.22,1.22,0,0,0,1.54-.86,1.29,1.29,0,0,0-1-1.53A1.24,1.24,0,0,0,561.64,152.65Z"/><path class="cls-6" d="M562.05,148c.13.2,1.23-.31,2.59,0s2.21,1.17,2.39,1,0-.39-.38-.8a3.51,3.51,0,0,0-1.87-1,3.37,3.37,0,0,0-2.1.22C562.2,147.67,562,147.94,562.05,148Z"/><path class="cls-6" d="M576.19,150.52c.12.2,1.23-.31,2.58,0s2.21,1.17,2.4,1,0-.39-.38-.8a3.55,3.55,0,0,0-1.87-1,3.36,3.36,0,0,0-2.1.22C576.33,150.16,576.13,150.43,576.19,150.52Z"/><path class="cls-6" d="M568.62,160.46a8.91,8.91,0,0,0-2.13-.86c-.33-.11-.65-.25-.66-.5a1.83,1.83,0,0,1,.45-1l1.58-2.42a47.15,47.15,0,0,0,3.75-6.42c-.14-.09-2.05,2.64-4.26,6.1l-1.54,2.45a2.07,2.07,0,0,0-.46,1.32.9.9,0,0,0,.46.63,2.37,2.37,0,0,0,.57.21A9.41,9.41,0,0,0,568.62,160.46Z"/><path class="cls-11" d="M570.37,162.86a2,2,0,0,1,1.19,1,2.08,2.08,0,0,1-.1,1.86c-.31.28-1.44.08-2.2-.15a1,1,0,0,1-.67-.77l-.15-.94a1,1,0,0,1,.81-1.12A2.55,2.55,0,0,1,570.37,162.86Z"/><path class="cls-6" d="M576,144.62c.08.39,1.47.42,3.06.85s2.81,1.06,3.08.76c.12-.14-.06-.53-.53-1a5.57,5.57,0,0,0-4.68-1.23C576.3,144.18,576,144.43,576,144.62Z"/><path class="cls-6" d="M562.36,143.86c.2.38,1.35.33,2.65.64s2.33.8,2.66.55c.15-.13.06-.48-.35-.89a4.21,4.21,0,0,0-2-1,4.14,4.14,0,0,0-2.26.09C562.51,143.41,562.28,143.68,562.36,143.86Z"/><path class="cls-6" d="M572.51,162.81c-.2-.12-1,.83-2.29,1.2s-2.5,0-2.6.16.18.34.7.54a3.55,3.55,0,0,0,2.13.07,3.46,3.46,0,0,0,1.77-1.16C572.54,163.19,572.6,162.86,572.51,162.81Z"/><path class="cls-6" d="M567.43,447.85v1s-17.22,7.1-17.37,10.39l34.32-.51-.63-11.41A19.64,19.64,0,0,1,567.43,447.85Z"/><path class="cls-7" d="M584.38,458.75l-.15-2.74-32.84,1.48s-1.52.69-1.33,1.77Z"/><path class="cls-3" d="M567.32,449c0,.17.84.24,1.67.76s1.29,1.23,1.44,1.16-.11-1-1.13-1.65S567.28,448.81,567.32,449Z"/><path class="cls-3" d="M563.74,450.51c0,.16.69.43,1.27,1.13s.76,1.45.92,1.44.26-1-.48-1.81S563.74,450.35,563.74,450.51Z"/><path class="cls-3" d="M561.76,454.84c.15,0,.37-.8-.07-1.71s-1.24-1.27-1.31-1.13.43.63.78,1.38S561.59,454.83,561.76,454.84Z"/><path class="cls-6" d="M592,437.5l-14.61,4.08,3.64,8.29-3.78,21a2.37,2.37,0,0,0,1.65,2.72,2.44,2.44,0,0,0,2.46-.7c3.22-3.62,15-17,14.74-18.61l-.47-4.36c-.1-.91-1-3.06-1-3.25Z"/><path class="cls-7" d="M579.3,473.64l16.63-20.91.09.95a2.64,2.64,0,0,1-.68,2.19c-1.3,2.1-5,6.88-13.94,17a2.4,2.4,0,0,1-2.1.79Z"/><path class="cls-3" d="M583.69,463.33a7.26,7.26,0,0,0-2.19-1.57,7.51,7.51,0,0,0-2.71-.25c0-.05.25-.26.79-.38a3.75,3.75,0,0,1,2.1.17,3.57,3.57,0,0,1,1.68,1.24C583.67,463,583.74,463.3,583.69,463.33Z"/><path class="cls-3" d="M582.31,466.49a19.43,19.43,0,0,0-2.13-.78,21.45,21.45,0,0,0-2.28-.08,2.71,2.71,0,0,1,2.38-.41C581.68,465.49,582.43,466.42,582.31,466.49Z"/><path class="cls-3" d="M586.4,459.18a24.69,24.69,0,0,0-3.21-1.42,24.16,24.16,0,0,0-3.5-.46,5.37,5.37,0,0,1,3.64,0A5.31,5.31,0,0,1,586.4,459.18Z"/><path class="cls-7" d="M580.84,447a15.84,15.84,0,0,1,.17,2.82h0v0c-.18,1.22-.43,2.77-.73,4.45-.35,2-.69,3.8-1,5.1a10,10,0,0,1-.52,2.09,10.54,10.54,0,0,1,.22-2.14c.19-1.32.48-3.13.83-5.12.3-1.69.59-3.23.83-4.44v0A15.84,15.84,0,0,1,580.84,447Z"/><path class="cls-6" d="M601.63,312c1.15-5.56,4.07-15.61,2.92-20.24-2.67-10.72-7.34-16.92-13.72-30.54h-4.75l-45.54-.79-3.73,8.26c-4.14,11.14-7,17.79-8.13,25.94-1.34,9.38,1,23,6.23,36.71,11.26,29.63,17.54,53.33,18,59.71s1.12,13,7,33.19c4.32,14.75,7.52,23.58,7.52,23.58,4.49,2.53,9.25,3.21,13.58.75l13.21-5.1s-4.05-34.8-8.78-44c-3.4-6.65-9-9.81-6.37-18.47S598.09,329.08,601.63,312Z"/><path class="cls-7" d="M548.32,283.92a1.64,1.64,0,0,1,.18.23l.5.7,1.93,2.75L558.15,298l0,0v.05c-.35,3.89-.49,8.4-.73,13.43s-.5,10.56-.78,16.51-.65,12.3-1,18.95-.73,13.62-1.4,20.78c-.69,6-1.3,11.8-.8,17.43.13,1.4.31,2.79.57,4.14a26,26,0,0,0,1,4c.94,2.52,2,5,3.07,7.35,4.2,9.51,8.14,18,11.42,25.16l7.8,16.91c.92,2,1.63,3.54,2.12,4.61l.54,1.2c.12.27.17.41.17.41s-.08-.13-.21-.39-.34-.68-.58-1.18l-2.19-4.57-7.93-16.86c-3.32-7.14-7.28-15.62-11.51-25.13-1.05-2.39-2.14-4.81-3.1-7.38a27.31,27.31,0,0,1-1-4c-.27-1.37-.44-2.77-.58-4.18-.52-5.68.1-11.57.79-17.52.67-7.13,1-14.1,1.42-20.75s.7-13,1-18.95.59-11.48.85-16.51.42-9.54.8-13.43l0,.08-7.12-10.45L549,284.89c-.21-.3-.36-.54-.48-.72Z"/><path class="cls-2" d="M601.91,214.52l-12,32.4,3.49,18.32H535.9s6.72-16.63,7-20.45-3-26-1.19-33.47,7-23.52,7-23.52L564,185.36c7,3.78,12.54,3.14,20.1-1.23L598,191Z"/><path class="cls-9" d="M549.06,187.77s-4.65,1-8,7.76-15.94,36.16-16.43,41.1,3.51,11.6,7,12.52l10.6-10.57,8.8.79,11.58-54Z"/><g class="cls-8"><path d="M542.85,206a39.82,39.82,0,0,0-2.07,21L535,224.77a18.07,18.07,0,0,0,6,5.28,14.1,14.1,0,0,0-4.79-.81,4.81,4.81,0,0,0-4,2.34,19.51,19.51,0,0,1,5.74-.46,6.57,6.57,0,0,1,4.87,2.73A67.14,67.14,0,0,1,541.17,215"/></g><path class="cls-6" d="M552.39,231.11a2,2,0,0,1-.17-.43c-.1-.34-.23-.75-.39-1.26-.35-1.17-.82-2.75-1.39-4.69s-1.26-4.4-2-7c-.37-1.33-.81-2.74-1.08-4.25s-.56-3.05-.81-4.66l0-.19.17-.06,2.71-.94,2.81-1-.06.42-5-2.88-.17-.1.07-.17a115.12,115.12,0,0,1,5.48-11.13c.71-1.35,1.24-2.43,1.61-3.17a8.87,8.87,0,0,1,.59-1.14,1,1,0,0,1-.1.31l-.36.89c-.32.76-.82,1.86-1.5,3.23-1.33,2.75-3.48,6.5-5.31,11.17l-.1-.27,5,2.86.43.25-.49.17-2.79,1-2.68.93.15-.25c.24,1.6.5,3.16.78,4.65s.68,2.87,1,4.22c.72,2.66,1.38,5.05,1.93,7.07l1.25,4.73c.13.52.23.94.32,1.28A2.91,2.91,0,0,1,552.39,231.11Z"/><path class="cls-9" d="M590.64,246.65l15.5,46.16s-11.84,8.55-37.24,8.44l-4.67-47.82,2.33-25.07L565,216.13l7.58-15.45,12.08-20.83,2.34,5.53,13.7,5.83,2.17,22.55Z"/><polygon class="cls-9" points="550.49 251.86 541.9 299.62 525.9 295.57 525.9 295.57 538.65 251.86 540.76 239 546.72 243.8 550.49 251.86"/><g class="cls-8"><path d="M540.45,246.65l43.18,4.28c-3.11-.07-5.51,2.56-8.2,4.12-5,2.89-11.21,2.08-16.9,1.19L544.38,254a6.08,6.08,0,0,1-3.34-1.24C539.47,251.29,539.9,248.73,540.45,246.65Z"/></g><path class="cls-10" d="M573.43,243.1l7.23-7a3.36,3.36,0,0,1,2.63-.92,50.58,50.58,0,0,1,6.28.84,5,5,0,0,1,2.3,1.49,29.23,29.23,0,0,1,1.32,4.08,9.69,9.69,0,0,1-.11,1.47,1,1,0,0,1-1.5.78,1.78,1.78,0,0,1-.69-.64,2.27,2.27,0,0,1-.4-1.21s.23,3.11-2.3,3.16c0,0,1.17,2.65-2.09,3.74,0,0,.12,1.72-2.6,1.95a33.07,33.07,0,0,1-5.19,0s-5,3.58-8.48,3.81-11.35-1.31-11.35-1.31l-1-14.45Z"/><path class="cls-11" d="M583.23,238.67a8.07,8.07,0,0,0,1.15.48,30.08,30.08,0,0,0,2.89.94c.56.16,1.14.25,1.61.38a1.78,1.78,0,0,1,1,.81c.21.32.38.59.52.76s.24.24.25.23a2.45,2.45,0,0,0-.19-.28c-.12-.17-.27-.45-.47-.78a2.52,2.52,0,0,0-.39-.52,1.64,1.64,0,0,0-.65-.39c-.51-.15-1.05-.23-1.62-.4-1.14-.3-2.15-.64-2.89-.88A7.8,7.8,0,0,0,583.23,238.67Z"/><path class="cls-11" d="M582.29,243.1a4,4,0,0,0,.81.37c.51.2,1.21.47,2,.73s1.52.48,2,.62a3.2,3.2,0,0,0,.86.19,5.09,5.09,0,0,0-.82-.32l-2-.67-2-.68A3.8,3.8,0,0,0,582.29,243.1Z"/><path class="cls-11" d="M580.51,247.22c0,.06,1.26.19,2.76.6s2.67.92,2.69.87a3,3,0,0,0-.74-.39,13.9,13.9,0,0,0-1.9-.67,14.86,14.86,0,0,0-2-.38A3,3,0,0,0,580.51,247.22Z"/><path class="cls-9" d="M563.76,254.27l-32.08-5.12s3.86-16.09,9.48-16.09c.82,0,29.32,9.26,29.32,9.26Z"/><path class="cls-11" d="M569.37,247.27a6.85,6.85,0,0,0,.75-.69l1.76-1.72c.68-.68,1.28-1.3,1.71-1.77a4.67,4.67,0,0,0,.65-.78,5.76,5.76,0,0,0-.75.69l-1.75,1.72c-.68.67-1.29,1.3-1.71,1.76A4.91,4.91,0,0,0,569.37,247.27Z"/><path class="cls-6" d="M570.48,242.32a1.49,1.49,0,0,1-.41-.08l-1.14-.3-4.18-1.21c-3.53-1-8.39-2.49-13.74-4.13l-8.27-2.55-.07,0,0-.07a7.26,7.26,0,0,0-3.74-2.52,9.3,9.3,0,0,0-3.57-.37,11,11,0,0,0-2.31.46c-.53.17-.8.29-.81.27a2.75,2.75,0,0,1,.76-.39,9.5,9.5,0,0,1,6-.31,7.56,7.56,0,0,1,4,2.63l-.11-.08,8.28,2.51c5.36,1.64,10.2,3.15,13.7,4.26l4.14,1.35,1.12.38A1.56,1.56,0,0,1,570.48,242.32Z"/><path class="cls-9" d="M597.34,190.53l-13.59,11.64-14.61,15.66L564,196.27l-14.34,2.95s1,26.69,5.43,38.79a9.51,9.51,0,0,0,4.43,4.54c6.93,3.29,13.7-1.8,13.7-1.8s28.93-19.42,32.07-32.42c1.48-6.13-.88-13.21-3.4-16.21C599.69,189.48,597.34,190.53,597.34,190.53Z"/><path class="cls-10" d="M562.92,190.32c.27-.9,1.78-9.14,2.39-11.06.86-2.7,7.89-7.54,7.89-7.54s-1.1-2.53-4.09-1.22c-3.55,1.57-5.3,4.2-6.19,3.66s-6.45-6.2-8-6a1.57,1.57,0,0,0-1.32,2.36,13,13,0,0,1,1.14,1.66s-3.21-1-2.59,2.55c0,0-3.66-2.29-3.3,2.53,0,0-2.41-1-2.94.72s1,3.65,1.85,5,3.41,9.1,3.41,9.1l0,6.85L564,196.27Z"/><path class="cls-11" d="M562.92,190.32a1.6,1.6,0,0,1,.1.39c.06.28.14.66.24,1.15.21,1,.5,2.51.87,4.39l0,.1-.11,0-12.77,2.7-.21.05v-.22c0-2.11,0-4.41,0-6.85v.07c-.91-2.64-1.86-5.47-3-8.33-.58-1.38-1.8-2.58-2.23-4.25a3.19,3.19,0,0,1-.09-1.31,1.74,1.74,0,0,1,.69-1.19,2.16,2.16,0,0,1,1.34-.3,4.53,4.53,0,0,1,1.3.29l-.32.23a8.72,8.72,0,0,1,0-1.44,2.43,2.43,0,0,1,.61-1.43,1.73,1.73,0,0,1,1.54-.42,4.15,4.15,0,0,1,1.46.54l-.34.24a3.09,3.09,0,0,1,.24-2.15,1.73,1.73,0,0,1,1.24-.76,3.47,3.47,0,0,1,1.4.1l-.27.33a12.65,12.65,0,0,0-1.05-1.54,1.47,1.47,0,0,1-.35-1,1.89,1.89,0,0,1,.35-1,1.84,1.84,0,0,1,.82-.64,2.3,2.3,0,0,1,.5-.13,1.51,1.51,0,0,1,.56,0,6.43,6.43,0,0,1,1.67.93c2,1.46,3.7,3.13,5.43,4.64a2.54,2.54,0,0,0,.61.45,1,1,0,0,0,.63-.2c.46-.29.89-.65,1.33-1a20.53,20.53,0,0,1,2.72-1.87,6,6,0,0,1,3.05-1,2.93,2.93,0,0,1,2.53,1.71l.07.14-.13.09a37.87,37.87,0,0,0-6.94,5.92,5.19,5.19,0,0,0-1,1.65c-.18.6-.32,1.2-.45,1.77l-.69,3.15c-.4,1.88-.72,3.36-.94,4.41-.11.5-.21.89-.27,1.15a2.71,2.71,0,0,1-.13.39,2.92,2.92,0,0,1,.07-.4c0-.29.13-.68.22-1.17.2-1.05.48-2.54.84-4.42.19-1,.41-2,.65-3.17.12-.57.25-1.17.43-1.79a5.34,5.34,0,0,1,1-1.76,37.5,37.5,0,0,1,7-6l-.06.23a2.57,2.57,0,0,0-2.2-1.47,5.87,5.87,0,0,0-2.84,1,21.91,21.91,0,0,0-2.66,1.85,16.87,16.87,0,0,1-1.37,1,1.34,1.34,0,0,1-1,.25,2.94,2.94,0,0,1-.79-.54c-1.74-1.52-3.45-3.18-5.41-4.6a6,6,0,0,0-1.53-.87,1.08,1.08,0,0,0-.36,0,2.6,2.6,0,0,0-.4.1,1.36,1.36,0,0,0-.62.49,1.16,1.16,0,0,0,0,1.46A15.69,15.69,0,0,1,555,172l.29.48-.56-.14c-.74-.2-1.72-.18-2.12.47a2.74,2.74,0,0,0-.17,1.82l.07.48-.42-.25a3.83,3.83,0,0,0-1.28-.48,1.29,1.29,0,0,0-1.16.3,3.48,3.48,0,0,0-.51,2.51v.34l-.32-.12a2.67,2.67,0,0,0-2.21,0,1.32,1.32,0,0,0-.51.9,2.66,2.66,0,0,0,.08,1.12,7.7,7.7,0,0,0,1,2.11,14.24,14.24,0,0,1,1.2,2.08c1.2,2.9,2.13,5.72,3,8.37v.06c0,2.43,0,4.74,0,6.85l-.21-.18,12.8-2.56-.08.13-.77-4.43c-.08-.49-.14-.87-.18-1.15A2.46,2.46,0,0,1,562.92,190.32Z"/><path class="cls-11" d="M554.78,172.25a19.53,19.53,0,0,0,1.55,1.44,17.77,17.77,0,0,0,1.59,1.41,8.44,8.44,0,0,0-1.46-1.55A8.32,8.32,0,0,0,554.78,172.25Z"/><path class="cls-11" d="M551.92,174.51a5.28,5.28,0,0,0,2,2.55s-.5-.53-1-1.24S552,174.49,551.92,174.51Z"/><path class="cls-11" d="M548.93,177.07a4.55,4.55,0,0,0,.67,1.09,4.61,4.61,0,0,0,.83,1,4.15,4.15,0,0,0-.67-1.1A3.87,3.87,0,0,0,548.93,177.07Z"/><path class="cls-6" d="M601.91,216.27l-.16.17-.5.49-2,1.88c-1.74,1.62-4.29,4-7.55,6.93s-7.23,6.48-11.9,10.33c-1.18,1-2.39,1.94-3.67,2.91-.63.49-1.31.94-2,1.43-.34.24-.7.45-1,.67a9.2,9.2,0,0,1-1.1.63,21.19,21.19,0,0,1-4.85,1.9,10.84,10.84,0,0,1-5.46.08l0,0a8.07,8.07,0,0,1-6.26-4.41,24.35,24.35,0,0,1-2.31-7.84c-.21-1.38-.46-2.73-.67-4.14s-.36-2.81-.53-4.24c-.31-2.84-.64-5.73-1-8.66-.54-5.19-1.06-10.27-1.57-15.18l0-.2.21,0L564,196.06l.2,0,.05.2,5.31,22.48-.3-.08,15-15.87,4.13-4.32,1.09-1.12c.24-.25.38-.37.38-.37s-.11.14-.35.41l-1,1.15-4.06,4.38-14.91,16-.23.24-.07-.32c-1.58-6.6-3.4-14.17-5.39-22.46l.26.16-14.34,3,.18-.25c.51,4.92,1,10,1.58,15.18q.48,4.4,1,8.66c.16,1.42.33,2.83.52,4.22s.44,2.77.66,4.13a24.12,24.12,0,0,0,2.25,7.7,7.63,7.63,0,0,0,5.94,4.21h0a10.49,10.49,0,0,0,5.22-.09,20.71,20.71,0,0,0,4.76-1.84,11.59,11.59,0,0,0,1.08-.62c.35-.22.7-.42,1-.66.66-.48,1.33-.92,2-1.41,1.28-1,2.5-1.93,3.68-2.88,4.67-3.82,8.66-7.34,11.95-10.25l7.63-6.84,2-1.83.52-.46C601.84,216.31,601.91,216.26,601.91,216.27Z"/><path class="cls-6" d="M542.85,233.52a3.86,3.86,0,0,1-.42-1,18.86,18.86,0,0,1-.78-2.76,50.56,50.56,0,0,1-.77-9.42,32.84,32.84,0,0,1,.86-9.4c.27-1.18.53-2.13.74-2.77a3.8,3.8,0,0,1,.37-1,5.36,5.36,0,0,1-.2,1c-.15.65-.37,1.6-.59,2.78a37.29,37.29,0,0,0-.72,9.33,60.89,60.89,0,0,0,.63,9.37C542.39,232.09,542.93,233.49,542.85,233.52Z"/><path class="cls-6" d="M574.49,280.65l.44-.11,1.22-.26,4.48-.9c3.8-.76,9.08-1.81,15.14-2.95l-.16.31c-.84-1.83-1.73-3.76-2.63-5.75-.23-.5-.46-1-.69-1.49l.25.13-18,3.08.14-.16c0,2.44-.07,4.43-.09,5.87,0,.67,0,1.21,0,1.63a4,4,0,0,1,0,.6s0-.17,0-.53,0-.94,0-1.59c0-1.47,0-3.49-.09-6v-.13l.14,0,18-3.22.18,0,.07.16c.23.49.45,1,.69,1.5.9,2,1.78,3.92,2.62,5.76l.12.26-.29.05c-6.16,1.14-11.54,2.1-15.34,2.77l-4.45.77-1.18.19A2.33,2.33,0,0,1,574.49,280.65Z"/><polygon class="cls-9" points="539.95 272.04 533.12 270.32 529.04 278.67 537.56 280.14 539.95 272.04"/><path class="cls-6" d="M540,272a4.6,4.6,0,0,1-.12.55l-.43,1.64c-.38,1.42-.94,3.49-1.65,6l0,.17-.18,0L529.37,279l-.37-.07-.3,0,.13-.28c1.53-3.09,2.95-5.95,4.12-8.33l.07-.14.14,0c2.11.55,3.83,1,5,1.36A16.59,16.59,0,0,1,540,272a3.67,3.67,0,0,1-.54-.1l-1.4-.3c-1.21-.27-2.9-.65-4.94-1.14l.22-.1c-1.16,2.39-2.54,5.26-4,8.37l-.17-.32.37.06,8.14,1.43-.23.14c.73-2.38,1.36-4.36,1.82-5.78.21-.66.39-1.2.54-1.65A3.62,3.62,0,0,1,540,272Z"/><path class="cls-6" d="M586.23,183.9a1.62,1.62,0,0,1,0,.39c0,.26-.1.63-.19,1.12-.18,1-.47,2.36-.91,4.09a43.32,43.32,0,0,1-5.41,13l-.06.09h-.09a18.42,18.42,0,0,1-3.07-.23,6.62,6.62,0,0,0-1.32,0l.05-.44a5.52,5.52,0,0,1,1,.74l.87.77a13.59,13.59,0,0,0,1.65,1.36l.23.13-.12.19c-2.64,4.13-5.35,7.38-7.11,9.81-.89,1.21-1.59,2.18-2.06,2.86a7.56,7.56,0,0,1-.75,1,1.36,1.36,0,0,1,.15-.29c.1-.19.26-.47.48-.82.43-.7,1.09-1.7,2-2.93,1.7-2.48,4.37-5.78,7-9.89l.11.33a5.08,5.08,0,0,1-.94-.69l-.86-.74-.86-.76a5.4,5.4,0,0,0-.87-.66l-.68-.36.73-.08a6.25,6.25,0,0,1,1.44,0,17.32,17.32,0,0,0,3,.23l-.16.1a45.81,45.81,0,0,0,5.5-12.84c.47-1.71.81-3.09,1-4A11.2,11.2,0,0,1,586.23,183.9Z"/></g><g id="Character_1" data-name="Character 1"><path class="cls-6" d="M88.05,424.9l-1,22.12s22.16,8.41,22.38,12.51l-43-.33.09-34.53Z"/><path class="cls-7" d="M66.5,459.2l.15-3.48,41.13,1.62s1.9.85,1.68,2.19Z"/><path class="cls-6" d="M87.78,446.8c0,.21-1.06.3-2.1,1s-1.59,1.54-1.78,1.46.13-1.3,1.4-2.08S87.82,446.61,87.78,446.8Z"/><path class="cls-6" d="M92.27,448.7c0,.21-.87.56-1.59,1.44S89.75,452,89.54,452s-.33-1.2.59-2.28S92.27,448.5,92.27,448.7Z"/><path class="cls-6" d="M94.79,454.12c-.2,0-.48-1,.07-2.16s1.53-1.59,1.62-1.42-.53.79-1,1.74S95,454.1,94.79,454.12Z"/><path class="cls-6" d="M87.44,441.74c-.09.19-1-.11-2.24,0s-2.11.44-2.22.26.79-.92,2.19-1S87.54,441.57,87.44,441.74Z"/><path class="cls-6" d="M88,441.49a36,36,0,0,1,.06,5.32l-.17-.26c2.51,1,5.84,2.24,9.39,3.91a50.44,50.44,0,0,1,9.51,5.48,10.19,10.19,0,0,1,2.36,2.4c.45.69.39,1.22.32,1.19a3.37,3.37,0,0,0-.55-1,12.29,12.29,0,0,0-2.43-2.15A62.57,62.57,0,0,0,97,451.11c-3.52-1.66-6.82-3-9.28-4.05L87.5,447v-.19A34.44,34.44,0,0,1,88,441.49Z"/><path class="cls-6" d="M60.27,270.65,56,295.83,66.5,355s-.83,29.79-2.37,46.73C62.79,416.4,65,442,65,442H88.42l8.39-85.48,5.21-53.3,9.44-31.58Z"/><path class="cls-6" d="M101.83,421.06l-6.14,21.27s19.56,13.39,18.81,17.43L72.83,449.33,81,415.8Z"/><path class="cls-7" d="M72.83,449.33l1-3.34,39.59,11.24s1.66,1.28,1.12,2.53Z"/><path class="cls-7" d="M96.42,442.29c-.06.2-1.1,0-2.26.44s-1.92,1.13-2.08,1,.43-1.23,1.85-1.69S96.51,442.11,96.42,442.29Z"/><path class="cls-7" d="M100.34,445.19c0,.21-1,.33-1.88,1s-1.33,1.55-1.53,1.49,0-1.24,1.1-2.08S100.38,445,100.34,445.19Z"/><path class="cls-7" d="M101.51,451c-.19,0-.22-1.09.58-2.07s1.86-1.19,1.91-1-.7.64-1.34,1.46S101.72,451.07,101.51,451Z"/><path class="cls-6" d="M97.28,437.29c-.13.16-1-.35-2.16-.56s-2.16-.08-2.22-.28,1-.71,2.35-.44S97.42,437.15,97.28,437.29Z"/><polygon class="cls-6" points="120.52 272.02 121.59 282.92 120.3 362.1 101.74 425.69 97.24 441.12 73.29 436.61 91.75 272.04 120.52 272.02"/><path class="cls-7" d="M119.79,367.75a3.53,3.53,0,0,1-.09.36l-.3,1-1.21,4-4.59,15.16L97.45,441.19l-.06.17-.19,0-24-4.27L73,437l0-.21c1.22-6.12,2.49-12.52,3.8-19,3.86-19.31,7.51-37.53,10.7-53.45v.06c-4-23.61-7.13-42.45-8.94-53.26v0c-1.75-3-3.09-5.32-4-6.9l-1-1.79c-.23-.4-.34-.61-.34-.61s.14.2.38.59.6,1,1.06,1.76c.93,1.57,2.3,3.88,4.08,6.86v0h0L88,364.32v.07c-3.18,15.92-6.81,34.14-10.66,53.46-1.3,6.52-2.58,12.92-3.81,19l-.17-.25,23.94,4.29-.24.14c6.64-21.47,12.3-39.81,16.31-52.78l4.71-15.14c.55-1.75,1-3.09,1.27-4l.34-1Z"/><path class="cls-7" d="M120.1,333.07s2.63-24.15,8.29-26.84,13.5-4.44,15.63-.83a42.78,42.78,0,0,1,5.22,14.84,92.41,92.41,0,0,1,.37,14.61l-6.45-.72s.32-24.07-1.64-27.63-11.88-.7-13,3.59-3.47,23.53-3.47,23.53Z"/><path class="cls-7" d="M97.65,367.13c.3-10,1.26-31.93,1.68-41.59a4.91,4.91,0,0,1,4.93-4.69l59.25.35a4.91,4.91,0,0,1,4.87,4.77l1.16,40.92a4.9,4.9,0,0,1-4.88,5l-62.08.25A4.91,4.91,0,0,1,97.65,367.13Z"/><path class="cls-6" d="M97.65,367.13a5.7,5.7,0,0,0,.55,2.28,4.86,4.86,0,0,0,1.93,2,4.8,4.8,0,0,0,1.71.58,17.45,17.45,0,0,0,2.08.05l25.14-.19,17.36-.1,9.68-.05,5.05,0,2.59,0a6.52,6.52,0,0,0,2.5-.29,4.66,4.66,0,0,0,3-3.76,26.49,26.49,0,0,0,0-2.67c0-.9-.06-1.82-.08-2.73q-.16-5.52-.33-11.24c-.21-7.64-.44-15.54-.67-23.63a8.59,8.59,0,0,0-.34-2.91,4.64,4.64,0,0,0-4.41-3l-3,0-11.65-.08-22-.14-19.92-.15h-2.33a4.85,4.85,0,0,0-2.14.38,4.7,4.7,0,0,0-2.69,3.1,8.93,8.93,0,0,0-.21,2.09l-.09,2.1c-.06,1.39-.11,2.75-.17,4.07-.46,10.59-.84,19.17-1.1,25.12-.14,2.95-.25,5.25-.32,6.83,0,.76-.07,1.35-.1,1.77s0,.61,0,.61,0-.21,0-.61,0-1,0-1.78c0-1.58.13-3.88.23-6.83.22-6,.54-14.53.93-25.12,0-1.33.1-2.69.16-4.07,0-.7,0-1.4.08-2.11a9.7,9.7,0,0,1,.21-2.18,5.12,5.12,0,0,1,2.91-3.37,5.51,5.51,0,0,1,2.31-.42h2.32l19.93.1,22,.12,11.65.06,3,0a5.25,5.25,0,0,1,3,.89,5.22,5.22,0,0,1,2.25,4l.05,1.52c.22,8.1.45,16,.66,23.63q.16,5.73.31,11.24c0,.92,0,1.83.08,2.74a22.93,22.93,0,0,1,0,2.75,5.14,5.14,0,0,1-3.33,4.13,7,7,0,0,1-2.66.31h-2.58l-5.06,0-9.67,0-17.37,0-25.14,0a16.16,16.16,0,0,1-2.11-.06,5.19,5.19,0,0,1-1.75-.63,4.84,4.84,0,0,1-2-2.13,4.74,4.74,0,0,1-.46-1.72A4.51,4.51,0,0,1,97.65,367.13Z"/><path class="cls-6" d="M164.27,336.22s0,.14,0,.43V338c0,1.19,0,2.91,0,5.11,0,4.48-.06,10.94-.11,18.9,0,.5,0,1,0,1.52a2.94,2.94,0,0,1-.35,1.57,2.65,2.65,0,0,1-1.22,1.12,3.5,3.5,0,0,1-1.65.24h-6.77l-15,0-16.52,0-8.73,0h-5.6a4.77,4.77,0,0,1-1.17-.08,2.71,2.71,0,0,1-2.11-2.53c0-.35,0-.65,0-1,0-.64,0-1.29,0-1.94l.09-3.84c.05-2.55.1-5.07.16-7.54.1-4.95.21-9.74.31-14.31v-.22h.22c17,1,31.62,1.33,42,1.37,5.16,0,9.27,0,12.08,0l3.23,0H164a1.1,1.1,0,0,1,.27,0H164l-.83,0-3.2.09c-2.81.07-6.91.14-12.08.15-10.34,0-25-.2-42-1.21l.23-.2c-.1,4.57-.2,9.36-.3,14.31,0,2.47-.1,5-.15,7.54,0,1.27-.06,2.55-.08,3.84,0,.65,0,1.3,0,1.94a3.62,3.62,0,0,0,.2,1.82,2.27,2.27,0,0,0,1.55,1.26,4.12,4.12,0,0,0,1.07.06H114l8.73,0,16.52.07,15,.06,6.77,0a3.12,3.12,0,0,0,1.51-.21,2.37,2.37,0,0,0,1.08-1,2.61,2.61,0,0,0,.31-1.41c0-.51,0-1,0-1.51.12-7.93.21-14.35.28-18.81,0-2.22.07-3.95.09-5.15,0-.57,0-1,0-1.34S164.27,336.22,164.27,336.22Z"/><path class="cls-6" d="M147.24,362.5s.37,0,1-.14a5.2,5.2,0,0,0,2.56-1.42,5.43,5.43,0,0,0,1.45-4.31c0-1.86,0-4,0-6.31,0-1.17,0-2.4,0-3.67a5.24,5.24,0,0,0-1.05-3.62,4.9,4.9,0,0,0-3.52-1.87c-1.44,0-3,0-4.51-.05l-20.12-.17a4.92,4.92,0,0,0-4.23,2.36,4.85,4.85,0,0,0-.71,2.34l0,2.54c0,1.68,0,3.34,0,4.95,0,.81,0,1.62,0,2.41a22,22,0,0,0,0,2.31,4.89,4.89,0,0,0,2.3,3.51,4.81,4.81,0,0,0,2,.69c.67.07,1.4,0,2.08.06l7.65.1,11.08.17,3,.07.78,0,.27,0a.8.8,0,0,1-.27,0l-.78,0h-3l-11.08,0-7.66,0c-.69,0-1.37,0-2.11-.05a5.37,5.37,0,0,1-2.11-.73,5.31,5.31,0,0,1-2.51-3.79,21,21,0,0,1,0-2.38c0-.79,0-1.59,0-2.4q0-2.43,0-4.95l0-2.56a5.27,5.27,0,0,1,.77-2.55,5.37,5.37,0,0,1,4.61-2.57l20.12.2c1.56,0,3.05,0,4.54.07a5.28,5.28,0,0,1,3.78,2,5.56,5.56,0,0,1,1.1,3.85c0,1.28,0,2.5,0,3.67q0,3.51-.09,6.32a12,12,0,0,1-.05,1.35,4.72,4.72,0,0,1-.31,1.23,5,5,0,0,1-1.21,1.84,5.12,5.12,0,0,1-2.67,1.39A3.64,3.64,0,0,1,147.24,362.5Z"/><g class="cls-8"><path d="M106.92,366.05a94.67,94.67,0,0,0,54.24.12Z"/></g><rect class="cls-1" x="131.53" y="343.27" width="10.96" height="3.97" rx="1.81" transform="translate(3.16 -1.24) rotate(0.52)"/><path class="cls-10" d="M140.18,296.19a17.22,17.22,0,0,1,2.7,3c.7,1.23,1.93,6.56,1.93,6.56s-1,.89-2.75-1.92a26.47,26.47,0,0,1-2.28-4.22Z"/><path class="cls-10" d="M131.47,285.61l2.35,4.15,6.48,6.54,2.43,9.72a4.24,4.24,0,0,1-.33,3.05,1.58,1.58,0,0,1-.65.73c-.73.3-2.78-.75-2.78-.75s-1.49,1.86-3.09.76c0,0-2.31,1.19-3.58,0,0,0-1.46,1.15-2.55.43s-4.2-5.26-4.2-5.26l-4.17-15Z"/><path class="cls-6" d="M107.06,131.61a4.36,4.36,0,0,0,1.65-8.52,4.54,4.54,0,0,0-4.13-7.56,5.42,5.42,0,0,0-8.28-4.26,6.11,6.11,0,0,0-7.52,0,4.34,4.34,0,0,0-3.66,7.45"/><path class="cls-10" d="M107.7,132.2a18.49,18.49,0,0,0-18.8-16.61l-1,0c-10.31.83-15.37,10-14.26,20.34l.93,36.83h0l17.74,19.16,7.48-12.25-.08-12.22s9.89-1.76,9.8-11.68C109.51,151,108.62,141.12,107.7,132.2Z"/><path class="cls-11" d="M99.83,167.46a24.16,24.16,0,0,1-13.09-3.53s3.07,7.27,13,6.16Z"/><path class="cls-6" d="M105.29,141.29a1.41,1.41,0,0,1-1.33,1.46,1.36,1.36,0,0,1-1.49-1.25A1.41,1.41,0,0,1,103.8,140,1.36,1.36,0,0,1,105.29,141.29Z"/><path class="cls-6" d="M105.67,137.11c-.17.18-1.26-.59-2.78-.55s-2.63.82-2.8.64.09-.42.57-.78a3.85,3.85,0,0,1,2.23-.75,3.79,3.79,0,0,1,2.23.67C105.59,136.69,105.76,137,105.67,137.11Z"/><path class="cls-6" d="M91.41,141.87a1.42,1.42,0,0,1-1.34,1.46,1.36,1.36,0,0,1-1.49-1.25,1.42,1.42,0,0,1,1.34-1.46A1.36,1.36,0,0,1,91.41,141.87Z"/><path class="cls-6" d="M90.69,137.71c-.18.19-1.27-.58-2.79-.54s-2.63.82-2.8.64.09-.42.57-.79a3.93,3.93,0,0,1,2.23-.74,3.79,3.79,0,0,1,2.23.67C90.6,137.3,90.77,137.63,90.69,137.71Z"/><path class="cls-6" d="M91.06,151.08c.25-.05.68,1.22,1.93,2.09s2.61.87,2.64,1.12-.32.29-.92.3a3.89,3.89,0,0,1-2.24-.71A3.72,3.72,0,0,1,91.06,152C90.88,151.47,90.94,151.1,91.06,151.08Z"/><path class="cls-6" d="M96.47,148.91a9.3,9.3,0,0,1,2.46-.5c.39,0,.76-.14.82-.41a2,2,0,0,0-.29-1.14c-.38-.94-.79-1.92-1.21-3-1.69-4.18-2.92-7.63-2.76-7.7s1.68,3.28,3.37,7.46l1.17,3a2.23,2.23,0,0,1,.23,1.53,1,1,0,0,1-.62.58,3,3,0,0,1-.66.11A10.82,10.82,0,0,1,96.47,148.91Z"/><path class="cls-6" d="M91,132.51c-.2.39-1.51,0-3.12,0s-3,.28-3.12-.12c-.07-.19.21-.54.79-.86a4.93,4.93,0,0,1,4.75.1C90.88,132,91.12,132.32,91,132.51Z"/><path class="cls-6" d="M105.74,131.7c-.31.35-1.58,0-3.09,0s-2.79.29-3.1-.06c-.13-.18.07-.53.62-.87a5.24,5.24,0,0,1,5,0C105.7,131.18,105.88,131.53,105.74,131.7Z"/><path class="cls-10" d="M75.48,145.57a2.69,2.69,0,0,0-3-2.53c-1.85.21-3.89,1.31-3.68,5.13.36,6.78,7.09,5,7.09,4.83S75.66,148.41,75.48,145.57Z"/><path class="cls-11" d="M74.32,150.52s-.11.09-.31.2a1.25,1.25,0,0,1-.88.06,2.92,2.92,0,0,1-1.49-2.55,4,4,0,0,1,.24-1.71,1.34,1.34,0,0,1,.84-1,.59.59,0,0,1,.71.28c.1.19.07.33.1.34s.14-.13.07-.4a.69.69,0,0,0-.29-.41.86.86,0,0,0-.66-.14,1.67,1.67,0,0,0-1.18,1.12,4,4,0,0,0-.3,1.91,3,3,0,0,0,1.88,2.83,1.27,1.27,0,0,0,1.07-.23C74.32,150.69,74.35,150.53,74.32,150.52Z"/><path class="cls-6" d="M101.76,118.21a2.73,2.73,0,0,0-.25-.48,4.34,4.34,0,0,0-3.42-1.85,15.91,15.91,0,0,0-2.4-.95,5.91,5.91,0,0,0-10-.21l-.83.16a6,6,0,0,0-9.12,2.79,4.38,4.38,0,0,0-4.8,6.48,4.14,4.14,0,0,0-2.22,3.36,2.41,2.41,0,0,0,2.51,2.41,88.17,88.17,0,0,0,.51,10.45c.17,2.38,3.22,3.73,3.47,5.33,1.23,8.22,3.82,3.61,4.49-13.46.17-.14.34-.28.51-.44.35-.33.43-.74.73-1.11s1-.33,1.62-.28a4.33,4.33,0,0,0,4.43-3.2,1.82,1.82,0,0,0,2.44.18,9.72,9.72,0,0,0,1.81-2,2.79,2.79,0,0,1,2.3-1.21,7,7,0,0,0,1.48.29c.89-.1,1.31-1.15,1.42-2a4.18,4.18,0,0,1,.64-2.14,4.86,4.86,0,0,1,1.72-.53c.34,0,.68.09,1,.13a2.54,2.54,0,0,0,.48,0,4.9,4.9,0,0,1,.62.24c3,1.38,5.78,7.54,5.78,7.54C106.77,123.73,104.56,120.49,101.76,118.21Z"/><path class="cls-7" d="M70,124.53a.44.44,0,0,1,.06-.1,2.64,2.64,0,0,1,.22-.27,3.59,3.59,0,0,1,1-.8,4.37,4.37,0,0,1,2-.47,3.91,3.91,0,0,1,2.54.89l-.18.06a5.34,5.34,0,0,1,2.73-3.46,6.7,6.7,0,0,1,2.42-.79,7.84,7.84,0,0,1,2.68.13,13.44,13.44,0,0,1,4.59,2l-.2.06a6.06,6.06,0,0,1,3-3.27,5.82,5.82,0,0,1,5.63.32,5.23,5.23,0,0,1,.5.36l.15.14s-.24-.17-.7-.43a6,6,0,0,0-2.14-.73,5.68,5.68,0,0,0-3.34.54,5.87,5.87,0,0,0-2.85,3.16l0,.16L88,122a13.5,13.5,0,0,0-4.51-2,8.11,8.11,0,0,0-2.59-.13,6.4,6.4,0,0,0-2.32.75,5.19,5.19,0,0,0-2.65,3.27l0,.19-.14-.12a3.79,3.79,0,0,0-2.39-.88,4.27,4.27,0,0,0-2,.41A4.78,4.78,0,0,0,70,124.53Z"/><path class="cls-7" d="M97.1,119.83a1.19,1.19,0,0,1-.11.26,5.58,5.58,0,0,0-.24.79c-.08.35-.16.79-.26,1.3a4.2,4.2,0,0,1-.63,1.69,1.42,1.42,0,0,1-.94.53,5.67,5.67,0,0,1-1.16-.05,2.25,2.25,0,0,0-1.15.1,3.28,3.28,0,0,0-1,.79c-.29.33-.57.7-.86,1.07a4.68,4.68,0,0,1-1,1.11,3.22,3.22,0,0,1-1.48.53,2.27,2.27,0,0,1-.82,0,1.13,1.13,0,0,1-.74-.47l.25,0a4.11,4.11,0,0,1-.43,1.15,3.78,3.78,0,0,1-.81,1,4.67,4.67,0,0,1-2.35,1,5,5,0,0,1-1.09.06,2.27,2.27,0,0,0-1,0,1.34,1.34,0,0,0-.72.59,7.31,7.31,0,0,1-.68.78,5.32,5.32,0,0,1-3.45,1.71,4.89,4.89,0,0,1-3.22-1.3,5.1,5.1,0,0,1-1.54-2.55l.12.07a2.71,2.71,0,0,1-2.22-.48A2.61,2.61,0,0,1,68.7,127a1.52,1.52,0,0,1,.08-.27c0-.06,0-.08,0-.08a2.87,2.87,0,0,0,0,1.41,2.46,2.46,0,0,0,.9,1.35,2.52,2.52,0,0,0,2.08.41l.1,0,0,.09a4.92,4.92,0,0,0,1.5,2.43,4.69,4.69,0,0,0,3.06,1.21,5.07,5.07,0,0,0,3.27-1.65,6.73,6.73,0,0,0,.65-.75,1.68,1.68,0,0,1,.85-.69,1.52,1.52,0,0,1,.56-.08l.52,0a5.18,5.18,0,0,0,1,0,4.51,4.51,0,0,0,2.21-1,3.78,3.78,0,0,0,.75-.9,3.66,3.66,0,0,0,.4-1.07l.07-.32.18.27a1.36,1.36,0,0,0,1.3.4,2.89,2.89,0,0,0,1.36-.48,4.57,4.57,0,0,0,1-1c.29-.37.57-.74.88-1.07a3.15,3.15,0,0,1,1-.84,2.54,2.54,0,0,1,1.27-.11,4.68,4.68,0,0,0,1.1.07,1.23,1.23,0,0,0,.84-.45,4.32,4.32,0,0,0,.63-1.61c.11-.5.2-.94.3-1.29a4.71,4.71,0,0,1,.29-.79A1.44,1.44,0,0,1,97.1,119.83Z"/><path class="cls-7" d="M69.19,228.07c.72-5.38,2.53-20,2.4-31.6-.15-14.42-15.31-14.87-15.31-14.87s-7.64,3.68-9.76,11.76-3.7,35-3.7,35h0c-.78,6.38-1.55,15.48-.33,20,2,7.46,18.11,26.31,18.11,26.31l22-13.65Z"/><path class="cls-3" d="M74.33,167.52l.08-2.7s22.61,6.32,25.92,8.42.8,5.52.8,5.52Z"/><path class="cls-7" d="M118.34,241.22l-8-59-8-5h0C100.93,174.93,99,174,96,173L74.43,165.9l-1.38,5.4L53.82,182.91l6.74,63.85-6.13,53.57H65.86l4.24-12.49,1.25,12.49,52.41-1.55Z"/><path class="cls-7" d="M106,180.18a17.24,17.24,0,0,1,12.45,13c.84,3.65,3.11,50.46,3.11,50.46l16.17,46.64L120.31,296,102,254.82s-4.14-43.69-4.9-53.3C96.46,192.94,96.34,182.45,106,180.18Z"/><path class="cls-6" d="M91,250.44a3.93,3.93,0,0,1-1.05.13c-.67.05-1.65.11-2.86.16-2.42.11-5.75.23-9.44.29s-7,0-9.45,0l-2.86,0a4.11,4.11,0,0,1-1.06-.08,5.15,5.15,0,0,1,1-.12c.68,0,1.66-.08,2.86-.12,2.42-.07,5.76-.11,9.45-.18l9.44-.14H90A5,5,0,0,1,91,250.44Z"/><path class="cls-6" d="M52.16,203.51a.8.8,0,0,1,.07.21c0,.18.08.39.14.64.12.61.29,1.43.5,2.47.43,2.19,1,5.29,1.76,9.09,1.44,7.73,3.42,18.33,5.61,30,.14.75.28,1.49.4,2.18v.08c-1.33,11.33-2.52,21.49-3.39,28.87-.45,3.64-.81,6.58-1.07,8.67l-.32,2.35a4.22,4.22,0,0,1-.14.81,4.69,4.69,0,0,1,.05-.83c0-.58.13-1.36.22-2.35.22-2.09.53-5.05.91-8.69.83-7.38,2-17.55,3.23-28.89v.08l-.41-2.19c-2.13-11.72-4.06-22.33-5.46-30.06-.67-3.82-1.22-6.92-1.6-9.12-.17-1.05-.31-1.88-.41-2.49,0-.26-.07-.47-.09-.65A.73.73,0,0,1,52.16,203.51Z"/><path class="cls-6" d="M103.72,177.5a4.84,4.84,0,0,1-1.21-.25l-3.25-.82c-2.75-.68-6.57-1.55-10.8-2.39s-8.1-1.5-10.89-1.95l-3.32-.54a6.07,6.07,0,0,1-1.2-.25,5.45,5.45,0,0,1,1.23.06c.79.07,1.93.19,3.34.38,2.81.36,6.69,1,10.94,1.8s8.06,1.77,10.79,2.55c1.36.38,2.46.72,3.21,1A5.86,5.86,0,0,1,103.72,177.5Z"/><path class="cls-6" d="M137.76,290.33l-.3.12-.9.32-3.46,1.17-12.73,4.19-.17.06-.07-.16c-3.76-8.76-8.79-20.43-14.3-33.23l-2.19-5.12-1.08-2.51a13.77,13.77,0,0,1-.88-2.58c-.63-3.52-1.07-6.9-1.5-10.14-.82-6.47-1.44-12.31-1.94-17.22s-.85-8.89-1.08-11.63c-.1-1.35-.18-2.41-.24-3.17,0-.34,0-.61,0-.83a1,1,0,0,1,0-.28,1.75,1.75,0,0,1,0,.28c0,.21.06.48.1.82.08.76.19,1.81.34,3.16.3,2.78.72,6.74,1.24,11.61s1.2,10.74,2.05,17.2c.44,3.22.89,6.64,1.52,10.09A12.94,12.94,0,0,0,103,255l1.08,2.5q1.08,2.53,2.2,5.13l14.18,33.27-.23-.11,12.78-4,3.5-1.07.91-.27A1.08,1.08,0,0,1,137.76,290.33Z"/><path class="cls-6" d="M110.83,183.31a23.4,23.4,0,0,0-3.33.09,12.25,12.25,0,0,0-7,3.51,13.53,13.53,0,0,0-3.55,7c-.37,2-.2,3.32-.3,3.32a2.78,2.78,0,0,1-.15-.9,11.65,11.65,0,0,1,.09-2.48,13.11,13.11,0,0,1,3.55-7.31,12,12,0,0,1,7.31-3.51,10.19,10.19,0,0,1,2.48,0A2.51,2.51,0,0,1,110.83,183.31Z"/><path class="cls-6" d="M50.26,188.52a15.22,15.22,0,0,1,1.18,3.67,15.63,15.63,0,0,1,.69,3.8A14.25,14.25,0,0,1,51,192.32,14.55,14.55,0,0,1,50.26,188.52Z"/></g></svg>