<svg xmlns="http://www.w3.org/2000/svg" viewBox="0 0 430.81 427.13"><defs><style>.cls-1{fill:#e0e0e0;}.cls-2{fill:#ebebeb;}.cls-3{fill:#f5f5f5;}.cls-4{fill:#fafafa;}.cls-5{fill:#263238;}.cls-6{fill:#ffbf9d;}.cls-7{fill:#ff9a6c;}.cls-8{fill:#455a64;}.cls-9{opacity:0.3;}.cls-10{fill:#b56760;}.cls-11{fill:#8a4a43;}.cls-12{fill:#2f57a4;}</style></defs><g id="Background_Complete" data-name="Background Complete"><path class="cls-1" d="M82.08,194l3.7,7.51a1.31,1.31,0,0,0,1,.71l8.28,1.2a1.3,1.3,0,0,1,.72,2.22l-6,5.84a1.27,1.27,0,0,0-.37,1.15l1.41,8.25a1.3,1.3,0,0,1-1.88,1.37l-7.41-3.9a1.36,1.36,0,0,0-1.21,0l-7.41,3.9A1.3,1.3,0,0,1,71,220.85l1.42-8.25a1.32,1.32,0,0,0-.37-1.15l-6-5.84a1.3,1.3,0,0,1,.72-2.22l8.29-1.2a1.3,1.3,0,0,0,1-.71L79.75,194A1.3,1.3,0,0,1,82.08,194Z"/><path class="cls-1" d="M48.21,150.59l2.56,5.19a.87.87,0,0,0,.68.49l5.73.83a.9.9,0,0,1,.49,1.54l-4.14,4a.9.9,0,0,0-.26.79l1,5.71a.9.9,0,0,1-1.31.95l-5.12-2.7a1,1,0,0,0-.84,0l-5.12,2.7a.9.9,0,0,1-1.31-.95l1-5.71a.87.87,0,0,0-.26-.79l-4.14-4a.9.9,0,0,1,.5-1.54l5.73-.83a.87.87,0,0,0,.67-.49l2.57-5.19A.9.9,0,0,1,48.21,150.59Z"/><path class="cls-1" d="M233.61,16.43,235.38,20a.59.59,0,0,0,.47.34l4,.58a.62.62,0,0,1,.35,1.06l-2.88,2.8a.64.64,0,0,0-.17.56l.67,3.95a.62.62,0,0,1-.9.66l-3.55-1.87a.66.66,0,0,0-.58,0L229.21,30a.63.63,0,0,1-.91-.66l.68-3.95a.62.62,0,0,0-.18-.56L225.93,22a.62.62,0,0,1,.34-1.06l4-.58a.58.58,0,0,0,.47-.34l1.78-3.59A.62.62,0,0,1,233.61,16.43Z"/><path class="cls-1" d="M388.65,201.92l1.78,3.6a.6.6,0,0,0,.47.34l4,.58a.62.62,0,0,1,.34,1.06l-2.87,2.8a.64.64,0,0,0-.18.56l.68,3.95a.63.63,0,0,1-.91.66l-3.55-1.87a.6.6,0,0,0-.58,0l-3.55,1.87a.62.62,0,0,1-.9-.66l.68-3.95a.67.67,0,0,0-.18-.56L381,207.5a.62.62,0,0,1,.35-1.06l4-.58a.61.61,0,0,0,.47-.34l1.77-3.6A.63.63,0,0,1,388.65,201.92Z"/><path class="cls-1" d="M347.6,185.35l2.92,5.94a1,1,0,0,0,.78.56l6.55,1a1,1,0,0,1,.57,1.75l-4.74,4.62a1.06,1.06,0,0,0-.3.91l1.12,6.53a1,1,0,0,1-1.49,1.08l-5.86-3.08a1,1,0,0,0-.95,0l-5.86,3.08a1,1,0,0,1-1.49-1.08l1.12-6.53a1.06,1.06,0,0,0-.3-.91l-4.74-4.62a1,1,0,0,1,.57-1.75l6.55-1a1,1,0,0,0,.77-.56l2.93-5.94A1,1,0,0,1,347.6,185.35Z"/><path class="cls-1" d="M49,257.88l2.11,4.28a.73.73,0,0,0,.56.4l4.72.69a.74.74,0,0,1,.41,1.26l-3.41,3.34a.72.72,0,0,0-.22.65l.81,4.71a.74.74,0,0,1-1.08.78l-4.22-2.22a.76.76,0,0,0-.69,0L43.73,274a.74.74,0,0,1-1.07-.78l.8-4.71a.74.74,0,0,0-.21-.65l-3.42-3.34a.74.74,0,0,1,.41-1.26l4.73-.69a.73.73,0,0,0,.56-.4l2.11-4.28A.74.74,0,0,1,49,257.88Z"/><rect class="cls-1" x="138.29" y="21.33" width="11.48" height="57.12" transform="matrix(1, -0.01, 0.01, 1, -0.27, 0.77)"/><rect class="cls-2" x="38.78" y="21.53" width="29.73" height="31.53" transform="translate(-0.2 0.29) rotate(-0.31)"/><rect class="cls-3" x="68.36" y="21.37" width="29.73" height="31.53" transform="matrix(1, -0.01, 0.01, 1, -0.2, 0.45)"/><path class="cls-1" d="M38.74,30.32q29.63.24,59.31-.28a.32.32,0,0,0,0-.63c-19.75-.11-39.55,0-59.3.36a.28.28,0,0,0,0,.55Z"/><rect class="cls-2" x="20.23" y="52.6" width="54.01" height="25.7" transform="translate(-0.35 0.25) rotate(-0.31)"/><rect class="cls-3" x="73.98" y="52.31" width="54.01" height="25.7" transform="translate(-0.35 0.54) rotate(-0.31)"/><path class="cls-1" d="M20.2,59.89c35.87.41,71.88,0,107.75-.53a.32.32,0,0,0,0-.63c-35.88-.19-71.89-.17-107.76.62a.27.27,0,0,0,0,.54Z"/><rect class="cls-1" y="78.44" width="209.23" height="9.21"/><rect class="cls-1" x="34.26" y="82.87" width="8.49" height="31.41"/><rect class="cls-1" x="161.05" y="82.87" width="8.49" height="31.41"/><rect class="cls-2" x="149.54" y="0.03" width="11.48" height="78.56" transform="matrix(1, -0.01, 0.01, 1, -0.21, 0.83)"/><rect class="cls-3" x="161.08" y="14.67" width="17.84" height="63.66" transform="translate(-0.25 0.91) rotate(-0.31)"/><path class="cls-1" d="M178.63,26.89c0,.17-4,.31-8.92.31s-8.92-.14-8.92-.31,4-.31,8.92-.31S178.63,26.72,178.63,26.89Z"/><path class="cls-1" d="M178.63,24.21c0,.17-4,.31-8.92.31s-8.92-.14-8.92-.31,4-.31,8.92-.31S178.63,24,178.63,24.21Z"/><path class="cls-1" d="M178.63,68.7c0,.18-4,.31-8.92.31s-8.92-.13-8.92-.31,4-.3,8.92-.3S178.63,68.53,178.63,68.7Z"/><path class="cls-1" d="M178.63,66c0,.17-4,.31-8.92.31s-8.92-.14-8.92-.31,4-.31,8.92-.31S178.63,65.86,178.63,66Z"/><path class="cls-1" d="M170,60.2c-.17,0-.31-6.43-.31-14.35s.14-14.34.31-14.34.31,6.42.31,14.34S170.17,60.2,170,60.2Z"/><rect class="cls-2" x="178.82" y="30.26" width="19.41" height="48.05"/><path class="cls-1" d="M158.2,13.41a3.3,3.3,0,1,1-3.3-3.3A3.3,3.3,0,0,1,158.2,13.41Z"/><rect class="cls-1" x="153.89" y="22.49" width="2.04" height="46.73"/><rect class="cls-4" x="287.51" y="39.07" width="141.14" height="126.27"/><path class="cls-1" d="M428.66,165.34s0-.81,0-2.35,0-3.81,0-6.76c0-5.93,0-14.6-.08-25.63,0-22.07-.1-53.59-.16-91.53l.31.32-141.12,0h0l.38-.37c0,45.94,0,89.16,0,126.27l-.34-.33,102.09.16,28.79.09,7.62,0,2,0,.68,0-.64,0-1.93,0-7.56,0-28.72.08-102.3.17h-.33v-.33c0-37.11,0-80.33,0-126.27v-.38h.39l141.12.06H429v.32c-.07,38-.13,69.62-.17,91.73,0,11-.06,19.65-.08,25.56,0,2.92,0,5.17,0,6.7S428.66,165.34,428.66,165.34Z"/><path class="cls-1" d="M341.63,61.5c0,.21-7.43.38-16.59.38s-16.59-.17-16.59-.38,7.43-.38,16.59-.38S341.63,61.29,341.63,61.5Z"/><path class="cls-1" d="M401.44,71c0,.21-20.41.38-45.58.38s-45.59-.17-45.59-.38,20.41-.37,45.59-.37S401.44,70.78,401.44,71Z"/><rect class="cls-1" x="308.69" y="87.04" width="5.95" height="5.95"/><rect class="cls-1" x="323.33" y="87.04" width="5.95" height="5.95"/><rect class="cls-1" x="338.24" y="86.77" width="5.95" height="5.95"/><rect class="cls-1" x="352.6" y="87.04" width="5.95" height="5.95"/><rect class="cls-1" x="367.24" y="87.04" width="5.95" height="5.95"/><rect class="cls-1" x="381.88" y="87.04" width="5.95" height="5.95"/><rect class="cls-2" x="396.51" y="87.04" width="5.95" height="5.95"/><rect class="cls-2" x="308.69" y="99.68" width="5.95" height="5.95"/><rect class="cls-1" x="323.33" y="99.68" width="5.95" height="5.95"/><rect class="cls-2" x="337.97" y="99.68" width="5.95" height="5.95"/><rect class="cls-1" x="352.6" y="99.68" width="5.95" height="5.95"/><rect class="cls-1" x="367.24" y="99.68" width="5.95" height="5.95"/><rect class="cls-1" x="382.15" y="99.41" width="5.95" height="5.95"/><rect class="cls-1" x="396.51" y="99.68" width="5.95" height="5.95"/><rect class="cls-1" x="308.69" y="112.33" width="5.95" height="5.95"/><rect class="cls-1" x="323.6" y="112.06" width="5.95" height="5.95"/><rect class="cls-1" x="337.97" y="112.33" width="5.95" height="5.95"/><rect class="cls-2" x="352.6" y="112.33" width="5.95" height="5.95"/><rect class="cls-1" x="367.24" y="112.33" width="5.95" height="5.95"/><rect class="cls-1" x="381.88" y="112.33" width="5.95" height="5.95"/><rect class="cls-1" x="396.51" y="112.33" width="5.95" height="5.95"/><rect class="cls-1" x="308.69" y="124.97" width="5.95" height="5.95"/><rect class="cls-1" x="323.33" y="124.97" width="5.95" height="5.95"/><rect class="cls-1" x="337.97" y="124.97" width="5.95" height="5.95"/><rect class="cls-1" x="352.87" y="124.7" width="5.95" height="5.95"/><rect class="cls-1" x="367.24" y="124.97" width="5.95" height="5.95"/><rect class="cls-2" x="381.88" y="124.97" width="5.95" height="5.95"/><rect class="cls-1" x="396.51" y="124.97" width="5.95" height="5.95"/><rect class="cls-1" x="308.69" y="137.61" width="5.95" height="5.95"/><rect class="cls-2" x="323.33" y="137.61" width="5.95" height="5.95"/><rect class="cls-1" x="337.97" y="137.61" width="5.95" height="5.95"/><rect class="cls-1" x="352.6" y="137.61" width="5.95" height="5.95"/><rect class="cls-1" x="367.24" y="137.61" width="5.95" height="5.95"/><rect class="cls-1" x="382.15" y="137.34" width="5.95" height="5.95"/><rect class="cls-1" x="396.51" y="137.61" width="5.95" height="5.95"/><path class="cls-2" d="M18.62,361.31v36.76H12.48v4h6.14v24.6H133.37V404.28h-8.5V399.4h8.5v-7.31h3.78v-3.33h-4.49V361.31Z"/><polygon class="cls-1" points="102.9 361.41 102.9 426.26 133.37 426.26 133.37 403.87 124.87 403.87 124.87 399.4 133.37 399.56 133.37 392.24 137.22 392.25 137.15 388.46 132.66 388.35 132.66 361.31 102.9 361.41"/><path class="cls-1" d="M105.07,401.54c0,.22-20.77.4-46.37.4s-46.38-.18-46.38-.4,20.76-.41,46.38-.41S105.07,401.31,105.07,401.54Z"/><path class="cls-1" d="M105.07,397.8c0,.23-20.77.41-46.37.41s-46.38-.18-46.38-.41,20.76-.41,46.38-.41S105.07,397.58,105.07,397.8Z"/><path class="cls-1" d="M111,387.75c0,.23-20.77.41-46.38.41s-46.37-.18-46.37-.41,20.76-.41,46.37-.41S111,387.53,111,387.75Z"/><path class="cls-1" d="M111.6,415.14c0,.23-20.77.41-46.37.41s-46.38-.18-46.38-.41,20.76-.41,46.38-.41S111.6,414.92,111.6,415.14Z"/><path class="cls-3" d="M33.51,300v34.85H27.69v3.78h5.82V362H142.26V340.77h-8v-4.62h8v-6.93h3.58v-3.16h-4.25V300Z"/><polygon class="cls-1" points="113.38 300.14 113.38 361.61 142.26 361.61 142.26 340.38 134.21 340.38 134.21 336.15 142.26 336.29 142.26 329.36 145.91 329.36 145.84 325.78 141.59 325.68 141.59 300.04 113.38 300.14"/><path class="cls-1" d="M115.44,338.17c0,.21-19.68.39-43.95.39s-43.95-.18-43.95-.39,19.67-.39,43.95-.39S115.44,338,115.44,338.17Z"/><path class="cls-1" d="M115.44,334.63c0,.21-19.68.39-43.95.39s-43.95-.18-43.95-.39,19.67-.38,43.95-.38S115.44,334.42,115.44,334.63Z"/><path class="cls-1" d="M121.08,325.1c0,.22-19.67.39-43.94.39s-44-.17-44-.39,19.68-.38,44-.38S121.08,324.89,121.08,325.1Z"/><path class="cls-1" d="M121.63,351.06c0,.22-19.68.39-43.95.39s-44-.17-44-.39,19.68-.38,44-.38S121.63,350.85,121.63,351.06Z"/><path class="cls-2" d="M365.31,315.22c-5.95-3.07-13-3.46-19.56-2.37-3.55.58-7.25,1.64-9.66,4.31s-2.87,7.35-.1,9.64c1.65,1.37,3.95,1.57,6.09,1.55,5.17-.06,10.91-1,15,2.14,2.35,1.77,3.92,4.72,6.74,5.6s5.86-.78,7.33-3.26a11.35,11.35,0,0,0,.82-8.4A12.81,12.81,0,0,0,365.31,315.22Z"/><path class="cls-2" d="M378.93,288.92c-3.63,5.19-10.7,3.47-14,.3s-4.66-7.77-5.93-12.15c-2.88-10-5.78-20.52-3.64-30.71A17.06,17.06,0,0,1,359.3,238c2.15-2.26,5.44-3.61,8.45-2.81,3.57.94,5.78,4.43,7.38,7.75a73.2,73.2,0,0,1,7.24,31.42c0,5.06-.58,10.37-3.44,14.55"/><path class="cls-2" d="M388.92,296.37c-3.95-4.69-4.7-11.52-2.94-17.39s5.73-10.87,10.3-15a55.46,55.46,0,0,1,18.45-10.88,19.62,19.62,0,0,1,8.3-1.41,8.67,8.67,0,0,1,7,4.21c1.94,3.7.08,8.19-1.93,11.86a141.67,141.67,0,0,1-12.12,18.45c-3.63,4.68-7.79,9.3-13.33,11.42s-11.28,1.86-14.22-2"/><path class="cls-1" d="M379.18,367.28a11.17,11.17,0,0,1-.33-2.36c-.17-1.72-.38-3.88-.63-6.44a90.65,90.65,0,0,0-1.45-9.45,72.88,72.88,0,0,0-3.43-11.16,41.22,41.22,0,0,0-5.7-10.09,21.38,21.38,0,0,0-7.19-6,20,20,0,0,0-6.07-1.89,10.8,10.8,0,0,1-2.35-.34,10.8,10.8,0,0,1,2.39,0,18.45,18.45,0,0,1,6.33,1.65,21.22,21.22,0,0,1,7.59,6,40,40,0,0,1,5.9,10.29,67,67,0,0,1,3.41,11.33,78.37,78.37,0,0,1,1.26,9.57c.2,2.74.28,4.95.32,6.48A11.16,11.16,0,0,1,379.18,367.28Z"/><path class="cls-1" d="M378.74,362.32a4.05,4.05,0,0,1-.07-1.09c0-.83,0-1.86,0-3.14,0-2.71,0-6.65-.14-11.51-.24-9.71-1.08-20.17-2.69-34.91-1.53-13.86-3.59-30-5.75-40.47-.47-2.39-.93-4.54-1.38-6.41s-.77-3.51-1.12-4.83-.54-2.24-.73-3a4,4,0,0,1-.19-1.08,4.77,4.77,0,0,1,.38,1c.24.78.54,1.78.91,3s.81,2.91,1.28,4.79,1,4,1.52,6.39a354,354,0,0,1,6.05,37.56c1.62,14.77,2.34,28.22,2.41,38,.06,4.87-.05,8.81-.17,11.53-.08,1.28-.14,2.31-.19,3.13A5.51,5.51,0,0,1,378.74,362.32Z"/><path class="cls-1" d="M378.67,336.38a20,20,0,0,1,0-3.27c.12-2.1.41-5.14,1-8.86a116.79,116.79,0,0,1,2.89-12.92,104.75,104.75,0,0,1,5.4-15.28c4.48-10.63,10.56-19.32,15.86-24.7a39.43,39.43,0,0,1,3.73-3.47c.57-.48,1.08-1,1.59-1.35l1.45-1a20.5,20.5,0,0,1,2.76-1.77c.15.22-3.91,2.6-9,8.06a85.85,85.85,0,0,0-15.47,24.6,123,123,0,0,0-5.43,15.15c-1.41,4.74-2.36,9.11-3.07,12.78s-1.06,6.7-1.3,8.78A20,20,0,0,1,378.67,336.38Z"/><polygon class="cls-1" points="403.74 382.14 401.14 417.75 355.4 417.75 352.8 382.14 403.74 382.14"/><rect class="cls-1" x="347.34" y="368.1" width="60.82" height="14.04"/><polygon class="cls-2" points="408.16 416.39 408.16 420.28 405.3 420.28 348.34 420.28 348.34 416.39 408.16 416.39"/><polygon class="cls-1" points="402.5 427.13 405.3 420.28 350.52 420.28 353.79 427.13 402.5 427.13"/><path class="cls-3" d="M353.65,393.78a1.28,1.28,0,0,0,.21.32l.68.91,2.67,3.41.12.15.11-.16c1.68-2.31,3.91-5.41,6.55-9.05h-.38l6.45,9.13.2.28.23-.27c2.37-2.83,5-5.9,7.64-9.09h-.44l.42.53L385,398.5l.22.29.21-.3c2.33-3.28,4.49-6.35,6.45-9.13l-.37,0,7.94,9.05.14.16.11-.18,2.49-4.18.63-1.11a1.44,1.44,0,0,0,.2-.4,3.25,3.25,0,0,0-.27.36l-.7,1.07c-.64,1-1.51,2.37-2.61,4.1l.25,0-7.82-9.16-.2-.23-.18.25-6.5,9.08h.44l-6.82-8.58-.42-.53-.22-.27-.23.26-7.62,9.12h.43L364,389.09l-.19-.26-.19.26-6.41,9.15h.24l-2.78-3.33-.74-.85C353.75,393.86,353.66,393.77,353.65,393.78Z"/><path class="cls-3" d="M352.16,381.9c0,.16,11.46.29,25.6.29s25.6-.13,25.6-.29-11.46-.28-25.6-.28S352.16,381.75,352.16,381.9Z"/><path class="cls-3" d="M349.85,420.66c0,.16,12.46.29,27.82.29s27.82-.13,27.82-.29-12.45-.28-27.82-.28S349.85,420.5,349.85,420.66Z"/></g><g id="Character_2" data-name="Character 2"><path class="cls-5" d="M237.62,55.25c.43-7.51,5-12.14,11.53-16a23.44,23.44,0,0,1,21.66-1c4.55,2.16,8.53,5.85,13.52,6.5,8.22,1.06,16-6.56,24.07-4.66A11,11,0,0,1,316.63,51a11,11,0,0,1-9,10.16c5.38.78,8.43,7.59,6.44,12.66s-7.64,8-13.08,8.11-10.67-2.1-15.37-4.83-9.1-6-14-8.36S261.05,65,255.79,66.37c-7.11,1.89-12.16,8.61-14,15.74s-1.06,14.65.05,21.94,2.5,14.62,1.81,22a2.73,2.73,0,0,1-1,2.27c-1.09.6-2.34-.43-3.15-1.39a108.2,108.2,0,0,1-20.32-36.8c-2.48-7.81-3.85-15.41-.87-23s13-14.89,19.35-11.79"/><path class="cls-6" d="M230.69,91.57l12,74.24c2.25,13.86,11.26,27.25,33,22.7h0c18.57-5.37,17.19-18.74,14.77-35.21h0S311,148,309.12,127.2c-.89-10-4.39-30.58-7.78-49.13a38.86,38.86,0,0,0-42.13-31.65l-2,.2C235.74,50.05,226.66,70.2,230.69,91.57Z"/><path class="cls-7" d="M290.51,153.3s-13,2.08-27.83-5.28c0,0,8.15,15.45,28.68,11.49Z"/><path class="cls-5" d="M294.3,98.87a3,3,0,0,1-2.56,3.27,2.84,2.84,0,0,1-3.32-2.36A3,3,0,0,1,291,96.5,2.85,2.85,0,0,1,294.3,98.87Z"/><path class="cls-5" d="M297.9,88.71c-.32.42-2.74-1-5.93-.68s-5.36,2.16-5.75,1.8c-.18-.16.12-.89,1.06-1.74a8.17,8.17,0,0,1,4.56-1.92,7.86,7.86,0,0,1,4.77,1C297.67,87.85,298.07,88.52,297.9,88.71Z"/><path class="cls-5" d="M264.41,100.78a3,3,0,0,1-2.56,3.27,2.84,2.84,0,0,1-3.32-2.36,3,3,0,0,1,2.56-3.28A2.85,2.85,0,0,1,264.41,100.78Z"/><path class="cls-5" d="M266.61,92.46c-.33.42-2.74-1-5.93-.69s-5.37,2.16-5.75,1.81c-.19-.16.11-.89,1.06-1.74a8.17,8.17,0,0,1,4.55-1.92,7.78,7.78,0,0,1,4.77,1C266.37,91.6,266.77,92.27,266.61,92.46Z"/><path class="cls-5" d="M280.56,115c0-.18,1.92-.72,5.09-1.46.81-.16,1.56-.4,1.64-1a4.1,4.1,0,0,0-.78-2.36q-1.45-2.84-3-6c-4.23-8.5-7.38-15.51-7-15.68s4.06,6.58,8.29,15.08l2.94,6a4.78,4.78,0,0,1,.74,3.16,2,2,0,0,1-1.22,1.32,5.44,5.44,0,0,1-1.36.33C282.6,114.91,280.6,115.13,280.56,115Z"/><path class="cls-5" d="M266.18,79.87c-.23.9-3.46.81-7.15,1.64s-6.63,2.15-7.2,1.42c-.26-.35.19-1.22,1.32-2.18a12.17,12.17,0,0,1,5.2-2.42,12,12,0,0,1,5.73.09C265.51,78.84,266.27,79.45,266.18,79.87Z"/><path class="cls-5" d="M295.8,79.6c-.48.78-2.76.25-5.4.48s-4.83,1-5.43.27c-.26-.35,0-1.11.93-1.89a7.87,7.87,0,0,1,8.73-.61C295.63,78.5,296,79.22,295.8,79.6Z"/><path class="cls-6" d="M233.93,106.77c-.37-.12-14.69-2.79-12.81,11.36s15.7,9.34,15.67,8.93S233.93,106.77,233.93,106.77Z"/><path class="cls-7" d="M231.76,122.27c-.07,0-.23.21-.62.46a2.53,2.53,0,0,1-1.84.28c-1.56-.35-3.14-2.56-3.54-5.1a8.19,8.19,0,0,1,.22-3.62,2.87,2.87,0,0,1,1.6-2.14,1.26,1.26,0,0,1,1.54.49c.25.37.19.66.27.68s.27-.28.08-.85a1.52,1.52,0,0,0-.67-.81,1.87,1.87,0,0,0-1.41-.18A3.51,3.51,0,0,0,225.1,114a8.53,8.53,0,0,0-.33,4.06c.47,2.84,2.29,5.31,4.41,5.63a2.64,2.64,0,0,0,2.2-.67C231.78,122.62,231.81,122.29,231.76,122.27Z"/><path class="cls-5" d="M299.65,58.72c-2.26-3.89-5.88-6.82-9.73-9.16a46.43,46.43,0,0,0-27.78-6.9,37.81,37.81,0,0,0-25.4,12.64,39.89,39.89,0,0,0-8.91,21.16,58.72,58.72,0,0,0,2.18,23c.93,3.28,2.19,6.65,4.78,8.87,1.62,1.38,4.23,2.14,5.78.68a5.69,5.69,0,0,0,1.32-3.44C243.52,94.37,245,82.33,240,72.18a32.89,32.89,0,0,1,8.87-10,17,17,0,0,1,12.72-3.06c6.52,1.31,11,7.08,16.52,10.85a30.11,30.11,0,0,0,27.23,3.32Z"/><path class="cls-7" d="M283.37,123.57a13.84,13.84,0,0,1-1.06,3.9,4.76,4.76,0,0,1-2.92,2.62,4.27,4.27,0,0,1-3.95-1.19,6.8,6.8,0,0,1-1.84-3.83c-.21-1.29.06-2.93,1.29-3.34a3.14,3.14,0,0,1,1.61,0l7.21,1.3"/><path class="cls-5" d="M281.86,129.6c-.08-.21-1.41.69-3.64.3A5.19,5.19,0,0,1,275,128a5.49,5.49,0,0,1-1-4.33,4.55,4.55,0,0,1,.38-1.11c.2-.34.16-.31.45-.33s.77.13,1.15.19l1.19.22c1.54.28,2.94.51,4.11.69,2.35.36,3.82.5,3.85.33s-1.37-.6-3.68-1.17c-1.15-.29-2.53-.61-4.06-1l-1.18-.25a12.58,12.58,0,0,0-1.32-.25,1.58,1.58,0,0,0-1,.24,1.83,1.83,0,0,0-.61.73,5.53,5.53,0,0,0-.48,1.42,6.34,6.34,0,0,0,1.31,5.28,5.81,5.81,0,0,0,3.95,2,5.5,5.5,0,0,0,2.9-.49C281.64,130,281.9,129.66,281.86,129.6Z"/><path class="cls-8" d="M313.14,43a3.59,3.59,0,0,1,.28.93,9.5,9.5,0,0,1,.09,2.79,13,13,0,0,1-5.13,8.69c-3.48,2.76-9,3.88-14.65,3s-11.49-3.55-17.49-6-12.16-4.14-17.68-3.13A22.31,22.31,0,0,0,246,56.52,29.76,29.76,0,0,0,240.56,65c-.91,2.21-1.22,3.5-1.32,3.47a3.83,3.83,0,0,1,.18-1,23.05,23.05,0,0,1,.8-2.65,28.46,28.46,0,0,1,5.24-8.75,22.75,22.75,0,0,1,13-7.62c5.77-1.1,12.15.62,18.18,3.11s11.7,5.23,17.26,6,10.78-.12,14.14-2.68a13,13,0,0,0,5.17-8.21A14.48,14.48,0,0,0,313.14,43Z"/><path class="cls-8" d="M220.26,86.13a10,10,0,0,1,.55-3.91,24.48,24.48,0,0,1,8-12.31,8.82,8.82,0,0,1,3.88-2,4.74,4.74,0,0,1,3,.33c.63.33.87.66.83.7a5.41,5.41,0,0,0-3.65-.39c-2.22.57-4.72,3-7,5.76a28.23,28.23,0,0,0-4.4,8.14C220.64,84.67,220.41,86.15,220.26,86.13Z"/><path class="cls-8" d="M224,98.37a10.62,10.62,0,0,1,.8-3.89A26.35,26.35,0,0,1,236.93,80a10.75,10.75,0,0,1,3.69-1.48,38.8,38.8,0,0,1-3.35,2A30.36,30.36,0,0,0,225.42,94.7,39,39,0,0,1,224,98.37Z"/><path class="cls-8" d="M300.21,178.48S315.38,198.05,319,205.4,348.84,294,348.84,294l-11.35,4.77Z"/><polygon class="cls-2" points="239.18 160.16 239.18 150.35 294.3 168.27 309.06 191.91 320.44 224.92 288.54 176.97 239.18 160.16"/><path class="cls-8" d="M235.9,169.59s-23.38,28-22.88,46.16c.5,17.91,24.79,126.74,24.79,126.74l-5.88,19.45-6.37,64.82h132.5L348.84,294c-1.48-.09-29-76.11-29-76.11L289,175.06l-50.76-18.29Z"/><path class="cls-8" d="M336.87,262.33s9.27-.37,14.1,1.79,8.94,1.08,12.36,7.78,7.42,9.72,8.26,19.87-10.12,33.66-17.36,37S336.87,262.33,336.87,262.33Z"/><g class="cls-9"><path d="M233.22,261.41s54.17,50.84,61.06,55.71,7.91,35.61,16.4,36.19,36-19.75,36-19.75l-81.49-76.77Z"/></g><path class="cls-6" d="M309.5,306.94S297.72,322,296.37,325.79s-2.66,6.29-1.22,7.55a3.67,3.67,0,0,0,4.13.86c1.92-.73,11.39-13.22,11.39-13.22s-12.56,17.91-13.13,21,1.89,4.59,4.77,4,8.36-8.63,8.36-8.63-7.77,9-6.13,10.52,3.53,1.71,5.69.63,7.64-8.19,7.64-8.19-3.78,4.05-1.71,5,2.25,1.1,4-.39,17.68-17,17.68-17l-10-6.86Z"/><path class="cls-7" d="M314.33,316.15a21.2,21.2,0,0,1-1.84,2.52l-4.6,6c-1.8,2.33-3.49,4.4-4.77,5.86a16.63,16.63,0,0,1-2.16,2.26,19.86,19.86,0,0,1,1.88-2.5c1.28-1.65,2.88-3.69,4.64-5.94s3.46-4.43,4.72-5.9A16.41,16.41,0,0,1,314.33,316.15Z"/><path class="cls-7" d="M322.67,323.37a98.72,98.72,0,0,1-6.27,7.82,98.4,98.4,0,0,1-6.68,7.48,93.61,93.61,0,0,1,6.28-7.82C319.58,326.63,322.57,323.28,322.67,323.37Z"/><path class="cls-7" d="M329.37,327.9c.1.09-2.84,3.48-6.58,7.57a97.9,97.9,0,0,1-7,7.22,98.69,98.69,0,0,1,6.58-7.57A93.29,93.29,0,0,1,329.37,327.9Z"/><path class="cls-8" d="M243.07,187c7.6-1.61,17.27-2.28,24.63,1.89l40.19,36.25s56.65,63.56,58.87,67.1,5.21,24.46-3.37,35.12-18.22,6.56-29.24,4c-8.71-2-69.62-46.74-94.66-65.33a47.84,47.84,0,0,1-17.8-25.95,57.69,57.69,0,0,1-2-20.66"/><path class="cls-5" d="M219.68,219.46s0,.35-.07,1-.1,1.72-.12,3.07a58.51,58.51,0,0,0,1.18,11.7,61.24,61.24,0,0,0,2.2,8.22,46.28,46.28,0,0,0,4.39,9.1,48,48,0,0,0,7.27,9c2.91,2.92,6.53,5.38,10.2,8.12,14.76,10.87,32.35,23.78,52.16,37.73q7.44,5.22,15.31,10.56c5.27,3.53,10.65,7.14,16.34,10.43a42.26,42.26,0,0,0,4.39,2.25,12.58,12.58,0,0,0,2.35.71l2.44.59a68.93,68.93,0,0,0,9.89,2,16.82,16.82,0,0,0,9.81-1.79,20.16,20.16,0,0,0,7.26-7.13c2.89-5,3.95-10.81,4.14-16.43a52.62,52.62,0,0,0-.35-8.43c-.17-1.38-.39-2.76-.68-4.11a13.1,13.1,0,0,0-1.35-3.83c-1.65-2.16-3.5-4.25-5.25-6.32l-5.32-6.14-10.45-11.93-37.68-42.57v0L267.61,189h0a25.7,25.7,0,0,0-10.29-3,43.86,43.86,0,0,0-7.88.07c-2.11.21-3.71.48-4.78.66l-1.2.22c-.27.05-.41.06-.41.06s.54-.13,1.6-.35,2.66-.49,4.78-.72a43.45,43.45,0,0,1,7.91-.13,25.8,25.8,0,0,1,10.4,3h0C277.63,197.66,291.37,210,308,225h0c11.27,12.63,24,27,37.75,42.52l10.46,11.92,5.32,6.14c1.78,2.09,3.59,4.12,5.3,6.37a6.66,6.66,0,0,1,.51,1c.14.33.24.67.36,1,.23.67.38,1.35.55,2,.3,1.37.53,2.76.7,4.16a54.7,54.7,0,0,1,.35,8.5c-.2,5.69-1.26,11.57-4.22,16.69a20.55,20.55,0,0,1-7.45,7.31,17.18,17.18,0,0,1-10.1,1.85,68.16,68.16,0,0,1-10-2l-2.44-.59a13.77,13.77,0,0,1-2.43-.73,44.15,44.15,0,0,1-4.44-2.28c-5.72-3.32-11.1-6.93-16.37-10.47s-10.35-7.09-15.3-10.58c-19.81-14-37.38-26.92-52.11-37.82-3.65-2.75-7.28-5.23-10.21-8.18a48.56,48.56,0,0,1-7.29-9.11,46.89,46.89,0,0,1-4.37-9.17,60.21,60.21,0,0,1-2.17-8.26,56.65,56.65,0,0,1-1.08-11.74A32.77,32.77,0,0,1,219.68,219.46Z"/><path class="cls-5" d="M321.58,222.51a1,1,0,0,1-.23-.15l-.64-.47c-.55-.43-1.4-1-2.4-1.9-2.07-1.67-4.9-4.28-8.29-7.62s-7.31-7.41-11.77-11.83c-2.24-2.2-4.6-4.5-7.17-6.75a75.74,75.74,0,0,0-8.29-6.49c-1.22-.87-2.54-1.54-3.78-2.3l-.17-.1,0-.18c.21-.91.42-1.81.62-2.69l.17.3-30.78-9.69-9.11-2.92-2.45-.81-.63-.22-.21-.09s.08,0,.23,0l.64.18,2.48.72,9.16,2.77,30.82,9.53.23.07-.05.23c-.2.88-.4,1.78-.61,2.69l-.13-.28c1.25.76,2.59,1.44,3.81,2.32a72.93,72.93,0,0,1,8.35,6.54c2.58,2.26,4.93,4.58,7.17,6.79,4.44,4.44,8.33,8.55,11.69,11.91s6.14,6,8.16,7.73c1,.9,1.81,1.51,2.34,2l.6.51C321.52,222.44,321.59,222.5,321.58,222.51Z"/><path class="cls-5" d="M341.47,263.45a15.48,15.48,0,0,1-1.13-2.05l-2.89-5.75c-2.42-4.86-5.72-11.6-9.34-19.05s-6.86-14.23-9.18-19.14l-2.72-5.83c-.29-.65-.53-1.18-.71-1.6a2.47,2.47,0,0,1-.22-.57,3.1,3.1,0,0,1,.31.52c.21.41.48.92.8,1.56l2.87,5.76,9.32,19.07,9.2,19.12c1.14,2.41,2.07,4.39,2.74,5.82A21.92,21.92,0,0,1,341.47,263.45Z"/><path class="cls-5" d="M247.84,373.15h.36l1,.08,4,.32,14.62,1.26,49.29,4.4-.28.32-3.18-12.84c-.5-2-1-4-1.48-6l.23.19-55.2-6.4.17-.09c-3.24,5.75-5.74,10.38-7.37,13.6-.81,1.62-1.4,2.88-1.76,3.75a7.37,7.37,0,0,0-.34,1,1.22,1.22,0,0,0,0,.36,2.58,2.58,0,0,1,.3-1.4c.33-.88.9-2.16,1.69-3.79,1.58-3.25,4-7.92,7.23-13.69l.06-.1.11,0,55.22,6.23.17,0,.05.17c.48,1.95,1,3.95,1.48,6,1.08,4.39,2.15,8.71,3.17,12.84l.09.35-.36,0-49.41-4.63-14.57-1.4-3.9-.4-1-.11A1.63,1.63,0,0,1,247.84,373.15Z"/><g class="cls-9"><polygon points="249.63 373.31 252 379.48 317.07 383.36 317.07 379.48 249.63 373.31"/></g></g><g id="Character_1" data-name="Character 1"><path class="cls-5" d="M160.16,63.22c-.2-3.48-3.09-6.4-6.42-7.44s-7-.52-10.26.58c-7.21,2.39-13.27,7.29-19.15,12.1-9.13,7.45-18,17.69-21.48,28.94-2.63,8.48-3.39,14-.69,23,2.38,8,4.27,15.71,3.8,22.38-.75,10.55-2,13-4.74,23.39-1.69,6.47,4.08,23.4,4.08,23.4l36.49-14c13-6.12,41.06-17.54,41.06-17.54Z"/><path class="cls-10" d="M139.64,186.94c.06-8.87.14-15.05.14-15s-15.93-3.68-19.14-26.41a224.9,224.9,0,0,1-1.22-44.35c1.09-13.59,10.39-30.11,23.91-28.45l42.12,11.42c4.11.51,5.48,4,5.33,8.15l.31,1.94L188,159.13l1.33,27.6c-.54,12.33-12.73,23.53-25.06,24.1h0A23.53,23.53,0,0,1,139.64,186.94Z"/><path class="cls-5" d="M129,119.29a2.91,2.91,0,0,0,2.75,3,2.78,2.78,0,0,0,3-2.57,2.91,2.91,0,0,0-2.75-3A2.77,2.77,0,0,0,129,119.29Z"/><path class="cls-5" d="M125.14,111.41c.35.39,2.58-1.2,5.71-1.14s5.39,1.66,5.74,1.29c.17-.17-.19-.86-1.18-1.6a7.85,7.85,0,0,0-4.58-1.5,7.63,7.63,0,0,0-4.56,1.38C125.3,110.56,125,111.24,125.14,111.41Z"/><path class="cls-5" d="M158.23,118.94a2.9,2.9,0,0,0,2.75,3,2.77,2.77,0,0,0,3-2.56,2.91,2.91,0,0,0-2.75-3A2.78,2.78,0,0,0,158.23,118.94Z"/><path class="cls-5" d="M155.13,111.33c.36.38,2.59-1.21,5.72-1.15s5.39,1.67,5.74,1.29c.16-.17-.19-.86-1.18-1.6a7.92,7.92,0,0,0-4.58-1.5,7.63,7.63,0,0,0-4.56,1.38C155.3,110.47,155,111.15,155.13,111.33Z"/><path class="cls-5" d="M142.58,135c0-.18-1.92-.55-5.07-1-.8-.1-1.55-.27-1.67-.82a4.09,4.09,0,0,1,.57-2.36q1.17-2.88,2.47-6c3.42-8.6,5.92-15.68,5.57-15.81s-3.41,6.72-6.83,15.33c-.83,2.12-1.62,4.14-2.37,6.08a4.58,4.58,0,0,0-.47,3.12,2,2,0,0,0,1.29,1.19,5.7,5.7,0,0,0,1.36.22C140.59,135.11,142.56,135.16,142.58,135Z"/><path class="cls-11" d="M139.78,172a57.69,57.69,0,0,0,30.49-7.58s-7.93,15.87-30.58,13.36Z"/><path class="cls-5" d="M154.13,100.27c.36.82,3.45.21,7.14.4s6.73,1,7.16.19c.19-.38-.38-1.14-1.63-1.88a12,12,0,0,0-5.39-1.49,11.78,11.78,0,0,0-5.5,1C154.6,99.16,154,99.87,154.13,100.27Z"/><path class="cls-5" d="M124.26,101.65c.64.72,3.2,0,6.26,0s5.66.57,6.27-.16c.26-.36-.13-1.08-1.25-1.77a9.88,9.88,0,0,0-5.08-1.25,9.73,9.73,0,0,0-5,1.34C124.34,100.57,124,101.3,124.26,101.65Z"/><path class="cls-11" d="M143.32,142.69a6.52,6.52,0,0,1,6.06-2.78h.22a3.26,3.26,0,0,1,2.4,5.47,5.75,5.75,0,0,1-3,1.83,5.44,5.44,0,0,1-4.45-.5A3.24,3.24,0,0,1,143.32,142.69Z"/><path class="cls-5" d="M152.07,138c-.15,0-.34.79-.92,2a9.67,9.67,0,0,1-7.86,5.47c-1.29.13-2.12,0-2.15.18s.77.49,2.18.54a8.83,8.83,0,0,0,8.49-5.91C152.26,138.84,152.19,138,152.07,138Z"/><path class="cls-5" d="M118.84,127.37l-4.69-19c-4.22-5.83-.93-15.32,2.06-21.86s8.69-11.54,15-14.92,13.35-5.28,20.33-7a39,39,0,0,1-16.75,21.14S123.26,93.63,121.17,103C118.89,113.15,118.84,127.37,118.84,127.37Z"/><path class="cls-5" d="M145.2,76.59l33.07,19.87a107.48,107.48,0,0,0,7,29.74c6.1-5.22,9.87,4.83,11.7-2.9.1-.4-1.68,16.22-8.07,16.74l-1,18.07,31.53-7.76s-1.69-21.9-7.07-35.19c-3.35-8.27-5.12-15.19-8.43-23.48-2.5-6.26-6.94-15.63-10.28-20.09-7.17-9.58-33.69-10-33.69-10-11.7,2.76-3.82,1.44-13.67,8.34l-3.36,9"/><path class="cls-10" d="M185.31,126.07c0-4.77,5.09-8.24,9.43-6.09,2.38,1.18,4.3,3.72,4.37,8.79.18,13.51-13.68,10.93-13.71,10.54S185.34,131.66,185.31,126.07Z"/><path class="cls-11" d="M189.53,134.13c.06,0,.25.16.65.34a2.49,2.49,0,0,0,1.8,0c1.45-.55,2.64-2.83,2.67-5.27a7.71,7.71,0,0,0-.71-3.36,2.78,2.78,0,0,0-1.83-1.78,1.22,1.22,0,0,0-1.41.66c-.18.38-.09.65-.16.68s-.3-.23-.2-.78a1.56,1.56,0,0,1,.53-.86,1.82,1.82,0,0,1,1.32-.36,3.33,3.33,0,0,1,2.54,2.06,7.87,7.87,0,0,1,.88,3.75c-.05,2.73-1.43,5.29-3.42,5.89a2.6,2.6,0,0,1-2.2-.33C189.56,134.45,189.49,134.15,189.53,134.13Z"/><path class="cls-8" d="M161,61.56a3.76,3.76,0,0,1-.57.81c-.41.49-1,1.17-1.84,2-1.6,1.62-3.91,3.74-6.47,6.07s-4.86,4.46-6.5,6S143,79,142.93,79a3.49,3.49,0,0,1,.59-.79c.4-.5,1-1.17,1.81-2,1.58-1.64,3.85-3.81,6.41-6.14l6.56-6C160,62.56,160.91,61.51,161,61.56Z"/><path class="cls-8" d="M124.18,73a6.55,6.55,0,0,1,.88-1,26.13,26.13,0,0,1,2.75-2.51A30.33,30.33,0,0,1,138.74,64a12,12,0,0,1,6.77-.09,6.69,6.69,0,0,1,4.21,3.55,5.18,5.18,0,0,1,.19,3.72,3.69,3.69,0,0,1-.46.92c-.14.18-.22.27-.24.26a10.27,10.27,0,0,0,.51-1.24,5.23,5.23,0,0,0-.34-3.51,6.37,6.37,0,0,0-4-3.24,11.82,11.82,0,0,0-6.5.13A32.28,32.28,0,0,0,128,69.75C125.55,71.62,124.25,73.08,124.18,73Z"/><path class="cls-8" d="M116.61,86.61a7,7,0,0,1,.87-1c.58-.59,1.44-1.45,2.52-2.48A47.6,47.6,0,0,1,129.28,76a19.66,19.66,0,0,1,6-2.33,7.64,7.64,0,0,1,5.22.78A5.64,5.64,0,0,1,143,77.12a4.43,4.43,0,0,1,.25.94c0,.23,0,.34,0,.35s-.09-.47-.44-1.21a5.73,5.73,0,0,0-2.4-2.4,7.47,7.47,0,0,0-5-.63,19.86,19.86,0,0,0-5.87,2.32,53.07,53.07,0,0,0-9.28,6.93l-2.63,2.36A6,6,0,0,1,116.61,86.61Z"/><path class="cls-8" d="M195.78,140.63a4.72,4.72,0,1,1-4.88-4.56A4.72,4.72,0,0,1,195.78,140.63Z"/><path class="cls-12" d="M109.15,275.7c-1.13.76-13.6,3.78-16.62,11.72s-19.06,24.06-7.45,39.8l24.07-13.35Z"/><path class="cls-5" d="M85.07,327.25h0a20.73,20.73,0,0,1-3.94-9.13,21.83,21.83,0,0,1,.52-8.84c1.43-5.71,4.68-11,7.29-15.32a47.09,47.09,0,0,0,3.58-6.54c2.47-6.5,11.25-9.7,15-11.07a10.83,10.83,0,0,0,1.63-.66l0,0v38.22h0Zm24.06-51.5a15.22,15.22,0,0,1-1.6.64c-3.74,1.36-12.51,4.56-15,11A46.08,46.08,0,0,1,89,294c-2.61,4.28-5.86,9.6-7.28,15.3a21.73,21.73,0,0,0-.52,8.82,20.8,20.8,0,0,0,3.91,9.09l24-13.34Z"/><polygon class="cls-1" points="136.93 209.93 138.9 182.71 188.46 162.03 190.22 172.19 156.46 189.37 136.93 209.93"/><path class="cls-12" d="M190.22,166.2s-30.36,12.28-43.83,24.28c-12.66,11.28-39,55.76-41.82,67.89s-2.27,45.68-2.27,45.68-.07,34.62-.07,35.47-21.72,56.69-17.77,87.15H208.29s3.67-42.87-4.79-59.51-8.75-13.26-8.75-13.26,5.08-5.64,4.51-10.72a21.86,21.86,0,0,0-3.66-9.31l21.72-67.69s2.25-34.13-3.67-57C208.1,187.78,206,189,199.09,182.14c-.15-.14.09.19,0,0L192.78,177Z"/><path class="cls-12" d="M109.15,373.15c-.38-1.46,9.38-18.79,9.38-18.79l56,9.39,3.89,15.73Z"/><path class="cls-5" d="M109.15,373.15a2.6,2.6,0,0,1,.37,0l1,.08,4,.32,14.64,1.26,49.26,4.4-.27.32c-.94-3.81-1.93-7.81-2.94-11.88-.33-1.3-.65-2.59-1-3.84l.21.19-55.95-9.48.18-.09c-3.24,5.74-5.73,10.38-7.37,13.6-.81,1.61-1.4,2.87-1.76,3.75a7.73,7.73,0,0,0-.35,1c-.06.24,0,.35,0,.36a2.81,2.81,0,0,1,.31-1.4c.33-.89.9-2.17,1.69-3.79,1.58-3.26,4-7.92,7.23-13.69l.06-.1.12,0,56,9.31.17,0,0,.16.95,3.85c1,4.07,2,8.07,2.94,11.88l.09.35-.36,0L129,375.12l-14.57-1.41-3.91-.4-1-.11A2.15,2.15,0,0,1,109.15,373.15Z"/><g class="cls-9"><path d="M97.13,346.26l1.25,10.14c8.93,6.32,21.55,5.11,31.1-.23s16.63-14.1,23.17-22.86c19.85-26.55,37.14-55.23,48.93-86.2C170.82,284,128.19,309.58,97.13,346.26Z"/></g><path class="cls-12" d="M197.11,194.85c10.39,8.27,19.45,34.15,3.36,56.52,0,0-70.3,95.38-81.94,103s-27.31,3.13-31.79-8.06-2.69-21.94,3.58-29.56,47.46-80.15,47.46-80.15,9.4-33.62,25.41-43.38"/><path class="cls-5" d="M163.19,193.21l-.72.51a24.94,24.94,0,0,0-2.08,1.55,41.33,41.33,0,0,0-6.78,7.39c-5.18,7.07-11.05,18.63-15.66,34v0c-9,15.91-20.32,35.72-33.46,57.95-3.31,5.54-6.7,11.26-10.36,17-1,1.42-1.82,2.89-2.88,4.27-.51.72-1,1.4-1.55,2.08a25.7,25.7,0,0,0-1.43,2.14A27.36,27.36,0,0,0,86,324.84a27.7,27.7,0,0,0-1.24,5.1,30,30,0,0,0,.45,10.63,26.39,26.39,0,0,0,.69,2.61,27,27,0,0,0,.88,2.58c.31.85.75,1.64,1.13,2.46l.74,1.14a7.71,7.71,0,0,0,.8,1.1,19.44,19.44,0,0,0,9,6.16,22.94,22.94,0,0,0,11,1,22.7,22.7,0,0,0,9.47-3.87,65.4,65.4,0,0,0,7.25-7.26c4.54-5.09,8.83-10.28,13-15.41,8.32-10.28,16.15-20.35,23.57-30s14.39-18.84,20.89-27.47L193,261.07l4.4-5.91c1.42-1.94,2.9-3.78,4.08-5.74a45,45,0,0,0,5.59-11.75l.8-2.94c.27-1,.37-2,.55-2.91a44.14,44.14,0,0,0-2.52-23.89A35.19,35.19,0,0,0,200,197.79c-.45-.51-.81-1-1.19-1.34s-.68-.64-.94-.87l-.76-.73.79.69,1,.86c.39.34.75.82,1.21,1.32a34.82,34.82,0,0,1,6,10.14,46.4,46.4,0,0,1,3.22,18.36,46.88,46.88,0,0,1-.58,5.65c-.18,1-.28,2-.54,2.93s-.53,2-.81,3a45,45,0,0,1-5.59,11.85c-1.2,2-2.67,3.82-4.08,5.77s-2.9,3.9-4.39,5.92L184,273.84c-6.49,8.65-13.45,17.87-20.85,27.51s-15.23,19.72-23.55,30c-4.17,5.14-8.45,10.33-13,15.44-1.13,1.28-2.31,2.53-3.5,3.78a35.77,35.77,0,0,1-3.83,3.54,23.14,23.14,0,0,1-9.7,4,23.46,23.46,0,0,1-11.29-1,20,20,0,0,1-9.18-6.34,7.63,7.63,0,0,1-.83-1.13l-.76-1.18c-.39-.84-.85-1.66-1.17-2.53s-.65-1.72-.89-2.61-.49-1.76-.69-2.65a28.8,28.8,0,0,1,.81-16,28.35,28.35,0,0,1,2.26-4.79c.46-.75.93-1.49,1.46-2.19s1.06-1.38,1.55-2.08c1-1.35,1.92-2.83,2.87-4.24,3.65-5.74,7-11.45,10.36-17,13.16-22.21,24.49-42,33.58-57.88l0,0c4.66-15.39,10.6-26.94,15.84-34a40.75,40.75,0,0,1,6.87-7.36,24.21,24.21,0,0,1,2.11-1.52Z"/><path class="cls-10" d="M132.19,267s-1.81-4.74-5.43-5.36-10.61,0-10.61,0-3.08,2.31-3.05,5.5a22.9,22.9,0,0,0,.65,5.4s-2.53-3.41-5.86-.18-6.26,9.78-6.26,9.78-4.43,1.42-6.11,3.57a19.61,19.61,0,0,0-2.69,5.63,7.21,7.21,0,0,0-3.06,6.91,9,9,0,0,0,4.7,6.69s13.21,9.74,14.82,8.48,4.92-3.24.17-7.45l-7.73-6.86,2.24-3.45s12.93,8.88,15,8.46,5.6-.5,4.15-3.69S109.59,288,109.59,288l1.43-5s14,9.46,16.27,7.95,4.33-2.22,2-5.34-12.42-10.57-12.42-10.57l4.13-3.86S130.77,272.87,132.19,267Z"/><path class="cls-5" d="M192.78,177l-.35.1-1,.27c-.9.24-2.23.59-3.94,1.07a144.21,144.21,0,0,0-14.21,4.77c-1.47.59-3,1.24-4.55,2-.78.37-1.57.75-2.36,1.18-.39.22-.8.42-1.19.65s-.77.47-1.13.75a61.76,61.76,0,0,0-8.38,8.36c-5.48,6.33-11.07,13.66-16.79,21.45s-11,15.35-15.75,22.27c-2.37,3.46-4.59,6.76-6.65,9.87a81.61,81.61,0,0,0-5.31,8.87,100.56,100.56,0,0,0-5.56,13.91c-.55,1.69-.94,3-1.2,3.9l-.29,1a1.38,1.38,0,0,1-.12.34,2.33,2.33,0,0,1,.07-.35l.24-1c.23-.9.59-2.23,1.1-3.93a94.7,94.7,0,0,1,5.43-14,81.49,81.49,0,0,1,5.28-9c2-3.12,4.26-6.43,6.61-9.9,4.72-6.94,10-14.5,15.73-22.31s11.33-15.12,16.85-21.46a62.59,62.59,0,0,1,8.48-8.39c.38-.28.79-.51,1.18-.77s.81-.43,1.21-.65c.79-.43,1.59-.81,2.38-1.18,1.57-.74,3.1-1.38,4.58-2a128.2,128.2,0,0,1,14.3-4.62c1.71-.46,3.06-.77,4-1l1-.22A1.19,1.19,0,0,1,192.78,177Z"/><path class="cls-5" d="M184.92,347.9a12.52,12.52,0,0,1-1.55-.88c-1-.58-2.37-1.49-4.05-2.66a96.15,96.15,0,0,1-12.24-10.27,94.4,94.4,0,0,1-10.33-12.19c-1.18-1.67-2.1-3-2.69-4a12.09,12.09,0,0,1-.88-1.54,10.58,10.58,0,0,1,1,1.43c.64.95,1.6,2.29,2.82,3.93a105.85,105.85,0,0,0,22.49,22.37c1.64,1.21,3,2.16,3.94,2.79A11.26,11.26,0,0,1,184.92,347.9Z"/><g class="cls-9"><polygon points="110.95 373.31 112.64 379.48 176.02 379.26 110.95 373.31"/></g></g></svg>