<svg xmlns="http://www.w3.org/2000/svg" viewBox="0 0 500 377.01"><defs><style>.cls-1{fill:#ebebeb;}.cls-2{fill:#e0e0e0;}.cls-3{fill:#f5f5f5;}.cls-18,.cls-21,.cls-4,.cls-9{fill:#fff;}.cls-5{fill:#f0f0f0;}.cls-6{fill:#fafafa;}.cls-7{fill:#e6e6e6;}.cls-10,.cls-8{fill:#407bff;}.cls-9{opacity:0.7;}.cls-10,.cls-18{opacity:0.3;}.cls-11,.cls-12,.cls-13,.cls-15{fill:#263238;}.cls-12{opacity:0.1;}.cls-13{font-size:10.77px;font-family:Arial-BoldMT, Arial;font-weight:700;}.cls-14{font-size:7.18px;letter-spacing:0em;}.cls-15{opacity:0.4;}.cls-16{fill:#b55b52;}.cls-17,.cls-19{opacity:0.2;}.cls-20{fill:#a02724;}.cls-21{opacity:0.5;}</style></defs><g id="Background_Complete" data-name="Background Complete"><rect class="cls-1" y="331.84" width="500" height="0.25"/><rect class="cls-1" x="52.46" y="341.37" width="33.12" height="0.25"/><rect class="cls-1" x="153.44" y="338.65" width="26.39" height="0.25"/><rect class="cls-1" x="89.97" y="347.27" width="45.92" height="0.25"/><rect class="cls-1" x="428.3" y="348.97" width="21.6" height="0.25"/><rect class="cls-1" x="391.47" y="348.97" width="31.97" height="0.25"/><rect class="cls-1" x="277.21" y="344.75" width="55.12" height="0.25"/><path class="cls-1" d="M237,287.24H43.91a5.71,5.71,0,0,1-5.7-5.7V10.1a5.71,5.71,0,0,1,5.7-5.7H237a5.71,5.71,0,0,1,5.71,5.7V281.54A5.71,5.71,0,0,1,237,287.24ZM43.91,4.65a5.46,5.46,0,0,0-5.45,5.45V281.54A5.46,5.46,0,0,0,43.91,287H237a5.46,5.46,0,0,0,5.46-5.45V10.1A5.46,5.46,0,0,0,237,4.65Z"/><path class="cls-1" d="M453.31,287.24H260.21a5.72,5.72,0,0,1-5.71-5.7V10.1a5.72,5.72,0,0,1,5.71-5.7h193.1A5.71,5.71,0,0,1,459,10.1V281.54A5.71,5.71,0,0,1,453.31,287.24ZM260.21,4.65a5.46,5.46,0,0,0-5.46,5.45V281.54a5.46,5.46,0,0,0,5.46,5.45h193.1a5.46,5.46,0,0,0,5.46-5.45V10.1a5.46,5.46,0,0,0-5.46-5.45Z"/><rect class="cls-2" x="70.37" y="18.66" width="270.56" height="150.63" transform="translate(411.3 187.96) rotate(180)"/><rect class="cls-3" x="55.51" y="18.66" width="284.05" height="150.63" transform="translate(395.08 187.96) rotate(180)"/><rect class="cls-4" x="126.87" y="-43.41" width="141.34" height="274.77" transform="translate(291.52 -103.56) rotate(90)"/><polygon class="cls-3" points="223.67 164.65 171.79 23.3 257.41 23.3 309.29 164.65 223.67 164.65"/><polygon class="cls-3" points="141.26 164.65 89.38 23.3 153.97 23.3 205.84 164.65 141.26 164.65"/><rect class="cls-5" x="432.49" y="223.54" width="15.4" height="103.63" transform="translate(880.39 550.71) rotate(180)"/><rect class="cls-5" x="275.83" y="327.17" width="169.11" height="4.67" transform="translate(720.76 659.01) rotate(180)"/><rect class="cls-3" x="272.87" y="223.54" width="159.63" height="103.63"/><rect class="cls-5" x="434.09" y="219.46" width="15.74" height="4.08" transform="translate(883.93 443) rotate(180)"/><rect class="cls-6" x="270.93" y="219.46" width="163.16" height="4.08"/><path class="cls-2" d="M427.07,272.66H278.29V232H427.07ZM279.55,271.4H425.81V233.24H279.55Z"/><path class="cls-2" d="M427.07,318.73H278.29V278.61H427.07Zm-147.52-1.26H425.81v-37.6H279.55Z"/><path class="cls-2" d="M307.8,240.1h89.76a1.67,1.67,0,0,0,1.66-1.66h0a1.67,1.67,0,0,0-1.66-1.66H307.8a1.66,1.66,0,0,0-1.65,1.66h0A1.66,1.66,0,0,0,307.8,240.1Z"/><path class="cls-2" d="M307.8,286.73h89.76a1.67,1.67,0,0,0,1.66-1.66h0a1.67,1.67,0,0,0-1.66-1.66H307.8a1.66,1.66,0,0,0-1.65,1.66h0A1.66,1.66,0,0,0,307.8,286.73Z"/><path class="cls-7" d="M141.61,207.56H115.76a20.54,20.54,0,0,0-19.67,15.68l-6.83,28.51-14,0h0A14,14,0,0,0,61.5,263l-1.86,9.76a7.21,7.21,0,0,0-5.93,5.42H123a20.52,20.52,0,0,0,19.65-15.67l9.8-40.94A11.15,11.15,0,0,0,141.61,207.56ZM73.72,272.72H63.35l1.74-9a10.3,10.3,0,0,1,10.1-8.36h0l13.16,0-1.66,7A13.6,13.6,0,0,1,73.72,272.72Z"/><polygon class="cls-2" points="121.3 278.21 124.26 278.21 135.91 331.84 132.95 331.84 121.3 278.21"/><polygon class="cls-2" points="110.19 278.21 113.15 278.21 124.8 331.84 121.84 331.84 110.19 278.21"/><polygon class="cls-2" points="66.58 278.21 63.62 278.21 51.97 331.84 54.93 331.84 66.58 278.21"/><polygon class="cls-2" points="77.69 278.21 74.73 278.21 63.08 331.84 66.04 331.84 77.69 278.21"/><path class="cls-7" d="M237.58,207.56H211.74a20.54,20.54,0,0,0-19.67,15.68l-6.83,28.51-14,0h0A13.94,13.94,0,0,0,157.48,263l-1.87,9.76a7.24,7.24,0,0,0-5.93,5.42H219a20.52,20.52,0,0,0,19.66-15.67l9.8-40.94A11.15,11.15,0,0,0,237.58,207.56Zm-67.89,65.16H159.32l1.74-9a10.31,10.31,0,0,1,10.11-8.36h0l13.17,0-1.67,7A13.58,13.58,0,0,1,169.69,272.72Z"/><polygon class="cls-2" points="217.27 278.21 220.24 278.21 231.89 331.84 228.93 331.84 217.27 278.21"/><polygon class="cls-2" points="206.16 278.21 209.12 278.21 220.78 331.84 217.82 331.84 206.16 278.21"/><polygon class="cls-2" points="162.56 278.21 159.6 278.21 147.95 331.84 150.91 331.84 162.56 278.21"/><polygon class="cls-2" points="173.67 278.21 170.71 278.21 159.06 331.84 162.02 331.84 173.67 278.21"/><polygon class="cls-7" points="360.15 219.42 408.45 219.42 412.37 176.36 364.07 176.36 360.15 219.42"/><polygon class="cls-5" points="358.51 219.42 406.81 219.42 410.72 176.36 362.43 176.36 358.51 219.42"/><polygon class="cls-4" points="402.47 214.65 405.52 181.13 366.76 181.13 363.71 214.65 402.47 214.65"/><polygon class="cls-7" points="348.97 187.98 346.11 219.42 369.25 219.42 372.12 187.98 348.97 187.98"/><polygon class="cls-5" points="347.77 187.98 344.91 219.42 368.06 219.42 370.92 187.98 347.77 187.98"/><polygon class="cls-4" points="350.94 191.46 348.71 215.94 364.89 215.94 367.12 191.46 350.94 191.46"/></g><g id="Shadow"><ellipse id="_Path_" data-name="&lt;Path&gt;" class="cls-3" cx="250" cy="365.68" rx="193.89" ry="11.32"/></g><g id="Design_stats" data-name="Design stats"><path class="cls-8" d="M407.61,261.87H144.18a11.3,11.3,0,0,1-11.36-12l9.83-201a12.72,12.72,0,0,1,12.54-12H418.62a11.3,11.3,0,0,1,11.36,12l-9.83,201A12.73,12.73,0,0,1,407.61,261.87Z"/><path class="cls-9" d="M407.61,261.87H144.18a11.3,11.3,0,0,1-11.36-12l9.83-201a12.72,12.72,0,0,1,12.54-12H418.62a11.3,11.3,0,0,1,11.36,12l-9.83,201A12.73,12.73,0,0,1,407.61,261.87Z"/><path class="cls-8" d="M428.82,39a13.47,13.47,0,0,0-5.11-3.5l.36-.93a14.35,14.35,0,0,1,5.49,3.76Z"/><rect class="cls-8" x="397.69" y="33.64" width="21.06" height="1"/><path class="cls-8" d="M418.62,36.93H155.19a12.72,12.72,0,0,0-12.54,12H430A11.3,11.3,0,0,0,418.62,36.93Z"/><path class="cls-4" d="M140.86,248.32,150,62.44a5.92,5.92,0,0,1,5.85-5.59H416a5.27,5.27,0,0,1,5.31,5.59l-9.09,185.88a5.92,5.92,0,0,1-5.86,5.58H146.17A5.27,5.27,0,0,1,140.86,248.32Z"/><path class="cls-10" d="M177.78,120.59h-12a1.9,1.9,0,0,1-1.92-2l1-21a2.14,2.14,0,0,1,2.12-2h12a1.91,1.91,0,0,1,1.93,2l-1,21A2.14,2.14,0,0,1,177.78,120.59Z"/><path class="cls-10" d="M201.8,120.59h-12a1.92,1.92,0,0,1-1.93-2l1.21-24.8a2.16,2.16,0,0,1,2.13-2h12a1.92,1.92,0,0,1,1.93,2l-1.21,24.8A2.16,2.16,0,0,1,201.8,120.59Z"/><path class="cls-10" d="M225.82,120.59h-12a1.92,1.92,0,0,1-1.93-2l1.34-27.39a2.16,2.16,0,0,1,2.13-2h12a1.92,1.92,0,0,1,1.93,2L228,118.56A2.16,2.16,0,0,1,225.82,120.59Z"/><path class="cls-10" d="M249.85,120.59h-12a1.91,1.91,0,0,1-1.92-2l1.45-29.75a2.15,2.15,0,0,1,2.13-2h12a1.91,1.91,0,0,1,1.93,2L252,118.56A2.14,2.14,0,0,1,249.85,120.59Z"/><path class="cls-8" d="M273.87,120.59h-12a1.92,1.92,0,0,1-1.93-2l1.9-38.81a2.15,2.15,0,0,1,2.13-2h12a1.92,1.92,0,0,1,1.93,2L276,118.56A2.16,2.16,0,0,1,273.87,120.59Z"/><path class="cls-11" d="M270.74,73.61l1.14-1.83a.65.65,0,0,0-.55-1h-2.11a.65.65,0,0,0-.57.95l1,1.83A.65.65,0,0,0,270.74,73.61Z"/><path class="cls-10" d="M297.89,120.59h-12a1.92,1.92,0,0,1-1.93-2l1.6-32.69a2.16,2.16,0,0,1,2.13-2h12a1.92,1.92,0,0,1,1.93,2L300,118.56A2.15,2.15,0,0,1,297.89,120.59Z"/><path class="cls-12" d="M298.94,127.11H164.13a.63.63,0,0,1-.63-.66h0a.71.71,0,0,1,.7-.67H299a.63.63,0,0,1,.63.67h0A.7.7,0,0,1,298.94,127.11Z"/><path class="cls-12" d="M308.54,244l8.68-177.3a.67.67,0,0,1,.66-.64h.06a.6.6,0,0,1,.6.64L309.87,244a.67.67,0,0,1-.66.63h-.07A.6.6,0,0,1,308.54,244Z"/><path class="cls-8" d="M353.05,99.74a20.28,20.28,0,0,0,2.4,14l-5.94,3.66a27.08,27.08,0,0,1-3.19-18.59,29.7,29.7,0,0,1,27.59-24.13l0,6.82A22.35,22.35,0,0,0,353.05,99.74Z"/><path class="cls-10" d="M400,91.9l-6.44,2.6a19.69,19.69,0,0,0-16-12.8,21.23,21.23,0,0,0-3.64-.17l0-6.82a27.73,27.73,0,0,1,4.83.22A26.09,26.09,0,0,1,400,91.9Z"/><path class="cls-11" d="M401.14,106.18c-2.76,15.14-17.4,25.94-32.44,23.92a26.09,26.09,0,0,1-19.19-12.67l5.94-3.66a19.67,19.67,0,0,0,14.48,9.56,22.25,22.25,0,0,0,24.48-18,20.51,20.51,0,0,0-.88-10.78L400,91.9A27.34,27.34,0,0,1,401.14,106.18Z"/><path class="cls-11" d="M352.88,79.17a.49.49,0,0,1-.37-.16l-4.43-4.66H332.86a.5.5,0,0,1-.5-.5.5.5,0,0,1,.5-.5h15.43a.48.48,0,0,1,.36.15l4.59,4.82a.5.5,0,0,1,0,.71A.51.51,0,0,1,352.88,79.17Z"/><path class="cls-10" d="M381.83,158.2a20.34,20.34,0,0,0-14-2.75l-.74-6.74a27,27,0,0,1,18.51,3.64c11.19,6.93,15.42,21.27,10,33.83l-6.25-2.45C393.42,174.39,390.45,163.54,381.83,158.2Z"/><path class="cls-11" d="M368.27,204l.46-6.82A22.2,22.2,0,0,0,387.59,187a21.75,21.75,0,0,0,1.77-3.28l6.25,2.45a29,29,0,0,1-2.34,4.36A29.45,29.45,0,0,1,368.27,204Z"/><path class="cls-8" d="M354.61,200c-12.7-7.87-16.14-25.11-7.63-38.2a29.64,29.64,0,0,1,20.15-13.13l.74,6.74a22.36,22.36,0,0,0-15.21,9.91c-6.46,9.94-3.88,22.85,5.76,28.83a20,20,0,0,0,10.31,3l-.46,6.82A26.68,26.68,0,0,1,354.61,200Z"/><path class="cls-11" d="M349.27,152.85a.51.51,0,0,1-.36-.15L344.47,148H329.25a.5.5,0,0,1,0-1h15.44a.55.55,0,0,1,.36.15l4.58,4.83a.49.49,0,0,1,0,.7A.54.54,0,0,1,349.27,152.85Z"/><path class="cls-8" d="M336.06,228.86H331a2.71,2.71,0,0,0-2.67,2.55l-.25,5.06A2.41,2.41,0,0,0,330.5,239h5.06a2.71,2.71,0,0,0,2.68-2.55l.25-5.06A2.42,2.42,0,0,0,336.06,228.86Z"/><path class="cls-11" d="M364.44,228.86h-5.06a2.72,2.72,0,0,0-2.68,2.55l-.24,5.06a2.4,2.4,0,0,0,2.42,2.55H364a2.71,2.71,0,0,0,2.67-2.55l.25-5.06A2.41,2.41,0,0,0,364.44,228.86Z"/><path class="cls-10" d="M392.83,228.86h-5.07a2.71,2.71,0,0,0-2.67,2.55l-.25,5.06a2.4,2.4,0,0,0,2.42,2.55h5.07a2.7,2.7,0,0,0,2.67-2.55l.25-5.06A2.4,2.4,0,0,0,392.83,228.86Z"/><text class="cls-13" transform="matrix(1, 0, -0.05, 1, 171.72, 168.88)">25.54<tspan class="cls-14" x="26.94" y="0">%</tspan></text><path class="cls-8" d="M215.75,184.23h-.12a.49.49,0,0,1-.37-.6c3.38-14.22,10.55-28.77,19-29.25,5.65-.31,8.87,4.4,12.6,9.86,2.7,3.93,5.75,8.38,10.22,11.73,3.08,2.31,6.22,2.91,9.34,1.79,6.95-2.51,13.6-13.81,17.36-29.5a.5.5,0,0,1,1,.23c-3.89,16.26-10.62,27.55-18,30.21-3.46,1.25-6.92.6-10.28-1.93-4.6-3.45-7.7-8-10.44-12-3.72-5.42-6.64-9.68-11.72-9.42-7.89.45-14.74,14.62-18,28.48A.49.49,0,0,1,215.75,184.23Z"/><path class="cls-12" d="M289,191.15H167.85a7.58,7.58,0,0,1-7.62-8L162,147.87a8.47,8.47,0,0,1,8.36-8H291.46a7.59,7.59,0,0,1,7.62,8l-1.72,35.27A8.47,8.47,0,0,1,289,191.15ZM170.31,140.9a7.46,7.46,0,0,0-7.36,7l-1.72,35.27a6.57,6.57,0,0,0,6.62,7H289a7.45,7.45,0,0,0,7.36-7l1.73-35.27a6.6,6.6,0,0,0-6.63-7Z"/><path class="cls-12" d="M194.06,149.9H174.48a2.15,2.15,0,0,1-1.59-.68,2.18,2.18,0,0,1-.6-1.63,2.39,2.39,0,0,1,2.37-2.26h19.57a2.19,2.19,0,0,1,1.6.68,2.17,2.17,0,0,1,.6,1.63A2.4,2.4,0,0,1,194.06,149.9Zm-19.4-3.57a1.4,1.4,0,0,0-1.37,1.31,1.16,1.16,0,0,0,.32.89,1.19,1.19,0,0,0,.87.37h19.58a1.41,1.41,0,0,0,1.37-1.31,1.2,1.2,0,0,0-1.2-1.26Z"/><polygon class="cls-8" points="176.3 179.64 171.22 179.64 170.97 184.72 176.05 184.72 176.3 179.64"/><path class="cls-10" d="M181.87,244.62H171.51a3.28,3.28,0,0,1-3.3-3.47l.51-10.37a3.69,3.69,0,0,1,3.63-3.46h10.37a3.27,3.27,0,0,1,3.29,3.46l-.5,10.37A3.7,3.7,0,0,1,181.87,244.62Z"/><path class="cls-12" d="M221.62,239H194.89a2.86,2.86,0,0,1-2.86-3,3.15,3.15,0,0,1,3.11-3h26.72a2.84,2.84,0,0,1,2.87,3A3.15,3.15,0,0,1,221.62,239Zm-26.48-5a2.15,2.15,0,0,0-2.12,2,1.86,1.86,0,0,0,1.87,2h26.73a2.13,2.13,0,0,0,2.11-2,1.85,1.85,0,0,0-1.87-2Z"/><path class="cls-8" d="M177,239h0a.51.51,0,0,1-.48-.53l.22-4.42a.48.48,0,0,1,.52-.48.5.5,0,0,1,.48.53l-.22,4.42A.5.5,0,0,1,177,239Z"/><path class="cls-8" d="M175.09,236a.48.48,0,0,1-.36-.16.49.49,0,0,1,0-.7l2.14-2a.46.46,0,0,1,.36-.13.53.53,0,0,1,.35.15l1.94,2.05a.49.49,0,0,1,0,.7.5.5,0,0,1-.71,0l-1.59-1.68-1.78,1.7A.54.54,0,0,1,175.09,236Z"/><text class="cls-13" transform="matrix(1, 0, -0.05, 1, 169.44, 215.37)">$323,078.00</text><path class="cls-15" d="M250.23,227.32H239.87a3.7,3.7,0,0,0-3.64,3.46l-.5,10.37a3.27,3.27,0,0,0,3.29,3.47h10.37a3.69,3.69,0,0,0,3.63-3.47l.51-10.37A3.28,3.28,0,0,0,250.23,227.32Z"/><path class="cls-12" d="M289.13,239H262.41a2.87,2.87,0,0,1-2.87-3,3.15,3.15,0,0,1,3.11-3h26.73a2.86,2.86,0,0,1,2.87,3A3.16,3.16,0,0,1,289.13,239Zm-26.48-5a2.14,2.14,0,0,0-2.11,2,1.89,1.89,0,0,0,.51,1.39,1.87,1.87,0,0,0,1.36.58h26.72a2.15,2.15,0,0,0,2.12-2,1.91,1.91,0,0,0-.51-1.39,1.87,1.87,0,0,0-1.36-.57Z"/><path class="cls-4" d="M244.53,238.4h0a.5.5,0,0,1-.48-.52l.22-4.43a.48.48,0,0,1,.52-.47.5.5,0,0,1,.48.52l-.22,4.43A.49.49,0,0,1,244.53,238.4Z"/><path class="cls-4" d="M244.51,239h0a.5.5,0,0,1-.35-.16l-1.94-2a.5.5,0,1,1,.73-.69l1.59,1.68,1.78-1.7a.5.5,0,1,1,.69.73l-2.14,2A.49.49,0,0,1,244.51,239Z"/></g><g id="Character"><path class="cls-11" d="M112.11,64.44c-4,5.21-4.74,12.39-4.51,16.06.28,4.56-5.67,4.77-4,12.68,1.43,6.87-2.74,9-2.64,14.38.22,12.45,11.39,16.13,32.22,12.45s8.32-22.71,11.1-30.19.58-25-5-24.26C139.89,52.33,120.14,54.06,112.11,64.44Z"/><path class="cls-16" d="M119.15,120.43c-.14,2.54-.41,4.82-.74,7.2s-.76,4.71-1.29,7.06-1.13,4.7-1.87,7a56.8,56.8,0,0,1-2.73,7.05l-.23.49a5,5,0,0,1-6.38,2.57,37,37,0,0,1-4-1.93c-1.27-.67-2.44-1.43-3.62-2.18s-2.29-1.56-3.39-2.4-2.16-1.7-3.21-2.68a3.07,3.07,0,0,1,2.77-5.23l.1,0c1.28.3,2.57.67,3.83,1l3.75,1.1,3.65,1.07c1.18.33,2.36.63,3.41.86l-6.62,3.06c.65-1.87,1.18-3.86,1.68-5.89s.87-4.15,1.24-6.27.68-4.27,1-6.43.54-4.38.77-6.39v-.14a6,6,0,0,1,12,1Z"/><path class="cls-16" d="M90.9,134l-2.46-.88a2.41,2.41,0,0,0-3.09,1.51l-.94,2.81a2.4,2.4,0,0,0,1.17,2.89L88.66,142s5,3.84,7.51,1.49l1.37-4-3.71-3.62A8.12,8.12,0,0,0,90.9,134Z"/><path class="cls-11" d="M117.93,106.68c-7.37,1.39-8.93,4.4-14.36,15.59,1.64,7.37,15.63,13.84,15.63,13.84S130.08,116.2,117.93,106.68Z"/><path class="cls-11" d="M130.58,359.15c4.62-6.16,5-7.86,7.91-11.1a30.61,30.61,0,0,1,5.4-4.94c1.94-1.58.78-3.85-1-4.8-1.39-.75-2.92-1.41-4.6-2.39l-7.62,6.22c.75,3.54-.82,10.9-4,15.79C124.34,361.43,128.73,361.62,130.58,359.15Z"/><path class="cls-8" d="M108.08,162.72s-7.1,49.81-12.39,83.8a38.91,38.91,0,0,0,1.88,19.68c9.05,24.11,32.51,76.53,32.51,76.53,1.08,1.06,7.57-5.11,8.2-6.81,0,0-8.11-66.25-20.72-81.09,25.73-53.09,25.33-92.11,25.33-92.11Z"/><g class="cls-17"><path d="M142.87,164.2l-19,1.32s-3.68,54.72-4.47,85.4C140.49,205.79,142.65,171.56,142.87,164.2Z"/><path d="M119.29,257.2c-.26,15.73-1.05,36.21-2.6,55.12,4.81,11.07,9.14,20.86,11.51,26.17,2.28-6.59,4.82-14.45,7.11-22.79C132.12,296.42,126.53,268.69,119.29,257.2Z"/></g><path class="cls-8" d="M126.72,340.15c.58.85,1.59,2.37,2.29,3.53a.82.82,0,0,0,1.17.19,71,71,0,0,0,9-7.61.91.91,0,0,0,.23-1l-1.53-3.48a.82.82,0,0,0-1.28-.23L127,339A.9.9,0,0,0,126.72,340.15Z"/><path class="cls-18" d="M126.72,340.15c.58.85,1.59,2.37,2.29,3.53a.82.82,0,0,0,1.17.19,71,71,0,0,0,9-7.61.91.91,0,0,0,.23-1l-1.53-3.48a.82.82,0,0,0-1.28-.23L127,339A.9.9,0,0,0,126.72,340.15Z"/><path class="cls-11" d="M104.07,361.61c7.26,1.45,10.06,1.89,14.2,2.57,3.54.58,4.2,1.16,7,1.66,2.36.42,3.2-1.75,3.54-4.36.18-1.31.5-4.54.87-6.65l-11.25-.59c-2.68,2.43-9.83,3.24-14.14,2.95C100.2,356.91,101.18,361,104.07,361.61Z"/><path class="cls-8" d="M118.52,162.72s3.73,64,4.42,93c.71,30.45.13,78-5.39,98.25,1.51,1,8.51,1,12.16-.05,0,0,22.73-64.5,14.17-96.86,17.23-71.26,7-88.09,4.13-94.31Z"/><path class="cls-8" d="M118.51,349.81a33.42,33.42,0,0,1-1.65,4,.69.69,0,0,0,.41,1.06c3.89,1,10.11.64,12.1.48a1.15,1.15,0,0,0,.91-.64l1.79-3.74a.69.69,0,0,0-.56-1.05l-11.9-.86A1.12,1.12,0,0,0,118.51,349.81Z"/><path class="cls-18" d="M118.51,349.81a33.42,33.42,0,0,1-1.65,4,.69.69,0,0,0,.41,1.06c3.89,1,10.11.64,12.1.48a1.15,1.15,0,0,0,.91-.64l1.79-3.74a.69.69,0,0,0-.56-1.05l-11.9-.86A1.12,1.12,0,0,0,118.51,349.81Z"/><path class="cls-11" d="M147.73,106.15c-1.59-.16-3.26-.29-5-.37a126,126,0,0,0-18.13,0c-2,.17-4,.42-6,.69a15,15,0,0,0-12.82,14.16c-.12,3.92.73,9.85,1.55,19.2,1.08,12.19-1.89,18.39.71,22.89,5.09,4.84,28.46,2.41,39.93,0h0c3.45-4.44-3.3-16,7.68-44.46C157.89,112.57,153.65,106.75,147.73,106.15Z"/><path class="cls-4" d="M124,115.51c-.21.74-.64,1.27-1,1.18s-.43-.77-.22-1.52.65-1.27,1-1.18S124.22,114.76,124,115.51Z"/><path class="cls-4" d="M122.54,121.68c-.1.76-.45,1.35-.79,1.31s-.53-.7-.44-1.47.45-1.35.78-1.31S122.63,120.91,122.54,121.68Z"/><path class="cls-16" d="M138.91,86c-.18,6-.95,15.9,2.84,19.8,0,0-5.53-.83-17.26,6.42-3.4-4.87-.88-6.42-.88-6.42a5.84,5.84,0,0,0,4.44-8.25Z"/><path class="cls-4" d="M127,110.74c3.87.55,5.08,6.39,5.08,6.39s9.28-6.57,12.22-11.2a37.57,37.57,0,0,1-3.39-2.15S129.21,108.51,127,110.74Z"/><path class="cls-4" d="M123.28,110.12s-3.07.66-4.61,4.93c-.88-8.51,3.15-9.29,3.15-9.29a5,5,0,0,1,3.5-.51A4.14,4.14,0,0,0,123.28,110.12Z"/><path class="cls-19" d="M132.12,93.9l-1.53.93-2.54,2.7a5.78,5.78,0,0,1,.24,4.4c2.9-1.13,5.82-3.4,6.59-5.84l0-.06A1.88,1.88,0,0,0,132.12,93.9Z"/><path class="cls-16" d="M137,71.84c2.79,9.17,4.16,13,1.49,19.47-4,9.77-15.54,11.72-20.93,3.7-4.84-7.22-8.59-21-1.42-28.26A12.27,12.27,0,0,1,137,71.84Z"/><path class="cls-15" d="M127.25,66.48c-2.35,6.25,3.22,14,11.19,13.44,3.71-7.09,1.46-12.51-.52-14.72S129.94,62.59,127.25,66.48Z"/><path class="cls-11" d="M137.87,66.39c-1.07,7.59-25.71,2.89-27.05,10.5C110.76,66.94,121.87,53.67,137.87,66.39Z"/><path class="cls-11" d="M124.9,81.2c.26.76.1,1.54-.37,1.74s-1.07-.25-1.34-1-.1-1.54.37-1.74S124.63,80.44,124.9,81.2Z"/><path class="cls-11" d="M115.66,84.08c.27.76.11,1.54-.36,1.75s-1.07-.25-1.34-1-.1-1.54.37-1.75S115.4,83.32,115.66,84.08Z"/><path class="cls-11" d="M114.55,83l-1.91.22S114,84.29,114.55,83Z"/><path class="cls-20" d="M118.25,83.65a23.63,23.63,0,0,1-.86,6,3.24,3.24,0,0,0,2.75-.6Z"/><path class="cls-11" d="M122.54,91.51a7.56,7.56,0,0,1-1.27.4.22.22,0,0,1-.26-.19.26.26,0,0,1,.19-.28,6.66,6.66,0,0,0,4.56-3.57.23.23,0,0,1,.3-.13.22.22,0,0,1,.12.3A7.08,7.08,0,0,1,122.54,91.51Z"/><path class="cls-16" d="M142.83,79.71a6.56,6.56,0,0,1-1.88,5c-1.66,1.55-3.68-.22-4.22-2.78-.48-2.3-.2-5.88,2-6.41S142.77,77.24,142.83,79.71Z"/><path class="cls-11" d="M124.71,76.82a.41.41,0,0,1-.34-.07,3.46,3.46,0,0,0-3.22-.59.42.42,0,0,1-.57-.26.51.51,0,0,1,.29-.62,4.26,4.26,0,0,1,4.07.69.47.47,0,0,1,.07.66A.49.49,0,0,1,124.71,76.82Z"/><path class="cls-11" d="M111.45,81.54a.45.45,0,0,1-.34,0,.48.48,0,0,1-.26-.61,4.91,4.91,0,0,1,3.06-3.11.42.42,0,0,1,.54.34.5.5,0,0,1-.35.58,3.94,3.94,0,0,0-2.4,2.49A.55.55,0,0,1,111.45,81.54Z"/><path class="cls-11" d="M123.78,80.14l-1.91.22S123.26,81.4,123.78,80.14Z"/><path class="cls-16" d="M153.79,127.27c0,.53,0,.78,0,1.14l0,1c0,.64-.09,1.27-.16,1.89A36.2,36.2,0,0,1,153,135a35,35,0,0,1-2.37,7.28,28.78,28.78,0,0,1-4.22,6.76,24.75,24.75,0,0,1-6.2,5.37l-.36.22a3.63,3.63,0,0,1-1,.42,9.4,9.4,0,0,1-5.2,0,15.67,15.67,0,0,1-3.24-1.33,27.21,27.21,0,0,1-4.66-3.27,43.4,43.4,0,0,1-3.76-3.65,42.06,42.06,0,0,1-3.27-4,3,3,0,0,1,4-4.36l.11.07,4,2.34c1.33.77,2.66,1.51,4,2.16a25.09,25.09,0,0,0,3.71,1.57,4.64,4.64,0,0,0,1.33.25c.29,0,.27-.18-.42,0l-1.31.64a16.63,16.63,0,0,0,4.46-5.51,18.39,18.39,0,0,0,1.05-2.29,29.93,29.93,0,0,0,1.45-5.06c.18-.87.31-1.77.43-2.66.05-.44.1-.89.14-1.32l.08-1.12,0-.52a6,6,0,0,1,12,.34Z"/><path class="cls-8" d="M116.33,147.63H94.67a4.39,4.39,0,0,1-4.28-3.15l-2.65-13.75c-.34-1.73,1-3.15,3.06-3.15h21.65a4.37,4.37,0,0,1,4.28,3.15l2.66,13.75C119.72,146.21,118.35,147.63,116.33,147.63Z"/><path class="cls-4" d="M115.66,146.73h-21a3.41,3.41,0,0,1-3.33-2.38L88.69,131a1.56,1.56,0,0,1,.32-1.31,2.3,2.3,0,0,1,1.83-.75h21a3.42,3.42,0,0,1,3.33,2.38l2.58,13.36a1.54,1.54,0,0,1-.31,1.32A2.35,2.35,0,0,1,115.66,146.73ZM90.84,129.18a2.08,2.08,0,0,0-1.64.66,1.29,1.29,0,0,0-.26,1.1l2.58,13.36a3.16,3.16,0,0,0,3.09,2.18h21a2.08,2.08,0,0,0,1.63-.65,1.29,1.29,0,0,0,.27-1.11L115,131.36a3.16,3.16,0,0,0-3.08-2.18Z"/><path class="cls-16" d="M116.79,134.52l-2.54-.63a2.4,2.4,0,0,0-2.93,1.8l-.66,2.88a2.42,2.42,0,0,0,1.44,2.77l3.22,1.31s5.39,3.34,7.63.76l1-4.12-4-3.24A8.15,8.15,0,0,0,116.79,134.52Z"/><path class="cls-11" d="M148.1,106.2c8.77.52,11.47,9.67,8.55,26.32-1.42,6.25-18.94-2.3-18.94-2.3S137.1,112.44,148.1,106.2Z"/></g><g id="Plant"><path class="cls-8" d="M395.88,283.9c-3.19-20,5.55-46.23,16.63-44.3C421.69,241.2,397.78,277.79,395.88,283.9Z"/><path class="cls-11" d="M392.39,294.11c10.42-14.81,4-45.26-7-46S391.49,286.65,392.39,294.11Z"/><path class="cls-8" d="M392.91,302.77c-1.19-32,18.3-48.09,27-44.27C428.86,262.42,399.72,285.06,392.91,302.77Z"/><path class="cls-8" d="M390.29,322.71c10.42-22.53,1.49-57.75-15.08-53.94C361.47,271.93,387.83,313.22,390.29,322.71Z"/><path class="cls-11" d="M391,329.41c-1.15-21.6-7.7-49.15-21.16-46.6C357,285.25,387,310.55,391,329.41Z"/><path class="cls-8" d="M387.7,340c3.28-31.87,30.58-49.67,30.3-37.6C417.71,315.35,396.87,323.76,387.7,340Z"/><path class="cls-8" d="M390.35,333.27c3.83-11.4-5.17-26.88-14.62-23.58C367.9,312.43,387.89,329.1,390.35,333.27Z"/><path class="cls-11" d="M390.6,329c-4.12-24.45,16.94-66.51,35.94-57.47C445,280.33,399.6,300.93,390.6,329Z"/><path class="cls-8" d="M400,365.89H381.8a7.42,7.42,0,0,1-7.1-5.23,65.65,65.65,0,0,1-3.22-22.55,42.19,42.19,0,0,1,1-7.17,2.12,2.12,0,0,1,2.06-1.66h32.77a2.1,2.1,0,0,1,2.05,1.66,42.19,42.19,0,0,1,1,7.17,65.88,65.88,0,0,1-3.21,22.55A7.43,7.43,0,0,1,400,365.89Z"/><path class="cls-21" d="M410.3,338.11H371.48a42.19,42.19,0,0,1,1-7.17,2.12,2.12,0,0,1,2.06-1.66h32.77a2.1,2.1,0,0,1,2.05,1.66A42.19,42.19,0,0,1,410.3,338.11Z"/></g></svg>