<svg xmlns="http://www.w3.org/2000/svg" viewBox="0 0 2780.81 1492"><defs><style>.cls-1{fill:#f6f5f5;}.cls-2{fill:#dadada;}.cls-3{fill:#fff;}.cls-4{fill:#86a7ff;}.cls-5{fill:#d3dfff;}.cls-13,.cls-6{fill:#1f3c88;}.cls-6{opacity:0.2;}.cls-7{fill:#3a6bea;}.cls-8{fill:#102048;}.cls-9{fill:#e28b6d;}.cls-10{fill:#f9b384;}.cls-11{fill:#fbc343;}.cls-12{fill:#e49b31;}</style></defs><g id="OBJECTS"><path class="cls-1" d="M2659.22,1254.43c-33.85-183.39-192.56-347.57-379-351.18-69.26-1.34-142.33,17.54-205.55-10.76-46.76-20.93-79.22-64.18-120.84-94-63.51-45.55-146.18-57.7-223.89-49.44s-152.07,35.16-225.52,61.86c-113-132.56-289.78-208.1-463.68-198.15s-340.9,105.18-438,249.77c-193.27-2.41-376.78,150.48-409.31,341-16.68,97.76,7.49,199.31,59.64,283.42H2638.48C2664.71,1410.42,2672.61,1327,2659.22,1254.43Z"/><path class="cls-2" d="M2443.15,1488.81l-2.16-3.76c43.7-25.2,83.74-63.14,119-112.77,33.41-47,61.22-103.42,80.42-163.15,38.19-118.83,51.66-245.52,64.48-368.18-102,31.16-198.06,112.95-263.89,224.89C2374.45,1179,2339.63,1321.6,2345.48,1457l-4.34.19c-5.88-136.2,29.16-279.64,96.14-393.54s165.28-197,269.51-227.78l3.11-.92-.34,3.23c-12.95,123.88-26.33,252-65,372.29-19.34,60.14-47.35,117-81,164.34C2527.91,1424.94,2487.4,1463.3,2443.15,1488.81Z"/><path class="cls-2" d="M2355.57,1464l-4.32-.37c3.93-45.62,18.17-91.46,43.55-140.13,24.49-47,56.06-89.89,80.83-122,6-7.83,12.24-15.8,18.24-23.5,52.45-67.33,106.68-137,132.07-221.85l4.15,1.25c-25.62,85.67-80.1,155.62-132.8,223.27-6,7.7-12.19,15.66-18.22,23.48-24.67,32-56.09,74.7-80.43,121.38C2373.54,1373.66,2359.45,1419,2355.57,1464Z"/><path class="cls-2" d="M2470.28,1239.93a132.58,132.58,0,0,1-17.85-1.19l.58-4.3c25.93,3.49,53.33-1,79.24-13a177.92,177.92,0,0,0,67-54.79l3.47,2.6a182.09,182.09,0,0,1-68.66,56.12A152,152,0,0,1,2470.28,1239.93Z"/><path class="cls-2" d="M2513,1154.44c-14.2-50-4.46-110,24.82-153l3.58,2.44c-28.58,42-38.09,100.56-24.22,149.32Z"/><path class="cls-2" d="M2591.39,1489.35l-1.53-4.06c49.17-18.57,93.47-56.53,124.75-106.88,26.54-42.73,44.51-94.88,53.42-155.05-54.53,2.44-109.06,24.41-150,60.49l-2.87-3.25c42.31-37.31,98.92-59.79,155.3-61.68l2.59-.09-.37,2.56c-8.86,61.86-27.17,115.46-54.41,159.31C2686.52,1431.86,2641.45,1470.44,2591.39,1489.35Z"/><path class="cls-2" d="M2459.53,1477.86l-1.84-3.92A858.23,858.23,0,0,0,2720,1282l3.19,3A862.58,862.58,0,0,1,2459.53,1477.86Z"/><path class="cls-2" d="M2080.82,1492c-38-14.27-72.65-40.91-100.16-77-25.32-33.25-44.22-73.66-54.65-116.87-20.65-85.49-10.87-176.68-.09-255.43l.48-3.53,2.91,2c69.26,48.53,140.86,98.71,192.8,167.93,57.84,77.08,78.39,167.7,55,242.4l-4.14-1.29c23-73.38,2.72-162.54-54.29-238.51-50.79-67.7-120.84-117.23-188.9-164.93-10.54,77.55-19.68,166.81.49,250.3,10.29,42.63,28.92,82.49,53.89,115.26,27,35.48,61,61.62,98.23,75.61Z"/><rect class="cls-2" x="2052.84" y="1102.63" width="4.34" height="377.68" transform="translate(-359.45 1043.8) rotate(-26.29)"/><path class="cls-2" d="M2060.4,1316a136.22,136.22,0,0,1-114.79-65.13l3.73-2.22a131.71,131.71,0,0,0,113.82,63l.1,4.34Z"/><path class="cls-2" d="M433.77,1485.81c-49.4-10.15-95.58-34.72-137.25-73-37.48-34.45-69.61-79-92.93-128.71-45.18-96.41-59-203.15-72.27-306.38l-.46-3.57,3.37,1.26c128.6,48.13,218.48,103.5,282.84,174.25,82.26,90.44,117.07,209.13,90.84,309.78l-4.19-1.09c25.86-99.25-8.57-216.41-89.86-305.77-63.32-69.61-151.64-124.26-277.78-171.84,13.14,101.79,27.07,206.84,71.44,301.51,23.08,49.25,54.87,93.29,91.94,127.37,41.08,37.77,86.56,62,135.18,72Z"/><path class="cls-2" d="M478.79,1460.51a1244,1244,0,0,0-125.56-197,1244.56,1244.56,0,0,0-160.15-170l2.86-3.26A1248.5,1248.5,0,0,1,356.65,1260.9a1247.63,1247.63,0,0,1,126,197.63Z"/><path class="cls-2" d="M326,1239.49a1141.83,1141.83,0,0,1-122-50.77l1.89-3.9a1138.22,1138.22,0,0,0,121.59,50.58Z"/><rect class="cls-2" x="351.64" y="1260.84" width="96.86" height="4.34" transform="translate(-896.66 1534.62) rotate(-84.25)"/><path class="cls-2" d="M258,1484.64c-25.42,0-51.6-7.57-76.13-22.05-24.32-14.36-46.41-35-63.87-59.63-13.93-19.67-29-55-44.9-104.94-11.78-37.13-19.59-68.93-19.67-69.24l-.82-3.33,3.36.69c4.51.92,110.93,23,149,57.19l-2.9,3.23c-15.34-13.76-45.58-27.83-87.46-40.69-25.27-7.76-47.82-12.94-56.13-14.76,5.19,20.38,33.4,127.49,63.05,169.34,17.11,24.15,38.74,44.35,62.54,58.41,25.87,15.27,53.59,22.63,80.16,21.28l.22,4.33Q261.25,1484.63,258,1484.64Z"/><path class="cls-2" d="M243.8,1430.17a991.11,991.11,0,0,0-147.22-163l2.87-3.25a996,996,0,0,1,147.88,163.73Z"/><path class="cls-2" d="M791.45,1490.74l-2.83-3.29a345.48,345.48,0,0,0,92.56-396.81c-37,6.51-72.8,25.08-103.78,53.75-29,26.84-53,61.53-69.41,100.33-31,73.26-36.92,155.36-40.66,240.07l-4.33-.19c3.76-85.12,9.72-167.64,41-241.57,16.65-39.36,41-74.57,70.45-101.82,32.07-29.69,69.31-48.76,107.69-55.14l1.68-.28.67,1.56a349.8,349.8,0,0,1-93,403.39Z"/><path class="cls-2" d="M723.65,1475.4l-4.12-1.33a1143.75,1143.75,0,0,1,127.11-268.61l3.65,2.35A1139.65,1139.65,0,0,0,723.65,1475.4Z"/><path class="cls-2" d="M787.61,1313.12l-2.47-3.57A229.66,229.66,0,0,1,877,1272.11l.72,4.27A225.56,225.56,0,0,0,787.61,1313.12Z"/><path class="cls-2" d="M1795,1354.62a18.44,18.44,0,1,1,18.44-18.44A18.46,18.46,0,0,1,1795,1354.62Zm0-32.54a14.1,14.1,0,1,0,14.1,14.1A14.12,14.12,0,0,0,1795,1322.08Z"/><path class="cls-2" d="M2521.6,825.35A18.44,18.44,0,1,1,2540,806.91,18.46,18.46,0,0,1,2521.6,825.35Zm0-32.54a14.1,14.1,0,1,0,14.1,14.1A14.12,14.12,0,0,0,2521.6,792.81Z"/><circle class="cls-2" cx="2764.55" cy="1100.83" r="16.27"/><circle class="cls-2" cx="158.35" cy="797.15" r="16.27"/><path class="cls-2" d="M18.44,1098.66a18.44,18.44,0,1,1,18.44-18.44A18.46,18.46,0,0,1,18.44,1098.66Zm0-32.54a14.1,14.1,0,1,0,14.1,14.1A14.12,14.12,0,0,0,18.44,1066.12Z"/><path class="cls-2" d="M1021.66,1312.32a18.44,18.44,0,1,1,18.43-18.44A18.46,18.46,0,0,1,1021.66,1312.32Zm0-32.54a14.1,14.1,0,1,0,14.1,14.1A14.12,14.12,0,0,0,1021.66,1279.78Z"/><path class="cls-3" d="M342.36,318.5c0-35.14-48.56-63.63-108.46-63.63S125.45,283.36,125.45,318.5,174,382.13,233.9,382.13a178.08,178.08,0,0,0,37.23-3.85c8.11,9.76,22.16,18.48,45.84,23.51a194.82,194.82,0,0,1-14-34.23C327,355.89,342.36,338.25,342.36,318.5Z"/><path class="cls-4" d="M323.21,406.44,316.29,405c-21-4.46-36.56-12.23-46.37-23.13a181.91,181.91,0,0,1-36,3.53c-29.54,0-57.36-6.78-78.33-19.08-21.52-12.63-33.38-29.6-33.38-47.8s11.86-35.17,33.38-47.8c21-12.3,48.79-19.08,78.33-19.08s57.36,6.78,78.34,19.08c21.52,12.63,33.37,29.6,33.37,47.8,0,19.68-14.08,38.07-38.74,50.75a195.46,195.46,0,0,0,13,31Zm-50.84-31.76,1.26,1.52c7.76,9.33,20.28,16.32,37.28,20.81a193,193,0,0,1-11.07-28.54l-.77-2.64,2.47-1.19c23.87-11.58,37.57-28.4,37.57-46.14,0-33.29-47.2-60.37-105.21-60.37S128.7,285.21,128.7,318.5s47.2,60.37,105.2,60.37a175.09,175.09,0,0,0,36.55-3.77Z"/><rect class="cls-4" x="171.36" y="302.59" width="123.64" height="4.34"/><rect class="cls-4" x="171.36" y="326.45" width="91.1" height="4.34"/><path class="cls-3" d="M2407,244.75c0-35.14,48.56-63.63,108.46-63.63s108.45,28.49,108.45,63.63-48.55,63.63-108.45,63.63a178.08,178.08,0,0,1-37.23-3.85c-8.11,9.76-22.16,18.48-45.84,23.51a193.94,193.94,0,0,0,14-34.23C2422.34,282.14,2407,264.5,2407,244.75Z"/><path class="cls-4" d="M2426.15,332.69l3.38-6.2a195,195,0,0,0,13-31c-24.67-12.68-38.75-31.07-38.75-50.75,0-18.2,11.85-35.17,33.37-47.8,21-12.3,48.8-19.08,78.34-19.08s57.36,6.78,78.33,19.08c21.53,12.63,33.38,29.6,33.38,47.8s-11.85,35.17-33.38,47.8c-21,12.3-48.79,19.08-78.33,19.08a182,182,0,0,1-36-3.53c-9.81,10.9-25.39,18.67-46.37,23.13Zm89.31-148.31c-58,0-105.2,27.08-105.2,60.37,0,17.74,13.69,34.56,37.56,46.14l2.47,1.19-.76,2.64a192.87,192.87,0,0,1-11.08,28.54c17-4.49,29.52-11.48,37.28-20.81l1.26-1.52,1.92.42a175.16,175.16,0,0,0,36.55,3.77c58,0,105.2-27.08,105.2-60.37S2573.47,184.38,2515.46,184.38Z"/><rect class="cls-4" x="2454.36" y="228.84" width="123.64" height="4.34"/><rect class="cls-4" x="2454.36" y="252.7" width="91.1" height="4.34"/><rect class="cls-5" x="1193.05" y="1061.79" width="377.43" height="425.15"/><path class="cls-4" d="M1573.73,1490.19H1189.79V1058.53h383.94Zm-377.43-6.51h370.92V1065H1196.3Z"/><rect class="cls-6" x="1193.05" y="1061.79" width="377.43" height="181.18"/><circle class="cls-3" cx="1381.76" cy="1201.33" r="100.5" transform="translate(-444.76 1328.91) rotate(-45)"/><rect class="cls-5" x="569.09" y="3.25" width="1625.33" height="1174.49" rx="33.34"/><path class="cls-4" d="M2158.27,1181h-1553a39.46,39.46,0,0,1-39.41-39.41V39.41A39.46,39.46,0,0,1,605.25,0h1553a39.46,39.46,0,0,1,39.41,39.41V1141.59A39.46,39.46,0,0,1,2158.27,1181ZM605.25,6.51a32.94,32.94,0,0,0-32.9,32.9V1141.59a32.93,32.93,0,0,0,32.9,32.9h1553a32.93,32.93,0,0,0,32.9-32.9V39.41a32.93,32.93,0,0,0-32.9-32.9Z"/><rect class="cls-3" x="598.6" y="44.67" width="1566.32" height="964.51"/><path class="cls-4" d="M2168.18,1012.44H595.35v-971H2168.18Zm-1566.33-6.51H2161.67v-958H601.85Z"/><rect class="cls-5" x="1190.75" y="129.08" width="354.28" height="41.41"/><rect class="cls-5" x="908.57" y="210.93" width="918.62" height="15.49"/><rect class="cls-4" x="1649.48" y="674.44" width="354.43" height="15.49"/><rect class="cls-4" x="1649.48" y="712.93" width="305.19" height="15.49"/><rect class="cls-4" x="1649.48" y="751.42" width="192.5" height="15.49"/><rect class="cls-5" x="1649.48" y="823.06" width="311.74" height="15.49"/><rect class="cls-5" x="1649.48" y="861.55" width="268.44" height="15.49"/><rect class="cls-5" x="732.94" y="636.46" width="150.44" height="235.81"/><rect class="cls-4" x="921.57" y="636.09" width="169.11" height="77.89"/><rect class="cls-5" x="921.57" y="751.94" width="169.11" height="120.65"/><path class="cls-4" d="M1524.45,874.29H1211.32a24.22,24.22,0,0,1-24.19-24.19V692.82a24.22,24.22,0,0,1,24.19-24.19h313.13a24.22,24.22,0,0,1,24.19,24.19V850.1A24.22,24.22,0,0,1,1524.45,874.29ZM1211.32,672.42a20.43,20.43,0,0,0-20.41,20.4V850.1a20.44,20.44,0,0,0,20.41,20.41h313.13a20.44,20.44,0,0,0,20.41-20.41V692.82a20.43,20.43,0,0,0-20.41-20.4Z"/><polygon class="cls-7" points="1224.76 830.69 1221.37 828.99 1242.76 786.21 1269.2 813.9 1300.68 745.91 1342.9 785.57 1389.34 739.12 1434.74 766.86 1492.99 706.13 1495.72 708.75 1435.36 771.68 1389.91 743.9 1342.98 790.84 1301.91 752.26 1270.3 820.54 1243.74 792.72 1224.76 830.69"/><rect class="cls-4" x="1383.95" y="821.95" width="35.96" height="18.93"/><rect class="cls-7" x="1443.57" y="829.52" width="62.46" height="3.79"/><path class="cls-5" d="M1509.05,415.63A146.45,146.45,0,0,0,1414.39,315l-46.5,138.57Z"/><path class="cls-4" d="M1367.89,453.61,1303.18,584.7a146.21,146.21,0,0,0,205.87-169.07Z"/><path class="cls-7" d="M1414.39,315A146.18,146.18,0,0,0,1303.18,584.7l64.71-131.09Z"/><rect class="cls-5" x="808.86" y="556.26" width="205.9" height="15.49"/><path class="cls-4" d="M1092.57,522.35H731.05v-209h361.52Zm-357.74-3.79h353.95V317.14H734.83Z"/><path class="cls-5" d="M1066.08,359c-12-2.41-23.88,5.4-31.47,15a122.6,122.6,0,0,0-9.49,14.61A152.89,152.89,0,0,1,1014.78,405c-7.44,9.75-19,17.9-31.09,16.06-19.61-3-30.34-29.92-50.18-29.57-9.27.16-17.21,6.57-23.52,13.38s-12.08,14.55-20.3,18.85c-11.48,6-25.66,4.06-37.57-1.05s-22.36-13.09-33.68-19.41a135.17,135.17,0,0,0-62.21-16.75V488.73h311.15V359.32C1067,359.2,1066.53,359.07,1066.08,359Z"/><path class="cls-4" d="M852.12,422.65c11.91,5.11,26.09,7.06,37.57,1.05,8.22-4.3,14-12,20.3-18.85s14.25-13.22,23.52-13.38c19.84-.35,30.57,26.58,50.18,29.57,12.1,1.84,23.65-6.31,31.09-16.06a152.89,152.89,0,0,0,10.34-16.36c-12.06.56-24.11,1.15-34.55-4.42s-17.2-16.35-27.56-21.95c-18.59-10.05-41.32-.46-59.84,9.72-11.07,6.09-23.42,12.63-35.68,9.62-13.87-3.39-22-17.52-33.55-25.95-22.12-16.13-55.34-8.3-74.24,11.53l0,0a12.32,12.32,0,0,0-3.43,8.54v10.74a135.17,135.17,0,0,1,62.21,16.75C829.76,409.56,840.21,417.53,852.12,422.65Z"/><path class="cls-4" d="M2005.71,606H1643.64v-293h362.07ZM1648,601.71h353.4V317.41H1648Z"/><rect class="cls-4" x="1703.53" y="435.12" width="37.86" height="127.45"/><rect class="cls-5" x="1703.53" y="370.77" width="37.86" height="64.35"/><rect class="cls-5" x="1771.67" y="370.77" width="37.86" height="95.58"/><rect class="cls-4" x="1771.67" y="466.35" width="37.86" height="96.22"/><rect class="cls-4" x="1839.81" y="412.88" width="37.86" height="149.69"/><rect class="cls-5" x="1839.81" y="370.77" width="37.86" height="42.11"/><rect class="cls-4" x="1907.95" y="468.72" width="37.86" height="93.85"/><rect class="cls-5" x="1907.95" y="370.77" width="37.86" height="97.95"/><polygon class="cls-8" points="636.27 1486.93 565.42 1413.18 565.57 1358.77 479.5 1361.33 486.61 1486.93 636.27 1486.93"/><polygon class="cls-9" points="566.14 1154.33 468.53 1167.35 472.38 1235.43 565.92 1233.16 566.14 1154.33"/><polygon class="cls-10" points="565.92 1233.16 472.38 1235.43 479.5 1361.33 565.57 1358.77 565.92 1233.16"/><rect class="cls-3" x="526.6" y="1417.52" width="40.75" height="8.68" transform="translate(-553.36 368.24) rotate(-25.2)"/><polygon class="cls-9" points="772.21 1131.92 678.21 1128.31 665.87 1200.23 755.91 1213.38 772.21 1131.92"/><path class="cls-8" d="M793.17,1413.91l-57.84-97.61,7.48-37.4c-25.5-5.85-64.88-14.84-87-19.79l-19.49,113.58Z"/><path class="cls-10" d="M755.91,1213.38l-90-13.15-10.11,58.88c22.17,5,61.55,13.94,87,19.79Z"/><rect class="cls-3" x="697.81" y="1318.1" width="38.53" height="8.68" transform="translate(-384.47 297.92) rotate(-18.61)"/><path class="cls-11" d="M835.11,1142.78s-39,49.15-111.36,33.23-59.26,26-99.78,34.71-153.27-62.17-190.88,4.34c0,0-22.39-251.84-12.19-411.23,2.77-43,7.89-79.34,16.53-102.12l173.05-2.38,38.09-.53s.13.83.43,2.48c.65,3.42,2,10.41,4.12,20.39C667.27,787.3,716.89,982,835.11,1142.78Z"/><path class="cls-12" d="M653.12,721.67c-38.69,25.55-119.39,69.45-232.22,82.16,2.77-43,7.89-79.34,16.53-102.12l173.05-2.38L649,701.28C649.65,704.7,651,711.69,653.12,721.67Z"/><rect class="cls-3" x="314.16" y="739.67" width="147.5" height="197.39" transform="matrix(-0.28, 0.96, -0.96, -0.28, 1301.74, 703.32)"/><path class="cls-4" d="M463.19,939.7l-193.49-57L312.63,737l193.49,57Zm-188.1-60,185.17,54.58L500.74,797,315.56,742.41Z"/><rect class="cls-4" x="440.23" y="825.87" width="43.92" height="4.34" transform="translate(-462.73 1037.28) rotate(-73.58)"/><rect class="cls-4" x="374.57" y="847.85" width="105.74" height="4.34" transform="translate(-508.74 1019.71) rotate(-73.58)"/><rect class="cls-4" x="348.56" y="840.18" width="105.74" height="4.34" transform="translate(-520.04 989.29) rotate(-73.58)"/><rect class="cls-4" x="322.55" y="832.52" width="105.74" height="4.34" transform="translate(-531.35 958.82) rotate(-73.58)"/><rect class="cls-4" x="312.55" y="812.89" width="80.8" height="4.34" transform="translate(-528.64 923.2) rotate(-73.58)"/><path class="cls-10" d="M758,442.86s5.34-51.55,10.16-50.68,4.28,13.47,4.28,13.47,11.25-28.75,16.48-28.72-.12,11.75-.12,11.75,5.82-11.75,10.15-10.84.78,10.88.78,10.88,4.54-9.64,8.93-7.93,1.64,9.6,1.64,9.6,2.4-6.24,6.5-2.08-16.93,64.52-16.93,64.52l-29.64,8.46Z"/><path class="cls-7" d="M800,453S774.17,559.33,709,590.39a85.82,85.82,0,0,1-52.45,7.2l-11.67-20.78L568.32,440.68l26.73-9.37s60,22.38,92.58,72.27c0,0,30.36-2.86,70.84-63.6Z"/><path class="cls-8" d="M709,590.39a85.82,85.82,0,0,1-52.45,7.2l-11.67-20.78,3-50.8S692.09,551.13,709,590.39Z"/><path class="cls-10" d="M439.61,795.53s-5.85,50.05-11,49.21-4.5-13.45-4.5-13.45-12.12,28.8-17.69,28.8.18-11.76.18-11.76-6.25,11.78-10.86,10.9-.78-10.88-.78-10.88-4.88,9.66-9.55,8-1.7-9.6-1.7-9.6-2.59,6.26-6.93,2.11,18.33-64.62,18.33-64.62l31.6-8.6Z"/><path class="cls-7" d="M543.36,432.38C415,447.92,377.25,625.79,391.89,792.81l47.72,2.9s7.95-163.41,73.75-241.5l54.95-113.52Z"/><path class="cls-7" d="M568.31,440.69l88.93,60s24.59,115,23.14,216.91c0,0-172.08,63.63-257.4-2.89l67.24-218.36Z"/><path class="cls-8" d="M619.36,336.76c8.24-28.74-20.68-62.37-76-33.81,0,0-54.95,9.4-45.19,104.84L556,410Z"/><path class="cls-8" d="M554.93,301c7.56-30.37-25.43-35.23-30.93-16.61-.73,2.49-16.81-6.38-21.31,8.1-5.16,16.61,12.76,27.65,33,23.49Z"/><polygon class="cls-10" points="595.05 374.17 595.05 431.31 570.1 466.36 543.38 432.39 544.81 373.09 595.05 374.17"/><path class="cls-8" d="M595.05,393.7v36.65c-17.88-7.76-25.55-31.23-25.55-31.23Z"/><path class="cls-10" d="M619.36,336.76s17.77,93.81-49.85,62.36L547.3,373.63l13.82-51.52,35.54-8.67Z"/><path class="cls-8" d="M619.36,336.76s-14.18-22.06-31.89-11.39-16.81,48.08-35.25,38.68-7.77-38.32-7.77-38.32l27.11-20.61,30.37,3.44Z"/><path class="cls-10" d="M558.64,361.07c4,7,2.34,15.55-3.8,19.1s-14.39.74-18.43-6.27-2.35-15.55,3.79-19.09S554.59,354.07,558.64,361.07Z"/><circle class="cls-8" cx="570.48" cy="497.09" r="8.68"/><path class="cls-8" d="M446.8,729.24l-4.26-.83c.06-.32,6.38-32.51,17-68.53,14.32-48.58,29.24-80.64,44.36-95.3l3,3.12C472,601.54,447.05,728,446.8,729.24Z"/><path class="cls-8" d="M430.72,626.8c-8-6-26.63-5.35-26.82-5.35l-.16-4.33c.83,0,20.39-.68,29.58,6.21Z"/><polygon class="cls-8" points="2313.01 1354.62 2311.56 1437.04 2292.76 1486.93 2394.71 1486.93 2388.93 1352.45 2313.01 1354.62"/><polygon class="cls-8" points="2162.97 1363.29 2162.97 1431.62 2082.72 1486.93 2244.32 1486.93 2234.56 1355.7 2162.97 1363.29"/><rect class="cls-3" x="2170.75" y="1425.62" width="8.68" height="30.44" transform="translate(-288.82 2298.85) rotate(-52.72)"/><path class="cls-7" d="M2298.53,693l-.43,1.65-14.41,56.79-31.4,123.77a586.36,586.36,0,0,0-10.11,63.34c-15.32,140.86,4.47,320.9,14.75,398.55a34,34,0,0,1-33.75,38.44H2166a34.2,34.2,0,0,1-30.8-19.44c-72.84-152.53-61-380.33-46.38-436.08,23.13-88.19,39-219.77,39-219.77l48.54-2.08Z"/><path class="cls-7" d="M2407.9,1335.75a36.14,36.14,0,0,1-36.1,35.27h-48.93a36,36,0,0,1-35.75-31.37c-9.33-71.15-32.06-250.4-44.94-401.07-6.73-79-10.72-150.19-8.64-193.75.74-16.53,2.39-29.06,5.12-36.57l59.44-13.58,60.52-13.79s15,16,28.8,101.25C2401.78,871.08,2414.75,1035.45,2407.9,1335.75Z"/><path class="cls-8" d="M2236,1059c-2.69-55.56-1-102.93,5.22-144.82a53.91,53.91,0,0,1,20-34.35l40.66-32.32,2.7,3.4-40.66,32.32a49.56,49.56,0,0,0-18.42,31.59c-6.16,41.6-7.85,88.7-5.18,144Z"/><path class="cls-8" d="M2114.08,1077l-.54-4.3c27.24-3.38,50.59-3.86,71.38-1.45l-.5,4.31C2164,1073.14,2141,1073.62,2114.08,1077Z"/><path class="cls-8" d="M2309.3,1066.83l-.54-4.3c27.25-3.39,50.59-3.86,71.38-1.45l-.5,4.31C2359.2,1063,2336.19,1063.49,2309.3,1066.83Z"/><path class="cls-8" d="M2189.51,1324c-37.11,0-64.59-6.61-65-6.71l1-4.22c.64.16,63.77,15.31,127.6-.85l1.06,4.21C2231.67,1322.16,2209.23,1324,2189.51,1324Z"/><path class="cls-8" d="M2342.35,1324.28c-5.86,0-11.41-.18-16.47-.44a341.1,341.1,0,0,1-42.44-4.82l.83-4.26c.71.14,72.09,13.73,119.6-3.84l1.51,4.07C2385.7,1322.27,2362.24,1324.28,2342.35,1324.28Z"/><path class="cls-13" d="M2387.42,782.14c-27.63-14.75-65.77-24.38-103.73-30.67-17-2.86-34.09-5-50.15-6.64-50.8-5.16-91.53-5.16-91.53-5.16l34.44-41.47L2298.53,693l-.43,1.65,60.52-13.79S2373.63,696.9,2387.42,782.14Z"/><rect class="cls-9" x="2173.46" y="366.54" width="50.19" height="83.77"/><path class="cls-8" d="M2197,401.37a60.71,60.71,0,0,1-23.51,30.76V395.56Z"/><path class="cls-9" d="M2147.58,323.79l-3.53,35.26s-16.42,22-6.17,22c11,0,9.25,4.4,9.25,4.4s-6.17,45.84,49.81,15.87l11.9-68.76Z"/><path class="cls-8" d="M2147.58,323.79s15.2-2,19.17,14.1,9.25,26,22.7,14.77l14.76-24.24-25.34-10.58Z"/><path class="cls-8" d="M2147.58,323.79c0-11.46,13.58-38.79,56.41-31.52,40.94,7,47.38,64.35,26.23,90.58,0,0-10.8,17-25.35-14.1l-24.9-33.5-5.29-10.58Z"/><path class="cls-9" d="M2207.13,366.65c-4.05,7-12.28,9.83-18.4,6.3s-7.79-12.07-3.74-19.08,12.28-9.83,18.4-6.3S2211.18,359.64,2207.13,366.65Z"/><path class="cls-12" d="M2302.16,432c96.17,31.09,172.08,161.23,83.15,163.4s-143.16-80.25-143.16-80.25Z"/><path class="cls-9" d="M1876.64,531.29s-47.51-20.71-49.12-16.09,9.62,10.35,9.62,10.35-30.57-4.35-33.11.22,10.29,5.69,10.29,5.69-13.09-.73-14.44,3.49,9.09,6,9.09,6-10.62-.79-11.3,3.88,7.56,6.15,7.56,6.15-6.62-1-5,4.63,64.5,17,64.5,17L1886.66,551Z"/><path class="cls-11" d="M2351.55,722.27l-214.7,23.43A30,30,0,0,1,2103.66,715l2.69-88.59,1.26-40.82,0-1a60,60,0,0,1-4.69,4.77s0,0-.08.09c-2,1.86-4.73,4.16-8.07,6.68-28.5,21.52-104.51,58.48-230.1-23.47l11.93-41.35,135.57,5.56S2073,487.75,2127,454c35.27-22,76.1-34.23,117.66-33.14,18.78.47,38.95,3.47,57.57,11.1,45.76,18.92,68.45,187.76,75.92,257.3A29.92,29.92,0,0,1,2351.55,722.27Z"/><path class="cls-12" d="M1997.24,576.76c-3.93-26.94,12.89-41,13.61-41.58l2.75,3.36a35.41,35.41,0,0,0-7.42,9.57c-4.57,8.36-6.14,17.78-4.65,28Z"/><path class="cls-12" d="M2126.82,569.39s-1.34,35-20.47,57l1.26-40.82C2114.76,579.76,2123,573,2126.82,569.39Z"/><path class="cls-12" d="M2063.26,616l-.85-4.26c31.4-6.27,73.68-58.88,74.11-59.41l3.39,2.7a327.28,327.28,0,0,1-25.68,27.87C2094.32,602.07,2077.17,613.21,2063.26,616Z"/></g></svg>