<svg id="Camada_1" data-name="Camada 1" xmlns="http://www.w3.org/2000/svg" xmlns:xlink="http://www.w3.org/1999/xlink" viewBox="0 0 582.59 400.77"><defs><style>.cls-1,.cls-11,.cls-21,.cls-27,.cls-28,.cls-31,.cls-4,.cls-9{fill:none;}.cls-2{fill:#e3cdc9;}.cls-3{fill:#8155ff;}.cls-11,.cls-21,.cls-28,.cls-4{stroke:#fff;}.cls-11,.cls-4,.cls-9{stroke-miterlimit:10;}.cls-4{stroke-width:0.62px;}.cls-5{fill:#fdb9b9;}.cls-6{fill:#fff;}.cls-7{fill:#2b4183;}.cls-8{fill:#ffcb2d;}.cls-9{stroke:#f0e0df;stroke-width:2.21px;}.cls-10{fill:#f88aa0;}.cls-11{stroke-width:2.02px;}.cls-12{fill:#ffa80a;}.cls-13{fill:#f67b91;}.cls-14{fill:#f6f6f6;}.cls-15{opacity:0.71;}.cls-16{clip-path:url(#clip-path);}.cls-17{fill:#8054ff;}.cls-18{fill:#7041fd;}.cls-19{fill:#fa849b;}.cls-20{fill:#181f42;}.cls-21,.cls-27,.cls-28,.cls-31{stroke-linecap:round;stroke-linejoin:round;}.cls-21{stroke-width:1.5px;}.cls-22{fill:#ffcd2e;}.cls-23{fill:#f2bb19;}.cls-24{fill:#e6728c;}.cls-25{fill:#312725;}.cls-26{fill:#f8879d;}.cls-27,.cls-31{stroke:#312725;}.cls-27{stroke-width:0.6px;}.cls-28{stroke-width:1.55px;}.cls-29{fill:#243b77;}.cls-30{fill:#32292a;}.cls-31{stroke-width:0.6px;}</style><clipPath id="clip-path"><circle class="cls-1" cx="377.24" cy="307.18" r="60.09"/></clipPath></defs><path class="cls-2" d="M89.05,343.81A71,71,0,0,1,103.6,347h0l.19.07.52.18c26.41,9.42,38.53,7.65,48.92,4.47,28-8.61,44.66-45.68,90.06-38.51,19.26,3,34.76,7.18,46.84,15.6l0,0,.25.2c1.73,1.21,3.42,2.45,5,3.72,23.62,15.42,47.14-4.68,53.9-9.23.49-.36,1-3.22,1.51-3.58l.43-.32v0c29.59-20.86,76.66-42,122-36.8,78,8.91,109.34,97.33,109.34,97.33H0C9.1,359.23,45.5,338.83,89.05,343.81Z"/><rect class="cls-3" x="28" y="102.32" width="49.81" height="16.64" rx="1.94" transform="translate(105.8 221.29) rotate(180)"/><line class="cls-4" x1="37.75" y1="108.78" x2="70.38" y2="108.78"/><line class="cls-4" x1="37.75" y1="112.5" x2="47.35" y2="112.5"/><polygon class="cls-3" points="71.87 116.75 71.87 124.28 62.28 116.75 71.87 116.75"/><circle class="cls-5" cx="404.25" cy="22.05" r="22.05" transform="translate(318.17 417.65) rotate(-80.85)"/><rect class="cls-6" x="163.1" y="149.33" width="228.9" height="229.63"/><path class="cls-3" d="M392,113.21v36.12H163.1V113.21a13,13,0,0,1,13-13H379A13,13,0,0,1,392,113.21Z"/><circle class="cls-7" cx="356.53" cy="122.64" r="10.77"/><path class="cls-8" d="M356.53,126.69h0a6.17,6.17,0,0,0,6.17-6.17V92.64a6.17,6.17,0,0,0-6.17-6.17h0a6.17,6.17,0,0,0-6.17,6.17v27.88A6.17,6.17,0,0,0,356.53,126.69Z"/><circle class="cls-7" cx="280.53" cy="122.64" r="10.77"/><path class="cls-8" d="M280.53,126.69h0a6.17,6.17,0,0,0,6.17-6.17V92.64a6.17,6.17,0,0,0-6.17-6.17h0a6.17,6.17,0,0,0-6.17,6.17v27.88A6.17,6.17,0,0,0,280.53,126.69Z"/><circle class="cls-7" cx="204.53" cy="122.64" r="10.77"/><path class="cls-8" d="M204.53,126.69h0a6.17,6.17,0,0,0,6.17-6.17V92.64a6.17,6.17,0,0,0-6.17-6.17h0a6.17,6.17,0,0,0-6.17,6.17v27.88A6.17,6.17,0,0,0,204.53,126.69Z"/><rect class="cls-9" x="314.66" y="186.23" width="43.52" height="43.52" transform="translate(672.83 415.99) rotate(180)"/><rect class="cls-9" x="256.75" y="186.23" width="43.52" height="43.52" transform="translate(557.02 415.99) rotate(180)"/><rect class="cls-9" x="198.84" y="186.23" width="43.52" height="43.52" transform="translate(441.21 415.99) rotate(180)"/><rect class="cls-9" x="314.66" y="241.48" width="43.52" height="43.52" transform="translate(672.83 526.48) rotate(180)"/><rect class="cls-9" x="256.75" y="241.48" width="43.52" height="43.52" transform="translate(557.02 526.48) rotate(180)"/><rect class="cls-10" x="198.84" y="241.48" width="43.52" height="43.52" transform="translate(441.21 526.48) rotate(180)"/><line class="cls-11" x1="214.57" y1="257.02" x2="226.64" y2="269.46"/><line class="cls-11" x1="226.64" y1="257.02" x2="214.57" y2="269.46"/><rect class="cls-9" x="314.66" y="296.73" width="43.52" height="43.52" transform="translate(672.83 636.98) rotate(180)"/><rect class="cls-9" x="256.75" y="296.73" width="43.52" height="43.52" transform="translate(557.02 636.98) rotate(180)"/><rect class="cls-9" x="198.84" y="296.73" width="43.52" height="43.52" transform="translate(441.21 636.98) rotate(180)"/><rect class="cls-12" x="366.9" y="227.65" width="21.18" height="13.95"/><path class="cls-8" d="M391.34,231.27H363.63a5.71,5.71,0,0,1-5.71-5.71h0a5.72,5.72,0,0,1,5.71-5.72h27.71a5.72,5.72,0,0,1,5.71,5.72h0A5.71,5.71,0,0,1,391.34,231.27Z"/><rect class="cls-12" x="315.93" y="253.04" width="16.89" height="11.91" transform="translate(-88.13 305.22) rotate(-45)"/><path class="cls-8" d="M329.9,248.32,313.21,265a4.3,4.3,0,0,1-6.08,0h0a4.29,4.29,0,0,1,0-6.09l16.68-16.68a4.31,4.31,0,0,1,6.09,0h0A4.31,4.31,0,0,1,329.9,248.32Z"/><circle class="cls-13" cx="377.24" cy="307.18" r="71.59"/><circle class="cls-10" cx="377.24" cy="307.18" r="67.74"/><circle class="cls-14" cx="377.24" cy="307.18" r="60.09"/><g class="cls-15"><g class="cls-16"><polygon class="cls-6" points="311.5 259.64 402.57 400.77 443.72 365.38 353.61 239.06 311.5 259.64"/><polygon class="cls-6" points="360.03 225.64 451.11 366.77 456.4 349.08 366.3 222.76 360.03 225.64"/></g></g><path class="cls-17" d="M377.54,260.63a1.52,1.52,0,0,1-1.52-1.51v-3.55a1.52,1.52,0,0,1,3,0v3.55A1.52,1.52,0,0,1,377.54,260.63Z"/><path class="cls-17" d="M377.54,361a1.52,1.52,0,0,1-1.52-1.52V356a1.52,1.52,0,1,1,3,0v3.54A1.52,1.52,0,0,1,377.54,361Z"/><path class="cls-17" d="M343.3,274.81a1.51,1.51,0,0,1-1.07-.44l-2.51-2.51a1.51,1.51,0,0,1,2.14-2.14l2.5,2.51a1.51,1.51,0,0,1-1.06,2.58Z"/><path class="cls-17" d="M414.29,345.8a1.47,1.47,0,0,1-1.07-.44l-2.51-2.51a1.51,1.51,0,1,1,2.14-2.14l2.51,2.51a1.51,1.51,0,0,1-1.07,2.58Z"/><path class="cls-17" d="M340.79,345.8a1.47,1.47,0,0,1-1.07-.44,1.51,1.51,0,0,1,0-2.14l2.51-2.51a1.51,1.51,0,1,1,2.13,2.14l-2.5,2.51A1.51,1.51,0,0,1,340.79,345.8Z"/><path class="cls-17" d="M411.78,274.81a1.51,1.51,0,0,1-1.07-2.58l2.51-2.51a1.51,1.51,0,0,1,2.14,2.14l-2.51,2.51A1.55,1.55,0,0,1,411.78,274.81Z"/><path class="cls-17" d="M329.11,309.05h-3.55a1.51,1.51,0,0,1,0-3h3.55a1.51,1.51,0,0,1,0,3Z"/><path class="cls-17" d="M429.51,309.05H426a1.51,1.51,0,0,1,0-3h3.55a1.51,1.51,0,0,1,0,3Z"/><path class="cls-17" d="M381.15,307h-7.23V275.66a3.61,3.61,0,0,1,3.62-3.61h0a3.61,3.61,0,0,1,3.61,3.61Z"/><circle class="cls-7" cx="377.54" cy="306.97" r="8.28"/><path class="cls-18" d="M130.39,232.53l13.09,57.7A15.58,15.58,0,0,1,138,304.62L98.89,335.16,99.61,307l19.51-15.93L98.89,231Z"/><polygon class="cls-19" points="79.85 335.4 98.66 325.56 91.23 315.08 70.8 326.19 77.32 334.45 79.85 335.4"/><path class="cls-20" d="M75.37,321.78s3.18,11.65,12.33,11l3.53,27.76-27-34.24Z"/><rect class="cls-6" x="54.31" y="342.62" width="43.61" height="4.12" transform="translate(299.63 71.49) rotate(51.74)"/><path class="cls-21" d="M88.16,336.4a16.59,16.59,0,0,0-5.26-.53"/><path class="cls-21" d="M88.94,340.47a16.24,16.24,0,0,0-5.26-.53"/><path class="cls-21" d="M89.73,344.53a16.24,16.24,0,0,0-5.26-.53"/><polygon class="cls-19" points="96.64 369.39 98.54 348.53 85.71 347.87 83.8 370.79 94.33 370.79 96.64 369.39"/><path class="cls-20" d="M82.16,364.47s11.11,4.72,16.27-2.87l24,14.41H78.8Z"/><rect class="cls-6" x="78.8" y="376.01" width="43.61" height="4.12"/><path class="cls-21" d="M101.57,363.48a16.41,16.41,0,0,0-3.68,3.81"/><path class="cls-21" d="M105.24,365.39a16.07,16.07,0,0,0-3.67,3.8"/><path class="cls-21" d="M108.91,367.29a16.3,16.3,0,0,0-3.67,3.8"/><polygon class="cls-3" points="87.2 231.12 81.31 352.81 103.64 352.81 119.89 231.52 87.2 231.12"/><polygon class="cls-3" points="130.39 232.53 130.39 232.53 116.86 253.74 114.04 232 130.39 232.53"/><polygon class="cls-19" points="188.41 211.92 175.08 212.96 177.46 199.57 191.38 200.74 188.41 211.92"/><path class="cls-19" d="M199.63,211.27a9.35,9.35,0,1,1,1-13.18A9.35,9.35,0,0,1,199.63,211.27Z"/><path class="cls-19" d="M194,194.84s-1.7-3.9-5.66-1-7.46,8.83-1.92,16.42Z"/><path class="cls-19" d="M194,194.79l10.74-2.7a1.75,1.75,0,0,1,2.18,1.06h0a1.51,1.51,0,0,1-.8,1.9l-10.91,4.88Z"/><path class="cls-22" d="M138.07,176.16,155.68,204a9.75,9.75,0,0,1-3.18,12.9h0a9.74,9.74,0,0,1-13.46-2.8l-19.41-26.77A10.77,10.77,0,0,1,121,173.79h0A10.8,10.8,0,0,1,138.07,176.16Z"/><polygon class="cls-23" points="132.56 205.31 133.59 190.06 137.38 211.97 132.56 205.31"/><path class="cls-22" d="M146.54,201.24l38.77-4.56-.12,17.71L149.13,219a9,9,0,0,1-10.71-9.17h0A9,9,0,0,1,146.54,201.24Z"/><path class="cls-19" d="M79.43,253.74s4.33.35,3.62-4.6-4.35-10.93-13.83-9.59Z"/><rect class="cls-22" x="48.15" y="249.84" width="43.52" height="43.52" transform="translate(139.81 543.21) rotate(180)"/><rect class="cls-22" x="50.16" y="249.84" width="43.52" height="43.52" transform="translate(143.84 543.21) rotate(180)"/><path class="cls-19" d="M62,250.9a9.52,9.52,0,1,1,11.36,7.23A9.52,9.52,0,0,1,62,250.9Z"/><path class="cls-22" d="M80.57,203.65l-.42,39-17.1-.8L62.59,204a9,9,0,0,1,10.46-9.46h0A9,9,0,0,1,80.57,203.65Z"/><path class="cls-22" d="M102.54,187.3,79,210.33a9.75,9.75,0,0,1-13.28-.43h0a9.74,9.74,0,0,1-.07-13.75l22.14-24.56a10.8,10.8,0,0,1,13.57-1.47h0A10.8,10.8,0,0,1,102.54,187.3Z"/><path class="cls-22" d="M128.86,170.59l-33.54-2.21c-3-.2-8.42,5.3-8.1,8.31l0,54.43,43.19,1.41,4.39-55.24A6.35,6.35,0,0,0,128.86,170.59Z"/><polygon class="cls-23" points="87.2 202.27 96.94 192.76 87.2 218.51 87.2 202.27"/><path class="cls-24" d="M123.4,148.07a4.44,4.44,0,1,0,4.81-4.18A4.5,4.5,0,0,0,123.4,148.07Z"/><path class="cls-19" d="M120.82,158.84l-.21,11c-.06,3.84-2.39,5.85-6.06,5.75h0c-3.13-.09-6.55-1.68-6.34-5.07l1.12-17.22Z"/><path class="cls-25" d="M120.7,166.12s-8.94.59-11.52-9.51c-.81-3.18,11.68,1.1,11.68,1.1Z"/><path class="cls-26" d="M117.47,162h0c6.26.13,11.51-4.87,11.8-10.14l.52-11A12.11,12.11,0,0,0,119,127.91h0c-6.53-.59-13.45,4.31-14,11.06l-.31,8.6A13.77,13.77,0,0,0,117.47,162Z"/><polyline class="cls-27" points="122.76 146.99 123.05 150.6 121.5 150.63"/><path class="cls-25" d="M116,139.69s2.57-.18,2.57.9c0,0,0,.73-2.25.84s-2.82-.08-3-.77S114.77,139.67,116,139.69Z"/><path class="cls-25" d="M126.68,142.22s-2.11-.27-2.3.74c0,0-.11.69,1.73.87s2.46,0,2.65-.59S127.69,142.25,126.68,142.22Z"/><path class="cls-25" d="M125.07,146.32a1.08,1.08,0,1,0,2.15.11,1.11,1.11,0,0,0-1-1.17A1.09,1.09,0,0,0,125.07,146.32Z"/><path class="cls-25" d="M115.64,145.83a1.08,1.08,0,1,0,1.13-1.06A1.1,1.1,0,0,0,115.64,145.83Z"/><path class="cls-27" d="M118.24,152.19a3.56,3.56,0,0,0,3.59,1.18"/><path class="cls-25" d="M127.22,122.55c-2.4-1-8.52-2.17-9.87,3.24-6.09-.46-15.77-.35-16.75,4.93-1.43,7.75,4.08,15.44,4.08,15.44l1.55.79s3.93-2,2.91-11.33c0,0,14.07,3.39,20.67-.18S134.42,125.65,127.22,122.55Z"/><path class="cls-26" d="M98.89,147.24a4.5,4.5,0,0,0,4,4.92,4.44,4.44,0,0,0,4.77-4.13,4.5,4.5,0,0,0-4-4.92A4.45,4.45,0,0,0,98.89,147.24Z"/><path class="cls-27" d="M104.68,148.86s.28-3.28-2.8-3"/><path class="cls-19" d="M104,169,124,170.27s.64,6.92-8.29,6.45C105.7,176.18,104,169,104,169Z"/><polygon class="cls-19" points="523.83 336.33 504.03 327.11 511.17 315.98 532.69 326.44 526.38 335.24 523.83 336.33"/><path class="cls-20" d="M527.79,322.12s-2.72,12.12-12.16,11.89l-2.32,28.69,26.14-36.47Z"/><rect class="cls-6" x="505.67" y="343.58" width="44.87" height="4.24" transform="translate(1116.77 117.92) rotate(125.64)"/><path class="cls-28" d="M515.33,337.76a16.56,16.56,0,0,1,5.38-.79"/><path class="cls-28" d="M514.72,342a16.9,16.9,0,0,1,5.38-.79"/><path class="cls-28" d="M514.1,346.18a17,17,0,0,1,5.38-.79"/><path class="cls-29" d="M477.88,215.83S465,264.1,463,273.61s-5.71,28.55,2.29,35.41S504,332.3,504,332.3L515.33,312,497,301Z"/><polygon class="cls-19" points="495.32 369.32 491.29 347.86 504.49 347.18 508.53 370.76 497.7 370.76 495.32 369.32"/><path class="cls-20" d="M509.18,364.26s-11.44,4.86-16.74-2.95l-24.67,14.83h44.87Z"/><rect class="cls-6" x="467.77" y="376.14" width="44.87" height="4.24" transform="translate(980.41 756.52) rotate(180)"/><path class="cls-28" d="M489.21,363.25a16.78,16.78,0,0,1,3.78,3.91"/><path class="cls-28" d="M485.43,365.2a17,17,0,0,1,3.78,3.92"/><path class="cls-28" d="M481.65,367.16a16.78,16.78,0,0,1,3.78,3.91"/><path class="cls-7" d="M477.88,215.83l-1.28,72.81a40,40,0,0,0,.62,7.8L488,352.59h22.64l-6.32-63.33c.27-11.65,4.13-24.69,5.58-38.9,0,0,4.44-26.35-7.73-34.4Z"/><path class="cls-19" d="M463.39,205.84l-37-13.55-4.3,7.21,36.08,19.12a8.25,8.25,0,0,0,11.06-9.19h0C468.69,206.53,466.18,206.83,463.39,205.84Z"/><path class="cls-19" d="M421.83,186.8a2.74,2.74,0,0,0-2.58-.81,1.64,1.64,0,0,0-1,2.56l.53.87c-1.19.46-3.64.57-8.13-4a2.26,2.26,0,0,0-2.77-.4,1.39,1.39,0,0,0-.42,1.82s0,.06.05.09a2.06,2.06,0,0,0-1.79.19,1.4,1.4,0,0,0-.43,1.83c.05.08.1.17.16.25a1.93,1.93,0,0,0-.85.3,1.39,1.39,0,0,0-.42,1.82,1.77,1.77,0,0,0,.39.53l.17.17-.08.05a1.38,1.38,0,0,0-.42,1.82,2.13,2.13,0,0,0,.38.54,26.3,26.3,0,0,0,3.67,3.12h0l.06,0a18.23,18.23,0,0,0,1.69,1c2.59,1.51,8.14.25,12.91,1l3.72-7Z"/><rect class="cls-22" x="374.94" y="160.32" width="44.62" height="44.62" transform="translate(723.83 -108.07) rotate(113.64)"/><path class="cls-19" d="M422.44,187.54l-3.62-4.23a1.48,1.48,0,0,0-2.24,0h0a1.48,1.48,0,0,0-.2,1.63l1.83,3.61a10,10,0,0,0,2.16,9.14Z"/><path class="cls-19" d="M479.8,206.61l-13.48,10.76a8.22,8.22,0,0,1-9.47.58h0c-4.17-2.57-6.72-4.95-3.71-8.82l14.8-15Z"/><path class="cls-18" d="M490.23,193.73s-1.79,8.84-12.41,16.87l-16.39-15.47,13.26-14.78Z"/><path class="cls-19" d="M515.81,205.42l28.49,35.94,6.45-4.28s-16.35-30.43-24-40a8.24,8.24,0,0,0-14.19,2.31h0C511.59,202.13,513.91,203.15,515.81,205.42Z"/><path class="cls-19" d="M545.68,248.58a2.68,2.68,0,0,0,1.83,1.9,1.6,1.6,0,0,0,2.08-1.7l-.05-1c1.23.17,3.38,1.21,5.1,7.17a2.2,2.2,0,0,0,2.18,1.63,1.35,1.35,0,0,0,1.21-1.36v-.11a2,2,0,0,0,1.62.68,1.36,1.36,0,0,0,1.21-1.36,2.71,2.71,0,0,0,0-.29,1.82,1.82,0,0,0,.86.14,1.35,1.35,0,0,0,1.2-1.36,1.82,1.82,0,0,0-.08-.64,2,2,0,0,0-.07-.23h.09a1.34,1.34,0,0,0,1.21-1.36,1.76,1.76,0,0,0-.08-.63,24.88,24.88,0,0,0-1.68-4.38h0l0-.06a16.6,16.6,0,0,0-1-1.67c-1.52-2.49-6.84-4-10.56-6.87l-6.45,4.28Z"/><path class="cls-19" d="M511.56,183.26l13,11.37a8.24,8.24,0,0,1,2.23,9.23h0c-1.8,4.55-3.69,7.48-8,5.2l-17.38-11.93Z"/><path class="cls-3" d="M494.87,175.33a34.56,34.56,0,0,1,20.89,9.22L506.93,201l-17.36-6Z"/><path class="cls-3" d="M480.82,176.31s-10.77,3-10.81,17.42c0,7.89,7.87,22.1,7.87,22.1l24.33.13s3.57-9.91,5.71-18.86-4.71-17.47-13.05-21.77Z"/><polygon class="cls-18" points="506.93 200.97 497.38 194.12 504.74 208.38 506.93 200.97"/><path class="cls-26" d="M487,180.93h0c3.38-.5,4.58-2.76,4.07-6.13l-3.75-19.34-10.18,1.63,2.84,18.65A6.17,6.17,0,0,0,487,180.93Z"/><path class="cls-30" d="M484.94,159.28s3.3,10.31-5.45,13.82l-.81-6.15,9-6.8"/><path class="cls-26" d="M477.4,168.27h0c6.36-.6,11.07-5.69,10.54-11.36l-1.76-18.58-10.72,0c-3.95.37-9.38,5.61-9,9.13L468.28,159C468.67,163.16,472.06,168.78,477.4,168.27Z"/><path class="cls-26" d="M468.78,152.3l-2.44,6.22a.9.9,0,0,0,.94,1.34l4.19-.39Z"/><path class="cls-25" d="M470.91,149.4s-2.29.07-2.2,1c0,0,.07.65,2.06.55s2.49-.3,2.6-.93S472,149.29,470.91,149.4Z"/><path class="cls-25" d="M471,153.91a1,1,0,1,1-1.89.28,1,1,0,1,1,1.89-.28Z"/><path class="cls-27" d="M470.3,161.15a2.68,2.68,0,0,0,2.33-1.87"/><path class="cls-26" d="M488,174.23l6.89,1.1s-7.24,11.73-14.37,8.92c-8.22-3.25,2.68-9.42,2.68-9.42Z"/><path class="cls-30" d="M485.08,153.14a8.87,8.87,0,0,1-6.41-6.42l-14.25,2.81s-2.2-14.19,14.85-16.87c8.56-1.34,14,2.79,16.9,6.93a13.89,13.89,0,0,1,1.1,13.49,21.8,21.8,0,0,1-8.68,9.48l-1.32-7.1S486,153.39,485.08,153.14Z"/><path class="cls-26" d="M491.92,152.12a4.44,4.44,0,1,1-4.4-4.61A4.54,4.54,0,0,1,491.92,152.12Z"/><path class="cls-31" d="M486,153.19s0-3.32,3.11-2.79"/><path class="cls-30" d="M514.61,133.91a11.08,11.08,0,1,1-12.78-9.08A11.1,11.1,0,0,1,514.61,133.91Z"/></svg>