<svg id="Camada_1" data-name="Camada 1" xmlns="http://www.w3.org/2000/svg" viewBox="0 0 650.45 393.84"><defs><style>.cls-1,.cls-2{fill:#ecf1f7;}.cls-1,.cls-11,.cls-13,.cls-15,.cls-17,.cls-19,.cls-2,.cls-21,.cls-25,.cls-3,.cls-30,.cls-34,.cls-35,.cls-4{isolation:isolate;}.cls-1{opacity:0.47;}.cls-2{opacity:0.81;}.cls-18,.cls-3{fill:#3e479b;}.cls-17,.cls-3,.cls-4{opacity:0.58;}.cls-10,.cls-11,.cls-13,.cls-15,.cls-35,.cls-4{fill:#ef929c;}.cls-17,.cls-21,.cls-5{fill:#fff;}.cls-6{opacity:0.36;}.cls-19,.cls-25,.cls-30,.cls-7{fill:#599af2;}.cls-8{opacity:0.18;}.cls-16,.cls-23,.cls-24,.cls-28,.cls-34,.cls-36,.cls-9{fill:none;stroke-miterlimit:10;}.cls-28,.cls-9{stroke:#4c65ba;}.cls-11,.cls-14{opacity:0.54;}.cls-12{opacity:0.98;}.cls-13{opacity:0.5;}.cls-15{opacity:0.43;}.cls-16,.cls-24{stroke:#fff;}.cls-16,.cls-23,.cls-24,.cls-28,.cls-34,.cls-36{stroke-linecap:round;}.cls-19{opacity:0.8;}.cls-20{fill:#4c65ba;}.cls-21{opacity:0.55;}.cls-22{fill:#373449;}.cls-23{stroke:#373449;}.cls-23,.cls-24,.cls-28{stroke-width:2px;}.cls-25{opacity:0.66;}.cls-26{opacity:0.68;}.cls-27{opacity:0.89;}.cls-29{opacity:0.77;}.cls-30,.cls-31{opacity:0.39;}.cls-32{fill:#f9dcd2;}.cls-33{fill:#ffa06e;}.cls-34{stroke:#ecf1f7;opacity:0.31;}.cls-35{opacity:0.37;}.cls-36{stroke:#ef929c;stroke-width:0.5px;}</style></defs><path class="cls-1" d="M11.5,292.34A16.3,16.3,0,0,0,.73,312.73h0c2.66,8.61,13.64,19.41,22.24,16.75s4.91-16.29,6.74-25.11C32.26,292.08,20.1,289.68,11.5,292.34Z"/><path class="cls-1" d="M109,22.59A24.7,24.7,0,0,0,75.54,12.5c-12,6.45-24.9,25.91-18.45,37.93S82.73,53,96.37,53.16C115.41,53.38,115.45,34.61,109,22.59Z"/><path class="cls-1" d="M641,360.38c8.53-13.57,10.67-30.41,8.89-46.34a152.18,152.18,0,0,0-13.39-46.84c-6.42-13.65-15.71-25.82-18.36-41-3.5-20.08,5.66-39.39,7.79-59.09,4.24-39.22-22.27-73.77-55.14-92.43C544,59.5,512.7,53.84,482,54.22c-27.63.37-55.22,5.27-82,11.86-25.81,6.35-51,14.72-78.09,12.08C299.4,76,279.14,66.62,258.19,59.65c-50-16.63-110.61-19-156.34,6.35-29.36,16.25-49.9,42.64-59,71-6.68,20.79-8.66,44.69-3.77,65.72,5.5,23.63,15.65,44.45,13,69.35-2.2,20.43-9.7,40.34-9,61.07.57,17.81,7.24,35.62,17.62,50a23.19,23.19,0,0,0,2.18,2.66H611.76C623.26,379.65,634,371.43,641,360.38Z"/><path class="cls-2" d="M570.46,346.78c1.94-15.13-2.61-29.19-2-43.9,1.14-28.29,27.13-47.82,36.19-73.25,11.46-32.21,10.91-68.29-3-99.67-6.73-15.12-16.54-29.12-29.93-38.89C551.08,76.07,524,72.8,498.6,74.7,460.75,77.53,420.81,93.27,382.75,89c-21-2.37-27.42-24.21-38.26-38.62-12.27-16.29-29-29.09-47.45-37.61C263-2.94,222.19-4.42,187.43,9.84,150.3,25,118,62.09,120.08,104c1,19.41,9.07,38.69,5.32,57.75-4.7,23.93-23.46,45.74-37.06,65.24a145.33,145.33,0,0,0-5.06,158.82H557.41A105.56,105.56,0,0,0,570.46,346.78Z"/><circle class="cls-3" cx="641.48" cy="235.34" r="4.5"/><circle class="cls-4" cx="609.48" cy="360.34" r="3.5"/><circle class="cls-4" cx="66.48" cy="79.34" r="4.5"/><circle class="cls-3" cx="32.48" cy="248.34" r="3.5"/><circle class="cls-3" cx="37.48" cy="101.34" r="1.5"/><path class="cls-4" d="M409.44,34.06a5.4,5.4,0,1,1-4.16-6.42,5.4,5.4,0,0,1,4.16,6.42Z"/><path class="cls-3" d="M366.34,51.84a1.8,1.8,0,1,1-1.41-2.12H365A1.8,1.8,0,0,1,366.34,51.84Z"/><g id="OBJECTS"><path class="cls-5" d="M227.33,158.84h-14a5.22,5.22,0,0,1-5.21-5.22V142.84a46.09,46.09,0,0,1-10.64-4.42l-7.63,7.63a5.22,5.22,0,0,1-7.37,0h0l-9.86-9.86a5.22,5.22,0,0,1,0-7.37l7.63-7.64a45.2,45.2,0,0,1-4.41-10.64H165.08a5.23,5.23,0,0,1-5.21-5.21v-14a5.22,5.22,0,0,1,5.21-5.22h10.79a45.88,45.88,0,0,1,4.41-10.64l-7.63-7.63a5.22,5.22,0,0,1,0-7.37l9.86-9.87a5.21,5.21,0,0,1,7.38,0l7.63,7.63a46.18,46.18,0,0,1,10.64-4.39V43.05a5.22,5.22,0,0,1,5.21-5.21h14a5.21,5.21,0,0,1,5.21,5.21V53.84a45.62,45.62,0,0,1,10.64,4.41l7.63-7.63a5.22,5.22,0,0,1,7.37,0l9.87,9.87a5.22,5.22,0,0,1,0,7.37l-7.63,7.63a45,45,0,0,1,4.41,10.64h10.79a5.22,5.22,0,0,1,5.21,5.22v14a5.22,5.22,0,0,1-5.21,5.21H264.83a45.2,45.2,0,0,1-4.41,10.64l7.63,7.64a5.22,5.22,0,0,1,0,7.37l-9.87,9.86a5.2,5.2,0,0,1-7.35,0h0l-7.63-7.63a46.47,46.47,0,0,1-10.64,4.4v10.78A5.22,5.22,0,0,1,227.33,158.84Zm-30.19-23.39.79.47a43.59,43.59,0,0,0,11.7,4.85l.9.23v12.62a2.84,2.84,0,0,0,2.84,2.84h14a2.84,2.84,0,0,0,2.84-2.84V141l.89-.23a43.46,43.46,0,0,0,11.7-4.85l.8-.47,8.93,8.93a2.86,2.86,0,0,0,4,0l9.86-9.87a2.84,2.84,0,0,0,0-4l-8.93-8.93.48-.79a43.73,43.73,0,0,0,4.85-11.7l.22-.9h12.63a2.84,2.84,0,0,0,2.84-2.84v-14a2.84,2.84,0,0,0-2.84-2.84H263l-.22-.9a43.46,43.46,0,0,0-4.85-11.7l-.48-.8,8.93-8.93a2.84,2.84,0,0,0,0-4l-9.86-9.86a2.84,2.84,0,0,0-4,0l-8.93,8.93-.8-.47a43.17,43.17,0,0,0-11.7-4.86l-.89-.22V43.05a2.84,2.84,0,0,0-2.84-2.84h-14a2.84,2.84,0,0,0-2.84,2.84V55.68l-.9.22A43.44,43.44,0,0,0,198,60.76l-.79.47-8.93-8.93a2.84,2.84,0,0,0-4,0l-9.86,9.86a2.84,2.84,0,0,0,0,4l8.93,8.93-.48.8A43.46,43.46,0,0,0,178,87.59l-.23.9H165.08a2.84,2.84,0,0,0-2.84,2.84v14a2.84,2.84,0,0,0,2.84,2.84H177.7l.23.9a43.73,43.73,0,0,0,4.85,11.7l.48.79-8.93,8.93a2.84,2.84,0,0,0,0,4l9.86,9.87a2.87,2.87,0,0,0,4,0Zm23.21-4.12a33,33,0,1,1,33-33,33,33,0,0,1-33,33Zm0-63.58A30.6,30.6,0,1,0,251,98.35a30.6,30.6,0,0,0-30.6-30.6Z"/><path class="cls-5" d="M207.74,192.73l-5.85-3.17a25.65,25.65,0,0,0,.77-7.35l6.37-1.89a2.3,2.3,0,0,0,1.54-2.85l-2.26-7.6a2.28,2.28,0,0,0-2.83-1.55h0l-6.38,1.9a24.76,24.76,0,0,0-4.65-5.74l3.16-5.85a2.29,2.29,0,0,0-.92-3.1l-7-3.77a2.27,2.27,0,0,0-3.09.9v0l-3.17,5.84a25.26,25.26,0,0,0-7.35-.76l-1.89-6.37a2.28,2.28,0,0,0-2.85-1.54h0l-7.59,2.25a2.28,2.28,0,0,0-1.55,2.84h0l1.9,6.37a25.23,25.23,0,0,0-5.74,4.66l-5.82-3.15a2.28,2.28,0,0,0-3.09.91v0l-3.77,7a2.3,2.3,0,0,0,.92,3.11l5.84,3.16a25.61,25.61,0,0,0-.76,7.35l-6.37,1.9a2.27,2.27,0,0,0-1.54,2.83h0l2.26,7.6a2.29,2.29,0,0,0,2.83,1.54h0l6.38-1.89a25.46,25.46,0,0,0,4.65,5.74L156.71,208a2.28,2.28,0,0,0,.91,3.09h0l7,3.78a2.3,2.3,0,0,0,3.1-.92l3.16-5.85a25.33,25.33,0,0,0,7.36.76l1.89,6.38a2.29,2.29,0,0,0,2.85,1.54h0l7.59-2.26a2.29,2.29,0,0,0,1.54-2.85h0l-1.89-6.37a26,26,0,0,0,5.74-4.65l5.84,3.16a2.3,2.3,0,0,0,3.11-.92l3.77-7a2.29,2.29,0,0,0-.91-3.11Zm-39.19,6.42A18.06,18.06,0,1,1,193,191.84a18.07,18.07,0,0,1-24.48,7.31Z"/><g class="cls-6"><path class="cls-7" d="M163,139.42l-4.5-2.44a19.65,19.65,0,0,0,.59-5.66l4.91-1.46a1.76,1.76,0,0,0,1.19-2.18h0l-1.74-5.83a1.75,1.75,0,0,0-2.16-1.2h0l-4.9,1.46a19.55,19.55,0,0,0-3.58-4.42l2.43-4.5a1.74,1.74,0,0,0-.68-2.37h0l-5.36-2.91a1.77,1.77,0,0,0-2.39.71l-2.43,4.5a19.27,19.27,0,0,0-5.66-.59l-1.46-4.9a1.77,1.77,0,0,0-2.19-1.19l-5.85,1.74a1.76,1.76,0,0,0-1.18,2.19l1.46,4.9a19.33,19.33,0,0,0-4.42,3.59l-4.5-2.44a1.77,1.77,0,0,0-2.39.71l-2.9,5.36a1.76,1.76,0,0,0,.73,2.36l4.5,2.44a19.58,19.58,0,0,0-.59,5.66L115,134.41a1.76,1.76,0,0,0-1.18,2.19l1.74,5.85a1.77,1.77,0,0,0,2.19,1.19h0l4.9-1.46a19.78,19.78,0,0,0,3.58,4.42l-2.43,4.49a1.75,1.75,0,0,0,.71,2.38h0l5.36,2.9a1.77,1.77,0,0,0,2.39-.7h0l2.43-4.5a20,20,0,0,0,5.66.58l1.46,4.91a1.77,1.77,0,0,0,2.19,1.17l5.85-1.74a1.76,1.76,0,0,0,1.18-2.19L149.55,149a19.58,19.58,0,0,0,4.43-3.56l4.5,2.44a1.77,1.77,0,0,0,2.39-.71l2.9-5.37a1.74,1.74,0,0,0-.72-2.37Zm-30.15,4.94a13.9,13.9,0,1,1,18.84-5.62v0a13.9,13.9,0,0,1-18.83,5.6Z"/></g><g class="cls-8"><path class="cls-9" d="M334,76.31l-5.55-3a23.63,23.63,0,0,0,.72-7l6.05-1.8a2.18,2.18,0,0,0,1.47-2.7l-2.15-7.21a2.18,2.18,0,0,0-2.7-1.47l-6.05,1.8a24,24,0,0,0-4.42-5.45l3-5.54a2.19,2.19,0,0,0-.82-3l-.06,0-6.61-3.58a2.17,2.17,0,0,0-2.94.88h0l-3,5.54a24.24,24.24,0,0,0-7-.72L302.13,37a2.16,2.16,0,0,0-2.7-1.46h0l-7.21,2.14a2.18,2.18,0,0,0-1.47,2.7l1.8,6a24.18,24.18,0,0,0-5.45,4.42l-5.54-3a2.18,2.18,0,0,0-2.95.87L275,55.3a2.17,2.17,0,0,0,.88,2.94h0l5.54,3a24.24,24.24,0,0,0-.72,7L274.68,70a2.17,2.17,0,0,0-1.46,2.7h0L275.36,80a2.17,2.17,0,0,0,2.7,1.46h0l6.05-1.8a24.18,24.18,0,0,0,4.42,5.45l-3,5.55a2.17,2.17,0,0,0,.88,2.94h0L293,97.24a2.18,2.18,0,0,0,3-.83l0,0,3-5.55a24.67,24.67,0,0,0,7,.73l1.8,6a2.17,2.17,0,0,0,2.7,1.46h0l7.21-2.15a2.17,2.17,0,0,0,1.46-2.7h0l-1.8-6a24.13,24.13,0,0,0,5.45-4.41l5.55,3a2.17,2.17,0,0,0,2.94-.87l3.58-6.62a2.17,2.17,0,0,0-.88-2.94ZM296.79,82.4A17.14,17.14,0,1,1,320,75.49h0a17.15,17.15,0,0,1-23.23,6.91h0Z"/></g><rect class="cls-5" x="79.48" y="213.13" width="171.5" height="125.21" rx="8.38"/><path class="cls-10" d="M79.48,247.72V219.49a6.36,6.36,0,0,1,6.36-6.36H244.62a6.36,6.36,0,0,1,6.36,6.36v27.56Z"/><rect class="cls-10" x="92.76" y="254.49" width="18.97" height="15.18"/><rect class="cls-11" x="92.76" y="281.05" width="18.97" height="15.18"/><rect class="cls-11" x="92.76" y="306.85" width="18.97" height="15.18"/><rect class="cls-11" x="125.39" y="254.49" width="18.97" height="15.18"/><rect class="cls-10" x="125.39" y="281.05" width="18.97" height="15.18"/><rect class="cls-11" x="125.39" y="306.85" width="18.97" height="15.18"/><g class="cls-12"><rect class="cls-13" x="157.26" y="254.49" width="18.97" height="15.18"/><rect class="cls-13" x="157.26" y="281.05" width="18.97" height="15.18"/><rect class="cls-10" x="157.26" y="306.85" width="18.97" height="15.18"/></g><g class="cls-14"><rect class="cls-10" x="189.89" y="254.49" width="18.97" height="15.18"/><rect class="cls-10" x="189.89" y="281.05" width="18.97" height="15.18"/><rect class="cls-10" x="189.89" y="306.85" width="18.97" height="15.18"/></g><rect class="cls-15" x="221.01" y="254.49" width="18.97" height="15.18"/><rect class="cls-10" x="221.01" y="281.05" width="18.97" height="15.18"/><rect class="cls-15" x="221.01" y="306.85" width="18.97" height="15.18"/><circle class="cls-16" cx="135.98" cy="261.84" r="6"/><line class="cls-16" x1="133.22" y1="257.34" x2="138.24" y2="265.84"/><line class="cls-16" x1="139.98" y1="259.08" x2="131.48" y2="264.1"/><circle class="cls-17" cx="100.49" cy="226.03" r="7.59"/><path class="cls-18" d="M100.49,228.76h0a3.36,3.36,0,0,1-3.34-3.34V203.57a3.35,3.35,0,0,1,3.34-3.34h0a3.34,3.34,0,0,1,3.34,3.34v21.85A3.35,3.35,0,0,1,100.49,228.76Z"/><circle class="cls-17" cx="122.96" cy="226.03" r="7.59"/><path class="cls-18" d="M123,228.76h0a3.36,3.36,0,0,1-3.34-3.34V203.57a3.35,3.35,0,0,1,3.34-3.34h0a3.34,3.34,0,0,1,3.34,3.34v21.85A3.35,3.35,0,0,1,123,228.76Z"/><circle class="cls-17" cx="144.15" cy="226.03" r="7.59"/><path class="cls-18" d="M144.15,228.76h0a3.36,3.36,0,0,1-3.34-3.34V203.57a3.35,3.35,0,0,1,3.34-3.34h0a3.34,3.34,0,0,1,3.34,3.34v21.85A3.35,3.35,0,0,1,144.15,228.76Z"/><circle class="cls-17" cx="166.62" cy="226.03" r="7.59"/><path class="cls-18" d="M166.62,228.76h0a3.36,3.36,0,0,1-3.34-3.34V203.57a3.35,3.35,0,0,1,3.34-3.34h0a3.34,3.34,0,0,1,3.34,3.34v21.85A3.35,3.35,0,0,1,166.62,228.76Z"/><circle class="cls-17" cx="187.75" cy="226.03" r="7.59"/><path class="cls-18" d="M187.75,228.76h0a3.34,3.34,0,0,1-3.33-3.34V203.57a3.34,3.34,0,0,1,3.33-3.34h0a3.34,3.34,0,0,1,3.34,3.34v21.85A3.35,3.35,0,0,1,187.75,228.76Z"/><circle class="cls-17" cx="210.23" cy="226.03" r="7.59"/><path class="cls-18" d="M210.23,228.76h0a3.36,3.36,0,0,1-3.34-3.34V203.57a3.35,3.35,0,0,1,3.34-3.34h0a3.34,3.34,0,0,1,3.34,3.34v21.85A3.35,3.35,0,0,1,210.23,228.76Z"/><circle class="cls-17" cx="231.42" cy="226.03" r="7.59"/><path class="cls-18" d="M231.42,228.76h0a3.36,3.36,0,0,1-3.34-3.34V203.57a3.35,3.35,0,0,1,3.34-3.34h0a3.34,3.34,0,0,1,3.34,3.34v21.85A3.35,3.35,0,0,1,231.42,228.76Z"/><ellipse class="cls-7" cx="183.14" cy="337.99" rx="44.62" ry="45.15"/><ellipse class="cls-5" cx="183.14" cy="337.99" rx="34.3" ry="34.7"/><rect class="cls-7" x="181.48" y="311.93" width="3.33" height="23.56" rx="0.9"/><rect class="cls-7" x="183.25" y="336.9" width="18.92" height="3.33" rx="0.9"/><path class="cls-18" d="M188.13,338a5,5,0,1,1-5-5A5,5,0,0,1,188.13,338Z"/><path class="cls-5" d="M87.86,166H48.62A1.63,1.63,0,0,0,47,167.57V196.2a1.64,1.64,0,0,0,1.62,1.64H87.86a1.64,1.64,0,0,0,1.65-1.63h0V167.59A1.63,1.63,0,0,0,87.87,166Z"/><path class="cls-19" d="M63.51,180.21l4.31,2.26a.89.89,0,0,0,.81,0l19.11-11.25,1.44-.84a.66.66,0,0,1,.33-.12V167.6A1.63,1.63,0,0,0,87.87,166H48.62A1.63,1.63,0,0,0,47,167.58h0v4.25l1,.53Z"/><polygon class="cls-19" points="46.98 173.87 46.98 194.17 62.18 181.6 46.98 173.87"/><polygon class="cls-19" points="89.51 194.28 89.51 172.31 74.13 181.36 89.51 194.28"/><path class="cls-19" d="M88.44,195.78l-16-13.43-2.89,1.7a2.67,2.67,0,0,1-2.59,0l-3-1.59-.14.15L47.91,195.84a.94.94,0,0,1-.59.21A1.37,1.37,0,0,1,47,196v.27a1.64,1.64,0,0,0,1.64,1.59H87.86a1.64,1.64,0,0,0,1.65-1.63h0v-.36A.9.9,0,0,1,89,196,1,1,0,0,1,88.44,195.78Z"/><path class="cls-20" d="M89.51,170.25a.66.66,0,0,0-.33.12l-1.44.84L68.63,182.46a.89.89,0,0,1-.81,0l-4.31-2.26L48,172.33l-1-.49v2l15.2,7.73L47,194.17v1.76a1.37,1.37,0,0,0,.34.07.94.94,0,0,0,.59-.21l15.88-13.13.14-.15,3,1.59a2.67,2.67,0,0,0,2.59,0l2.89-1.7,16,13.43a.9.9,0,0,0,1.07.08v-1.58L74.1,181.36l15.38-9.05Z"/><circle class="cls-18" cx="328.98" cy="237.84" r="156"/><circle class="cls-21" cx="328.98" cy="237.84" r="141.78"/><circle class="cls-5" cx="328.98" cy="237.84" r="127.31"/><rect class="cls-22" x="325.33" y="116.1" width="6.87" height="23.19" rx="3.31"/><rect class="cls-22" x="325.76" y="336.39" width="6.87" height="23.19" rx="3.31"/><rect class="cls-22" x="427.53" y="234.19" width="23.19" height="6.87" rx="3.31"/><rect class="cls-22" x="207.24" y="234.62" width="23.19" height="6.87" rx="3.31"/><rect class="cls-22" x="399.37" y="156.11" width="15.18" height="6.87" rx="3.31" transform="translate(6.32 334.35) rotate(-44.98)"/><rect class="cls-22" x="242.96" y="312.11" width="17.15" height="6.87" rx="3.31" transform="translate(-149.43 270.14) rotate(-44.98)"/><rect class="cls-22" x="403.85" y="308.32" width="6.87" height="15.18" rx="3.31" transform="translate(-104.11 380.34) rotate(-44.98)"/><rect class="cls-22" x="247.83" y="151.93" width="6.87" height="17.15" rx="3.31" transform="translate(-39.92 224.58) rotate(-44.98)"/><rect class="cls-18" x="325.14" y="152.56" width="7.59" height="87.25" rx="3.65"/><rect class="cls-18" x="325.14" y="238.86" width="62.59" height="7.59" rx="3.65"/><line class="cls-23" x1="386.31" y1="186.23" x2="329.41" y2="237.44"/><circle class="cls-20" cx="328.98" cy="237.84" r="13.75"/><path class="cls-24" d="M621.47,322.23v8.16a5.63,5.63,0,0,1-5.62,5.64H596.16"/><path class="cls-24" d="M568.79,269.89H577a5.62,5.62,0,0,1,5.64,5.62V295.2"/><rect class="cls-5" x="514.09" y="295.38" width="82.84" height="54.46" rx="1.71"/><rect class="cls-25" x="514.09" y="295.38" width="82.84" height="54.46" rx="1.71"/><rect class="cls-5" x="525.6" y="306.12" width="59.83" height="14.57" rx="1.23"/><path class="cls-5" d="M526.41,327.69h58.2a.81.81,0,0,0,.81-.81h0a.82.82,0,0,0-.81-.82h-58.2a.82.82,0,0,0-.82.82h0A.82.82,0,0,0,526.41,327.69Z"/><path class="cls-5" d="M526.41,332.35h58.2a.81.81,0,0,0,.81-.81h0a.82.82,0,0,0-.81-.82h-58.2a.82.82,0,0,0-.82.82h0A.82.82,0,0,0,526.41,332.35Z"/><path class="cls-5" d="M526.41,337.41h58.2a.82.82,0,0,0,.81-.82h0a.81.81,0,0,0-.81-.81h-58.2a.82.82,0,0,0-.82.81h0a.82.82,0,0,0,.82.82Z"/><path class="cls-5" d="M526.41,342.07h58.2a.82.82,0,0,0,.81-.82h0a.81.81,0,0,0-.81-.81h-58.2a.82.82,0,0,0-.82.81h0a.82.82,0,0,0,.82.82Z"/><rect class="cls-5" x="610.74" y="307.66" width="22.24" height="15.34" rx="1.71"/><rect class="cls-4" x="610.74" y="307.66" width="22.24" height="15.34" rx="1.71"/><g class="cls-26"><g class="cls-27"><rect class="cls-20" x="461.98" y="211.72" width="106.2" height="68.25" rx="1.68"/></g><path class="cls-5" d="M551.4,228.89H476a.52.52,0,0,1-.6-.4.51.51,0,0,1,.4-.6.34.34,0,0,1,.2,0h75.46a.5.5,0,0,1,.4.6.51.51,0,0,1-.4.4Z"/><path class="cls-5" d="M506.81,249.15H476a.51.51,0,0,1-.5-.5.5.5,0,0,1,.5-.5h30.87a.5.5,0,0,1,.5.5.5.5,0,0,1-.5.5Z"/><path class="cls-5" d="M506.81,261.24H476a.52.52,0,0,1-.6-.4.51.51,0,0,1,.4-.6.34.34,0,0,1,.2,0h30.87a.5.5,0,0,1,.4.6.51.51,0,0,1-.4.4Z"/><path class="cls-5" d="M515.38,236.94H476a.52.52,0,0,1-.6-.4.51.51,0,0,1,.4-.6.34.34,0,0,1,.2,0h39.4a.5.5,0,0,1,.6.4.51.51,0,0,1-.4.6Z"/><path class="cls-5" d="M550.59,237.14H523.12c-.45,0-.81-.27-.81-.61s.36-.6.81-.6h27.47c.45,0,.81.27.81.6A.74.74,0,0,1,550.59,237.14Z"/><rect class="cls-5" x="513.81" y="242.7" width="38.26" height="23.49" rx="2"/><path class="cls-28" d="M517.83,259.5l2.1-6.29a.69.69,0,0,1,.89-.44.61.61,0,0,1,.29.19l5.83,6.31a.71.71,0,0,0,1,0,.8.8,0,0,0,.18-.27l3.49-9.48a.69.69,0,0,1,.89-.43.62.62,0,0,1,.32.23l7.87,10a.7.7,0,0,0,1,.11.64.64,0,0,0,.16-.17l6.88-10.9"/><polyline class="cls-28" points="546.54 248.69 549.01 248.08 549.01 250.54"/></g><g class="cls-29"><path class="cls-30" d="M557,180.51l-3.59-1.95a14.56,14.56,0,0,0,.38-4.36l3.86-1.06a1.32,1.32,0,0,0,.93-1.61.14.14,0,0,0,0-.06L557,166.92a1.44,1.44,0,0,0-1.75-.94L551.37,167a15.83,15.83,0,0,0-2.9-3.47l1.86-3.43a1.38,1.38,0,0,0-.59-1.86L545.45,156a1.38,1.38,0,0,0-1.88.51l-1.86,3.44a15.44,15.44,0,0,0-4.49-.54L536,155.55a1.44,1.44,0,0,0-1.75-.94l-4.56,1.23a1.3,1.3,0,0,0-.93,1.6s0,.05,0,.08l1.23,3.81a14.56,14.56,0,0,0-3.45,2.7l-3.6-2a1.36,1.36,0,0,0-1.86.49v0l-2.23,4.1a1.39,1.39,0,0,0,.6,1.85l3.6,2a14.84,14.84,0,0,0-.38,4.36l-3.87,1.06a1.29,1.29,0,0,0-.92,1.59.31.31,0,0,0,0,.08l1.46,4.54a1.46,1.46,0,0,0,1.75,1l3.86-1a16.56,16.56,0,0,0,2.9,3.46L526,189a1.37,1.37,0,0,0,.6,1.85h0l4.29,2.32a1.39,1.39,0,0,0,1.88-.51l1.86-3.44a16.62,16.62,0,0,0,4.49.53l1.22,3.81a1.46,1.46,0,0,0,1.75.95l4.61-1.25a1.31,1.31,0,0,0,.92-1.61.19.19,0,0,0,0-.07l-1.22-3.81a14.31,14.31,0,0,0,3.44-2.7l3.6,1.94a1.36,1.36,0,0,0,1.86-.48l0,0,2.22-4.1A1.37,1.37,0,0,0,557,180.51Zm-23.85,3.33a10.63,10.63,0,1,1,14.85-4A10.88,10.88,0,0,1,533.13,183.84Z"/></g><g class="cls-31"><path class="cls-5" d="M589.74,127.73l-5.85-3.17a25.65,25.65,0,0,0,.77-7.35l6.37-1.89a2.3,2.3,0,0,0,1.54-2.85l-2.26-7.6a2.28,2.28,0,0,0-2.83-1.55h0l-6.38,1.9a24.76,24.76,0,0,0-4.65-5.74l3.16-5.85a2.29,2.29,0,0,0-.92-3.1l-7-3.77a2.27,2.27,0,0,0-3.09.91h0l-3.17,5.84a25.26,25.26,0,0,0-7.35-.76l-1.89-6.37a2.28,2.28,0,0,0-2.85-1.54h0l-7.59,2.25A2.28,2.28,0,0,0,544.18,90h0l1.9,6.37a25.23,25.23,0,0,0-5.74,4.66l-5.82-3.15a2.28,2.28,0,0,0-3.09.91v0l-3.77,7a2.3,2.3,0,0,0,.92,3.11l5.84,3.16a25.61,25.61,0,0,0-.76,7.35l-6.37,1.9a2.27,2.27,0,0,0-1.54,2.83h0l2.26,7.6a2.29,2.29,0,0,0,2.83,1.54h0l6.38-1.89a25.46,25.46,0,0,0,4.65,5.74L538.71,143a2.28,2.28,0,0,0,.91,3.09h0l7,3.78a2.3,2.3,0,0,0,3.1-.92l3.16-5.85a25.33,25.33,0,0,0,7.36.76l1.89,6.38a2.29,2.29,0,0,0,2.85,1.54h0l7.59-2.26a2.29,2.29,0,0,0,1.54-2.85h0l-1.89-6.37a26,26,0,0,0,5.74-4.65l5.84,3.16a2.3,2.3,0,0,0,3.11-.92l3.77-7a2.29,2.29,0,0,0-.91-3.11Zm-39.19,6.42A18.06,18.06,0,1,1,575,126.84a18.07,18.07,0,0,1-24.48,7.31Z"/></g><rect class="cls-18" x="475.95" y="55.54" width="26.28" height="15.2"/><rect class="cls-20" x="471.72" y="49.84" width="34.73" height="10.45" rx="1.98"/><ellipse class="cls-10" cx="489.09" cy="131.21" rx="62.89" ry="63.63"/><ellipse class="cls-5" cx="489.09" cy="131.21" rx="48.34" ry="48.91"/><path class="cls-2" d="M532.27,152.61A48.11,48.11,0,0,1,446,153.84c-1.75-3.38,19.55-22.41,41.91-22.7S533.83,149.37,532.27,152.61Z"/><path class="cls-21" d="M516.05,162.94a30,30,0,0,1-53.9.8c-1.09-2.11,12.21-14,26.16-14.17S517,160.92,516.05,162.94Z"/><rect class="cls-10" x="486.75" y="94.48" width="4.69" height="33.21" rx="0.9"/><ellipse class="cls-18" cx="489.09" cy="131.21" rx="7.03" ry="7.12"/><path class="cls-5" d="M591.9,170.84H566.06a1.08,1.08,0,0,0-1.08,1.08h0v18.84a1.09,1.09,0,0,0,1.08,1.08H591.9a1.08,1.08,0,0,0,1.08-1.08h0V171.92a1.08,1.08,0,0,0-1.08-1.08Z"/><path class="cls-19" d="M575.87,180.23l2.83,1.49a.57.57,0,0,0,.54,0l12.58-7.4.94-.56a.65.65,0,0,1,.22-.08v-1.75a1.08,1.08,0,0,0-1.08-1.08H566.06a1.08,1.08,0,0,0-1.08,1.08h0v2.78l.68.34Z"/><polygon class="cls-19" points="564.98 176.06 564.98 189.42 574.99 181.15 564.98 176.06"/><polygon class="cls-19" points="592.98 189.5 592.98 175.03 582.85 180.99 592.98 189.5"/><path class="cls-19" d="M592.28,190.49l-10.53-8.85-1.91,1.12a1.93,1.93,0,0,1-.88.24,1.78,1.78,0,0,1-.82-.21l-2-1-.09.1-10.46,8.64a.62.62,0,0,1-.39.14.81.81,0,0,1-.22,0v.18a1.09,1.09,0,0,0,1.08,1.08H591.9a1.08,1.08,0,0,0,1.08-1.08h0v-.22a.66.66,0,0,1-.31.09A.68.68,0,0,1,592.28,190.49Z"/><path class="cls-20" d="M593,173.67a.65.65,0,0,0-.22.08l-.94.56-12.58,7.4a.57.57,0,0,1-.54,0l-2.83-1.49L565.66,175l-.68-.34v1.36l10,5.09-10,8.27v1.16a.81.81,0,0,0,.22,0,.62.62,0,0,0,.39-.14l10.46-8.59.09-.1,2,1a1.82,1.82,0,0,0,.82.21,1.93,1.93,0,0,0,.88-.24l1.91-1.12,10.53,8.85a.62.62,0,0,0,.39.14.66.66,0,0,0,.31-.09v-1L582.85,181,593,175Z"/><path class="cls-22" d="M461.82,384H462v1.61l-17.6.26v-1.19a.43.43,0,0,1,.27-.4h.13Z"/><path class="cls-22" d="M455.66,378.07,461,378a.5.5,0,0,1,.35.12.28.28,0,0,1,.1.09.6.6,0,0,1,.16.41v.62l.09,2,.11,2.73-17,.24h-.13a3.57,3.57,0,0,1,2.57-2.49l3.89-.3,2.64-1.36,1.58-1.95h.17Z"/><path class="cls-22" d="M488.26,384h.16v1.62l-17.58.14v-1.19a.43.43,0,0,1,.27-.4h.14Z"/><path class="cls-22" d="M482.14,378.08h5.31a.46.46,0,0,1,.35.12.31.31,0,0,1,.11.09.61.61,0,0,1,.15.41v.62l.07,2,.1,2.73-17,.14h-.14a3.59,3.59,0,0,1,2.59-2.47l3.9-.28,2.64-1.34,1.59-1.94a.17.17,0,0,1,.1,0H482Z"/><path class="cls-32" d="M395,178.89a1.08,1.08,0,0,1,1.33-.76h0l.95.27v-.12l-1.52-.38a1.19,1.19,0,0,1-.93-1.4.3.3,0,0,1,0-.1c.51-1.28,1.56-.8,2.22-.64l.8.28s-1.37-.55-1.39-.57a1.15,1.15,0,0,1-.23-.84,1.07,1.07,0,0,1,1.23-.9h0l3.8.58a47.5,47.5,0,0,1,6.61,1l-1.4-3.1A1.36,1.36,0,0,1,409,171.1l2.5,5.55a6.61,6.61,0,0,1,.75,1.32c.22.76,2.26,5,2.26,5l-5.12,1.7s-7.73-2.36-10.92-3.62l-2.72-.77a1.09,1.09,0,0,1-.74-1.35Z"/><path class="cls-33" d="M407.88,175.41h0a.18.18,0,0,0-.27,0h0a2.63,2.63,0,0,0-1.07,2,3.24,3.24,0,0,0,1,2.16.21.21,0,0,0,.28,0,.18.18,0,0,0,0-.27h0a2.9,2.9,0,0,1-.89-1.87,2.36,2.36,0,0,1,.93-1.72.2.2,0,0,0,0-.28Z"/><path class="cls-10" d="M472.25,205h-9.47c-3.65,0-7.63,1.71-11,4.12-5.64-.38-12.69-1-14-2-2.07-1.65-19.2-22-23-26.51a1.19,1.19,0,0,0-1.64-.18L408.41,184a1.19,1.19,0,0,0-.29,1.6c3.36,5.25,19.93,31,22.51,32.57,1.13.68,7,2.84,13.67,5.22l1.44,8.42a144.19,144.19,0,0,1,1.4,38.31l-.69,7.06c0,.52-.55.95,0,.95h41.18c.55,0-2.63-14.73-2.63-15.26l5.9-40.78C492.26,211.56,481.84,205,472.25,205Z"/><path class="cls-32" d="M411.74,234.62a.6.6,0,0,1,.38-.76.63.63,0,0,1,.19,0h4.75l-5.51-.7a.67.67,0,0,1-.58-.64v-.07a.61.61,0,0,1,.61-.61h0L417,232l-4.47-.82a.66.66,0,0,1-.54-.74v-.15a.62.62,0,0,1,.68-.49l4.27.48h.1l3.32-.13a.6.6,0,0,0,.6-.6.54.54,0,0,0-.15-.4l-1.66-2.12a.6.6,0,0,1,0-.83l.08-.07a.65.65,0,0,1,.81,0l3.45,2.42a8.85,8.85,0,0,1,3.2,3l-.49,6.39h-.08a84.73,84.73,0,0,1-8.57-.5H414a.67.67,0,0,1-.67-.65v-.07a.59.59,0,0,1,.51-.52l3.25-.51-4.7-.39a.7.7,0,0,1-.58-.45Z"/><path class="cls-10" d="M486.08,212.39a7.27,7.27,0,0,0-9.59.84h0c-2.31,2.4-12.07,14.27-14.62,14.91s-29.17,1.82-35,2.08a1.17,1.17,0,0,0-1.14,1.18l-.06,5.93a1.21,1.21,0,0,0,1.09,1.2c6.21.53,36.74,3.08,39.55,2,1.5-.58,11.34-6.93,19.42-12.21a9.65,9.65,0,0,0,.51-15.82Z"/><path class="cls-34" d="M426.74,238.54c6.21.53,36.74,3.08,39.55,2a73.49,73.49,0,0,0,6.34-3.77"/><path class="cls-34" d="M486.08,212.39a7.27,7.27,0,0,0-9.59.84h0c-2.31,2.4-12.07,14.27-14.62,14.91s-29.17,1.82-35,2.08"/><path class="cls-22" d="M447,266c0-1.2,1-1.17,2.18-1.21l34.88-.89a2.41,2.41,0,0,1,2.45,2s1.85,15.19,2,22.05l.56,89.2a2.36,2.36,0,0,1-2.34,2.38h-7.46a2.73,2.73,0,0,1-2.7-2.46l-7.25-78.39a2.22,2.22,0,0,0-2.23-2.08h0a2.24,2.24,0,0,0-2.24,2.22l-2.32,78.74a2,2,0,0,1-2,2H453a2,2,0,0,1-2-1.9l-4.74-95.87C446.18,279.05,447,266,447,266Z"/><path class="cls-22" d="M482.65,185a2.89,2.89,0,0,1,.18-.44c.7-1.49,1.64-3,1.36-4.73a5.16,5.16,0,0,0-1.85-3,4.68,4.68,0,0,1-1.86-3.18,10.26,10.26,0,0,0-.81-3.75,5.88,5.88,0,0,0-1.93-1.88,12.41,12.41,0,0,0-6.83-2.28,18.15,18.15,0,0,0-3.5.73c-.72.14-1.13-.18-1.85-.34a10.42,10.42,0,0,0-2-.25,10.8,10.8,0,0,0-4.58.93c-3,1.27-7,4.25-7.84,7.6a28.19,28.19,0,0,1-.6,3.64c-.89,2.27-3.58,2.66-5.17,4.29a4.42,4.42,0,0,0-1.33,3.94,20.21,20.21,0,0,1,.77,2.27,4,4,0,0,1-.53,2.24c-.87,1.74-2.31,3.37-2.21,5.32a5.93,5.93,0,0,0,.75,2.31c4.66,8.89,16.87,9.92,25.69,8.74,5.34-.72,11-2.3,15.24-5.73a9,9,0,0,0,3.57-5.35c.59-3.81-2.42-7-4.37-9.87a1.73,1.73,0,0,1-.36-.86A1,1,0,0,1,482.65,185Z"/><path class="cls-32" d="M474.72,183.25h.63a2.61,2.61,0,0,1,2.46,2.77h0l-.16,2.62a2.62,2.62,0,0,1-2.77,2.46h0l-1.13-.07h-.21l-1.28,17.41c-.75,3.73-3.78,6.29-6.92,5.84-3.38-.49-5.61-4.22-4.93-8.26l.07-3.56c-4.69-.29-10-4.73-9.4-10.59l1.21-11.82a4.72,4.72,0,0,1,.56-1.76c4.57,4,7.71-2.18,10.48-2.45,6.35-.62,9.16,1.71,10.54,7.31C474,183.78,474.72,183.28,474.72,183.25Z"/><polygon class="cls-35" points="468.91 202.62 460.47 202.76 460.41 205.78 468.91 202.62"/><path class="cls-22" d="M462.62,170.18a4.74,4.74,0,0,0-1,3.48c.44,3.34,4.24,3.7,6.38,5.48a4.16,4.16,0,0,1,1.65,3.22c-.07,2.25-2.47,3.82-2.79,6-.27,1.82,1.37,2.77,1.71,4.42.26,1.28-.53,2.51-1.21,3.62s-1.91,2-1.76,3.58a4,4,0,0,0,1.84,2.81,7.18,7.18,0,0,0,3.28,1,23.29,23.29,0,0,0,6.61-.44c3.85-.78,8.23-3.47,10-7.1,2.18-4.44-5.41-9.73-4.67-11.27s3.42-5.18-.37-8.16c-3.42-2.69.5-3.69-3.93-8.37C476.42,166.48,469.79,162,462.62,170.18Z"/><path class="cls-22" d="M455.84,184.78a1.31,1.31,0,0,1-.68,0l-.7-.09h-.7a1.29,1.29,0,0,1-.67-.11c-.18-.11-.23-.4,0-.73a1.68,1.68,0,0,1,1.48-.59,1.65,1.65,0,0,1,1.37.81C456.13,184.43,456,184.7,455.84,184.78Z"/><path class="cls-22" d="M464.23,185.3a1.34,1.34,0,0,1-.69,0,5.4,5.4,0,0,0-.69-.08h-.7a1.32,1.32,0,0,1-.68-.11c-.17-.11-.23-.4,0-.73a1.81,1.81,0,0,1,2.57-.12,1.58,1.58,0,0,1,.29.34C464.51,184.94,464.42,185.21,464.23,185.3Z"/><path class="cls-22" d="M454,188.22h0a.54.54,0,0,1-.49-.57v0l.11-1.08a.54.54,0,0,1,.59-.49h0a.53.53,0,0,1,.49.58h0l-.1,1.09A.55.55,0,0,1,454,188.22Z"/><path class="cls-22" d="M462.07,189h0a.55.55,0,0,1-.49-.59h0l.11-1.08a.54.54,0,0,1,.59-.49h0a.53.53,0,0,1,.49.58h0l-.11,1.08a.54.54,0,0,1-.58.49Z"/><path class="cls-36" d="M458.17,186.4l-1.62,2.44a1.3,1.3,0,0,0,.47,1.76,1.49,1.49,0,0,0,.53.17l.86,0"/><path class="cls-22" d="M458.83,192.41l5,.31h0l-.06,1a2,2,0,0,1-2.12,1.88l-2.11-.13a.9.9,0,0,1-.84-1l.13-2.1Z"/><path class="cls-10" d="M461.62,195.63h-.11a1,1,0,0,1-.84-.95c.07-1.1,3.06-.91,3.06-.91h0A2,2,0,0,1,461.62,195.63Z"/></g></svg>