<svg id="Layer_1" data-name="Layer 1" xmlns="http://www.w3.org/2000/svg" viewBox="0 0 93.84 66.52"><defs><style>.cls-1{fill:#f0f7fd;}.cls-2{fill:#d9ebf9;}.cls-3{fill:#a1cdf0;}.cls-4{fill:#b4d7f3;}.cls-5{fill:#001c31;}.cls-6{fill:#f7a98f;}.cls-7{fill:#6caee3;}.cls-8{fill:#016fc2;}.cls-9{fill:#015392;}.cls-10{fill:#fadb91;}.cls-11{fill:#f9a94b;}.cls-12{fill:#d92c09;}.cls-13{fill:#7c4415;}.cls-14{fill:#fff;}.cls-15{fill:#27a77e;}.cls-16{fill:#1d7d5f;}.cls-17{fill:#5d3310;}.cls-18{fill:#6d1605;}.cls-19{fill:#f7931e;}.cls-20{fill:#dc6501;}.cls-21{fill:#a54c01;}</style></defs><path class="cls-1" d="M72.94,54.6c3.65-.41,7.34-1.53,10-4.1a7.68,7.68,0,0,0,2.27-4.28c.52-2,2.3-3.48,3.48-5.16A19.53,19.53,0,0,0,92,33.51,20.85,20.85,0,0,0,92,27c-.2-1.77,0-3.87-.38-5.57-.65-3.16-4.68-6-7.54-7.1-1.6-.62-3.21-.5-4.8-.9a17.9,17.9,0,0,1-5-2.37c-3.53-2.35-6.53-5.3-10.42-7.14A23.25,23.25,0,0,0,51.85,2,22.54,22.54,0,0,0,42.54,4.8c-1.73,1-3.1,2.54-4.84,3.53-1.57.89-3.51,1-5.27,1.37-1.14.23-2.28.41-3.42.6a67.43,67.43,0,0,0-7.91,1.57,19.8,19.8,0,0,0-10.79,7.36C7.67,22.69,7.38,26,7.44,30.12c0,1.86-1.3,3.66-2,5.42a21.54,21.54,0,0,0-1.68,6.4c-.36,4.41.39,8.36,3.91,11.39s7.2,1.33,11.36,1.36S26.33,57,30,58.53a33.59,33.59,0,0,0,16,2.91,17.49,17.49,0,0,0,7-1.64c1.78-.9,3.28-2.23,5.13-3C62.89,54.69,67.89,55.17,72.94,54.6Z"/><path class="cls-2" d="M87.13,48.24H37.63c-10.46,0-21.12.13-31.49,0a7.51,7.51,0,0,1,.35-3.45,16.15,16.15,0,0,1,3.44-4.13c2.34-2.33,4.84-2.84,8.23-2.76-2.17-2.34-.32-6.56,1.42-8.56A8.06,8.06,0,0,1,28,26.73c.48-7.86,8.93-11.64,16.75-10.94,3.67.33,6.84,1.44,9,4.42,1.26,1.74,1.5,4.2,2.73,5.76,2-4.07,8.64-.85,11,1.28,3.35,3,3.28,6.48,3.62,10.42,3.26-2.71,6.76-3.12,10.13.5a11.82,11.82,0,0,1,2.76,4.92c.46,1.66.06,3.09,1.42,4.39.2.18.1.4.41.57C86.67,48.49,86.54,47.71,87.13,48.24Z"/><path class="cls-3" d="M87.13,48.19H46.6q-10.07,0-20.11,0l-10.06,0h-5L9,48.22c-.84,0-1.69,0-2.52,0-.21,0-.27,0-.29-.22s0-.28,0-.41c0-.35,0-.71,0-1.06a4.68,4.68,0,0,1,.56-2,15.25,15.25,0,0,1,2.81-3.34,11,11,0,0,1,3.08-2.3,10.35,10.35,0,0,1,3.6-.84q1-.06,1.95,0a.05.05,0,0,0,0-.09c-1.63-1.82-.91-4.55.1-6.5a8.9,8.9,0,0,1,5.33-4.6,8.16,8.16,0,0,1,4.41,0,.05.05,0,0,0,.06-.05,10.29,10.29,0,0,1,2.71-6.35,14.06,14.06,0,0,1,5.92-3.64,20.12,20.12,0,0,1,7.35-.95,14,14,0,0,1,7.58,2.32,9,9,0,0,1,3,3.76A17.16,17.16,0,0,0,56.48,26a.05.05,0,0,0,.09,0c1.47-2.85,5.14-1.95,7.49-.88a10.78,10.78,0,0,1,6.27,6.57,29.46,29.46,0,0,1,.8,6,0,0,0,0,0,.08,0,8.37,8.37,0,0,1,4.45-2.09,6.26,6.26,0,0,1,4.43,1.48,11.63,11.63,0,0,1,3.35,4.38A9.76,9.76,0,0,1,84.2,44a12.84,12.84,0,0,0,.35,2.12,3.39,3.39,0,0,0,.54,1,5.4,5.4,0,0,1,.43.52,1.52,1.52,0,0,0,.24.38.85.85,0,0,0,.63.23c.32-.05.38-.24.71,0,0,0,.11,0,.07-.07a.62.62,0,0,0-.45-.21c-.28,0-.36.22-.69.06s-.3-.33-.43-.53a3.19,3.19,0,0,0-.31-.33,3.36,3.36,0,0,1-.68-1.26,23.39,23.39,0,0,1-.38-2.37,10.24,10.24,0,0,0-.82-2.39c-1.36-2.87-4.19-5.91-7.64-5.67a8.43,8.43,0,0,0-4.63,2.13l.09,0C71,34.8,71,31.76,69.35,29.25a12.19,12.19,0,0,0-5.65-4.41c-1.86-.78-4.47-1.49-6.24-.12a3.05,3.05,0,0,0-.48.47,3,3,0,0,0-.22.28c0,.06-.18.38-.24.39s-.46-.7-.51-.8a10.89,10.89,0,0,1-.54-1.21,14.25,14.25,0,0,0-2-4.12,11.55,11.55,0,0,0-7.58-3.86,20.57,20.57,0,0,0-8.3.49A14.77,14.77,0,0,0,31,20a10.19,10.19,0,0,0-2.13,3.07,8.64,8.64,0,0,0-.6,1.73,9,9,0,0,0-.19.93c0,.2,0,.84-.16.9a2.37,2.37,0,0,1-.57-.14l-.46-.07a7.43,7.43,0,0,0-1.25-.08,8.12,8.12,0,0,0-2.18.34,8.62,8.62,0,0,0-3.8,2.45,10.52,10.52,0,0,0-2,3.36,6.51,6.51,0,0,0-.4,3.87,3.87,3.87,0,0,0,.85,1.55l0-.08a11.74,11.74,0,0,0-6.39,1.3A14.83,14.83,0,0,0,9,41.48a13,13,0,0,0-2.43,3,6.74,6.74,0,0,0-.51,3.77.05.05,0,0,0,0,0c10.45.13,20.89,0,31.33,0H87.13A.05.05,0,0,0,87.13,48.19Z"/><path class="cls-4" d="M35.82,48.28H22.29c-2.86,0-5.78,0-8.61,0a2.11,2.11,0,0,1,.09-.93,4.55,4.55,0,0,1,1-1.11A2.75,2.75,0,0,1,17,45.5c-.59-.63-.08-1.77.39-2.31a2.23,2.23,0,0,1,2.32-.7c.13-2.12,2.44-3.13,4.57-2.94a3.14,3.14,0,0,1,2.47,1.19c.34.46.41,1.13.74,1.55.56-1.1,2.36-.23,3,.34.92.8.9,1.75,1,2.81a1.83,1.83,0,0,1,2.77.13A3.23,3.23,0,0,1,35,46.9c.12.44,0,.83.38,1.18.06.05,0,.11.12.15S35.66,48.14,35.82,48.28Z"/><path class="cls-3" d="M35.82,48.23H27.15l-8.65,0c-1.61,0-3.21,0-4.82,0l.05.05a1.83,1.83,0,0,1,.1-.93,3.42,3.42,0,0,1,.63-.79,4.21,4.21,0,0,1,.71-.62,2.27,2.27,0,0,1,.77-.31,3.87,3.87,0,0,1,1-.08.05.05,0,0,0,0-.09,1.52,1.52,0,0,1,0-1.71,2.41,2.41,0,0,1,1.45-1.22,2.21,2.21,0,0,1,1.17,0s.06,0,.07,0a2.74,2.74,0,0,1,.73-1.69,3.85,3.85,0,0,1,1.62-1,5.37,5.37,0,0,1,2-.25,3.85,3.85,0,0,1,2,.62,2.38,2.38,0,0,1,.8,1,4.54,4.54,0,0,0,.52,1.14s.06,0,.08,0c.39-.75,1.37-.5,2-.23a2.91,2.91,0,0,1,1.71,1.77,8.44,8.44,0,0,1,.21,1.59s.05.06.09,0a2.3,2.3,0,0,1,1.18-.55,1.67,1.67,0,0,1,1.19.39,3.06,3.06,0,0,1,.92,1.19,2.34,2.34,0,0,1,.2.67,2.72,2.72,0,0,0,.1.57.76.76,0,0,0,.15.26c0,.06.09.1.13.16a.2.2,0,0,0,.05.09.27.27,0,0,0,.21.07c.07,0,.08-.06.16,0s.12,0,.07-.07a.23.23,0,0,0-.15-.07c-.06,0-.09,0-.15,0s-.08-.06-.11-.11L35.36,48a.79.79,0,0,1-.19-.33c-.06-.2-.06-.41-.1-.61a2.56,2.56,0,0,0-.22-.66,2.44,2.44,0,0,0-2.12-1.57,2.4,2.4,0,0,0-1.31.58l.09,0a8.77,8.77,0,0,0-.19-1.53,2.6,2.6,0,0,0-.79-1.29,3.58,3.58,0,0,0-.94-.6,3,3,0,0,0-1.17-.31,1.06,1.06,0,0,0-1,.55h.08a4.76,4.76,0,0,1-.5-1.1,2.35,2.35,0,0,0-.68-.91,3.62,3.62,0,0,0-2-.74,4.91,4.91,0,0,0-3.78,1.11,2.86,2.86,0,0,0-.88,1.88l.06-.05a2.31,2.31,0,0,0-2.06.43,2.69,2.69,0,0,0-1,1.69,1.2,1.2,0,0,0,.27,1l0-.08a3.29,3.29,0,0,0-1.77.36,3.88,3.88,0,0,0-.73.61,3.75,3.75,0,0,0-.68.81,1.8,1.8,0,0,0-.15,1.05,0,0,0,0,0,0,0c2.86,0,5.71,0,8.57,0H35.82A.05.05,0,1,0,35.82,48.23Z"/><path class="cls-4" d="M10.87,28.73a.24.24,0,0,1-.14-.05,2.37,2.37,0,0,1-.38-.54.2.2,0,1,1,.36-.18,1.73,1.73,0,0,0,.3.43.21.21,0,0,1,0,.29A.19.19,0,0,1,10.87,28.73Z"/><path class="cls-4" d="M73.3,27.78a.2.2,0,0,1-.16-.07.19.19,0,0,1,0-.28,8.18,8.18,0,0,0,.86-.81.21.21,0,0,1,.29,0,.2.2,0,0,1,0,.28,10.17,10.17,0,0,1-.91.84A.19.19,0,0,1,73.3,27.78Zm-63.1-.69a.19.19,0,0,1-.19-.18A6,6,0,0,1,10,26c0-.11,0-.23,0-.35a.22.22,0,0,1,.21-.2.2.2,0,0,1,.19.21c0,.11,0,.23,0,.34a7,7,0,0,0,.05.83.2.2,0,0,1-.17.23ZM75,26a.19.19,0,0,1-.12,0,.18.18,0,0,1,0-.27,9.78,9.78,0,0,0,.63-1,.21.21,0,0,1,.28-.08.21.21,0,0,1,.08.27,8.76,8.76,0,0,1-.67,1A.21.21,0,0,1,75,26ZM10.27,24.68h0a.2.2,0,0,1-.17-.22c0-.31.1-.63.16-.95,0-.08,0-.17,0-.26a.19.19,0,0,1,.24-.15.19.19,0,0,1,.15.23,2.38,2.38,0,0,1-.05.26c-.06.31-.11.62-.15.92A.2.2,0,0,1,10.27,24.68Zm65.84-.76H76a.2.2,0,0,1-.11-.26c.15-.38.29-.75.42-1.12a.2.2,0,0,1,.25-.13.2.2,0,0,1,.13.25c-.13.38-.27.77-.43,1.15A.2.2,0,0,1,76.11,23.92Zm-65.34-1.6h-.06a.2.2,0,0,1-.14-.24c.11-.39.24-.78.37-1.17a.21.21,0,0,1,.26-.12.2.2,0,0,1,.12.26q-.2.57-.36,1.14A.21.21,0,0,1,10.77,22.32Zm66.11-.68h0a.2.2,0,0,1-.14-.25c.11-.38.21-.77.29-1.16a.2.2,0,0,1,.23-.15.21.21,0,0,1,.16.24c-.08.39-.18.79-.29,1.18A.21.21,0,0,1,76.88,21.64ZM11.57,20.05l-.08,0a.2.2,0,0,1-.11-.26q.24-.57.51-1.11a.2.2,0,0,1,.36.18c-.18.35-.35.72-.5,1.08A.2.2,0,0,1,11.57,20.05Zm65.82-.77h0a.2.2,0,0,1-.17-.23c0-.4.1-.8.12-1.19a.2.2,0,0,1,.22-.18.19.19,0,0,1,.18.21c0,.4-.07.81-.13,1.22A.19.19,0,0,1,77.39,19.28Zm-64.75-1.4-.1,0a.21.21,0,0,1-.08-.28c.21-.35.42-.7.64-1a.21.21,0,0,1,.34.23c-.22.32-.43.67-.63,1A.19.19,0,0,1,12.64,17.88Zm64.91-1a.2.2,0,0,1-.2-.2,11.66,11.66,0,0,0-.06-1.18.2.2,0,0,1,.4,0c0,.4.06.81.06,1.22a.2.2,0,0,1-.2.2ZM14,15.87a.17.17,0,0,1-.12,0,.2.2,0,0,1,0-.28c.18-.24.37-.48.57-.7l.2-.24a.21.21,0,0,1,.29,0,.19.19,0,0,1,0,.28l-.2.24c-.19.22-.37.45-.55.68A.21.21,0,0,1,14,15.87Zm14,0h0a2.24,2.24,0,0,1-1.17-.58A.2.2,0,0,1,27,15a1.81,1.81,0,0,0,1,.47.2.2,0,0,1,0,.4Zm1.19-.08A.19.19,0,0,1,29,15.6a.19.19,0,0,1,.14-.24l0,0a3.61,3.61,0,0,0,1-.44.19.19,0,0,1,.27.06.21.21,0,0,1-.06.28,4.37,4.37,0,0,1-1.11.49h-.1Zm2-1.25a.2.2,0,0,1-.14-.06.2.2,0,0,1,0-.28,4.52,4.52,0,0,0,.65-.94.2.2,0,0,1,.27-.09.19.19,0,0,1,.09.26,4.91,4.91,0,0,1-.71,1A.23.23,0,0,1,31.18,14.5Zm46.15,0a.2.2,0,0,1-.2-.16c-.07-.39-.16-.78-.26-1.16A.2.2,0,0,1,77,12.9a.19.19,0,0,1,.24.14,12.24,12.24,0,0,1,.27,1.2.2.2,0,0,1-.16.23Zm-51.1-.16a.19.19,0,0,1-.18-.13,4.64,4.64,0,0,1-.3-1.22.2.2,0,0,1,.4,0A3.84,3.84,0,0,0,26.42,14a.2.2,0,0,1-.11.26Zm-10.67-.25a.2.2,0,0,1-.14-.06.19.19,0,0,1,0-.28c.29-.28.59-.56.9-.83a.2.2,0,0,1,.26.3c-.3.27-.6.54-.88.82A.22.22,0,0,1,15.56,14.06Zm1.82-1.58a.21.21,0,0,1-.16-.08.2.2,0,0,1,0-.28c.32-.25.65-.49,1-.71a.18.18,0,0,1,.27.05.2.2,0,0,1-.05.28c-.33.22-.65.46-1,.7A.25.25,0,0,1,17.38,12.48Zm14.84-.12h0a.2.2,0,0,1-.17-.23A3.1,3.1,0,0,0,32,11a.21.21,0,0,1,.15-.24.21.21,0,0,1,.24.15,3.46,3.46,0,0,1,.09.78,4.19,4.19,0,0,1,0,.5A.2.2,0,0,1,32.22,12.36Zm44.46-.21A.2.2,0,0,1,76.5,12,9.4,9.4,0,0,0,76,11a.2.2,0,0,1,.09-.27.19.19,0,0,1,.27.08c.19.37.36.74.51,1.12a.21.21,0,0,1-.11.26ZM26,11.93h0a.19.19,0,0,1-.17-.22A5.29,5.29,0,0,1,26,10.49a.2.2,0,0,1,.38.13,5,5,0,0,0-.26,1.13A.19.19,0,0,1,26,11.93Zm-6.57-.81a.18.18,0,0,1-.17-.1.2.2,0,0,1,.06-.27c.35-.21.71-.41,1.07-.59a.2.2,0,0,1,.27.08.2.2,0,0,1-.09.27c-.35.18-.7.38-1,.58A.19.19,0,0,1,19.38,11.12Zm12.3-1.06a.19.19,0,0,1-.16-.09,2.87,2.87,0,0,0-.81-.78.2.2,0,0,1-.06-.27.2.2,0,0,1,.28-.06,3.25,3.25,0,0,1,.92.89.21.21,0,0,1-.05.28A.27.27,0,0,1,31.68,10.06ZM75.57,10a.2.2,0,0,1-.17-.09c-.21-.32-.45-.65-.7-1A.2.2,0,0,1,75,8.71c.25.33.49.66.71,1a.2.2,0,0,1,0,.28Zm-54,0a.2.2,0,0,1-.18-.12.19.19,0,0,1,.1-.26c.37-.17.75-.33,1.12-.47a.2.2,0,0,1,.15.38c-.37.14-.75.29-1.11.45Zm5.21-.34a.19.19,0,0,1-.1,0,.2.2,0,0,1-.07-.27,8.65,8.65,0,0,1,.54-.85c-.31,0-.62.06-.94.11a.2.2,0,1,1-.06-.4c.42-.06.83-.1,1.22-.12a.19.19,0,0,1,.21.19v0a.2.2,0,0,1,0,.26,7.57,7.57,0,0,0-.64,1A.22.22,0,0,1,26.73,9.67Zm-2.95-.51A.18.18,0,0,1,23.59,9a.2.2,0,0,1,.13-.25l.55-.15.63-.16a.19.19,0,0,1,.24.15.2.2,0,0,1-.15.24c-.21,0-.42.1-.62.15l-.53.15Zm5.94-.42h0a5.62,5.62,0,0,0-1.15-.2.2.2,0,0,1-.18-.22.19.19,0,0,1,.21-.18,6.3,6.3,0,0,1,1.23.21.2.2,0,0,1,.14.25A.21.21,0,0,1,29.72,8.74Zm44.36-.62a.21.21,0,0,1-.15-.07c-.27-.29-.55-.57-.84-.85a.2.2,0,0,1,.27-.29c.3.28.59.58.86.87a.19.19,0,0,1,0,.28A.18.18,0,0,1,74.08,8.12ZM28.17,7.74A.2.2,0,0,1,28,7.68a.2.2,0,0,1,0-.28c.28-.29.57-.57.89-.85a.2.2,0,0,1,.28,0,.19.19,0,0,1,0,.28c-.3.27-.59.55-.85.82A.19.19,0,0,1,28.17,7.74ZM72.32,6.46a.24.24,0,0,1-.13,0c-.3-.25-.62-.49-.94-.73a.2.2,0,0,1,.24-.32c.32.24.65.49,1,.74a.22.22,0,0,1,0,.29A.24.24,0,0,1,72.32,6.46ZM30,6.15a.21.21,0,0,1-.16-.08.2.2,0,0,1,0-.28c.32-.24.66-.47,1-.69a.21.21,0,0,1,.28.06.19.19,0,0,1-.06.27c-.35.22-.68.45-1,.68A.25.25,0,0,1,30,6.15ZM70.37,5a.23.23,0,0,1-.11,0c-.33-.21-.68-.42-1-.61a.19.19,0,0,1-.07-.27.2.2,0,0,1,.27-.08c.35.2.7.4,1,.62a.21.21,0,0,1,.06.28A.2.2,0,0,1,70.37,5ZM32,4.85a.22.22,0,0,1-.18-.1.21.21,0,0,1,.08-.28c.34-.19.71-.38,1.08-.56a.19.19,0,0,1,.26.09.2.2,0,0,1-.09.27c-.36.18-.72.36-1.06.55Zm36.24-1-.09,0-.37-.17-.73-.31a.19.19,0,0,1-.1-.26A.2.2,0,0,1,67.23,3l.73.31.38.18a.2.2,0,0,1,.1.26A.22.22,0,0,1,68.26,3.88Zm-34.08-.1A.18.18,0,0,1,34,3.66a.19.19,0,0,1,.1-.26l1.12-.47a.2.2,0,0,1,.26.12.2.2,0,0,1-.11.26c-.38.14-.75.3-1.11.45A.11.11,0,0,1,34.18,3.78ZM66,3H66c-.37-.14-.75-.28-1.13-.4a.21.21,0,0,1-.13-.26A.2.2,0,0,1,65,2.16l1.15.4a.2.2,0,0,1,.11.26A.19.19,0,0,1,66,3ZM36.43,2.9a.2.2,0,0,1-.07-.39l1.15-.39a.2.2,0,0,1,.12.39l-1.14.38Zm27.31-.72h-.06c-.38-.12-.77-.23-1.15-.33a.2.2,0,0,1-.14-.25.2.2,0,0,1,.24-.14l1.17.34a.2.2,0,0,1,.13.25A.2.2,0,0,1,63.74,2.18Zm-25,0A.19.19,0,0,1,38.54,2a.21.21,0,0,1,.13-.25l1.18-.31a.2.2,0,1,1,.1.38c-.4.1-.79.21-1.16.32Zm2.34-.61a.2.2,0,0,1-.2-.15A.21.21,0,0,1,41,1.17L42.21.91a.2.2,0,0,1,.23.16.18.18,0,0,1-.15.23l-1.18.26Zm20.34,0h0l-1.17-.25A.2.2,0,0,1,60,1.05a.2.2,0,0,1,.23-.16c.4.08.8.17,1.19.27a.2.2,0,0,1-.05.39Zm-18-.47a.18.18,0,0,1-.19-.16A.2.2,0,0,1,43.4.69l1.2-.2a.2.2,0,0,1,.22.17.2.2,0,0,1-.17.23l-1.18.19Zm15.62,0h0L57.83.87a.2.2,0,0,1-.17-.23.19.19,0,0,1,.22-.17l1.2.2a.19.19,0,0,1,.16.23A.19.19,0,0,1,59.05,1.06ZM45.82.73a.2.2,0,0,1-.2-.17A.22.22,0,0,1,45.8.33L47,.2a.2.2,0,0,1,0,.4l-1.2.13Zm10.84,0h0L55.44.58a.19.19,0,0,1-.18-.21.2.2,0,0,1,.22-.18c.4,0,.8.08,1.2.12a.21.21,0,0,1,.18.22A.2.2,0,0,1,56.66.71ZM48.22.51A.21.21,0,0,1,48,.32a.2.2,0,0,1,.19-.21L49.42,0a.2.2,0,1,1,0,.4l-1.2.07Zm6,0h0L53,.43a.19.19,0,0,1-.19-.21A.2.2,0,0,1,53.06,0l1.21.06a.19.19,0,0,1,.18.21A.19.19,0,0,1,54.25.49ZM50.64.41a.2.2,0,0,1-.2-.2.19.19,0,0,1,.19-.2h1.21a.2.2,0,0,1,0,.4h-1.2Z"/><path class="cls-4" d="M71.76,28.73a.2.2,0,0,1-.08-.38,5,5,0,0,0,.52-.26.2.2,0,0,1,.19.35c-.18.1-.37.2-.55.28Z"/><path class="cls-4" d="M14.83,52.6a.2.2,0,0,1-.19-.15c-.05-.2-.1-.4-.13-.6a.2.2,0,0,1,.4-.07,5.78,5.78,0,0,0,.12.57.19.19,0,0,1-.14.24Z"/><path class="cls-4" d="M26.56,59.51a5.68,5.68,0,0,1-.59,0,.2.2,0,1,1,0-.4,5.42,5.42,0,0,0,1.14,0,.19.19,0,0,1,.21.18.2.2,0,0,1-.18.22Zm1.76-.21a.2.2,0,0,1,0-.39q.54-.12,1.11-.3a.2.2,0,0,1,.25.13.19.19,0,0,1-.13.25,11,11,0,0,1-1.15.31Zm-3.47-.07h-.07a3.66,3.66,0,0,1-1.07-.62.2.2,0,0,1,0-.28.2.2,0,0,1,.28,0,3.33,3.33,0,0,0,1,.55.2.2,0,0,1,.12.26A.21.21,0,0,1,24.85,59.23Zm5.7-.63a.18.18,0,0,1-.18-.12.2.2,0,0,1,.11-.26c.35-.14.7-.3,1.06-.47a.19.19,0,0,1,.26.09.2.2,0,0,1-.09.27l-1.08.48Zm-7.45-.85a.21.21,0,0,1-.17-.1,4.59,4.59,0,0,1-.42-1l0-.16a.2.2,0,1,1,.39-.09l0,.13a3.93,3.93,0,0,0,.21.55.21.21,0,0,1,.11,0,6.85,6.85,0,0,0,1.11-.24.2.2,0,0,1,.25.14.2.2,0,0,1-.14.25,7.33,7.33,0,0,1-1.15.24.2.2,0,0,1-.08.27A.17.17,0,0,1,23.1,57.75Zm9.56-.17a.19.19,0,0,1-.17-.1.2.2,0,0,1,.07-.28c.34-.19.67-.4,1-.61a.21.21,0,0,1,.23.34c-.32.21-.66.42-1,.62A.19.19,0,0,1,32.66,57.58Zm-10.6-.06h0a9.53,9.53,0,0,1-1.19-.09.2.2,0,0,1,.06-.4,7.3,7.3,0,0,0,1.14.09.19.19,0,0,1,.19.2A.2.2,0,0,1,22.06,57.52Zm-2.31-.34H19.7a8.43,8.43,0,0,1-1.13-.41.2.2,0,0,1-.1-.26.19.19,0,0,1,.26-.1,9.9,9.9,0,0,0,1.08.39A.2.2,0,0,1,20,57,.21.21,0,0,1,19.75,57.18Zm5.69-.43a.21.21,0,0,1-.16-.08.21.21,0,0,1,0-.28,1.28,1.28,0,0,0,.53-.84.2.2,0,0,1,.4.06,1.68,1.68,0,0,1-.69,1.1A.21.21,0,0,1,25.44,56.75Zm-7.82-.52a.23.23,0,0,1-.11,0,8.58,8.58,0,0,1-1-.72.2.2,0,0,1,0-.28.21.21,0,0,1,.29,0,6.34,6.34,0,0,0,.91.68.21.21,0,0,1,.06.28A.2.2,0,0,1,17.62,56.23Zm5.16-.71-.08,0a.2.2,0,0,1-.11-.26,2.28,2.28,0,0,1,.78-1,.2.2,0,0,1,.28,0,.2.2,0,0,1,0,.28,2,2,0,0,0-.64.83A.19.19,0,0,1,22.78,55.52Zm2.87-.79a.24.24,0,0,1-.14,0,1.56,1.56,0,0,0-.74-.36l-.2,0a.2.2,0,1,1,0-.4l.26,0a2,2,0,0,1,.92.45.2.2,0,0,1,0,.28A.19.19,0,0,1,25.65,54.73Zm-9.77,0a.21.21,0,0,1-.16-.08,6.07,6.07,0,0,1-.65-1,.19.19,0,0,1,.09-.26.2.2,0,0,1,.27.08,5.75,5.75,0,0,0,.61,1,.2.2,0,0,1,0,.28A.17.17,0,0,1,15.88,54.68Z"/><path class="cls-4" d="M34.6,56.25a.19.19,0,0,1-.15-.07.2.2,0,0,1,0-.28c.17-.13.31-.27.44-.39a.2.2,0,0,1,.28.28,4.79,4.79,0,0,1-.46.42A.2.2,0,0,1,34.6,56.25Z"/><path class="cls-4" d="M78.92,25.15a.2.2,0,0,1-.17-.09.2.2,0,0,1,.07-.28c.17-.1.36-.2.55-.29a.2.2,0,0,1,.26.1.18.18,0,0,1-.1.26l-.51.27A.17.17,0,0,1,78.92,25.15Z"/><path class="cls-4" d="M91.55,31.61h0a.2.2,0,0,1-.16-.23,4.77,4.77,0,0,0,0-.66c0-.15,0-.31,0-.46a.19.19,0,0,1,.17-.22.22.22,0,0,1,.23.18c0,.17,0,.34,0,.5a4.4,4.4,0,0,1-.06.73A.2.2,0,0,1,91.55,31.61Zm-.23-2.32a.2.2,0,0,1-.19-.14,7.19,7.19,0,0,0-.46-1,.19.19,0,0,1,.08-.27.19.19,0,0,1,.27.08,6.63,6.63,0,0,1,.49,1.1.2.2,0,0,1-.12.26ZM90.2,27.22a.2.2,0,0,1-.16-.07,7.89,7.89,0,0,0-.76-.87.2.2,0,0,1,.28-.28,8.57,8.57,0,0,1,.8.9.19.19,0,0,1,0,.28A.19.19,0,0,1,90.2,27.22Zm-1.68-1.65a.2.2,0,0,1-.11,0,5,5,0,0,0-1-.57.2.2,0,0,1-.1-.26.2.2,0,0,1,.26-.11,5.76,5.76,0,0,1,1.06.61.21.21,0,0,1,0,.28A.19.19,0,0,1,88.52,25.57Zm-2.13-1h0a10.84,10.84,0,0,0-1.13-.25A.21.21,0,0,1,85,24.1a.21.21,0,0,1,.24-.16,10.34,10.34,0,0,1,1.16.27.2.2,0,0,1,0,.39Zm-5.83-.13a.2.2,0,0,1-.19-.14.2.2,0,0,1,.14-.25,8.5,8.5,0,0,1,1.18-.23.2.2,0,0,1,0,.39,8.07,8.07,0,0,0-1.13.23Zm3.51-.28h0a11,11,0,0,0-1.15,0,.21.21,0,0,1-.21-.2.2.2,0,0,1,.2-.2q.58,0,1.2,0a.2.2,0,0,1,.18.22A.2.2,0,0,1,84.07,24.19Z"/><path class="cls-4" d="M90.82,33.21a.2.2,0,0,1-.13,0,.2.2,0,0,1,0-.28,3.55,3.55,0,0,0,.32-.47.2.2,0,1,1,.35.19,3.1,3.1,0,0,1-.36.53A.19.19,0,0,1,90.82,33.21Z"/><path class="cls-4" d="M59.44,53.27a.19.19,0,0,1-.15-.07,2.6,2.6,0,0,1-.37-.52.2.2,0,0,1,.08-.27.19.19,0,0,1,.27.08,2.14,2.14,0,0,0,.32.44.21.21,0,0,1,0,.29A.24.24,0,0,1,59.44,53.27Z"/><path class="cls-4" d="M67,55.36a.2.2,0,1,1,0-.4l1.13-.06a.21.21,0,0,1,.21.19.19.19,0,0,1-.18.21L67,55.36Zm-1.14,0h-.1c-.34,0-.7,0-1.06-.1A.2.2,0,0,1,64.5,55a.21.21,0,0,1,.22-.18c.36.05.71.08,1,.1h.08a.2.2,0,0,1,.19.21A.21.21,0,0,1,65.84,55.34Zm3.42-.15a.2.2,0,0,1-.2-.18.19.19,0,0,1,.17-.22c.38,0,.76-.11,1.12-.18a.2.2,0,0,1,.23.16.19.19,0,0,1-.15.23c-.37.07-.76.14-1.14.19Zm-5.69-.13h0c-.39-.08-.77-.16-1.13-.26a.19.19,0,0,1-.14-.24.2.2,0,0,1,.25-.14c.34.09.71.17,1.1.24a.2.2,0,0,1,0,.4Zm7.93-.31a.19.19,0,0,1-.19-.15.2.2,0,0,1,.14-.25A11.16,11.16,0,0,0,72.52,54a.2.2,0,0,1,.26.12.19.19,0,0,1-.12.25q-.52.19-1.11.36Zm-10.13-.29H61.3a7.12,7.12,0,0,1-1.07-.5.2.2,0,1,1,.21-.35,7.19,7.19,0,0,0,1,.48.2.2,0,0,1-.07.38Zm12.26-.53a.19.19,0,0,1-.17-.1.19.19,0,0,1,.08-.27,7.46,7.46,0,0,0,.93-.6.2.2,0,0,1,.28,0,.2.2,0,0,1,0,.28,7.3,7.3,0,0,1-1,.63A.18.18,0,0,1,73.63,53.93Z"/><path class="cls-4" d="M75.4,52.52a.25.25,0,0,1-.12,0,.2.2,0,0,1,0-.28,4.32,4.32,0,0,0,.31-.48.2.2,0,0,1,.27-.08.21.21,0,0,1,.08.27,4.32,4.32,0,0,1-.34.53A.21.21,0,0,1,75.4,52.52Z"/><path class="cls-5" d="M84.65,53.22c.54-.61,1.1-1.2,1.69-1.77a0,0,0,1,0-.07-.07c-.59.57-1.15,1.16-1.69,1.77,0,.05,0,.12.07.07Z"/><path class="cls-5" d="M86.89,56.65c.31.42.63.82,1,1.22,0,.05.11,0,.07-.07-.34-.39-.66-.79-1-1.2,0-.05-.12,0-.08,0Z"/><path class="cls-5" d="M86.9,56.75a5.19,5.19,0,0,0,.24,1c0,.06.12,0,.09,0a6.11,6.11,0,0,1-.23-1c0-.06-.11,0-.1,0Z"/><path class="cls-6" d="M81.69,61.9s.2,3,.27,3.13S83,65,83,65l.48-3.14C83.52,61.75,81.69,61.9,81.69,61.9Z"/><path class="cls-6" d="M86.79,61.61s.2,3,.27,3.14,1.08-.08,1.08-.08l.47-3.15C88.63,61.47,86.79,61.61,86.79,61.61Z"/><path class="cls-3" d="M81.86,64.8c0,.06-.18,1-.19,1.24v.19s3-.2,3.07-.28-.1-.42-.22-.52-1-.26-1.23-.39-.17-.47-.21-.5a9.7,9.7,0,0,1-1.14.11Z"/><path class="cls-3" d="M87,64.52c0,.06-.19,1-.2,1.24V66s3-.2,3.07-.28-.1-.43-.22-.52-1-.26-1.23-.39-.17-.48-.21-.5a9.7,9.7,0,0,1-1.14.11Z"/><path class="cls-7" d="M81.53,66.42s.16-.65.2-.61.17.08.27.14a.69.69,0,0,0,.46.11c.63-.06,2.18-.21,2.25-.25s.14.29.14.29a18.63,18.63,0,0,1-2,.23.67.67,0,0,0-.52.06C82.29,66.48,81.58,66.61,81.53,66.42Z"/><path class="cls-7" d="M86.63,66.13s.16-.64.2-.6.17.07.27.14a.7.7,0,0,0,.47.11c.63-.06,2.17-.22,2.24-.25s.14.29.14.29a18.63,18.63,0,0,1-2,.23.67.67,0,0,0-.52.06C87.4,66.2,86.68,66.32,86.63,66.13Z"/><path class="cls-8" d="M89.2,64l-3,.45s.08-3.24.08-4.39A13.64,13.64,0,0,1,87,56.7c.13-.32-2.36-3.52-2.36-3.52s-.48,10.89-.55,11.08a16.52,16.52,0,0,1-2.94.45,80.82,80.82,0,0,1-.48-8.2A14.51,14.51,0,0,0,80,53c-.15-.6-.3-1.15-.41-1.56a14.06,14.06,0,0,1-.26-3.58l6.91.19s1,1.39,2,3a15.19,15.19,0,0,1,1.76,5.15A72.08,72.08,0,0,1,89.2,64Z"/><path class="cls-9" d="M88.29,51a64.78,64.78,0,0,0-6.55,1.64A6.25,6.25,0,0,1,80,53c-.15-.6-.3-1.15-.41-1.56a14.06,14.06,0,0,1-.26-3.58l6.91.19S87.27,49.39,88.29,51Z"/><path class="cls-10" d="M91,42.84l-.12,1.75s-1,.64-2,1.18a7.1,7.1,0,0,1-1.71.74A1.16,1.16,0,0,1,86,46h0a5.12,5.12,0,0,0,.26,1.11c.21.64,1.4,2.56,1.4,2.9s-2.55.93-4,.93a19.06,19.06,0,0,0-3.93.77c-.25,0-.64-3.15-.64-4s-.21-3-.21-3a31.2,31.2,0,0,1-3.92-.08,3.06,3.06,0,0,1-.17-2.17c.21-.35,2.64-4.06,3.32-4.35a8.15,8.15,0,0,1,2.18-.35,8.91,8.91,0,0,1,1.83-.29c1.15-.09,2.86-.22,3.37.72s1.7,5.12,1.83,5.29A25.4,25.4,0,0,0,91,42.84Z"/><path class="cls-11" d="M88.86,45.77a7.1,7.1,0,0,1-1.71.74A1.16,1.16,0,0,1,86,46h0a7.89,7.89,0,0,1-.08-2.09,15.39,15.39,0,0,0-.39-3.41c.81.6.94,3.79,1.24,4.56C86.94,45.6,88.15,45.74,88.86,45.77Z"/><path class="cls-12" d="M77.84,38.41h.07a.83.83,0,0,1,.21.06,1.7,1.7,0,0,1,.66.59,3.73,3.73,0,0,1,.42.79c0,.06.12,0,.09,0a3.13,3.13,0,0,0-.75-1.2,1.26,1.26,0,0,0-.58-.31l-.12,0c-.07,0-.07.11,0,.1Z"/><path class="cls-12" d="M79.21,41.35a8.48,8.48,0,0,0-.85.95.35.35,0,0,0-.12.21c0,.07.09.07.1,0h0a.08.08,0,0,1,0,0l.07-.1a3,3,0,0,1,.23-.27c.16-.19.33-.37.5-.55l.12-.12a0,0,0,1,0-.07-.07Z"/><path class="cls-12" d="M75.82,42.39c.31,0,.61,0,.92,0a6.51,6.51,0,0,1,.77,0,2.58,2.58,0,0,1,.68.15c.15.05.33.16.32.34a.05.05,0,0,0,.1,0,.41.41,0,0,0-.26-.38,2.17,2.17,0,0,0-.66-.19,8.48,8.48,0,0,0-1.51,0l-.36,0c-.06,0-.06.11,0,.1Z"/><path class="cls-12" d="M76.26,42l.8.31.12,0c.06,0,.09-.07,0-.1L76.4,42l-.12-.05c-.06,0-.08.07,0,.1Z"/><path class="cls-12" d="M85.24,39.86a12.5,12.5,0,0,1,.47,2.08,12.22,12.22,0,0,1,.08,1.35c0,.48,0,1,0,1.44A7.87,7.87,0,0,0,85.91,46a.05.05,0,0,0,.1,0,7.08,7.08,0,0,1-.09-1.13c0-.48,0-1,0-1.44a11.91,11.91,0,0,0-.06-1.34,11.62,11.62,0,0,0-.27-1.43c-.07-.27-.14-.55-.22-.81,0-.07-.12,0-.1,0Z"/><path class="cls-12" d="M87.25,43.53a2.38,2.38,0,0,0-.31.4,1.62,1.62,0,0,0-.3.85,1.15,1.15,0,0,0,.08.41c0,.05.06.15.13.13s.07-.1.08-.14a2.93,2.93,0,0,0,0-.29,2.83,2.83,0,0,1,.08-.4.78.78,0,0,1,.15-.32c0-.05,0-.12-.07-.07a1.14,1.14,0,0,0-.22.57,4.94,4.94,0,0,1-.1.53s0,0,0,0h0s0,0,0,0,0,0,0,0a.86.86,0,0,1-.09-.35A1.54,1.54,0,0,1,87,44a2.73,2.73,0,0,1,.33-.43s0-.11-.07-.07Z"/><path class="cls-12" d="M82.24,48.25a12.06,12.06,0,0,0,2.42-3.75,10.9,10.9,0,0,0,.43-1.21.05.05,0,0,0-.1,0,11.89,11.89,0,0,1-.82,2.07A12.62,12.62,0,0,1,83,47.22c-.26.33-.53.65-.82,1,0,0,0,.11.07.07Z"/><path class="cls-12" d="M85.07,40.79h0l0,0s-.06,0,0,0V41a1,1,0,0,0,0,.17l-.06.33-.15.64c-.11.43-.23.85-.36,1.27a0,0,0,1,0,.09,0,19.73,19.73,0,0,0,.63-2.49c0-.06,0-.18-.08-.18s-.09.1,0,.13.11,0,0-.08Z"/><path class="cls-8" d="M93.11,44.38l-2.44.88a0,0,0,0,1-.07,0l.64-5.85a.12.12,0,0,1,.09-.11l2.44-.88s.07,0,.07.05l-.13,1.16-.51,4.69A.12.12,0,0,1,93.11,44.38Z"/><path class="cls-6" d="M79.51,44.24a1.14,1.14,0,0,0-.32-.06,2.94,2.94,0,0,0-.47,0,2.24,2.24,0,0,1-.16-1.33,6.4,6.4,0,0,0,1,0,2.58,2.58,0,0,1,.9.22,2.53,2.53,0,0,1,1,.67c.07.09.32.37.06.32s-.27-.25-.45-.3c.07.23.23.41.32.63a1.35,1.35,0,0,1,0,.72c0,.33-.09.52-.44.56,0,0-.06,0-.08,0s-.08.08-.11.07-.1,0-.16-.1-.19-.26-.29-.39l-.39-.58C79.75,44.46,79.67,44.32,79.51,44.24Z"/><path class="cls-6" d="M92.56,41.56l0,0s0,.2,0,.2c-.18,0-.2.28-.07.35-.16,0-.14.23,0,.3-.33.11.31.67.41.74a3.17,3.17,0,0,0,.47.27c.13.05.15.05.24,0a1.46,1.46,0,0,0,.21-1.15c0-.19,0-.36-.06-.54s0-.36-.07-.46c-.12.13-.29.46-.19.63a.5.5,0,0,1-.3,0,3.51,3.51,0,0,0-.4-.27S92.61,41.54,92.56,41.56Z"/><path class="cls-13" d="M80.89,44.49a2,2,0,0,1,.26.58,1.23,1.23,0,0,1,0,.27c0,.08,0,.29-.12.28l0,0a1,1,0,0,1-.06-.34A1.28,1.28,0,0,0,81,45a1.94,1.94,0,0,0-.28-.48c0-.05-.12,0-.09,0a2,2,0,0,1,.26.44,1.05,1.05,0,0,1,.06.24,2.4,2.4,0,0,0,0,.28.5.5,0,0,0,0,.13.09.09,0,0,0,.11,0,.22.22,0,0,0,.14-.19,1.39,1.39,0,0,0,0-.5,2,2,0,0,0-.26-.58c0-.06-.12,0-.09.05Z"/><path class="cls-13" d="M80.36,44.81a2.27,2.27,0,0,1,.19.34c.07.13.14.26.2.39s0,.2.13.23a.19.19,0,0,0,.24-.17.05.05,0,0,0-.1,0,.08.08,0,0,1-.1.07s0,0,0-.06a2.33,2.33,0,0,0-.11-.28,6.38,6.38,0,0,0-.32-.57,0,0,0,1,0-.08.05Z"/><path class="cls-7" d="M93.77,38.54c-.56.19-1.12.39-1.67.6l-.44.17a1,1,0,0,0-.23.11.38.38,0,0,0,0,.1,1.49,1.49,0,0,1,0,.21c-.07.6-.13,1.21-.19,1.81-.09.77-.17,1.54-.25,2.32l-.09.87c0,.15,0,.29,0,.44v0a.05.05,0,0,0,.1,0L91,44.12c.07-.75.15-1.5.23-2.25l.21-2c0-.14,0-.28.05-.43h0s0,0,0,0,.06,0,.08,0l.34-.14,1.84-.67,0,0c.06,0,0-.11,0-.09Z"/><path class="cls-13" d="M92.4,42.54s0,0,0,0h.07l0,0,.08,0,.17.11.13.1.07.06a0,0,0,0,0,.07,0s0-.06,0-.07a1.84,1.84,0,0,0-.22-.17,1.25,1.25,0,0,0-.35-.21.12.12,0,0,0-.15,0c0,.06.06.11.09,0Z"/><path class="cls-13" d="M93.14,42.52c-.13-.08-.26-.17-.4-.24a1.13,1.13,0,0,0-.27-.13c-.07,0-.17,0-.19.07a.42.42,0,0,0,.08.28s.12,0,.08,0a.44.44,0,0,1-.07-.19v0h0s0,0,0,0h0l0,0a3.29,3.29,0,0,1,.49.26l.13.09s.1,0,0-.09Z"/><path class="cls-13" d="M93.22,42.18,92.78,42a1.39,1.39,0,0,0-.28-.12c-.08,0-.17,0-.19.08a.59.59,0,0,0,.07.29c0,.06.11,0,.09-.05h0s0,0,0-.06a.5.5,0,0,1,0-.13v0h0l0,0a3.48,3.48,0,0,1,.52.24l.15.07s.1,0,0-.08Z"/><path class="cls-13" d="M93.31,41.93l.08,0h.07l.14.09a0,0,0,0,0,.07,0,0,0,0,0,0,0-.06.77.77,0,0,0-.31-.16s0,0-.06,0,0,.05,0,.06Z"/><path class="cls-5" d="M83.26,34.61a3.1,3.1,0,0,0,.56-1.36c0-.43-.31-.63-.46-1a1,1,0,0,1,.11.77.93.93,0,0,0-.75-1,4.16,4.16,0,0,0-1.94.21c-.5.11-.61.53-.73,1a2,2,0,0,0-.13.91c0,.19.8,2.41.8,2.41.52-.47,1.14-1.34,1.67-1.82a7.81,7.81,0,0,1,.9-.71S83.22,34.64,83.26,34.61Z"/><path class="cls-6" d="M80.49,34.91a15.62,15.62,0,0,1,.05,2.6c-.13.21-.78.35-.7.37A2.18,2.18,0,0,0,81.77,39a1.82,1.82,0,0,0,.91-.15.57.57,0,0,0,0-1,.49.49,0,0,1-.29-.29,3.44,3.44,0,0,1-.13-1Z"/><path class="cls-6" d="M81.64,33.21A1.29,1.29,0,0,0,81,34c0,.23-.11.51-.31.49s-.2-.58-.6-.4-.1,1.29.48,1.21c0,0,.1.73.44,1a2.65,2.65,0,0,0,1.47.62c.52-.07.84-.59.82-1.69s.23-2-.17-1.94A9.64,9.64,0,0,1,81.64,33.21Z"/><path class="cls-14" d="M81.91,35.84a2.71,2.71,0,0,0,1,0s.06.44-.48.42C82.05,36.27,81.91,35.84,81.91,35.84Z"/><path class="cls-8" d="M80.36,32.65a1.07,1.07,0,0,1,.39-.18.62.62,0,0,1,.4.05.78.78,0,0,1,.41.68.05.05,0,0,0,.1,0,.86.86,0,0,0-.46-.76.74.74,0,0,0-.44-.08,1.16,1.16,0,0,0-.45.21s0,.12,0,.08Z"/><path class="cls-8" d="M81.53,32.41a.8.8,0,0,1,.23.77c0,.06.08.08.1,0a.91.91,0,0,0-.26-.86c0-.05-.11,0-.07.07Z"/><path class="cls-13" d="M82.69,35.59a.46.46,0,0,0,.21-.44s0,0-.06,0a.06.06,0,0,0,0,.06h0v.08a.43.43,0,0,1,0,.05l0,0a.29.29,0,0,1-.13.14s0,.12,0,.09Z"/><path class="cls-13" d="M80.45,34.93a3.93,3.93,0,0,0,.39,1.17,2.34,2.34,0,0,0,.87.72,1.31,1.31,0,0,0,.59.13c.06,0,.06-.11,0-.1a1.53,1.53,0,0,1-1-.4,2.67,2.67,0,0,1-.37-.38,1.57,1.57,0,0,1-.23-.51c-.06-.22-.09-.44-.16-.65,0-.06-.12,0-.1,0Z"/><path class="cls-8" d="M83.33,32.37a.85.85,0,0,1,0,.91,0,0,0,1,0,.08,0,1,1,0,0,0,0-1,.05.05,0,1,0-.09,0Z"/><path class="cls-5" d="M81.52,34.43a.75.75,0,0,1,.18-.08.58.58,0,0,1,.19,0,.73.73,0,0,1,.3.16s.1,0,0-.09a.82.82,0,0,0-.35-.17.71.71,0,0,0-.21,0l-.21.09a.05.05,0,1,0,0,.09Z"/><path class="cls-5" d="M82.86,34.42c.12-.12.38-.19.5,0a0,0,0,1,0,.07-.07.36.36,0,0,0-.31-.11.53.53,0,0,0-.33.15c-.05,0,0,.12.07.07Z"/><path class="cls-5" d="M81.58,34a.57.57,0,0,1,.51,0,0,0,0,1,0,0-.08.69.69,0,0,0-.61,0c-.06,0,0,.11,0,.09Z"/><path class="cls-5" d="M82.9,34a.48.48,0,0,1,.26-.06h.16s0,0,0,0a.05.05,0,0,0,.05-.09l-.11,0h-.13a.55.55,0,0,0-.31.07.05.05,0,1,0,.05.09Z"/><path class="cls-5" d="M82,34.52a.21.21,0,0,1-.4-.09.21.21,0,0,1,.25-.16A.21.21,0,0,1,82,34.52Z"/><path class="cls-5" d="M83.33,34.5a.21.21,0,1,1-.16-.25A.21.21,0,0,1,83.33,34.5Z"/><path class="cls-6" d="M62.94,30.84a17.25,17.25,0,0,0-.22,2.3,2.05,2.05,0,0,0,1,.87,12.3,12.3,0,0,0,.83-1.18L65.68,30Z"/><path class="cls-6" d="M67.37,31.32a15.41,15.41,0,0,0,0,2.31,2,2,0,0,0,1.07.75,11.77,11.77,0,0,0,.7-1.27l.3-3Z"/><path class="cls-8" d="M62.35,33.45l0,.06a5.33,5.33,0,0,0-.3.87,3.41,3.41,0,0,0,1,.6.16.16,0,0,1,.16,0l.11.23a13.25,13.25,0,0,0,1.76.72c.65.16.84,0,.89,0s.06-.36.06-.36a7.24,7.24,0,0,1-.89-.08,4.88,4.88,0,0,1-1.81-1.11C62.86,33.9,62.35,33.45,62.35,33.45Z"/><path class="cls-7" d="M62.72,32.6c-.14.06-.43,1.1-.46,1.16A14.34,14.34,0,0,0,64,35.17a5.76,5.76,0,0,0,1.94.46c.13,0,.2-.44.12-.65s-1.34-1.33-1.34-1.44,0-.16,0-.28a.46.46,0,0,0-.54-.49.35.35,0,0,0-.14.06c-.21.16-.27.66-.45.68S62.72,32.6,62.72,32.6Z"/><path class="cls-8" d="M67.07,34A.24.24,0,0,0,67,34a4.07,4.07,0,0,0-.21.9,3.37,3.37,0,0,0,1.06.48.18.18,0,0,1,.16,0l.13.22a12.68,12.68,0,0,0,1.84.51c.65.1.83-.06.88-.13a1.17,1.17,0,0,0,0-.36,8.09,8.09,0,0,1-.9,0,4.89,4.89,0,0,1-1.92-.9C67.63,34.36,67.07,34,67.07,34Z"/><path class="cls-7" d="M67.35,33.09a4.73,4.73,0,0,0-.34,1.2,15.69,15.69,0,0,0,1.84,1.22,5.55,5.55,0,0,0,2,.24c.13,0,.15-.46.06-.65s-1.48-1.19-1.5-1.29,0-.15,0-.27a.47.47,0,0,0-.59-.44l-.13.07c-.2.19-.2.7-.37.73S67.35,33.09,67.35,33.09Z"/><path class="cls-14" d="M69.7,32.59a9.12,9.12,0,0,1-2.82-.19L67,29.18,67,27.73l-1.81,4.44a9.77,9.77,0,0,1-2.56-.41,17.43,17.43,0,0,1,.59-3.86c.5-1.5.85-2.06.69-2.09s-6,.41-7.28.2c-.46-.08-.89-1-.8-1.94a9.92,9.92,0,0,1,.41-1.91l.32-1.41,2.38.09c.13,0,5.2.94,8.48,1.69a9.6,9.6,0,0,1,2.75.82c0,.16,0,1.32-.09,2.77C70,28.85,69.7,32.59,69.7,32.59Z"/><path class="cls-1" d="M70.12,26.12A14.47,14.47,0,0,1,67,29.18L67,27.73a16.8,16.8,0,0,0,1-3.66,2.92,2.92,0,0,0-.59-1.54,9.6,9.6,0,0,1,2.75.82C70.25,23.51,70.2,24.67,70.12,26.12Z"/><path class="cls-8" d="M67.09,27.74c.15-.59.31-1.18.5-1.76l.21-.57c.07-.17.16-.33.22-.51a3.68,3.68,0,0,0,.14-1.28,7.17,7.17,0,0,0-.07-.81c0-.07-.11,0-.1,0a5.08,5.08,0,0,1,.07.67,4.17,4.17,0,0,1-.1,1.27,4.55,4.55,0,0,1-.21.51,5.2,5.2,0,0,0-.21.55c-.14.39-.25.8-.36,1.2q-.11.34-.18.69a0,0,0,1,0,.09,0Z"/><path class="cls-8" d="M64,25.84c.09-.15.19-.3.29-.44a5.31,5.31,0,0,1,.62-.78,1,1,0,0,1,.36-.27c.06,0,0-.12,0-.1a1.84,1.84,0,0,0-.67.6,8.29,8.29,0,0,0-.55.77l-.1.17c0,.05.05.1.08.05Z"/><path class="cls-8" d="M64.44,23.87a3,3,0,0,0-.22.52,1.79,1.79,0,0,0,0,1c0,.06.12,0,.1,0a1.66,1.66,0,0,1,0-1,3.45,3.45,0,0,1,.2-.48,0,0,0,1,0-.08-.05Z"/><path class="cls-8" d="M57.12,21.53h0v0s0,.06,0,.08a2.76,2.76,0,0,1-.08.27,7.13,7.13,0,0,0-.18.8,2.21,2.21,0,0,0,.06.92.84.84,0,0,0,.22.39,1.62,1.62,0,0,0,.67.26,7.7,7.7,0,0,0,1.06.14c.43,0,.86,0,1.29,0s.91,0,1.37,0l1.26-.07,1-.07.56-.06h.07s0,0,0,0-.07,0-.07,0h0l.06.08.09.12c0,.08.1.16.16.24s.06.12.12.09l-.08,0s0,0,0,0,0,0,0,0l0,.12-.16.46c-.18.5-.35,1-.52,1.51s-.39,1.26-.56,1.9A13.84,13.84,0,0,0,63,30.51a4.18,4.18,0,0,0,0,.71,1.4,1.4,0,0,0,.11.5l.06.09c0,.05.12,0,.08,0a.91.91,0,0,1-.14-.43,3.76,3.76,0,0,1,0-.67,11.57,11.57,0,0,1,.32-1.74c.16-.64.35-1.27.55-1.9s.35-1.05.53-1.56l.18-.51a1.57,1.57,0,0,0,.09-.23s0,0,0,0,0-.06-.07,0h0a.05.05,0,0,0,0,0,.61.61,0,0,1-.07-.1c-.06-.09-.12-.17-.17-.26s-.07-.12-.13-.15h0s0,0,0,0,0,0,0,0h-.07s0,0,0,0h-.05l-.28,0-.89.07c-.4,0-.8.06-1.19.07s-.9,0-1.34,0-.88,0-1.32,0a8.47,8.47,0,0,1-1.12-.1,2.22,2.22,0,0,1-.76-.22.49.49,0,0,1-.19-.15,1.22,1.22,0,0,1-.14-.36,1.88,1.88,0,0,1,0-.47,3.58,3.58,0,0,1,.13-.86c0-.19.13-.37.16-.56s0-.11,0-.14-.12,0-.07.07Z"/><path class="cls-15" d="M61.09,11.61l-1,.23s-2.33.79-2.62,1.52-.93,5.55-1.17,6.21a5.72,5.72,0,0,0-.06,1.71,19.35,19.35,0,0,0-.31,2.51,35.66,35.66,0,0,1,3.83-2.12c.54-.08,5.62-.31,5.62-.31s1.23-2.52,1.34-2.94A14.42,14.42,0,0,0,65,14.36a11.08,11.08,0,0,0-1.71-1.75Z"/><path class="cls-6" d="M66.7,18.42s-1.23-1-2.08-.5a1.16,1.16,0,0,0-.51,1.6c.19.16,1.71,1.44,2,1.14A10,10,0,0,0,66.7,18.42Z"/><path class="cls-6" d="M65.58,20.51c-.06.06-.13.15-.22.15s-.1,0-.15,0-.08,0-.13,0-.07-.06-.12-.07-.11.05-.18,0,0,0-.07-.05-.15,0-.21-.15a1.66,1.66,0,0,1-.15-.7,1.66,1.66,0,0,0,0-.22c-.07,0-.12.14-.15.19A2,2,0,0,1,64,20s-.12.13-.16.06,0-.12,0-.15a2.8,2.8,0,0,0,0-.4,2.56,2.56,0,0,1,0-.39.9.9,0,0,1,.08-.23,1.14,1.14,0,0,1,.17-.15,1.13,1.13,0,0,1,.56-.32,1,1,0,0,1,.94.07c.1.08.22.1.28.23a1,1,0,0,1,.06.34,6,6,0,0,1,0,.73A1.43,1.43,0,0,1,65.58,20.51Z"/><path class="cls-5" d="M67.73,16.26c-.52.56-2.68,6.26-2.84,6.19s-4.82-.68-4.82-.68l0,.29s4.47,1.19,4.84,1.3,6.92,1.28,7.15,1.18a49,49,0,0,0,3-6.26C75,17.85,67.73,16.26,67.73,16.26Z"/><path class="cls-6" d="M58,19.53a13.09,13.09,0,0,1,2.52-.63,4.12,4.12,0,0,1,.25.86,2.66,2.66,0,0,1,1.63.09c.94.32,3.8,1.6,3.8,1.6l0,1.21S59.92,22.22,59,21.6A3.28,3.28,0,0,1,58,19.53Z"/><path class="cls-16" d="M56.89,16.54c0,.27,0,.55.08.82.05.51.1,1,.18,1.53,0,.19.06.39.11.58s0,.24.13.26a.22.22,0,0,0,.11,0l.18,0,.59-.16,1.54-.42,1-.28c.08,0,.07-.07.06-.14s0-.26,0-.39c-.06-.45-.14-.91-.21-1.36l-.24-1.53c-.06-.31-.11-.63-.16-1v0h0a.05.05,0,1,0-.1,0c0,.22.07.45.11.67.08.48.16.95.23,1.42s.16,1,.23,1.46c0,.27.07.53.1.8h0s0,0,0,0h0l-.13,0-.5.14-1.49.42c-.39.1-.77.21-1.16.3h-.07s0,0,0,0a2.36,2.36,0,0,1-.11-.44c-.08-.49-.14-1-.19-1.46S57,17,57,16.6v-.06c0-.06-.11-.06-.1,0Z"/><path class="cls-16" d="M60.32,14.52c0,.33,0,.65,0,1v.14a.05.05,0,0,0,.1,0l0-1v-.14a.05.05,0,0,0-.1,0Z"/><path class="cls-16" d="M64.09,15.14a7.87,7.87,0,0,1,.12,1.19,5.39,5.39,0,0,1,0,1c0,.35-.11.7-.17,1l-.09.5.1,0a3.38,3.38,0,0,1,.25-.82,1.71,1.71,0,0,1,.38-.53,1.27,1.27,0,0,1,.81-.28.83.83,0,0,1,.44.09c.06,0,.11-.06.05-.09a.83.83,0,0,0-.38-.1,1.47,1.47,0,0,0-.87.22,2,2,0,0,0-.7,1.14,3.59,3.59,0,0,0-.08.35c0,.06.09.09.1,0q.14-.7.24-1.41a7,7,0,0,0,.08-1,8.47,8.47,0,0,0-.07-.88l-.06-.46c0-.06-.11,0-.1,0Z"/><path class="cls-8" d="M75,18.23l-.51-.13-1.29-.32-1.67-.42L69.82,17c-.44-.1-.88-.21-1.33-.3l-.4-.09a.44.44,0,0,0-.2,0c-.06,0-.1.13-.12.18s-.16.31-.23.47l-.69,1.46-.71,1.56-.42.92,0,0c0,.06.06.11.08,0l.3-.64c.22-.49.44-1,.67-1.46s.47-1,.72-1.55c.09-.19.18-.39.28-.58a2.06,2.06,0,0,1,.17-.33s0,0,0,0l0,0s0,0,0,0h0l.31.06c.4.08.79.18,1.19.27l1.63.4,1.7.42,1.39.35.73.18h0a.05.05,0,0,0,0-.1Z"/><path class="cls-6" d="M66,21.66a1.43,1.43,0,0,1,.13-.28c.24-.4.57-.43,1-.5.16,0,.62-.2.71-.05s-.28.41-.43.49c.22,0,1.48.05,1,.52.16.16,0,.37-.19.39a.26.26,0,0,1-.13.3c.21.61-1.27.32-1.53.3C65.88,22.78,65.79,22.21,66,21.66Z"/><path class="cls-13" d="M67.38,21.82c.21,0,.43,0,.64,0l.3,0c.07,0,.16.05.14.15s-.34.15-.49.15l-.64,0a.05.05,0,1,0,0,.1l.6,0a.92.92,0,0,0,.52-.07.24.24,0,0,0,.07-.34c-.1-.12-.31-.1-.45-.11a5.3,5.3,0,0,0-.69,0,.05.05,0,0,0,0,.1Z"/><path class="cls-13" d="M67.27,22.56l.42,0c.11,0,.22,0,.33,0a.28.28,0,0,0,.24-.1.27.27,0,0,0,0-.31c0-.06-.12,0-.09,0a.17.17,0,0,1,0,.24.58.58,0,0,1-.23,0l-.64,0c-.06,0-.06.09,0,.1Z"/><path class="cls-13" d="M66.71,21.4a8.44,8.44,0,0,1,.87,0,.05.05,0,0,0,0-.1,8.44,8.44,0,0,0-.87,0c-.06,0-.06.11,0,.1Z"/><path class="cls-16" d="M62.41,13.05a7.06,7.06,0,0,1,.1.77,8.89,8.89,0,0,1,0,1.71,5.06,5.06,0,0,1-.19,1,.05.05,0,0,0,.1,0,6.51,6.51,0,0,0,.21-1.87,10,10,0,0,0-.11-1.43c0-.09,0-.17,0-.26a.05.05,0,0,0-.1,0Z"/><path class="cls-13" d="M62,7.13c-.5.15-.75.83-.83,1.24a11.84,11.84,0,0,0,.26,2.68c.08,0,3.31-1.22,3.43-1.29a2.14,2.14,0,0,0,.56-1.4C65.4,7.8,64.36,6.43,62,7.13Z"/><path class="cls-16" d="M61.53,10.76s-1.32.94-1.39,1.06a2.61,2.61,0,0,0,.36,1.48,2.35,2.35,0,0,0,1.29,1.21c.11,0,.68-1,.75-1s.41.84.51.8A5,5,0,0,0,63.54,13c0-.09-.84-1.11-.79-1.12S61.53,10.76,61.53,10.76Z"/><path class="cls-6" d="M61.8,10A15.38,15.38,0,0,1,61,11.69c-.21.26,1.05,1.86,1.53,1.64s.15-.7.18-.79.23-1,.23-1Z"/><path class="cls-6" d="M62.64,8.8a2,2,0,0,0-.35.69c0,.14-.11.24-.18.21s0-.54-.42-.64-.42.43-.32.86.38.3.4.38c.09.33.18,1,.27,1.21s1,.89,1.32.84a1.93,1.93,0,0,0,1.28-1.54c.25-1.09.48-1.59.32-1.77s-.4.07-1-.08S62.79,8.68,62.64,8.8Z"/><path class="cls-13" d="M61.69,10a1.46,1.46,0,0,1,0,.36,1.73,1.73,0,0,0,0,.32c0,.12,0,.23.07.35a2.82,2.82,0,0,0,.07.31,1,1,0,0,0,.36.46,2.44,2.44,0,0,0,.51.35c.06,0,.11-.05.05-.08a3.54,3.54,0,0,1-.51-.35.92.92,0,0,1-.33-.47c0-.2-.09-.41-.13-.62a4.91,4.91,0,0,0-.06-.66c0-.06-.11,0-.09,0Z"/><path class="cls-13" d="M63.75,11.14a.4.4,0,0,0,.21-.09.3.3,0,0,0,.1-.19s0-.06,0,0a0,0,0,0,0-.05,0h0v0h0v0h0l0,0h0a.05.05,0,0,1,0,0h-.07a.05.05,0,0,0,0,.05s0,.05,0,.05Z"/><path class="cls-17" d="M61.92,7.53a1,1,0,0,0,.12.7,1.41,1.41,0,0,0,.44.53c.05,0,.1,0,.05-.09a1.34,1.34,0,0,1-.4-.48A1,1,0,0,1,62,7.55a0,0,0,1,0-.09,0Z"/><path class="cls-17" d="M61.71,7.58a.72.72,0,0,0,.12.55.05.05,0,1,0,.09-.05.64.64,0,0,1-.12-.48,0,0,0,0,0,0-.06s-.06,0-.06,0Z"/><path class="cls-17" d="M64.46,9.07a1.29,1.29,0,0,0,1-.57c0-.05-.05-.1-.09-.05a1.12,1.12,0,0,1-.88.52c-.06,0-.06.11,0,.1Z"/><path class="cls-14" d="M63,11.15a2.27,2.27,0,0,0,.94.33.47.47,0,0,1-.6.23C63.17,11.64,63.05,11.28,63,11.15Z"/><path class="cls-5" d="M63,9.78a.68.68,0,0,1,.67.12s.12,0,.07-.08a.77.77,0,0,0-.77-.13c-.06,0,0,.12,0,.09Z"/><path class="cls-5" d="M64.46,10.15a.32.32,0,0,1,.17,0l.08,0h0l0,0c0,.05.12,0,.09-.05a.35.35,0,0,0-.45-.13s0,0,0,.07a0,0,0,0,0,.07,0Z"/><path class="cls-5" d="M63.19,9.27a.62.62,0,0,1,.62.24.06.06,0,0,0,.07,0,.07.07,0,0,0,0-.07.76.76,0,0,0-.74-.29c-.06,0,0,.11,0,.1Z"/><path class="cls-5" d="M64.63,9.66a.25.25,0,0,1,.17,0l.09,0h0l0,0,0,0A0,0,0,1,0,65,9.7a.36.36,0,0,0-.45-.13.07.07,0,0,0,0,.07.05.05,0,0,0,.07,0Z"/><path class="cls-5" d="M63.57,10a.23.23,0,0,1-.27.19.23.23,0,0,1-.19-.26.23.23,0,0,1,.27-.19A.23.23,0,0,1,63.57,10Z"/><path class="cls-5" d="M64.79,10.35a.23.23,0,0,1-.45-.07.23.23,0,1,1,.45.07Z"/><path class="cls-13" d="M64.28,18.54a.81.81,0,0,0-.34.32,2,2,0,0,0-.13.55l0,.3c0,.1,0,.21,0,.31a.1.1,0,0,0,.11.1A.32.32,0,0,0,64,20a2.56,2.56,0,0,0,.35-.51l-.09,0a4.06,4.06,0,0,0,.08.7,2,2,0,0,0,.08.33.19.19,0,0,0,.2.12c.08,0,.11-.14.13-.22s0-.23,0-.34,0-.49,0-.74a.05.05,0,1,0-.1,0c0,.19,0,.39,0,.58s0,.2,0,.3a.87.87,0,0,1-.05.28c-.07.13-.13-.1-.14-.14l-.06-.28a3.93,3.93,0,0,1-.06-.59.05.05,0,0,0-.1,0,2.44,2.44,0,0,1-.32.47l-.09.09h0v0s0-.06,0-.09l0-.3A2.43,2.43,0,0,1,64,19a.69.69,0,0,1,.34-.39c.06,0,0-.11,0-.08Z"/><path class="cls-13" d="M64.62,20.59a.2.2,0,0,0,.27.07.47.47,0,0,0,.22-.32,2.34,2.34,0,0,0,.09-.46c0-.17,0-.35.07-.52s-.09-.06-.1,0c0,.26-.06.52-.11.78a1,1,0,0,1-.11.34c0,.07-.18.16-.25.06a0,0,0,1,0-.08.05Z"/><path class="cls-13" d="M64.88,20.59a.22.22,0,0,0,.3.13.57.57,0,0,0,.31-.26,1.2,1.2,0,0,0,.17-.42c0-.17.07-.35.11-.52a0,0,0,1,0-.09,0l-.09.41a2.59,2.59,0,0,1-.11.37.88.88,0,0,1-.19.27c-.08.06-.26.15-.32,0a0,0,0,0,0-.09,0Z"/><path class="cls-13" d="M65.22,20.69c.2.1.39-.06.5-.22a2.06,2.06,0,0,0,.25-.68A2.42,2.42,0,0,0,66,19a.81.81,0,0,0-.87-.73.05.05,0,1,0,0,.1.7.7,0,0,1,.75.54,1.89,1.89,0,0,1,0,.67,2.51,2.51,0,0,1-.17.61.77.77,0,0,1-.17.29.27.27,0,0,1-.29.09c-.06,0-.11.06,0,.09Z"/><path class="cls-13" d="M64.15,18.75a.85.85,0,0,1,.68-.69,1.57,1.57,0,0,1,1.1.23,0,0,0,1,0,0-.08A1.62,1.62,0,0,0,64.79,18a1,1,0,0,0-.74.75c0,.07.09.09.1,0Z"/><path class="cls-12" d="M7.84,57.92S6,59.93,6,60.27l0,.34s1.79.26,2.38-.55a6.68,6.68,0,0,0,.9-1.84v2h.26s.68-2.81.46-3.24S7.84,57.92,7.84,57.92Z"/><path class="cls-6" d="M6.94,59.2a1.64,1.64,0,0,0,1.32-.59c.47-.64,1.28-1.71,1.79-1.67a1.39,1.39,0,0,1-.25-.51c0-.17.51-1.83.51-1.83s-1.66-.3-1.75-.13S8,57.16,7.79,57.71A7.41,7.41,0,0,1,6.94,59.2Z"/><path class="cls-12" d="M18,47.65l-.06.06c-.79.69-6.08.45-6.08.45s0,.17,0,.53,0,.87,0,1.6a43.9,43.9,0,0,1-1.37,5.76,3.5,3.5,0,0,1-2.73,0s.17-2.48.45-4.91a18.63,18.63,0,0,1,.83-4.38,17.93,17.93,0,0,1,2.8-1.66c1.33-.71,2.64-1.37,2.7-1.37S18.58,46.88,18,47.65Z"/><path class="cls-18" d="M11.89,48.16s0,.17,0,.53a1.54,1.54,0,0,0-.76.71,5.11,5.11,0,0,1-2.9,1.87l0-.09a18.63,18.63,0,0,1,.83-4.38,17.93,17.93,0,0,1,2.8-1.66A55.43,55.43,0,0,1,18,47.71C17.18,48.4,11.89,48.16,11.89,48.16Z"/><path class="cls-12" d="M2.87,52.52S.26,53.36.13,53.68L0,54s1.44,1.09,2.36.67A6.8,6.8,0,0,0,4,53.5l-1,1.72.22.12s2-2.13,2-2.6S2.87,52.52,2.87,52.52Z"/><path class="cls-6" d="M1.47,53.2a1.65,1.65,0,0,0,1.44.12c.72-.33,2-.87,2.37-.58a1.46,1.46,0,0,1,0-.57c.08-.15,1.34-1.36,1.34-1.36s-1.31-1.07-1.47-1-1.83,2.06-2.24,2.46A7.44,7.44,0,0,1,1.47,53.2Z"/><path class="cls-12" d="M10.22,43.34c-.41.56-5.79,7-5.79,7.21S5.32,52,6.09,52c0,0,4.22-3.24,4.82-4.14a2.84,2.84,0,0,0,.59-1.27s3.88,1.27,4.4,1.4A5.9,5.9,0,0,0,18.24,48a9.64,9.64,0,0,0-.47-4.1C17.35,43.3,10.61,42.83,10.22,43.34Z"/><path class="cls-19" d="M8.38,50.29l.52-.42c.37-.3.74-.6,1.09-.92a7.18,7.18,0,0,0,.9-.93,4.51,4.51,0,0,0,.48-.86,4.56,4.56,0,0,0,.28-.81,3.78,3.78,0,0,0,.1-.57,2.43,2.43,0,0,0,0-.27h0c0-.07-.11-.07-.1,0a2.09,2.09,0,0,1-.06.66,4.94,4.94,0,0,1-.73,1.72,2.58,2.58,0,0,1-.33.41l-.49.48c-.35.32-.72.63-1.08.93l-.63.5h0c-.05,0,0,.13.05.09Z"/><path class="cls-19" d="M15.55,48.11a10.82,10.82,0,0,1-1.12-.17,8.21,8.21,0,0,1-2-.67,2.16,2.16,0,0,1-.83-.67c0-.05-.13,0-.09,0a2.21,2.21,0,0,0,.73.63,5.42,5.42,0,0,0,1,.44,11.37,11.37,0,0,0,1.92.44l.42.05c.06,0,.06-.09,0-.1Z"/><path class="cls-19" d="M17.34,44.69a2.41,2.41,0,0,1,0,.6,1.41,1.41,0,0,1-.4,1,.94.94,0,0,1-.65.2c-.3,0-.61,0-.91-.06-.74-.08-1.48-.21-2.21-.35l-.92-.17a3.32,3.32,0,0,0-.55-.09s-.08,0-.11,0h0l0,0-.23.25-1,1-1.41,1.4L7.43,50,6.21,51.17l-.65.64,0,0s0,.11.07.07l.45-.45,1.12-1.11L8.64,48.9l1.46-1.45,1.12-1.13.33-.34.08-.09,0,0,0,0s0,0,0,0h.08l.1,0,.15,0,.81.15c.73.14,1.46.27,2.2.37a8.47,8.47,0,0,0,1,.1,2.27,2.27,0,0,0,.69,0,1,1,0,0,0,.65-.7,2.7,2.7,0,0,0,.12-.94.86.86,0,0,0,0-.16.05.05,0,0,0-.1,0Z"/><path class="cls-20" d="M14.57,35.39a8.33,8.33,0,0,0-2,.86c-.42.39-1.79,1.83-1.79,1.83s1.31,5.05,1.44,5.05a8.8,8.8,0,0,1,3.45.77,17.54,17.54,0,0,0,2.53,1.6c.22-.07-.39-1.7-.36-2s.18-7,0-7.26-1.88-.86-1.88-.86Z"/><path class="cls-6" d="M12.56,41.91l2-.19a4.17,4.17,0,0,1,.2,1.76,12.86,12.86,0,0,1-2.24-.32C12.56,43,12.56,41.91,12.56,41.91Z"/><path class="cls-20" d="M17.55,36.13a2.28,2.28,0,0,0-1.35,2c-.07.45.48,3.65.29,3.45a3,3,0,0,0-1.92.13,4,4,0,0,0,.2,1.76,8.61,8.61,0,0,0,2.65.1c.48-.16.8-.23.93-2.21a28.6,28.6,0,0,0-.19-4.64C18,36.32,17.83,36,17.55,36.13Z"/><path class="cls-21" d="M12.69,36.54s.16,1,0,1.18a2.37,2.37,0,0,0-.8,1.35,13,13,0,0,0,.64,2.84s-1.15-.48-1.25-1.37a4.47,4.47,0,0,1,.26-2.27C11.79,38,12.69,36.54,12.69,36.54Z"/><path class="cls-14" d="M12.64,36.54c0,.33.08.66.09,1v.09s0,0,0,0,0,0,0,0l-.16.17a3.31,3.31,0,0,0-.5.68,1.68,1.68,0,0,0-.17.42,1.71,1.71,0,0,0,0,.39,3.1,3.1,0,0,0,.12.8c0,.24.13.48.2.72l.29,1v0c0,.06.11,0,.1,0-.09-.3-.18-.61-.26-.91s-.14-.44-.2-.67a2.35,2.35,0,0,1,0-1.57,2.68,2.68,0,0,1,.5-.74l.18-.2a.19.19,0,0,0,.07-.12,4.71,4.71,0,0,0,0-.53l-.06-.51v0c0-.06-.11-.06-.1,0Z"/><path class="cls-14" d="M13,40.26a3.09,3.09,0,0,1,2,.1c.06,0,.08-.07,0-.1a3.27,3.27,0,0,0-2.05-.1.05.05,0,0,0,0,.1Z"/><path class="cls-14" d="M16.15,38.27c0,.22,0,.45.07.67l.13,1.37.11,1.1c0,.05,0,.16,0,.2l.16.1a2.37,2.37,0,0,1,.3.23.85.85,0,0,1,.23.27s0,.09,0,.08h0l0,0a.91.91,0,0,1-.21-.18,1.57,1.57,0,0,1-.18-.19l0,0a0,0,0,1,0-.07.07,2.09,2.09,0,0,0,.2.22,1.14,1.14,0,0,0,.16.15.31.31,0,0,0,.14.09c.16,0,.11-.18.06-.25a1.25,1.25,0,0,0-.38-.38,3.88,3.88,0,0,0-.33-.23l0,0c0-.37-.08-.74-.11-1.11l-.18-1.77c0-.14,0-.28,0-.41s-.11-.07-.1,0Z"/><path class="cls-14" d="M14.61,41.76a.94.94,0,0,1,.5-.24,2.81,2.81,0,0,1,.58,0l.56.06.28,0c.06,0,.06-.09,0-.1l-.8-.08a1.67,1.67,0,0,0-1,.11,1,1,0,0,0-.2.15s0,.11.07.07Z"/><path class="cls-12" d="M14.39,30.57c-.23-.22,0-.69.14-.89a1.44,1.44,0,0,1,1.38-.51c.7.24.73,1.08.5,1.68a.87.87,0,0,1-1.21.53,2.75,2.75,0,0,1-.6-.53C14.52,30.76,14.49,30.62,14.39,30.57Z"/><path class="cls-12" d="M12.49,33a2.41,2.41,0,0,1-.42-1.1c0-.53.58-1,1.36-1.44s2.35.46,2.43.67a8.62,8.62,0,0,1,.41,1.32,2.09,2.09,0,0,1-.41,1.39c-.33.33-.54.49-.55.61a29.09,29.09,0,0,1-2.79-1.4Z"/><path class="cls-6" d="M13.89,34.72a5,5,0,0,1,.06,1,2.53,2.53,0,0,0-.28,1c0,.37.18,1.75.37,1.75s.36-1.16.9-1.78,1-.94,1-1.1-.45-.13-.61-.67S15,33.34,15,33.34Z"/><path class="cls-2" d="M11.94,42.74l-7.64.47a.07.07,0,0,1-.09-.07l-.46-5.79a.09.09,0,0,1,.08-.08l7.65-.48a.1.1,0,0,1,.09.07l.45,5.8S12,42.73,11.94,42.74Z"/><path class="cls-6" d="M3.7,40.9c-.08-.27,0-.36,0-.61s0-.58,0-.62a.21.21,0,0,1,.23.11,1.06,1.06,0,0,1,0,.31c0,.06,0,.13,0,.19s0,.11,0,.14.11-.08.16-.11l.21-.12A2.63,2.63,0,0,1,4.78,40,.39.39,0,0,1,5,40a.85.85,0,0,1,.11.14c.07.08,0,.12.06.23l.06,0a.41.41,0,0,1,.05.09.12.12,0,0,1,0,.16,1.13,1.13,0,0,1-.1.13l-.38.46-.06.07s.55-.59.59-.55.16.06.07.28-1.09,1.33-1.24,1.21A7.45,7.45,0,0,1,3.7,40.9Z"/><path class="cls-6" d="M12.53,41.83s-.34-.88-.72-1.08-1-.23-1,0c0,0,0,.1,0,.12a1.59,1.59,0,0,1,.59.24c.43.22.45.32.45.32s-1-.6-1.11-.48a.14.14,0,0,0,0,.22.29.29,0,0,0-.05.27c.05.16.59.42.81.61s-.67-.38-.78-.32-.13.13,0,.22.74.69.92.88a1.61,1.61,0,0,0,.89.4C12.75,43.21,12.94,42.06,12.53,41.83Z"/><path class="cls-6" d="M12.52,32.1c.07-.24.12.18.57.17s1-.57,1.1-.52a.49.49,0,0,1,.21.3c0,.13.17.91.33.85s.37-.89.57-.33,0,.76-.24.9a.71.71,0,0,1-.19.1s.23.59,0,.9-.78.83-1.13.8-.78-.34-1-1.08A4,4,0,0,1,12.52,32.1Z"/><path class="cls-14" d="M13.12,34.23a1.71,1.71,0,0,0,.86-.16.44.44,0,0,1-.38.56C13.28,34.67,13.12,34.23,13.12,34.23Z"/><path class="cls-13" d="M14.11,35.23a1.76,1.76,0,0,0,.72-.71,2.79,2.79,0,0,0,.08-1.15.05.05,0,1,0-.1,0c0,.19,0,.38,0,.57a1.38,1.38,0,0,1-.09.53,1.65,1.65,0,0,1-.68.68c-.05,0,0,.12,0,.08Z"/><path class="cls-13" d="M13.1,33.74a.26.26,0,0,0,.12.29s.06,0,.07,0a.05.05,0,0,0,0-.07h0s0,0,0,0h0s0,0,0,0h0v0h0v0h0v0s0-.05,0-.06a0,0,0,0,0-.06,0Z"/><path class="cls-14" d="M14.3,30.43a2.55,2.55,0,0,1,.92.37,4.56,4.56,0,0,1,.39.27,1,1,0,0,1,.31.32c0,.05.12,0,.09-.06A1.3,1.3,0,0,0,15.7,31c-.13-.11-.27-.2-.41-.3a2.86,2.86,0,0,0-1-.39c-.07,0-.09.09,0,.1Z"/><path class="cls-14" d="M14.54,30.42a1.78,1.78,0,0,1,.66-.75,1.2,1.2,0,0,1,1.06-.21s.11-.06,0-.08a1.22,1.22,0,0,0-1.12.18,1.93,1.93,0,0,0-.74.81c0,.06.06.11.09.05Z"/><path class="cls-14" d="M14.75,30.51a1.73,1.73,0,0,1,.65-.61l.45-.26a.86.86,0,0,1,.5-.11c.06,0,.09-.09,0-.1a.88.88,0,0,0-.5.09,4.91,4.91,0,0,0-.5.28,1.88,1.88,0,0,0-.71.66c0,.06.06.11.09.05Z"/><path class="cls-14" d="M15.34,30.83a1.54,1.54,0,0,1,.34-.28,1.21,1.21,0,0,1,.2-.09.28.28,0,0,1,.2,0c.14.08.07.27,0,.38a.81.81,0,0,1-.29.29c-.06,0,0,.11.05.08a.7.7,0,0,0,.28-.26.54.54,0,0,0,.14-.38.27.27,0,0,0-.25-.23.74.74,0,0,0-.38.12,1.48,1.48,0,0,0-.36.3s0,.12.07.07Z"/><path class="cls-14" d="M14.22,31.74a1.23,1.23,0,0,1,.36-.66.66.66,0,0,1,.7-.24c.06,0,.11-.06.05-.08a.74.74,0,0,0-.79.21,1.45,1.45,0,0,0-.42.74.05.05,0,0,0,.1,0Z"/><path class="cls-14" d="M12.56,32a.51.51,0,0,1,0-.53,1.4,1.4,0,0,1,.35-.42,2.32,2.32,0,0,1,.92-.51,2.05,2.05,0,0,1,.6-.07.05.05,0,1,0,0-.1,2.26,2.26,0,0,0-1.13.28,2.62,2.62,0,0,0-.48.34,1.44,1.44,0,0,0-.37.48.59.59,0,0,0,.06.6c0,.05.11,0,.07-.07Z"/><path class="cls-5" d="M13.59,33.05a.46.46,0,0,1,.55-.1s.1-.06,0-.09a.56.56,0,0,0-.67.12s0,.12.07.07Z"/><path class="cls-5" d="M13.56,32.58a.53.53,0,0,1,.56-.13s.06,0,.06,0a0,0,0,0,0,0-.06.6.6,0,0,0-.66.15,0,0,0,1,0,.07.07Z"/><path class="cls-5" d="M12.62,33.18l0,0,0,0,.09,0,.09,0a.13.13,0,0,1,.07,0s.05,0,.07,0,0-.06,0-.07a.36.36,0,0,0-.46,0s0,0,0,.07a.06.06,0,0,0,.08,0Z"/><path class="cls-5" d="M12.57,32.71a.2.2,0,0,1,.14-.06h.09l.11,0a.05.05,0,1,0,0-.1l-.11,0h-.13a.25.25,0,0,0-.19.09s0,0,0,.07.06,0,.07,0Z"/><path class="cls-5" d="M14,33a.17.17,0,0,1-.11.22.18.18,0,0,1-.23-.11.2.2,0,0,1,.12-.23A.18.18,0,0,1,14,33Z"/><path class="cls-5" d="M13,33.18a.18.18,0,0,1-.12.23.19.19,0,0,1-.22-.12.17.17,0,0,1,.12-.22A.18.18,0,0,1,13,33.18Z"/><path class="cls-14" d="M14.75,43.53c.34,0,.67.09,1,.12s.57.05.86.06a4.91,4.91,0,0,0,.77,0c.16,0,.39,0,.46-.22s-.07-.08-.09,0l-.05,0-.07,0a.92.92,0,0,1-.25.06,4.41,4.41,0,0,1-.73,0c-.51,0-1-.07-1.54-.13l-.34,0c-.06,0-.09.09,0,.1Z"/><path class="cls-13" d="M12.44,41.76c0,.13.1.26.14.4a.57.57,0,0,1-.06.36c0,.06.08.09.1,0a.77.77,0,0,0,.07-.39,1.8,1.8,0,0,0-.08-.21c0-.07,0-.14-.07-.22s-.12,0-.1,0Z"/><path class="cls-13" d="M10.73,41.27c0-.06.06-.08.1-.07a.42.42,0,0,1,.15,0,2,2,0,0,1,.31.13,1.11,1.11,0,0,1,.45.41s.11,0,.08-.05a1.25,1.25,0,0,0-.6-.51l-.2-.07a.65.65,0,0,0-.2,0c-.1,0-.22.08-.18.19s.11,0,.09,0Z"/><path class="cls-13" d="M5.47,40.87c0-.07-.14-.14-.23-.09a.87.87,0,0,0-.11.09L5,41a2.43,2.43,0,0,0-.41.44c0,.05,0,.1.08.05A2,2,0,0,1,5,41.09l.18-.17s.06-.06.1-.05.06,0,.08.07.11,0,.07-.07Z"/><path class="cls-13" d="M4.49,41.16l.33-.38L5,40.6c0-.05.1-.13.17-.15a.07.07,0,0,1,.1,0,.19.19,0,0,1,0,.16A2.26,2.26,0,0,1,5,41s0,.12.07.07.19-.2.27-.31a.33.33,0,0,0,0-.33.18.18,0,0,0-.26-.06,1.14,1.14,0,0,0-.16.15l-.16.17-.35.4s0,.12.07.07Z"/><path class="cls-13" d="M4.39,40.74a5.62,5.62,0,0,1,.44-.41L5,40.24s.07-.07.11-.06a.14.14,0,0,1,.1.21s0,.1.08,0a.24.24,0,0,0,0-.3A.17.17,0,0,0,5,40.08a.23.23,0,0,0-.14.07,7.17,7.17,0,0,0-.58.52c-.05,0,0,.11.07.07Z"/></svg>