<svg fill="none" height="60" viewBox="0 0 180 60" width="180" xmlns="http://www.w3.org/2000/svg" xmlns:xlink="http://www.w3.org/1999/xlink"><linearGradient id="a" gradientUnits="userSpaceOnUse" x1="6.38274" x2="6.01212" y1="21.5364" y2="39.5149"><stop offset=".21" stop-color="#00c7f6"/><stop offset=".9307" stop-color="#108fdb"/></linearGradient><g fill="#0059a2"><path d="m73.5432 39.9439c-2.796 2.7037-6.2795 4.0556-10.4276 4.0556-4.1482 0-7.6087-1.3519-10.3818-4.0327-2.773-2.7038-4.1481-5.9804-4.1481-9.8756v-.0917c0-3.9182 1.398-7.2406 4.1939-9.9443 2.8189-2.7038 6.3024-4.0557 10.4506-4.0557 4.1481 0 7.6087 1.3519 10.3817 4.0327 2.7731 2.7038 4.1481 5.9804 4.1481 9.8757v.0916c-.0229 3.9182-1.4209 7.2406-4.2168 9.9444zm-10.313-2.4976c2.1084 0 3.8043-.7103 5.0648-2.108 1.2834-1.3977 1.9022-3.1391 1.9022-5.2242v-.0917c0-2.0393-.6647-3.7807-1.9939-5.2471-1.3292-1.4665-3.0251-2.1768-5.0877-2.1768-2.1085 0-3.8044.7103-5.0649 2.108-1.2834 1.3978-1.9021 3.1392-1.9021 5.2243v.0916c0 2.0393.6646 3.7807 1.9938 5.2472 1.3063 1.4435 3.0022 2.1767 5.0878 2.1767z"/><path d="m80.8311 43.4267v-26.9231h7.6316v2.2455c2.0167-2.2684 4.8815-2.7496 7.9295-2.7496 3.5752 0 6.1188 1.4206 7.5858 4.2619 2.429-2.8413 5.386-4.2619 8.823-4.2619 2.888 0 5.111.8478 6.715 2.5434 1.582 1.6956 2.384 4.1473 2.384 7.3551v17.5287h-7.632v-15.0311c0-3.6432-1.49-5.4763-4.469-5.4763-1.444 0-2.567.4583-3.392 1.3977-.825.9395-1.237 2.2914-1.237 4.0786v15.0082h-7.6319v-15.0082c0-3.6432-1.4896-5.4763-4.469-5.4763-1.4438 0-2.5667.4583-3.3918 1.3977-.825.9395-1.2375 2.2914-1.2375 4.0786v15.0082h-7.6087z"/><path d="m46.6378 33.0474s-.0916.4812-.4354 1.4436c-2.0397 5.3617-5.9357 8.4779-11.5506 9.2569-6.8065.9395-13.2464-3.437-14.9882-9.9672-1.8563-6.9198 1.3522-13.7251 7.815-16.5205 7.1503-3.0933 15.9507.7332 18.5634 8.0426.3896 1.1685.2979 1.9018.2979 1.9018s-3.0939 0-3.8273 0c-.6646 0-3.7356 0-3.7356 0s-.1604-.2521-.8479-1.3061c-1.4668-2.2226-4.1711-2.9329-6.8754-2.1768-2.0855.5958-3.7585 2.7725-4.0106 5.2243-.5958 5.4304 3.5981 9.0049 8.4338 7.2406.8479-.2979 1.6501-.8478 2.223-1.3978.5042-.4811 1.1459-1.7184 1.1459-1.7184"/></g><path d="m6.21072 36.4839c3.43008 0 6.21068-2.7801 6.21068-6.2095s-2.7806-6.2095-6.21068-6.2095c-3.43009 0-6.21072 2.7801-6.21072 6.2095s2.78063 6.2095 6.21072 6.2095z" fill="url(#a)"/></svg>