<svg xmlns="http://www.w3.org/2000/svg" width="180" height="60" fill="none" viewBox="0 0 180 60"><path fill="#4F4F50" d="M96.36 32.662c0-2.192-.016-4.385.011-6.577.006-.46-.134-.565-.565-.548-.832.033-1.666-.004-2.499.016-.333.008-.467-.072-.462-.435a176.72 176.72 0 000-4.423c-.005-.356.115-.454.456-.446.833.02 1.667-.017 2.499.016.431.016.58-.087.571-.55-.03-1.645-.003-3.29-.019-4.934-.003-.363.049-.536.48-.53 1.874.024 3.749.022 5.623.001.42-.005.494.15.49.525-.018 1.626.007 3.251-.017 4.877-.007.432.091.578.555.572 1.988-.027 3.976-.001 5.964-.02.4-.004.56.062.55.516a98.257 98.257 0 00-.001 4.309c.009.44-.136.53-.547.525-2.007-.02-4.015.002-6.021-.019-.401-.004-.501.109-.5.503.016 4.102.01 8.203.013 12.305a8 8 0 00.101 1.355c.247 1.446.963 2.16 2.428 2.337 1.301.158 2.61.067 3.916.064.449-.002.621.083.611.578-.033 1.625-.01 3.251-.015 4.877-.001.206.091.477-.295.468-2.326-.057-4.663.17-6.977-.168-3.465-.504-5.357-2.41-6.021-5.917-.33-1.74-.341-3.493-.331-5.25.007-1.343.001-2.685.001-4.027zM149.414 30.117c0 5.764-.006 11.528.011 17.291.001.485-.093.642-.613.63-1.627-.04-3.256-.04-4.883-.002-.554.013-.727-.103-.724-.698.027-5.386.016-10.772.016-16.157 0-6.18.006-12.36-.012-18.539-.001-.474.122-.597.591-.589 1.647.03 3.294.034 4.941-.001.527-.012.69.094.688.661-.025 5.801-.015 11.603-.015 17.404zM41.825 34.694c0-4.234.007-8.468-.01-12.702-.002-.456.097-.611.583-.604 1.798.03 3.598.023 5.396.004.421-.004.586.075.585.552-.016 8.506-.015 17.012-.003 25.518.001.44-.103.578-.561.572-1.818-.027-3.636-.03-5.453.001-.481.009-.546-.165-.545-.581.013-4.253.008-8.507.008-12.76zM89.192 34.704c0 4.254-.006 8.507.01 12.761 0 .432-.09.577-.554.57-1.798-.03-3.598-.024-5.397-.004-.419.005-.586-.067-.585-.547.016-8.507.015-17.015.002-25.523 0-.44.108-.578.564-.572 1.78.027 3.56.029 5.34 0 .483-.008.637.087.634.61-.025 4.235-.014 8.47-.014 12.705zM0 44.01c.021-.74.049-1.475.187-2.203.183-.959.683-1.463 1.659-1.594a14.96 14.96 0 013.906-.005c1.021.132 1.57.66 1.717 1.67.21 1.43.207 2.866.002 4.295-.136.95-.662 1.483-1.626 1.636a12.863 12.863 0 01-4.071-.003C.825 47.654.352 47.15.182 46.21a6.393 6.393 0 01-.092-.673C.053 45.028.03 44.519 0 44.01zM48.304 15.377c-.018.68.017 1.362-.152 2.03-.157.623-.518 1.038-1.173 1.159a10.2 10.2 0 01-3.78-.005c-.695-.132-1.1-.575-1.218-1.252a11.176 11.176 0 01.002-3.89c.12-.683.541-1.12 1.23-1.245a10.451 10.451 0 013.78.001c.65.12 1.01.547 1.163 1.172.164.67.129 1.351.148 2.03zM89.174 15.355c-.042.588-.06 1.174-.131 1.755-.113.913-.528 1.355-1.431 1.5-1.11.18-2.225.165-3.338.01-.824-.116-1.365-.558-1.478-1.403-.172-1.277-.2-2.559.032-3.833.126-.69.57-1.095 1.254-1.22a10.488 10.488 0 013.558-.024c.885.142 1.282.571 1.399 1.465.076.58.092 1.167.135 1.75zM77.362 20.703c0-.338-.081-.459-.44-.456a318.3 318.3 0 01-5.682 0c-.38-.003-.487.117-.47.487.028.66.007 1.323.007 1.985-.339-.392-.66-.706-1.038-.966-.89-.61-1.892-.94-2.928-1.18-2.179-.507-4.37-.358-6.55-.044-4.416.637-6.7 3.091-6.878 7.54-.165 4.098-.132 8.205-.02 12.304.101 3.75 2.83 6.738 6.548 7.441 1.725.327 3.472.202 5.212.23a9.379 9.379 0 002.197-.245c1.434-.319 2.684-.92 3.44-2.336 0 .693.056 1.39-.011 2.076-.15 1.54-.91 2.686-2.332 3.377-.965.47-1.989.59-3.037.592-3.01.007-6.022.011-9.032-.005-.414-.002-.556.092-.549.53.026 1.664.02 3.328.004 4.991-.004.373.07.53.492.528 3.806-.017 7.613.025 11.419-.027 2.85-.038 5.403-.895 7.353-3.103 1.696-1.92 2.265-4.256 2.275-6.723.033-8.999.011-17.997.02-26.996zm-6.588 16.238c-.037 2.707-1.985 4.625-4.7 4.59-1.036-.014-2.084.029-3.099-.28-1.76-.537-2.943-1.646-3.059-3.518-.149-2.411-.228-4.842.046-7.247.252-2.218 1.42-3.31 3.635-3.61 1.05-.143 2.121-.168 3.175-.052 2.25.248 3.891 2.09 3.987 4.446.04.982.007 1.966.007 2.949h.01c0 .907.01 1.814-.002 2.722z"/><path fill="#4F4F50" fill-rule="evenodd" d="M29.98 20.284l-.001 2.594c-.686-1.075-1.608-1.599-2.623-1.93-3.314-1.08-6.641-.998-9.913.14-1.947.678-3.32 2.06-4.152 3.956-.501 1.144-.707 2.348-.709 3.588-.005 3.857-.005 7.713 0 11.57 0 .357.023.72.089 1.07.642 3.4 2.822 5.382 6.026 6.315 2.478.722 5.025.598 7.549.258 1.646-.222 3.012-.956 3.7-2.616a33.1 33.1 0 0 1 .025 2.385c-.011.345.082.449.439.445 1.893-.018 3.787-.02 5.68.001.393.004.466-.134.463-.488-.082-8.493-.073-16.986-.064-25.479.003-3.152.007-6.303.005-9.455 0-.42-.103-.548-.535-.542-1.78.024-3.56.03-5.34-.002-.515-.01-.657.122-.653.647.019 2.491.017 4.983.014 7.543zm-.006 15.333c-.01-.381-.02-.737 0-1.053 0-.404.002-.776.005-1.127.005-.705.009-1.324-.01-1.942-.075-2.45-1.5-4.246-3.705-4.644-.592-.107-1.192-.088-1.792-.07-.31.009-.62.018-.929.01-1.97-.05-4.288 1.473-4.447 4.342-.116 2.091-.076 4.195-.01 6.291.063 2.01 1.831 3.855 3.746 4.032.905.084 1.814.112 2.723.08 2.265-.077 3.978-1.584 4.337-3.81.117-.725.099-1.454.082-2.11z" clip-rule="evenodd"/><path fill="#4F4F50" d="M137.617 20.825c0-.421-.072-.59-.548-.582-1.818.03-3.636.028-5.453.001-.447-.006-.545.141-.524.55.032.638.008 1.278.008 1.917-.676-.938-1.596-1.433-2.594-1.758-3.293-1.074-6.603-1-9.864.102-1.91.646-3.28 1.977-4.164 3.798-.608 1.252-.835 2.584-.839 3.957-.012 3.61.011 7.221-.011 10.832-.023 3.632 1.725 6.1 4.989 7.518 2.868 1.246 5.888 1.049 8.886.65 1.524-.202 2.802-.912 3.597-2.367 0 .713.019 1.426-.007 2.138-.014.363.086.482.467.479a242.85 242.85 0 0 1 5.623.001c.429.005.48-.159.479-.526-.025-8.903-.041-17.807-.045-26.71zm-6.584 16.759c-.303 2.3-2.056 3.896-4.385 3.947-.888.02-1.78-.01-2.666-.078-1.853-.14-3.635-1.907-3.754-3.83-.139-2.244-.157-4.5.008-6.741.169-2.291 2.043-3.99 4.339-4.078.927-.036 1.862-.114 2.779.041 2.255.382 3.676 2.217 3.739 4.79.022.887.084 4.857-.06 5.949z"/></svg>