<svg xmlns="http://www.w3.org/2000/svg" viewBox="0 0 429.04 434.86"><defs><style>.cls-1{fill:#ebebeb;}.cls-2{fill:#fafafa;}.cls-3{fill:#e0e0e0;}.cls-4{fill:#f5f5f5;}.cls-5{fill:#2f57a4;}.cls-6{fill:#263238;}.cls-7{fill:#fff;}.cls-8{fill:#e8505b;}.cls-9{fill:#c69481;}.cls-10{fill:#936457;}.cls-11{opacity:0.6;}.cls-12{fill:#455a64;}.cls-13{opacity:0.3;}</style></defs><g id="Background_Complete" data-name="Background Complete"><rect class="cls-1" x="10.63" y="7.2" width="146.97" height="264.02"/><rect class="cls-2" x="16.5" y="14.86" width="133.71" height="248.5"/><polygon class="cls-3" points="163.81 273.6 157.59 271.22 157.59 2.73 163.81 2.73 163.81 273.6"/><path class="cls-4" d="M49.28,175.38,84,143.1c4.4-4.09,10.15-8.5,15.81-6.48,2.73,1,4.77,3.29,7.44,4.4,5.33,2.23,11.42-1,15.52-5.05s7.34-9.16,12.3-12.11,12.68-2.57,15.14,2.66v35.13l-50.47,21.6Z"/><path class="cls-3" d="M16.5,155.19c12.8-5.22,25.56-.79,34.72,9.56,1.93,2.18,3.69,4.69,6.34,5.89,3.58,1.63,7.73.41,11.64,0A29.27,29.27,0,0,1,96.74,184L54,205,16.5,204.7Z"/><path class="cls-1" d="M150.21,155.36c-8.43-4.07-15.85.85-23.62,6.06s-15,11.9-24.13,14c-6.09,1.41-12.62.63-18.51,2.73C72,182.41,65,197.65,52.29,198.38c-6.91.39-13.1-3.79-19.27-6.93s-11-6.13-16.52-1.93v73.84H150.21Z"/><rect class="cls-3" x="16.5" y="86.35" width="136.61" height="2.65"/><rect class="cls-3" x="16.5" y="145.52" width="136.61" height="2.65"/><rect class="cls-3" x="16.5" y="204.7" width="136.61" height="2.65"/><rect class="cls-3" x="-8.01" y="175.66" width="182.74" height="6.76" transform="translate(-95.68 262.39) rotate(-90)"/><rect class="cls-3" x="42.25" y="14.86" width="3.06" height="72.81"/><rect class="cls-3" x="68.64" y="14.86" width="3.06" height="72.81"/><rect class="cls-3" x="95.04" y="14.86" width="3.06" height="72.81"/><rect class="cls-3" x="121.43" y="14.86" width="3.06" height="72.81"/><rect class="cls-3" x="4.41" y="2.73" width="6.22" height="270.13"/><rect class="cls-3" x="4.41" width="159.4" height="7.2"/><rect class="cls-3" y="274.49" width="168.02" height="6.71"/><polygon class="cls-1" points="157.59 271.22 168.02 274.49 0 274.49 10.63 271.22 157.59 271.22"/><path class="cls-3" d="M159.33,348.67a16.49,16.49,0,0,1,4-1.78l.8-4,6.72-.17,1,3.94a16.33,16.33,0,0,1,4.09,1.58l3.38-2.25,4.87,4.63-2.08,3.49a16.66,16.66,0,0,1,1.78,4l4,.8.17,6.73-3.94,1a16.33,16.33,0,0,1-1.58,4.09l2.25,3.39L180.15,379l-3.49-2.08a16.62,16.62,0,0,1-4,1.77l-.8,4-6.72.17-1-3.95a16.3,16.3,0,0,1-4.09-1.57l-3.39,2.25L151.78,375l2.08-3.49a16.29,16.29,0,0,1-1.77-4l-4-.8-.16-6.72,3.94-1a16.85,16.85,0,0,1,1.57-4.09l-2.25-3.38,4.64-4.87,3.49,2.08ZM163,357.6a7.21,7.21,0,1,0,10.2-.25A7.21,7.21,0,0,0,163,357.6Z"/><path class="cls-3" d="M163,357.6a5.52,5.52,0,0,1,1.33-1.19,7.24,7.24,0,0,1,4.7-1.14,7.3,7.3,0,0,1,5.82,4,7.06,7.06,0,0,1,.67,2,6.87,6.87,0,0,1,.05,2.22,7.36,7.36,0,0,1-6,6.35,6.91,6.91,0,0,1-2.22.05,6.44,6.44,0,0,1-2-.57,7.3,7.3,0,0,1-4.3-5.61,7.2,7.2,0,0,1,.92-4.75A5.34,5.34,0,0,1,163,357.6s-.43.48-1,1.47a7.22,7.22,0,0,0-.77,4.63,7.07,7.07,0,0,0,4.16,5.31,6.6,6.6,0,0,0,2,.52,6.46,6.46,0,0,0,2.1-.06,7,7,0,0,0,5.71-6,6.7,6.7,0,0,0,0-2.1,6.45,6.45,0,0,0-.62-1.92,7.1,7.1,0,0,0-2.46-2.78,7,7,0,0,0-3.05-1.11,7.18,7.18,0,0,0-4.58,1C163.43,357.15,163,357.64,163,357.6Z"/><path class="cls-3" d="M159.33,348.67a.86.86,0,0,1-.23-.12l-.66-.38-2.63-1.53h.08l-4.61,4.9v-.13l2.27,3.37,0,.07,0,.06A16.47,16.47,0,0,0,152,359l0,.08-.08,0-3.94,1,.11-.14c.06,2.11.12,4.36.19,6.72l-.14-.16,4,.8.1,0,0,.1a16.41,16.41,0,0,0,1.77,4l0,.09,0,.09-2.08,3.5,0-.23,4.88,4.63-.24,0,3.38-2.26.1-.06.1.05a16.16,16.16,0,0,0,4.05,1.56l.11,0,0,.11c.32,1.24.66,2.59,1,3.95l-.2-.16,6.72-.17-.19.17c.25-1.26.52-2.62.8-4l0-.12.12,0a16.68,16.68,0,0,0,4-1.76h0l.11-.06.1.06,3.49,2.08-.25,0,4.64-4.87,0,.25c-.75-1.14-1.5-2.27-2.25-3.38l-.06-.11,0-.1a16.08,16.08,0,0,0,1.56-4l0-.12.12,0,3.94-1-.15.19c0-2.29-.1-4.54-.16-6.72l.16.18-4-.81-.11,0,0-.11a16.23,16.23,0,0,0-1.75-4l-.06-.1L182,354l2.09-3.48,0,.21-4.87-4.65.2,0L176,348.38l-.07.05-.08,0a16.62,16.62,0,0,0-4-1.58h-.08l0-.08c-.36-1.44-.68-2.73-1-4l.12.09-6.72.14.09-.07c-.33,1.59-.6,2.89-.83,4v0h0a17.13,17.13,0,0,0-3.07,1.2l-.72.39-.24.12.22-.15.71-.42a15.55,15.55,0,0,1,3.06-1.27l0,.05c.21-1.09.47-2.4.78-4v-.07h.08l6.72-.19h.1l0,.09c.31,1.22.64,2.51,1,3.94l-.1-.1a16.49,16.49,0,0,1,4.13,1.58h-.15l3.37-2.27.11-.07.09.09,4.88,4.63.1.09-.07.12c-.67,1.14-1.36,2.3-2.07,3.49V354a16.82,16.82,0,0,1,1.8,4l-.14-.13,4,.8.15,0v.15c.06,2.18.12,4.43.18,6.72v.16l-.15,0-3.94,1,.14-.15a16.86,16.86,0,0,1-1.59,4.14v-.21L185,374l.09.14-.12.12-4.63,4.87-.12.12-.14-.08-3.49-2.09h.21a17,17,0,0,1-4,1.79l.14-.16c-.27,1.37-.55,2.73-.8,4l0,.16h-.17l-6.72.17H165l0-.16-1-3.94.14.15a16.9,16.9,0,0,1-4.14-1.6h.21l-3.39,2.25-.13.09-.11-.11-4.86-4.64-.11-.11.07-.12,2.09-3.49v.19a17.13,17.13,0,0,1-1.79-4.06l.13.12-4-.81-.13,0v-.13c-.05-2.36-.1-4.61-.15-6.73v-.11l.11,0,3.94-1-.09.1a16.44,16.44,0,0,1,1.6-4.12v.13l-2.24-3.39,0-.07.06-.06,4.66-4.85,0,0,0,0,2.57,1.58.67.41Z"/><path class="cls-4" d="M127.63,305.69a17.45,17.45,0,0,1,4.27-1.89l.85-4.24,7.16-.18,1.06,4.19a17.49,17.49,0,0,1,4.35,1.68l3.6-2.39,5.19,4.93-2.22,3.71a17.45,17.45,0,0,1,1.89,4.27l4.25.85.17,7.16L154,324.84a17.49,17.49,0,0,1-1.68,4.35l2.4,3.61L149.79,338l-3.71-2.22a17.45,17.45,0,0,1-4.27,1.89L141,341.9l-7.16.17-1.06-4.19a17.49,17.49,0,0,1-4.35-1.68l-3.6,2.4-5.19-4.94,2.22-3.71a17.45,17.45,0,0,1-1.89-4.27l-4.25-.85-.17-7.16,4.19-1.06a17.64,17.64,0,0,1,1.68-4.35l-2.4-3.6,4.94-5.19,3.71,2.22Zm3.89,9.51a7.68,7.68,0,1,0,10.85-.27A7.67,7.67,0,0,0,131.52,315.2Z"/><path class="cls-4" d="M131.52,315.2a5.65,5.65,0,0,1,1.42-1.27,7.63,7.63,0,0,1,5-1.22,7.77,7.77,0,0,1,3.41,1.19,7.87,7.87,0,0,1,2.78,3.08,7.45,7.45,0,0,1,.71,2.15,7.17,7.17,0,0,1,.06,2.36,7.81,7.81,0,0,1-6.43,6.76,7.28,7.28,0,0,1-2.37.06,7.2,7.2,0,0,1-2.18-.61,7.85,7.85,0,0,1-3.22-2.62,7.71,7.71,0,0,1-1.35-3.35,7.62,7.62,0,0,1,1-5.05,5.74,5.74,0,0,1,1.2-1.48,17.27,17.27,0,0,0-1.05,1.56,7.64,7.64,0,0,0-.81,4.92,7.49,7.49,0,0,0,4.42,5.65,6.88,6.88,0,0,0,2.08.56,7,7,0,0,0,2.23-.06,7.45,7.45,0,0,0,6.08-6.39,7,7,0,0,0,0-2.24,6.79,6.79,0,0,0-.67-2A7.48,7.48,0,0,0,137.9,313a7.6,7.6,0,0,0-4.87,1.06A15.76,15.76,0,0,0,131.52,315.2Z"/><path class="cls-4" d="M127.63,305.69l-.24-.13-.71-.4-2.8-1.63H124l-4.91,5.22,0-.14,2.41,3.59,0,.06,0,.07a17.79,17.79,0,0,0-1.65,4.33l0,.08-.08,0-4.19,1.08.11-.16c.07,2.25.13,4.64.2,7.16l-.14-.17,4.24.84.11,0,0,.1a17.37,17.37,0,0,0,1.88,4.22l.06.1-.06.1-2.21,3.71,0-.24,5.19,4.93-.26,0,3.6-2.4.11-.07.11.06a17.62,17.62,0,0,0,4.3,1.65l.13,0,0,.13c.33,1.31.69,2.74,1.06,4.19l-.21-.16,7.15-.18-.21.17c.27-1.34.56-2.78.85-4.24l0-.13.13,0a17.15,17.15,0,0,0,4.21-1.86h0l.12-.07.11.07,3.71,2.21-.27,0,4.94-5.19,0,.28c-.8-1.22-1.6-2.42-2.39-3.61l-.07-.1.06-.12a17.63,17.63,0,0,0,1.66-4.3l0-.13.12,0,4.2-1.05-.16.2c-.06-2.44-.11-4.82-.17-7.15l.17.19-4.25-.85-.11,0,0-.11a17.31,17.31,0,0,0-1.86-4.23l-.06-.09.06-.1L154,307.7l0,.22L148.81,303l.21,0-3.61,2.38-.08.06-.08-.05a17.16,17.16,0,0,0-4.32-1.67l-.08,0,0-.08c-.38-1.53-.73-2.9-1.05-4.2l.13.1-7.16.14.1-.07-.88,4.23v.05h0a17.68,17.68,0,0,0-3.26,1.28l-.77.41-.26.13.24-.16q.24-.16.75-.45a17.63,17.63,0,0,1,3.26-1.35l0,0c.23-1.15.5-2.55.82-4.24l0-.08h.08l7.15-.21H140l0,.1c.34,1.29.69,2.67,1.08,4.19l-.11-.11a17.86,17.86,0,0,1,4.4,1.68h-.16l3.59-2.4.11-.08.1.09,5.19,4.93.11.1-.07.12-2.21,3.72v-.19a17.48,17.48,0,0,1,1.92,4.31l-.15-.14,4.24.84.16,0v.16q.09,3.5.18,7.15v.17l-.17,0-4.19,1.07.15-.16a17.54,17.54,0,0,1-1.69,4.41v-.23l2.4,3.6.09.15-.12.13L150,338.13l-.12.13-.15-.09L146,336h.23a17.54,17.54,0,0,1-4.32,1.92l.15-.17-.85,4.24,0,.17H141l-7.15.17h-.18l0-.16-1.05-4.2.15.16a17.52,17.52,0,0,1-4.4-1.71h.21l-3.6,2.39-.14.09-.11-.11c-1.8-1.72-3.56-3.39-5.18-4.95l-.12-.1.08-.14c.78-1.29,1.54-2.56,2.22-3.71v.2a17.74,17.74,0,0,1-1.91-4.32l.14.13-4.24-.86-.14,0v-.14c-.06-2.51-.11-4.9-.16-7.15v-.13l.12,0,4.2-1-.11.11a17.31,17.31,0,0,1,1.71-4.38v.13l-2.38-3.61,0-.07.06-.07c2-2.1,3.7-3.83,5-5.16l0,0,0,0,2.74,1.68.7.44Z"/><path class="cls-3" d="M194.39,344v0l-1.63-6.46a27.1,27.1,0,0,1-6.7-2.58l-5.56,3.7h0l-8-7.63h0l3.42-5.72a26.82,26.82,0,0,1-2.91-6.57l-6.55-1.31v0l-.27-11.06h0l6.46-1.63a27.25,27.25,0,0,1,2.58-6.7l-3.7-5.56h0l7.63-8h0l5.73,3.42a26.58,26.58,0,0,1,6.56-2.91l1.32-6.55h0l11.06-.27v0l1.63,6.46a27.1,27.1,0,0,1,6.7,2.58l5.56-3.7h0l8,7.63h0l-3.41,5.73a26.93,26.93,0,0,1,2.9,6.56l6.56,1.32h0l.27,11.06h0l-6.46,1.63a27.1,27.1,0,0,1-2.58,6.7l3.7,5.56h0l-7.63,8h0l-5.72-3.41a27.59,27.59,0,0,1-6.57,2.91l-1.32,6.55h0Zm-8.34-9.11h0a27.32,27.32,0,0,0,6.71,2.58h0l1.63,6.46,11-.27,1.31-6.55h0a27.3,27.3,0,0,0,6.58-2.92h0l5.71,3.42,7.6-8-3.7-5.56h0a27.32,27.32,0,0,0,2.58-6.71h0l6.46-1.63-.28-11-6.54-1.31h0a27,27,0,0,0-2.92-6.58h0v0l3.41-5.71-8-7.6-5.56,3.7h0a27.32,27.32,0,0,0-6.71-2.58h0v0l-1.63-6.45-11,.27-1.31,6.54h0a27.23,27.23,0,0,0-6.57,2.92h0l-5.71-3.41-7.6,8,3.7,5.55h0a27.32,27.32,0,0,0-2.58,6.71v0h0l-6.46,1.63.28,11,6.54,1.31v0a27.47,27.47,0,0,0,2.92,6.58h0L172.52,331l8,7.59Zm13.4-12.35a11.88,11.88,0,0,1-11.86-11.57,11.88,11.88,0,1,1,12.16,11.57Zm-8.57-20v0a11.83,11.83,0,0,0,8.56,20h.3a11.83,11.83,0,0,0-.28-23.66h-.3a11.72,11.72,0,0,0-8.28,3.67Z"/><path class="cls-1" d="M190.88,302.46a8.8,8.8,0,0,1,2.19-1.95,11.78,11.78,0,0,1,7.72-1.88,12,12,0,0,1,5.27,1.83,12.15,12.15,0,0,1,4.28,4.75,11.28,11.28,0,0,1,1.1,3.32,11.43,11.43,0,0,1,.09,3.65,12.07,12.07,0,0,1-9.93,10.43,11.44,11.44,0,0,1-3.64.09,11.16,11.16,0,0,1-3.37-.94,12.13,12.13,0,0,1-5-4,11.94,11.94,0,0,1-2.08-5.17,11.8,11.8,0,0,1,1.5-7.8,8.93,8.93,0,0,1,1.84-2.29c.06.06-.71.79-1.61,2.42a11.81,11.81,0,0,0-1.26,7.59,11.47,11.47,0,0,0,2.07,4.92,11.67,11.67,0,0,0,4.76,3.8,10.67,10.67,0,0,0,3.2.87,10.84,10.84,0,0,0,3.45-.1,11.47,11.47,0,0,0,9.38-9.86,10.55,10.55,0,0,0-.07-3.46,10.87,10.87,0,0,0-1-3.15,11.61,11.61,0,0,0-9-6.39,11.88,11.88,0,0,0-7.53,1.63A28.78,28.78,0,0,0,190.88,302.46Z"/><path class="cls-1" d="M184.89,287.79a1.8,1.8,0,0,1-.37-.19l-1.1-.63-4.32-2.51h.13l-7.57,8,0-.21,3.72,5.54.07.1-.06.11a27,27,0,0,0-2.55,6.67l0,.13-.13,0-6.47,1.65.19-.24c.09,3.48.19,7.17.29,11l-.21-.25,6.55,1.3.16,0,0,.16a26.79,26.79,0,0,0,2.9,6.51l.09.15-.09.16-3.41,5.73-.05-.37,8,7.61-.39,0,5.55-3.7.16-.11.17.09a27.12,27.12,0,0,0,6.64,2.56l.2,0,.05.19c.51,2,1.07,4.24,1.64,6.48l-.33-.25,11-.28-.32.27c.41-2.07.86-4.3,1.31-6.55l0-.2.2-.06a26.72,26.72,0,0,0,6.49-2.87h0l.18-.1.17.1,5.73,3.42-.42.06,7.62-8,0,.42-3.69-5.56-.11-.17.09-.18a26.44,26.44,0,0,0,2.56-6.63l.05-.2.19-.05,6.48-1.63-.25.33c-.08-3.77-.17-7.46-.26-11.05l.25.3-6.54-1.32-.18,0-.05-.17a26.77,26.77,0,0,0-2.88-6.52l-.09-.15.09-.16,3.43-5.72.05.35-8-7.63.32,0-5.56,3.69-.13.08-.12-.07a27.33,27.33,0,0,0-6.66-2.59l-.13,0,0-.13c-.59-2.35-1.12-4.47-1.62-6.48l.2.16-11,.22.14-.12-1.35,6.53,0,.07-.06,0a28,28,0,0,0-5,2l-1.18.63a2.39,2.39,0,0,1-.39.2,2.27,2.27,0,0,1,.36-.25c.25-.16.63-.4,1.16-.68a26.32,26.32,0,0,1,5-2.09l-.08.08c.35-1.79.77-3.94,1.27-6.55l0-.12h.12l11-.32H204l0,.16c.51,2,1.06,4.11,1.66,6.46l-.17-.16a27.36,27.36,0,0,1,6.79,2.59h-.25l5.54-3.71.18-.11.15.14,8,7.6.16.15-.12.2-3.41,5.74v-.31a27.51,27.51,0,0,1,3,6.65l-.23-.21,6.55,1.31.24.05v.25q.14,5.38.28,11V316l-.25.06-6.47,1.64.23-.24a27.22,27.22,0,0,1-2.61,6.8l0-.34,3.7,5.55.15.23-.18.19-7.62,8-.18.19-.24-.14-5.73-3.42h.35a27,27,0,0,1-6.66,2.95l.23-.25c-.45,2.24-.9,4.47-1.31,6.54l-.05.27h-.27l-11.05.27h-.26l-.07-.26-1.63-6.47.24.23a27.31,27.31,0,0,1-6.8-2.62l.34,0-5.56,3.7-.21.14-.19-.18-8-7.62-.17-.17.12-.21,3.43-5.72v.3a27.51,27.51,0,0,1-2.94-6.66l.22.2-6.55-1.33-.21,0v-.22c-.09-3.87-.17-7.56-.25-11v-.19l.18-.05,6.48-1.62-.16.17a27.66,27.66,0,0,1,2.63-6.77V298c-1.32-2-2.56-3.88-3.68-5.57l-.07-.12.09-.1,7.66-7.95.07-.07.07,0,4.22,2.58,1.09.68C184.76,287.7,184.89,287.78,184.89,287.79Z"/><path class="cls-3" d="M418.6,233.41A15,15,0,0,1,415,235l-.72,3.61-6.08.15-.9-3.57a14.89,14.89,0,0,1-3.7-1.42l-3.06,2-4.41-4.19,1.89-3.15a14.86,14.86,0,0,1-1.61-3.63l-3.6-.72-.15-6.08,3.56-.9a14.92,14.92,0,0,1,1.43-3.7l-2-3.06,4.19-4.4,3.16,1.88a15,15,0,0,1,3.62-1.61l.73-3.6,6.07-.15.9,3.56a14.77,14.77,0,0,1,3.7,1.43l3.06-2,4.41,4.19-1.89,3.16a14.62,14.62,0,0,1,1.61,3.62l3.6.73.15,6.08-3.56.9a15,15,0,0,1-1.42,3.7l2,3-4.19,4.41-3.16-1.88Zm-3.29-8.08a6.52,6.52,0,1,0-9.23.23A6.52,6.52,0,0,0,415.31,225.33Z"/><path class="cls-3" d="M415.31,225.33a5,5,0,0,1-1.21,1.07,6.48,6.48,0,0,1-4.25,1,6.65,6.65,0,0,1-5.26-3.62A6.25,6.25,0,0,1,404,222a5.88,5.88,0,0,1-.05-2,6.65,6.65,0,0,1,5.46-5.74,6.18,6.18,0,0,1,2-.05,6.06,6.06,0,0,1,1.85.52,6.55,6.55,0,0,1,3.88,5.07,6.51,6.51,0,0,1-.82,4.29,5,5,0,0,1-1,1.26s.39-.43.88-1.33a6.42,6.42,0,0,0,.69-4.18,6.3,6.3,0,0,0-1.14-2.71,6.42,6.42,0,0,0-2.61-2.09,6.52,6.52,0,0,0-1.77-.48,6.09,6.09,0,0,0-1.9.06A6.33,6.33,0,0,0,404.3,220a6,6,0,0,0,0,1.9,6,6,0,0,0,.56,1.73,6.4,6.4,0,0,0,2.22,2.51,6.29,6.29,0,0,0,2.76,1,6.51,6.51,0,0,0,4.14-.9C414.89,225.74,415.27,225.3,415.31,225.33Z"/><path class="cls-3" d="M418.6,233.41l.21.1.6.35,2.38,1.38h-.07c1.06-1.14,2.47-2.63,4.16-4.43v.12l-2.05-3.05,0-.06,0-.06a14.81,14.81,0,0,0,1.4-3.67l0-.07.07,0,3.56-.91-.1.13c0-1.92-.11-3.95-.16-6.08l.11.14-3.6-.71-.09,0,0-.09a14.84,14.84,0,0,0-1.59-3.59l-.05-.08.05-.08,1.87-3.16,0,.21-4.41-4.19.22,0-3.06,2-.09.06-.09-.06a14.8,14.8,0,0,0-3.66-1.4l-.1,0,0-.1-.9-3.57.18.14-6.08.16.18-.15-.73,3.6,0,.11-.11,0A14.64,14.64,0,0,0,403,208h0l-.1.06-.1-.06-3.15-1.88.23,0-4.2,4.4,0-.23,2,3.06.06.09,0,.1a14.52,14.52,0,0,0-1.41,3.65l0,.11-.1,0-3.57.9.14-.17c0,2.07.09,4.1.14,6.07l-.14-.16,3.6.73.1,0,0,.09a15.28,15.28,0,0,0,1.58,3.59l.06.09-.05.08-1.89,3.15,0-.19,4.4,4.2-.18,0,3.06-2,.07,0,.07,0a14.53,14.53,0,0,0,3.67,1.42l.07,0,0,.07.88,3.57-.11-.09,6.08-.12-.08.07c.3-1.44.55-2.62.75-3.6v0h0a14.5,14.5,0,0,0,2.78-1.09l.65-.34.21-.11-.2.14-.64.37a14.55,14.55,0,0,1-2.76,1.15l0,0c-.19,1-.42,2.17-.7,3.61v.07h-.07l-6.08.18h-.09l0-.09-.91-3.56.09.09a15.12,15.12,0,0,1-3.74-1.42h.14l-3,2-.1.07-.08-.08L396,231.73l-.09-.08.06-.11,1.88-3.16v.17a15.12,15.12,0,0,1-1.63-3.66l.13.12-3.61-.72-.13,0v-.14q-.09-3-.16-6.08v-.14l.13,0,3.57-.91-.13.14a14.53,14.53,0,0,1,1.44-3.75v.19l-2-3.06-.09-.12.11-.11,4.19-4.4.1-.11.13.08L403,207.7h-.19a15.45,15.45,0,0,1,3.67-1.63l-.13.15c.25-1.24.49-2.47.72-3.61l0-.14h.15l6.08-.14h.15l0,.14.9,3.57-.13-.13a15.3,15.3,0,0,1,3.74,1.44h-.19l3.07-2,.11-.08.1.1,4.4,4.19.1.1-.07.11-1.89,3.15v-.17a15.09,15.09,0,0,1,1.62,3.67l-.12-.11,3.6.73.12,0v.11c.05,2.14.09,4.17.14,6.08v.11l-.1,0-3.57.89.09-.09a14.86,14.86,0,0,1-1.45,3.72v-.12l2,3.07,0,.06L426,231l-4.22,4.38,0,0,0,0-2.33-1.42-.59-.38Z"/><path class="cls-3" d="M367.13,218.05h0l1.45,5.73a23.71,23.71,0,0,1,5.93,2.28l4.93-3.27h0l7.1,6.75v0l-3,5.06a24,24,0,0,1,2.57,5.82l5.81,1.17h0l.24,9.8h0l-5.73,1.45a23.57,23.57,0,0,1-2.29,5.94l3.28,4.92h0l-6.75,7.1h0l-5.07-3a24.18,24.18,0,0,1-5.81,2.58l-1.17,5.8h0l-9.8.24h0l-1.45-5.72a24.2,24.2,0,0,1-5.94-2.29l-4.92,3.28h0l-7.1-6.76h0l3-5.07a24.08,24.08,0,0,1-2.58-5.82l-5.8-1.16v0l-.24-9.8h0l5.72-1.45a24.13,24.13,0,0,1,2.29-5.93l-3.28-4.93h0l6.76-7.1h0l5.07,3a24.08,24.08,0,0,1,5.82-2.58l1.16-5.8h0Zm7.38,8.07h0a24,24,0,0,0-5.94-2.29h0l-1.44-5.72-9.76.24-1.16,5.79h0a23.77,23.77,0,0,0-5.83,2.58h0l-5.06-3-6.73,7.07,3.27,4.91h0a23.49,23.49,0,0,0-2.29,5.95h0l-5.72,1.44.24,9.76,5.8,1.16h0a24,24,0,0,0,2.59,5.83h0l-3,5.06,7.07,6.73,4.92-3.28h0a23.87,23.87,0,0,0,5.95,2.29h0v0l1.45,5.72,9.75-.24,1.17-5.8h0a23.73,23.73,0,0,0,5.82-2.59h0l5.07,3,6.73-7.07-3.28-4.92h0a24.27,24.27,0,0,0,2.29-5.95h0l5.72-1.45-.24-9.75-5.79-1.17h0a23.93,23.93,0,0,0-2.58-5.83h0l3-5.06-7.07-6.73Zm-11.87,10.94a10.24,10.24,0,1,1-.27,0Zm7.6,17.75h0a10.48,10.48,0,0,0-7.58-17.71h-.27a10.48,10.48,0,0,0,.25,21h.27a10.4,10.4,0,0,0,7.33-3.25Z"/><path class="cls-1" d="M370.24,254.81a8,8,0,0,1-1.95,1.73,10.42,10.42,0,0,1-6.83,1.67,10.64,10.64,0,0,1-4.67-1.62,10.77,10.77,0,0,1-3.8-4.22,10.17,10.17,0,0,1-1-2.94,10,10,0,0,1-.08-3.23,10.71,10.71,0,0,1,8.79-9.24,10.33,10.33,0,0,1,3.23-.08,10.19,10.19,0,0,1,3,.83,10.64,10.64,0,0,1,6.25,8.17,10.46,10.46,0,0,1-1.33,6.91,7.91,7.91,0,0,1-1.63,2c-.06-.05.62-.69,1.42-2.14a10.52,10.52,0,0,0,1.12-6.73,10.31,10.31,0,0,0-6-7.72,9.62,9.62,0,0,0-2.84-.77,9.49,9.49,0,0,0-3.05.09,10.15,10.15,0,0,0-8.32,8.74,10.18,10.18,0,0,0,1,5.85,10.28,10.28,0,0,0,8,5.66,10.5,10.5,0,0,0,6.67-1.45C369.57,255.47,370.18,254.76,370.24,254.81Z"/><path class="cls-1" d="M375.54,267.81l.33.17,1,.55,3.82,2.23h-.12l6.71-7.13,0,.19-3.29-4.9-.06-.09.05-.1a23.56,23.56,0,0,0,2.25-5.91l0-.12.12,0,5.73-1.46-.16.21c-.09-3.08-.17-6.35-.27-9.78l.19.22-5.8-1.15-.15,0,0-.14a23.4,23.4,0,0,0-2.57-5.77l-.08-.13.08-.14c.94-1.57,2-3.31,3-5.08l0,.33-7.1-6.74.35,0-4.92,3.28-.14.1-.15-.08a23.79,23.79,0,0,0-5.89-2.26l-.17,0,0-.18c-.46-1.79-.95-3.75-1.45-5.73l.29.22-9.78.25.28-.24c-.37,1.83-.76,3.81-1.16,5.8l0,.18-.17.05a23.44,23.44,0,0,0-5.76,2.55h0l-.16.09-.15-.09-5.08-3,.37,0L338.72,231l0-.37,3.28,4.92.1.15-.09.16a24.09,24.09,0,0,0-2.27,5.88l0,.17-.17,0-5.74,1.45.22-.29q.12,5,.23,9.78l-.22-.26,5.8,1.17.16,0,0,.16a23.61,23.61,0,0,0,2.55,5.77l.08.14-.08.13-3,5.07-.05-.3,7.08,6.76-.29,0,4.93-3.26.11-.08.11.07a23.78,23.78,0,0,0,5.9,2.29l.12,0,0,.11c.52,2.09,1,4,1.43,5.74l-.18-.13,9.78-.2-.12.11c.47-2.32.87-4.21,1.2-5.8v-.05l.05,0a25.21,25.21,0,0,0,4.47-1.75l1-.56.35-.18-.32.22c-.22.14-.56.35-1,.61a23.72,23.72,0,0,1-4.45,1.85l.07-.08-1.13,5.81,0,.11h-.11l-9.78.28h-.14l0-.14c-.45-1.77-.93-3.65-1.47-5.73l.15.14a24.23,24.23,0,0,1-6-2.29h.22l-4.91,3.29-.16.1-.13-.13-7.1-6.73L339,265l.11-.17,3-5.08V260a24.15,24.15,0,0,1-2.62-5.9l.2.19-5.8-1.16-.22,0v-.22c-.08-3.18-.17-6.45-.25-9.78v-.23l.22-.06,5.74-1.45-.21.21a24.21,24.21,0,0,1,2.31-6l0,.31-3.28-4.92-.13-.2.16-.17,6.74-7.09.17-.18.21.13,5.07,3h-.3a24.36,24.36,0,0,1,5.9-2.61l-.21.23c.4-2,.8-4,1.16-5.8l.05-.23h.24l9.78-.24h.24l.06.23,1.44,5.73-.21-.21a24.17,24.17,0,0,1,6,2.33h-.29c1.7-1.14,3.39-2.25,4.92-3.27l.19-.13.16.16,7.08,6.75.16.15-.11.18-3,5.08v-.27a24.34,24.34,0,0,1,2.6,5.9l-.19-.18,5.8,1.18.18,0v.19c.07,3.43.15,6.7.22,9.78v.17l-.17,0-5.74,1.44.15-.15a24.5,24.5,0,0,1-2.33,6v-.18l3.26,4.94.06.1-.08.09-6.79,7-.05.06-.07,0-3.74-2.29-1-.6Z"/><rect class="cls-3" x="375.43" y="19.86" width="8.07" height="40.15" transform="translate(-0.21 2.04) rotate(-0.31)"/><rect class="cls-1" x="305.47" y="20" width="20.9" height="22.17" transform="translate(-0.16 1.69) rotate(-0.31)"/><rect class="cls-4" x="326.27" y="19.88" width="20.9" height="22.17" transform="translate(-0.16 1.8) rotate(-0.31)"/><path class="cls-3" d="M305.44,26.17q20.83.18,41.7-.19a.22.22,0,0,0,0-.44q-20.83-.12-41.7.25a.19.19,0,0,0,0,.38Z"/><rect class="cls-1" x="292.43" y="41.84" width="37.97" height="18.06" transform="translate(-0.27 1.67) rotate(-0.31)"/><rect class="cls-4" x="330.22" y="41.64" width="37.97" height="18.06" transform="translate(-0.27 1.87) rotate(-0.31)"/><path class="cls-3" d="M292.41,47c25.22.29,50.53,0,75.75-.37a.22.22,0,0,0,0-.44c-25.22-.14-50.53-.12-75.75.43a.19.19,0,0,0,0,.38Z"/><rect class="cls-3" x="278.21" y="60" width="147.09" height="6.47"/><rect class="cls-3" x="302.29" y="63.12" width="5.97" height="22.08"/><rect class="cls-3" x="391.43" y="63.12" width="5.97" height="22.08"/><rect class="cls-1" x="383.34" y="4.88" width="8.07" height="55.22" transform="translate(-0.17 2.07) rotate(-0.31)"/><rect class="cls-4" x="391.45" y="15.18" width="12.54" height="44.75" transform="translate(-0.2 2.14) rotate(-0.31)"/><path class="cls-3" d="M403.79,23.76a45.18,45.18,0,0,1-6.27.22,45.18,45.18,0,0,1-6.27-.22,93.71,93.71,0,0,1,12.54,0Z"/><path class="cls-3" d="M403.79,21.88a45.18,45.18,0,0,1-6.27.22,45.18,45.18,0,0,1-6.27-.22,93.71,93.71,0,0,1,12.54,0Z"/><path class="cls-3" d="M403.79,53.16a89.46,89.46,0,0,1-12.54,0,89.46,89.46,0,0,1,12.54,0Z"/><path class="cls-3" d="M403.79,51.28a89.46,89.46,0,0,1-12.54,0,89.46,89.46,0,0,1,12.54,0Z"/><path class="cls-3" d="M397.72,47.18c-.12,0-.22-4.52-.22-10.08s.1-10.09.22-10.09.22,4.52.22,10.09S397.84,47.18,397.72,47.18Z"/><rect class="cls-1" x="403.92" y="26.13" width="13.65" height="33.78"/><path class="cls-3" d="M389.43,14.29A2.32,2.32,0,1,1,387.11,12,2.32,2.32,0,0,1,389.43,14.29Z"/><rect class="cls-3" x="386.39" y="20.67" width="1.43" height="32.85"/><polygon class="cls-1" points="317.71 398.94 323.18 434.86 354.94 434.86 362.31 399.45 317.71 398.94"/><path class="cls-2" d="M357.87,422c0,.1-8.14.19-18.18.19s-18.17-.09-18.17-.19,8.13-.19,18.17-.19S357.87,421.86,357.87,422Z"/><path class="cls-2" d="M358,420.19c0,.11-8.19.19-18.3.19s-18.3-.08-18.3-.19,8.2-.18,18.3-.18S358,420.09,358,420.19Z"/><path class="cls-2" d="M357.93,418.2c0,.1-8.19.18-18.3.18s-18.3-.08-18.3-.18,8.19-.19,18.3-.19S357.93,418.09,357.93,418.2Z"/><path class="cls-2" d="M326.83,432.81a27.77,27.77,0,0,1-1-4.52,30.3,30.3,0,0,1-.61-4.59,27.77,27.77,0,0,1,1,4.52A28.84,28.84,0,0,1,326.83,432.81Z"/><path class="cls-2" d="M329,432.43a97.74,97.74,0,0,1-.6-8.84A21.27,21.27,0,0,1,329,428,21.55,21.55,0,0,1,329,432.43Z"/><path class="cls-2" d="M332.92,432.43a22.8,22.8,0,0,1-.82-4.53,21.85,21.85,0,0,1-.24-4.59,42.71,42.71,0,0,1,.61,4.55A38,38,0,0,1,332.92,432.43Z"/><path class="cls-2" d="M335.69,432.62a22.45,22.45,0,0,1-.44-4.6,22.19,22.19,0,0,1,.14-4.62,40.27,40.27,0,0,1,.23,4.61A41.59,41.59,0,0,1,335.69,432.62Z"/><path class="cls-2" d="M340.58,432.43a26.27,26.27,0,0,1-.33-4.36,25,25,0,0,1,0-4.38,26.27,26.27,0,0,1,.33,4.36A25,25,0,0,1,340.58,432.43Z"/><path class="cls-2" d="M344.16,432.62a26.61,26.61,0,0,1-.15-4.52,28.08,28.08,0,0,1,.22-4.51,55.18,55.18,0,0,1-.07,9Z"/><path class="cls-2" d="M347.51,432.14a30.71,30.71,0,0,1,.27-4.72,30.37,30.37,0,0,1,.64-4.68,30.71,30.71,0,0,1-.27,4.72A30.37,30.37,0,0,1,347.51,432.14Z"/><path class="cls-2" d="M351.83,431.67a16.19,16.19,0,0,1,.53-4,16.73,16.73,0,0,1,1.18-3.88,32.52,32.52,0,0,1-.81,4A38.77,38.77,0,0,1,351.83,431.67Z"/><path class="cls-1" d="M348.77,328.05s0,.06,0,.17l-.15.51c-.14.47-.35,1.12-.6,1.94s-.6,1.87-.93,3.07-.77,2.57-1.15,4.1-.84,3.19-1.24,5-.81,3.75-1.22,5.79c-.76,4.09-1.46,8.62-1.95,13.4s-.68,9.37-.74,13.53c0,2.09,0,4.07.06,5.92s.13,3.57.22,5.15.22,3,.32,4.24.2,2.32.3,3.2.16,1.52.21,2c0,.21,0,.38.05.52s0,.18,0,.18,0-.06,0-.17-.05-.31-.08-.52c-.07-.49-.16-1.17-.28-2s-.26-1.94-.37-3.19-.28-2.67-.37-4.25-.23-3.3-.27-5.15-.08-3.84-.09-5.93c0-4.17.25-8.76.71-13.56s1.2-9.34,2-13.44c.43-2,.81-4,1.26-5.79s.87-3.48,1.29-5,.84-2.89,1.2-4.09.7-2.22,1-3.06.51-1.45.67-1.91c.08-.2.14-.37.19-.5S348.76,328,348.77,328.05Z"/><path class="cls-1" d="M343,350.29a11.75,11.75,0,0,1,4.94-6.24,2.84,2.84,0,0,1,2.61-.48c1.11.54,1.2,2.1.86,3.28a8.59,8.59,0,0,1-3.59,4.9,7.32,7.32,0,0,1-5.39,1.36"/><path class="cls-1" d="M341.11,365.31c.82-3.1,3.29-7.51,5.86-9.43a3.89,3.89,0,0,1,1.33-.71,1.58,1.58,0,0,1,1.43.31,2.21,2.21,0,0,1,.32,2.06,12.5,12.5,0,0,1-9.27,9.33"/><path class="cls-1" d="M340.58,378.53a18.13,18.13,0,0,1,5.91-7.43,2.83,2.83,0,0,1,2.06-.74c1.13.2,1.64,1.58,1.54,2.71-.21,2.34-2,4.22-3.84,5.67a23.84,23.84,0,0,1-5.47,2.81"/><path class="cls-1" d="M340.88,388a17.33,17.33,0,0,1,5-5.73,3.75,3.75,0,0,1,1.51-.68,1.55,1.55,0,0,1,1.48.57c.5.74,0,1.74-.52,2.45a14.25,14.25,0,0,1-7.18,5.27"/><path class="cls-1" d="M340.63,384.18a55.42,55.42,0,0,0-7.2-7.33c-.41-.35-.92-.71-1.43-.54a1,1,0,0,0-.66,1,2.63,2.63,0,0,0,.27,1.2,13.94,13.94,0,0,0,9.27,7.8"/><path class="cls-1" d="M340.86,371.81q-2.83-3.45-5.66-6.89a6.72,6.72,0,0,0-1.83-1.74,2.3,2.3,0,0,0-2.41,0,2.27,2.27,0,0,0-.78,2.27,6,6,0,0,0,1.11,2.27,16.81,16.81,0,0,0,4.12,4.37c1.66,1.15,3.16,1.89,5.16,1.59"/><path class="cls-1" d="M341.64,357.88a19.72,19.72,0,0,0-5.69-8.54,3.27,3.27,0,0,0-1.48-.86,2.49,2.49,0,0,0-2.59,1.82,4.66,4.66,0,0,0,.51,3.74,9.89,9.89,0,0,0,2.66,2.81,23.08,23.08,0,0,0,6.29,3.4"/><path class="cls-1" d="M343.9,345.47c-.55-4-2.63-7.32-5-10.56-.5-.68-1.21-1.4-2.05-1.27a1.61,1.61,0,0,0-1.18,1,3.78,3.78,0,0,0-.23,1.6,12.35,12.35,0,0,0,8,11"/><path class="cls-1" d="M345.48,339.13a33.65,33.65,0,0,1-.2-6.18,11.06,11.06,0,0,1,2.05-5.76,4.72,4.72,0,0,1,2.05-1.63,2.58,2.58,0,0,1,2.52.33,2.76,2.76,0,0,1,.86,2.22,6.85,6.85,0,0,1-.64,2.37c-1.5,3.62-4,7.63-6.64,8.65"/><path class="cls-3" d="M320.85,343.89a1.77,1.77,0,0,1,0,.5c0,.37,0,.85,0,1.45s0,1.4,0,2.3,0,1.91.11,3c.1,2.25.31,4.92.65,7.87s.87,6.18,1.57,9.54,1.55,6.52,2.4,9.37,1.75,5.38,2.56,7.47c.38,1.06.79,2,1.12,2.83s.63,1.53.89,2.11.42,1,.57,1.33a3,3,0,0,1,.17.48,3.06,3.06,0,0,1-.24-.44l-.63-1.31c-.28-.57-.6-1.27-.95-2.09s-.77-1.76-1.17-2.81c-.85-2.09-1.75-4.62-2.65-7.47s-1.72-6-2.44-9.39-1.19-6.62-1.54-9.58-.51-5.64-.58-7.9c0-1.12,0-2.15,0-3s0-1.67,0-2.3l.05-1.45A3.89,3.89,0,0,1,320.85,343.89Z"/><path class="cls-3" d="M321.74,360.27a8.4,8.4,0,0,1,2-5.31,2,2,0,0,1,1.67-.89c.87.12,1.27,1.17,1.3,2.05a6.18,6.18,0,0,1-1.39,4.1,5.18,5.18,0,0,1-3.38,2.09"/><path class="cls-3" d="M323.66,370.91a14.23,14.23,0,0,1,2-7.68,2.54,2.54,0,0,1,.76-.77,1.09,1.09,0,0,1,1-.1,1.54,1.54,0,0,1,.66,1.33,8.92,8.92,0,0,1-4.3,8.35"/><path class="cls-3" d="M326.14,380a13,13,0,0,1,2.43-6.34,2,2,0,0,1,1.25-.95c.8-.1,1.45.72,1.62,1.52.37,1.64-.44,3.3-1.39,4.68a16.52,16.52,0,0,1-3.12,3.09"/><path class="cls-3" d="M328.39,386.43a12.42,12.42,0,0,1,2.2-5,2.56,2.56,0,0,1,.88-.79,1.09,1.09,0,0,1,1.13.07c.5.39.39,1.18.18,1.78a10.22,10.22,0,0,1-3.76,5.13"/><path class="cls-3" d="M327.39,383.86a39.7,39.7,0,0,0-6.47-3.44,1.17,1.17,0,0,0-1.1-.07.79.79,0,0,0-.24.81,1.93,1.93,0,0,0,.45.75,10,10,0,0,0,8,3.32"/><path class="cls-3" d="M324.89,375.39l-5.34-3.48a4.79,4.79,0,0,0-1.62-.79,1.67,1.67,0,0,0-1.65.5,1.64,1.64,0,0,0,0,1.72,4.35,4.35,0,0,0,1.23,1.3,12.05,12.05,0,0,0,3.75,2.09,5,5,0,0,0,3.86,0"/><path class="cls-3" d="M322.42,365.74a14,14,0,0,0-5.71-4.59,2.29,2.29,0,0,0-1.19-.27,1.78,1.78,0,0,0-1.38,1.79,3.38,3.38,0,0,0,1.16,2.44,6.88,6.88,0,0,0,2.41,1.34,16.25,16.25,0,0,0,5,1"/><path class="cls-3" d="M321.29,356.8c-1.23-2.61-3.36-4.42-5.7-6.1a1.72,1.72,0,0,0-1.68-.43,1.16,1.16,0,0,0-.58.94,2.64,2.64,0,0,0,.19,1.14,8.81,8.81,0,0,0,7.83,5.78"/><path class="cls-3" d="M321,352.14a23.13,23.13,0,0,1-1.47-4.16,7.88,7.88,0,0,1,.16-4.36,3.42,3.42,0,0,1,1-1.56,1.88,1.88,0,0,1,1.79-.31,2,2,0,0,1,1.07,1.32,5.14,5.14,0,0,1,.07,1.75c-.24,2.79-1.09,6.06-2.66,7.32"/><path class="cls-1" d="M361,343.54a2.42,2.42,0,0,1,0,.5l.06,1.45c0,.63,0,1.41,0,2.3s0,1.92-.06,3c-.06,2.26-.25,4.94-.58,7.9s-.84,6.21-1.54,9.58-1.56,6.54-2.44,9.39-1.79,5.38-2.64,7.47c-.4,1.06-.82,2-1.17,2.81s-.68,1.52-.95,2.09l-.63,1.31a1.87,1.87,0,0,1-.25.44,2.74,2.74,0,0,1,.18-.47c.14-.34.33-.79.57-1.34s.56-1.28.89-2.11.73-1.77,1.11-2.83c.82-2.09,1.69-4.63,2.57-7.47s1.68-6,2.4-9.37,1.2-6.59,1.56-9.54.56-5.62.66-7.87c.07-1.12.08-2.14.11-3s0-1.67,0-2.29,0-1.09,0-1.45A3.28,3.28,0,0,1,361,343.54Z"/><path class="cls-1" d="M360.13,359.92a8.47,8.47,0,0,0-2-5.31,2.06,2.06,0,0,0-1.68-.89c-.87.13-1.27,1.17-1.3,2a6.24,6.24,0,0,0,1.4,4.11,5.21,5.21,0,0,0,3.38,2.08"/><path class="cls-1" d="M358.21,370.56a14.24,14.24,0,0,0-2-7.68,2.75,2.75,0,0,0-.75-.77,1.1,1.1,0,0,0-1-.1,1.58,1.58,0,0,0-.66,1.33,9,9,0,0,0,4.3,8.35"/><path class="cls-1" d="M355.72,379.68a13,13,0,0,0-2.42-6.34,2,2,0,0,0-1.25-.94c-.81-.11-1.45.72-1.63,1.51-.36,1.64.45,3.3,1.39,4.68a17,17,0,0,0,3.12,3.1"/><path class="cls-1" d="M353.47,386.08a12.54,12.54,0,0,0-2.19-5,2.66,2.66,0,0,0-.88-.79,1.09,1.09,0,0,0-1.13.07c-.51.4-.39,1.18-.18,1.78a10.23,10.23,0,0,0,3.76,5.14"/><path class="cls-1" d="M354.47,383.51a39.8,39.8,0,0,1,6.48-3.44A1.12,1.12,0,0,1,362,380a.76.76,0,0,1,.24.8,2,2,0,0,1-.44.76,10,10,0,0,1-8,3.31"/><path class="cls-1" d="M357,375l5.33-3.48a4.88,4.88,0,0,1,1.62-.79,1.66,1.66,0,0,1,1.65.5,1.64,1.64,0,0,1,0,1.72,4.26,4.26,0,0,1-1.24,1.3,12,12,0,0,1-3.75,2.1,4.9,4.9,0,0,1-3.85,0"/><path class="cls-1" d="M359.44,365.39a14.06,14.06,0,0,1,5.71-4.59,2.32,2.32,0,0,1,1.2-.27,1.76,1.76,0,0,1,1.37,1.8,3.28,3.28,0,0,1-1.16,2.43,6.88,6.88,0,0,1-2.41,1.34,16.18,16.18,0,0,1-5,1"/><path class="cls-1" d="M360.58,356.45a16.41,16.41,0,0,1,5.7-6.1,1.71,1.71,0,0,1,1.67-.43,1.17,1.17,0,0,1,.59.94,2.79,2.79,0,0,1-.19,1.14,8.82,8.82,0,0,1-7.83,5.78"/><path class="cls-1" d="M360.86,351.79a23.13,23.13,0,0,0,1.47-4.16,7.88,7.88,0,0,0-.15-4.36,3.44,3.44,0,0,0-1.05-1.56,1.87,1.87,0,0,0-1.79-.31,2,2,0,0,0-1.06,1.32,5.15,5.15,0,0,0-.08,1.75c.25,2.79,1.1,6.07,2.66,7.32"/><path class="cls-1" d="M314.07,391.82v6.72a2.64,2.64,0,0,0,2.64,2.65h46a2.64,2.64,0,0,0,2.64-2.65v-6.72Z"/><polygon class="cls-3" points="318.05 401.19 318.44 403.33 360.87 406.36 361.95 401.19 318.05 401.19"/><rect class="cls-3" x="330.91" y="102" width="60.02" height="62.56"/><rect class="cls-2" x="326.85" y="102" width="60.02" height="62.56"/><path class="cls-3" d="M386.89,164.58H326.83V102h60.06Zm-60,0h60V102h-60Z"/><rect class="cls-2" x="334.92" y="110.41" width="43.88" height="45.74"/><path class="cls-3" d="M334.92,156.46a7.4,7.4,0,0,1-1.08,1.26c-.71.73-1.69,1.74-2.79,2.82s-2.12,2.06-2.87,2.75a7,7,0,0,1-1.27,1.05,7.49,7.49,0,0,1,1.08-1.25c.7-.74,1.69-1.74,2.79-2.83s2.13-2.07,2.88-2.75A5.89,5.89,0,0,1,334.92,156.46Z"/><path class="cls-3" d="M378.8,156.34a7.84,7.84,0,0,1,1.26,1.09c.74.7,1.74,1.68,2.83,2.79s2.05,2.11,2.74,2.86a6.85,6.85,0,0,1,1.06,1.27,6.86,6.86,0,0,1-1.26-1.08c-.73-.7-1.74-1.68-2.83-2.79s-2.06-2.13-2.75-2.87A6.5,6.5,0,0,1,378.8,156.34Z"/><path class="cls-3" d="M378.68,110.53a7.4,7.4,0,0,1,1.08-1.26c.7-.74,1.69-1.74,2.79-2.83s2.12-2,2.87-2.74a6.85,6.85,0,0,1,1.27-1.06,6.86,6.86,0,0,1-1.08,1.26c-.7.74-1.69,1.74-2.79,2.83s-2.13,2.06-2.88,2.75A6.31,6.31,0,0,1,378.68,110.53Z"/><path class="cls-3" d="M334.8,110.64a6.86,6.86,0,0,1-1.26-1.08c-.74-.7-1.74-1.69-2.83-2.79s-2.06-2.12-2.74-2.87a7,7,0,0,1-1.06-1.26,6.32,6.32,0,0,1,1.25,1.07c.74.7,1.75,1.69,2.84,2.8s2.06,2.12,2.75,2.87A7.05,7.05,0,0,1,334.8,110.64Z"/><path class="cls-3" d="M378.68,156.15a2,2,0,0,1,0-.22c0-.16,0-.37,0-.64,0-.57,0-1.4,0-2.47,0-2.17,0-5.32,0-9.32,0-8-.05-19.43-.09-33.09l.17.17-43.76,0h0l.19-.19c0,16.79,0,32.5,0,45.74l-.17-.16,31.69.08,8.9,0,2.35,0h0l-2.33,0-8.86,0-31.79.09h-.17v-.17c0-13.24,0-28.95,0-45.74v-.2h.2l43.76,0h.17v.17c0,13.71-.07,25.16-.09,33.2,0,4,0,7.12,0,9.28,0,1.06,0,1.87,0,2.44,0,.26,0,.47,0,.62A1.23,1.23,0,0,1,378.68,156.15Z"/><rect class="cls-1" x="349.54" y="125.96" width="14.64" height="14.64"/></g><g id="Browser"><rect class="cls-2" x="30.58" y="260.06" width="372.3" height="48.51" rx="22.54"/><path class="cls-5" d="M317,260.06h64.2a21.71,21.71,0,0,1,21.71,21.71v5.08a21.71,21.71,0,0,1-21.71,21.71H317a0,0,0,0,1,0,0V260.06A0,0,0,0,1,317,260.06Z"/><path class="cls-6" d="M71.7,285.36v6.41H69.08v-6.08c0-2-1-2.95-2.66-2.95-1.87,0-3.12,1.13-3.12,3.37v5.66H60.68V276.22H63.3v5.66A5,5,0,0,1,67,280.45C69.71,280.45,71.7,282,71.7,285.36Z"/><path class="cls-6" d="M81.76,291.16a4.14,4.14,0,0,1-2.52.75c-2.45,0-3.85-1.3-3.85-3.77v-5.38H73.54v-2.1h1.85v-2.55H78v2.55h3v2.1H78v5.32c0,1.09.54,1.67,1.55,1.67a2.29,2.29,0,0,0,1.46-.46Z"/><path class="cls-6" d="M90.37,291.16a4.13,4.13,0,0,1-2.51.75c-2.46,0-3.86-1.3-3.86-3.77v-5.38H82.16v-2.1H84v-2.55h2.62v2.55h3v2.1h-3v5.32c0,1.09.54,1.67,1.55,1.67a2.32,2.32,0,0,0,1.47-.46Z"/><path class="cls-6" d="M104.41,286.17a5.45,5.45,0,0,1-5.68,5.74,4.59,4.59,0,0,1-3.58-1.51v5.43H92.53V280.58H95V282a4.64,4.64,0,0,1,3.71-1.59A5.45,5.45,0,0,1,104.41,286.17Zm-2.66,0a3.32,3.32,0,1,0-3.31,3.5A3.26,3.26,0,0,0,101.75,286.17Z"/><path class="cls-6" d="M106,282.19a1.72,1.72,0,1,1,3.44,0,1.72,1.72,0,1,1-3.44,0Zm0,8a1.72,1.72,0,1,1,3.44,0,1.72,1.72,0,1,1-3.44,0Z"/><path class="cls-6" d="M117.63,274.13H120l-6.92,19.73h-2.34Z"/><path class="cls-6" d="M123.94,274.13h2.35l-6.92,19.73H117Z"/><path class="cls-6" d="M144,280.58l-4.13,11.19h-2.51l-2.89-7.71-2.94,7.71H129l-4.11-11.19h2.47l3,8.25,3.08-8.25h2.2l3,8.3,3-8.3Z"/><path class="cls-6" d="M163,280.58l-4.13,11.19h-2.52l-2.89-7.71-2.93,7.71H148l-4.11-11.19h2.47l3,8.25,3.08-8.25h2.2l3,8.3,3-8.3Z"/><path class="cls-6" d="M182.06,280.58l-4.12,11.19h-2.52l-2.89-7.71-2.93,7.71h-2.52L163,280.58h2.47l3,8.25,3.08-8.25h2.2l3,8.3,3-8.3Z"/><path class="cls-6" d="M182.3,290.17a1.72,1.72,0,1,1,3.43,0,1.72,1.72,0,1,1-3.43,0Z"/><path class="cls-6" d="M380.34,308.57l2.07-.13c.68-.06,1.52-.22,2.52-.37a26.67,26.67,0,0,0,3.37-1,22.6,22.6,0,0,0,8.17-5.38,24,24,0,0,0,3.69-5.07,23.06,23.06,0,0,0,2.29-6.75,41.05,41.05,0,0,0,.3-8,22.3,22.3,0,0,0-2-8.54,22.69,22.69,0,0,0-5.73-7.63,21.89,21.89,0,0,0-9.11-4.77,22.54,22.54,0,0,0-5.41-.71H362.89l-25.91,0-283.83.06a22.42,22.42,0,0,0-21.9,17.87c-.12.83-.29,1.66-.35,2.5s-.11,1.67-.1,2.52v2.53c0,.85.08,1.68.11,2.51A22.27,22.27,0,0,0,50,308.11a16.49,16.49,0,0,0,2.43.21c.81.06,1.64,0,2.46,0h80.27l127.61.05,86,.07,23.39,0,6.09,0,2.07,0-2.07,0-6.09,0-23.39,0-86,.07-127.61,0H54.89c-.82,0-1.64,0-2.47,0a18.73,18.73,0,0,1-2.48-.22,22.7,22.7,0,0,1-19.46-20.27c0-.85-.1-1.71-.11-2.56v-2.53c0-.85.07-1.71.1-2.56s.24-1.7.36-2.55a22.85,22.85,0,0,1,22.32-18.21l283.83.06,25.91,0H380.5a22.54,22.54,0,0,1,5.47.73,22,22,0,0,1,9.2,4.83,22.84,22.84,0,0,1,5.76,7.72,22.46,22.46,0,0,1,2,8.61,40.57,40.57,0,0,1-.32,8,23,23,0,0,1-2.33,6.8,23.93,23.93,0,0,1-3.73,5.08,22.37,22.37,0,0,1-8.23,5.38,25.39,25.39,0,0,1-3.39,1c-1,.15-1.85.3-2.53.36Z"/><path class="cls-7" d="M353.46,290.94A10.51,10.51,0,1,1,364,280.43,10.52,10.52,0,0,1,353.46,290.94Zm0-20.18a9.68,9.68,0,1,0,9.68,9.67A9.69,9.69,0,0,0,353.46,270.76Z"/><path class="cls-7" d="M370,298.82a.39.39,0,0,1-.3-.13l-9.59-10.3a.41.41,0,0,1,0-.59.43.43,0,0,1,.59,0l9.58,10.31a.4.4,0,0,1,0,.58A.38.38,0,0,1,370,298.82Z"/><path class="cls-8" d="M189.52,295.4c-.12,0-.21-4.93-.21-11s.09-11,.21-11,.22,4.94.22,11S189.64,295.4,189.52,295.4Z"/></g><g id="Character"><path class="cls-6" d="M215.3,92.85a157.17,157.17,0,0,0,.06,39c.41,3.27,1.1,6.86,3.69,8.91,3.07,2.44,7.91,1.59,10.71-1.16s3.84-6.89,3.79-10.81-1.06-7.76-1.78-11.62c-.94-5.09-1.4-10.37-3.68-15s-7-8.59-12.13-8.07"/><path class="cls-6" d="M222.88,54.76c5.88-5.79,18.47-4.31,25.05.65s10,13.17,11.39,21.3,1.05,16.44,1.73,24.66,2.51,16.68,7.59,23.17c2.17,2.78,4.87,5.12,6.81,8.06a18.52,18.52,0,0,1,.75,19.05,16.7,16.7,0,0,1-17,8c-6.82-1.29-12.07-7.1-14.67-13.54s-3-13.5-3.58-20.42a559.48,559.48,0,0,0-8.68-64.19"/><path class="cls-9" d="M215.7,118.28l6.12-1.67h26.92l14.6,8.63s-25.53,11.48-35,6.87a26.58,26.58,0,0,1-12.66-13.06"/><path class="cls-9" d="M249,69.53l.19-3.6-21.51-4.79c-6.65-.91-14.06,5.55-14.69,12.23-.7,7.43-1.26,16.51-.56,22.09,1.43,11.21,9.94,12.9,9.94,12.9l.9,24.51,24.67,1.07Z"/><path class="cls-6" d="M216.15,81.22a1.43,1.43,0,0,0,1.34,1.48A1.36,1.36,0,0,0,219,81.46,1.43,1.43,0,0,0,217.67,80,1.38,1.38,0,0,0,216.15,81.22Z"/><path class="cls-6" d="M215.15,77.35c.17.19,1.28-.58,2.82-.53s2.64.86,2.82.68-.09-.43-.57-.8a4,4,0,0,0-2.25-.77,3.76,3.76,0,0,0-2.25.65C215.23,76.93,215.06,77.26,215.15,77.35Z"/><path class="cls-6" d="M231.17,82a1.43,1.43,0,0,0,1.34,1.48A1.36,1.36,0,0,0,234,82.21a1.44,1.44,0,0,0-1.33-1.49A1.38,1.38,0,0,0,231.17,82Z"/><path class="cls-6" d="M230.28,78.15c.17.19,1.28-.58,2.82-.53s2.64.86,2.81.67-.08-.42-.56-.79a3.92,3.92,0,0,0-2.25-.77,3.7,3.7,0,0,0-2.25.65C230.36,77.73,230.19,78.06,230.28,78.15Z"/><path class="cls-6" d="M224.33,90.19a10.16,10.16,0,0,0-2.48-.53c-.4,0-.77-.14-.82-.41a2,2,0,0,1,.29-1.16l1.26-3c1.75-4.21,3-7.68,2.85-7.75s-1.72,3.29-3.47,7.5l-1.2,3a2.25,2.25,0,0,0-.26,1.54,1,1,0,0,0,.63.59,2.57,2.57,0,0,0,.67.12A9.89,9.89,0,0,0,224.33,90.19Z"/><path class="cls-10" d="M222.32,108.39a29.61,29.61,0,0,0,15.45-3.54s-3.78,7.73-15.3,6.35Z"/><path class="cls-10" d="M224.87,93.92a2.75,2.75,0,0,1,2.52-1,2.52,2.52,0,0,1,1.72,1,1.6,1.6,0,0,1,.06,1.84,1.86,1.86,0,0,1-2,.45A5.91,5.91,0,0,1,225.21,95a1.75,1.75,0,0,1-.43-.47.51.51,0,0,1,0-.57"/><path class="cls-6" d="M228.83,91.39c-.25,0-.3,1.65-1.77,2.8s-3.24.9-3.26,1.13.38.34,1.14.38a4.11,4.11,0,0,0,2.71-.85A3.57,3.57,0,0,0,229,92.5C229.12,91.81,229,91.39,228.83,91.39Z"/><path class="cls-6" d="M230.06,73.5c.14.42,1.69.27,3.49.54s3.24.81,3.49.45c.12-.18-.13-.58-.7-1a6,6,0,0,0-2.57-1,5.87,5.87,0,0,0-2.75.24C230.35,73,230,73.29,230.06,73.5Z"/><path class="cls-6" d="M215.36,72.07c.26.35,1.33,0,2.61.05s2.35.3,2.61-.05c.11-.18-.05-.53-.51-.88a3.66,3.66,0,0,0-2.1-.64,3.61,3.61,0,0,0-2.1.64C215.4,71.54,215.24,71.89,215.36,72.07Z"/><path class="cls-8" d="M248.62,87.08c1.95-1.29,2.81-12.42,2.72-17s-2.52-8.64-5.74-11.87c-3.52-3.52-7.56-4.76-12.51-5.29-2.75-.29-5.72-.65-8.39.11s-4.16,1.7-5.45,4.15c-.72,1.35-.91,3.3.34,4.19s2.81.16,4.22-.24c3.75-1.06,7.84.14,11.08,2.31s5.77,5.21,8.25,8.21c3.23,3.9,4.77,10.41,5.48,15.42"/><path class="cls-6" d="M211,61.06c1.43-4.54,10.28-10.17,19.64-6,4.3.15,8.48.86,13.05,5,8.28,7.54,5.11,26,5.11,26a41.89,41.89,0,0,1-13.2-10.65c-5.31-6.41-8.21-11.42-9.26-14.45h0c-8.63,2.08-11.9,9.63-13.42,12.9C210.93,71.72,208.44,69.07,211,61.06Z"/><path class="cls-9" d="M246.92,85c.19-.09,7.37-2.51,7.44,4.91s-7.4,6-7.42,5.75S246.92,85,246.92,85Z"/><path class="cls-10" d="M249.18,92.83s.13.09.35.19a1.33,1.33,0,0,0,1,0A3.23,3.23,0,0,0,252,90.14a4.4,4.4,0,0,0-.38-1.85,1.51,1.51,0,0,0-1-1,.66.66,0,0,0-.76.36c-.09.21-.05.36-.09.37s-.16-.12-.1-.43a.87.87,0,0,1,.29-.47,1,1,0,0,1,.71-.19A1.8,1.8,0,0,1,252,88.08a4.35,4.35,0,0,1,.46,2.07c0,1.5-.78,2.91-1.85,3.23a1.41,1.41,0,0,1-1.19-.19C249.2,93,249.16,92.84,249.18,92.83Z"/><path class="cls-9" d="M167,250.76l-15,1.65-9.13,5.74s-.18,1.86,2.41,1.55l5.15-2.17L146.36,262s1,1.8,3.22.54a12.68,12.68,0,0,0,3.63-3.13l9-.63s-6.81,6.54-5.55,8.24,2.05,1.34,3,.72,1.52-2.78,3.76-3.5,5.93-2.8,9.94-4.7c3.44-1.63,6.94-13.3,6.94-13.3L168.84,244Z"/><path class="cls-10" d="M161,254.58c0,.19-3.79.92-8.51,1.63l-.13,0,.2-.1c-3.3,3.38-6.07,6-6.21,5.86s2.41-3,5.71-6.35l.08-.08.12,0,.12,0C157.12,254.81,161,254.39,161,254.58Z"/><polygon class="cls-9" points="256.78 344.95 253.98 320.77 231.57 327.04 237.22 350.24 256.78 344.95"/><path class="cls-5" d="M257,344.88l3.79,28.19,9.42,21.42a2.92,2.92,0,0,1-1.68,3.92h0a2.89,2.89,0,0,1-2.64-.34c-4.94-3.44-23-16.16-23.19-18.24-.19-2.41-6-29.47-6-29.47Z"/><g class="cls-11"><path class="cls-7" d="M268.56,398.41l-26.13-20.48.19,1.19a4.38,4.38,0,0,0,1.47,2.65c2.11,1.81,8.06,6.7,21.74,16.31a2.93,2.93,0,0,0,2.73.33Z"/></g><g class="cls-11"><path class="cls-7" d="M246.76,368a1.77,1.77,0,0,1,.84,2.2,1.7,1.7,0,0,1-2.17.85,1.86,1.86,0,0,1-.88-2.34,1.76,1.76,0,0,1,2.36-.63"/></g><path class="cls-6" d="M260.21,387.15a6.27,6.27,0,0,1,5.25-3.7c0-.08-.38-.24-1-.23a4.63,4.63,0,0,0-2.45.84,4.55,4.55,0,0,0-1.61,2C260.11,386.72,260.13,387.14,260.21,387.15Z"/><path class="cls-6" d="M262.8,390.59c.15.11.91-.95,2.3-1.6a23.58,23.58,0,0,1,2.69-.78c0-.16-1.39-.54-3,.22S262.64,390.54,262.8,390.59Z"/><path class="cls-6" d="M255.72,382.92c.15.11,1.31-1.52,3.38-2.71s4-1.44,4-1.63-2.12-.22-4.33,1.09S255.57,382.86,255.72,382.92Z"/><path class="cls-6" d="M253.85,374.44c.1.16,1.55-.73,3.56-1.12s3.69-.16,3.72-.35-1.69-.71-3.84-.27S253.74,374.33,253.85,374.44Z"/><path class="cls-6" d="M252.53,366.2c.11.15,1.53-1,3.67-1.27s3.8.51,3.88.34-.33-.37-1-.64a6.28,6.28,0,0,0-2.91-.32,6.09,6.09,0,0,0-2.75,1C252.76,365.76,252.48,366.14,252.53,366.2Z"/><path class="cls-6" d="M255.91,363.36a2.52,2.52,0,0,0-.13-1.06,7.43,7.43,0,0,0-1.29-2.65,3.3,3.3,0,0,0-1.65-1.35,1.17,1.17,0,0,0-1.26.47,1.87,1.87,0,0,0-.24,1.34,4.11,4.11,0,0,0,4.15,3.2,4.79,4.79,0,0,0,4.25-3.2,1.65,1.65,0,0,0-.14-1.38,1.16,1.16,0,0,0-1.28-.41,4.21,4.21,0,0,0-1.7,1.25,8.62,8.62,0,0,0-1.57,2.49,2.61,2.61,0,0,0-.28,1,13.28,13.28,0,0,1,2.17-3.22,3.88,3.88,0,0,1,1.51-1.06.62.62,0,0,1,.7.22,1.16,1.16,0,0,1,0,.91,4.26,4.26,0,0,1-3.72,2.73A3.58,3.58,0,0,1,251.9,360a1.43,1.43,0,0,1,.13-.94.64.64,0,0,1,.7-.27,3,3,0,0,1,1.42,1.11A11.1,11.1,0,0,1,255.91,363.36Z"/><path class="cls-6" d="M204.91,206.46l-.4,6.09s-5.16,9.76-5.63,18.49c-.27,5.08-.39,12.56-.43,17.94a22.75,22.75,0,0,0,3.45,12.25l10.33,16.54-1.43,18.7,18.72,37.46,27.69-7-3.28-69.16-11.15-36.51-2.12-17.35Z"/><path class="cls-6" d="M260.69,202.66l.5,8s22.23-47.37,52.57-53.21c19.72-3.79,27.49,17.69,20.57,34.75-4.17,10.28-21.44,29.93-21.47,30.39-.54,10.54-11.28,9-11.28,9S288.07,252.78,284.07,257c-2.73,2.86-31.65,1.83-31.65,1.83L243.34,240l-3.66-36Z"/><path class="cls-12" d="M222.25,252.31a10.15,10.15,0,0,1-.52,1.71c-.41,1.2-.94,2.73-1.57,4.58-1.32,3.87-3,9.25-4.68,15.27s-2.88,11.53-3.71,15.53c-.39,1.91-.72,3.5-1,4.74a10.25,10.25,0,0,1-.42,1.74,9,9,0,0,1,.17-1.78c.15-1.13.41-2.77.77-4.79.72-4,1.89-9.58,3.53-15.61s3.45-11.41,4.88-15.25c.71-1.92,1.32-3.47,1.76-4.52A9,9,0,0,1,222.25,252.31Z"/><path class="cls-12" d="M215.35,244.85a40.25,40.25,0,0,1-.45,4.5c-.31,2.77-.68,6.61-.89,10.86s-.21,8.1-.17,10.89a40.31,40.31,0,0,1,0,4.53,4,4,0,0,1-.2-1.2c-.09-.78-.19-1.91-.27-3.31a109,109,0,0,1,0-10.94,107.38,107.38,0,0,1,1.09-10.89c.21-1.38.41-2.5.58-3.27A3.93,3.93,0,0,1,215.35,244.85Z"/><path class="cls-12" d="M257.21,325.46a1.23,1.23,0,0,1,0-.33c0-.26-.05-.59-.08-1-.06-.92-.14-2.19-.25-3.8-.18-3.35-.45-8.12-.78-14-.6-11.86-1.42-28.15-2.33-46.15-.29-4.5-.18-8.94-1.14-13A36.6,36.6,0,0,0,248,236a35.9,35.9,0,0,0-7.15-8.32,35,35,0,0,0-8.09-5.12,36.61,36.61,0,0,0-13.45-3.29c-1.65-.08-2.93,0-3.8,0l-1,.05h-.34a26.67,26.67,0,0,1,5.13-.3A35.86,35.86,0,0,1,233,222.1a34.92,34.92,0,0,1,8.25,5.12,36.53,36.53,0,0,1,7.31,8.41A37,37,0,0,1,253.2,247c1,4.22.88,8.67,1.17,13.16.83,18,1.59,34.3,2.14,46.15.24,5.87.44,10.64.58,14,.05,1.61.09,2.89.12,3.8,0,.41,0,.73,0,1A1.19,1.19,0,0,1,257.21,325.46Z"/><path class="cls-12" d="M244.54,227.06c-.14-.11,2.51-3.54,5.92-7.66s6.28-7.37,6.42-7.26-2.52,3.55-5.92,7.67S244.68,227.18,244.54,227.06Z"/><path class="cls-12" d="M288.84,199a120.18,120.18,0,0,1,8.62-12.3c2.39-3,4-4.7,4.11-4.61s-1.34,2-3.59,5.07-5.28,7.41-8.35,12.41-5.93,9.56-6.46,13.38a12.51,12.51,0,0,0,.58,6.11,3.3,3.3,0,0,1-.81-1.5,10.65,10.65,0,0,1-.44-4.72,19.81,19.81,0,0,1,2.21-6.6"/><path class="cls-12" d="M304.27,176c.15.12-.93,1.48-1.6,3.45s-.7,3.69-.89,3.69-.47-1.8.27-3.91S304.16,175.83,304.27,176Z"/><path class="cls-12" d="M241.61,276.17c-.16-.07,1.23-3.32,3.11-7.25s3.53-7.05,3.69-7-1.23,3.33-3.11,7.26S241.77,276.25,241.61,276.17Z"/><path class="cls-12" d="M225.93,265.43c.17-.06.88,1.45,1.59,3.38s1.15,3.54,1,3.6-.88-1.45-1.59-3.38S225.77,265.49,225.93,265.43Z"/><path class="cls-5" d="M190,139.08c1.6-13.85,10.47-16.94,10.47-16.94l1.3,81.77-10.2,42.23A9.46,9.46,0,0,1,179.59,253l-20.65-6.29S188.37,152.92,190,139.08Z"/><path class="cls-5" d="M276.18,132s5.11,11.63,5.11,17.75,6.12,45.77,0,54.17-18.14,8.07-21.56,7.79c-4.67-.39-26.46-40.67-25.56-41.19l12.24-2.67s8.58.54,12.68,4,8.09-.54,8.09-.54l8.64-37.16"/><path class="cls-5" d="M259.11,122.14s14,4.76,17.07,9.84S261.6,202.4,261.6,202.4l-56.69,4.06s-4.47-.81-5.69-4.88,1.22-79.44,1.22-79.44l15.77-5.58s6.78,7,11.66,8.42S259.11,122.14,259.11,122.14Z"/><path class="cls-6" d="M204,140.09a2.54,2.54,0,0,1,.07.67c0,.51,0,1.15.06,1.93,0,1.68,0,4.11,0,7.11a233.74,233.74,0,0,1-1.75,23.37c-.57,4.54-1.24,8.85-2,12.76s-1.46,7.39-1.38,10.37a14.6,14.6,0,0,0,1.63,6.75,20.12,20.12,0,0,0,1.45,2.13,3.11,3.11,0,0,1-.5-.45,9.13,9.13,0,0,1-1.17-1.56,14.16,14.16,0,0,1-1.87-6.86c-.14-3.05.58-6.6,1.26-10.49s1.32-8.2,1.89-12.73c1.14-9.07,1.68-17.33,1.93-23.31.1-2.92.18-5.32.24-7.09,0-.78,0-1.42.07-1.93A2.94,2.94,0,0,1,204,140.09Z"/><path class="cls-6" d="M259.09,175.09a28.19,28.19,0,0,0-1.95-2.37,10.42,10.42,0,0,0-2.69-1.87,13.52,13.52,0,0,0-3.89-1,16.2,16.2,0,0,0-7.3.42,6.59,6.59,0,0,0-1.91,1.09c-.36.37-.58.58-.62.56s.11-.29.44-.74a5.71,5.71,0,0,1,1.92-1.33,14.86,14.86,0,0,1,7.56-.64,12.68,12.68,0,0,1,4.06,1.14,9.87,9.87,0,0,1,2.76,2.08,8.33,8.33,0,0,1,1.33,1.9A1.83,1.83,0,0,1,259.09,175.09Z"/><path class="cls-6" d="M244.36,187.58c.1,0,.55,1.54,1.59,3.94a70.36,70.36,0,0,0,4.79,9,69,69,0,0,0,5.93,8.31,19.64,19.64,0,0,0,2.13,2.22,7,7,0,0,0,.93.63s-.47,0-1.08-.43a14.75,14.75,0,0,1-2.33-2.11,60.9,60.9,0,0,1-10.8-17.46,27.46,27.46,0,0,1-1-3A3.66,3.66,0,0,1,244.36,187.58Z"/><path class="cls-6" d="M266,138.47a14.14,14.14,0,0,1,3.28-4.2c2.12-2.08,4.19-3.33,4.28-3.18s-1.75,1.61-3.82,3.64S266.11,138.58,266,138.47Z"/><path class="cls-6" d="M198.5,124.26c.08-.14,2.37,1.27,4.43,3.82s3,5.07,2.84,5.12-1.32-2.25-3.34-4.71S198.38,124.42,198.5,124.26Z"/><path class="cls-6" d="M251,196.16a15.73,15.73,0,0,1-2-3.21,46.19,46.19,0,0,1-5-17.39,15.4,15.4,0,0,1,0-3.76,35.41,35.41,0,0,1,.48,3.72,57.9,57.9,0,0,0,4.94,17.23A33.66,33.66,0,0,1,251,196.16Z"/><path class="cls-6" d="M272.08,179.19a18.65,18.65,0,0,1-2.11-2,46.83,46.83,0,0,0-5.32-4.57,19,19,0,0,0-3.22-2,4.23,4.23,0,0,0-2.91-.3,3.08,3.08,0,0,0-1.63,1.12c-.27.4-.33.68-.39.67s-.06-.31.17-.8a3.08,3.08,0,0,1,1.71-1.42,4.44,4.44,0,0,1,3.28.18,16.89,16.89,0,0,1,3.38,2.07,34.56,34.56,0,0,1,5.27,4.78A10.48,10.48,0,0,1,272.08,179.19Z"/><g class="cls-13"><path d="M245.67,192.14c-2.93.75-5.91-.95-8.92-1.11-2.74-.14-5.36,1-8,1.7a27.45,27.45,0,0,1-17.42-1,4.6,4.6,0,0,1-1.77-1.08,2.22,2.22,0,0,1-.33-2.2c5.1-.05,10.18.17,15.27.11a5.73,5.73,0,0,0,3-.59,1.24,1.24,0,0,0,.55-.55s3-.11,4.13-.11c2.45,0,5.28.19,7.74.18,1.07,0,4.51.14,4.43.14"/></g><g class="cls-13"><path d="M262.45,170.33a23.65,23.65,0,0,1,11.65,5.74,3.84,3.84,0,0,1,.93,1.12,1.43,1.43,0,0,1,0,1.39,1.48,1.48,0,0,1-1.62.46,4.53,4.53,0,0,1-1.51-.95l-9.66-8.18"/></g><path class="cls-6" d="M265.17,142.29a23.75,23.75,0,0,1,.08,4.14c-.05,2.56-.23,6.09-.59,10s-.86,7.39-1.29,9.92a24.61,24.61,0,0,1-.86,4,26.75,26.75,0,0,1,.41-4.12c.31-2.53.72-6,1.09-9.91s.62-7.39.79-9.94A28.61,28.61,0,0,1,265.17,142.29Z"/><polygon class="cls-12" points="221.01 170.31 215.08 157.52 194.69 156.25 193.96 157.43 209.43 187.21 228.06 187.37 221.01 170.31"/><path class="cls-12" d="M220.28,171.5l-5.93-12.79L194,157.43l14.74,31,16.53.12a3.92,3.92,0,0,0,2.67-1l.16-.13Z"/><path class="cls-1" d="M204.82,163.45a1,1,0,1,0-.07-1.45A1,1,0,0,0,204.82,163.45Z"/><path class="cls-9" d="M244.17,172.15l-7.87.46a11.25,11.25,0,0,0-8.45-4.72l-2.82-.17-2.06,2s-13.82-.26-14.44,1.4l0,.55,0,.32,11.74,1.54s-10-.66-10.63-.68-2.79-.34-2.82.84c0,1,1.07,1.8,2.79,2.16.71.15,9.35,1.45,9.35,1.45l-9.56-.69c-1.07-.07-1,1.66-.42,1.92s12.52,4.54,12.52,4.54a7.47,7.47,0,0,1-3.82,1c-1.67-.23-4.42-2.57-5.09-1.59s-.58,1.59-.23,1.86a42.56,42.56,0,0,0,5.48,3c1.3.45,14.65-.22,14.65-.22l14,.47Z"/><path class="cls-10" d="M218.27,169.63a38.68,38.68,0,0,1,4.85.13,36.57,36.57,0,0,1,4.83.43,41.12,41.12,0,0,1-4.85-.13A38.73,38.73,0,0,1,218.27,169.63Z"/><path class="cls-6" d="M219.16,169.06s-.14-.26-.38-.75-.58-1.29-1-2.13c-.87-1.92-2-4.46-3.32-7.39l.07.06-4.67-.3-11.26-.75-3.42-.25-.92-.08-.33,0a2.81,2.81,0,0,1,.33,0l.93,0,3.41.19,11.27.7,4.68.3h0l0,.05c1.3,2.93,2.42,5.48,3.26,7.41l.93,2.15C219.05,168.78,219.16,169.06,219.16,169.06Z"/><path class="cls-5" d="M297.92,237.35l-13.58,17.08s13.73,18.25,11.52,21.65l-35-23.85L281,224.75Z"/><g class="cls-11"><path class="cls-7" d="M274.9,245.18a1.73,1.73,0,0,0-2.13.88,1.65,1.65,0,0,0,.85,2.12,1.82,1.82,0,0,0,2.25-.94,1.72,1.72,0,0,0-1.13-2.11"/></g><g class="cls-11"><path class="cls-7" d="M260.88,252.23l2-2.77,33,24.21a3,3,0,0,1,0,2.79Z"/></g><path class="cls-6" d="M285,254.67c-.13.16-1-.38-2.23-.45s-2.16.31-2.27.13.86-1,2.32-.85S285.17,254.54,285,254.67Z"/><path class="cls-6" d="M287.5,258.78c-.08.19-1-.06-2.09.23s-1.8.91-2,.78.43-1.15,1.79-1.48S287.62,258.62,287.5,258.78Z"/><path class="cls-6" d="M286.38,264.55c-.18-.07.2-1.07,1.3-1.67s2.15-.38,2.11-.19-.87.32-1.76.82S286.56,264.66,286.38,264.55Z"/><path class="cls-6" d="M287.69,250.43c-.19.1-.78-.69-1.77-1.32S284,248.23,284,248s1.16-.28,2.32.48S287.86,250.36,287.69,250.43Z"/><path class="cls-6" d="M290.36,246.93c-.05.07-.78-.31-1.7-1.26a10.31,10.31,0,0,1-1.38-1.87,10.16,10.16,0,0,1-.59-1.24,2.32,2.32,0,0,1-.22-.78.89.89,0,0,1,.57-.94,1.13,1.13,0,0,1,1,.15,2.83,2.83,0,0,1,.58.56,8.14,8.14,0,0,1,.79,1.15,7.7,7.7,0,0,1,.81,2.19,3.55,3.55,0,0,1,0,2.13c-.11,0-.11-.81-.47-2a8.22,8.22,0,0,0-.89-2,8,8,0,0,0-.76-1c-.29-.36-.59-.59-.8-.5s-.11.06-.11.22a2.33,2.33,0,0,0,.16.58,12.75,12.75,0,0,0,.53,1.18,10.86,10.86,0,0,0,1.18,1.84C289.82,246.33,290.43,246.85,290.36,246.93Z"/><path class="cls-6" d="M290,247c-.08,0,0-.85.77-2a6.63,6.63,0,0,1,1.61-1.69,6.36,6.36,0,0,1,1.2-.72,1.75,1.75,0,0,1,1.72-.06,1,1,0,0,1,.36,1,2.86,2.86,0,0,1-.29.75,4.55,4.55,0,0,1-.84,1.15,4.93,4.93,0,0,1-2,1.23,2.77,2.77,0,0,1-2.13,0c0-.13.82,0,2-.49A4.89,4.89,0,0,0,294,245a4,4,0,0,0,.69-1c.22-.4.3-.79.14-.85a1.22,1.22,0,0,0-1,.11,7.4,7.4,0,0,0-1.11.62,7.54,7.54,0,0,0-1.58,1.46C290.36,246.3,290.08,247.05,290,247Z"/><polygon class="cls-9" points="301.58 231.53 297.3 236.89 281.34 225.04 284.25 220.6 301.58 231.53"/></g><g id="Speech_Bubble" data-name="Speech Bubble"><path class="cls-2" d="M187,101l-13.1-5.17a32.83,32.83,0,1,1,7.56-9h0Z"/><path class="cls-6" d="M187,101l-5.4-14.24-.07-.2-.16.15h0l.22.17a32.81,32.81,0,0,0,4.39-16.52,29.93,29.93,0,0,0-.46-5.18c-.18-.88-.32-1.78-.53-2.68l-.8-2.69A32.88,32.88,0,0,0,140.49,40a32.35,32.35,0,0,0-12.4,8.85,33.12,33.12,0,0,0-7.18,13.8,33.5,33.5,0,0,0-.18,14.9,32.34,32.34,0,0,0,5.84,12.82,33.31,33.31,0,0,0,21.18,12.75,35.53,35.53,0,0,0,10.77-.08A32.64,32.64,0,0,0,174,95.94l-.13,0L187,101l-13.05-5.3-.08,0-.06,0a32.59,32.59,0,0,1-15.32,7,35.07,35.07,0,0,1-10.64,0A32.9,32.9,0,0,1,127,90.11a32.1,32.1,0,0,1-5.73-12.63,33,33,0,0,1,.2-14.66,32.46,32.46,0,0,1,7.06-13.56,32,32,0,0,1,12.19-8.71,32.84,32.84,0,0,1,14.17-2.4A32.37,32.37,0,0,1,168,41.8,32.62,32.62,0,0,1,183.73,60c.28.9.54,1.78.81,2.65s.35,1.78.53,2.64a29.32,29.32,0,0,1,.48,5.12,32.66,32.66,0,0,1-4.24,16.38l-.53.94.75-.77v0l-.23,0C184.87,95.77,186.6,100.1,187,101Z"/><path class="cls-5" d="M148.27,66.65l1.85,0,4-5.67,0-3.7s2.87-.2,2.57,4.65.05,3.62.05,3.62,6.09,0,6.6.5c.38.38.59,6.43.68,9.71a3.57,3.57,0,0,1-2.49,3.6,3,3,0,0,1-.66.09c-1.52,0-9.29-1.16-9.29-1.16l-3.2,0Z"/><polygon class="cls-5" points="142.95 65.67 144.19 78.36 147.36 78.33 147.27 65.89 142.95 65.67"/></g><g id="Plant"><path class="cls-5" d="M83.4,358.43a21.52,21.52,0,0,1,13.35-1.62c2.42.4,5,1.12,6.59,2.94s2,5,.07,6.59a6.3,6.3,0,0,1-4.16,1.05c-3.52,0-7.44-.66-10.26,1.46-1.61,1.21-2.68,3.23-4.6,3.82a4.56,4.56,0,0,1-5-2.22,7.8,7.8,0,0,1-.57-5.74A8.75,8.75,0,0,1,83.4,358.43Z"/><path class="cls-5" d="M74.1,340.48c2.48,3.54,7.31,2.37,9.55.2s3.18-5.3,4-8.29c2-6.83,4-14,2.49-21a11.69,11.69,0,0,0-2.68-5.7,6.1,6.1,0,0,0-5.77-1.92c-2.43.64-3.94,3-5,5.29a49.79,49.79,0,0,0-4.94,21.45c0,3.45.39,7.07,2.34,9.93"/><path class="cls-5" d="M67.28,345.56c2.7-3.2,3.21-7.86,2-11.87a22.87,22.87,0,0,0-7-10.2,38,38,0,0,0-12.59-7.43,13.47,13.47,0,0,0-5.66-1A5.94,5.94,0,0,0,39.25,318c-1.32,2.53,0,5.6,1.32,8.1a96.16,96.16,0,0,0,8.27,12.59c2.48,3.2,5.32,6.35,9.1,7.8s7.7,1.27,9.7-1.35"/><path class="cls-6" d="M73.93,394a7,7,0,0,0,.23-1.61c.11-1.17.26-2.65.43-4.4a63.13,63.13,0,0,1,1-6.45,50.78,50.78,0,0,1,2.35-7.61A28.26,28.26,0,0,1,81.81,367a14.53,14.53,0,0,1,4.91-4.08,13.89,13.89,0,0,1,4.14-1.29,8.72,8.72,0,0,0,1.6-.23,6.82,6.82,0,0,0-1.63,0,12.58,12.58,0,0,0-4.32,1.13,14.48,14.48,0,0,0-5.18,4.12,27.69,27.69,0,0,0-4,7A46.66,46.66,0,0,0,75,381.38a54.62,54.62,0,0,0-.85,6.53c-.14,1.87-.2,3.38-.22,4.42A8.59,8.59,0,0,0,73.93,394Z"/><path class="cls-6" d="M74.24,390.58a4,4,0,0,0,0-.75c0-.56,0-1.27,0-2.14,0-1.85,0-4.54.1-7.85.16-6.63.73-13.77,1.84-23.83,1-9.46,2.44-20.47,3.92-27.63.32-1.63.64-3.09.94-4.37s.53-2.4.77-3.3.37-1.53.5-2.07a3.93,3.93,0,0,0,.13-.74,3.1,3.1,0,0,0-.26.7c-.17.54-.37,1.22-.62,2s-.56,2-.88,3.27-.69,2.74-1,4.36a242.89,242.89,0,0,0-4.12,25.64c-1.11,10.08-1.61,19.26-1.65,25.91,0,3.32,0,6,.11,7.87.06.87.1,1.57.14,2.13A2.52,2.52,0,0,0,74.24,390.58Z"/><path class="cls-6" d="M74.28,372.87a13.1,13.1,0,0,0,0-2.23,59.12,59.12,0,0,0-.68-6.05,80.09,80.09,0,0,0-2-8.82,71.49,71.49,0,0,0-3.68-10.43A55.46,55.46,0,0,0,57.1,328.49a27.9,27.9,0,0,0-2.54-2.37c-.4-.33-.74-.66-1.09-.92l-1-.68a15.66,15.66,0,0,0-1.88-1.21,69.32,69.32,0,0,1,6.16,5.5,58.73,58.73,0,0,1,10.56,16.8A81.58,81.58,0,0,1,71,355.94c1,3.24,1.61,6.22,2.1,8.73s.73,4.57.89,6A15.4,15.4,0,0,0,74.28,372.87Z"/><polygon class="cls-6" points="57.17 404.1 58.94 428.41 90.17 428.41 91.94 404.1 57.17 404.1"/><rect class="cls-6" x="54.15" y="394.52" width="41.51" height="9.58"/><polygon class="cls-12" points="54.15 427.48 54.15 430.13 56.1 430.13 94.98 430.13 94.98 427.48 54.15 427.48"/><polygon class="cls-12" points="58.02 434.81 56.1 430.13 93.49 430.13 91.26 434.81 58.02 434.81"/><path class="cls-3" d="M91.36,412.05a.86.86,0,0,1-.15.22l-.46.62-1.82,2.33-.08.1-.08-.11L84.3,409h.26l-4.4,6.23-.14.2-.15-.19-5.22-6.2H75l-.29.36L70,415.27l-.16.2-.14-.21c-1.59-2.24-3.07-4.33-4.4-6.23l.25,0-5.42,6.17-.1.11-.07-.12c-.71-1.2-1.28-2.16-1.7-2.85l-.43-.76a.89.89,0,0,1-.13-.27,1.09,1.09,0,0,1,.18.24l.48.73,1.78,2.8H60l5.34-6.26.13-.15.12.17,4.44,6.2h-.3l4.66-5.86c.1-.12.19-.25.29-.36l.14-.19.16.19,5.2,6.22h-.29l4.44-6.2.13-.18.13.18,4.37,6.25h-.16l1.9-2.27.5-.58C91.29,412.11,91.35,412,91.36,412.05Z"/><path class="cls-12" d="M92.37,403.94c0,.11-7.82.2-17.47.2s-17.47-.09-17.47-.2,7.82-.19,17.47-.19S92.37,403.84,92.37,403.94Z"/><path class="cls-6" d="M94,430.4c0,.1-8.5.19-19,.19s-19-.09-19-.19,8.5-.2,19-.2S94,430.29,94,430.4Z"/></g></svg>