<svg xmlns="http://www.w3.org/2000/svg" viewBox="0 0 2618.22 1643.67"><defs><style>.cls-1{fill:#f6f5f5;}.cls-2{fill:#dadada;}.cls-3{fill:#d3dfff;}.cls-4{fill:#fff;}.cls-5{fill:#86a7ff;}.cls-6{fill:#adc3ff;}.cls-7{fill:#e5ecff;}.cls-8{fill:#f9b384;}.cls-18,.cls-9{fill:#102048;}.cls-10{fill:#eb5d60;}.cls-11{fill:#7d69ed;}.cls-12{fill:#e28b6d;}.cls-13{fill:#5b4dad;}.cls-14{fill:#fbc343;}.cls-15{fill:#e49b31;}.cls-16{fill:#1f3c88;}.cls-17{fill:#2f57a4;}.cls-18{opacity:0.3;}.cls-19{fill:#ab4446;}</style></defs><g id="OBJECTS"><path class="cls-1" d="M2420.23,798.9C2310,719.45,2177.83,681,2056.18,623.47c-117-55.35-200.25-144.27-304.93-217.55-171-119.73-368.74-209.5-569.94-264.29-203.45-55.41-452-86.09-637.42,36.71-91.21,60.4-165.45,154.08-195.69,259.87-36,125.88-.77,254.5,16.49,380.3,14,102.22-51.6,158.61-128.93,216.7-181,136-176,382.09-64.14,558.49h2330.1C2640.09,1343,2700.94,1001.15,2420.23,798.9Z"/><circle class="cls-1" cx="183.25" cy="811.69" r="86.37"/><circle class="cls-1" cx="2228.3" cy="383.06" r="127.66"/><circle class="cls-1" cx="198.78" cy="584.03" r="38.26" transform="translate(-409.14 689.12) rotate(-81.01)"/><circle class="cls-1" cx="2327.23" cy="605.25" r="38.26" transform="translate(-54.47 936.66) rotate(-22.5)"/><path class="cls-2" d="M94,1587.76c-110.81-94.54-111.83-260-63.69-382C83.91,1070,209.57,958.16,375.06,899c4-1.43,8-2.84,12.06-4.24l1.49,4.29q-6,2.1-12,4.23C212.33,962,87.66,1072.86,34.53,1207.48-13,1328-12.17,1491.21,96.94,1584.3Z"/><path class="cls-2" d="M2426.22,1593.05l-4-2.08c81.83-159.07,130.31-319.5,140.17-463.92,9.73-142.38-18.52-259.82-81.68-339.61-57.32-72.42-171.38-147.38-389.26-93.24l-1.1-4.42c220.22-54.71,335.77,21.37,393.93,94.83,63.87,80.7,92.45,199.22,82.65,342.75C2557,1272.4,2508.34,1433.43,2426.22,1593.05Z"/><path class="cls-2" d="M604.4,321.34,600,320.21c.31-1.2,7.78-29.69,32.76-67.35C655.76,218.16,698.6,169,772,132,856.11,89.65,962,71.67,1086.6,78.58c156,8.66,342,56.55,552.84,142.36l-1.72,4.21c-210.39-85.62-395.9-133.4-551.37-142-123.86-6.88-228.91,10.95-312.28,53-72.53,36.56-114.83,85-137.53,119.29C612,292.4,604.47,321.05,604.4,321.34Z"/><rect class="cls-3" x="526.06" y="324.68" width="1683.21" height="1201.48" rx="28.91"/><rect class="cls-4" x="577.18" y="420.27" width="1580.96" height="958.41"/><path class="cls-5" d="M2160.41,1381H574.91V418h1585.5Zm-1581-4.54H2155.86V422.54H579.45Z"/><rect class="cls-4" x="577.18" y="360.67" width="1580.96" height="59.6"/><path class="cls-5" d="M2160.41,422.54H574.91V358.4h1585.5ZM579.45,418H2155.86V362.94H579.45Z"/><path class="cls-5" d="M651.5,404.24a13.77,13.77,0,1,1,13.77-13.77A13.79,13.79,0,0,1,651.5,404.24Zm0-23a9.22,9.22,0,1,0,9.22,9.22A9.23,9.23,0,0,0,651.5,381.25Z"/><path class="cls-5" d="M697.48,404.24a13.77,13.77,0,1,1,13.77-13.77A13.79,13.79,0,0,1,697.48,404.24Zm0-23a9.22,9.22,0,1,0,9.22,9.22A9.22,9.22,0,0,0,697.48,381.25Z"/><path class="cls-5" d="M743.46,404.24a13.77,13.77,0,1,1,13.77-13.77A13.79,13.79,0,0,1,743.46,404.24Zm0-23a9.22,9.22,0,1,0,9.22,9.22A9.22,9.22,0,0,0,743.46,381.25Z"/><rect class="cls-3" x="443.06" y="1508.12" width="1849.19" height="85.76"/><path class="cls-5" d="M2294.81,1596.43H440.51v-90.86h1854.3Zm-1849.19-5.11H2289.71v-80.65H445.62Z"/><rect class="cls-4" x="1267.77" y="1419.41" width="199.77" height="47.98" rx="18.47"/><path class="cls-5" d="M1446.56,1469.66h-157.8a23.3,23.3,0,0,1-23.26-23.27v-6a23.29,23.29,0,0,1,23.26-23.26h157.8a23.29,23.29,0,0,1,23.26,23.26v6A23.3,23.3,0,0,1,1446.56,1469.66Zm-157.8-48a18.74,18.74,0,0,0-18.71,18.72v6a18.74,18.74,0,0,0,18.71,18.72h157.8a18.74,18.74,0,0,0,18.72-18.72v-6a18.74,18.74,0,0,0-18.72-18.72Z"/><path class="cls-5" d="M1934,842.83H801.3a74.33,74.33,0,0,1-74.24-74.24v-5a74.32,74.32,0,0,1,74.24-74.24H1934a74.32,74.32,0,0,1,74.24,74.24v5A74.33,74.33,0,0,1,1934,842.83ZM801.3,693.93a69.78,69.78,0,0,0-69.7,69.7v5a69.77,69.77,0,0,0,69.7,69.69H1934a69.77,69.77,0,0,0,69.69-69.69v-5a69.77,69.77,0,0,0-69.69-69.7Z"/><rect class="cls-3" x="775.94" y="738.37" width="182.67" height="55.47" rx="22.85"/><rect class="cls-3" x="1014.81" y="738.37" width="166.04" height="55.47" rx="23.15"/><rect class="cls-3" x="1227.13" y="738.37" width="210.14" height="55.47" rx="24.41"/><rect class="cls-3" x="1502.77" y="738.07" width="288.54" height="55.47" rx="24.41"/><rect class="cls-5" x="1176.75" y="574.19" width="381.82" height="39.98"/><rect class="cls-6" x="1239.77" y="1086.21" width="67.65" height="129.54"/><rect class="cls-3" x="1379.31" y="1009.15" width="67.65" height="206.6"/><rect class="cls-6" x="1518.85" y="963.78" width="67.65" height="251.97"/><rect class="cls-3" x="1658.38" y="1073.42" width="67.65" height="142.33"/><rect class="cls-6" x="1797.92" y="991.2" width="67.65" height="224.55"/><rect class="cls-3" x="1937.46" y="905.9" width="67.65" height="309.85"/><rect class="cls-7" x="709.19" y="898.03" width="381.82" height="24.38"/><rect class="cls-7" x="709.19" y="966.47" width="381.82" height="249.28"/><path class="cls-5" d="M917.4,1059.13c-14.38-5.67-29.17-1.21-39.72,9.1-9.62,9.4-11,22.69-15.5,34.55,9.35,2.55,17.76,8.09,28,6.5,13.24-2.06,13.59-14.41,21.1-22.83,6.43-7.21,14.13-11.85,23.32-13.09C930.6,1067.54,925.78,1062.44,917.4,1059.13Z"/><path class="cls-5" d="M1025.54,1046.2c-13,2.84-26.71,7.47-36,17-8,8.16-7.71,22.36-13.51,30.94,6.55,4.37,13.93,6.4,21.11,2.52s11.3-12.34,18.88-16.07c6.09-3,14.84-4.89,21.47-6.08,1.53-.27,3.09-.45,4.64-.66v-30.3A166.77,166.77,0,0,0,1025.54,1046.2Z"/><path class="cls-6" d="M1037.5,1074.47c-6.63,1.19-15.38,3.08-21.47,6.08-7.58,3.73-11.85,12.27-18.88,16.07s-14.56,1.85-21.11-2.52a49.31,49.31,0,0,1-7.29-6c-9-8.83-11.77-13.83-25.94-15a38.22,38.22,0,0,0-8.26.24c-9.19,1.24-16.89,5.88-23.32,13.09-7.51,8.42-7.86,20.77-21.1,22.83-10.19,1.59-18.6-4-28-6.5a28.94,28.94,0,0,0-11.81-1c-9.86,1.36-16.1,7.28-23,11.77-4.79,3.12-9.88,5.56-16.73,5.26-15.29-.67-35-9.48-52.61-10v68.08h284.08v-103C1040.59,1074,1039,1074.2,1037.5,1074.47Z"/><path class="cls-5" d="M827.4,1113.55a26.39,26.39,0,0,1-3.13-3.21c-7-8.73-7.6-19.81-15.39-28-15.15-15.93-35.84-9.63-50.82,3.93v22.5c17.61.56,37.32,9.37,52.61,10C817.52,1119.11,822.61,1116.67,827.4,1113.55Z"/><path class="cls-8" d="M417.21,951.45l-72.59,14.24,16.56-106.76,44.64.92c-.28,1.87-.57,3.7-.74,5.58a164.82,164.82,0,0,0,1,41.61A222.9,222.9,0,0,0,417.21,951.45Z"/><path class="cls-9" d="M406.11,907c-27.9-13.15-38.26-40.76-38.26-40.76l37.23-.85A164.82,164.82,0,0,0,406.11,907Z"/><path class="cls-8" d="M421.46,798.19c2.85,10,19,73.06-10.44,80.18s-59.78-19.93-59.78-19.93l10-60.73,42.7-12.81Z"/><path class="cls-10" d="M382.49,832.52s7.65-50.47,39-34.33c-1.12-.58-2.74-5.62-3.44-6.76A46.77,46.77,0,0,0,405.89,778c-17.82-13.07-47.86-8.32-62.24,6.7-14.16,14.79-14.59,41.08-7.3,60.18a47.89,47.89,0,0,0,4.46,8.84,37.41,37.41,0,0,0,5.72,6.72c1.86,1.79,15.83,12.79,16,4.33C362.86,844.09,382.49,832.52,382.49,832.52Z"/><ellipse class="cls-8" cx="379.62" cy="832.13" rx="12.46" ry="15.43" transform="translate(-441.06 428.35) rotate(-39.28)"/><ellipse class="cls-8" cx="427.38" cy="834.04" rx="6.63" ry="7.2"/><path class="cls-9" d="M332.26,1363.26l-86.35,37s71.17,181.24,92,192.63,10.44-89.2,24.68-119.56l18-71.17Z"/><rect class="cls-4" x="339.34" y="1453.24" width="9.1" height="37.57" transform="translate(-1148.45 1713) rotate(-86.02)"/><path class="cls-11" d="M310.44,1350l52.19,123.36S565.69,1367.06,616,1270.27l-79.71-104.38Z"/><path class="cls-9" d="M582.77,1449.61s94.89,3.8,138.54-71.17l-96.78-14.23Z"/><polygon class="cls-8" points="731.2 1462.57 624.15 1500.39 615.51 1469.84 599.83 1414.52 689.06 1372.29 695.33 1385.75 731.2 1462.57"/><polygon class="cls-9" points="866.5 1593.85 749.31 1501.33 731.22 1462.58 624.16 1500.37 650.62 1593.85 866.5 1593.85"/><rect class="cls-4" x="717.61" y="1512.2" width="39.2" height="9.09" transform="translate(-911.15 1160.49) rotate(-51.88)"/><polygon class="cls-12" points="695.33 1385.75 615.51 1469.84 599.83 1414.52 689.06 1372.29 695.33 1385.75"/><path class="cls-11" d="M721.33,1378.43q-75.68,19.1-138.54,71.18l-72.14-189.77S365.1,1398.57,278.19,1375.61c-82.59-21.82-46.55-158.5-46.55-158.5,113.41-79.41,293.83-186,372.87-101.6a13,13,0,0,1,1,1c16.18,17.77,34.45,52.91,51.64,91.82C691.47,1285.88,721.33,1378.43,721.33,1378.43Z"/><path class="cls-13" d="M657.2,1208.38c-78.64,18.5-159.55-68.86-159.55-68.86l81.27-26.69,25.59,2.68a13,13,0,0,1,1,1C621.74,1134.33,640,1169.47,657.2,1208.38Z"/><path class="cls-13" d="M580.66,1450.42l-70.91-186.56c-15.38,14.61-99.06,91.18-187.28,114.43l-1.16-4.39c96-25.31,186.83-114.78,187.74-115.68l2.48-2.46,73.38,193Z"/><path class="cls-14" d="M348.6,911.83l-31.86,103-42.87,138.55s-31.27,11.23-58.86,7.73c-24.37-3.09-45.87-17.73-40-62C187.78,1001.65,348.6,911.83,348.6,911.83Z"/><path class="cls-15" d="M316.74,1014.83l-42.87,138.55s-31.27,11.23-58.86,7.73c23.13-142.23,99.68-202.83,99.68-202.83Z"/><polygon class="cls-14" points="660.33 1013.78 636.61 1104.15 556.51 1028.6 588.29 975.33 631.24 998.24 660.33 1013.78"/><polygon class="cls-8" points="588.47 975.42 618.86 926.84 680.27 900.67 660.15 1013.97 588.47 975.42"/><path class="cls-16" d="M886.84,882.46c-16.14-3.86-30.68-3.22-43.82,1.6a73.22,73.22,0,0,0-24.23,15l-29.68-68.82a95.2,95.2,0,0,0,28.23-9.41,79.3,79.3,0,0,0,30.59-28.68Z"/><polygon class="cls-16" points="818.86 899.04 789.2 830.24 352.22 1037.68 368.01 1074.31 818.86 899.04 789.2 830.24 818.86 899.04"/><path class="cls-9" d="M886.84,882.46c-16.14-3.86-30.68-3.22-43.82,1.6l-25.68-63.19a79.3,79.3,0,0,0,30.59-28.68Z"/><circle class="cls-16" cx="1062.11" cy="753.4" r="233.45" transform="translate(-221.65 971.69) rotate(-45)"/><circle class="cls-4" cx="1062.11" cy="753.4" r="194.49" transform="translate(-221.65 971.69) rotate(-45)"/><path class="cls-5" d="M884.81,673.48h354.55c-.77-1.71-1.53-3.41-2.34-5.08H887.23C886.41,670.09,885.58,671.77,884.81,673.48Z"/><path class="cls-5" d="M1238.77,834.69H885.49c.78,1.7,1.54,3.41,2.36,5.08h348.47C1237.15,838.08,1238,836.4,1238.77,834.69Z"/><path class="cls-3" d="M916.86,756.06v-3.95a29.09,29.09,0,0,0-29-29H870a193.72,193.72,0,0,0,.18,62h17.66A29.09,29.09,0,0,0,916.86,756.06Z"/><rect class="cls-3" x="979.62" y="723.1" width="185.45" height="61.96" rx="29.39"/><path class="cls-3" d="M1254.26,723.1h-6.53a31,31,0,0,0,0,62H1254A193.31,193.31,0,0,0,1254.26,723.1Z"/><path class="cls-8" d="M660.33,1013.79l-29.09-15.55L649,959.74s24.68-44.59,37-42.68S660.33,1013.79,660.33,1013.79Z"/><path class="cls-14" d="M556.53,1028.6l-6,10.13c-12-16.51-38.49-51.69-71.79-79.65h0c-29.95-25.11-70.58-64.16-106-58.75-95,14.4-141,316.78-141,316.78l245.73-88.95,55,42.89a60.14,60.14,0,0,0,42.15,12.48h0a60.17,60.17,0,0,0,53.08-44.83l9-34.53Z"/><rect class="cls-15" x="441.78" y="1054.08" width="4.54" height="89.08" transform="translate(-672.68 702.3) rotate(-48.45)"/><rect class="cls-15" x="561.67" y="1024.26" width="4.54" height="69.58" transform="translate(-507.8 519.62) rotate(-35.25)"/><path class="cls-12" d="M1801,441.75s-11.49,36-40.48,52-67.47,33-54.47,38.48,47.72,2,47.72,2-67.21,52-48.22,57.47,65-32,65-32-6.25,14,3.24,17,27.74-.5,27.74-.5-2.5,10,16.49,7.49,68.47-62.47,68.47-62.47l3.5-55Z"/><path class="cls-17" d="M1742.48,132.9s75-19.49,187.41,51c101.19,63.42,107.95,125.94,60,203.91s-103.45,133.43-103.45,133.43L1801,441.75l75-116.94Z"/><path class="cls-17" d="M1716,144.89s-106,57-159.92,179.92h369.82l-102-161.93Z"/><path class="cls-12" d="M1611.67,324.31s36.35,6.37,49.1,0S1633,299.57,1598.17,291s-75.71-24-109.44,24-30.36,51.35-19.49,50.6,36.73-33,36.73-33-27.74,34.86-14.62,38.61,44.6-43.85,44.6-43.85-27,38.6-13.12,43.1,43.86-42.73,43.86-42.73-30.36,47.6-12,46.48c12-.73,25.65-21.62,33.76-36.12a26.63,26.63,0,0,1,23.22-13.73Z"/><path class="cls-9" d="M1741.87,197.23a59.53,59.53,0,0,1-26-6.29l2.21-4c1.5.83,37.09,20.06,60.06-15.72l3.82,2.45C1770,192.3,1754.73,197.23,1741.87,197.23Z"/><polygon class="cls-9" points="1802.85 442.99 1799.04 440.51 1895.73 291.97 1858.64 234.12 1862.47 231.66 1901.14 291.99 1802.85 442.99"/><path class="cls-12" d="M1763.67,149.62c-6.11,21.74-35.2,26.31-48.6,8.14L1711.5,153l-23.08-31.27,23.77-30.93,2.29-3,5.41,4,3.92,2.92,41.54,31.08C1766.2,135.43,1765.45,143.27,1763.67,149.62Z"/><path class="cls-9" d="M1711.5,153l-23.08-31.27,23.77-30.93,7.7,1,3.67.49s.1.85.25,2.43C1724.4,102.77,1725.2,129.37,1711.5,153Z"/><path class="cls-12" d="M1622.65,72.45s51.48,92.45,88.52,53.78c28.12-29.37,8.27-69.91,8.27-69.91l-27.3-26.47-60.8,18.2Z"/><path class="cls-14" d="M1702.07,77s-17.37-27.61-36.3-14.58-41.15,48.09-67.11,27.82c-18.06-14.11-5.79-54.18,18.1-50.77,0,0,26.37-50.57,71.66-37.23s27.92,40.33,52.12,44.36,102.55,9.66,89.52,92.49c0,0-33.52-9-61.51-5.82-35,3.9-58.62-53.78-58.62-53.78C1707.65,80.11,1702.07,77,1702.07,77Z"/><ellipse class="cls-12" cx="1706.41" cy="74.83" rx="13.65" ry="17.68"/><rect class="cls-16" x="2049.95" y="1344.66" width="187.5" height="109.09"/><polygon class="cls-9" points="2259.27 1593.49 2359.18 1643.67 2325.2 1513.73 2281.25 1505.29 2235.24 1521.73 2259.27 1593.49"/><path class="cls-17" d="M2281.27,1505.29l-22,88.19s-94.86-12.5-187.82-33.14c-42.86-9.45-85.32-20.68-117.86-33.23-17.14-6.59-31.55-13.54-41.82-20.77-72.23-50.91-46.46-168.14,76-148.09,47.46,7.77,98.64,28.91,144.82,52.86,21,10.87,41,22.37,59.1,33.41C2244.55,1476.7,2281.27,1505.29,2281.27,1505.29Z"/><path class="cls-18" d="M2191.73,1444.52l-120.28,115.82c-42.86-9.45-85.32-20.68-117.86-33.23l179-116C2153.68,1422,2173.64,1433.48,2191.73,1444.52Z"/><polygon class="cls-9" points="1944.38 1521.23 1823.44 1591.45 2001.42 1590.71 2012.85 1523.23 1944.38 1521.23"/><polygon class="cls-8" points="2050.33 1505.74 2012.85 1523.23 2001.42 1590.71 2003.85 1590.7 2078.32 1591.7 2104.3 1559.21 2050.33 1505.74"/><path class="cls-17" d="M2050.33,1505.74s141.93-138.94,264.87-171.92c114-30.58,147.93,84,84,140.93s-320.84,117-320.84,117Z"/><path class="cls-9" d="M2078.87,1593.9l-1.11-4.41c88.15-22.26,178.73-46.42,244.08-72.32l1.68,4.22C2257.92,1547.38,2167.17,1571.6,2078.87,1593.9Z"/><path class="cls-9" d="M2136.09,959.23c-12.76,1-24.81,4.18-35.43,11.74a60.12,60.12,0,0,0-20,25c-6.77,15.43-5.21,32.66-10.4,48.47-5,15.21-17.24,23.06-28.65,33.24-11,9.79-18.88,26-15,40.86a30.43,30.43,0,0,0,5.75,11.28c2,2.55,8.26,9.91,11.77,9.92l193,.86s35.88-33.6-5.41-72.89c-11.46-10.91-24.29-22.12-30.12-37.43-3.6-9.47-5.4-19.44-8.12-29.15-3.45-12.39-11.07-25-21.35-32.89S2148.84,958.19,2136.09,959.23Z"/><path class="cls-9" d="M2119.86,970.9s-32.17-24.48-.28-35.59c24.39-8.49,47.26,1.14,32.75,32.75Z"/><path class="cls-10" d="M2128.29,1093.69s-181.41,30.73-217.39,155.92,183,133.3,183,133.3,215.07-7.36,253.3-41.84,57.72-209.15-197.91-245.88Z"/><path class="cls-19" d="M2140,1162.15c-1.18,0-2.35,0-3.52-.14-13-1.06-23.36-7.8-29.07-19l4-2.07c5,9.72,14,15.59,25.39,16.51,14,1.18,29-5.32,36.67-15.69l3.65,2.69C2169.3,1155.19,2154.4,1162.15,2140,1162.15Z"/><rect class="cls-19" x="2018.98" y="1217.45" width="4.55" height="122.01" transform="translate(-243.66 2046.63) rotate(-51.05)"/><rect class="cls-19" x="2201.75" y="1277.14" width="114.4" height="4.54" transform="translate(-286.34 1790.51) rotate(-40.88)"/><rect class="cls-4" x="2032.39" y="1236.62" width="211.81" height="154.67" rx="11.49"/><path class="cls-8" d="M2118.34,1054.91l-4.93,47a27,27,0,0,0,9.47,23.58h0a25.26,25.26,0,0,0,32.18.21l.44-.35a27,27,0,0,0,9.64-24.47l-6.09-46.77Z"/><path class="cls-9" d="M2117.44,1064.58c14.38,28.18,30.61,28.75,43,.71L2135,1062Z"/><ellipse class="cls-8" cx="2139.31" cy="1029.84" rx="34.38" ry="44.99"/><path class="cls-9" d="M2179.37,1022.44s-34.45-.57-45.84-28.47c0,0-18.51,6.54-23.35,30.46l-13.09,4.56-.29-37.59,29-18.5,25.91.56,22.78,19.08Z"/><path class="cls-8" d="M2115,1026.22c3.84,7.4,1.85,16-4.43,19.29s-14.48-.1-18.32-7.49-1.85-16,4.43-19.3S2111.17,1018.82,2115,1026.22Z"/><path class="cls-8" d="M2164.87,1026.22c-3.84,7.4-1.86,16,4.42,19.29s14.49-.1,18.32-7.49,1.86-16-4.42-19.3S2168.7,1018.82,2164.87,1026.22Z"/></g></svg>