<svg xmlns="http://www.w3.org/2000/svg" viewBox="0 0 684.55 453.99"><defs><style>.cls-1{fill:#ebebeb;}.cls-2{fill:#e0e0e0;}.cls-3{fill:#fafafa;}.cls-4{fill:none;}.cls-5{fill:#fff;}.cls-6{opacity:0.5;}.cls-7{fill:#f5f5f5;}.cls-8{fill:#ae7461;}.cls-9{opacity:0.3;}.cls-10{fill-rule:evenodd;}.cls-11{fill:#263238;}.cls-12{fill:#455a64;}.cls-13{fill:#2f57a4;}.cls-14{fill:#ffbf9d;}.cls-15{fill:#ff9a6c;}</style></defs><g id="Background_Complete" data-name="Background Complete"><path class="cls-1" d="M563.06,14.15s12,4.52,12.32,7c0,0-2.65,9-14.12,15.41l.56,4.21-1.86,6c-1.59-9-2.36-22.37-2.36-22.37S560,15.91,563.06,14.15Z"/><path class="cls-2" d="M563.25,15.08s.81,12.41-4.29,19.57C559,34.65,556.15,23,563.25,15.08Z"/><path class="cls-1" d="M539.63,23.21s9-9.08,11.41-8.36c0,0,7.16,6.13,8.24,19.2l4.07,1.22s5.07-8.64,17.51-10.38c0,0,2.72,13.09,3,13a23.15,23.15,0,0,1-15.77,1.5c-8.9-2.27-21.37-7.06-21.37-7.06S540,26.71,539.63,23.21Z"/><path class="cls-2" d="M565,37.44s10.81-2.43,18,.37C583,37.81,572.21,42.36,565,37.44Z"/><path class="cls-2" d="M540.56,23.42s11.64,4.37,16.07,12C556.63,35.38,544.89,33.16,540.56,23.42Z"/><polygon class="cls-1" points="519.84 23.98 507.91 73.65 583.24 96.36 599 47.85 519.84 23.98"/><polygon class="cls-2" points="534.14 28.3 519.42 77.12 507.91 73.65 519.84 23.98 534.14 28.3"/><polygon class="cls-3" points="525.5 25.69 512.7 75.09 515.32 75.88 530.04 27.06 525.5 25.69"/><rect class="cls-3" x="533.1" y="59.02" width="50.99" height="6.56" transform="translate(337.69 579.13) rotate(-73.22)"/><rect class="cls-3" x="512.52" y="57.11" width="80.64" height="4.95" transform="translate(1062.88 281) rotate(-162.68)"/><path class="cls-1" d="M34.24,188.33s9.11-.65,10,.84c0,0,1,6.63-4.54,14.16l1.62,2.57.58,4.43c-3.72-5.38-8.19-13.77-8.19-13.77S32.8,190.37,34.24,188.33Z"/><path class="cls-2" d="M34.64,188.88s4.22,7.78,3,13.93C37.69,202.81,32.42,196.14,34.64,188.88Z"/><path class="cls-1" d="M21.79,201.17s3.15-8.57,4.89-8.81c0,0,6.45,1.83,11,10l3-.42s.7-7.1,8.24-11.93c0,0,5.65,7.66,5.8,7.56A16.5,16.5,0,0,1,45,203.2c-6.43,1.18-15.92,1.8-15.92,1.8S23.05,203.32,21.79,201.17Z"/><path class="cls-2" d="M42.42,202.82s6.27-4.79,11.79-5.13C54.21,197.69,48.56,203.85,42.42,202.82Z"/><path class="cls-2" d="M22.45,201s8.83-.65,14,2.95C36.4,204,28.15,206,22.45,201Z"/><polygon class="cls-1" points="9.22 207.56 16.29 243.24 71.77 235.5 67.53 199.43 9.22 207.56"/><polygon class="cls-2" points="19.75 206.09 24.76 242.05 16.29 243.24 9.22 207.56 19.75 206.09"/><polygon class="cls-3" points="13.39 206.98 19.82 242.74 21.74 242.48 16.73 206.51 13.39 206.98"/><rect class="cls-3" x="43.36" y="202.65" width="4.67" height="36.31" transform="translate(-30.06 8.43) rotate(-7.94)"/><rect class="cls-3" x="12.44" y="219" width="57.42" height="3.52" transform="matrix(-0.99, 0.13, -0.13, -0.99, 110.4, 434.38)"/><path class="cls-2" d="M565.8,220.25l27.84-60a6.53,6.53,0,0,1,3.92-3.54l29.86-9.88a6.56,6.56,0,0,1,8.07,3.62L648,179.32a6.6,6.6,0,0,1,0,5.28l-27.84,60a6.55,6.55,0,0,1-8.66,3.29l-42.33-19A6.55,6.55,0,0,1,565.8,220.25Zm56.58-51.84a6.15,6.15,0,1,0-3.63-7.91A6.15,6.15,0,0,0,622.38,168.41Z"/><path class="cls-4" d="M565.8,220.25l27.84-60a6.53,6.53,0,0,1,3.92-3.54l29.86-9.88a6.56,6.56,0,0,1,8.07,3.62L648,179.32a6.6,6.6,0,0,1,0,5.28l-27.84,60a6.55,6.55,0,0,1-8.66,3.29l-42.33-19A6.55,6.55,0,0,1,565.8,220.25Zm56.58-51.84a6.15,6.15,0,1,0-3.63-7.91A6.15,6.15,0,0,0,622.38,168.41Z"/><path class="cls-5" d="M631.12,203.85c2.72-5.86.69-11.1-4.29-13.41s-10.35-.52-13.07,5.33-.69,11.1,4.34,13.44S628.38,209.75,631.12,203.85Zm-11.51-5.36c1.6-3.43,3.44-4.22,5.08-3.46s2.23,2.68.63,6.12-3.53,4.18-5.08,3.46S618,201.93,619.61,198.49Zm-13-16.93-7-3.24L607,222.93l7,3.24Zm-6.79,27.14c2.72-5.85.73-11.07-4.3-13.41s-10.35-.52-13.07,5.34-.69,11.09,4.34,13.43S597.06,214.6,599.81,208.7Zm-11.52-5.35c1.6-3.44,3.49-4.21,5.08-3.46s2.23,2.68.63,6.11-3.48,4.21-5.08,3.46S586.7,206.78,588.29,203.35Z"/><path class="cls-2" d="M47.25,137.46,174,102.35a6.12,6.12,0,0,0,4.26-7.53l-21.69-78.3a6.12,6.12,0,0,0-7.53-4.27L22.29,47.37A6.12,6.12,0,0,0,18,54.9l21.69,78.3A6.11,6.11,0,0,0,47.25,137.46Z"/><path class="cls-5" d="M158.64,71.66l2.13,7.7.79-.22-1.93-7,1.81-.5-.2-.71Z"/><path class="cls-5" d="M152.67,80.84l.19.71,5.4-1.5-.16-.56L154,77.25c-1.11-.62-1.42-1.09-1.56-1.62-.25-.89.23-1.61,1.4-1.94a2.73,2.73,0,0,1,2.34.28l.42-.64a3.57,3.57,0,0,0-3-.34c-1.56.43-2.33,1.49-2,2.78.2.74.62,1.33,1.93,2.06l3.33,1.84Z"/><path class="cls-5" d="M144.21,81.77l1.53-.43.56,2,.79-.22-.55-2,4.34-1.2-.16-.57-5.49-4-.88.24,5.31,3.88-3.34.93-.5-1.78-.76.21.49,1.78-1.54.43Z"/><path class="cls-5" d="M132.42,85l1.54-.42.56,2,.79-.22-.56-2,4.34-1.2-.16-.57-5.49-4-.88.24,5.31,3.88-3.34.92L134,81.91l-.77.21.49,1.78-1.54.43Z"/><path class="cls-5" d="M125.63,86.65c.36,1.31,1.56,2.08,3.44,1.56a4.12,4.12,0,0,0,2.48-1.75l-.56-.52a3.43,3.43,0,0,1-2.11,1.54c-1.31.36-2.18-.08-2.44-1s.17-1.77,2.13-2.31l1.64-.45L128.74,80l-4.21,1.16.2.71,3.51-1,.95,2.38-1,.27C125.88,84.14,125.25,85.29,125.63,86.65Z"/><path class="cls-5" d="M118,88.73a2.48,2.48,0,0,0,3.28,1.63c2-.56,2.76-2.29,2.09-4.72-.73-2.61-2.53-3.58-4.62-3a3.66,3.66,0,0,0-1.71.92l.5.55a2.74,2.74,0,0,1,1.39-.77c1.66-.46,3,.31,3.6,2.39a6.31,6.31,0,0,1,.14.64A2.56,2.56,0,0,0,120,85.7,2.42,2.42,0,0,0,118,88.73Zm.79-.2c-.29-1,.28-1.86,1.47-2.19a1.84,1.84,0,0,1,2.44,1.13c.24.85-.24,1.84-1.57,2.21A1.74,1.74,0,0,1,118.81,88.53Z"/><path class="cls-5" d="M107.52,91.73c.36,1.29,1.56,2,3.42,1.5a4.21,4.21,0,0,0,2.5-1.75l-.56-.52a3.52,3.52,0,0,1-2.14,1.55c-1.27.35-2.14-.05-2.41-1s.23-1.7,1.66-2.1l.55-.15-.17-.58-2.87-2.08,3.94-1.09-.2-.7-4.94,1.37.15.56,2.94,2.13C107.76,89.4,107.18,90.5,107.52,91.73Z"/><path class="cls-5" d="M99.78,93.78a2.48,2.48,0,0,0,3.28,1.63c2-.56,2.77-2.29,2.09-4.72-.72-2.61-2.53-3.58-4.62-3a3.62,3.62,0,0,0-1.7.92l.49.55a2.74,2.74,0,0,1,1.39-.77c1.66-.46,3,.31,3.6,2.4a5.54,5.54,0,0,1,.14.63,2.55,2.55,0,0,0-2.71-.67A2.42,2.42,0,0,0,99.78,93.78Zm.79-.2A1.75,1.75,0,0,1,102,91.39a1.76,1.76,0,1,1,.87,3.34A1.74,1.74,0,0,1,100.57,93.58Z"/><path class="cls-5" d="M91.21,90.34l.16.56,5.19,6.24.86-.23-5.1-6.12,4-1.09.4,1.44.78-.22-.6-2.14Z"/><path class="cls-5" d="M80.22,93.39l.15.56,5.2,6.24.86-.24-5.1-6.11,4-1.1.4,1.44.78-.21-.59-2.14Z"/><path class="cls-5" d="M74.19,101c.38,1.36,1.76,1.88,3.6,1.38s2.73-1.67,2.35-3a2,2,0,0,0-2-1.48,1.82,1.82,0,0,0,.74-2c-.35-1.25-1.63-1.74-3.26-1.29s-2.5,1.53-2.15,2.79a1.81,1.81,0,0,0,1.7,1.35A2,2,0,0,0,74.19,101Zm.81-.24c-.26-1,.38-1.76,1.75-2.14s2.33,0,2.59.94-.38,1.77-1.74,2.15S75.26,101.75,75,100.8ZM76.57,98c-1.19.33-2.06,0-2.29-.84s.37-1.61,1.53-1.93,2,0,2.28.86S77.77,97.7,76.57,98Z"/><path class="cls-5" d="M66.23,101.34c.72,2.61,2.53,3.58,4.62,3a3.62,3.62,0,0,0,1.7-.92l-.49-.55a2.74,2.74,0,0,1-1.39.77c-1.66.46-3-.31-3.6-2.4a5.54,5.54,0,0,1-.14-.63,2.55,2.55,0,0,0,2.71.67,2.42,2.42,0,0,0,2-3,2.48,2.48,0,0,0-3.28-1.63C66.27,97.18,65.56,98.91,66.23,101.34Zm.66-1.83a1.85,1.85,0,0,1,1.58-2.21,1.74,1.74,0,1,1,.87,3.34A1.85,1.85,0,0,1,66.89,99.51Z"/><path class="cls-5" d="M57.38,99.72l2.13,7.69.79-.22-1.93-7,1.81-.5L60,99Z"/><path class="cls-5" d="M51.41,108.9l.19.7,5.4-1.5-.16-.56-4.06-2.24c-1.11-.62-1.42-1.09-1.56-1.62-.25-.89.23-1.61,1.4-1.93A2.73,2.73,0,0,1,55,102l.42-.64a3.56,3.56,0,0,0-3-.34c-1.55.43-2.32,1.5-2,2.78.21.74.62,1.33,1.93,2.06l3.33,1.84Z"/><path class="cls-5" d="M44.09,109.3c.36,1.29,1.57,2,3.42,1.5a4.13,4.13,0,0,0,2.5-1.75l-.56-.52a3.52,3.52,0,0,1-2.14,1.55c-1.27.35-2.14,0-2.4-1s.22-1.71,1.65-2.11l.55-.15-.16-.58-2.87-2.08L48,103.07l-.2-.7-4.94,1.37.16.56L46,106.43C44.33,107,43.75,108.07,44.09,109.3Z"/><rect class="cls-5" x="43.04" y="109.31" width="63.93" height="3.47" transform="translate(-26.92 24.05) rotate(-15.48)"/><rect class="cls-5" x="45.46" y="120.13" width="32.79" height="3.47" transform="translate(-30.28 20.93) rotate(-15.48)"/><g class="cls-6"><rect class="cls-7" x="132.48" y="47.64" width="26.82" height="20.04" rx="4.96" transform="translate(301.89 74.28) rotate(164.52)"/></g><path class="cls-2" d="M160,58.39l-.35-1.24-13.31,3.69a2.89,2.89,0,0,1-1.54-5.57l13.31-3.69-.34-1.24L144.48,54a4.18,4.18,0,0,0,2.23,8Z"/><rect class="cls-2" x="132.88" y="59.62" width="9.48" height="1.29" transform="matrix(0.96, -0.27, 0.27, 0.96, -11.11, 39.08)"/><rect class="cls-5" x="81.75" y="38.48" width="68.98" height="5.92" transform="translate(239.33 50.34) rotate(164.51)"/><rect class="cls-5" x="35.13" y="55.05" width="13.88" height="13.88" rx="3.15" transform="translate(99.17 110.5) rotate(164.51)"/><path class="cls-2" d="M600.83,303.29c.06,0,.12-.83.41-2.3a29,29,0,0,1,1.83-6,23.18,23.18,0,0,1,5.22-7.66,14.58,14.58,0,0,1,20.5-.06,23,23,0,0,1,5.25,7.63,28.78,28.78,0,0,1,1.86,6c.29,1.47.35,2.3.41,2.3a2.18,2.18,0,0,0,0-.61c0-.39-.07-1-.18-1.72a26.72,26.72,0,0,0-1.71-6.15,22.65,22.65,0,0,0-5.27-7.86,15,15,0,0,0-21.2.07,22.83,22.83,0,0,0-5.24,7.88A26.56,26.56,0,0,0,601,301c-.11.74-.16,1.33-.18,1.72A2.82,2.82,0,0,0,600.83,303.29Z"/><path class="cls-2" d="M594.71,303.29c.06,0,.11-.83.4-2.3a28.56,28.56,0,0,1,1.84-6,22.88,22.88,0,0,1,5.22-7.66,14.57,14.57,0,0,1,20.49-.06,23,23,0,0,1,5.26,7.63,28.64,28.64,0,0,1,1.85,6c.29,1.47.36,2.3.42,2.3a4,4,0,0,0,0-.61c0-.39-.08-1-.19-1.72a25.73,25.73,0,0,0-1.71-6.15,22.65,22.65,0,0,0-5.27-7.86,15,15,0,0,0-21.2.07,22.65,22.65,0,0,0-5.23,7.88,26.17,26.17,0,0,0-1.69,6.16c-.11.74-.16,1.33-.18,1.72A2.36,2.36,0,0,0,594.71,303.29Z"/><polygon class="cls-1" points="653.84 301.1 584.66 300.57 583.15 394.88 660.78 394.88 653.84 301.1"/><polygon class="cls-2" points="584.66 300.57 575.97 300.57 568.49 394.88 583.15 394.88 584.66 300.57"/><rect class="cls-5" x="599.32" y="337.7" width="45.29" height="7.59" transform="translate(1243.93 682.99) rotate(180)"/><path class="cls-2" d="M48.88,303.29c.06,0,.12-.83.4-2.3a28.56,28.56,0,0,1,1.84-6,23,23,0,0,1,5.22-7.66,14.57,14.57,0,0,1,20.49-.06,22.85,22.85,0,0,1,5.26,7.63,28.64,28.64,0,0,1,1.85,6c.3,1.47.36,2.3.42,2.3a2.82,2.82,0,0,0,0-.61,16,16,0,0,0-.19-1.72,25.73,25.73,0,0,0-1.71-6.15,22.61,22.61,0,0,0-5.26-7.86,15,15,0,0,0-21.21.07,22.79,22.79,0,0,0-5.23,7.88A26.06,26.06,0,0,0,49.07,301a13.34,13.34,0,0,0-.18,1.72A2.18,2.18,0,0,0,48.88,303.29Z"/><path class="cls-2" d="M42.75,303.29c.06,0,.12-.83.41-2.3A29,29,0,0,1,45,295a23,23,0,0,1,5.22-7.66,14.57,14.57,0,0,1,20.49-.06A22.85,22.85,0,0,1,76,294.86a28.78,28.78,0,0,1,1.86,6c.29,1.47.35,2.3.41,2.3a2.18,2.18,0,0,0,0-.61,16,16,0,0,0-.19-1.72,26.11,26.11,0,0,0-1.7-6.15,22.65,22.65,0,0,0-5.27-7.86,15,15,0,0,0-21.2.07,22.83,22.83,0,0,0-5.24,7.88A26.56,26.56,0,0,0,42.94,301c-.11.74-.16,1.33-.18,1.72A2.82,2.82,0,0,0,42.75,303.29Z"/><polygon class="cls-1" points="101.89 301.1 32.7 300.57 31.19 394.88 108.83 394.88 101.89 301.1"/><polygon class="cls-2" points="32.7 300.57 24.02 300.57 16.54 394.88 31.19 394.88 32.7 300.57"/><rect class="cls-5" x="47.36" y="337.7" width="45.29" height="7.59" transform="translate(140.02 682.99) rotate(180)"/></g><g id="Box"><rect class="cls-8" x="538.97" y="321.97" width="95.97" height="72.55" transform="translate(1173.91 716.48) rotate(180)"/><g class="cls-9"><path class="cls-10" d="M575.13,330.49v-3.38h-5.82v3.38a2.88,2.88,0,0,0,2.54,2.83v2.94h-1.29c-.45,0-.82.25-.82.57h5c0-.32-.37-.57-.83-.57h-1.29v-2.94A2.88,2.88,0,0,0,575.13,330.49Z"/><path class="cls-10" d="M586.27,330.26a4.24,4.24,0,0,0-4.1-3.15h0a4.22,4.22,0,0,0-4.1,3.15h3.7v5.3a.82.82,0,0,1-1.63,0h-.79a1.61,1.61,0,0,0,3.21,0v-5.3Z"/></g><g class="cls-9"><rect x="538.97" y="321.97" width="23.8" height="72.55"/></g><path class="cls-11" d="M562.82,393.79c.14,0,.24-16.09.24-35.93s-.1-35.93-.24-35.93-.24,16.08-.24,35.93S562.69,393.79,562.82,393.79Z"/><rect class="cls-5" x="547.11" y="377.79" width="7.36" height="8.15" transform="translate(1101.58 763.73) rotate(180)"/><g class="cls-9"><rect x="594.76" y="322.16" width="10.9" height="15.48"/></g><g class="cls-9"><rect x="594.76" y="378.82" width="10.9" height="15.48"/></g><path class="cls-11" d="M634.25,322c0,.1-21.29.19-47.54.19s-47.53-.09-47.53-.19,21.28-.19,47.53-.19S634.25,321.9,634.25,322Z"/><path class="cls-2" d="M590.85,363.07H607a.7.7,0,1,0,0-1.39H591.44l-1.68-9.28h18.75a.7.7,0,1,0,0-1.39H588.93a.71.71,0,0,0-.54.25.73.73,0,0,0-.15.57l1.93,10.67A.7.7,0,0,0,590.85,363.07Z"/><path class="cls-2" d="M591.39,366.8h0l15.37-.05a.7.7,0,0,0,.69-.61l2.17-16.58h4.32a.7.7,0,1,0,0-1.39H609a.69.69,0,0,0-.69.61l-2.17,16.58-14.76.05a.7.7,0,1,0,0,1.39Z"/><path class="cls-2" d="M604.25,372.16a2.57,2.57,0,1,0-2.61-2.57A2.59,2.59,0,0,0,604.25,372.16Zm0-3.75a1.18,1.18,0,1,1-1.22,1.18A1.2,1.2,0,0,1,604.25,368.41Z"/><path class="cls-2" d="M593.64,372.16a2.57,2.57,0,1,0-2.61-2.57A2.59,2.59,0,0,0,593.64,372.16Zm0-3.75a1.18,1.18,0,1,1-1.21,1.18A1.2,1.2,0,0,1,593.64,368.41Z"/><path class="cls-2" d="M602,363.07a.69.69,0,0,0,.69-.65l.66-10.33a.71.71,0,0,0-.65-.74.7.7,0,0,0-.74.66l-.66,10.32a.71.71,0,0,0,.65.74Z"/><path class="cls-2" d="M596.11,363.07h0a.69.69,0,0,0,.65-.74L596.21,352a.69.69,0,0,0-.73-.66.7.7,0,0,0-.65.74l.58,10.32A.7.7,0,0,0,596.11,363.07Z"/><path class="cls-2" d="M607.91,357.91a.69.69,0,0,0,.7-.69.71.71,0,0,0-.69-.71l-18-.17h0a.7.7,0,0,0,0,1.4l18,.17Z"/></g><g id="Plants"><path class="cls-11" d="M38.88,367.64s3.88-26.69,3.56-42.22,0-33,0-33H40.67s1.21,30.82-.11,49.41-4.78,25.8-4.78,25.8h3.1"/><path class="cls-12" d="M27.32,262.4A4.66,4.66,0,0,1,29,260c1.13-.72,2.62-.42,3.89,0C38.24,262,43,272,45.22,277.33L38,301.51C25.09,289.49,22.85,273.73,27.32,262.4Z"/><path class="cls-11" d="M29.37,261a1.1,1.1,0,0,0,.1.31l.35.88c.32.76.76,1.87,1.29,3.24,1,2.75,2.4,6.59,3.6,10.91s2,8.31,2.54,11.21c.25,1.45.44,2.63.57,3.44l.15.94a1.76,1.76,0,0,0,.07.32,1.19,1.19,0,0,0,0-.33c0-.25-.06-.56-.1-1-.09-.82-.25-2-.48-3.45A101.75,101.75,0,0,0,35,276.25a104.27,104.27,0,0,0-3.7-10.9c-.55-1.37-1-2.46-1.37-3.21l-.4-.86C29.43,261.08,29.38,261,29.37,261Z"/><path class="cls-12" d="M41.23,307.3a21.88,21.88,0,0,0,11.06-18.38c.26-5.37-1.39-10.63-3.25-15.67a2.09,2.09,0,0,0-.76-1.14,2,2,0,0,0-1.84.29c-4.89,2.78-7.85,8.09-9.42,13.49A27.27,27.27,0,0,0,35.91,297a18.47,18.47,0,0,0,5.32,10.32"/><path class="cls-11" d="M41.23,307.3a1.34,1.34,0,0,0,0-.32l0-.93c0-.81,0-2,.1-3.41a91.93,91.93,0,0,1,1.25-11.17c.74-4.33,1.65-8.21,2.32-11,.32-1.37.59-2.5.79-3.32l.21-.9a1.55,1.55,0,0,0,0-.32,1,1,0,0,0-.11.3c-.07.24-.15.53-.26.89-.22.78-.53,1.9-.89,3.3-.72,2.79-1.66,6.67-2.41,11a81.28,81.28,0,0,0-1.16,11.21c0,1.45,0,2.61,0,3.42,0,.38,0,.68,0,.93A1.34,1.34,0,0,0,41.23,307.3Z"/><g class="cls-9"><path d="M41.23,307.3a21.88,21.88,0,0,0,11.06-18.38c.26-5.37-1.39-10.63-3.25-15.67a2.09,2.09,0,0,0-.76-1.14,2,2,0,0,0-1.84.29c-4.89,2.78-7.85,8.09-9.42,13.49A27.27,27.27,0,0,0,35.91,297a18.47,18.47,0,0,0,5.32,10.32"/></g><path class="cls-12" d="M33.64,348.14c-6.62,1.45-12.07,6.12-18.45,8.39-4.23,1.51-9,2-12.38,5,.81-2,2.73-3.4,4.59-4.57a82.58,82.58,0,0,1,16.73-8c3-1,6.27-1.91,9.33-1.05"/><path class="cls-12" d="M43.22,354c8.29-.14,17-7.19,25.27-7.62-8.64-2.78-21-.51-25.27,7.62"/><path class="cls-12" d="M40,334.15a27,27,0,0,0-13.26-.9,81.18,81.18,0,0,0-12.94,3.51c.43-2.87,2.76-5,5-6.95a33.94,33.94,0,0,1,5.19-4,11.56,11.56,0,0,1,6.23-1.76A9.83,9.83,0,0,1,37,327.53,11.43,11.43,0,0,1,40,334.15"/><path class="cls-12" d="M57,325c5.22-4.46,13.12-4,20-3.87a163.46,163.46,0,0,0-31,19.31C45.7,335.59,50.4,330.62,57,325Z"/><g class="cls-9"><path d="M57,325c5.22-4.46,13.12-4,20-3.87a163.46,163.46,0,0,0-31,19.31C45.7,335.59,50.4,330.62,57,325Z"/></g><path class="cls-12" d="M37.63,318.85a57.89,57.89,0,0,0-8-4.67c-2.74-1.25-5.31-3.24-8-4.67-3.44-1.86-6.42-4.45-9.58-6.76s-6.62-4.4-10.49-5a20.74,20.74,0,0,1,9.55.55,62.06,62.06,0,0,1,9,3.5c4.08,1.83,8.22,3.71,11.55,6.69s6.33,5.91,6,10.37"/><path class="cls-11" d="M15.34,354a1,1,0,0,0,.26-.12l.72-.37c.63-.33,1.53-.83,2.65-1.39.56-.3,1.18-.61,1.85-.92s1.39-.66,2.16-1a32.7,32.7,0,0,1,5.1-1.78,11.08,11.08,0,0,1,5.32-.13,16.15,16.15,0,0,1,2.25.67,11.92,11.92,0,0,1,4.11,2.82c.48.52.71.83.73.82s0-.09-.15-.25a7.5,7.5,0,0,0-.5-.64,10.68,10.68,0,0,0-2.25-2,11.74,11.74,0,0,0-1.84-1,15,15,0,0,0-2.29-.72,11.22,11.22,0,0,0-5.45.11A31.17,31.17,0,0,0,22.87,350c-.77.34-1.49.68-2.15,1s-1.29.64-1.84,1c-1.12.59-2,1.12-2.61,1.48l-.7.42C15.41,354,15.33,354,15.34,354Z"/><path class="cls-11" d="M49.4,349.93a1.65,1.65,0,0,0-.52.15,11.15,11.15,0,0,0-1.35.59,16.5,16.5,0,0,0-6.93,6.65,12.34,12.34,0,0,0-.64,1.33,1.7,1.7,0,0,0-.17.51c.05,0,.36-.68,1-1.73a18.33,18.33,0,0,1,6.85-6.58C48.7,350.26,49.42,350,49.4,349.93Z"/><path class="cls-11" d="M67.74,324.58l-.35.1-1,.36-1.57.58c-.61.22-1.27.56-2,.89A48.14,48.14,0,0,0,52,333.39a52.61,52.61,0,0,0-5,4.95,55.92,55.92,0,0,0-3.57,4.53c-.95,1.34-1.66,2.46-2.16,3.23l-.56.89a1.54,1.54,0,0,0-.19.32s.09-.09.24-.29.35-.48.61-.86c.52-.75,1.26-1.85,2.23-3.17s2.18-2.84,3.61-4.47a56,56,0,0,1,5-4.91,50.56,50.56,0,0,1,10.69-6.91c.74-.34,1.4-.69,2-.93l1.54-.62,1-.41A1.73,1.73,0,0,0,67.74,324.58Z"/><path class="cls-11" d="M27.54,329.49a2.69,2.69,0,0,0,.66-.09l.76-.14c.3-.05.64-.05,1-.09a10.41,10.41,0,0,1,5.7,1.12,10.57,10.57,0,0,1,2.59,1.92,11.79,11.79,0,0,1,1.66,2.06,16.26,16.26,0,0,1,1.14,2.18,2.41,2.41,0,0,0-.16-.65,9.85,9.85,0,0,0-.8-1.64A11.12,11.12,0,0,0,38.46,332a10,10,0,0,0-2.65-2A10.09,10.09,0,0,0,30,329c-.38.05-.73.07-1,.14l-.76.19A2.71,2.71,0,0,0,27.54,329.49Z"/><path class="cls-11" d="M19.2,303.64a1.71,1.71,0,0,0,.32.19l.92.51c.81.43,2,1.07,3.37,1.9s3.05,1.87,4.8,3.12a40.43,40.43,0,0,1,5.37,4.5,13.58,13.58,0,0,1,2.19,2.84c.54,1,1.06,2.05,1.54,3A54,54,0,0,1,40,325a32.65,32.65,0,0,1,1.12,3.69c.21.89.29,1.39.32,1.38a1.61,1.61,0,0,0,0-.36c0-.24-.08-.6-.17-1.05a28.49,28.49,0,0,0-1-3.73,50,50,0,0,0-2.26-5.3c-.47-1-1-2-1.52-3a13.71,13.71,0,0,0-2.24-2.91,38.64,38.64,0,0,0-5.42-4.51c-1.77-1.25-3.44-2.26-4.85-3.08s-2.6-1.42-3.42-1.83l-.95-.45A1.54,1.54,0,0,0,19.2,303.64Z"/><path class="cls-11" d="M42.45,328.74a3.07,3.07,0,0,0,.17-.7c.09-.51.21-1.15.36-1.91a52.77,52.77,0,0,1,1.57-6.22,55.89,55.89,0,0,1,2.36-6c.33-.7.6-1.3.81-1.77a3.25,3.25,0,0,0,.27-.67,3.08,3.08,0,0,0-.37.62c-.22.4-.53,1-.9,1.73a41,41,0,0,0-3.95,12.24c-.13.82-.22,1.48-.27,1.94A3.44,3.44,0,0,0,42.45,328.74Z"/><path class="cls-12" d="M43.05,309.88a22.53,22.53,0,0,1,2.7-8.95,29.5,29.5,0,0,1,20-14.93L47.23,313.63l-2.39,4.93A14.19,14.19,0,0,1,43.05,309.88Z"/><rect class="cls-13" x="16.46" y="364.34" width="43.11" height="7.64" transform="translate(76.02 736.32) rotate(180)"/><polygon class="cls-13" points="56.35 370.46 52.68 394.17 24.06 394.17 19.68 370.46 56.35 370.46"/><path class="cls-11" d="M16.48,372c0,.08,9.72.15,21.72.15s21.72-.07,21.72-.15-9.73-.15-21.72-.15S16.48,371.91,16.48,372Z"/></g><g id="Device"><path class="cls-12" d="M120.8,389.17H543.57a25.31,25.31,0,0,0,25.3-25.31V73.71a18.46,18.46,0,0,0-18.46-18.45H112.94A17.44,17.44,0,0,0,95.5,72.7V363.86A25.3,25.3,0,0,0,120.8,389.17Z"/><path class="cls-12" d="M96,394.25H564.2a24.46,24.46,0,0,0,24.46-24.46V366a1,1,0,0,0-.94-1h-511a1,1,0,0,0-.94,1v8.08A20.19,20.19,0,0,0,96,394.25Z"/><path class="cls-11" d="M96,394.25l-.69-.05a16.68,16.68,0,0,1-2-.18,20.23,20.23,0,0,1-12.1-6.39,20.07,20.07,0,0,1-3.8-6,20.94,20.94,0,0,1-1.47-8.14c0-1.49,0-3,0-4.62v-2.42c0-.42,0-.82.27-1.08s.69-.22,1.12-.22l114,.08,376.21.08h20.15a.63.63,0,0,1,.31.05.68.68,0,0,1,.39.45,6.24,6.24,0,0,1,0,.78v1.71c0,1.14,0,2.26-.09,3.38a23.64,23.64,0,0,1-1.44,6.54,27.7,27.7,0,0,1-1.36,3.06,26.86,26.86,0,0,1-1.81,2.81,24.36,24.36,0,0,1-10.35,8.11,25.76,25.76,0,0,1-6.39,1.63c-2.19.21-4.42.17-6.64.17H520.85L421,394l-169.13.06-114,.08-31,.05-8.06,0-2.75,0,2.75,0,8.06,0,31,.05,114,.09,169.13.05,99.89,0h39.47c2.22,0,4.44.05,6.69-.17a26.42,26.42,0,0,0,6.54-1.67A25.53,25.53,0,0,0,586,381.51a27.19,27.19,0,0,0,1.39-3.12,23.85,23.85,0,0,0,1.47-6.68c.07-1.15.12-2.29.1-3.42v-1.71a5,5,0,0,0,0-.91,1.19,1.19,0,0,0-.68-.8,1.45,1.45,0,0,0-.52-.1H567.53l-376.21.08-114,.08h-.64a1,1,0,0,0-.62.28,1,1,0,0,0-.31.59c0,.24,0,.42,0,.63,0,.82,0,1.62,0,2.42v4.62a20.88,20.88,0,0,0,1.51,8.2,20.19,20.19,0,0,0,3.84,6,19.43,19.43,0,0,0,4.61,3.73,18.93,18.93,0,0,0,7.58,2.62,14.4,14.4,0,0,0,2,.16Z"/><rect class="cls-11" x="116.23" y="75.64" width="433.24" height="273.52" rx="5.27"/><path class="cls-11" d="M121.49,349.16a6.84,6.84,0,0,1-.9-.09,5.36,5.36,0,0,1-2.43-1.13,5.27,5.27,0,0,1-1.89-3.87q0-2.65,0-6.17c0-9.36,0-23.15,0-40.92,0-35.54,0-87,.08-150.5q0-23.82,0-49.86V81.82a12.43,12.43,0,0,1,.06-1.63,5,5,0,0,1,1.4-2.83,5,5,0,0,1,2.82-1.44,9.82,9.82,0,0,1,1.64-.07h29.22l119.28,0,273.31,0A5,5,0,0,1,548,77.63a4.88,4.88,0,0,1,1,1.88,7,7,0,0,1,.2,2.17v62.73q0,35.43,0,69.74v67.31q0,16.49,0,32.63v28a9.49,9.49,0,0,1-.39,3.79,5.06,5.06,0,0,1-2.55,2.64,4.91,4.91,0,0,1-1.8.44c-.63,0-1.3,0-2,0H489l-57.9,0-103.93,0-150.49.08-40.91.05-10.64,0-3.63,0,3.63,0,10.64,0,40.91,0,150.49.08,103.93,0H542.53c.66,0,1.29,0,2,0a5.44,5.44,0,0,0,2-.49,5.51,5.51,0,0,0,2.8-2.88,5.31,5.31,0,0,0,.42-2V281.46q0-33,0-67.31V108.75q0-9,0-18v-9a7.69,7.69,0,0,0-.23-2.32,5.44,5.44,0,0,0-1.13-2.07,5.57,5.57,0,0,0-4.21-1.91l-273.31,0-119.28,0H122.35a12.48,12.48,0,0,0-1.71.07,5.46,5.46,0,0,0-4.56,4.63,12.1,12.1,0,0,0-.06,1.69v14.8q0,26,0,49.86c0,63.54.06,115,.08,150.5,0,17.77,0,31.56,0,40.92q0,3.51,0,6.18a5.26,5.26,0,0,0,1.93,3.9,5.17,5.17,0,0,0,2.45,1.11,3.42,3.42,0,0,0,.68.07Z"/><polygon class="cls-11" points="378.85 364.47 372.48 375.27 282.93 375.27 277.02 364.47 378.85 364.47"/><path class="cls-11" d="M328.68,66.38a3.55,3.55,0,1,0,3.55-3.55A3.55,3.55,0,0,0,328.68,66.38Z"/><rect class="cls-5" x="132.18" y="84.36" width="400.01" height="252.13" transform="translate(664.37 420.85) rotate(180)"/><rect class="cls-2" x="132.18" y="107.45" width="400.01" height="25.28" transform="translate(664.37 240.18) rotate(180)"/><path class="cls-5" d="M515.81,119a3.86,3.86,0,1,0,3.85-3.84A3.85,3.85,0,0,0,515.81,119Z"/><path class="cls-5" d="M504.55,119a3.86,3.86,0,1,0,3.85-3.84A3.85,3.85,0,0,0,504.55,119Z"/><path class="cls-5" d="M493.29,119a3.86,3.86,0,1,0,3.86-3.84A3.85,3.85,0,0,0,493.29,119Z"/><rect class="cls-1" x="434.27" y="153.03" width="46.98" height="46.98" rx="3.84" transform="translate(915.52 353.04) rotate(180)"/><rect class="cls-1" x="423.32" y="210.42" width="68.89" height="10.59" rx="4.26" transform="translate(915.52 431.43) rotate(-180)"/><rect class="cls-1" x="341.51" y="144.17" width="46.98" height="46.98" rx="3.84" transform="translate(730.01 335.33) rotate(180)"/><rect class="cls-1" x="330.56" y="201.56" width="68.89" height="10.59" rx="4.26" transform="translate(730.01 413.72) rotate(-180)"/><rect class="cls-1" x="434.47" y="246.81" width="46.98" height="46.98" rx="3.84" transform="translate(915.93 540.61) rotate(180)"/><rect class="cls-1" x="423.52" y="304.2" width="68.89" height="10.59" rx="4.26" transform="translate(915.93 619) rotate(-180)"/><rect class="cls-1" x="339.8" y="237.14" width="46.98" height="46.98" rx="3.84" transform="translate(726.57 521.25) rotate(180)"/><rect class="cls-1" x="328.84" y="294.53" width="68.89" height="10.59" rx="4.26" transform="translate(726.57 599.64) rotate(180)"/><rect class="cls-13" x="192.9" y="140.87" width="54.24" height="54.24" rx="3.84" transform="translate(440.05 335.98) rotate(180)"/><path class="cls-5" d="M211,172.45H228.9a.5.5,0,1,0,0-1H211.41l-2-11.09h21.14a.5.5,0,0,0,.5-.5.5.5,0,0,0-.5-.5H208.85a.49.49,0,0,0-.38.18.48.48,0,0,0-.11.41L210.5,172A.49.49,0,0,0,211,172.45Z"/><path class="cls-5" d="M211.58,176.68h0l17.07-.06a.5.5,0,0,0,.49-.44l2.44-19h5a.5.5,0,0,0,.5-.5.5.5,0,0,0-.5-.5h-5.48a.49.49,0,0,0-.49.43l-2.45,19-16.62.06a.5.5,0,0,0-.5.5A.51.51,0,0,0,211.58,176.68Z"/><path class="cls-5" d="M225.86,182.75a2.63,2.63,0,1,0-2.62-2.63A2.62,2.62,0,0,0,225.86,182.75Zm0-4.25a1.63,1.63,0,1,1-1.62,1.62A1.62,1.62,0,0,1,225.86,178.5Z"/><path class="cls-5" d="M214.08,182.75a2.63,2.63,0,1,0-2.62-2.63A2.63,2.63,0,0,0,214.08,182.75Zm0-4.25a1.63,1.63,0,1,1-1.62,1.62A1.63,1.63,0,0,1,214.08,178.5Z"/><path class="cls-5" d="M223.37,172.45a.51.51,0,0,0,.5-.47l.73-11.69a.5.5,0,0,0-1-.07l-.73,11.7a.52.52,0,0,0,.47.53Z"/><path class="cls-5" d="M216.82,172.45h0a.5.5,0,0,0,.47-.53l-.65-11.69a.5.5,0,0,0-.53-.47.49.49,0,0,0-.47.52l.65,11.7A.51.51,0,0,0,216.82,172.45Z"/><path class="cls-5" d="M229.93,166.6a.5.5,0,1,0,0-1l-20-.19a.52.52,0,0,0-.5.49.51.51,0,0,0,.49.51l20,.19Z"/><rect class="cls-2" x="215.43" y="234.68" width="49.13" height="11.22" rx="3.77" transform="translate(479.98 480.59) rotate(180)"/><rect class="cls-2" x="215.43" y="213.37" width="49.13" height="11.22" rx="3.77" transform="translate(479.98 437.96) rotate(180)"/><rect class="cls-13" x="178.71" y="267.17" width="91.12" height="30.73" rx="12.36" transform="translate(448.53 565.07) rotate(180)"/><path class="cls-5" d="M226.06,281.08c0,1.54,1.16,2.5,3,2.5h1.18v1.78h1.92v-6.79h-3.1C227.22,278.57,226.06,279.53,226.06,281.08Zm1.94,0c0-.63.4-1,1.19-1h1.07v2h-1.07C228.4,282.07,228,281.7,228,281.08Z"/><path class="cls-5" d="M220.92,284h2.87l.54,1.32h1.95l-3-6.79H221.4l-3,6.79h2Zm.57-1.42.87-2.17.87,2.17Z"/><path class="cls-5" d="M214.64,282.92v2.44h1.92v-2.47l2.59-4.32h-2l-1.61,2.7-1.61-2.7H212Z"/><path class="cls-1" d="M312.08,335.17c.14,0,.26-50.8.26-113.46s-.12-113.46-.26-113.46-.26,50.79-.26,113.46S311.94,335.17,312.08,335.17Z"/><circle class="cls-13" cx="436.98" cy="155.22" r="10.58" transform="translate(-19.06 71.14) rotate(-9.11)"/><path class="cls-5" d="M437.9,159.48a1,1,0,0,0,.62-.22l3.73-2.92a1,1,0,0,0,.17-1.41,1,1,0,0,0-1.4-.17l-3,2.34-5-5.79a1,1,0,1,0-1.52,1.3l5.58,6.52A1,1,0,0,0,437.9,159.48Z"/><circle class="cls-12" cx="436.98" cy="249.15" r="10.58" transform="translate(42.47 561.22) rotate(-68.04)"/><path class="cls-5" d="M437.9,253.4a1,1,0,0,0,.62-.21l3.73-2.92a1,1,0,0,0,.17-1.41,1,1,0,0,0-1.4-.17L438,251l-5-5.79a1,1,0,1,0-1.52,1.3l5.58,6.51A1,1,0,0,0,437.9,253.4Z"/><rect class="cls-2" x="180.72" y="213.37" width="12.57" height="10.64" rx="4.28" transform="translate(374.02 437.37) rotate(180)"/><rect class="cls-2" x="180.16" y="235.73" width="12.57" height="10.64" rx="4.28" transform="translate(372.89 482.1) rotate(180)"/><path class="cls-12" d="M122.38,295.69c.05,0,.09-.62.31-1.72a21.49,21.49,0,0,1,1.37-4.52,17.15,17.15,0,0,1,3.92-5.74,10.9,10.9,0,0,1,15.35-.06,17.2,17.2,0,0,1,3.94,5.73,21,21,0,0,1,1.39,4.52c.22,1.1.27,1.72.31,1.72a1.61,1.61,0,0,0,0-.46,10.86,10.86,0,0,0-.14-1.29,19.54,19.54,0,0,0-1.27-4.61,17.21,17.21,0,0,0-4-5.89,11.23,11.23,0,0,0-15.89.05,17.1,17.1,0,0,0-3.92,5.91,19,19,0,0,0-1.26,4.61,10.77,10.77,0,0,0-.14,1.3A2.2,2.2,0,0,0,122.38,295.69Z"/><path class="cls-12" d="M117.79,295.69s.09-.62.31-1.72a20.9,20.9,0,0,1,1.37-4.52,17.15,17.15,0,0,1,3.92-5.74,10.9,10.9,0,0,1,15.35-.06,17.2,17.2,0,0,1,3.94,5.73,21,21,0,0,1,1.39,4.52c.22,1.1.27,1.72.31,1.72a1.61,1.61,0,0,0,0-.46,10.86,10.86,0,0,0-.14-1.29,19.18,19.18,0,0,0-1.28-4.61,17,17,0,0,0-3.94-5.89,11.23,11.23,0,0,0-15.89.05,17,17,0,0,0-3.92,5.91,19.54,19.54,0,0,0-1.27,4.61,12.7,12.7,0,0,0-.13,1.3A2.2,2.2,0,0,0,117.79,295.69Z"/><polygon class="cls-1" points="162.11 294.05 110.26 293.66 109.13 364.33 167.31 364.33 162.11 294.05"/><polygon class="cls-2" points="110.26 293.66 103.75 293.66 98.15 364.33 109.13 364.33 110.26 293.66"/><rect class="cls-5" x="121.25" y="321.48" width="33.94" height="5.69" transform="translate(276.44 648.65) rotate(180)"/><path class="cls-11" d="M136.89,309.84a32.25,32.25,0,0,1,1.54-6.44,18.19,18.19,0,0,1,3.54-5.92,9,9,0,0,1,13.84-.05,18.09,18.09,0,0,1,3.56,5.9,32.33,32.33,0,0,1,1.56,6.43,1.86,1.86,0,0,0,0-.47,12.77,12.77,0,0,0-.12-1.33,22,22,0,0,0-1.15-4.78,17.91,17.91,0,0,0-3.57-6.1,9.31,9.31,0,0,0-14.41.05,18.07,18.07,0,0,0-3.54,6.13A22.33,22.33,0,0,0,137,308a12.92,12.92,0,0,0-.12,1.34A2.79,2.79,0,0,0,136.89,309.84Z"/><path class="cls-11" d="M132.74,309.84a32.25,32.25,0,0,1,1.54-6.44,18.19,18.19,0,0,1,3.54-5.92,9,9,0,0,1,13.84-.05,18.09,18.09,0,0,1,3.56,5.9,32.33,32.33,0,0,1,1.56,6.43,2.79,2.79,0,0,0,0-.47,12.77,12.77,0,0,0-.12-1.33,22,22,0,0,0-1.15-4.78,17.91,17.91,0,0,0-3.57-6.1,9.31,9.31,0,0,0-14.41.05,18.07,18.07,0,0,0-3.54,6.13,21.73,21.73,0,0,0-1.13,4.77,12.92,12.92,0,0,0-.12,1.34A2.79,2.79,0,0,0,132.74,309.84Z"/><polygon class="cls-13" points="174.88 307.05 128.01 306.72 126.99 364.88 179.59 364.88 174.88 307.05"/><polygon class="cls-13" points="128.01 306.72 122.13 306.72 117.06 364.88 126.99 364.88 128.01 306.72"/><g class="cls-9"><polygon points="128.01 306.72 122.13 306.72 117.06 364.88 126.99 364.88 128.01 306.72"/></g><rect class="cls-5" x="136" y="326.48" width="30.69" height="5.88" transform="translate(302.69 658.83) rotate(180)"/><path class="cls-13" d="M528.67,75.27h7A14.53,14.53,0,0,1,550.24,89.8v20.63a0,0,0,0,1,0,0H514.13a0,0,0,0,1,0,0V89.8A14.53,14.53,0,0,1,528.67,75.27Z" transform="translate(1064.38 185.7) rotate(180)"/><path class="cls-13" d="M492.56,75.27h7A14.53,14.53,0,0,1,514.13,89.8v20.63a0,0,0,0,1,0,0H478a0,0,0,0,1,0,0V89.8A14.53,14.53,0,0,1,492.56,75.27Z" transform="translate(992.16 185.7) rotate(180)"/><path class="cls-13" d="M456.44,75.27h7A14.53,14.53,0,0,1,478,89.8v20.63a0,0,0,0,1,0,0H441.91a0,0,0,0,1,0,0V89.8A14.53,14.53,0,0,1,456.44,75.27Z" transform="translate(919.94 185.7) rotate(180)"/><path class="cls-13" d="M420.16,75.27h7.22A14.53,14.53,0,0,1,441.91,89.8v20.63a0,0,0,0,1,0,0H405.63a0,0,0,0,1,0,0V89.8A14.53,14.53,0,0,1,420.16,75.27Z" transform="translate(847.54 185.7) rotate(180)"/><path class="cls-13" d="M384,75.27h7A14.53,14.53,0,0,1,405.63,89.8v20.63a0,0,0,0,1,0,0H369.52a0,0,0,0,1,0,0V89.8A14.53,14.53,0,0,1,384,75.27Z" transform="translate(775.14 185.7) rotate(180)"/><path class="cls-13" d="M347.94,75.27h7A14.53,14.53,0,0,1,369.52,89.8v20.63a0,0,0,0,1,0,0H333.41a0,0,0,0,1,0,0V89.8A14.53,14.53,0,0,1,347.94,75.27Z" transform="translate(702.92 185.7) rotate(180)"/><path class="cls-13" d="M311.83,75.27h7A14.53,14.53,0,0,1,333.41,89.8v20.63a0,0,0,0,1,0,0H297.3a0,0,0,0,1,0,0V89.8A14.53,14.53,0,0,1,311.83,75.27Z" transform="translate(630.7 185.7) rotate(180)"/><path class="cls-13" d="M275.11,75.27h7.65A14.53,14.53,0,0,1,297.3,89.8v20.63a0,0,0,0,1,0,0H260.58a0,0,0,0,1,0,0V89.8A14.53,14.53,0,0,1,275.11,75.27Z" transform="translate(557.88 185.7) rotate(180)"/><path class="cls-13" d="M239.43,75.27h7A14.53,14.53,0,0,1,261,89.8v20.63a0,0,0,0,1,0,0H224.9a0,0,0,0,1,0,0V89.8A14.53,14.53,0,0,1,239.43,75.27Z" transform="translate(485.91 185.7) rotate(180)"/><path class="cls-13" d="M203.32,75.27h7A14.53,14.53,0,0,1,224.9,89.8v20.63a0,0,0,0,1,0,0H188.79a0,0,0,0,1,0,0V89.8A14.53,14.53,0,0,1,203.32,75.27Z" transform="translate(413.69 185.7) rotate(180)"/><path class="cls-13" d="M167.21,75.27h7A14.53,14.53,0,0,1,188.79,89.8v20.63a0,0,0,0,1,0,0H152.68a0,0,0,0,1,0,0V89.8A14.53,14.53,0,0,1,167.21,75.27Z" transform="translate(341.47 185.7) rotate(180)"/><path class="cls-13" d="M131.1,75.27h7A14.53,14.53,0,0,1,152.68,89.8v20.63a0,0,0,0,1,0,0H116.57a0,0,0,0,1,0,0V89.8A14.53,14.53,0,0,1,131.1,75.27Z" transform="translate(269.25 185.7) rotate(180)"/><g class="cls-9"><path class="cls-5" d="M492.56,75.27h7A14.53,14.53,0,0,1,514.13,89.8v20.63a0,0,0,0,1,0,0H478a0,0,0,0,1,0,0V89.8A14.53,14.53,0,0,1,492.56,75.27Z" transform="translate(992.16 185.7) rotate(180)"/></g><g class="cls-9"><path class="cls-5" d="M420.16,75.27h7.22A14.53,14.53,0,0,1,441.91,89.8v20.63a0,0,0,0,1,0,0H405.63a0,0,0,0,1,0,0V89.8A14.53,14.53,0,0,1,420.16,75.27Z" transform="translate(847.54 185.7) rotate(180)"/></g><g class="cls-9"><path class="cls-5" d="M347.94,75.27h7A14.53,14.53,0,0,1,369.52,89.8v20.63a0,0,0,0,1,0,0H333.41a0,0,0,0,1,0,0V89.8A14.53,14.53,0,0,1,347.94,75.27Z" transform="translate(702.92 185.7) rotate(180)"/></g><g class="cls-9"><path class="cls-5" d="M275.11,75.27h7.65A14.53,14.53,0,0,1,297.3,89.8v20.63a0,0,0,0,1,0,0H260.58a0,0,0,0,1,0,0V89.8A14.53,14.53,0,0,1,275.11,75.27Z" transform="translate(557.88 185.7) rotate(180)"/></g><g class="cls-9"><path class="cls-5" d="M203.32,75.27h7A14.53,14.53,0,0,1,224.9,89.8v20.63a0,0,0,0,1,0,0H188.79a0,0,0,0,1,0,0V89.8A14.53,14.53,0,0,1,203.32,75.27Z" transform="translate(413.69 185.7) rotate(180)"/></g><g class="cls-9"><path class="cls-5" d="M131.1,75.27h7A14.53,14.53,0,0,1,152.68,89.8v20.63a0,0,0,0,1,0,0H116.57a0,0,0,0,1,0,0V89.8A14.53,14.53,0,0,1,131.1,75.27Z" transform="translate(269.25 185.7) rotate(180)"/></g><path class="cls-11" d="M514.13,98.63c.15,0,.26-5.23.26-11.68s-.11-11.68-.26-11.68-.26,5.23-.26,11.68S514,98.63,514.13,98.63Z"/><path class="cls-11" d="M478.28,98.63c.15,0,.26-5.23.26-11.68s-.11-11.68-.26-11.68S478,80.5,478,87,478.14,98.63,478.28,98.63Z"/><path class="cls-11" d="M441.91,98.63c.15,0,.26-5.23.26-11.68s-.11-11.68-.26-11.68-.26,5.23-.26,11.68S441.77,98.63,441.91,98.63Z"/><path class="cls-11" d="M405.63,98.37c.14,0,.26-5.23.26-11.68S405.77,75,405.63,75s-.26,5.23-.26,11.69S405.48,98.37,405.63,98.37Z"/><path class="cls-11" d="M369.52,98.1c.14,0,.26-5.11.26-11.41s-.12-11.42-.26-11.42-.26,5.11-.26,11.42S369.37,98.1,369.52,98.1Z"/><path class="cls-11" d="M333.07,97.69c.14,0,.26-5.11.26-11.41s-.12-11.42-.26-11.42-.26,5.11-.26,11.42S332.93,97.69,333.07,97.69Z"/><path class="cls-11" d="M297.3,97.29c.14,0,.26-4.93.26-11s-.12-11-.26-11-.26,4.93-.26,11S297.15,97.29,297.3,97.29Z"/><path class="cls-11" d="M260.8,97.29c.14,0,.26-4.93.26-11s-.12-11-.26-11-.27,4.93-.27,11S260.65,97.29,260.8,97.29Z"/><path class="cls-11" d="M224.9,97.29c.14,0,.26-4.93.26-11s-.12-11-.26-11-.26,4.93-.26,11S224.76,97.29,224.9,97.29Z"/><path class="cls-11" d="M188.63,97.29c.15,0,.27-4.93.27-11s-.12-11-.27-11-.26,4.93-.26,11S188.49,97.29,188.63,97.29Z"/><path class="cls-11" d="M152.37,97.29c.14,0,.26-4.93.26-11s-.12-11-.26-11-.26,4.93-.26,11S152.23,97.29,152.37,97.29Z"/><path class="cls-12" d="M495.17,292.1s12.8.74,13.83,3c0,0,.16,9.42-8.89,18.91l1.79,3.86v6.28c-4.2-8.16-8.9-20.66-8.9-20.66S492.79,294.68,495.17,292.1Z"/><g class="cls-9"><path d="M495.62,292.93s4.47,11.6,1.73,19.95C497.35,312.88,491.22,302.63,495.62,292.93Z"/></g><path class="cls-12" d="M475.5,307.72s5.94-11.36,8.4-11.39c0,0,8.65,3.73,13.58,15.88l4.26,0s2.25-9.76,13.62-15.12c0,0,6.49,11.69,6.71,11.58a23.16,23.16,0,0,1-14.61,6.12c-9.17.48-22.49-.38-22.49-.38S476.87,311,475.5,307.72Z"/><g class="cls-9"><path d="M503.94,313.75s9.6-5.53,17.35-5C521.29,308.74,512.3,316.3,503.94,313.75Z"/></g><g class="cls-9"><path d="M476.45,307.65s12.41.69,18.9,6.63C495.35,314.28,483.48,315.65,476.45,307.65Z"/></g><polygon class="cls-13" points="456.83 314.35 460.23 365.31 538.9 364.57 539.51 313.57 456.83 314.35"/><g class="cls-9"><polygon points="471.77 314.21 472.25 365.2 460.23 365.31 456.83 314.35 471.77 314.21"/></g><polygon class="cls-12" points="462.75 314.29 465.23 365.26 467.96 365.24 467.49 314.25 462.75 314.29"/><rect class="cls-12" x="501.96" y="313.89" width="6.56" height="50.99" transform="translate(-3.16 4.75) rotate(-0.54)"/><rect class="cls-12" x="458.61" y="336.04" width="80.64" height="4.95" transform="translate(997.85 677.02) rotate(180)"/></g><g id="Character"><path class="cls-11" d="M378.13,152.44a71.67,71.67,0,0,0,.68-12.33,25,25,0,0,0-3.38-11.77c-.33-.53-2.93-4-3.52-3.83-.43.13,1.42,3.5,1.27,3.92a21.28,21.28,0,0,0,.11,12.59,56,56,0,0,0,4.84,11.42"/><path class="cls-14" d="M382.42,173.14l-7-36.2c-1.72-10.19-9.09-17.69-19.23-15.69l-.93.24a18.49,18.49,0,0,0-13.59,21.07c1.54,8.83,3.35,18.56,4.61,23.19,2.61,9.57,12.6,8.58,12.6,8.58s2.43,10.85,3,13.7l14.16-4.94,3.42-1.08Z"/><path class="cls-15" d="M358.87,174.33a24,24,0,0,0,11.55-6.93s-1.14,8-10.95,9.62Z"/><path class="cls-11" d="M346.33,151.47a1.41,1.41,0,0,0,1.68,1,1.35,1.35,0,0,0,1.09-1.6,1.41,1.41,0,0,0-1.68-1A1.35,1.35,0,0,0,346.33,151.47Z"/><path class="cls-11" d="M344.8,146.27c.22.14,1.06-.9,2.54-1.28s2.75.08,2.86-.14-.2-.38-.76-.6a3.91,3.91,0,0,0-2.35-.11,3.74,3.74,0,0,0-2,1.24C344.77,145.85,344.7,146.21,344.8,146.27Z"/><path class="cls-11" d="M359.54,148.51a1.42,1.42,0,0,0,1.68,1.05,1.37,1.37,0,0,0,1.1-1.61,1.43,1.43,0,0,0-1.68-1A1.35,1.35,0,0,0,359.54,148.51Z"/><path class="cls-11" d="M359.1,143.2c.21.13,1.06-.91,2.53-1.28s2.75.08,2.87-.14-.2-.38-.76-.6a3.84,3.84,0,0,0-2.35-.11,3.7,3.7,0,0,0-2,1.24C359.06,142.78,359,143.14,359.1,143.2Z"/><path class="cls-11" d="M357,155.58a10.85,10.85,0,0,0-2.51.19c-.39.06-.76.08-.89-.16a2,2,0,0,1,0-1.19c.12-1,.24-2,.37-3.15.49-4.49.74-8.14.56-8.16s-.72,3.6-1.21,8.09c-.12,1.11-.22,2.16-.33,3.17a2.26,2.26,0,0,0,.19,1.53,1,1,0,0,0,.76.39,2.62,2.62,0,0,0,.67-.08A9.92,9.92,0,0,0,357,155.58Z"/><path class="cls-11" d="M356.92,137.6c.3.32,1.63-.44,3.37-.93s3.25-.6,3.33-1c0-.2-.35-.47-1.05-.61a5.78,5.78,0,0,0-2.72.15,5.86,5.86,0,0,0-2.38,1.34C357,137,356.79,137.44,356.92,137.6Z"/><path class="cls-11" d="M343.34,140.7c.39.27,1.52-.38,3-.74s2.74-.43,2.93-.85c.09-.2-.19-.49-.8-.68a4.8,4.8,0,0,0-2.55,0,4.63,4.63,0,0,0-2.2,1.25C343.25,140.19,343.17,140.57,343.34,140.7Z"/><path class="cls-14" d="M376.46,144.26c.15-.11,6.1-3.66,7.59,3s-5.47,6.75-5.52,6.56S376.46,144.26,376.46,144.26Z"/><path class="cls-15" d="M380,150.82s.14.06.35.1a1.19,1.19,0,0,0,.87-.17,2.93,2.93,0,0,0,.74-2.86,3.79,3.79,0,0,0-.69-1.58,1.35,1.35,0,0,0-1.07-.69.61.61,0,0,0-.61.47c0,.2,0,.33,0,.35s-.17-.08-.18-.37a.74.74,0,0,1,.17-.47.84.84,0,0,1,.6-.31,1.64,1.64,0,0,1,1.43.75,4,4,0,0,1,.82,1.76,3.06,3.06,0,0,1-1,3.23,1.28,1.28,0,0,1-1.1.07C380,151,380,150.84,380,150.82Z"/><path class="cls-11" d="M343.59,130.64c-1.21-.36,1.27-4.53,3.65-6.3,3.6-2.67,9.44-5.09,13.35-4.84,4.69.3,8.85,1.71,11.94,5.26a26.66,26.66,0,0,1,5.8,12.69,8.2,8.2,0,0,1-.06,4.26c-.61,1.66-2.19,3-1.68,5a2.83,2.83,0,0,1-.25,2.17c-.93,1.55-2.68.66-3.63-.41-2-2.28-2.85-5.35-3.62-8.3a20,20,0,0,1-.94-6.4c.09-1.18.39-2.33.41-3.51a4.06,4.06,0,0,0-1.19-3.21,3.3,3.3,0,0,0-.65-.43,7.09,7.09,0,0,0-7.15.17c-3.45,2.13-9.41,5.48-11.35,4.57A10.44,10.44,0,0,1,344.6,129Z"/><path class="cls-11" d="M361.88,155.5c-.24,0,.08,1.56-1,2.92s-2.73,1.53-2.7,1.75.42.22,1.11.09a3.89,3.89,0,0,0,2.28-1.37,3.36,3.36,0,0,0,.73-2.43C362.23,155.81,362,155.47,361.88,155.5Z"/><path class="cls-14" d="M345.29,236.26l-25.07,10.22,3.08,11.75L349.05,253a15.42,15.42,0,0,0,12.44-9.44L370.35,222l-14.2-13.49Z"/><path class="cls-14" d="M320.72,260.9c-2.58,1-5.42,2.15-5.42,2.15l-2.58.92a4.75,4.75,0,0,0,.38.4,2.09,2.09,0,0,1,.65.8,1.65,1.65,0,0,1-.77,1.68,4,4,0,0,1-3.93.48,4,4,0,0,1-2.28-3,2.84,2.84,0,0,1-.71-.87c-1.22-2.27.54-5.57.54-5.57l-1,.19s-2.47,1.7-1.74,6.63a3.07,3.07,0,0,1-.44,2.13,1.56,1.56,0,0,1-1.08.77c-1.21.14-1.62-.67-2.12-3.74s0-6.21,1.5-7.71a21,21,0,0,1,2.12-2s-8.66,1.26-9.21,1.32c-1.59.17-3-.4-3.2-1.45-.14-.68.19-1.63,2-1.88,1.6-.22,17.73-4.54,17.73-4.54l7.24-1.5,6.17-.26,2.29,9.37-1.77,1.91A8.53,8.53,0,0,1,320.72,260.9Z"/><path class="cls-14" d="M318.08,247.59a2.3,2.3,0,0,1-.92,2.49c-.74.6-1.66.94-2.44,1.48-2.34,1.64-3.13,4.92-5.54,6.43-.33.22-.81.37-1.09.09s-.13-.69,0-1q1.73-4.38,3.46-8.77"/><path class="cls-15" d="M311.55,248.27a3.61,3.61,0,0,0-.47.91c-.27.6-.65,1.47-1.1,2.56s-1,2.41-1.57,3.81l-.44,1.11a1.83,1.83,0,0,0-.21,1.4.78.78,0,0,0,.77.44,1.7,1.7,0,0,0,.73-.24,6.13,6.13,0,0,0,1.09-.87,36,36,0,0,0,3-4.11,7.18,7.18,0,0,1,1.49-1.52c.54-.39,1.12-.67,1.63-1a3.37,3.37,0,0,0,1.79-2.17,1.2,1.2,0,0,0-.17-1,2.72,2.72,0,0,1,0,1,3.23,3.23,0,0,1-1.78,1.89c-.5.28-1.1.54-1.69.94A7.42,7.42,0,0,0,313,253a43.74,43.74,0,0,1-3,4,6,6,0,0,1-1,.79c-.34.2-.7.23-.76,0s.05-.61.2-1,.29-.74.43-1.11c.54-1.41,1-2.71,1.46-3.86s.73-2,.94-2.61A4.37,4.37,0,0,0,311.55,248.27Z"/><path class="cls-15" d="M306.63,257.74a3.7,3.7,0,0,0-1.59.79,3,3,0,0,0-.9,1.66,7.52,7.52,0,0,0,0,2.38,12.38,12.38,0,0,1,.11,2.48,4,4,0,0,1-.68,1.94,1.53,1.53,0,0,1-1.21.66,1,1,0,0,1-.5-.09s.18,0,.49,0a1.5,1.5,0,0,0,1-.67,4,4,0,0,0,.55-1.83,13.65,13.65,0,0,0-.13-2.41,7.36,7.36,0,0,1,.07-2.49,3.16,3.16,0,0,1,1.05-1.77,2.82,2.82,0,0,1,1.24-.6C306.45,257.69,306.63,257.72,306.63,257.74Z"/><path class="cls-15" d="M294.07,255.51a9.62,9.62,0,0,1,1.72-.26l4.15-.53,4.14-.59a9.08,9.08,0,0,1,1.73-.2,8.66,8.66,0,0,1-1.69.44c-1.05.22-2.51.47-4.14.69s-3.1.36-4.17.43A8.16,8.16,0,0,1,294.07,255.51Z"/><path class="cls-15" d="M308.83,259.42s0,.2-.13.53a1.62,1.62,0,0,0,.11,1.34.88.88,0,0,0,.78.35,5.18,5.18,0,0,0,1.11-.24,1.93,1.93,0,0,1,1.38,0,1.64,1.64,0,0,1,.86,1.22,1.91,1.91,0,0,1-.42,1.44,2.33,2.33,0,0,1-1.12.8,7.4,7.4,0,0,1-2.22.27,4.2,4.2,0,0,1-1.48-.24,1,1,0,0,1-.47-.29s.18.07.51.16a5.1,5.1,0,0,0,1.44.13,8,8,0,0,0,2.13-.33,1.87,1.87,0,0,0,1.28-1.88,1.34,1.34,0,0,0-.66-1,1.68,1.68,0,0,0-1.15,0,4.51,4.51,0,0,1-1.19.21,1.11,1.11,0,0,1-1-.5,1.66,1.66,0,0,1,0-1.51A1.39,1.39,0,0,1,308.83,259.42Z"/><path class="cls-15" d="M312.24,264a.72.72,0,0,1,.5,0,1.49,1.49,0,0,1,1,.89,2,2,0,0,1-.34,2,3.32,3.32,0,0,1-2.17,1.16,4,4,0,0,1-2.41-.42,3.75,3.75,0,0,1-1.44-1.37,3.64,3.64,0,0,1-.47-1.25,1.08,1.08,0,0,1,0-.49,6.44,6.44,0,0,0,.7,1.6,3.73,3.73,0,0,0,1.38,1.23,3.85,3.85,0,0,0,2.21.36,3.07,3.07,0,0,0,2-1,1.8,1.8,0,0,0,.36-1.69,1.42,1.42,0,0,0-.83-.84C312.42,264,312.25,264,312.24,264Z"/><path class="cls-15" d="M317.26,257.22a1.47,1.47,0,0,1-.09-.83,3.25,3.25,0,0,1,.85-1.95l.13.27a7.88,7.88,0,0,1-1.18,0,7.43,7.43,0,0,1-3.85-1.28,19.37,19.37,0,0,0,3.88.94,11.24,11.24,0,0,0,1.14,0h.39l-.27.28a3.55,3.55,0,0,0-.89,1.75A7.19,7.19,0,0,1,317.26,257.22Z"/><path class="cls-15" d="M302.54,259.41c0-.09.7.16,1.12.88s.34,1.42.25,1.4-.17-.61-.55-1.22S302.49,259.5,302.54,259.41Z"/><path class="cls-13" d="M359.41,190.1s1.34-8.47,1.22-7.89c-.6,2.89-4.84,7.18-5.87,16.58-.41,3.67-6.94,27.57-6.94,27.57l18.13,8.4,1.15-20.27Z"/><path class="cls-11" d="M231.43,317.34a31.2,31.2,0,0,1,2-6.15,17.7,17.7,0,0,1,3.86-5.49,8.78,8.78,0,0,1,13.45,1,17.74,17.74,0,0,1,3,6,32,32,0,0,1,1,6.37,1.84,1.84,0,0,0,0-.46,10,10,0,0,0,0-1.31,21.73,21.73,0,0,0-.76-4.72,17.55,17.55,0,0,0-3-6.19,9.06,9.06,0,0,0-14-1,17.53,17.53,0,0,0-3.89,5.69,22,22,0,0,0-1.45,4.56c-.11.56-.18,1-.21,1.3A1.7,1.7,0,0,0,231.43,317.34Z"/><path class="cls-11" d="M227.4,317a31.51,31.51,0,0,1,2-6.15,17.74,17.74,0,0,1,3.87-5.49,8.78,8.78,0,0,1,13.45,1,17.74,17.74,0,0,1,3,6,32.11,32.11,0,0,1,1,6.36,2.56,2.56,0,0,0,0-.45c0-.3,0-.74,0-1.31a21.73,21.73,0,0,0-.76-4.72,17.55,17.55,0,0,0-3-6.19,9.06,9.06,0,0,0-14-1,17.73,17.73,0,0,0-3.9,5.69,22.51,22.51,0,0,0-1.44,4.56,12.21,12.21,0,0,0-.21,1.29A1.34,1.34,0,0,0,227.4,317Z"/><polygon class="cls-13" points="268.54 317.39 223.03 313.66 217.8 370.1 268.9 373.93 268.54 317.39"/><polygon class="cls-13" points="223.03 313.66 217.31 313.24 208.15 369.37 217.8 370.1 223.03 313.66"/><g class="cls-9"><polygon points="223.03 313.66 217.31 313.24 208.15 369.37 217.8 370.1 223.03 313.66"/></g><rect class="cls-5" x="229.1" y="334.55" width="29.9" height="5.73" transform="translate(462.19 692.12) rotate(-175.71)"/><path class="cls-11" d="M289.55,284a27,27,0,0,1,1.29-5.38,15.14,15.14,0,0,1,3-4.93,7.52,7.52,0,0,1,11.55-.05,15.18,15.18,0,0,1,3,4.92,25.69,25.69,0,0,1,1.3,5.38,1.05,1.05,0,0,0,0-.4,8.23,8.23,0,0,0-.1-1.11,18.27,18.27,0,0,0-.95-4,15.12,15.12,0,0,0-3-5.09,7.76,7.76,0,0,0-12,.05,15.08,15.08,0,0,0-3,5.1,18.74,18.74,0,0,0-.94,4c-.06.48-.09.86-.1,1.12A2,2,0,0,0,289.55,284Z"/><path class="cls-11" d="M286.09,284a27,27,0,0,1,1.29-5.38,15,15,0,0,1,2.95-4.93,7.52,7.52,0,0,1,11.55-.05,15.18,15.18,0,0,1,3,4.92,27.39,27.39,0,0,1,1.3,5.38,2.09,2.09,0,0,0,0-.4c0-.25,0-.63-.1-1.11a19,19,0,0,0-1-4,15,15,0,0,0-3-5.09,7.75,7.75,0,0,0-12,.05,15.08,15.08,0,0,0-3,5.1,18.74,18.74,0,0,0-.94,4,10.26,10.26,0,0,0-.1,1.12A2,2,0,0,0,286.09,284Z"/><polygon class="cls-12" points="321.26 281.7 282.14 281.43 281.29 329.96 325.18 329.96 321.26 281.7"/><polygon class="cls-12" points="282.14 281.43 277.23 281.43 273 329.96 281.29 329.96 282.14 281.43"/><g class="cls-9"><polygon points="282.14 281.43 277.23 281.43 273 329.96 281.29 329.96 282.14 281.43"/></g><rect class="cls-5" x="288.81" y="297.91" width="25.61" height="4.9" transform="translate(603.23 600.73) rotate(180)"/><path class="cls-2" d="M294.77,308.05s11.54,1.54,12.32,3.63c0,0-.49,8.54-9.33,16.52l1.35,3.61-.41,5.69c-3.26-7.68-6.67-19.31-6.67-19.31S292.44,310.22,294.77,308.05Z"/><g class="cls-9"><path d="M295.13,308.83s3.25,10.81.21,18.18C295.34,327,290.48,317.32,295.13,308.83Z"/></g><path class="cls-2" d="M275.9,320.86s6.15-9.89,8.38-9.74c0,0,7.58,4,11.22,15.3l3.85.25s2.71-8.68,13.36-12.77c0,0,5.09,11,5.3,10.94a21,21,0,0,1-13.65,4.55C296,329.2,284,327.52,284,327.52S276.93,323.88,275.9,320.86Z"/><g class="cls-9"><path d="M301.24,328.25s9.07-4.36,16.05-3.37C317.29,324.88,308.64,331.12,301.24,328.25Z"/></g><g class="cls-9"><path d="M276.77,320.85s11.19,1.48,16.66,7.29C293.43,328.14,282.59,328.58,276.77,320.85Z"/></g><polygon class="cls-13" points="258.56 325.59 258.17 371.96 329.44 376.63 333.46 330.5 258.56 325.59"/><g class="cls-9"><polygon points="272.09 326.48 269.06 372.67 258.17 371.96 258.56 325.59 272.09 326.48"/></g><polygon class="cls-7" points="263.92 325.94 262.7 372.25 265.18 372.42 268.2 326.22 263.92 325.94"/><rect class="cls-7" x="277.53" y="348.57" width="46.29" height="5.95" transform="translate(-69.78 628.59) rotate(-86.25)"/><rect class="cls-7" x="258.42" y="348.07" width="73.2" height="4.49" transform="translate(563.04 721.71) rotate(-175.71)"/><path class="cls-2" d="M323.42,376.2a.51.51,0,0,0,.49-.4l18.34-91.95a.5.5,0,0,0-1-.19L322.93,375.6a.5.5,0,0,0,.39.59Z"/><path class="cls-2" d="M307.6,375.33a.5.5,0,0,0,.49-.41l16-85.69a.51.51,0,0,0-.4-.59.5.5,0,0,0-.58.4l-16,85.69a.5.5,0,0,0,.4.59Z"/><path class="cls-2" d="M292.86,374.48a.51.51,0,0,0,.5-.43l12.46-84.42a.5.5,0,0,0-1-.15L292.37,373.9a.5.5,0,0,0,.42.57Z"/><path class="cls-2" d="M276.21,374.82a.51.51,0,0,0,.5-.43l12.12-82.16a.5.5,0,0,0-1-.14l-12.12,82.16a.5.5,0,0,0,.42.56Z"/><path class="cls-2" d="M260.07,371.74a.51.51,0,0,0,.5-.43l11.16-75.62a.5.5,0,0,0-1-.15l-11.16,75.62a.5.5,0,0,0,.42.57Z"/><path class="cls-2" d="M243.24,373.35a.5.5,0,0,0,.49-.43l11.14-75.48a.5.5,0,1,0-1-.14l-11.14,75.48a.5.5,0,0,0,.42.56Z"/><path class="cls-2" d="M228.36,371.74a.51.51,0,0,0,.5-.45l7.17-71a.5.5,0,0,0-.44-.55.51.51,0,0,0-.55.45l-7.18,71a.51.51,0,0,0,.45.55Z"/><path class="cls-2" d="M215.93,371.74a.51.51,0,0,0,.5-.49l2.4-68.34a.51.51,0,0,0-.48-.52.52.52,0,0,0-.52.49l-2.4,68.34a.5.5,0,0,0,.48.52Z"/><path class="cls-2" d="M341.09,360.45l-13.74-.68-33-1.64-39.78-2-34.4-1.71-11.39-.57c-1.79-.09-3.62-.07-5.41-.27h-.23c-.81,0-.81-1.29,0-1.25l13.74.68,33,1.65,39.78,2,34.4,1.71,11.39.57c1.79.09,3.62.08,5.41.27h.23c.81,0,.81,1.29,0,1.25Z"/><path class="cls-2" d="M345.31,336.19l-14.27.3-34.13.72-41.27.86-35.77.75-11.77.25c-1.83,0-3.69.18-5.52.11h-.26a.63.63,0,0,1,0-1.25l14.27-.3,34.13-.72,41.27-.86,35.77-.75,11.77-.24c1.83,0,3.7-.19,5.53-.12h.25a.63.63,0,0,1,0,1.25Z"/><path class="cls-2" d="M351.47,308.67l-15,1.42-35.84,3.39-43.33,4.11-37.55,3.55-12.3,1.17c-1.93.18-3.91.51-5.85.55l-.27,0c-.8.08-.79-1.17,0-1.25l15-1.41,35.84-3.4,43.34-4.1,37.55-3.55,12.3-1.17c1.93-.18,3.91-.52,5.85-.55l.26,0c.8-.07.79,1.18,0,1.25Z"/><path class="cls-2" d="M332.63,379.67a7.78,7.78,0,0,0,7.63-6.18l19.63-91.59a2,2,0,0,0-.5-1.77,2,2,0,0,0-1.73-.59L199.89,303.73a2,2,0,0,0-1.67,2.07l3.72,59.86a7.81,7.81,0,0,0,7.38,7.32l122.87,6.68Zm22.8-95.8-19,88.79a3.83,3.83,0,0,1-4,3.06l-122.87-6.67a3.89,3.89,0,0,1-3.66-3.64l-3.6-58.06Z"/><path class="cls-4" d="M332.63,379.67a7.78,7.78,0,0,0,7.63-6.18l19.63-91.59a2,2,0,0,0-.5-1.77,2,2,0,0,0-1.73-.59L199.89,303.73a2,2,0,0,0-1.67,2.07l3.72,59.86a7.81,7.81,0,0,0,7.38,7.32l122.87,6.68Zm22.8-95.8-19,88.79a3.83,3.83,0,0,1-4,3.06l-122.87-6.67a3.89,3.89,0,0,1-3.66-3.64l-3.6-58.06Z"/><path class="cls-11" d="M355.43,283.87l-.72.1-2.18.32-8.47,1.27-31.8,4.81-110,16.74-.23,0,0,.23c.61,10,1.26,20.35,1.92,31.05q.5,8,1,16.27.26,4.11.51,8.28l.13,2.08a4.56,4.56,0,0,0,.53,2.12,4.2,4.2,0,0,0,3.68,2.15L295,373.93l37.16,2A4.14,4.14,0,0,0,336,374.1a4.48,4.48,0,0,0,.47-1c.11-.37.17-.71.25-1.06.15-.7.29-1.39.44-2.08.59-2.75,1.16-5.46,1.73-8.11q1.69-7.95,3.24-15.24c8.17-38.63,13-61.32,13.26-62.72-.3,1.4-5.23,24.1-13.62,62.74q-1.57,7.26-3.28,15.18-.86,4-1.74,8.08c-.15.68-.3,1.37-.44,2.06a5,5,0,0,1-.67,1.94,3.7,3.7,0,0,1-3.54,1.62l-37.16-2-85.15-4.65a3.67,3.67,0,0,1-3.25-1.88,3.93,3.93,0,0,1-.47-1.9l-.13-2.08q-.25-4.17-.51-8.28c-.35-5.5-.68-10.92-1-16.27-.67-10.7-1.31-21.09-1.94-31.05l-.21.26,109.79-17,31.85-4.95,8.53-1.33,2.2-.35Z"/><path class="cls-11" d="M332.63,379.67l-18.26-1.08-49.8-2.79-34.39-1.9L211,372.84c-.82,0-1.67-.06-2.45-.17a7.65,7.65,0,0,1-5.66-4.21,8,8,0,0,1-.69-2.36c-.09-.82-.11-1.7-.17-2.55-.11-1.71-.22-3.44-.32-5.18-.86-13.89-1.76-28.48-2.7-43.6q-.17-2.83-.35-5.69l-.18-2.87a2.25,2.25,0,0,1,.15-1.28,1.7,1.7,0,0,1,.89-.84,9.15,9.15,0,0,1,1.36-.26l1.43-.21,2.87-.44,5.78-.89,23.52-3.6,89.55-13.76,20.11-3.09,9.63-1.48,2.37-.37,1.17-.18a2.33,2.33,0,0,1,1.08,0,1.78,1.78,0,0,1,1.29,1.49,3.22,3.22,0,0,1-.13,1.08l-.25,1.14c-2.58,12.11-5,23.39-7.18,33.69-4.38,20.59-7.92,37.26-10.38,48.78l-1.62,7.66a7.7,7.7,0,0,1-3.1,4.61,7.85,7.85,0,0,1-3.22,1.31c-.78.13-1.2.09-1.19.12h.3a6,6,0,0,0,.9-.07,7.76,7.76,0,0,0,6.46-5.94c.49-2.21,1-4.77,1.67-7.64,2.49-11.52,6.09-28.18,10.54-48.75,2.21-10.3,4.64-21.57,7.25-33.68l.24-1.14a3.41,3.41,0,0,0,.14-1.22,2.19,2.19,0,0,0-1.6-1.86,2.72,2.72,0,0,0-1.27,0l-1.17.18-2.36.36-9.64,1.47L324,284.46l-89.56,13.71-23.52,3.61-5.78.88-2.87.45-1.43.22a7.63,7.63,0,0,0-1.47.29,2.23,2.23,0,0,0-1.17,1.09,2.76,2.76,0,0,0-.19,1.53l.18,2.87c.12,1.91.24,3.8.35,5.69.95,15.12,1.86,29.71,2.73,43.6.11,1.74.22,3.46.32,5.18.07.86.09,1.7.19,2.58a7.88,7.88,0,0,0,.73,2.51,8,8,0,0,0,3.57,3.65,7.8,7.8,0,0,0,2.43.8c.86.12,1.68.13,2.5.18l19.16,1,34.4,1.84,49.81,2.62,13.54.69,3.52.16C332.22,379.68,332.63,379.67,332.63,379.67Z"/><path class="cls-11" d="M425.7,272.52s2.28,9.15,2.05,15.09-3.2,15.55-3.2,15.55l2.54,40.72h0s14,13.31,18.52,19.16c4.1,5.33,31.76,36.48,31.76,36.48l-21,17.75S422.07,383.15,415,375.38s-15.1-13.13-18.07-23.65-9.63-49-9.63-49l-7.94-14.4,2-13.18Z"/><path class="cls-11" d="M409.64,351.26c.32,1.65,18.72,75.19,18.72,75.19l-28.46,6.81c.57-.88-6-27.35-11.45-48.44-5-19.41-7.82-25.66-9.11-33.56s-7.35-54-7.12-56.92a20.58,20.58,0,0,0-1.25-7l24.19-5.84Z"/><path class="cls-12" d="M382.5,294a1.79,1.79,0,0,0,.25.39l.78,1.14,3.1,4.38,0-.05c.92,5.78,2.44,15,4.56,26.46,1.07,5.72,2.27,12,3.78,18.62.37,1.66.78,3.33,1.22,5,.2.85.47,1.69.72,2.55a23.18,23.18,0,0,0,.86,2.55,9.86,9.86,0,0,0,1.3,2.41c.53.75,1.07,1.49,1.64,2.21,1.13,1.45,2.34,2.86,3.56,4.27,6.78,7.76,13.6,14.8,19.8,21.21s11.89,12.07,16.66,16.83,8.68,8.57,11.38,11.2l3.13,3,.82.78a2.57,2.57,0,0,0,.3.25,1.91,1.91,0,0,0-.26-.29l-.79-.81-3.06-3.08c-2.67-2.7-6.52-6.56-11.26-11.32s-10.38-10.5-16.58-16.91-13-13.47-19.75-21.21c-1.22-1.41-2.42-2.81-3.54-4.25a18.67,18.67,0,0,1-2.88-4.5,24.46,24.46,0,0,1-.84-2.5c-.25-.85-.51-1.68-.72-2.53q-.66-2.53-1.22-5c-1.52-6.61-2.74-12.87-3.84-18.58-2.17-11.42-3.77-20.65-4.77-26.41v0l0,0c-1.38-1.87-2.44-3.32-3.19-4.32l-.83-1.1Z"/><path class="cls-11" d="M449.75,407.32l13.9,14.32s-9.88,18.94-7.57,21.83l28.73-26-20.75-23.2Z"/><path class="cls-2" d="M471.41,412.36a1.58,1.58,0,0,1,2,.61,1.52,1.52,0,0,1-.58,2,1.67,1.67,0,0,1-2.14-.66,1.57,1.57,0,0,1,.84-2"/><path class="cls-12" d="M484.81,417.51l-2.18-2.25L455.9,441s-.78,1.71.18,2.48Z"/><path class="cls-5" d="M463.05,421.91c.13.14.89-.43,2-.61s2,.09,2.08-.08-.86-.8-2.19-.56S462.91,421.81,463.05,421.91Z"/><path class="cls-5" d="M461.17,425.88c.09.17.91-.15,1.92,0s1.72.66,1.85.53-.49-1-1.75-1.18S461.05,425.74,461.17,425.88Z"/><path class="cls-5" d="M462.71,431c.16-.08-.28-1-1.33-1.4s-2-.16-1.95,0,.83.22,1.69.59S462.56,431.15,462.71,431Z"/><path class="cls-5" d="M460.25,418.3c.17.07.64-.7,1.48-1.37s1.69-1,1.65-1.15-1.08-.15-2.06.64S460.08,418.25,460.25,418.3Z"/><path class="cls-11" d="M403.27,421.25l3.31,15.49.1,3s-20,7.38-20.28,11.08l38.73.08.08-11.54L421,418.89Z"/><path class="cls-2" d="M418.66,438.06a1.58,1.58,0,0,1,1.09,1.81A1.51,1.51,0,0,1,418,441a1.66,1.66,0,0,1-1.14-1.92,1.56,1.56,0,0,1,2-.93"/><path class="cls-12" d="M425.13,450.88l-.11-3.14-37.08,1.1s-1.73.75-1.54,2Z"/><path class="cls-5" d="M406.06,439.52c0,.19.95.27,1.88.88s1.42,1.41,1.59,1.33-.1-1.16-1.24-1.88S406,439.34,406.06,439.52Z"/><path class="cls-5" d="M402,441.19c0,.18.78.5,1.42,1.31s.82,1.64,1,1.64.31-1.08-.5-2.06S402,441,402,441.19Z"/><path class="cls-5" d="M399.68,446.05c.17,0,.43-.91-.05-1.94s-1.37-1.46-1.45-1.3.47.71.85,1.57S399.49,446,399.68,446.05Z"/><path class="cls-5" d="M406.41,435c.08.18.94-.08,2,0s1.9.42,2,.25-.7-.83-2-.91S406.31,434.81,406.41,435Z"/><path class="cls-2" d="M354.64,435.29a1.87,1.87,0,0,0,1-.29,1.9,1.9,0,0,0,.58-2.61l-28.42-44.54a21.38,21.38,0,0,0-28.54-7.13l-72.6,40.91-.14.09c-4.36,3-6.75,6.21-7.11,9.58a1.89,1.89,0,1,0,3.75.39c.23-2.2,2.06-4.49,5.43-6.82L301.12,384a17.64,17.64,0,0,1,23.52,5.88l28.41,44.54A1.89,1.89,0,0,0,354.64,435.29Z"/><path class="cls-11" d="M354.64,435.29a2.12,2.12,0,0,1-.8-.2,1.94,1.94,0,0,1-.74-.66l-.76-1.21-5-8-18.72-29.48q-1.48-2.36-3-4.8a20.5,20.5,0,0,0-3.69-4.7,17.81,17.81,0,0,0-11.58-4.73,17.62,17.62,0,0,0-6.62,1.07,19.39,19.39,0,0,0-3.12,1.49l-3,1.7-12.58,7.07-56.45,31.78h0a20.59,20.59,0,0,0-3.31,2.78,8,8,0,0,0-2.18,3.9,2.26,2.26,0,0,1-.26,1,1.55,1.55,0,0,1-.7.64,1.62,1.62,0,0,1-1.8-.26,1.56,1.56,0,0,1-.48-.82,2.54,2.54,0,0,1,0-1,9,9,0,0,1,.63-2.09,17.19,17.19,0,0,1,6.16-6.73c2.65-1.54,5.38-3,8-4.56l15.77-8.89,29.82-16.82,13.88-7.84c2.25-1.24,4.45-2.57,6.66-3.7a21,21,0,0,1,7-1.94A21.13,21.13,0,0,1,326,385.66a51.53,51.53,0,0,1,3.56,5.2c8.89,13.89,16.1,25.13,21.08,32.9,2.48,3.89,4.46,6.89,5.73,8.94a1.89,1.89,0,0,1,0,1.52,1.91,1.91,0,0,1-.76.82,2,2,0,0,1-.89.25h.24a1.89,1.89,0,0,0,.67-.21,1.85,1.85,0,0,0,.81-.83,1.89,1.89,0,0,0,.06-1.59c-1.25-2.1-3.19-5.1-5.65-9l-20.94-33a49.27,49.27,0,0,0-3.58-5.25,21.36,21.36,0,0,0-5-4.38,21.72,21.72,0,0,0-13.55-3.19,21.37,21.37,0,0,0-7.17,2c-2.26,1.15-4.43,2.46-6.7,3.7l-13.89,7.82L250.1,408.13,234.32,417c-2.67,1.52-5.35,3-8.07,4.58a17.74,17.74,0,0,0-6.35,6.95,9.14,9.14,0,0,0-.66,2.22,2.92,2.92,0,0,0,0,1.22,2.2,2.2,0,0,0,.64,1.09,2.15,2.15,0,0,0,2.38.34,2.19,2.19,0,0,0,.92-.84,2.78,2.78,0,0,0,.32-1.15,7.46,7.46,0,0,1,2.05-3.64,20.36,20.36,0,0,1,3.23-2.71l0,0,56.42-31.83,12.57-7.1,3-1.71a19.79,19.79,0,0,1,3.05-1.46,17.42,17.42,0,0,1,17.8,3.54,20.1,20.1,0,0,1,3.64,4.62l3.07,4.78,18.84,29.4,5.12,7.94c.29.45.55.84.77,1.19a2,2,0,0,0,.79.66A1.54,1.54,0,0,0,354.64,435.29Z"/><circle class="cls-11" cx="355.98" cy="445.12" r="8.87"/><path class="cls-2" d="M350.37,435.87a1.27,1.27,0,0,1-.37-.9v-.76a1.27,1.27,0,0,1,1.27-1.28h8.23a1.28,1.28,0,0,1,1.28,1.28V435a1.29,1.29,0,0,1-.55,1l3.9.73v2.13l-4.22,1.51-2.41,6a1.87,1.87,0,0,1-3.47,0l-2.42-6.06-4.21-1V436.5Z"/><path class="cls-11" d="M350.37,435.87s-.31,0-.82.13-1.25.2-2.18.38l-.09,0v.1c0,.79,0,1.71,0,2.75v.13l.12,0,4.21,1.06-.14-.12,1.33,3.41c.24.6.48,1.22.73,1.86.13.32.23.62.4,1a2.13,2.13,0,0,0,3.88-.25l.43-1.06,1.77-4.37.18-.46-.15.15,4.22-1.52.17-.06v-.18c0-.72,0-1.43,0-2.13v-.21l-.2,0-3.91-.72.1.43a1.61,1.61,0,0,0,.59-.83,3.62,3.62,0,0,0,0-.91,1.79,1.79,0,0,0-.17-.92,1.5,1.5,0,0,0-.68-.66,1.77,1.77,0,0,0-.88-.14H357l-5,.06a5,5,0,0,0-1,.06,1.4,1.4,0,0,0-.78.54,1.38,1.38,0,0,0-.25.77c0,.23,0,.44,0,.64,0,.82.47,1.1.45,1.07a1.58,1.58,0,0,1-.3-1.07,2,2,0,0,1,.26-1.28,1.12,1.12,0,0,1,.66-.42,5,5,0,0,1,1,0l5,.05h2.28a1.28,1.28,0,0,1,.69.11,1.13,1.13,0,0,1,.59,1.18,4.78,4.78,0,0,1,0,.79,1.1,1.1,0,0,1-.42.56l-.45.32.54.11,3.9.75-.2-.25c0,.7,0,1.41,0,2.13l.17-.24-4.21,1.51-.11,0-.05.11-.19.47-1.76,4.37-.42,1.06a1.67,1.67,0,0,1-.57.78,1.62,1.62,0,0,1-2.41-.56c-.13-.28-.26-.63-.39-.94-.25-.63-.5-1.25-.75-1.85-.48-1.2-.95-2.33-1.38-3.39l0-.1-.1,0-4.22-1,.12.15c0-1,0-2,0-2.75l-.1.12c1-.23,1.74-.43,2.23-.55A5.65,5.65,0,0,0,350.37,435.87Z"/><circle class="cls-11" cx="355.98" cy="445.49" r="1"/><circle class="cls-11" cx="221.3" cy="444.51" r="9.48" transform="translate(-92.76 59.89) rotate(-12.77)"/><path class="cls-2" d="M215.26,434.64a1.27,1.27,0,0,1-.36-.88v-1a1.27,1.27,0,0,1,1.28-1.27h9a1.28,1.28,0,0,1,1.28,1.27v1a1.26,1.26,0,0,1-.54,1l4.12.77v2.28l-4.5,1.61-2.58,6.38a2,2,0,0,1-3.71,0l-2.58-6.47-4.5-1.09v-2.94Z"/><path class="cls-11" d="M215.26,434.64s-.32.05-.86.14l-2.3.41-.09,0v.1c0,.84,0,1.82,0,2.94v.12l.12,0,4.49,1.13-.14-.12c.45,1.14.93,2.36,1.43,3.65.25.64.52,1.3.78,2,.14.35.25.67.43,1a2.22,2.22,0,0,0,.86.91,2.25,2.25,0,0,0,2.47-.13,2.36,2.36,0,0,0,.79-1.06l.45-1.13,1.9-4.68.19-.47-.16.15,4.51-1.62.17-.06v-.18c0-.77,0-1.53,0-2.28v-.21l-.2,0-4.12-.77.09.43a1.54,1.54,0,0,0,.6-.91,8.12,8.12,0,0,0,0-1,2,2,0,0,0-.16-1,1.5,1.5,0,0,0-.73-.7,2.16,2.16,0,0,0-.94-.13h-2.44l-5.4.05a8,8,0,0,0-1.1,0,1.37,1.37,0,0,0-.83.57,1.33,1.33,0,0,0-.24.83v.68a1.61,1.61,0,0,0,.22.93.59.59,0,0,0,.22.23,1.59,1.59,0,0,1-.28-1.16c0-.4-.09-1,.25-1.38a1.14,1.14,0,0,1,.7-.45,7.23,7.23,0,0,1,1,0l5.4.05,1.61,0h.83a1.59,1.59,0,0,1,.75.1,1,1,0,0,1,.51.5,1.56,1.56,0,0,1,.11.78,7.59,7.59,0,0,1,0,.86,1,1,0,0,1-.42.62l-.44.33.54.1,4.11.79-.2-.25c0,.75,0,1.51,0,2.28l.17-.24-4.5,1.61-.11,0-.05.11-.19.48-1.88,4.68c-.15.38-.31.75-.46,1.13a1.8,1.8,0,0,1-.61.84,1.73,1.73,0,0,1-2.6-.59c-.14-.3-.28-.68-.42-1-.27-.68-.54-1.34-.8-2l-1.47-3.63,0-.1-.1,0-4.51-1.05.12.16c0-1.12,0-2.1,0-2.94l-.1.11c1-.24,1.84-.44,2.35-.57S215.28,434.65,215.26,434.64Z"/><path class="cls-11" d="M220.23,444.91a1.07,1.07,0,1,0,1.07-1.07A1.07,1.07,0,0,0,220.23,444.91Z"/><path class="cls-11" d="M249,375.26a7.65,7.65,0,0,0,.83.08l2.36.13,8.71.46c7.36.39,17.51,1,28.73,1.75l28.72,1.86,8.71.49,2.37.11a4.39,4.39,0,0,0,.83,0,5.4,5.4,0,0,0-.82-.11l-2.37-.2-8.69-.66c-7.35-.54-17.5-1.28-28.72-2s-21.38-1.3-28.74-1.6c-3.68-.15-6.66-.25-8.72-.29l-2.37,0A4.46,4.46,0,0,0,249,375.26Z"/><path class="cls-13" d="M382.84,170s13.79,4.76,18.65,14.11c2.68,5.15,10.32,34.83,10.32,34.83l5.44,27.46,12.44,33.33s-4.95,5.4-27.51,8-34.72,6.09-34.72,6.09-1.91-29.63-3.92-41.57-6.8-47.63-6.67-51,3.76-19,3.76-19a106.09,106.09,0,0,0,11.67-6.36A91.34,91.34,0,0,1,382.84,170Z"/><g class="cls-9"><path d="M414.68,241.38a55.92,55.92,0,0,1-10.1,9.69c-6.26,4.67-34.63,22.46-34.63,22.46L362.82,266Z"/></g><path class="cls-14" d="M399.17,185.57s16.86,49.25,16.06,54.57-27.22,17-44.68,26.17l-8.33-9.51,29.91-23s-16.9-37.63-18.23-44,4.26-16,8.78-16.49S399.17,185.57,399.17,185.57Z"/><path class="cls-13" d="M383,172.62c8.56-.83,14.12,6.09,17.66,12.44s10.72,31.32,10.72,31.32L383,225c-.73-.75-10.31-28.87-10.61-34.77S374.42,173.44,383,172.62Z"/><path class="cls-11" d="M383,172.62l-.29,0-.86.13a9.44,9.44,0,0,0-3.11,1.22,12,12,0,0,0-3.64,3.88,20.66,20.66,0,0,0-2.44,6.68,20.45,20.45,0,0,0,0,8.68c.66,3.07,1.58,6.31,2.58,9.72s2.14,7,3.37,10.7c.62,1.86,1.25,3.76,1.93,5.68.34.95.69,1.92,1,2.9.19.48.37,1,.56,1.46a10.29,10.29,0,0,0,.69,1.51l.08.13.18-.06,12.78-3.89,15.59-4.76.24-.07-.07-.24c-2.25-7.72-4.49-14.91-6.72-21.31a94.13,94.13,0,0,0-3.5-8.91,37.23,37.23,0,0,0-4.49-6.92,21.55,21.55,0,0,0-5-4.49,14.13,14.13,0,0,0-4.66-1.9,11.16,11.16,0,0,0-1.81-.24,8.81,8.81,0,0,0-1.34,0l-.81.06-.28,0a18.34,18.34,0,0,1,4.2.33,14.21,14.21,0,0,1,4.56,2,21.17,21.17,0,0,1,4.9,4.48,37.32,37.32,0,0,1,4.39,6.88,94.28,94.28,0,0,1,3.44,8.88c2.19,6.4,4.41,13.59,6.65,21.31l.17-.31-15.6,4.74-12.78,3.9.17.15c-2.88-7.76-5.37-15.34-7.43-22.11-1-3.4-1.95-6.63-2.62-9.68A22.45,22.45,0,0,1,375.3,178a11.77,11.77,0,0,1,3.51-3.87,9.89,9.89,0,0,1,3-1.28l.85-.17Z"/><path class="cls-2" d="M358.58,283.92a1.5,1.5,0,0,0,1.23-.65l6.62-9.46a1.5,1.5,0,0,0-2.46-1.72l-6.62,9.47a1.49,1.49,0,0,0,.37,2.08A1.45,1.45,0,0,0,358.58,283.92Z"/><path class="cls-12" d="M359.33,274.29a6.81,6.81,0,1,0,6.81-6.81A6.8,6.8,0,0,0,359.33,274.29Z"/><path class="cls-14" d="M373,261.45s-.69,4.28-1.78,5.85-2.6.83-4.24,1.3a2.68,2.68,0,0,0-2.26,2.19c-.27,1-1.55,8.14-2.8,9a1.28,1.28,0,0,1-2.12-.82c0-1,1.3-10.12,1.3-10.12s-2.26,5.06-2.32,6.9-.23,5.69-1.86,5.89c-.89.11-1.44.13-1.7-1.44a32,32,0,0,1-.34-6.09c.14-1.23,1-5.13,1-5.13s-2.53,4.93-2.46,6,1.1,1.92.41,2.74-2.25.47-2.87-.21a10.08,10.08,0,0,1-1.43-4.37,48.84,48.84,0,0,1,1.5-5.13s-2.21,3.08-2.41,4.31,0,6-.72,6.6-2.12,1-2.46-.61a53.46,53.46,0,0,1-.55-7c0-1.51,3.82-7.27,4.57-8.36s4.72-1.78,5.6-2.33,8.16-4.39,8.16-4.39Z"/><path class="cls-11" d="M360.63,182.21a3,3,0,0,0-.2.51l-.5,1.5c-.43,1.37-1,3.28-1.78,5.65h0a95.54,95.54,0,0,0-1,11.16c0,1.09-.05,2.22,0,3.38s.18,2.32.27,3.52c.21,2.39.43,4.89.65,7.45C359,224.63,360.05,233,361,239c.47,3,.92,5.43,1.24,7.1l.4,1.91a3,3,0,0,0,.17.67,3.51,3.51,0,0,0-.07-.69c-.08-.49-.18-1.13-.3-1.93-.26-1.74-.63-4.15-1.07-7.11-.87-6-1.89-14.35-2.75-23.58-.23-2.56-.45-5.05-.66-7.44-.1-1.2-.19-2.37-.28-3.51s-.06-2.25,0-3.33a105,105,0,0,1,.83-11.11h0l1.64-5.69c.17-.63.3-1.13.41-1.53A1.93,1.93,0,0,0,360.63,182.21Z"/></g></svg>