<svg fill="none" height="60" viewBox="0 0 180 60" width="180" xmlns="http://www.w3.org/2000/svg"><g fill="#008752"><path d="m0 40.7783c0-.8723.258648-1.7249.743235-2.4502.484585-.7252 1.173345-1.2904 1.979185-1.6242s1.69256-.4212 2.54804-.251c.85547.1702 1.64127.5902 2.25804 1.207.61676.6167 1.03678 1.4025 1.20694 2.258.17017.8555.08283 1.7422-.25096 2.548-.33379.8059-.89904 1.4946-1.62427 1.9792-.72524.4846-1.57789.7432-2.45012.7432-1.16504-.0147-2.27822-.4841-3.1021-1.3079-.823872-.8239-1.2932408-1.9371-1.30799-3.1021z"/><path d="m12.3291 44.695v-27.4943h7.4165v27.4943z"/><path d="m23.8713 44.6952v-19.9166h7.4165v19.9166zm-.4553-25.5122c0-.8234.2442-1.6284.7017-2.3131s1.1077-1.2183 1.8685-1.5334c.7608-.3152 1.598-.3976 2.4056-.237.8076.1607 1.5495.5572 2.1318 1.1395s.9788 1.3241 1.1394 2.1318c.1607.8076.0782 1.6448-.2369 2.4055-.3151.7608-.8488 1.4111-1.5334 1.8686-.6847.4575-1.4897.7016-2.3132.7016-.5471.0013-1.089-.1055-1.5948-.3143-.5057-.2088-.9651-.5155-1.352-.9023-.3869-.3869-.6935-.8464-.9023-1.3521s-.3156-1.0477-.3144-1.5948z"/><path d="m48.8435 44.695v-11.0015c0-2.058-1.1096-2.8452-2.8452-2.8452-.6152-.0063-1.2232.132-1.7751.4038-.5518.2719-1.0321.6696-1.4021 1.1611v12.3292h-7.407v-19.9165h7.4165v2.2288c.872-.9278 1.935-1.655 3.1157-2.1315 1.1806-.4765 2.4507-.6909 3.7223-.6284 4.6188 0 6.6389 2.8452 6.6389 6.269v14.1312z"/><path d="m72.7145 44.695-3.4238-6.4302-1.4415 1.9347v4.4955h-7.4166v-27.4943h7.4166v14.6813l4.5808-7.0941h8.9434l-6.8475 9.0668 7.3028 10.8403z"/></g></svg>