<svg fill="none" height="60" viewBox="0 0 180 60" width="180" xmlns="http://www.w3.org/2000/svg"><g fill="#ff9e18"><path d="m52.6141 22.0696c0 1.9882-.0306 3.8847 0 5.7506.0306 1.7742.3059 5.1696.3977 6.9437 0 .0612.0611.1529.0611.2141.0612-.0306.1224-.0612.153-.1223.9177-1.3765 2.3553-3.793 3.273-5.5672 1.5294-2.6 2.2941-4.0071 3.6706-5.9036.7648-1.0706 1.2848-2.1412 2.1107-3.1813.367-.4894.7035-1.0094 1.0706-1.4988.0917-.1224.3059-.153.367-.3059.153-.2141.2448-.4894.3671-.7341.0306-.0612.1224-.0918.1835-.0918.0612-.0306.0918-.0612.0612-.1224-.0306-.0305-.0306-.1529 0-.1835.1224-.1223.2753-.2447.4283-.3671.0306-.0305.0611-.0305.0917-.0611.0918-.1836.1224-.4283.2753-.5812.4283-.4283.8871-.8565 1.3765-1.2236.0918-.0917.3365.0306.4894.0306-.0305.0918-.0917.2141-.1223.3059 0 .0306-.0306.1224-.0306.1224.52.367.3059.7647.1835 1.2235-.0917.3059-.0917.7647.3671.9483.0612.0306.1835.0917.1835.1529-.0917.7647.3977.4283.673.3059.1223-.0612.3059-.1835.3671-.1224.0305.0306-.0918.2448-.153.3671-.0612.1224-.1223.2141-.1529.3059.0917-.0306.1835-.0918.3059-.0918.0305 0 .1223.0306.1223.0612.0306.1224.0612.2753.0306.3671-.3977.7341-.8565 1.4682-1.2236 2.2024-.0611.1223.1224.367.153.5506.0306.0917.0918.1835.0612.2447-.2447.52-.4589 1.1012-.7648 1.56-.7035 1.1012-1.4988 2.2024-2.2329 3.3036-.4283.6424-.8565 1.3153-1.2542 1.9883-.8565 1.4988-1.7129 3.0283-2.5694 4.5577-1.1012 1.9577-2.2024 3.946-3.3036 5.9342-.7953 1.4377-1.6212 2.8754-2.3859 4.313-.2142.3977-.2448.8565-.3671 1.2848 0 .0612-.0306.1223-.0612.1223-.2141.0306-.3976.0918-.6118.0918-.1835 0-.4282-.0306-.5506-.1529-.2141-.153-.3059-.3365-.5506-.0306-.1223.1529-.4894.2447-.6423.1529-1.4071-.7035-2.7836-1.4683-3.4872-2.9365-.4894-.9789-.7341-2.1106-.9788-3.1813-.2753-1.3153-.4588-2.6918-.6118-4.0377-.1529-1.1929-.2141-2.3859-.2753-3.5789-.0611-1.1012-.1529-2.2024-.1529-3.3036 0-1.56.0918-3.12.1529-4.6495.0918-1.927.0612-3.5788-.2141-5.8118-.0612-.2447.1224-.6424.3365-.8259.1529-.1224.52 0 .7953.0306.2141.0306.4282.0611.6424.1223.367.0918.7035.2447 1.0706.3365.3364.1224.7035.1835 1.04.3365.3059.1529.6118.3365.8565.5506.5812.52.7035 1.2235.7953 1.9271.1223.7647.1529 1.4376.1835 1.9577z"/><path d="m18.5076 39.6885c1.1623-.0612 2.4165-.153 3.64-.2447 2.3554-.153 3.1813-.1224 5.5366-.3059 1.0706-.0918 2.2024.4588 2.9977 1.1318.0612.0306-.0306.367-.0918.3976-.3364.153-.7035.2141-1.0094.3671-.1529.0612-.2753.2447-.3976.367.1223.0918.2447.153.3976.2448.1224.0611.2447.0917.3671.1223-.0918.1224-.1836.3059-.3059.3365-.5812.2141-1.1318.3671-1.713.5506-.6423.1835-.5506.3671-1.1929.4588-1.2848.2141-2.0801.3671-3.3648.5812-.9177.153-1.8353.3671-2.753.4894-.9483.1224-1.8965.2447-2.8448.2142-.9176-.0306-1.8659-.0918-2.7224-.4283-1.56-.5812-2.9365-1.4988-3.7012-3.0589-.4588-.9176-.2753-1.8965 0-2.8753.2753-1.0094.6118-1.9883.8565-2.9977.3365-1.3459.6729-2.7224.9788-4.0683.4588-1.9271.9483-3.8542 1.3765-5.8119.3977-1.8353.7647-3.7012 1.1624-5.5672.2141-1.04.4282-2.0494.6729-3.0894.0918-.3977.3671-.4895.7342-.4283.6423.153 1.3459.2141 1.9577.4589.8259.3364 1.6823.7035 2.3859 1.2541.3059.2447.3365.8871.3976 1.3765.0918 1.04-.0917 2.0494-.3976 3.0589-.3977 1.3153-.673 2.6612-1.0094 4.0071-.2448.9177-.5812 1.8047-.7954 2.7224-.2141.9483-.2447 1.9271-.4588 2.8754-.4894 2.4471-1.04 4.5271-1.56 6.9436-.1836.9177-.2141.9177.7341.9177z"/><path d="m36.2491 43.726c-.153.2753-.2142.4283-.3059.4895-.0612.0611-.1836.0306-.2753.0306-.2447 0-.5506-.153-.7036-.0306-.4894.367-1.0094.367-1.5294.3059-.1224 0-.3059-.2142-.3365-.3671-.0918-1.3765.0306-2.7224.3365-4.0683.2753-1.2236.3671-2.4777.52-3.7013.2141-1.4988.3976-3.0283.6729-4.5271.3059-1.6824.7036-3.3342 1.0401-4.986.1223-.5506.1529-1.1012.2447-1.6518.1223-.5506.2753-1.1012.3976-1.6212.2142-1.0094.4589-2.0188.6424-3.0589.1835-1.04.3059-2.1106.4588-3.1812.0918-.6424.52-.8259 1.1318-.6729.4283.1223.9177.1223 1.3765.2447.4588.1529.8871.3976 1.3459.5811.0918.0306.2141.0306.3059.0612.1224.0306.2753 0 .3671.0612 1.5906.9177 1.4682 2.1718 1.2847 3.8236-.1835 1.713-.5812 3.7318-.9788 5.4142-.3977 1.6518-.673 3.1507-1.1624 4.7719-.3671 1.2541-.5812 2.6-.9483 3.8236-.2447.8565-.4282 1.7741-.6729 2.6306-.1836.6424-.4283 1.2847-.6118 1.9577-.0918.3059-.0612.6729-.1835.9788-.1836.4589-.4589.8871-.6424 1.3154-.1529.3364-.3059.7035-.3059 1.04 0 .6117-.8871 1.6212-1.4682 1.56-.0306 0-.1224-.1224-.1224-.2141.0918-.2141.0918-.52.1224-1.0095z"/><path d="m8.07681 39.7808c.03059.2141-.36707 2.0188-.67296 2.9671-.18353.5506-.70354 1.2847-1.13178 1.3459-.45883.0918-3.42595.3059-4.83303-.6118-1.774153-1.1318-1.835331-3.3036-.58119-4.986.73413-.9482 1.04002-1.04 2.26357-.7647.45883.1224.94825 0 1.40709.1224 1.00943.2753 1.98827.6118 2.93652 1.04.2753.0918.58119.6424.61178.8871z"/><path d="m89.8102 27.2393c-.0918-.2141-.8565 0-1.0094.0306-.4589.0918-.9483.1224-1.4071.1836-.2141.0305-.4283.0305-.6424.0611-.7035.0612-1.4377.0918-2.1412.153-.4588.0306-.9483.1223-1.4071.1529-.367.0306-.7647-.0306-1.1624 0-1.1929.0918-2.3553.1835-3.5483.3059-1.0706.0918-2.1106.2141-3.1812.2753-.2141 0-.6118-.1529-.6424-.3059-.0611-.3059.0306-.6423.1224-.9482.2447-.7953.4894-1.5907.7647-2.386.8871-2.6306 3.5177-2.2635 5.7201-2.4165 1.9883-.1223 3.4566-.1835 5.2307-.4282.673-.0918 1.8047-.2447 2.3553-.673.4589-.367.6424-1.1012.8871-1.5906.1836-.3976.4589-.8259 0-1.3153-.2447-.2447-.2753-.7036-.3976-1.0706-.0612-.1224-.153-.2141-.1836-.3365-.1529-.4588-.7341-.8259-1.1318-.7341-.367.0917-.7341.2141-1.1011.2447-1.1624.1223-2.3248.1835-3.4872.3059h-.0306c-1.1012.0917-2.2024.2141-3.3036.367-1.1317.153-2.2941.3365-3.4259.5812-.2447.0612-.4894.1224-.7035.2141-.6118.1224-1.9883.7648-2.2942 1.0401-.2753.2447-1.8047 2.08-2.3247 3.3036-.7648 1.7435-1.4377 3.5483-2.1107 5.3224-.3976 1.04-.7647 2.1106-1.0706 3.1812-.4282 1.5295-.7953 3.0589-1.1929 4.5884-.1836.7647-.4283 1.4988-.5201 2.2635-.2141 1.7742.2753 3.5789 1.346 5.0166 1.3764 1.8047 3.3341 2.3247 5.4753 2.6918.7648.1224 1.6213-.0612 2.4166-.1529.5812-.0612.7035-.153 1.2847-.2753.4894-.0918.7035-.2447 1.193-.3671.9176-.2141 1.5906-.3671 2.5082-.5812.1836-.0306.3671-.1223.52-.1529.4283-.0918.8871-.1224 1.3154-.2447.4588-.1224.9482-.2753 1.407-.3977.6118-.2141 1.2236-.4282 1.8354-.6424.0612-.0305.1223-.0305.1835-.0611.4894-.1224 1.1012 0 1.2542-.7036 0-.0612-.0612-.1835-.1224-.1835-.3059 0-.6424.0306-.9483-.0306-.0917 0-.1835-.1835-.2753-.3059.0918-.0306.1836-.0306.2753-.0612.0306 0 .0918-.0306.1224-.0306.2141-.0917.4588-.1835.673-.3058.2141-.1224.7035-.0306.367-.5506 0 0 .0612-.0612.0918-.0612.2753-.1224.5812-.1836.8565-.3671.1835-.1223.5506-.3365.0612-.5812-.1836-.0917-.3059-.2447 0-.3976.0611-.0306 0-.3059-.0306-.4589 0-.0305-.1224-.1223-.153-.0917-.8565.1223-1.713.2141-2.5694.3365-.8871.1223-1.7436.3058-2.6307.3976-3.0894.3365-6.1483.6424-9.2378 1.04-.52.0612-1.4377.1836-1.7741-.3365-.3365-.5505.1223-1.8047.2447-2.4165.2447-1.2235.4894-2.4165.7647-3.64.0306-.1224.2753-.3059.4282-.3059.52 0 1.04.1223 1.5601.1223.7035 0 1.4376-.1223 2.1412-.1529.4282-.0306.887 0 1.3153-.0612 1.6824-.2447 3.3648-.4894 5.0471-.7953.8565-.1529 1.9883-.3977 2.6919-.5812.0305-.1529.0305-.2753.0611-.2753.2142-.0612.4283-.0917.6118-.1835.2447-.0918.4588-.1835.673-.3059.2141-.1224.6423-.2753.6423-.3671 0-.0917-.6423-.2753-.7341-.3976-.1224-.1224-.0918-.2753-.2141-.3977.0306-.0917.1223-.1529.2141-.1835s.2141-.0306.3059-.0612c.2447-.0612.7035-.3059.52-.6424-.0612-.0917-.1224-.1529-.153-.2753-.0305-.1529.0306-.3058.1836-.4282.1223-.0918.2753-.1529.4282-.2141.3671-.153.7342-.3671 1.0095-.673.0611-.0611.1223-.1529.1223-.2447.0306 0 .0306-.0306.0306-.0306z"/></g></svg>