<svg xmlns="http://www.w3.org/2000/svg" viewBox="0 0 708.96 442.9"><defs><style>.cls-1{fill:#fff;}.cls-2{fill:#e0e0e0;}.cls-3{fill:#ebebeb;}.cls-4{opacity:0.2;}.cls-5{fill:#f5f5f5;}.cls-6{fill:#263238;}.cls-7{opacity:0.3;}.cls-8{fill:#455a64;}.cls-9{fill:#2f57a4;}.cls-10{opacity:0.4;}.cls-11{fill:#fafafa;}.cls-12{fill:#ffbf9d;}.cls-13{fill:#ff9a6c;}</style></defs><g id="Background_Complete" data-name="Background Complete"><rect class="cls-1" x="124.78" y="335.84" width="132.8" height="54.63" rx="11.53"/><path class="cls-2" d="M246.05,390.48a14.91,14.91,0,0,0,3.53-.62,11.49,11.49,0,0,0,7.14-6.89,11.07,11.07,0,0,0,.7-3.43c.05-1.23,0-2.55,0-3.91q0-4.11,0-8.9t0-10.22c0-1.81,0-3.67,0-5.58a36.7,36.7,0,0,0-.23-5.82,11.4,11.4,0,0,0-8-8.6c-2.07-.62-4.32-.38-6.6-.42h-7l-30.16,0-69.09,0a11.17,11.17,0,0,0-8,3.34,11.31,11.31,0,0,0-3.24,7.92v26.22c0,1.42,0,2.83,0,4.24a13.39,13.39,0,0,0,.42,4.07,11.28,11.28,0,0,0,4.61,6.38,11,11,0,0,0,3.61,1.56,16,16,0,0,0,3.92.32l56.43.06,38,.1,10.34.06,2.69,0,.92,0-.92,0-2.69,0-10.34.06-38,.09-56.43.07a16.42,16.42,0,0,1-4-.33,11.31,11.31,0,0,1-3.79-1.64,11.92,11.92,0,0,1-4.86-6.69,14.11,14.11,0,0,1-.44-4.23V365q0-8.67,0-17.63a11.83,11.83,0,0,1,11.84-11.87l69.09,0,30.16,0h10.34a12.46,12.46,0,0,1,3.34.45,11.83,11.83,0,0,1,8.31,9,15.34,15.34,0,0,1,.23,3c0,1,0,2,0,2.9,0,1.91,0,3.77,0,5.58,0,3.62,0,7,0,10.22s0,6.16,0,8.9c0,1.36,0,2.66,0,3.92a10.85,10.85,0,0,1-.74,3.5,11.5,11.5,0,0,1-7.32,6.92,11.44,11.44,0,0,1-2.65.49Z"/><path class="cls-2" d="M234.61,366.73H173.79a4.08,4.08,0,0,1-4.08-4.08h0a4.08,4.08,0,0,1,4.08-4.08h60.82a4.08,4.08,0,0,1,4.08,4.08h0A4.08,4.08,0,0,1,234.61,366.73Z"/><rect class="cls-2" x="143.36" y="353.7" width="18.92" height="18.92" rx="5.14"/><polygon class="cls-1" points="146.29 363.43 148.19 361.53 151.87 364.79 158 358.63 159.77 360.54 151.59 368.47 146.29 363.43"/><path class="cls-3" d="M657.43,100.05a9.07,9.07,0,1,1-10.87-6.82A9.07,9.07,0,0,1,657.43,100.05Z"/><path class="cls-3" d="M614.59,110l68-15.63-5.93-4.31a18.84,18.84,0,0,1-7.27-11L665.2,60.61a25.45,25.45,0,0,0-30.49-19.1h0A25.44,25.44,0,0,0,615.61,72l4.08,17.75A18.85,18.85,0,0,1,618.37,102Z"/><rect class="cls-3" x="630.35" y="33.5" width="6.85" height="14.56" rx="2.98" transform="translate(6.96 142.93) rotate(-12.94)"/><path class="cls-2" d="M682.68,94.54c0,.14-15.07,3.73-33.73,8s-33.82,7.64-33.85,7.49,15.07-3.72,33.73-8S682.65,94.4,682.68,94.54Z"/><path class="cls-2" d="M639.81,104.38a15.16,15.16,0,0,0,9.26,1.09,14.57,14.57,0,0,0,8.43-5.15Z"/><path class="cls-2" d="M661.08,58.18a5.28,5.28,0,0,0-1-2.18,1.77,1.77,0,0,0-2.19-.42h0a1.91,1.91,0,0,0-1.07,2.16c.66,2.92,2.11,9.37,2.83,13.24.59,3.19.91,6.66-.57,9.54a10.84,10.84,0,0,1-5.61,4.77,39.83,39.83,0,0,1-7.24,1.93,39,39,0,0,0-9,2.88,4.64,4.64,0,0,0-2,1.53,1.86,1.86,0,0,0,.15,2.33,2.81,2.81,0,0,0,2.23.33c7.92-1.1,15.87-2.33,23.39-5a8.06,8.06,0,0,0,4.14-2.62c1.06-1.55,1-3.6.8-5.47A131.26,131.26,0,0,0,661.08,58.18Z"/><g class="cls-4"><path class="cls-1" d="M628.26,47.44l.06,0,.08,0Z"/></g><path class="cls-2" d="M650.15,42.65c0,.11-1.53-.54-4.09-1a26.74,26.74,0,0,0-4.52-.5,29.5,29.5,0,0,0-5.56.42,30,30,0,0,0-5.36,1.53,27.65,27.65,0,0,0-4.08,2c-2.21,1.36-3.4,2.48-3.47,2.4a5.43,5.43,0,0,1,.8-.81,10.33,10.33,0,0,1,1-.86,14.88,14.88,0,0,1,1.45-1,24.75,24.75,0,0,1,4.09-2.17,26.66,26.66,0,0,1,11.11-2,23.66,23.66,0,0,1,4.59.63,15.44,15.44,0,0,1,1.72.47,9.28,9.28,0,0,1,1.26.46A4.77,4.77,0,0,1,650.15,42.65Z"/><path class="cls-1" d="M620,100.61c-.15-.06.73-2.19,1-5s0-5.06.15-5.08a10.81,10.81,0,0,1,.37,5.14A10.93,10.93,0,0,1,620,100.61Z"/><path class="cls-1" d="M651.23,108.93c0,.06-.45.4-1.37.66a7,7,0,0,1-6.83-1.87c-.65-.69-.9-1.22-.85-1.26s.42.41,1.1,1a8,8,0,0,0,3.05,1.64,8.09,8.09,0,0,0,3.45.14A11.44,11.44,0,0,1,651.23,108.93Z"/><path class="cls-1" d="M631.33,34.77a14.77,14.77,0,0,0-.62,2.46,13.46,13.46,0,0,0,.3,2.53,2.94,2.94,0,0,1-.83-2.56A3,3,0,0,1,631.33,34.77Z"/><path class="cls-2" d="M73,132.08a26.54,26.54,0,0,1,6.5-2.83l1.34-6.43,10.87-.19L93.3,129a26.59,26.59,0,0,1,6.6,2.6l5.49-3.61,7.83,7.56-3.41,5.62a26.17,26.17,0,0,1,2.83,6.5l6.43,1.34.2,10.88-6.39,1.56a26.59,26.59,0,0,1-2.6,6.6l3.61,5.5-7.56,7.82-5.62-3.4a26.51,26.51,0,0,1-6.5,2.82l-1.34,6.44L82,187.43,80.43,181a26.56,26.56,0,0,1-6.6-2.59l-5.5,3.6-7.82-7.55,3.41-5.62a26.4,26.4,0,0,1-2.83-6.51L54.65,161l-.19-10.87,6.39-1.57a26.56,26.56,0,0,1,2.59-6.6l-3.6-5.49,7.56-7.83L73,132.08Zm5.79,14.49a11.67,11.67,0,1,0,16.5-.29A11.68,11.68,0,0,0,78.81,146.57Z"/><path class="cls-3" d="M672,262.71a21.52,21.52,0,0,1,5.2-2.26l1.07-5.14,8.69-.15,1.25,5.1a21.55,21.55,0,0,1,5.27,2.07l4.39-2.88,6.25,6L701.41,270a21.26,21.26,0,0,1,2.25,5.19l5.15,1.07.15,8.69-5.1,1.25a21.19,21.19,0,0,1-2.08,5.27l2.88,4.39-6,6.25-4.49-2.72a21.58,21.58,0,0,1-5.2,2.26l-1.07,5.14-8.68.15-1.25-5.1a21.4,21.4,0,0,1-5.27-2.07l-4.4,2.87-6.25-6,2.73-4.49a20.91,20.91,0,0,1-2.26-5.19l-5.14-1.07-.16-8.69,5.1-1.25a21,21,0,0,1,2.08-5.27l-2.88-4.39,6-6.25,4.48,2.72Zm4.64,11.57a9.32,9.32,0,1,0,13.17-.23A9.31,9.31,0,0,0,676.65,274.28Z"/><path class="cls-2" d="M33.72,261a13.42,13.42,0,0,1,3.35-1.46l.69-3.33,5.62-.09.81,3.29a13.91,13.91,0,0,1,3.4,1.34l2.84-1.86,4,3.9-1.76,2.9A13.69,13.69,0,0,1,54.17,269l3.32.69.1,5.62-3.3.8A13.44,13.44,0,0,1,53,279.56l1.86,2.84-3.9,4L48,284.68a13.79,13.79,0,0,1-3.35,1.46l-.7,3.32-5.61.1-.81-3.3a13.52,13.52,0,0,1-3.4-1.34l-2.84,1.86-4-3.9L29,280a13.69,13.69,0,0,1-1.46-3.36l-3.32-.69-.1-5.61,3.29-.81a14,14,0,0,1,1.34-3.41l-1.86-2.83,3.9-4L33.72,261Zm3,7.47a6,6,0,1,0,8.51-.15A6,6,0,0,0,36.71,268.46Z"/><path class="cls-5" d="M246.36,30.08a30.76,30.76,0,0,1,7.53-3.27l1.55-7.45L268,19.14l1.81,7.39a31,31,0,0,1,7.64,3l6.36-4.16,9.06,8.74-3.95,6.5a30.59,30.59,0,0,1,3.27,7.53l7.45,1.55.22,12.58-7.39,1.81a31,31,0,0,1-3,7.64l4.17,6.36-8.74,9-6.51-3.94a30.69,30.69,0,0,1-7.52,3.27l-1.55,7.45-12.59.22-1.81-7.39a31.05,31.05,0,0,1-7.63-3L241,87.91l-9.06-8.75,3.94-6.5a31.07,31.07,0,0,1-3.27-7.52l-7.45-1.55L224.89,51l7.39-1.81a30.61,30.61,0,0,1,3-7.64l-4.17-6.36,8.74-9,6.5,3.94Zm6.71,16.77a13.5,13.5,0,1,0,19.09-.34A13.49,13.49,0,0,0,253.07,46.85Z"/><path class="cls-5" d="M590.92,346.66a30.59,30.59,0,0,1,7.53-3.27l1.55-7.45,12.58-.22,1.81,7.39a31,31,0,0,1,7.64,3l6.36-4.17,9.05,8.75-3.94,6.5a30.69,30.69,0,0,1,3.27,7.52l7.45,1.55.22,12.59-7.39,1.81a31,31,0,0,1-3,7.64l4.17,6.36-8.75,9-6.5-3.94a30.59,30.59,0,0,1-7.53,3.27l-1.55,7.45-12.58.22-1.81-7.39a31,31,0,0,1-7.64-3l-6.36,4.16-9-8.74,3.94-6.5a30.59,30.59,0,0,1-3.27-7.53l-7.45-1.55-.22-12.58,7.39-1.81a31,31,0,0,1,3-7.64l-4.17-6.36,8.75-9,6.5,3.94Zm6.71,16.76a13.5,13.5,0,1,0,19.09-.33A13.52,13.52,0,0,0,597.63,363.42Z"/></g><g id="Office_Plan" data-name="Office Plan"><rect class="cls-1" x="88.35" y="68.26" width="307.15" height="253.52"/><path class="cls-6" d="M395.51,321.78c0-1.82-.09-100.74-.22-253.52l.22.21-307.13,0h0l.26-.26c0,91.75,0,178.36,0,253.52l-.24-.23,307.16.23L88.35,322h-.23v-.23c0-75.16,0-161.77,0-253.52V68h.29l307.13,0h.22v.22C395.59,221,395.51,320,395.51,321.78Z"/><path class="cls-6" d="M376.06,305.63H102.18v-220H376.06Zm-272.88-1H375.06v-218H103.18Z"/><rect class="cls-6" x="289.12" y="87.02" width="1" height="218.14"/><path class="cls-6" d="M195.16,87a3.33,3.33,0,0,1,.06.62c0,.4,0,1,.1,1.76a26.38,26.38,0,0,0,1.26,6.32,21,21,0,0,0,5,8.06,26.29,26.29,0,0,0,9.86,6.1,30.14,30.14,0,0,0,6.14,1.53l-.28.25c0-6.8.07-12.76.09-17.1,0-2.09.06-3.78.08-5,0-.54,0-1,0-1.34a1.74,1.74,0,0,1,.05-.47,2.15,2.15,0,0,1,0,.47c0,.35,0,.8.05,1.34,0,1.25,0,2.94.07,5,0,4.34.06,10.3.09,17.1V112l-.28,0a30.23,30.23,0,0,1-6.27-1.55,26.46,26.46,0,0,1-10-6.26,21.11,21.11,0,0,1-5-8.27,25,25,0,0,1-1.11-6.43c-.05-.77,0-1.37,0-1.77A2.29,2.29,0,0,1,195.16,87Z"/><path class="cls-6" d="M289.62,134a3.69,3.69,0,0,1-.62,0c-.4,0-1,0-1.77,0A24.52,24.52,0,0,1,280.8,133a21.09,21.09,0,0,1-8.28-5,26.58,26.58,0,0,1-6.26-10,30.84,30.84,0,0,1-1.54-6.27l0-.28H265l17.1.09,5,.07,1.35.05a2.15,2.15,0,0,1,.47,0,1.74,1.74,0,0,1-.47,0l-1.35,0-5,.08-17.1.09.25-.28a30.76,30.76,0,0,0,1.52,6.14,26.56,26.56,0,0,0,6.11,9.87,21.14,21.14,0,0,0,8.06,5,26.38,26.38,0,0,0,6.32,1.26c.76.08,1.36.07,1.76.1A2.74,2.74,0,0,1,289.62,134Z"/><path class="cls-6" d="M290.26,255.69a2.63,2.63,0,0,1-.61,0c-.41,0-1,0-1.78,0a25,25,0,0,1-6.42-1.12,20.83,20.83,0,0,1-8.28-5,26.3,26.3,0,0,1-6.26-10,29.43,29.43,0,0,1-1.54-6.27l0-.28h.29l17.11.09,5,.08,1.35,0a1.7,1.7,0,0,1,.46,0,2.1,2.1,0,0,1-.46,0l-1.35,0-5,.07-17.11.09.25-.28a30.22,30.22,0,0,0,1.53,6.15,26.37,26.37,0,0,0,6.1,9.86,20.89,20.89,0,0,0,8.06,5,27,27,0,0,0,6.33,1.27c.76.07,1.35.06,1.76.1A2.45,2.45,0,0,1,290.26,255.69Z"/><path class="cls-6" d="M195.15,87a2.69,2.69,0,0,1,0,.62c0,.4,0,1,0,1.77a25.11,25.11,0,0,1-1.12,6.43,20.87,20.87,0,0,1-5,8.27,26.3,26.3,0,0,1-10,6.26,30.08,30.08,0,0,1-6.27,1.55l-.28,0v-.29c0-6.8.07-12.76.09-17.1,0-2.09.06-3.78.08-5,0-.54,0-1,0-1.34a1.34,1.34,0,0,1,.05-.47,2.15,2.15,0,0,1,0,.47c0,.35,0,.8,0,1.34,0,1.25,0,2.94.08,5,0,4.34.05,10.3.09,17.1l-.28-.25a30.14,30.14,0,0,0,6.14-1.53,26.34,26.34,0,0,0,9.87-6.1,20.89,20.89,0,0,0,5-8.06A26.38,26.38,0,0,0,195,89.4c.08-.77.07-1.36.11-1.76A2.5,2.5,0,0,1,195.15,87Z"/><path class="cls-6" d="M354.33,205s0-.15,0-.44,0-.71,0-1.25c0-1.11,0-2.73,0-4.82,0-4.22,0-10.33-.07-18,0-15.36-.07-36.95-.12-62l.25.25H318l.26-.26c0,33.76-.05,64.34-.07,86.54l-.19-.19,26.56.1,7.25,0,1.9,0,.66,0-.62,0-1.87,0-7.21,0-26.67.1h-.18V205c0-22.2,0-52.78-.08-86.54v-.26h36.88v.25c-.05,25.14-.09,46.8-.12,62.19,0,7.66,0,13.75-.07,18,0,2.07,0,3.67,0,4.77,0,.53,0,.93,0,1.23S354.33,205,354.33,205Z"/><path class="cls-6" d="M363.39,191.73a1.35,1.35,0,0,1-.08.71,1.86,1.86,0,0,1-1.59,1.19c-1.74.05-4.21.07-7.22.1h-.21v-.21c0-4,0-8.81-.05-14.06v-2.05h6.92a3,3,0,0,1,1.1.11,2,2,0,0,1,1.34,1.68c0,.37,0,.65,0,1,0,.63,0,1.24,0,1.83q0,1.75,0,3.27c0,1.93-.06,3.52-.08,4.71,0,.51,0,.93,0,1.28a2.19,2.19,0,0,1-.05.44,1.18,1.18,0,0,1-.05-.44c0-.35,0-.77,0-1.28,0-1.19-.05-2.78-.08-4.71q0-1.52,0-3.27c0-.59,0-1.2,0-1.83,0-.3,0-.66,0-.93a1.46,1.46,0,0,0-.33-.78,1.52,1.52,0,0,0-.7-.49,2.62,2.62,0,0,0-.95-.08H354.5l.26-.26v1.79c0,5.25,0,10.11-.05,14.06l-.21-.21,7.2.08a1.71,1.71,0,0,0,1.49-1C363.37,192,363.35,191.73,363.39,191.73Z"/><path class="cls-6" d="M359.74,193.52a59.9,59.9,0,0,1-.26-8,59.68,59.68,0,0,1,.26-7.95,61.78,61.78,0,0,1,.26,7.95A62,62,0,0,1,359.74,193.52Z"/><path class="cls-6" d="M363.39,156.57a1.35,1.35,0,0,1-.08.71,1.85,1.85,0,0,1-1.59,1.19c-1.74.05-4.21.07-7.22.1h-.21v-.21c0-4,0-8.81-.05-14.06v-2.05h6.92a2.84,2.84,0,0,1,1.1.12,2,2,0,0,1,.92.65,2,2,0,0,1,.42,1c0,.37,0,.65,0,1,0,.63,0,1.24,0,1.83q0,1.75,0,3.27c0,1.94-.06,3.52-.08,4.71,0,.51,0,.93,0,1.28a2.19,2.19,0,0,1-.05.44,1.18,1.18,0,0,1-.05-.44c0-.35,0-.77,0-1.28,0-1.19-.05-2.77-.08-4.71q0-1.51,0-3.27c0-.59,0-1.2,0-1.83,0-.3,0-.66,0-.93a1.46,1.46,0,0,0-.33-.78,1.52,1.52,0,0,0-.7-.49,2.62,2.62,0,0,0-.95-.08H354.5l.26-.26v1.79c0,5.25,0,10.11-.05,14.06l-.21-.21,7.2.08a1.71,1.71,0,0,0,1.49-1C363.37,156.82,363.35,156.57,363.39,156.57Z"/><path class="cls-6" d="M359.74,158.36a59.78,59.78,0,0,1-.26-8,59.68,59.68,0,0,1,.26-8,61.78,61.78,0,0,1,.26,8A61.88,61.88,0,0,1,359.74,158.36Z"/><path class="cls-6" d="M343.23,109.52a1.31,1.31,0,0,1,.7.08,1.87,1.87,0,0,1,1.2,1.59c0,1.74.07,4.21.09,7.22v.21H345l-14.06,0h-2v-4.78c0-.73,0-1.44,0-2.14a3.29,3.29,0,0,1,.12-1.1,2,2,0,0,1,.65-.92,2.08,2.08,0,0,1,1-.42c.38,0,.66,0,1,0l1.83,0,3.27,0,4.72.08,1.27,0a2.39,2.39,0,0,1,.45,0,1.27,1.27,0,0,1-.45,0l-1.27.05-4.72.08-3.27,0-1.83,0c-.3,0-.66,0-.93,0a1.4,1.4,0,0,0-.77.33,1.45,1.45,0,0,0-.5.71,2.77,2.77,0,0,0-.08.94c0,.7,0,1.41,0,2.14,0,1.46,0,3,0,4.52l-.26-.26H331l14.06,0-.21.21c0-3,.06-5.4.09-7.2a1.74,1.74,0,0,0-1-1.49C343.48,109.54,343.22,109.56,343.23,109.52Z"/><path class="cls-6" d="M345,113.17a59.68,59.68,0,0,1-7.95.26,59.78,59.78,0,0,1-8-.26,61.88,61.88,0,0,1,8-.26A61.78,61.78,0,0,1,345,113.17Z"/><path class="cls-6" d="M330.88,213.84a1.31,1.31,0,0,1-.7-.08,1.85,1.85,0,0,1-1.19-1.59c-.05-1.74-.07-4.21-.1-7.22v-.21h.21l14.06-.05h2v4.78c0,.73,0,1.44,0,2.14a3.29,3.29,0,0,1-.12,1.1,2,2,0,0,1-.65.92,2.08,2.08,0,0,1-1,.42c-.38,0-.66,0-1,0l-1.83,0-3.27,0-4.72-.08-1.27,0a2.39,2.39,0,0,1-.45,0,1.27,1.27,0,0,1,.45-.05l1.27,0,4.72-.08,3.27,0,1.83,0c.3,0,.66,0,.93,0a1.4,1.4,0,0,0,.77-.33,1.47,1.47,0,0,0,.5-.7,2.86,2.86,0,0,0,.08-.95c0-.7,0-1.41,0-2.14V205l.25.26h-1.78l-14.06-.05.21-.21c0,3-.06,5.4-.09,7.2a1.73,1.73,0,0,0,1,1.49C330.63,213.82,330.89,213.8,330.88,213.84Z"/><path class="cls-6" d="M329.1,210.19a59.78,59.78,0,0,1,8-.26,59.68,59.68,0,0,1,7.95.26,61.78,61.78,0,0,1-7.95.26A61.88,61.88,0,0,1,329.1,210.19Z"/><path class="cls-6" d="M308.94,144.23a1.22,1.22,0,0,1,.08-.71,1.85,1.85,0,0,1,1.59-1.19c1.74-.05,4.21-.07,7.22-.09H318v.22c0,4,0,8.8,0,14.06v2h-6.92a3,3,0,0,1-1.1-.11,2,2,0,0,1-.92-.66,1.92,1.92,0,0,1-.42-1c0-.38,0-.66,0-1,0-.63,0-1.24,0-1.83q0-1.76,0-3.27c0-1.93.06-3.52.09-4.71,0-.51,0-.93,0-1.28a2.19,2.19,0,0,1,.05-.44,1.18,1.18,0,0,1,.05.44c0,.35,0,.77.05,1.28,0,1.19,0,2.78.08,4.71q0,1.51,0,3.27c0,.59,0,1.2,0,1.83,0,.3,0,.66,0,.93a1.6,1.6,0,0,0,.33.78,1.62,1.62,0,0,0,.71.5,2.83,2.83,0,0,0,.95.08h6.66l-.26.26v-1.78c0-5.26,0-10.11.05-14.06l.21.21-7.2-.09a1.72,1.72,0,0,0-1.49,1A3.59,3.59,0,0,0,308.94,144.23Z"/><path class="cls-6" d="M312.59,142.45a61.78,61.78,0,0,1,.26,8,61.88,61.88,0,0,1-.26,8,61.88,61.88,0,0,1-.26-8A61.78,61.78,0,0,1,312.59,142.45Z"/><path class="cls-6" d="M308.94,179.39a1.22,1.22,0,0,1,.08-.71,1.85,1.85,0,0,1,1.59-1.19c1.74-.05,4.21-.07,7.22-.1H318v.22c0,3.95,0,8.8,0,14v2.05h-6.92a3,3,0,0,1-1.1-.11,2,2,0,0,1-.92-.66,1.92,1.92,0,0,1-.42-1c0-.38,0-.66,0-1,0-.63,0-1.24,0-1.83q0-1.76,0-3.27c0-1.93.06-3.52.09-4.71,0-.51,0-.93,0-1.28a2.19,2.19,0,0,1,.05-.44,1.18,1.18,0,0,1,.05.44c0,.35,0,.77.05,1.28,0,1.19,0,2.78.08,4.71q0,1.52,0,3.27c0,.59,0,1.2,0,1.83,0,.3,0,.66,0,.93a1.64,1.64,0,0,0,.33.78,1.7,1.7,0,0,0,.71.5,2.83,2.83,0,0,0,.95.08h6.66l-.26.26v-1.79c0-5.25,0-10.1.05-14l.21.21-7.2-.09a1.72,1.72,0,0,0-1.49,1A3.59,3.59,0,0,0,308.94,179.39Z"/><path class="cls-6" d="M312.59,177.61a61.78,61.78,0,0,1,.26,7.95,61.88,61.88,0,0,1-.26,8,61.88,61.88,0,0,1-.26-8A61.78,61.78,0,0,1,312.59,177.61Z"/><path class="cls-6" d="M342.93,277.6s.3,0,.81-.16a3.76,3.76,0,0,0,1.91-1.21,3.55,3.55,0,0,0,.74-1.42,7.41,7.41,0,0,0,.1-1.93c0-1.42,0-3,0-4.75l.22.22-12.1,0h-3.74l.26-.26c0,1.42,0,2.79,0,4.11,0,.65,0,1.33,0,1.92a3.5,3.5,0,0,0,3.2,3.22c1,0,2,0,2.92.05l4.21.08a10.26,10.26,0,0,1,1.52.09,10.26,10.26,0,0,1-1.52.09l-4.21.08c-.9,0-1.86,0-2.95,0a4,4,0,0,1-3.64-3.59c0-.67,0-1.29,0-2,0-1.32,0-2.69,0-4.11v-.26h4l12.1,0h.23v.22c0,1.73,0,3.33,0,4.75a7.73,7.73,0,0,1-.17,2,3.75,3.75,0,0,1-2.91,2.68,3.56,3.56,0,0,1-.63.06Z"/><path class="cls-6" d="M346.67,274a59.68,59.68,0,0,1-7.95.26,59.78,59.78,0,0,1-8-.26,61.88,61.88,0,0,1,8-.26A61.78,61.78,0,0,1,346.67,274Z"/><path class="cls-6" d="M308.17,284.42l.25,0,.74,0,2.9,0,10.94-.07-.14.15c0-4.5,0-10-.06-16.29v-.2h.2l34.85-.05-.26.25V251.84l.26.26h-.36l-50.05,0,.21-.21c0,9.93-.07,18.07-.09,23.75,0,2.81-.05,5-.06,6.54q0,1.1,0,1.71c0,.38,0,.58,0,.58s0-.2,0-.58,0-1,0-1.71c0-1.53,0-3.73-.06-6.54,0-5.68-.05-13.82-.09-23.75v-.21h.21l50.05,0h.62v.26c0,5.58,0,11,0,16.29v.26h-.25L323,268.33l.21-.2c0,6.27,0,11.79-.06,16.29v.15H323l-10.94-.07-2.9,0-.74,0A.67.67,0,0,1,308.17,284.42Z"/><rect class="cls-6" x="289.09" y="230.7" width="84.69" height="1"/><rect class="cls-1" x="171.36" y="82.45" width="47.16" height="5.91"/><path class="cls-6" d="M218.52,88.37a2.45,2.45,0,0,1,0-.41c0-.29,0-.66,0-1.14,0-1,0-2.49-.06-4.37l.12.12c-8.57.09-26.48.14-47.16.14h0c-.23.24.32-.31.26-.26h0v5.91l-.26-.26,33.45.11,10,.08,2.73,0,.71,0,.26,0-.22,0h-.69l-2.66,0-10,.07-33.63.12h-.26V82.46h0l.26-.26h0c20.68,0,38.59.06,47.16.15h.12v.11q0,2.86-.06,4.44c0,.47,0,.83,0,1.12S218.52,88.38,218.52,88.37Z"/><rect class="cls-1" x="286.13" y="106.98" width="5.91" height="31.74"/><path class="cls-6" d="M286.13,138.72l.41,0,1.17,0,4.33-.08-.14.14c-.07-6.6-.12-18.35-.12-31.74h0l.26.26h-5.91l.25-.26c0,8.94-.08,16.82-.11,22.53,0,2.82-.06,5.09-.08,6.72q0,1.14,0,1.83a5.9,5.9,0,0,1,0,.66,2.27,2.27,0,0,1,0-.59q0-.67,0-1.77c0-1.62-.05-3.88-.08-6.66,0-5.76-.07-13.71-.11-22.72v-.26H292c.11.12-.26-.26.26.26h0c0,13.39-.05,25.14-.12,31.74v.14H292l-4.41-.08-1.14,0A1.44,1.44,0,0,1,286.13,138.72Z"/><rect class="cls-1" x="286.13" y="230.97" width="5.91" height="31.74"/><path class="cls-6" d="M286.13,262.71l.41,0,1.17,0,4.33-.08-.14.14c-.07-6.6-.12-18.36-.12-31.74h0l.26.26h-5.91l.25-.25c0,8.93-.08,16.82-.11,22.53,0,2.81-.06,5.09-.08,6.72,0,.76,0,1.36,0,1.83a6.13,6.13,0,0,1,0,.66,2.27,2.27,0,0,1,0-.59c0-.46,0-1,0-1.78,0-1.61-.05-3.87-.08-6.66,0-5.76-.07-13.7-.11-22.71v-.26H292c.11.12-.26-.26.26.27h0c0,13.38-.05,25.14-.12,31.74v.14H292l-4.41-.08-1.14,0A1.44,1.44,0,0,1,286.13,262.71Z"/><rect class="cls-6" x="127.54" y="146.69" width="1" height="37.25"/><rect class="cls-6" x="256.6" y="146.4" width="1" height="39.6"/><rect class="cls-6" x="129.51" y="165.56" width="126.43" height="1"/><rect class="cls-6" x="191.49" y="145.82" width="1" height="40.48"/><path class="cls-6" d="M167.55,133.81a1.22,1.22,0,0,1,.71.08,1.84,1.84,0,0,1,1.19,1.59c0,1.74.07,4.2.09,7.21v.21h-.22l-14.06.05h-2v-.26c0-1.55,0-3.06,0-4.51V136a3.37,3.37,0,0,1,.12-1.11A2.09,2.09,0,0,1,154,134a2,2,0,0,1,1-.41c.38,0,.66,0,1,0h1.82l3.28,0,4.71.08,1.28,0a1.18,1.18,0,0,1,.44.05,1.53,1.53,0,0,1-.44.05l-1.28,0-4.71.08-3.28,0H156c-.31,0-.66,0-.93,0a1.6,1.6,0,0,0-.78.33,1.56,1.56,0,0,0-.5.71,2.81,2.81,0,0,0-.08.95c0,.69,0,1.41,0,2.14,0,1.45,0,3,0,4.51l-.26-.25h1.78l14.06,0-.21.21c0-2.94.07-5.39.09-7.2a1.74,1.74,0,0,0-1-1.49A4,4,0,0,0,167.55,133.81Z"/><path class="cls-6" d="M179.91,160.25s0-.12,0-.33,0-.54,0-.92c0-.85,0-2-.05-3.52,0-3.06-.06-7.42-.1-12.79l.19.2-36.18.07c-.24.23.31-.32.25-.26h0v9c0,2.94,0,5.78,0,8.5l-.25-.24,25.93.11,7.52.07,2,0,.53,0h.19a5.08,5.08,0,0,1-.66,0l-2,0-7.46.07-26.1.12h-.24v-.25c0-2.72,0-5.56,0-8.5v-4.47c0-.75,0-1.52,0-2.28v-2.29h0l.27-.27,36.18.07h.2v.19c0,5.42-.07,9.82-.1,12.91,0,1.47,0,2.64-.05,3.47,0,.37,0,.66,0,.89A.83.83,0,0,1,179.91,160.25Z"/><path class="cls-6" d="M169.33,137.46a61.78,61.78,0,0,1-8,.26,61.88,61.88,0,0,1-8-.26,59.78,59.78,0,0,1,8-.26A59.68,59.68,0,0,1,169.33,137.46Z"/><path class="cls-6" d="M232.58,133.81a1.19,1.19,0,0,1,.7.08,1.84,1.84,0,0,1,1.2,1.59c0,1.74.07,4.2.09,7.21v.21h-.21L220.3,143h-2v-4.77c0-.73,0-1.45,0-2.14a3.37,3.37,0,0,1,.12-1.11A2.15,2.15,0,0,1,219,134a2.06,2.06,0,0,1,1-.41c.38,0,.66,0,1,0h1.83l3.27,0,4.72.08,1.27,0a1.27,1.27,0,0,1,.45.05,1.66,1.66,0,0,1-.45.05l-1.27,0-4.72.08-3.27,0H221c-.3,0-.66,0-.93,0a1.56,1.56,0,0,0-.77.33,1.49,1.49,0,0,0-.5.71,2.81,2.81,0,0,0-.08.95c0,.69,0,1.41,0,2.14,0,1.45,0,3,0,4.51l-.26-.25h1.78l14.06,0-.21.21c0-2.94.06-5.39.09-7.2a1.74,1.74,0,0,0-1-1.49A4.3,4.3,0,0,0,232.58,133.81Z"/><path class="cls-6" d="M244.94,160.25a2.22,2.22,0,0,1,0-.33l0-.92c0-.85,0-2-.05-3.52,0-3.06-.06-7.42-.1-12.79l.19.2-36.19.07.26-.26h0v9c0,2.94,0,5.78,0,8.5l-.25-.24,25.93.11,7.52.07,2,0,.53,0h.19a5.27,5.27,0,0,1-.66,0l-2,0-7.47.07-26.09.12h-.24v-.25c0-2.72,0-5.56,0-8.5,0-1.46,0-3,0-4.47v-4.57h0c-.06.05.5-.5.26-.27l36.19.07h.19v.19c0,5.42-.08,9.82-.1,12.91,0,1.47,0,2.64-.05,3.47l0,.89A1.38,1.38,0,0,1,244.94,160.25Z"/><path class="cls-6" d="M234.36,137.46a61.78,61.78,0,0,1-8,.26,61.88,61.88,0,0,1-8-.26,59.78,59.78,0,0,1,8-.26A59.68,59.68,0,0,1,234.36,137.46Z"/><path class="cls-6" d="M221.12,199.22a1.26,1.26,0,0,1-.71-.07,1.85,1.85,0,0,1-1.19-1.6c-.05-1.73-.07-4.2-.1-7.21v-.21h.21l14.06,0h2.05v.26c0,1.55,0,3.06,0,4.52,0,.72,0,1.44,0,2.14a3,3,0,0,1-.12,1.1,2,2,0,0,1-.65.92,2.08,2.08,0,0,1-1,.42c-.38,0-.66,0-1,0l-1.83,0-3.27,0-4.72-.08-1.27,0a1.18,1.18,0,0,1-.44-.05,2.19,2.19,0,0,1,.44-.05l1.27,0,4.72-.08,3.27,0h1.83c.3,0,.66,0,.93,0a1.53,1.53,0,0,0,1.27-1,2.54,2.54,0,0,0,.08-.94v-2.14c0-1.46,0-3,0-4.52l.26.26h-1.79l-14.06,0,.21-.21c0,2.94-.06,5.39-.08,7.2a1.71,1.71,0,0,0,1,1.49A3.69,3.69,0,0,0,221.12,199.22Z"/><path class="cls-6" d="M208.75,172.78a1.32,1.32,0,0,1,0,.33l0,.93c0,.84,0,2,.05,3.51,0,3.07.06,7.42.1,12.79l-.19-.19,36.19-.07c.23-.24-.32.31-.26.26h0v-9c0-2.94,0-5.78,0-8.5l.25.25L219,172.91l-7.52-.07-2,0-.53,0h-.19a5.27,5.27,0,0,1,.66,0l2,0,7.47-.07,26.09-.12h.25v.25c0,2.72,0,5.56,0,8.5v9h0l-.26.26-36.19-.07h-.19v-.19c0-5.42.08-9.81.1-12.9,0-1.48,0-2.64.05-3.48l0-.89C208.74,172.87,208.75,172.77,208.75,172.78Z"/><path class="cls-6" d="M219.33,195.58a59.78,59.78,0,0,1,8-.26,59.68,59.68,0,0,1,8,.26,61.78,61.78,0,0,1-8,.26A61.88,61.88,0,0,1,219.33,195.58Z"/><path class="cls-6" d="M156.09,199.22a1.26,1.26,0,0,1-.71-.07,1.87,1.87,0,0,1-1.19-1.6c-.05-1.73-.07-4.2-.1-7.21v-.21h.21l14.06,0h2v.26c0,1.55,0,3.06,0,4.52,0,.72,0,1.44,0,2.14a3,3,0,0,1-.11,1.1,2,2,0,0,1-1.68,1.34c-.37,0-.65,0-1,0l-1.83,0-3.27,0-4.71-.08-1.28,0a1.18,1.18,0,0,1-.44-.05,2.19,2.19,0,0,1,.44-.05l1.28,0,4.71-.08,3.27,0h1.83c.3,0,.66,0,.93,0a1.53,1.53,0,0,0,1.27-1,2.76,2.76,0,0,0,.09-.94c0-.7,0-1.42,0-2.14,0-1.46,0-3,0-4.52l.26.26h-1.79l-14.06,0,.21-.21c0,2.94-.06,5.39-.08,7.2a1.71,1.71,0,0,0,1,1.49A4,4,0,0,0,156.09,199.22Z"/><path class="cls-6" d="M143.72,172.78a1.32,1.32,0,0,1,0,.33q0,.36,0,.93c0,.84,0,2,0,3.51,0,3.07.06,7.42.11,12.79l-.2-.19,36.19-.07c.23-.24-.31.31-.26.26h0v-4.57c0-1.51,0-3,0-4.47,0-2.94,0-5.78,0-8.5l.24.25L154,172.91l-7.52-.07-2,0-.53,0h-.19a5.27,5.27,0,0,1,.66,0l2,0,7.46-.07,26.09-.12h.25v.25c0,2.72,0,5.56,0,8.5v9h0l-.26.26-36.19-.07h-.19v-.19c.05-5.42.08-9.81.11-12.9,0-1.48,0-2.64,0-3.48,0-.36,0-.66,0-.89S143.72,172.77,143.72,172.78Z"/><path class="cls-6" d="M154.3,195.58a59.9,59.9,0,0,1,8-.26,59.68,59.68,0,0,1,8,.26,61.78,61.78,0,0,1-8,.26A62,62,0,0,1,154.3,195.58Z"/><rect class="cls-6" x="127.54" y="234.97" width="1" height="37.25"/><rect class="cls-6" x="256.6" y="234.67" width="1" height="39.6"/><rect class="cls-6" x="129.51" y="253.83" width="126.43" height="1"/><rect class="cls-6" x="191.49" y="234.09" width="1" height="40.48"/><path class="cls-6" d="M167.55,222.08a1.22,1.22,0,0,1,.71.08,1.84,1.84,0,0,1,1.19,1.59c0,1.74.07,4.2.09,7.22v.2h-.22l-14.06,0h-2V231c0-1.56,0-3.07,0-4.52v-2.14a3.37,3.37,0,0,1,.12-1.11,2.09,2.09,0,0,1,.66-.92,2,2,0,0,1,1-.41c.38,0,.66,0,1,0h1.82l3.28,0,4.71.08,1.28.05a1.53,1.53,0,0,1,.44.05,1.53,1.53,0,0,1-.44,0l-1.28.05-4.71.08-3.28,0H156c-.31,0-.66,0-.93,0a1.6,1.6,0,0,0-.78.33,1.56,1.56,0,0,0-.5.71,2.81,2.81,0,0,0-.08.95c0,.69,0,1.41,0,2.14,0,1.45,0,3,0,4.52l-.26-.26h1.78l14.06.05-.21.22c0-2.95.07-5.4.09-7.21a1.74,1.74,0,0,0-1-1.49A4,4,0,0,0,167.55,222.08Z"/><path class="cls-6" d="M179.91,248.52s0-.12,0-.33,0-.54,0-.92c0-.85,0-2-.05-3.52,0-3.06-.06-7.42-.1-12.78l.19.19-36.18.07c-.24.23.31-.32.25-.26h0v9c0,2.94,0,5.79,0,8.5l-.25-.24,25.93.11,7.52.07,2,0,.53,0h.19a5.08,5.08,0,0,1-.66,0l-2,0-7.46.07-26.1.12h-.24v-.25c0-2.71,0-5.56,0-8.5v-4.47c0-.75,0-1.51,0-2.28V231h0l.27-.27,36.18.07h.2v.2c0,5.41-.07,9.81-.1,12.9,0,1.47,0,2.64-.05,3.47,0,.37,0,.66,0,.89A.83.83,0,0,1,179.91,248.52Z"/><path class="cls-6" d="M169.33,225.73a61.78,61.78,0,0,1-8,.26,61.88,61.88,0,0,1-8-.26,59.78,59.78,0,0,1,8-.26A59.68,59.68,0,0,1,169.33,225.73Z"/><path class="cls-6" d="M232.58,222.08a1.19,1.19,0,0,1,.7.08,1.84,1.84,0,0,1,1.2,1.59c0,1.74.07,4.2.09,7.22v.2h-.21l-14.06,0h-2v-4.77c0-.73,0-1.45,0-2.14a3.37,3.37,0,0,1,.12-1.11,2.15,2.15,0,0,1,.65-.92,2.06,2.06,0,0,1,1-.41c.38,0,.66,0,1,0h1.83l3.27,0,4.72.08,1.27.05a1.66,1.66,0,0,1,.45.05,1.66,1.66,0,0,1-.45,0l-1.27.05-4.72.08-3.27,0H221c-.3,0-.66,0-.93,0a1.56,1.56,0,0,0-.77.33,1.49,1.49,0,0,0-.5.71,2.81,2.81,0,0,0-.08.95c0,.69,0,1.41,0,2.14,0,1.45,0,3,0,4.52l-.26-.26h1.78l14.06.05-.21.22c0-2.95.06-5.4.09-7.21a1.74,1.74,0,0,0-1-1.49A4.3,4.3,0,0,0,232.58,222.08Z"/><path class="cls-6" d="M244.94,248.52a2.22,2.22,0,0,1,0-.33l0-.92c0-.85,0-2-.05-3.52,0-3.06-.06-7.42-.1-12.78l.19.19-36.19.07L209,231h0v9c0,2.94,0,5.79,0,8.5l-.25-.24,25.93.11,7.52.07,2,0,.53,0h.19a5.27,5.27,0,0,1-.66,0l-2,0-7.47.07-26.09.12h-.24v-.25c0-2.71,0-5.56,0-8.5,0-1.46,0-3,0-4.47V231h0c-.06.05.5-.5.26-.27l36.19.07h.19v.2c0,5.41-.08,9.81-.1,12.9,0,1.47,0,2.64-.05,3.47l0,.89A1.38,1.38,0,0,1,244.94,248.52Z"/><path class="cls-6" d="M234.36,225.73a61.78,61.78,0,0,1-8,.26,61.88,61.88,0,0,1-8-.26,59.78,59.78,0,0,1,8-.26A59.68,59.68,0,0,1,234.36,225.73Z"/><path class="cls-6" d="M221.12,287.49a1.26,1.26,0,0,1-.71-.07,1.85,1.85,0,0,1-1.19-1.6c-.05-1.73-.07-4.2-.1-7.21v-.21h.21l14.06,0h2.05v.26c0,1.55,0,3.06,0,4.52,0,.72,0,1.44,0,2.14a3,3,0,0,1-.12,1.1,2,2,0,0,1-.65.92,2.08,2.08,0,0,1-1,.42c-.38,0-.66,0-1,0l-1.83,0-3.27,0-4.72-.08-1.27,0a1.18,1.18,0,0,1-.44-.05,2.19,2.19,0,0,1,.44-.05l1.27,0,4.72-.08,3.27,0h1.83c.3,0,.66,0,.93,0a1.53,1.53,0,0,0,1.27-1,2.54,2.54,0,0,0,.08-.94v-2.14c0-1.46,0-3,0-4.52l.26.26h-1.79l-14.06-.05.21-.21c0,2.94-.06,5.39-.08,7.2a1.71,1.71,0,0,0,1,1.49A3.69,3.69,0,0,0,221.12,287.49Z"/><path class="cls-6" d="M208.75,261.05a1.32,1.32,0,0,1,0,.33l0,.93c0,.84,0,2,.05,3.51,0,3.07.06,7.42.1,12.79l-.19-.19,36.19-.07-.26.26h0v-9c0-2.94,0-5.78,0-8.5l.25.25L219,261.18l-7.52-.07-2,0h-.53l-.19,0a5.27,5.27,0,0,1,.66,0l2,0,7.47-.07,26.09-.12h.25v.25c0,2.72,0,5.56,0,8.5v9h0l-.26.26-36.19-.07h-.19v-.19c0-5.41.08-9.81.1-12.9,0-1.48,0-2.64.05-3.48l0-.89C208.74,261.14,208.75,261,208.75,261.05Z"/><path class="cls-6" d="M219.33,283.85a59.78,59.78,0,0,1,8-.26,59.68,59.68,0,0,1,8,.26,61.78,61.78,0,0,1-8,.26A61.88,61.88,0,0,1,219.33,283.85Z"/><path class="cls-6" d="M156.09,287.49a1.26,1.26,0,0,1-.71-.07,1.87,1.87,0,0,1-1.19-1.6c-.05-1.73-.07-4.2-.1-7.21v-.21h.21l14.06,0h2v.26c0,1.55,0,3.06,0,4.52,0,.72,0,1.44,0,2.14a3,3,0,0,1-.11,1.1,2,2,0,0,1-1.68,1.34c-.37,0-.65,0-1,0l-1.83,0-3.27,0-4.71-.08-1.28,0a1.18,1.18,0,0,1-.44-.05,2.19,2.19,0,0,1,.44-.05l1.28,0,4.71-.08,3.27,0h1.83c.3,0,.66,0,.93,0a1.53,1.53,0,0,0,1.27-1,2.76,2.76,0,0,0,.09-.94c0-.7,0-1.42,0-2.14,0-1.46,0-3,0-4.52l.26.26h-1.79l-14.06-.05.21-.21c0,2.94-.06,5.39-.08,7.2a1.71,1.71,0,0,0,1,1.49A4,4,0,0,0,156.09,287.49Z"/><path class="cls-6" d="M143.72,261.05a1.32,1.32,0,0,1,0,.33q0,.36,0,.93c0,.84,0,2,0,3.51,0,3.07.06,7.42.11,12.79l-.2-.19,36.19-.07-.26.26h0V274c0-1.51,0-3,0-4.47,0-2.94,0-5.78,0-8.5l.24.25L154,261.18l-7.52-.07-2,0h-.53l-.19,0a5.27,5.27,0,0,1,.66,0l2,0,7.46-.07,26.09-.12h.25v.25c0,2.72,0,5.56,0,8.5v9h0l-.26.26-36.19-.07h-.19v-.19c.05-5.41.08-9.81.11-12.9,0-1.48,0-2.64,0-3.48,0-.36,0-.66,0-.89S143.72,261,143.72,261.05Z"/><path class="cls-6" d="M154.3,283.85a59.9,59.9,0,0,1,8-.26,59.68,59.68,0,0,1,8,.26,61.78,61.78,0,0,1-8,.26A62,62,0,0,1,154.3,283.85Z"/><g class="cls-7"><path d="M381.73,68.26V84.12a5,5,0,0,0,5,5h8.77V68.26Z"/></g><g class="cls-7"><path d="M87.42,69l.93,62.89h39.39a9.1,9.1,0,0,0,9.11-9.1V68.26Z"/></g><g class="cls-7"><path d="M88.17,247.92h13.4a5.74,5.74,0,0,0,5.74-5.74v-6.4H88.17Z"/></g></g><g id="Chronometer"><rect class="cls-6" x="522.35" y="64.06" width="4.62" height="7.21" transform="translate(71.04 339.84) rotate(-38.31)"/><path class="cls-8" d="M527.52,63.56l-7.46,5.9-4.82-6.1a18.27,18.27,0,0,1,7.46-5.89Z"/><path class="cls-6" d="M521.31,68.47a14.81,14.81,0,0,1-2.75-3,15,15,0,0,1-2.31-3.33,15,15,0,0,1,2.74,3A15.36,15.36,0,0,1,521.31,68.47Z"/><path class="cls-6" d="M522.73,67.35A16.18,16.18,0,0,1,520,64.2a21.31,21.31,0,0,1-2.32-3.43c.15-.13,1.39,1.27,2.76,3.1A15.72,15.72,0,0,1,522.73,67.35Z"/><path class="cls-6" d="M524.62,65.85a16.72,16.72,0,0,1-2.72-3.19,19.18,19.18,0,0,1-2.31-3.5c.14-.11,1.38,1.32,2.76,3.17A15.93,15.93,0,0,1,524.62,65.85Z"/><path class="cls-6" d="M526.35,64.45a15.16,15.16,0,0,1-2.72-3,15,15,0,0,1-2.29-3.36,14.92,14.92,0,0,1,2.72,3A14.91,14.91,0,0,1,526.35,64.45Z"/><rect class="cls-6" x="579.52" y="67.21" width="4.62" height="7.21" transform="translate(250.87 -412.94) rotate(48.68)"/><path class="cls-8" d="M586.08,73.45,579.8,66.3l5.84-5.13a18.21,18.21,0,0,1,6.28,7.15Z"/><path class="cls-6" d="M580.85,67.5a15,15,0,0,1,2.84-2.9,15.38,15.38,0,0,1,3.21-2.48,15.34,15.34,0,0,1-2.84,2.9A15.38,15.38,0,0,1,580.85,67.5Z"/><path class="cls-6" d="M582.05,68.86a15.83,15.83,0,0,1,3-2.87,21.3,21.3,0,0,1,3.31-2.5c.14.14-1.2,1.46-3,2.93A15.43,15.43,0,0,1,582.05,68.86Z"/><path class="cls-6" d="M583.64,70.67a16.62,16.62,0,0,1,3.05-2.88,19.32,19.32,0,0,1,3.37-2.49c.12.13-1.24,1.44-3,2.92A15.9,15.9,0,0,1,583.64,70.67Z"/><path class="cls-6" d="M585.14,72.32A15.08,15.08,0,0,1,588,69.45,14.73,14.73,0,0,1,591.25,67a14.72,14.72,0,0,1-2.87,2.87A14.73,14.73,0,0,1,585.14,72.32Z"/><rect class="cls-6" x="551.67" y="52.89" width="5.47" height="8.53" transform="translate(2.86 -23) rotate(2.38)"/><path class="cls-9" d="M560.13,55.68l-11.25-.47.38-9.19a21.51,21.51,0,0,1,11.25.47Z"/><path class="cls-6" d="M560.64,46.54a12.24,12.24,0,0,1-11.44-.42c.07-.17,2.48,1,5.69,1.08A28.26,28.26,0,0,0,560.64,46.54Z"/><path class="cls-6" d="M552.6,55.34a14.49,14.49,0,0,1-.11-4,14,14,0,0,1,.44-3.93,14.53,14.53,0,0,1,.11,3.95A14.36,14.36,0,0,1,552.6,55.34Z"/><path class="cls-6" d="M554.74,55.48a13.7,13.7,0,0,1-.11-4,14,14,0,0,1,.44-3.94,14.64,14.64,0,0,1,.11,4A14.47,14.47,0,0,1,554.74,55.48Z"/><path class="cls-6" d="M556.88,55.54a14.68,14.68,0,0,1-.11-4,14.59,14.59,0,0,1,.44-4,14.68,14.68,0,0,1,.11,4A14.59,14.59,0,0,1,556.88,55.54Z"/><path class="cls-6" d="M558.66,55.61a17.41,17.41,0,0,1-.1-4.29,16.79,16.79,0,0,1,.46-4.26,17.06,17.06,0,0,1,.09,4.29A16.54,16.54,0,0,1,558.66,55.61Z"/><path class="cls-6" d="M550.58,55.22a16.32,16.32,0,0,1-.1-4.29,17.09,17.09,0,0,1,.45-4.26A16.7,16.7,0,0,1,551,51,17.12,17.12,0,0,1,550.58,55.22Z"/><path class="cls-9" d="M591.75,100.15a39.77,39.77,0,1,1-38.08-41.39A39.76,39.76,0,0,1,591.75,100.15Z"/><circle class="cls-1" cx="552.03" cy="98.18" r="33.4" transform="translate(231.95 558.53) rotate(-65.27)"/><path class="cls-6" d="M585.4,99.57s0-.19,0-.54,0-.91,0-1.59c0-.35,0-.74,0-1.17s-.11-.9-.16-1.4a23.37,23.37,0,0,0-.56-3.47,31.69,31.69,0,0,0-3.33-9A33.34,33.34,0,0,0,559.5,65.88a28.32,28.32,0,0,0-4.17-.66c-.71-.06-1.43-.16-2.15-.17l-2.2,0c-.37,0-.74,0-1.11,0l-1.11.13c-.75.09-1.5.15-2.25.27A36,36,0,0,0,542,66.6a35.3,35.3,0,0,0-4.39,1.72c-.72.35-1.41.77-2.12,1.15a16.35,16.35,0,0,0-2,1.29,37.4,37.4,0,0,0-3.89,3,36.28,36.28,0,0,0-3.4,3.7,32,32,0,0,0-5.11,8.92,32.79,32.79,0,0,0-.88,20.89,32,32,0,0,0,4.36,9.32,37.65,37.65,0,0,0,3.08,4,38,38,0,0,0,3.62,3.35,18.22,18.22,0,0,0,1.94,1.46c.68.44,1.33.91,2,1.32a35.27,35.27,0,0,0,4.24,2.07,34.13,34.13,0,0,0,4.37,1.49c.73.18,1.48.3,2.21.45l1.1.22c.36.06.74.07,1.1.12l2.19.2c.72,0,1.45,0,2.16,0a30.55,30.55,0,0,0,4.21-.31,33.32,33.32,0,0,0,23.06-14.66,32,32,0,0,0,4.07-8.69,23.67,23.67,0,0,0,.84-3.41c.1-.5.21-1,.27-1.38s.09-.82.12-1.17c.08-.67.13-1.2.18-1.57s.07-.54.07-.54a4.38,4.38,0,0,1,0,.54q0,.57-.12,1.59,0,.52-.09,1.17c-.06.42-.16.89-.25,1.39a23.41,23.41,0,0,1-.8,3.44,31.61,31.61,0,0,1-4,8.8,33.66,33.66,0,0,1-23.25,14.94,30,30,0,0,1-4.27.33c-.72,0-1.46,0-2.19,0l-2.22-.2c-.38,0-.75-.06-1.12-.12l-1.12-.22c-.74-.15-1.5-.27-2.25-.45a35,35,0,0,1-4.43-1.5,34.24,34.24,0,0,1-4.31-2.1c-.69-.41-1.36-.89-2-1.33a18.88,18.88,0,0,1-2-1.48,38,38,0,0,1-3.68-3.4,37.59,37.59,0,0,1-3.14-4,32.49,32.49,0,0,1-4.43-9.47,33.28,33.28,0,0,1,.88-21.23,33,33,0,0,1,5.2-9.07,37.49,37.49,0,0,1,3.47-3.75,38.19,38.19,0,0,1,3.95-3.08A15.84,15.84,0,0,1,535.27,69c.72-.39,1.42-.81,2.15-1.16a35,35,0,0,1,4.47-1.74A35.37,35.37,0,0,1,546.43,65c.76-.12,1.53-.18,2.28-.27l1.13-.12c.37,0,.75,0,1.12,0h2.23c.74,0,1.47.12,2.19.18a30.83,30.83,0,0,1,4.23.68,33.57,33.57,0,0,1,21.92,16.83,31.4,31.4,0,0,1,3.27,9.09,23.45,23.45,0,0,1,.51,3.5c.05.51.11,1,.13,1.41v1.17c0,.69,0,1.22,0,1.6S585.4,99.57,585.4,99.57Z"/><path class="cls-6" d="M580.55,98.84c-3-.08-5.51-.32-5.51-.55s2.47-.45,5.52-.51,5.51.2,5.51.56S583.6,98.92,580.55,98.84Z"/><path class="cls-6" d="M571.84,118.71c-2.11-2.2-3.69-4.12-3.53-4.28s2.08,1.42,4.28,3.53,3.78,4,3.53,4.27S574,120.9,571.84,118.71Z"/><path class="cls-6" d="M551.68,126.7c.05-3,.27-5.51.49-5.51s.48,2.46.57,5.51-.14,5.52-.49,5.52S551.63,129.75,551.68,126.7Z"/><path class="cls-6" d="M531.72,118.21c2.18-2.13,4.07-3.73,4.24-3.57s-1.4,2.09-3.48,4.31-4,3.83-4.23,3.58S529.55,120.35,531.72,118.21Z"/><path class="cls-6" d="M523.5,98.14c3,0,5.52.21,5.52.44s-2.46.5-5.5.62-5.52-.07-5.53-.43S520.46,98.13,523.5,98.14Z"/><path class="cls-6" d="M531.77,78.09c2.16,2.15,3.78,4,3.62,4.2s-2.1-1.38-4.35-3.43-3.87-3.94-3.62-4.2S529.62,75.94,531.77,78.09Z"/><path class="cls-6" d="M551.75,69.65c0,3-.15,5.52-.37,5.53s-.54-2.46-.69-5.5,0-5.52.38-5.53S551.73,66.6,551.75,69.65Z"/><path class="cls-6" d="M571.89,77.7c-2.13,2.18-4,3.82-4.15,3.67s1.35-2.12,3.38-4.39,3.89-3.92,4.15-3.67S574,75.52,571.89,77.7Z"/><path class="cls-2" d="M562.07,80.83A115.73,115.73,0,0,1,561,95.48a18,18,0,0,1-1.27,5.14,6.87,6.87,0,0,1-3.64,3.7,4.3,4.3,0,0,1-4.83-1.16Z"/><polygon class="cls-9" points="551.41 95.52 564.39 75.6 556.11 98.35 552.33 99.31 551.41 95.52"/><g class="cls-10"><polygon points="564.39 75.6 554.53 96.09 556.11 98.35 564.39 75.6"/></g><path class="cls-11" d="M556.23,99.47a3.91,3.91,0,1,1-3.74-4.06A3.91,3.91,0,0,1,556.23,99.47Z"/><path class="cls-6" d="M556.23,99.47c-.05,0,0-.34-.19-.93a3.81,3.81,0,0,0-1.35-2.08,3.67,3.67,0,1,0-3.75,6.23,3.73,3.73,0,0,0,3.51-.34,4,4,0,0,0,1.52-2c.19-.57.21-.92.26-.92a1.91,1.91,0,0,1-.06,1,3.86,3.86,0,0,1-1.5,2.22,4.09,4.09,0,0,1-3.92.49,4.15,4.15,0,0,1,.32-7.81,4.07,4.07,0,0,1,3.87.81,3.86,3.86,0,0,1,1.31,2.33A1.85,1.85,0,0,1,556.23,99.47Z"/><path class="cls-8" d="M555.23,99.43a2.91,2.91,0,1,1-2.78-3A2.91,2.91,0,0,1,555.23,99.43Z"/></g><g id="User_Icons" data-name="User Icons"><g class="cls-7"><circle cx="231.77" cy="199.22" r="17.86" transform="translate(-15.05 379.47) rotate(-76.82)"/></g><circle class="cls-8" cx="231.77" cy="195.92" r="17.86" transform="translate(-70.65 221.27) rotate(-45)"/><path class="cls-1" d="M233.52,195a4.92,4.92,0,0,0,2.94-4.56,4.64,4.64,0,1,0-9.26,0,4.92,4.92,0,0,0,3,4.6c-7.12,1.08-6.8,8.81-6.8,8.81l16.84.08S240.57,196.06,233.52,195Z"/><g class="cls-7"><circle cx="153.54" cy="238.04" r="17.86" transform="translate(-78.24 75.21) rotate(-22.09)"/></g><circle class="cls-9" cx="153.27" cy="234.8" r="17.86" transform="translate(-121.14 177.15) rotate(-45)"/><path class="cls-1" d="M155,233.87a4.93,4.93,0,0,0,2.94-4.56,4.64,4.64,0,1,0-9.25,0,4.92,4.92,0,0,0,3,4.6c-7.12,1.08-6.8,8.81-6.8,8.81l16.84.08S162.07,234.94,155,233.87Z"/><g class="cls-7"><circle cx="354.95" cy="185.59" r="17.86" transform="translate(-27.27 305.34) rotate(-45)"/></g><circle class="cls-9" cx="354.33" cy="182.08" r="17.86" transform="translate(95.17 484.62) rotate(-76.61)"/><path class="cls-1" d="M356.07,181.15a4.92,4.92,0,0,0,2.94-4.56,4.63,4.63,0,1,0-9.25-.05,4.93,4.93,0,0,0,2.95,4.61c-7.12,1.07-6.8,8.81-6.8,8.81l16.84.08S363.13,182.22,356.07,181.15Z"/><g class="cls-7"><circle cx="342.86" cy="108.1" r="17.86" transform="translate(162.62 419.16) rotate(-77.41)"/></g><circle class="cls-8" cx="342.86" cy="105.86" r="17.86" transform="translate(164.81 417.4) rotate(-77.41)"/><path class="cls-1" d="M344.61,104.93a4.93,4.93,0,0,0,2.94-4.56,4.64,4.64,0,1,0-9.26,0,4.92,4.92,0,0,0,2.95,4.6c-7.12,1.08-6.8,8.81-6.8,8.81l16.84.08S351.66,106,344.61,104.93Z"/></g><g id="Calendar"><path class="cls-1" d="M121.67,20.31H39.07a7.78,7.78,0,0,0-7.68,7.88v84.75a7.78,7.78,0,0,0,7.68,7.88h82.6a7.78,7.78,0,0,0,7.68-7.88V28.19A7.78,7.78,0,0,0,121.67,20.31Z"/><path class="cls-9" d="M31.49,20.31h97.75a.1.1,0,0,1,.1.1V46.36A5.68,5.68,0,0,1,123.66,52H37.31a5.92,5.92,0,0,1-5.92-5.92V20.41A.1.1,0,0,1,31.49,20.31Z" transform="translate(160.74 72.35) rotate(180)"/><path class="cls-6" d="M73.89,65V99a.11.11,0,0,1-.11.11H66.29a.11.11,0,0,1-.11-.11V71.38a.11.11,0,0,0-.1-.11H59.63a.11.11,0,0,1-.11-.11V65a.11.11,0,0,1,.11-.11H73.78A.11.11,0,0,1,73.89,65Z"/><path class="cls-6" d="M105.76,65v5a.06.06,0,0,1,0,0L93.42,99a.1.1,0,0,1-.1.06H85.18a.11.11,0,0,1-.09-.15L96.9,71.52a.11.11,0,0,0-.1-.15H86a.11.11,0,0,0-.11.11v5.34a.1.1,0,0,1-.1.11H79.18a.11.11,0,0,1-.11-.11V65a.11.11,0,0,1,.11-.11h26.48A.11.11,0,0,1,105.76,65Z"/><path class="cls-6" d="M66.69,38.31c0,.18,6.73.32,15,.32s15-.14,15-.32S90,38,81.72,38,66.69,38.13,66.69,38.31Z"/><path class="cls-6" d="M121.77,20.31a7.06,7.06,0,0,1,3.71.93,7.72,7.72,0,0,1,3.19,3.45,7.92,7.92,0,0,1,.75,3c.05,1.1,0,2.26,0,3.49,0,9.85.05,24.07.09,41.65,0,8.8,0,18.43,0,28.76,0,2.59,0,5.22,0,7.89,0,1.34,0,2.67,0,4a8.17,8.17,0,0,1-1.27,4,8,8,0,0,1-3.11,2.79,8.31,8.31,0,0,1-4.1.81h-8.39L39,121.1a7.92,7.92,0,0,1-7.54-5.79,8.69,8.69,0,0,1-.31-2.53V86.09c0-12.65,0-24.86,0-36.48q0-8.73,0-17v-4.1a10.9,10.9,0,0,1,.16-2.05v0a8.08,8.08,0,0,1,3.26-5,7.82,7.82,0,0,1,3.66-1.33c10.12-.07,19.47,0,28.05,0l40.59.09,11,.05,2.87,0,1,0-1,0-2.87,0-11,.06L66.3,20.5c-8.56,0-18,0-28,.07a7.25,7.25,0,0,0-3.44,1.27,7.5,7.5,0,0,0-2.45,2.87,7.74,7.74,0,0,0-.62,1.83h0a10.59,10.59,0,0,0-.15,2c0,1.36,0,2.73,0,4.1q0,8.27,0,17c0,11.62,0,23.83,0,36.48q0,9.5,0,19.3v4.92a19,19,0,0,0,.3,4.85,7.38,7.38,0,0,0,7,5.39l73.71,0h8.39a7.78,7.78,0,0,0,3.89-.76,7.48,7.48,0,0,0,2.93-2.62,7.76,7.76,0,0,0,1.2-3.73c0-1.32,0-2.69,0-4q0-4,0-7.89c0-10.33,0-20,0-28.76,0-17.58.06-31.8.08-41.65,0-1.23,0-2.4,0-3.48a7.88,7.88,0,0,0-.71-2.91,7.66,7.66,0,0,0-3.1-3.42,7.15,7.15,0,0,0-2.68-.93,5.06,5.06,0,0,0-.73-.07Z"/><path class="cls-2" d="M65.86,33.16h0a3.24,3.24,0,0,0,3.19-3.27V13.73a3.23,3.23,0,0,0-3.19-3.27h0a3.23,3.23,0,0,0-3.19,3.27V29.89A3.24,3.24,0,0,0,65.86,33.16Z"/><path class="cls-6" d="M65.75,33.16a3.86,3.86,0,0,1-1.81-.77,3,3,0,0,1-1.06-2c-.05-.91,0-2,0-3.22,0-2.43,0-5.28.07-8.43,0-1.59,0-3.25,0-5a2.92,2.92,0,0,1,.81-2.16A2.78,2.78,0,0,1,66,10.78a2.73,2.73,0,0,1,2.1,1A3.05,3.05,0,0,1,68.74,14c0,1.72,0,3.39,0,5,0,3.14,0,6,.06,8.43q0,.9,0,1.71a10.1,10.1,0,0,1,0,1.49,3.09,3.09,0,0,1-1.2,1.91,4,4,0,0,1-1.86.64,1.38,1.38,0,0,0,.53.05,3.14,3.14,0,0,0,1.47-.48,3.31,3.31,0,0,0,1.4-2,8,8,0,0,0,.1-1.56c0-.54,0-1.11,0-1.71,0-2.44,0-5.29.06-8.43,0-1.59,0-3.26,0-5a3.66,3.66,0,0,0-.82-2.66,3.56,3.56,0,0,0-5.19-.17,3.59,3.59,0,0,0-1,2.61c0,1.73,0,3.39,0,5,0,3.15,0,6,.07,8.43,0,1.21,0,2.27.08,3.26a3.28,3.28,0,0,0,1.26,2.14,2.88,2.88,0,0,0,1.43.58A1.08,1.08,0,0,0,65.75,33.16Z"/><path class="cls-2" d="M95.76,33.16h0A3.24,3.24,0,0,0,99,29.89V13.73a3.23,3.23,0,0,0-3.19-3.27h0a3.23,3.23,0,0,0-3.19,3.27V29.89A3.24,3.24,0,0,0,95.76,33.16Z"/><path class="cls-6" d="M95.66,33.16a3.87,3.87,0,0,1-1.82-.77,3,3,0,0,1-1.06-2c0-.91,0-2,0-3.22,0-2.43,0-5.28.06-8.43,0-1.59,0-3.25,0-5a3,3,0,0,1,.81-2.16,2.79,2.79,0,0,1,2.18-.84,2.72,2.72,0,0,1,2.09,1A3.05,3.05,0,0,1,98.64,14c0,1.72,0,3.39,0,5,0,3.14,0,6,.07,8.43,0,.6,0,1.17,0,1.71a7.94,7.94,0,0,1,0,1.49,3.12,3.12,0,0,1-1.19,1.91,4.11,4.11,0,0,1-1.86.64,1.33,1.33,0,0,0,.53.05,3.11,3.11,0,0,0,1.46-.48,3.36,3.36,0,0,0,1.41-2,8.85,8.85,0,0,0,.09-1.56c0-.54,0-1.11,0-1.71,0-2.44,0-5.29.07-8.43,0-1.59,0-3.26,0-5a3.72,3.72,0,0,0-.83-2.66,3.55,3.55,0,0,0-5.18-.17,3.59,3.59,0,0,0-1,2.61c0,1.73,0,3.39,0,5,0,3.15,0,6,.06,8.43,0,1.21,0,2.27.08,3.26a3.28,3.28,0,0,0,1.27,2.14,2.85,2.85,0,0,0,1.42.58A1.14,1.14,0,0,0,95.66,33.16Z"/><path class="cls-6" d="M89.58,53.84h.52c.35,0,.87,0,1.54,0a21.79,21.79,0,0,1,5.78,1.29,23.36,23.36,0,0,1,7.84,5.07,22.76,22.76,0,0,1,3.65,4.59,21.4,21.4,0,0,1,2.55,6,24.26,24.26,0,0,1-1.32,14.84,32.42,32.42,0,0,1-10.57,13.5A37.23,37.23,0,0,1,82,106.25,35.85,35.85,0,0,1,61.93,103a28.9,28.9,0,0,1-8.41-6.14,23.81,23.81,0,0,1-5.22-8.65,21.06,21.06,0,0,1-1-9.7,22.06,22.06,0,0,1,3.36-8.73A35.7,35.7,0,0,1,63.36,58.25a43.57,43.57,0,0,1,26.57-5.09A40.09,40.09,0,0,1,99,55.35c.6.23,1.19.4,1.7.64l1.46.67,1.24.57,1,.56,1.33.76.45.28s-.17-.07-.48-.23l-1.35-.72-1-.53-1.25-.55-1.46-.64c-.51-.23-1.1-.4-1.7-.62a40,40,0,0,0-9.06-2.09,43.22,43.22,0,0,0-12.3.27,43.72,43.72,0,0,0-14,4.9,35.56,35.56,0,0,0-12.5,11.45,21.62,21.62,0,0,0-3.26,8.55,20.49,20.49,0,0,0,1,9.47,23.48,23.48,0,0,0,5.12,8.46,28.39,28.39,0,0,0,8.26,6,35.31,35.31,0,0,0,19.76,3.17A36.83,36.83,0,0,0,99.29,98.8a32.15,32.15,0,0,0,10.45-13.29,24,24,0,0,0,1.37-14.58,22.54,22.54,0,0,0-6.06-10.52,23.23,23.23,0,0,0-7.71-5.09A21.87,21.87,0,0,0,91.63,54l-1.53-.07A4.29,4.29,0,0,1,89.58,53.84Z"/></g><g id="Screens"><path class="cls-1" d="M6.13,241h97.51c2.62,0,4.74-1.74,4.74-3.89V191.58c0-2.15-2.12-3.89-4.74-3.89H6.13c-2.62,0-4.74,1.74-4.74,3.89v45.49C1.39,239.22,3.51,241,6.13,241Z"/><path class="cls-6" d="M6.13,241a3.31,3.31,0,0,1-.81,0,5.2,5.2,0,0,1-2.23-.81,3.75,3.75,0,0,1-1.78-3.29c0-1.53,0-3.29,0-5.27,0-7.94-.05-19.4-.09-33.56v-5.44a13.6,13.6,0,0,1,0-1.42,3.57,3.57,0,0,1,.5-1.4A4.64,4.64,0,0,1,4,187.89a7.11,7.11,0,0,1,3-.4h9.13l26.6,0,60.94,0a5.53,5.53,0,0,1,3.86,1.5,4.05,4.05,0,0,1,1.06,1.85,11.23,11.23,0,0,1,.09,2.06v23.5q0,7.65,0,15v5.48a3.87,3.87,0,0,1-.4,1.85,4.72,4.72,0,0,1-2.88,2.27,6,6,0,0,1-1.82.25h-1.76l-49.78,0-33.56-.09-9.12,0-2.37,0-.81,0,.81,0,2.37,0,9.12,0L52,240.78l49.78-.06a12.24,12.24,0,0,0,3.44-.23,4.29,4.29,0,0,0,2.59-2,3.34,3.34,0,0,0,.33-1.63V216.34q0-7.64,0-15.55v-7.95a11.11,11.11,0,0,0-.08-1.94,3.45,3.45,0,0,0-.92-1.6,5,5,0,0,0-3.49-1.35l-60.94,0-26.6,0H7a6.68,6.68,0,0,0-2.8.36A4.19,4.19,0,0,0,2.06,190a3.09,3.09,0,0,0-.45,1.24c-.05.43,0,.92,0,1.37,0,1.86,0,3.67,0,5.44,0,14.16-.06,25.62-.08,33.56,0,2,0,3.74,0,5.27A3.64,3.64,0,0,0,3.15,240a5.51,5.51,0,0,0,2.18.84C5.85,241,6.13,240.94,6.13,241Z"/><path class="cls-6" d="M137.56,223.19a6.85,6.85,0,0,1-1-.84l-2.52-2.42-3.7-3.63a7.07,7.07,0,0,0-2.5-1.54,8.35,8.35,0,0,0-3.16-.4c-4.51,0-8.59,0-11.54-.07l-3.5-.09a5.77,5.77,0,0,1-1.28-.1,6.66,6.66,0,0,1,1.28-.1l3.5-.08c3,0,7-.08,11.54-.08a8.89,8.89,0,0,1,3.33.44,7.48,7.48,0,0,1,2.66,1.67l3.63,3.72,2.41,2.54A5.77,5.77,0,0,1,137.56,223.19Z"/><path class="cls-6" d="M140.51,224.73a1.91,1.91,0,1,1-1.91-1.91A1.92,1.92,0,0,1,140.51,224.73Z"/><rect class="cls-2" x="57.62" y="201.49" width="37.73" height="4.79" rx="1.44" transform="translate(152.98 407.77) rotate(180)"/><rect class="cls-2" x="57.62" y="210.95" width="37.73" height="4.79" rx="1.44" transform="translate(152.98 426.7) rotate(180)"/><path class="cls-6" d="M69,228.51a3.87,3.87,0,1,1-3.1-4.51A3.87,3.87,0,0,1,69,228.51Z"/><path class="cls-9" d="M80.35,227.61a3.87,3.87,0,1,1-3.86-3.87A3.86,3.86,0,0,1,80.35,227.61Z"/><path class="cls-8" d="M91.58,227.61a3.87,3.87,0,1,1-3.87-3.87A3.86,3.86,0,0,1,91.58,227.61Z"/><path class="cls-6" d="M16.94,225.23a.5.5,0,0,1-.45-.27.53.53,0,0,1,.05-.53l1.8-2.37a5.85,5.85,0,0,0,1.19-3.62l-.1-6.11a9,9,0,0,1,7-8.94l0-1.46a1.49,1.49,0,0,1,1.47-1.52h.3a1.54,1.54,0,0,1,1.07.42,1.52,1.52,0,0,1,.46,1.06l0,1.36A9,9,0,0,1,37.5,212l.1,6.35a5.83,5.83,0,0,0,1.49,3.8L40.74,224a.5.5,0,0,1-.37.83L17,225.23ZM28.2,201.4h-.31a.49.49,0,0,0-.49.5l0,1.88a.51.51,0,0,1-.41.5,8,8,0,0,0-6.59,8l.1,6.11a6.86,6.86,0,0,1-1.39,4.23L18,224.22l21.3-.35-.91-1h0a6.87,6.87,0,0,1-1.75-4.45l-.1-6.36a8,8,0,0,0-7.32-7.87.51.51,0,0,1-.46-.49l0-1.8A.51.51,0,0,0,28.2,201.4Z"/><g class="cls-4"><path class="cls-1" d="M24.5,199.47h.07Z"/></g><path class="cls-6" d="M28.41,228.88a4.17,4.17,0,0,1-2.51-.77,4.61,4.61,0,0,1-1.59-3,.5.5,0,0,1,1-.15,3.68,3.68,0,0,0,1.2,2.4,3.26,3.26,0,0,0,1.92.56,3.51,3.51,0,0,0,2.23-.73,2.67,2.67,0,0,0,1-2.35.5.5,0,0,1,1-.13,3.7,3.7,0,0,1-1.32,3.26,4.62,4.62,0,0,1-2.86.95Z"/><path class="cls-6" d="M26.23,204.47a.51.51,0,0,1-.48-.35.51.51,0,0,1,.33-.63,8.74,8.74,0,0,1,4.17-.16.5.5,0,0,1-.21,1,7.9,7.9,0,0,0-3.66.14A.4.4,0,0,1,26.23,204.47Z"/><path class="cls-6" d="M415.43,55.81l-.25,0-.75,0-2.85,0L401.07,56l-34.65.08h-5a45.1,45.1,0,0,0-4.83.13,15.41,15.41,0,0,0-8.14,3.64A15.89,15.89,0,0,0,345.65,63a15.67,15.67,0,0,0-1.75,3.56,19.57,19.57,0,0,0-.85,7.1c0,4.4-.07,8-.09,10.5,0,1.21,0,2.16,0,2.85,0,.31,0,.55,0,.75a.87.87,0,0,1,0,.25.72.72,0,0,1,0-.25c0-.2,0-.44,0-.75,0-.69,0-1.64-.05-2.85,0-2.52-.05-6.1-.08-10.5a20,20,0,0,1,.81-7.23,16.18,16.18,0,0,1,1.78-3.68,15.93,15.93,0,0,1,11.25-7,41.91,41.91,0,0,1,4.89-.15h5l34.65.08,10.51.08,2.85,0,.75,0A.87.87,0,0,1,415.43,55.81Z"/><rect class="cls-1" x="386.94" y="32.82" width="110.53" height="50.31" rx="3.96"/><path class="cls-6" d="M493.51,83.13s.27,0,.8-.11a3.92,3.92,0,0,0,2.89-2.63,6.25,6.25,0,0,0,.19-2.08c0-1.54,0-3.3,0-5.29,0-8-.05-19.51-.08-33.74,0-.89,0-1.81,0-2.7a3.66,3.66,0,0,0-1-2.37A3.79,3.79,0,0,0,493.9,33c-.91,0-1.9,0-2.87,0H478.92l-26.75,0-61.27,0a3.71,3.71,0,0,0-3.16,1.79,3.54,3.54,0,0,0-.54,1.79v2c0,2.69,0,5.35,0,8V62.29q0,7.7,0,15.09v1.84a3.67,3.67,0,0,0,.41,1.66,3.74,3.74,0,0,0,2.65,2,12.61,12.61,0,0,0,1.76.06h5.34l50,.06,33.74.08,9.17,0,2.38,0,.82,0-.82,0-2.38,0-9.17,0-33.74.09-50,.05H392a12.94,12.94,0,0,1-1.85-.06,4.23,4.23,0,0,1-3-2.21,4.18,4.18,0,0,1-.47-1.87V77.38q0-7.39,0-15.09V36.64a4.19,4.19,0,0,1,.61-2,4.24,4.24,0,0,1,3.61-2l61.27,0,26.75,0H491c1,0,1.92,0,2.91,0a4.19,4.19,0,0,1,2.59,1.3,4.05,4.05,0,0,1,1.11,2.61c0,.93,0,1.82,0,2.72,0,14.23-.07,25.75-.09,33.74,0,2,0,3.75,0,5.29a6.27,6.27,0,0,1-.21,2.12,4.17,4.17,0,0,1-.93,1.51,3.89,3.89,0,0,1-2.08,1.13A2.76,2.76,0,0,1,493.51,83.13Z"/><path class="cls-6" d="M408.43,70.84A11.85,11.85,0,1,1,420.28,59,11.87,11.87,0,0,1,408.43,70.84Zm0-22.7A10.85,10.85,0,1,0,419.28,59,10.87,10.87,0,0,0,408.43,48.14Z"/><path class="cls-6" d="M414.91,60.23h-7.07a.51.51,0,0,1-.5-.5v-7.4a.5.5,0,0,1,.5-.5.5.5,0,0,1,.5.5v6.9h6.57a.5.5,0,0,1,.5.5A.51.51,0,0,1,414.91,60.23Z"/><rect class="cls-2" x="425.89" y="49.09" width="57.48" height="6.48" rx="1.98"/><rect class="cls-2" x="426.45" y="60.65" width="25.94" height="6.48" rx="1.98"/><path class="cls-6" d="M464.69,63.89a4.17,4.17,0,1,1-4.16-4.16A4.16,4.16,0,0,1,464.69,63.89Z"/><path class="cls-9" d="M476.39,63.89a4.17,4.17,0,1,1-4.16-4.16A4.16,4.16,0,0,1,476.39,63.89Z"/></g><g id="Books"><rect class="cls-9" x="162.67" y="421.35" width="154.57" height="21.44"/><rect class="cls-5" x="162.67" y="424.03" width="152.05" height="16"/><g class="cls-7"><rect x="287.21" y="421.35" width="30.03" height="21.44"/></g><path class="cls-6" d="M314.72,427.53h-1.55l-4.43,0-16.31,0-53.81,0-53.82,0-16.31,0-4.43,0h-1.55l.39,0h1.16l4.43,0,16.31,0,53.82,0,53.81,0,16.31,0,4.43,0h1.16Z"/><path class="cls-6" d="M314.72,431.8h-.39l-1.16,0-4.43,0-16.31,0-53.81,0-53.82,0-16.31,0-4.43,0-1.16,0h1.16l4.43,0,16.31,0,53.82,0,53.81,0,16.31,0,4.43,0h1.55Z"/><path class="cls-6" d="M287.29,442.43c-.05,0-.09-4.66-.09-10.42s0-10.42.09-10.42.1,4.66.1,10.42S287.35,442.43,287.29,442.43Z"/><rect class="cls-8" x="188.22" y="401.51" width="106.89" height="19.84"/><rect class="cls-8" x="275.34" y="401.63" width="29.09" height="19.61"/><rect class="cls-5" x="278.07" y="404.31" width="26.35" height="14.09"/><g class="cls-7"><rect x="275.34" y="401.63" width="29.09" height="19.61"/></g><path class="cls-6" d="M267.52,417s0-.19,0-.55,0-.89,0-1.59c0-1.41,0-3.47,0-6.16l0,.05-72.73.07h0l.09-.12V417l-.09-.11,51.64,0,15.44,0h4.21l-4.16,0-15.42,0-51.71.05h-.1v-8.52h.1l72.73.07h0v0c0,2.7,0,4.78,0,6.18,0,.7,0,1.23,0,1.59Z"/><path class="cls-6" d="M275.37,421.22c-.05,0-.1-4.45-.1-9.93s.05-9.93.1-9.93.1,4.45.1,9.93S275.43,421.22,275.37,421.22Z"/><rect class="cls-9" x="181.64" y="378.36" width="106.89" height="15.52"/><path class="cls-6" d="M264.93,390.82s0-.06,0-.18,0-.29,0-.49c0-.45,0-1.07,0-1.84,0-1.58,0-3.78-.05-6.37l.09.11h-5.06l.1-.11h0v2.44c0,.8,0,1.58,0,2.32,0,1.5,0,2.88,0,4.1l-.08-.09,3.67,0,1,0,.37,0a2,2,0,0,1-.34,0l-1,0-3.71.05h-.07v-.09c0-1.22,0-2.6,0-4.1V382h0c-.09.1.11-.14.09-.12H265v.1c0,2.61,0,4.84,0,6.44,0,.76,0,1.37,0,1.81,0,.19,0,.35,0,.48S264.94,390.83,264.93,390.82Z"/><rect class="cls-1" x="272.05" y="380.79" width="16.49" height="10.5"/><g class="cls-7"><rect x="269.88" y="378.36" width="18.66" height="15.52"/></g><path class="cls-6" d="M269.79,393.79c-.05,0-.09-3.42-.09-7.65s0-7.65.09-7.65.1,3.42.1,7.65S269.85,393.79,269.79,393.79Z"/><path class="cls-6" d="M288.66,383.27c0,.07-3.75.12-8.37.12s-8.37-.05-8.37-.12,3.75-.11,8.37-.11S288.66,383.21,288.66,383.27Z"/><path class="cls-6" d="M288.66,386c0,.06-3.75.11-8.37.11s-8.37,0-8.37-.11,3.75-.11,8.37-.11S288.66,386,288.66,386Z"/><path class="cls-6" d="M288.66,388.84c0,.06-3.75.11-8.37.11s-8.37-.05-8.37-.11,3.75-.11,8.37-.11S288.66,388.78,288.66,388.84Z"/><rect class="cls-9" x="199.98" y="393.88" width="106.89" height="7.66"/><rect class="cls-2" x="282.98" y="394.84" width="23.9" height="5.8"/><g class="cls-7"><rect x="281.63" y="393.88" width="25.25" height="7.66"/></g><path class="cls-6" d="M281.63,401.54c-.05,0-.09-1.65-.09-3.68a34,34,0,0,1,.11-3.69,36.13,36.13,0,0,1,.08,3.69A35.67,35.67,0,0,1,281.63,401.54Z"/><rect class="cls-2" x="207.67" y="396.84" width="64.38" height="1.83"/><path class="cls-6" d="M279,401.48c0,.07-17.71.12-39.56.12s-39.57-.05-39.57-.12,17.71-.11,39.57-.11S279,401.42,279,401.48Z"/><path class="cls-6" d="M281.89,401.52c0,.06-17.71.11-39.56.11s-39.56-.05-39.56-.11,17.71-.11,39.56-.11S281.89,401.46,281.89,401.52Z"/><path class="cls-6" d="M306.88,393.83c0,.06-23.31.11-52.06.11s-52-.05-52-.11,23.3-.12,52-.12S306.88,393.77,306.88,393.83Z"/></g><g id="Tasks"><path class="cls-2" d="M669.12,383.46,530.65,369.73a6.11,6.11,0,0,1-5.48-6.69l20-201.64a6.12,6.12,0,0,1,6.69-5.48l138.47,13.73a6.11,6.11,0,0,1,5.48,6.69L675.81,378A6.11,6.11,0,0,1,669.12,383.46Z"/><path class="cls-6" d="M669.12,383.46l.47,0a6.78,6.78,0,0,0,1.38-.13,6.1,6.1,0,0,0,4.18-3.22,5.94,5.94,0,0,0,.58-1.8c.1-.66.14-1.37.22-2.11.14-1.47.3-3.09.47-4.84q.51-5.25,1.19-12.08l7.58-77c1.61-16.25,3.37-34.05,5.26-53.16q1.41-14.34,2.93-29.62.75-7.64,1.53-15.49.38-3.93.77-7.9a6,6,0,0,0-4.07-6.07,8.47,8.47,0,0,0-2-.35l-2-.2-4.07-.4-8.2-.82-16.69-1.65-34.43-3.41-72.38-7.17a6,6,0,0,0-6.51,5.06c-.33,3.06-.62,6.14-.93,9.2q-.9,9.19-1.8,18.25-1.8,18.12-3.54,35.67c-2.33,23.39-4.57,45.95-6.7,67.44s-4.16,41.91-6.06,61q-.36,3.59-.71,7.1c-.11,1.18-.25,2.35-.33,3.51a5.87,5.87,0,0,0,.76,3.28,6,6,0,0,0,2.39,2.34,7,7,0,0,0,1.58.58c.55.1,1.12.14,1.69.2l6.71.67,25.51,2.54,77,7.68,20.93,2.1,5.44.55,1.85.2-1.85-.17-5.45-.52-20.93-2-77-7.59-25.51-2.52-6.72-.66c-.56-.06-1.13-.1-1.71-.21a6.18,6.18,0,0,1-4.12-3,6.18,6.18,0,0,1-.8-3.42c.09-1.17.22-2.33.33-3.51.24-2.35.47-4.72.71-7.1,1.89-19.12,3.91-39.54,6-61s4.36-44.05,6.68-67.44q1.74-17.53,3.54-35.67.88-9.06,1.8-18.25c.31-3.06.6-6.12.93-9.22a6.25,6.25,0,0,1,6.82-5.3L624.27,163l34.42,3.41L675.38,168l8.21.82,4.06.4,2,.2a8.94,8.94,0,0,1,2,.36,6.23,6.23,0,0,1,4.25,6.35q-.39,4-.78,7.91-.78,7.85-1.54,15.48-1.51,15.27-2.94,29.62c-1.9,19.11-3.67,36.91-5.29,53.16-3.24,32.5-5.87,58.8-7.68,77q-.69,6.82-1.21,12.08c-.18,1.75-.34,3.36-.49,4.84-.08.74-.13,1.44-.23,2.11a5.73,5.73,0,0,1-.59,1.82,6.13,6.13,0,0,1-2.1,2.34,6.43,6.43,0,0,1-2.12.88,6,6,0,0,1-1.39.11Z"/><g class="cls-7"><polygon points="539.38 365.24 665.77 377.07 669.64 352.81 667.23 337.71 540.25 344.85 539.38 365.24"/></g><path class="cls-6" d="M669.12,383.46l.47,0a6.78,6.78,0,0,0,1.38-.13,6.1,6.1,0,0,0,4.18-3.22,5.94,5.94,0,0,0,.58-1.8c.1-.66.14-1.37.22-2.11.14-1.47.3-3.09.47-4.84q.51-5.25,1.19-12.08l7.58-77c1.61-16.25,3.37-34.05,5.26-53.16q1.41-14.34,2.93-29.62.75-7.64,1.53-15.49.38-3.93.77-7.9a6,6,0,0,0-4.07-6.07,8.47,8.47,0,0,0-2-.35l-2-.2-4.07-.4-8.2-.82-16.69-1.65-34.43-3.41-72.38-7.17a6,6,0,0,0-6.51,5.06c-.33,3.06-.62,6.14-.93,9.2q-.9,9.19-1.8,18.25-1.8,18.12-3.54,35.67c-2.33,23.39-4.57,45.95-6.7,67.44s-4.16,41.91-6.06,61q-.36,3.59-.71,7.1c-.11,1.18-.25,2.35-.33,3.51a5.87,5.87,0,0,0,.76,3.28,6,6,0,0,0,2.39,2.34,7,7,0,0,0,1.58.58c.55.1,1.12.14,1.69.2l6.71.67,25.51,2.54,77,7.68,20.93,2.1,5.44.55,1.85.2-1.85-.17-5.45-.52-20.93-2-77-7.59-25.51-2.52-6.72-.66c-.56-.06-1.13-.1-1.71-.21a6.18,6.18,0,0,1-4.12-3,6.18,6.18,0,0,1-.8-3.42c.09-1.17.22-2.33.33-3.51.24-2.35.47-4.72.71-7.1,1.89-19.12,3.91-39.54,6-61s4.36-44.05,6.68-67.44q1.74-17.53,3.54-35.67.88-9.06,1.8-18.25c.31-3.06.6-6.12.93-9.22a6.25,6.25,0,0,1,6.82-5.3L624.27,163l34.42,3.41L675.38,168l8.21.82,4.06.4,2,.2a8.94,8.94,0,0,1,2,.36,6.23,6.23,0,0,1,4.25,6.35q-.39,4-.78,7.91-.78,7.85-1.54,15.48-1.51,15.27-2.94,29.62c-1.9,19.11-3.67,36.91-5.29,53.16-3.24,32.5-5.87,58.8-7.68,77q-.69,6.82-1.21,12.08c-.18,1.75-.34,3.36-.49,4.84-.08.74-.13,1.44-.23,2.11a5.73,5.73,0,0,1-.59,1.82,6.13,6.13,0,0,1-2.1,2.34,6.43,6.43,0,0,1-2.12.88,6,6,0,0,1-1.39.11Z"/><g class="cls-7"><polygon points="539.38 365.24 665.77 377.07 669.64 352.81 667.23 337.71 540.25 344.85 539.38 365.24"/></g><rect class="cls-1" x="512.53" y="200.92" width="196.06" height="136.05" transform="translate(282.68 850) rotate(-84.34)"/><path class="cls-6" d="M668.58,373.21c.11-1.12,7.88-80,19.22-195.11l.12.14L552.54,164.83h0l.16-.13c-7.28,73.27-14,141-19.38,195.1l-.1-.12,135.38,13.53L533.18,359.9h-.11v-.11c5.36-54.15,12.06-121.84,19.32-195.11v-.14l.14,0h0L687.94,178l.13,0,0,.12C676.56,293.26,668.7,372.09,668.58,373.21Z"/><rect class="cls-9" x="586.78" y="191.15" width="68.24" height="6.3" rx="2.9" transform="translate(22.2 -60.31) rotate(5.66)"/><rect class="cls-2" x="590.8" y="216.06" width="78.32" height="5.33" rx="2.45" transform="translate(24.66 -61.09) rotate(5.66)"/><rect class="cls-2" x="589.96" y="223.6" width="40.15" height="5.33" rx="2.45" transform="translate(25.3 -59.09) rotate(5.66)"/><rect class="cls-2" x="587.71" y="247.25" width="78.32" height="5.33" rx="2.45" transform="matrix(1, 0.1, -0.1, 1, 27.72, -60.63)"/><rect class="cls-2" x="586.87" y="254.79" width="40.15" height="5.33" rx="2.45" transform="translate(28.36 -58.63) rotate(5.66)"/><rect class="cls-2" x="584.62" y="278.44" width="78.32" height="5.33" rx="2.45" transform="translate(30.78 -60.17) rotate(5.66)"/><rect class="cls-2" x="583.78" y="285.98" width="40.15" height="5.33" rx="2.45" transform="translate(31.43 -58.17) rotate(5.66)"/><rect class="cls-2" x="581.52" y="309.64" width="78.32" height="5.33" rx="2.45" transform="translate(33.84 -59.72) rotate(5.66)"/><rect class="cls-2" x="580.68" y="317.17" width="40.15" height="5.33" rx="2.45" transform="translate(34.49 -57.71) rotate(5.66)"/><rect class="cls-2" x="577.21" y="336.72" width="78.32" height="5.33" rx="2.45" transform="translate(36.49 -59.16) rotate(5.66)"/><path class="cls-6" d="M592.38,157.74h63.07a3.35,3.35,0,0,1,3.35,3.35V178a0,0,0,0,1,0,0H589a0,0,0,0,1,0,0V161.08A3.35,3.35,0,0,1,592.38,157.74Z" transform="translate(19.61 -60.74) rotate(5.66)"/><polygon class="cls-6" points="634.5 151.09 616.83 149.34 617.4 164.69 630.71 166.01 634.5 151.09"/><path class="cls-8" d="M655.17,160.79c0,.08-13.56-1.2-30.27-2.86s-30.24-3.06-30.24-3.14,13.56,1.2,30.27,2.85S655.17,160.71,655.17,160.79Z"/><path class="cls-8" d="M590.08,171.39c-.08,0,.14-2.87.49-6.38s.7-6.35.78-6.35-.14,2.87-.49,6.38S590.17,171.39,590.08,171.39Z"/><path class="cls-8" d="M655.85,176.39c-.08,0,.12-2.6.43-5.79s.64-5.77.72-5.76a57.24,57.24,0,0,1-.43,5.79A55.7,55.7,0,0,1,655.85,176.39Z"/><path class="cls-8" d="M652.24,178.73c0,.08-13.92-1.23-31.06-2.93s-31-3.14-31-3.22,13.91,1.23,31.06,2.93S652.25,178.65,652.24,178.73Z"/><g class="cls-7"><polygon points="659.05 166.99 661.08 175.8 660.67 179.97 657.43 179.65 659.05 166.99"/></g><rect class="cls-9" x="561.89" y="207.73" width="17.78" height="17.78" rx="3.6" transform="translate(24.16 -55.26) rotate(5.66)"/><polygon class="cls-1" points="564.65 216.27 566.61 214.67 569.74 218.06 576.05 212.87 577.53 214.81 569.14 221.47 564.65 216.27"/><rect class="cls-9" x="558.12" y="239.04" width="17.78" height="17.78" rx="3.6" transform="translate(27.23 -54.73) rotate(5.66)"/><polygon class="cls-1" points="560.87 247.58 562.83 245.97 565.96 249.37 572.27 244.18 573.75 246.12 565.37 252.78 560.87 247.58"/><rect class="cls-9" x="554.77" y="270.08" width="17.78" height="17.78" rx="3.6" transform="translate(30.27 -54.25) rotate(5.66)"/><polygon class="cls-1" points="557.52 278.61 559.48 277.01 562.62 280.4 568.92 275.21 570.4 277.16 562.02 283.81 557.52 278.61"/><path class="cls-6" d="M565.25,319.15s.24,0,.66,0a3.61,3.61,0,0,0,1.7-.67A3.44,3.44,0,0,0,569,316c.11-1.17.23-2.49.36-3.94s.28-3.07.44-4.78L570,306a6.47,6.47,0,0,0,0-1.31,3.33,3.33,0,0,0-1.26-2.26,3.17,3.17,0,0,0-1.22-.6,9.09,9.09,0,0,0-1.45-.19l-3.1-.3-6.51-.64a3.36,3.36,0,0,0-2.78,1.05,3.42,3.42,0,0,0-.75,1.29,10.24,10.24,0,0,0-.22,1.53c-.21,2.1-.42,4.13-.61,6.06-.1,1-.2,1.91-.29,2.83a7.53,7.53,0,0,0-.09,1.31,3.41,3.41,0,0,0,1.91,2.84,6.51,6.51,0,0,0,2.18.44l6.92.77,1.87.23a2.71,2.71,0,0,1,.65.12,3.28,3.28,0,0,1-.66,0l-1.88-.14-6.93-.61-1.13-.1a3.84,3.84,0,0,1-3-2.16,3.64,3.64,0,0,1-.35-1.35,9.05,9.05,0,0,1,.07-1.39q.14-1.38.27-2.82c.19-1.94.38-4,.59-6.07a8.87,8.87,0,0,1,.23-1.63,4,4,0,0,1,.86-1.49,3.88,3.88,0,0,1,3.21-1.22l6.51.65,3.1.31a10.58,10.58,0,0,1,1.53.21A3.74,3.74,0,0,1,569,302a3.83,3.83,0,0,1,1.42,2.58,6.4,6.4,0,0,1-.06,1.4c0,.44-.09.88-.14,1.31-.18,1.71-.35,3.31-.5,4.78s-.31,2.77-.44,3.94a3.69,3.69,0,0,1-1.59,2.55,3.46,3.46,0,0,1-1.81.6A2.19,2.19,0,0,1,565.25,319.15Z"/><path class="cls-6" d="M562.34,348.54s.23,0,.65-.05a3.64,3.64,0,0,0,1.71-.67,3.47,3.47,0,0,0,1.42-2.42c.1-1.17.22-2.49.36-3.94s.28-3.07.44-4.78l.12-1.31a6.49,6.49,0,0,0,.05-1.31,3.33,3.33,0,0,0-1.26-2.25,3.19,3.19,0,0,0-1.22-.61,10.55,10.55,0,0,0-1.46-.19l-3.09-.3-6.51-.64a3.36,3.36,0,0,0-2.78,1.05,3.5,3.5,0,0,0-.75,1.29,8.17,8.17,0,0,0-.22,1.53q-.31,3.17-.62,6.07c-.1,1-.19,1.9-.29,2.82a8.72,8.72,0,0,0-.08,1.32,3.26,3.26,0,0,0,.3,1.19,3.34,3.34,0,0,0,1.61,1.64,6.42,6.42,0,0,0,2.18.44l6.91.77,1.88.23a2.88,2.88,0,0,1,.65.12,3.31,3.31,0,0,1-.66,0l-1.89-.14-6.93-.6-1.12-.11a3.8,3.8,0,0,1-3-2.16,4,4,0,0,1-.35-1.34,9.17,9.17,0,0,1,.08-1.4c.08-.91.17-1.86.27-2.82.18-1.94.38-4,.58-6.07a9,9,0,0,1,.24-1.63,3.73,3.73,0,0,1,.86-1.49,3.87,3.87,0,0,1,3.21-1.22l6.51.65,3.09.31a11.94,11.94,0,0,1,1.53.21,4,4,0,0,1,1.4.71,3.77,3.77,0,0,1,1.41,2.58,5.84,5.84,0,0,1-.06,1.4c0,.44-.09.88-.13,1.31-.18,1.71-.35,3.31-.51,4.78s-.3,2.77-.43,3.94a3.69,3.69,0,0,1-1.6,2.55,3.53,3.53,0,0,1-1.81.61A1.87,1.87,0,0,1,562.34,348.54Z"/></g><g id="Plant"><path class="cls-8" d="M95,359.89c6.75-3.49,14.7-3.94,22.2-2.7,4,.66,8.22,1.87,11,4.89s3.26,8.35.11,10.95c-1.87,1.55-4.48,1.78-6.91,1.76-5.87-.07-12.38-1.11-17.07,2.42-2.67,2-4.45,5.37-7.65,6.36s-6.66-.88-8.31-3.7a13,13,0,0,1-1-9.54A14.57,14.57,0,0,1,95,359.89Z"/><path class="cls-8" d="M79.49,346.86c4.13,5.89,12.15,3.94,15.87.34s5.3-8.82,6.73-13.79c3.27-11.36,6.57-23.29,4.13-34.86a19.34,19.34,0,0,0-4.45-9.48c-2.43-2.57-6.17-4.09-9.59-3.19-4,1.07-6.56,5-8.37,8.8a83.1,83.1,0,0,0-8.22,35.66c0,5.75.66,11.77,3.9,16.52"/><path class="cls-8" d="M69.77,366.07c4-4.78,4.8-11.75,3-17.74s-5.84-11.09-10.51-15.25A56.56,56.56,0,0,0,43.44,322,20.14,20.14,0,0,0,35,320.53a8.89,8.89,0,0,0-7.1,4.3c-2,3.78-.08,8.36,2,12.1A144,144,0,0,0,42.2,355.76c3.71,4.78,7.95,9.49,13.6,11.65s11.52,1.9,14.51-2"/><path class="cls-6" d="M79.21,419a13,13,0,0,0,.38-2.68c.19-2,.42-4.4.71-7.31a106.11,106.11,0,0,1,1.64-10.72,82.76,82.76,0,0,1,3.9-12.66,46.77,46.77,0,0,1,6.46-11.46,24.07,24.07,0,0,1,8.18-6.79,22.67,22.67,0,0,1,6.88-2.14,12.74,12.74,0,0,0,2.67-.39,12.16,12.16,0,0,0-2.72,0,20.8,20.8,0,0,0-7.18,1.87,24.11,24.11,0,0,0-8.62,6.85,45.78,45.78,0,0,0-6.7,11.68,78.36,78.36,0,0,0-3.87,12.87,90.36,90.36,0,0,0-1.42,10.86c-.23,3.11-.32,5.62-.36,7.36A13.16,13.16,0,0,0,79.21,419Z"/><path class="cls-6" d="M79.72,430.18a6.15,6.15,0,0,0,.07-1.25c0-.93,0-2.11,0-3.55,0-3.09,0-7.55.16-13.07.27-11,1.22-22.89,3-39.62,1.74-15.74,4.07-34,6.53-45.95.53-2.71,1.06-5.14,1.56-7.27s.88-4,1.28-5.48.61-2.55.83-3.45a5.35,5.35,0,0,0,.21-1.23,6,6,0,0,0-.43,1.17l-1,3.4c-.46,1.48-.93,3.31-1.46,5.44s-1.15,4.56-1.72,7.26a401.34,401.34,0,0,0-6.87,42.63c-1.83,16.77-2.66,32-2.74,43.09-.06,5.53.06,10,.2,13.09.09,1.44.16,2.62.21,3.55A5.42,5.42,0,0,0,79.72,430.18Z"/><path class="cls-6" d="M80.23,406.9a20.83,20.83,0,0,0,0-3.34c-.13-2.14-.42-5.25-1-9a120.79,120.79,0,0,0-3-13.18,108,108,0,0,0-5.51-15.6C66.16,354.9,60,346,54.55,340.55A40.94,40.94,0,0,0,50.74,337c-.58-.5-1.1-1-1.62-1.38l-1.48-1a23.31,23.31,0,0,0-2.81-1.8c-.16.22,4,2.66,9.21,8.22a87.43,87.43,0,0,1,15.78,25.11,122.53,122.53,0,0,1,5.54,15.45,131.22,131.22,0,0,1,3.13,13.05c.69,3.76,1.09,6.83,1.33,8.95A21.55,21.55,0,0,0,80.23,406.9Z"/><polygon class="cls-9" points="52.76 403.61 56.65 442.79 102.62 442.79 105.48 403.61 52.76 403.61"/><rect class="cls-9" x="47.21" y="395.54" width="64.92" height="14.98"/><path class="cls-6" d="M107,410.27c0,.17-12.23.3-27.32.3s-27.32-.13-27.32-.3,12.23-.3,27.32-.3S107,410.1,107,410.27Z"/></g><g id="Character"><path class="cls-6" d="M573.14,301c3.93.21,6.88-4.35,6.12-8.21s-4.16-6.73-7.79-8.23-7.61-2-11.42-2.94a43.14,43.14,0,0,1-26.89-21,73.41,73.41,0,0,1-5-12.24c-5.35-22.56-12.77-54.8-14.58-67.36-4.68-32.45-13-68.07-59.32-64.76,0,0-30.82,5.8-42.65,27.91-10.4,19.44-4.4,78.06-5.77,120.29l10.1,6.09,1.57.09a40,40,0,0,0,5.57,12.11c9.24,13.16,21.8,23.74,35.42,32.29,27.52,17.27,60.46,26.69,92.79,23.45,6.83-.68,13.75-2,19.72-5.36s10.91-9.16,11.81-16S579.76,302.83,573.14,301Z"/><path class="cls-12" d="M448.12,128.37l2.9-2.77,31.35,12.63a8.76,8.76,0,0,1,8.26,8.48l-.28,102.12c0,6.93-1.34,12.92-5.53,18.44l-4.4,5.82c-10,13.25-30.68,12.16-38.63-2.44a11.45,11.45,0,0,1-1.11-2.65,21.93,21.93,0,0,1-.46-2.28c-.94-8.22-1-15.34-1-15.34-.56-9-.74-12.72-.74-12.64s-19.2-2.2-24.39-26.85c-2.58-12.25-2.1-29.11-1.37-45.71C413.73,142.22,429.66,128.34,448.12,128.37Z"/><path class="cls-6" d="M449.69,182a3.18,3.18,0,0,0,3.23,3.06,3,3,0,0,0,3.14-3,3.18,3.18,0,0,0-3.23-3.06A3,3,0,0,0,449.69,182Z"/><path class="cls-6" d="M419.08,182a3.19,3.19,0,0,0,3.24,3.06,3.05,3.05,0,0,0,3.14-3,3.19,3.19,0,0,0-3.23-3.06A3.06,3.06,0,0,0,419.08,182Z"/><path class="cls-6" d="M416,171.75c.41.39,2.74-1.51,6.17-1.68s6,1.43,6.37,1c.18-.2-.26-.93-1.4-1.67a8.71,8.71,0,0,0-5.13-1.3,8.38,8.38,0,0,0-4.88,1.85C416.12,170.8,415.8,171.57,416,171.75Z"/><path class="cls-6" d="M450.8,172.1c.45.35,2.57-1.78,6-2.3s6.14.8,6.45.33c.15-.21-.36-.89-1.57-1.51a8.71,8.71,0,0,0-5.24-.78,8.33,8.33,0,0,0-4.66,2.35C450.82,171.15,450.58,172,450.8,172.1Z"/><path class="cls-6" d="M438.82,197.06c0-.2-2.14-.46-5.62-.73-.88-.05-1.71-.18-1.89-.77a4.45,4.45,0,0,1,.45-2.62l2.26-6.8c3.12-9.67,5.33-17.6,4.94-17.72s-3.24,7.61-6.36,17.28l-2.14,6.83c-.28,1-.8,2.17-.28,3.46a2.18,2.18,0,0,0,1.5,1.21,5.89,5.89,0,0,0,1.5.13C436.66,197.34,438.82,197.25,438.82,197.06Z"/><path class="cls-13" d="M438.49,237.74a63.28,63.28,0,0,0,32.82-10.54s-7.5,17.62-32.48,16.54Z"/><path class="cls-13" d="M440.68,205.25a6.2,6.2,0,0,1,5.43-2.58,5.68,5.68,0,0,1,4,1.9,3.57,3.57,0,0,1,.47,4.07c-.86,1.35-2.77,1.74-4.43,1.36a13,13,0,0,1-4.52-2.39,3.81,3.81,0,0,1-1-1,1.16,1.16,0,0,1-.06-1.27"/><path class="cls-6" d="M449,198.92c-.56,0-.38,3.72-3.43,6.52s-7,2.59-7,3.11c0,.24.92.68,2.6.64A9.22,9.22,0,0,0,447,206.8a8.07,8.07,0,0,0,2.64-5.45C449.74,199.79,449.28,198.89,449,198.92Z"/><path class="cls-6" d="M447.52,158.74c.47.87,3.79-.09,7.84-.22s7.45.46,7.85-.45c.17-.43-.52-1.21-2-1.9a13.64,13.64,0,0,0-11.95.5C447.93,157.48,447.3,158.32,447.52,158.74Z"/><path class="cls-6" d="M416.5,157c.64.75,3-.18,5.8-.36s5.27.26,5.79-.58c.22-.41-.2-1.17-1.29-1.86a8.1,8.1,0,0,0-4.78-1,8,8,0,0,0-4.55,1.8C416.51,155.83,416.22,156.65,416.5,157Z"/><path class="cls-6" d="M490,190.29s-17.56,5.46-27.49-37.87c-3.4-14.82-17.13-26.82-17.13-26.82l5.57-1.67s34.62,9.75,35.2,10.19S494.89,152,494.89,152Z"/><path class="cls-12" d="M485.68,188.68c-.09-1.85,1.83-6.32,3.64-6.7,4.84-1,13.65-1,14.36,11.33,1,16.93-16.24,14.4-16.3,13.92S486,195.06,485.68,188.68Z"/><path class="cls-13" d="M492.19,200.52c.07-.06.31.19.82.39a2.94,2.94,0,0,0,2.21-.08c1.75-.76,3.09-3.68,3-6.74a9.73,9.73,0,0,0-1.06-4.17,3.43,3.43,0,0,0-2.35-2.14,1.51,1.51,0,0,0-1.7.91c-.2.48-.07.81-.16.85s-.38-.26-.28-1a1.89,1.89,0,0,1,.61-1.1,2.18,2.18,0,0,1,1.6-.52,4.13,4.13,0,0,1,3.23,2.45,10,10,0,0,1,1.29,4.66c.09,3.42-1.48,6.71-3.88,7.55a3.18,3.18,0,0,1-2.73-.29C492.24,200.93,492.13,200.56,492.19,200.52Z"/><path class="cls-8" d="M504.31,252.66a41.11,41.11,0,0,1-.37-5.92,91.17,91.17,0,0,1,1.64-16.08c.6-3.36,1.26-7,2-11A106.56,106.56,0,0,0,509.07,207a51.37,51.37,0,0,0-1-14,35.1,35.1,0,0,0-2.38-7,33.82,33.82,0,0,0-4-6.51A78.53,78.53,0,0,0,491,168.7c-3.71-3.21-7.26-6.36-10.42-9.6a131.73,131.73,0,0,1-15.23-18.52,126.27,126.27,0,0,1-8.24-13.91c-.87-1.7-1.51-3-1.92-4l-.48-1a2.37,2.37,0,0,1-.14-.36,3,3,0,0,1,.19.34l.51,1c.44.9,1.11,2.22,2,3.91a134,134,0,0,0,8.36,13.8,132.62,132.62,0,0,0,15.26,18.41c3.15,3.22,6.7,6.35,10.41,9.56A78.76,78.76,0,0,1,502,179.15a34.28,34.28,0,0,1,4.06,6.6,35.66,35.66,0,0,1,2.41,7.13,51.89,51.89,0,0,1,1,14.13,104.2,104.2,0,0,1-1.57,12.73l-2,11a96.39,96.39,0,0,0-1.78,16c0,1.91,0,3.39.11,4.39,0,.48,0,.86.07,1.14A2.86,2.86,0,0,1,504.31,252.66Z"/><path class="cls-8" d="M509.76,254.25a41,41,0,0,1-.37-5.91A91.18,91.18,0,0,1,511,232.25c.6-3.36,1.26-7,2-11a106.31,106.31,0,0,0,1.52-12.69,51.77,51.77,0,0,0-1-14,35.1,35.1,0,0,0-2.38-7,33.87,33.87,0,0,0-4-6.51,79,79,0,0,0-10.66-10.74c-3.71-3.21-7.26-6.36-10.42-9.6a131.73,131.73,0,0,1-15.23-18.52,128.33,128.33,0,0,1-8.25-13.9c-.86-1.7-1.51-3-1.92-4-.2-.44-.35-.79-.47-1a2.37,2.37,0,0,1-.14-.36s.07.11.19.34l.51,1c.44.91,1.1,2.23,2,3.91a135.68,135.68,0,0,0,23.61,32.21c3.16,3.22,6.71,6.35,10.42,9.56a78.29,78.29,0,0,1,10.73,10.8,33.91,33.91,0,0,1,4.06,6.59,35.66,35.66,0,0,1,2.41,7.13,51.89,51.89,0,0,1,1,14.13,104.62,104.62,0,0,1-1.57,12.74l-2,11a96.38,96.38,0,0,0-1.78,16c0,1.9,0,3.38.11,4.38,0,.49.05.86.07,1.14A2.86,2.86,0,0,1,509.76,254.25Z"/><path class="cls-12" d="M255,273c-4.47-4.56-9.66-9.47-9.66-9.47l-4.37-4.6a7.12,7.12,0,0,0-.48,1.18,4.78,4.78,0,0,1-1.09,2.12c-1.12,1-3,.71-4.3,0a9.26,9.26,0,0,1-4.7-7.87,9.12,9.12,0,0,1,4.27-7.68,6.68,6.68,0,0,1,1.17-2.34c3.66-4.71,12.31-4.1,12.31-4.1l-1.31-1.82s-5.92-3.64-15.67,2.56a7.16,7.16,0,0,1-4.93,1.08,3.59,3.59,0,0,1-2.65-1.58c-1.45-2.41-.11-4,5.93-8s13.18-5.77,17.73-4.1a47.61,47.61,0,0,1,6.24,2.61S242.63,213.78,242,212.67c-1.85-3.22-2-6.74.07-8.17,1.3-.92,3.63-1.12,5.9,2.56,2,3.19,26.33,33.28,26.33,33.28l10,13.93,6.37,12.83L269,279l-1.8-.18A19.89,19.89,0,0,1,255,273Z"/><path class="cls-12" d="M280.69,254.82c-1.5,1.6-4.18,1.41-6.15.4s-3.54-2.63-5.44-3.77c-5.66-3.41-13.35-2-18.84-5.67-.76-.51-1.55-1.38-1.21-2.23s1.35-.94,2.2-1l21.84-.94"/><path class="cls-13" d="M273.09,241.63a8.6,8.6,0,0,0-2.37-.14c-1.53,0-3.73,0-6.45.08l-9.56.28-2.77.1c-.87.09-2.05-.16-3.15.87a1.84,1.84,0,0,0-.21,2.05,3.84,3.84,0,0,0,1.2,1.32,14.71,14.71,0,0,0,2.86,1.5c4.06,1.54,8.11,1.6,11.53,2.45a16.61,16.61,0,0,1,4.63,1.73c1.33.77,2.46,1.74,3.6,2.53,2.23,1.69,4.75,2.18,6.29,1.74s2.06-1.32,2-1.32a6.39,6.39,0,0,1-2.09.85,7.57,7.57,0,0,1-5.68-2c-1.07-.8-2.17-1.82-3.59-2.71a17.43,17.43,0,0,0-4.89-1.95c-3.55-.93-7.59-1.05-11.35-2.5a13.73,13.73,0,0,1-2.59-1.33c-.74-.52-1.15-1.26-.78-1.58s1.35-.46,2.28-.49l2.76-.14,9.55-.54c2.72-.18,4.92-.34,6.43-.48A9.09,9.09,0,0,0,273.09,241.63Z"/><path class="cls-13" d="M248.41,240.12a9.26,9.26,0,0,0-3.2-2.62,7,7,0,0,0-4.35-.34,17.63,17.63,0,0,0-5.08,2.17,28.2,28.2,0,0,1-5.14,2.55,9.27,9.27,0,0,1-4.75.41,3.61,3.61,0,0,1-2.56-2,2.15,2.15,0,0,1-.26-1.14c.08,0,.17.39.54,1a3.39,3.39,0,0,0,2.39,1.54,9,9,0,0,0,4.39-.55,30.89,30.89,0,0,0,5-2.54,17.37,17.37,0,0,1,5.34-2.2,7.34,7.34,0,0,1,4.74.55,6.45,6.45,0,0,1,2.45,2.08C248.33,239.7,248.45,240.1,248.41,240.12Z"/><path class="cls-13" d="M241.29,211.41a23,23,0,0,1,2.17,3.4c1.44,2.36,3.14,5.18,5,8.29s3.69,5.88,5.15,8.23a23.24,23.24,0,0,1,2.06,3.47,17.68,17.68,0,0,1-2.53-3.16c-1.46-2-3.37-4.88-5.36-8.12s-3.69-6.23-4.84-8.44A17.38,17.38,0,0,1,241.29,211.41Z"/><path class="cls-13" d="M246.92,246.38a4.83,4.83,0,0,1-1.25.22,3.74,3.74,0,0,0-2.73,1.5,2,2,0,0,0,0,2,11,11,0,0,0,1.55,2.13,4.53,4.53,0,0,1,1.26,2.94,3.79,3.79,0,0,1-1.79,3,4.36,4.36,0,0,1-3.43.48,5.52,5.52,0,0,1-2.76-1.62,17.94,17.94,0,0,1-2.67-4.44,10.54,10.54,0,0,1-.88-3.37,2.21,2.21,0,0,1,.19-1.27c.07,0,0,.46.12,1.24a12.79,12.79,0,0,0,1.09,3.17,18.94,18.94,0,0,0,2.7,4.18c1.17,1.25,3.5,2,5.2,1a3.06,3.06,0,0,0,1.44-2.33,3.87,3.87,0,0,0-1.06-2.46,10.89,10.89,0,0,1-1.57-2.32,2.55,2.55,0,0,1,.14-2.54,3.89,3.89,0,0,1,3.18-1.49A3.28,3.28,0,0,1,246.92,246.38Z"/><path class="cls-13" d="M240.48,257.9s.35.28.51,1a3.44,3.44,0,0,1-.91,3,4.68,4.68,0,0,1-4.5,1.14,7.72,7.72,0,0,1-4.5-3.5,9.18,9.18,0,0,1-1.38-5.5,8.73,8.73,0,0,1,1.55-4.35,8.46,8.46,0,0,1,2.2-2.17c.62-.4,1-.54,1-.5a14.63,14.63,0,0,0-2.75,3,8.49,8.49,0,0,0-1.29,4.08,8.79,8.79,0,0,0,1.32,5,7.24,7.24,0,0,0,4,3.21,4.21,4.21,0,0,0,3.92-.83,3.28,3.28,0,0,0,1-2.55C240.63,258.28,240.42,257.93,240.48,257.9Z"/><path class="cls-13" d="M259.53,262.16c0-.06.5-.57,1.66-1a7.74,7.74,0,0,1,4.94,0l-.47.52a22.74,22.74,0,0,1-1.05-2.52c-1.75-5-1.09-9.43-.9-9.36s0,4.25,1.67,9.1a24.71,24.71,0,0,0,1,2.46l.37.83-.85-.31a8,8,0,0,0-4.55-.23C260.2,261.9,259.58,262.25,259.53,262.16Z"/><path class="cls-13" d="M241,233.05c.21,0,.31,1.62-.81,3.19s-2.68,2-2.74,1.85,1.13-.93,2.08-2.31S240.77,233,241,233.05Z"/><path class="cls-9" d="M400.27,331.77s-62.71,30.48-77.94,29.35c-14.83-1.11-42.1-47.41-49-60.3-5.8-10.86-10-20.26-10-20.26l24.51-20,4,3.6,38.79,46.06c4.48,0,43.63-25.43,43.63-25.43s22.38-20.22,30.89-21.5,3.35,17.91,3.35,17.91Z"/><path class="cls-9" d="M534.75,272l-37-17.64.95-.61L490.57,240l-35,25.85-17.12-20.76-8.05,10.53h0l-25.3,7.71-6,22.76L390.6,306.3c-8,19-7.32,40.09-1.38,59.88l0,.13c5.69,18.7,14.38,21.89,11.23,42.35-.72,4.67-4.11,34.24-4.11,34.24H533l-14.31-43.2Z"/><path class="cls-6" d="M395.29,289.3a3.17,3.17,0,0,1,.13.65c.06.49.15,1.12.26,1.9.21,1.72.51,4.11.88,7V299a217.25,217.25,0,0,0-6.31,24.75c-.9,4.78-1.53,9.38-1.9,13.57a97.09,97.09,0,0,0-.35,11.18,74.82,74.82,0,0,0,.63,7.51c.13.84.23,1.52.3,2a3,3,0,0,1,.07.72,6.26,6.26,0,0,1-.17-.7c-.1-.51-.23-1.18-.4-2a62.62,62.62,0,0,1-.79-7.53,89.54,89.54,0,0,1,.24-11.23,132.15,132.15,0,0,1,1.86-13.62,192.11,192.11,0,0,1,6.48-24.77v.07c-.3-2.95-.54-5.35-.71-7.06-.07-.79-.13-1.43-.17-1.91A2.83,2.83,0,0,1,395.29,289.3Z"/><path class="cls-6" d="M447.34,441.89s0-.14-.07-.42-.09-.7-.16-1.22c-.13-1.11-.32-2.7-.56-4.73-.11-1-.24-2.18-.39-3.42s-.21-2.62-.33-4.09-.24-3-.38-4.69-.19-3.42-.3-5.27-.19-3.78-.29-5.79-.11-4.12-.16-6.3c-.16-4.34-.08-9-.11-13.88.12-9.78.49-20.53,1.16-31.8,1.39-22.53,3.48-42.87,5-57.58.77-7.33,1.39-13.28,1.82-17.42.22-2,.39-3.62.51-4.73q.1-.78.15-1.23a2.78,2.78,0,0,1,.07-.42,2.77,2.77,0,0,1,0,.43q0,.45-.09,1.23c-.1,1.11-.24,2.71-.42,4.74-.39,4.15-1,10.1-1.65,17.44-1.4,14.72-3.43,35.05-4.82,57.58-.67,11.25-1.06,22-1.2,31.76,0,4.89-.08,9.53.06,13.88q.08,3.26.13,6.28t.26,5.8c.09,1.84.13,3.6.26,5.26s.23,3.23.34,4.69.2,2.83.29,4.08.24,2.39.34,3.43c.2,2,.36,3.62.47,4.73l.11,1.24A1.9,1.9,0,0,1,447.34,441.89Z"/><path class="cls-6" d="M455,266.89s-.32.38-.89,1.09-1.35,1.78-2.27,3.16c-1.83,2.77-4.2,6.79-6.72,11.52l-.2.39-.23-.37c-1-1.58-2-3.28-2.94-5.05-3.24-6-5.9-11.48-8-15.39-1-2-1.9-3.53-2.5-4.62l-.7-1.24a1.72,1.72,0,0,1-.21-.46,2,2,0,0,1,.3.4l.78,1.2c.66,1.06,1.58,2.6,2.65,4.54,2.17,3.88,4.88,9.38,8.11,15.32,1,1.76,1.95,3.46,2.91,5l-.43,0A121.16,121.16,0,0,1,451.59,271a30.88,30.88,0,0,1,2.41-3.09,8.83,8.83,0,0,1,.74-.75C454.91,267,455,266.88,455,266.89Z"/><path class="cls-6" d="M498.74,253.75a4.45,4.45,0,0,1-.45.49l-1.36,1.33c-1.2,1.15-2.95,2.78-5.15,4.76-4.39,4-10.56,9.34-17.53,15.08-2.1,1.72-4.15,3.39-6.14,4.94s-3.87,3-5.75,4.23l-.23.16-.1-.26a46.63,46.63,0,0,1-1.94-7c-.48-2.1-.94-3.92-1.43-5.39a19.74,19.74,0,0,0-1.38-3.3c-.4-.73-.66-1.1-.63-1.12s.08.08.21.25a8.4,8.4,0,0,1,.54.79,17.59,17.59,0,0,1,1.52,3.3,53.88,53.88,0,0,1,1.54,5.38,48.89,48.89,0,0,0,2,6.89l-.34-.11c1.83-1.21,3.72-2.69,5.69-4.24s4-3.22,6.12-4.95c7-5.73,13.16-11.06,17.62-14.94l5.25-4.63,1.43-1.27C498.54,253.88,498.72,253.73,498.74,253.75Z"/><path class="cls-6" d="M533.09,274.16a10.39,10.39,0,0,1-1.31,1,17.72,17.72,0,0,0-1.54,1.13c-.58.47-1.28,1-2,1.6s-1.47,1.3-2.23,2.1-1.55,1.66-2.36,2.59a41.52,41.52,0,0,0-7.66,14c-.34,1.19-.69,2.31-.9,3.39a30.35,30.35,0,0,0-.55,3c-.17.92-.21,1.77-.29,2.51s-.1,1.38-.11,1.91a9.69,9.69,0,0,1-.11,1.63,9.29,9.29,0,0,1-.1-1.64,16,16,0,0,1,0-1.92c0-.75.07-1.6.21-2.54a30.58,30.58,0,0,1,.5-3.05,35.42,35.42,0,0,1,.87-3.44,39.69,39.69,0,0,1,7.74-14.2c.83-.93,1.61-1.84,2.43-2.59a26.11,26.11,0,0,1,2.29-2.07c.71-.63,1.42-1.11,2-1.55a16.45,16.45,0,0,1,1.6-1.07A9.57,9.57,0,0,1,533.09,274.16Z"/><path class="cls-9" d="M568.52,353.81s-8.08-35.26-11.13-48.68C551.62,279.77,534.75,272,534.75,272l-20.3,55.2L527,384.84l-55.78-8-9.45-2.37L455,406.81,472.67,414s63,23.71,81.59,21.46,22.33-23.23,22.4-31.88C576.8,388.76,568.52,353.81,568.52,353.81Z"/><path class="cls-2" d="M425.15,359l-23.47-47.42a9.5,9.5,0,0,0-8.52-5.27h-59a2.88,2.88,0,0,0-2.55,4.23l39.92,73.91a6.44,6.44,0,0,0,5.67,3.36h61.16Z"/><path class="cls-6" d="M420.73,358.13a1.34,1.34,0,0,1-.16-.26l-.42-.79L418.59,354l-5.66-11.26c-2.37-4.77-5.2-10.43-8.33-16.72l-4.9-9.89c-.43-.85-.85-1.74-1.29-2.58a8.21,8.21,0,0,0-1.78-2.21,8.34,8.34,0,0,0-5.32-2.07l-41.57-.09-12.6-.08-3.42-.05-.9,0a1.16,1.16,0,0,1-.3,0l.3,0,.9,0,3.42-.05,12.6-.08,41.58-.07a8.83,8.83,0,0,1,7.54,4.55c.47.89.87,1.74,1.3,2.6l4.87,9.9c3.1,6.31,5.88,12,8.23,16.78s4.19,8.62,5.51,11.33l1.47,3.1c.16.33.28.6.38.81A2.65,2.65,0,0,1,420.73,358.13Z"/><path class="cls-1" d="M368.85,322.38a2.88,2.88,0,0,0,1.17,3.75,2.45,2.45,0,0,0,3.85-2.83c-.39-.95-2.11-2.47-3.34-2.13C370.53,321.17,369.22,321.61,368.85,322.38Z"/><path class="cls-12" d="M457.13,373.15s-6-8.61-8.42-11.31-17.1-12.11-17.1-12.11-7.06-9.49-8.15-9.49-4.52.61-3.59,5A66.86,66.86,0,0,0,423.74,358l-33.31-1.09c-2,0-4.82.54-5.6,2.44-.95,2.33,1.34,3.93,2.81,4.66,2,1,8,2.64,12.14,3.72-.06.12-2.76,5.27,1,7.91s4,3.17,4,3.17.18,5.33,1.81,7.48,19.27,11.16,19.27,11.16,11.27,3.3,17,3,11.56,2.93,12.2,3.11,6.2-26.28,6.2-26.28Z"/><path class="cls-13" d="M420.73,358.13c0,.31,3.95.47,8.79,1s8.84.77,8.86.43-3.86-1-8.75-1.52S420.71,357.83,420.73,358.13Z"/><path class="cls-13" d="M424.91,371.91c.09-.33-5.62-1.88-12.79-2.7-3.58-.45-6.82-.77-9.16-1s-3.78-.45-3.82-.29,1.37.61,3.7,1.05,5.57.9,9.14,1.35C419.13,371.12,424.83,372.16,424.91,371.91Z"/><path class="cls-13" d="M424.91,382.07c0-.33-4.57-.47-10.08-1.42s-9.86-2.3-10-2,4.15,2.13,9.79,3.08S424.92,382.35,424.91,382.07Z"/><path class="cls-13" d="M423,393.45c.3.05.75-1.17,1-2.73s.22-2.85-.08-2.9-.75,1.17-1,2.72S422.71,393.4,423,393.45Z"/><path class="cls-13" d="M425.82,379.82c.31,0,.48-1,1-2.1s1.22-1.83,1-2.09-1.36.24-2,1.61S425.53,379.87,425.82,379.82Z"/><path class="cls-13" d="M429.39,366.18c.31,0,.63-.62,1-1.36s.7-1.38.49-1.61-1,.18-1.48,1.12S429.09,366.15,429.39,366.18Z"/><path class="cls-6" d="M527,431l-.36-.07-1-.23c-.93-.21-2.31-.52-4.06-1-3.54-.94-8.64-2.49-15-4.56-12.79-4.15-30.74-10.42-51.6-18.12l-.2-.07,0-.21c2.11-10,4.4-21,6.79-32.37l.06-.26.26.06,5.94,1.5,3.5.88h0l55.59,7.57-.24.26c-3.5-16.31-6.41-29.87-8.44-39.39-1-4.73-1.79-8.45-2.33-11-.26-1.25-.46-2.22-.59-2.9s-.19-1-.19-1,.1.33.25,1,.38,1.64.66,2.9c.57,2.55,1.4,6.27,2.45,11l8.62,39.35.07.31-.32,0-55.6-7.49h0l-3.49-.88-5.95-1.5.32-.2c-2.4,11.4-4.71,22.34-6.82,32.37l-.15-.28c20.85,7.72,38.76,14.06,51.53,18.28,6.38,2.11,11.46,3.71,15,4.69,1.75.52,3.11.85,4,1.09l1,.27Z"/><path class="cls-6" d="M542.09,395.43c-.08,0-.61-.91-1.67-2.3a24.55,24.55,0,0,0-4.87-4.75,24.27,24.27,0,0,0-6-3.16c-1.65-.58-2.72-.8-2.71-.88s.28,0,.77.06a13.55,13.55,0,0,1,2,.47,20.86,20.86,0,0,1,11.06,8,14.07,14.07,0,0,1,1.09,1.8A2.2,2.2,0,0,1,542.09,395.43Z"/></g></svg>