<svg xmlns="http://www.w3.org/2000/svg" viewBox="0 0 643.87 417.14"><defs><style>.cls-1{fill:#ebebeb;}.cls-2{fill:#f5f5f5;}.cls-3{fill:#fafafa;}.cls-4{fill:#e0e0e0;}.cls-15,.cls-5{fill:#fff;}.cls-12,.cls-6{fill:#2f57a4;}.cls-7{fill:#263238;}.cls-8{opacity:0.6;}.cls-9{opacity:0.2;}.cls-10{opacity:0.4;}.cls-11{fill:#455a64;}.cls-12,.cls-15{fill-rule:evenodd;}.cls-13{opacity:0.8;}.cls-14{fill:none;}.cls-16{opacity:0.3;}.cls-17{fill:#ffbe9d;}.cls-18{fill:#eb996e;}</style></defs><g id="Background_Complete" data-name="Background Complete"><path class="cls-1" d="M535.3,249.24l1.55,28.66a1.94,1.94,0,0,0,1.92,1.83l51.58.38a1.93,1.93,0,0,0,1.95-1.92l.16-22.31a1.94,1.94,0,0,0-1.93-1.95l-31.72,0a2,2,0,0,1-1.37-.56L552,247.87a1.93,1.93,0,0,0-1.36-.57l-13.37-.1A1.93,1.93,0,0,0,535.3,249.24Z"/><rect class="cls-2" x="536.02" y="250.35" width="56.35" height="33.67" transform="translate(1.97 -4.13) rotate(0.42)"/><path class="cls-1" d="M531.64,253.13l4.05,35.15a1.23,1.23,0,0,0,1.23,1.1l54.91.41a1.24,1.24,0,0,0,1.25-1.14l3-35.1a1.25,1.25,0,0,0-1.24-1.35l-62-.45A1.24,1.24,0,0,0,531.64,253.13Z"/><rect class="cls-3" x="462.53" y="338.71" width="37.22" height="25.09" transform="translate(-66.16 116.02) rotate(-12.87)"/><path class="cls-4" d="M496.67,335.15a3.21,3.21,0,0,1-.26.4c-.21.28-.47.65-.81,1.12l-3,4.07-10.1,13.38-.09.11-.12-.06L482,354l-15.29-7.43-4.62-2.28-1.25-.64a2.63,2.63,0,0,1-.42-.24,2.65,2.65,0,0,1,.45.18l1.28.58,4.66,2.19,15.33,7.33.3.15-.2.05,10.18-13.33c1.29-1.67,2.35-3,3.11-4l.85-1.08A2.46,2.46,0,0,1,496.67,335.15Z"/><path class="cls-4" d="M466,367.9c-.09,0,1.88-4,4.38-8.88s4.6-8.77,4.68-8.73-1.88,4-4.38,8.88S466.06,367.94,466,367.9Z"/><path class="cls-4" d="M487,347.23c.06-.07,3.52,2.64,7.72,6.06s7.57,6.24,7.51,6.31-3.51-2.63-7.72-6.05S487,347.3,487,347.23Z"/><path class="cls-1" d="M153.24,357.19h0a22.83,22.83,0,0,1-22.83-22.82h0a22.83,22.83,0,0,1,22.83-22.83h0a22.83,22.83,0,0,1,22.83,22.83h0A22.83,22.83,0,0,1,153.24,357.19Z"/><rect class="cls-5" x="142.89" y="329.28" width="4.72" height="15.26"/><path class="cls-5" d="M145.23,327.28a2.82,2.82,0,1,0-2.79-2.82A2.8,2.8,0,0,0,145.23,327.28Z"/><path class="cls-5" d="M155.17,336.53c0-2.15,1-3.43,2.87-3.43s2.58,1.23,2.58,3.43v8h4.7v-9.66c0-4.09-2.32-6.07-5.56-6.07a5.31,5.31,0,0,0-4.59,2.52v-2.05h-4.54v15.26h4.54Z"/><path class="cls-4" d="M419.6,392h0a15.1,15.1,0,0,1-15.11-15.11h0a15.11,15.11,0,0,1,15.11-15.12h0a15.12,15.12,0,0,1,15.12,15.12h0A15.11,15.11,0,0,1,419.6,392Z"/><path class="cls-5" d="M417.35,381.9a2.81,2.81,0,0,0,1.19-.53,2.85,2.85,0,0,0,.75-.83,3.05,3.05,0,0,0,.47-1.69,2.84,2.84,0,0,0-.41-1.55,2.33,2.33,0,0,0-1.22-.93,2.53,2.53,0,0,0,.81-.61,2.38,2.38,0,0,0,.49-1.55,2.73,2.73,0,0,0-.49-1.62,3.25,3.25,0,0,0-2.74-1.13h-5.12v10.59h4.77A7.06,7.06,0,0,0,417.35,381.9Zm-4.16-8.6h2.3a4,4,0,0,1,1.26.17,1,1,0,0,1,.56,1,1,1,0,0,1-.43.93,2.06,2.06,0,0,1-1.12.27h-2.57Zm0,6.91v-2.82h2.61a2.56,2.56,0,0,1,1.06.18,1.14,1.14,0,0,1,.67,1.13,1.32,1.32,0,0,1-.7,1.32,2.38,2.38,0,0,1-1.07.19Z"/><path class="cls-5" d="M421.55,381.35a4.29,4.29,0,0,0,2.76,1,3.82,3.82,0,0,0,2.95-1.14,2.52,2.52,0,0,0,.75-1.41h-2.08a1.86,1.86,0,0,1-.43.54,1.77,1.77,0,0,1-1.13.35,2,2,0,0,1-1.13-.29,1.89,1.89,0,0,1-.82-1.65h5.7a9.24,9.24,0,0,0-.07-1.55,3.74,3.74,0,0,0-.62-1.62,3.14,3.14,0,0,0-1.35-1.16,4.54,4.54,0,0,0-1.84-.37,3.75,3.75,0,0,0-2.8,1.09,4.22,4.22,0,0,0-1.08,3.12A3.81,3.81,0,0,0,421.55,381.35Zm1.47-5.2a1.61,1.61,0,0,1,1.22-.45,1.78,1.78,0,0,1,1.21.42,1.72,1.72,0,0,1,.55,1.24h-3.53A2.16,2.16,0,0,1,423,376.15Z"/><rect class="cls-5" x="421.8" y="372.07" width="4.6" height="1.07"/><rect class="cls-1" x="569.3" y="44.21" width="52.49" height="65.65" transform="translate(418.51 650.85) rotate(-80.22)"/><rect class="cls-2" x="572.56" y="46.51" width="45.88" height="61.04" transform="translate(418.48 650.8) rotate(-80.22)"/><polygon class="cls-4" points="561.53 94.45 587.38 69.97 597.36 89.79 607.81 81.91 621.68 104.81 561.53 94.45"/><path class="cls-4" d="M606.51,69.72a4.8,4.8,0,1,1-3.92-5.55A4.81,4.81,0,0,1,606.51,69.72Z"/><path class="cls-1" d="M570.4,179.11v21.3a7,7,0,0,1-7,7H487.08a7,7,0,0,1-7-7v-18l-9.51-10,92.82-.29A7,7,0,0,1,570.4,179.11Z"/><polygon class="cls-2" points="491.36 185.04 560.64 184.72 560.63 182.59 491.35 182.91 491.36 185.04"/><polygon class="cls-2" points="491.36 192.04 560.64 191.72 560.63 189.59 491.35 189.91 491.36 192.04"/><rect class="cls-2" x="491.35" y="196.68" width="27.41" height="2.13" transform="translate(-0.97 2.49) rotate(-0.28)"/><path class="cls-1" d="M460.26,37.39a8.56,8.56,0,0,1-.22-1.93,16.7,16.7,0,0,0-.26-2.32,22.08,22.08,0,0,0-.61-3.12,29.18,29.18,0,0,0-3.24-8,30.16,30.16,0,0,0-7.47-8.6,29.76,29.76,0,0,0-28-4.82,28.08,28.08,0,0,0-7.59,3.87,34.35,34.35,0,0,0-3.42,2.78,34.2,34.2,0,0,0-3,3.36,29.5,29.5,0,0,0-.85,35,34.55,34.55,0,0,0,2.81,3.51A34.93,34.93,0,0,0,411.69,60a27.49,27.49,0,0,0,7.39,4.23,30,30,0,0,0,36.11-11.67,29.28,29.28,0,0,0,3.62-7.86,21.52,21.52,0,0,0,.76-3.09,14.47,14.47,0,0,0,.37-2.31,8.35,8.35,0,0,1,.32-1.92,8.53,8.53,0,0,1,0,2,13,13,0,0,1-.22,2.36,20.53,20.53,0,0,1-.62,3.18A28.61,28.61,0,0,1,456,53.06a30.8,30.8,0,0,1-21.13,14.28,31.08,31.08,0,0,1-16.33-1.66,29.17,29.17,0,0,1-7.81-4.41,36,36,0,0,1-3.48-3.08,35.59,35.59,0,0,1-3-3.69,31,31,0,0,1,.9-36.92,35.4,35.4,0,0,1,3.15-3.53,34.62,34.62,0,0,1,3.63-2.92,29.24,29.24,0,0,1,8-4,31.07,31.07,0,0,1,16.39-.87,30.86,30.86,0,0,1,20.41,15.29,28.42,28.42,0,0,1,3.06,8.34,20.4,20.4,0,0,1,.47,3.21,13.55,13.55,0,0,1,.11,2.36A8.85,8.85,0,0,1,460.26,37.39Z"/><path class="cls-1" d="M454.17,18.39c.07.09-.48.57-1.54,1.36l-2,1.4c-.38.27-.79.57-1.24.85l-1.5.78a34.26,34.26,0,0,1-17.88,4.51l-2.71-.12-2.59-.41c-.43-.07-.85-.13-1.27-.21l-1.21-.32c-.8-.23-1.59-.41-2.34-.65a39.49,39.49,0,0,1-7.59-3.5c-4.07-2.46-6.06-4.71-5.9-4.85s2.38,1.69,6.48,3.82a46.07,46.07,0,0,0,7.47,3.06c.73.21,1.49.37,2.26.56l1.16.29,1.21.19,2.49.36,2.58.11a37,37,0,0,0,17.31-3.89l1.52-.66c.46-.24.88-.5,1.28-.72l2.08-1.15C453.43,18.59,454.11,18.29,454.17,18.39Z"/><path class="cls-1" d="M405.51,55.37c-.06-.09.48-.57,1.54-1.36l2-1.4c.39-.27.79-.57,1.25-.85l1.49-.78a34.27,34.27,0,0,1,17.89-4.51l2.7.12,2.6.41c.42.07.85.13,1.26.21l1.22.32c.79.23,1.58.41,2.33.65a38.93,38.93,0,0,1,7.59,3.5c4.08,2.46,6.06,4.71,5.91,4.85s-2.38-1.69-6.49-3.82a46.07,46.07,0,0,0-7.47-3.06c-.72-.21-1.49-.37-2.25-.56l-1.17-.29-1.21-.19-2.48-.36-2.58-.11A37.1,37.1,0,0,0,412.28,52l-1.51.66c-.46.24-.88.5-1.29.72l-2.07,1.15C406.25,55.17,405.58,55.46,405.51,55.37Z"/><path class="cls-1" d="M460.24,38.1c0,.46-13.64.5-30.43.1s-30.4-1.12-30.39-1.58,13.63-.5,30.43-.1S460.25,37.64,460.24,38.1Z"/><path class="cls-1" d="M428.43,67c-.46,0-.51-13.63-.1-30.41s1.11-30.4,1.58-30.38.5,13.62.09,30.42S428.89,67.05,428.43,67Z"/><path class="cls-1" d="M428.43,67c-.11.18-3.47-2.1-7.33-7.24a40.68,40.68,0,0,1-5.44-9.87,36.72,36.72,0,0,1-2.35-13.63,34.86,34.86,0,0,1,3.07-13.49,41.81,41.81,0,0,1,5.94-9.56c4.09-4.95,7.47-7.15,7.59-7s-2.9,2.68-6.66,7.69a45.65,45.65,0,0,0-5.46,9.45A35.05,35.05,0,0,0,415,36.28a37,37,0,0,0,2.13,13.07,44,44,0,0,0,4.95,9.72C425.58,64.25,428.6,66.81,428.43,67Z"/><path class="cls-1" d="M430.59,6.24c.11-.17,3.46,2.1,7.33,7.24a41.22,41.22,0,0,1,5.44,9.87A36.76,36.76,0,0,1,445.71,37a35,35,0,0,1-3.07,13.49A42.6,42.6,0,0,1,436.7,60c-4.1,4.95-7.48,7.14-7.59,7s2.9-2.68,6.66-7.7a45.64,45.64,0,0,0,5.45-9.45A35,35,0,0,0,444,37a37.26,37.26,0,0,0-2.13-13.07,43.44,43.44,0,0,0-5-9.71C433.43,9,430.42,6.43,430.59,6.24Z"/><path class="cls-1" d="M91.15,60.83h0A17.93,17.93,0,0,1,73.22,42.9h0A17.93,17.93,0,0,1,91.15,25h0A17.93,17.93,0,0,1,109.08,42.9h0A17.93,17.93,0,0,1,91.15,60.83Z"/><path class="cls-5" d="M91.15,31.47A11.43,11.43,0,1,0,102.58,42.9,11.43,11.43,0,0,0,91.15,31.47Zm0,2a9.41,9.41,0,0,1,5.76,2,11.62,11.62,0,0,1-4.75,3.51,42.81,42.81,0,0,0-3.32-5.18A9.26,9.26,0,0,1,91.15,33.46Zm-4.26,1a42.29,42.29,0,0,1,3.37,5.13,30.25,30.25,0,0,1-8.27,1A9.5,9.5,0,0,1,86.89,34.48ZM81.71,42.9c0-.08,0-.16,0-.24A32.2,32.2,0,0,0,91.2,41.4c.22.45.43.9.64,1.36a14.74,14.74,0,0,0-7.94,6.17A9.35,9.35,0,0,1,81.71,42.9Zm9.44,9.44a9.38,9.38,0,0,1-5.79-2,12.81,12.81,0,0,1,7.23-5.74,36.43,36.43,0,0,1,2,7.1A9.29,9.29,0,0,1,91.15,52.34Zm5.24-1.59a39.5,39.5,0,0,0-1.82-6.57,18.87,18.87,0,0,1,5.9.19A9.46,9.46,0,0,1,96.39,50.75ZM93.8,42.3c-.23-.54-.47-1.07-.73-1.6a13.63,13.63,0,0,0,5.29-3.89,9.45,9.45,0,0,1,2.21,5.56A20.32,20.32,0,0,0,93.8,42.3Z"/></g><g id="World"><path class="cls-6" d="M434.57,212.18a15,15,0,0,1,.29-3.88,17.06,17.06,0,0,1,.7-3.82,12.75,12.75,0,0,1-.18,3.89A14.89,14.89,0,0,1,434.57,212.18Z"/><path class="cls-6" d="M432.45,222a6.65,6.65,0,0,1,.34-2.5,6.29,6.29,0,0,1,.84-2.37,12.28,12.28,0,0,1-1.18,4.87Z"/><path class="cls-6" d="M429.41,231.48A6.35,6.35,0,0,1,430,229a6.23,6.23,0,0,1,1.07-2.28,12.43,12.43,0,0,1-1.64,4.73Z"/><path class="cls-6" d="M425.46,240.66a6.18,6.18,0,0,1,.81-2.38c.57-1.25,1.14-2.22,1.28-2.16a6.28,6.28,0,0,1-.81,2.38C426.16,239.76,425.59,240.73,425.46,240.66Z"/><path class="cls-6" d="M420.64,249.42a6.09,6.09,0,0,1,1-2.29,6.32,6.32,0,0,1,1.48-2,6,6,0,0,1-1,2.29C421.42,248.59,420.76,249.49,420.64,249.42Z"/><path class="cls-6" d="M415,257.67a6.35,6.35,0,0,1,1.25-2.18c.8-1.12,1.55-2,1.67-1.88a6.14,6.14,0,0,1-1.25,2.18C415.85,256.92,415.1,257.76,415,257.67Z"/><path class="cls-6" d="M408.58,265.34c-.11-.1.54-1,1.45-2s1.74-1.8,1.85-1.71-.54,1-1.46,2.05S408.68,265.43,408.58,265.34Z"/><path class="cls-6" d="M401.46,272.35c-.09-.11.64-1,1.64-1.9s1.9-1.62,2-1.52-.63.95-1.64,1.9S401.56,272.46,401.46,272.35Z"/><path class="cls-6" d="M393.71,278.65c-.09-.11.73-.89,1.81-1.73s2.05-1.44,2.14-1.32-.72.88-1.82,1.73S393.79,278.77,393.71,278.65Z"/><path class="cls-6" d="M385.39,284.19c-.07-.13.81-.82,2-1.56a6.26,6.26,0,0,1,2.26-1.11c.08.12-.81.82-2,1.55A6.35,6.35,0,0,1,385.39,284.19Z"/><path class="cls-6" d="M376.58,288.9a12,12,0,0,1,4.46-2.25c.07.13-.88.73-2.11,1.36A6.26,6.26,0,0,1,376.58,288.9Z"/><path class="cls-6" d="M367.36,292.74a6.22,6.22,0,0,1,2.23-1.14,6.36,6.36,0,0,1,2.43-.67,12.1,12.1,0,0,1-4.66,1.81Z"/><path class="cls-6" d="M357.81,295.68a6.31,6.31,0,0,1,2.33-.93,6.21,6.21,0,0,1,2.48-.42,6.3,6.3,0,0,1-2.34.92A6.1,6.1,0,0,1,357.81,295.68Z"/><path class="cls-6" d="M348,297.68a6.44,6.44,0,0,1,2.41-.7,6.3,6.3,0,0,1,2.51-.18,12,12,0,0,1-4.92.88Z"/><path class="cls-6" d="M338.08,298.72a12.1,12.1,0,0,1,5-.4,6.2,6.2,0,0,1-2.47.46A6.07,6.07,0,0,1,338.08,298.72Z"/><path class="cls-6" d="M328.08,298.8a6.43,6.43,0,0,1,2.51-.22,6.28,6.28,0,0,1,2.49.3,6.11,6.11,0,0,1-2.5.22A6.27,6.27,0,0,1,328.08,298.8Z"/><path class="cls-6" d="M318.12,297.93a13.34,13.34,0,0,1,5,.55,6.12,6.12,0,0,1-2.51,0A6.05,6.05,0,0,1,318.12,297.93Z"/><path class="cls-6" d="M308.29,296.11a6.34,6.34,0,0,1,2.5.26,6,6,0,0,1,2.39.77,12.1,12.1,0,0,1-4.89-1Z"/><path class="cls-6" d="M298.68,293.36a12.31,12.31,0,0,1,4.77,1.49,12.31,12.31,0,0,1-4.77-1.49Z"/><path class="cls-6" d="M289.38,289.7a6,6,0,0,1,2.4.73,6.24,6.24,0,0,1,2.2,1.21,12.11,12.11,0,0,1-4.6-1.94Z"/><path class="cls-6" d="M280.47,285.15a12,12,0,0,1,4.4,2.38,6.05,6.05,0,0,1-2.32-1A6.34,6.34,0,0,1,280.47,285.15Z"/><path class="cls-6" d="M272.05,279.76a6.11,6.11,0,0,1,2.22,1.18c1.14.77,2,1.49,1.93,1.61a6.27,6.27,0,0,1-2.22-1.18C272.83,280.6,272,279.87,272.05,279.76Z"/><path class="cls-6" d="M264.19,273.58c.1-.11,1,.52,2.1,1.39s1.85,1.68,1.76,1.79-1-.5-2.1-1.39S264.1,273.69,264.19,273.58Z"/><path class="cls-6" d="M257,266.68c.11-.09,1,.61,2,1.59s1.68,1.85,1.58,2-1-.6-1.95-1.58S256.86,266.78,257,266.68Z"/><path class="cls-6" d="M250.42,259.13c.12-.09.92.7,1.79,1.76A6.19,6.19,0,0,1,253.6,263c-.11.1-.91-.69-1.79-1.76A6.4,6.4,0,0,1,250.42,259.13Z"/><path class="cls-6" d="M244.64,251c.12-.08.84.79,1.61,1.93a6.19,6.19,0,0,1,1.18,2.21c-.11.09-.84-.78-1.61-1.92A6.27,6.27,0,0,1,244.64,251Z"/><path class="cls-6" d="M239.66,242.32c.13-.07.76.86,1.42,2.07a6.38,6.38,0,0,1,1,2.32c-.13.07-.77-.86-1.43-2.07A6.18,6.18,0,0,1,239.66,242.32Z"/><path class="cls-6" d="M235.53,233.22a12.15,12.15,0,0,1,2,4.6,6.22,6.22,0,0,1-1.22-2.2A6.32,6.32,0,0,1,235.53,233.22Z"/><path class="cls-6" d="M232.3,223.77a6.12,6.12,0,0,1,1,2.3,6.31,6.31,0,0,1,.51,2.46,5.93,5.93,0,0,1-1-2.3A6.4,6.4,0,0,1,232.3,223.77Z"/><path class="cls-6" d="M230,214a6.1,6.1,0,0,1,.77,2.39,6.24,6.24,0,0,1,.27,2.5,6.06,6.06,0,0,1-.77-2.39A6.24,6.24,0,0,1,230,214Z"/><path class="cls-6" d="M228.65,204.14a6.05,6.05,0,0,1,.54,2.45,6.42,6.42,0,0,1,0,2.52,12.1,12.1,0,0,1-.56-5Z"/><path class="cls-6" d="M228.27,194.15a11.93,11.93,0,0,1,.07,5,6.22,6.22,0,0,1-.3-2.5A6,6,0,0,1,228.27,194.15Z"/><path class="cls-6" d="M228.84,184.17a12.1,12.1,0,0,1-.4,5,6,6,0,0,1-.06-2.51A6.26,6.26,0,0,1,228.84,184.17Z"/><path class="cls-6" d="M230.36,174.29a6.25,6.25,0,0,1-.18,2.5,6.45,6.45,0,0,1-.7,2.42,11.93,11.93,0,0,1,.88-4.92Z"/><path class="cls-6" d="M232.81,164.59a12.18,12.18,0,0,1-1.34,4.82,12.18,12.18,0,0,1,1.34-4.82Z"/><path class="cls-6" d="M236.19,155.18a6.45,6.45,0,0,1-.66,2.43,6.25,6.25,0,0,1-1.15,2.24,6.31,6.31,0,0,1,.66-2.43A6.14,6.14,0,0,1,236.19,155.18Z"/><path class="cls-6" d="M240.46,146.15a6.41,6.41,0,0,1-.89,2.35,6.2,6.2,0,0,1-1.36,2.11,6.26,6.26,0,0,1,.89-2.35C239.72,147,240.33,146.08,240.46,146.15Z"/><path class="cls-6" d="M245.58,137.56a6.34,6.34,0,0,1-1.11,2.26c-.73,1.16-1.43,2.05-1.55,2a6,6,0,0,1,1.11-2.25C244.77,138.37,245.46,137.48,245.58,137.56Z"/><path class="cls-6" d="M251.51,129.52a6.31,6.31,0,0,1-1.32,2.13c-.85,1.09-1.62,1.9-1.74,1.82a6.33,6.33,0,0,1,1.33-2.14C250.62,130.24,251.4,129.42,251.51,129.52Z"/><path class="cls-6" d="M258.19,122.08c.1.1-.58,1-1.53,2s-1.79,1.74-1.9,1.65.58-1,1.52-2S258.09,122,258.19,122.08Z"/><path class="cls-6" d="M265.54,115.31c.09.11-.67.94-1.71,1.84a6.33,6.33,0,0,1-2.05,1.46c-.09-.11.67-.93,1.71-1.85S265.45,115.2,265.54,115.31Z"/><path class="cls-6" d="M273.51,109.28c.08.12-.76.87-1.88,1.67a6.15,6.15,0,0,1-2.18,1.25c-.08-.11.76-.86,1.88-1.67A6.14,6.14,0,0,1,273.51,109.28Z"/><path class="cls-6" d="M282,104a6.21,6.21,0,0,1-2,1.48,6.29,6.29,0,0,1-2.29,1c-.08-.13.83-.79,2-1.49A6.23,6.23,0,0,1,282,104Z"/><path class="cls-6" d="M291,99.64a12.16,12.16,0,0,1-4.54,2.09,6.33,6.33,0,0,1,2.16-1.28A6,6,0,0,1,291,99.64Z"/><path class="cls-6" d="M300.33,96.12a6.28,6.28,0,0,1-2.27,1.06,6,6,0,0,1-2.45.58,6.39,6.39,0,0,1,2.28-1.07A6.14,6.14,0,0,1,300.33,96.12Z"/><path class="cls-6" d="M310,93.51a12.08,12.08,0,0,1-4.86,1.19,6.22,6.22,0,0,1,2.37-.85A6.39,6.39,0,0,1,310,93.51Z"/><path class="cls-6" d="M319.83,91.86a12.19,12.19,0,0,1-4.94.71,6,6,0,0,1,2.43-.61A6.2,6.2,0,0,1,319.83,91.86Z"/><path class="cls-6" d="M329.8,91.17a6.27,6.27,0,0,1-2.48.37,6.13,6.13,0,0,1-2.51-.15A6.25,6.25,0,0,1,327.3,91,6,6,0,0,1,329.8,91.17Z"/><path class="cls-6" d="M339.8,91.43a6.06,6.06,0,0,1-2.51.14,6.35,6.35,0,0,1-2.49-.39,12.4,12.4,0,0,1,5,.25Z"/><path class="cls-6" d="M349.72,92.65a6.44,6.44,0,0,1-2.51-.1,6.13,6.13,0,0,1-2.44-.63,6.38,6.38,0,0,1,2.52.11A6.13,6.13,0,0,1,349.72,92.65Z"/><path class="cls-6" d="M359.49,94.8a6.15,6.15,0,0,1-2.49-.34,6.31,6.31,0,0,1-2.37-.85,6.18,6.18,0,0,1,2.49.34A6.74,6.74,0,0,1,359.49,94.8Z"/><path class="cls-6" d="M369,97.89a6.44,6.44,0,0,1-2.45-.58,6.13,6.13,0,0,1-2.27-1.08,6.05,6.05,0,0,1,2.44.58A6.12,6.12,0,0,1,369,97.89Z"/><path class="cls-6" d="M378.16,101.88a12.26,12.26,0,0,1-4.53-2.11,6.13,6.13,0,0,1,2.37.82C377.26,101.17,378.23,101.75,378.16,101.88Z"/><path class="cls-6" d="M386.9,106.74a6.35,6.35,0,0,1-2.29-1c-1.18-.7-2.09-1.36-2-1.49a6.16,6.16,0,0,1,2.29,1C386.07,106,387,106.61,386.9,106.74Z"/><path class="cls-6" d="M395.13,112.41a6,6,0,0,1-2.18-1.25c-1.11-.81-1.95-1.57-1.87-1.68a6.14,6.14,0,0,1,2.18,1.25C394.38,111.55,395.21,112.3,395.13,112.41Z"/><path class="cls-6" d="M402.77,118.86a6.33,6.33,0,0,1-2-1.46c-1-.92-1.79-1.74-1.7-1.86s1,.55,2.05,1.47S402.87,118.75,402.77,118.86Z"/><path class="cls-6" d="M409.75,126c-.1.1-.95-.64-1.89-1.65s-1.62-1.9-1.51-2,.95.63,1.89,1.65S409.86,125.91,409.75,126Z"/><path class="cls-6" d="M416,133.78c-.12.09-.89-.73-1.73-1.82a6.3,6.3,0,0,1-1.32-2.14c.11-.09.89.72,1.73,1.82A6.51,6.51,0,0,1,416,133.78Z"/><path class="cls-6" d="M421.53,142.12c-.13.08-.82-.81-1.55-2a6.13,6.13,0,0,1-1.1-2.25c.12-.08.81.8,1.54,2A6.22,6.22,0,0,1,421.53,142.12Z"/><path class="cls-6" d="M426.2,151a6.38,6.38,0,0,1-1.35-2.12,6.22,6.22,0,0,1-.88-2.35c.13-.07.73.88,1.35,2.12A6.13,6.13,0,0,1,426.2,151Z"/><path class="cls-6" d="M430,160.19a12,12,0,0,1-1.79-4.67,12.46,12.46,0,0,1,1.79,4.67Z"/><path class="cls-6" d="M432.91,169.75a6.11,6.11,0,0,1-.92-2.34,6.17,6.17,0,0,1-.42-2.48,6.21,6.21,0,0,1,.92,2.34A6.47,6.47,0,0,1,432.91,169.75Z"/><path class="cls-6" d="M434.86,179.55a12.44,12.44,0,0,1-.86-4.92,6.17,6.17,0,0,1,.69,2.41A6,6,0,0,1,434.86,179.55Z"/><path class="cls-6" d="M435.87,189.49a12.09,12.09,0,0,1-.38-5,12.09,12.09,0,0,1,.38,5Z"/><path class="cls-6" d="M435.9,199.49a6.55,6.55,0,0,1-.21-2.51,6.39,6.39,0,0,1,.31-2.49,6,6,0,0,1,.21,2.5A5.93,5.93,0,0,1,435.9,199.49Z"/><path class="cls-7" d="M420,186.14c-.09-1-.21-2-.35-3s-.29-2.12-.47-3.16c.18,1,.33,2.1.47,3.16S419.92,185.12,420,186.14Z"/><path class="cls-6" d="M411.91,198.67c-.88-2-1.08-4.17-1.66-6.24a4.11,4.11,0,0,0-1.88-2.8,16.56,16.56,0,0,0-2.24-.51c-2.64-.79-3.36-4.48-5.86-5.62a8.32,8.32,0,0,0-2.52-.52c-3.35-.4-6.81-1.56-8.91-4.19a16.94,16.94,0,0,0-2.06-2.54,2.48,2.48,0,0,0-3-.28c.71,1.41,1.4,2.82,2.09,4.22a11.2,11.2,0,0,0,2.35,3.52,3.78,3.78,0,0,0,3.94.85,2.64,2.64,0,0,1,1.33-.47,1.42,1.42,0,0,1,.86.55c1.82,2,1.23,5.37-.55,7.43s-4.39,3.12-6.92,4.13a5.42,5.42,0,0,1-2.83.55c-1.75-.33-2.68-2.23-3.19-3.94-1.14-3.79-1.7-7.9-4-11.09a13.73,13.73,0,0,1-2.13-3.09c-.48-1.28-.37-2.76-1.13-3.88s-2.48-1.85-2.59-3.26a2.59,2.59,0,0,1,1.65-2.29c.91-.43,1.93-.56,2.86-.94.37-.16.77-.43.79-.82,0-.6-.82-.84-1-1.39s.41-1.2.68-1.8c.57-1.39-.87-2.79-2.26-3.35s-3.07-1-3.72-2.33a8.11,8.11,0,0,1-.45-2,4.42,4.42,0,0,0-3.31-3.65c-1.73-.28-3.66,1.26-3.37,3a12.37,12.37,0,0,0,1.25,2.56c.4.88.29,2.17-.62,2.46-1.48.45-2.91-2.26-4.15-1.33.51,1.74,1,3.47,1.51,5.23-1.95,1-4.28-.81-5.11-2.84s-.86-4.34-1.85-6.29-3.66-3.42-5.36-2c-.08,2.51,3.24,3.53,4.71,5.56,1.06,1.47.9,3.86-.67,4.79s-4-.69-3.43-2.4c.21-.59.71-1.09.76-1.72.06-.79-.6-1.43-1.21-1.94l-2.84-2.39a6.21,6.21,0,0,0-2-1.27c-1.95-.56-3.9,1-4.93,2.76s-1.61,3.8-3,5.25c-2,2.12-5.93,2.25-7.85,0s-.95-6.37,1.89-7.18c1.08-.29,2.43-.26,3-1.21,1-1.68-1.84-3.83-.87-5.52.75-1.3,2.73-.71,4.17-1.15s2.23-1.88,3.08-3.12,2.15-2.47,3.62-2.15a4.48,4.48,0,0,1,.15-2.57,1.57,1.57,0,0,1,2.16-.79c-.72,1.19.15,2.84,1.4,3.43a7.53,7.53,0,0,0,4.11.3c1.39-.17,3.12-.68,3.24-2.06a4.75,4.75,0,0,1,0-1.36c.61-1.65,3.66.62,4.83-.7.68-.7-.07-1.93-1-2.15a10.24,10.24,0,0,0-2.86.14c-1,0-2.14-.47-2.18-1.43s1-1.62,1.13-2.55c.19-1.59-2.5-2-3.45-.71s-.6,3.05-.32,4.62.44,3.42-.72,4.52c-.5.75-1.78.35-2.2-.44a6.32,6.32,0,0,1-.41-2.64,2.28,2.28,0,0,0-1.35-2.16,4.84,4.84,0,0,0-1.87.21c-2.46.3-4.17-2.88-3.39-5.23s3-3.87,5.15-5.07c1.58-.87,3.55-1.69,5.11-.8.74.41,1.25,1.11,2,1.54,1.24.73,2.78.46,4.21.49a9.82,9.82,0,0,1,6.14,2.39c.64.58,1.23,1.54.74,2.23s-2.08.89-1.81,1.75a3.06,3.06,0,0,0,3.84-2.47,2.57,2.57,0,0,1,1.48,2.09,4.58,4.58,0,0,1,6.71.55,5.8,5.8,0,0,0,1.25,1.6c.56.37,1.55.18,1.62-.48a1.32,1.32,0,0,0-.11-.62c-.34-1-.69-1.91-1-2.86,1.31-.7,2.86.4,3.75,1.59,3.31,4.42,5.67,1.76,10.33,2.48,3.15.48,4.53,2.5,6.31,5,5.46,7.51,12.66,13.67,17.62,21.52.52.82,1,1.66,1.45,2.5-.08-.21-.15-.42-.24-.63a87,87,0,0,0-7.2-14.65c-.61-1-1.23-2-1.86-2.92-.4-.6-.81-1.21-1.22-1.78-.52-.77-1.07-1.5-1.62-2.24-.44-.59-.88-1.17-1.33-1.73-.31-.4-.64-.8-1-1.19s-.71-.89-1.1-1.33L398.12,136a4.81,4.81,0,0,0-.38-.42c-.41-.48-.85-.95-1.29-1.41a.57.57,0,0,0-.12-.15l-.37-.38c-.36-.39-.74-.77-1.1-1.16-.61-.62-1.23-1.24-1.87-1.83s-1.06-1-1.61-1.51-1-.88-1.45-1.3-1-.84-1.46-1.25-1.2-1-1.82-1.49h0c-1.7-1.37-3.47-2.67-5.28-3.89-.45-.31-.89-.61-1.34-.9s-.92-.6-1.37-.88-.92-.58-1.38-.85-.94-.56-1.4-.83-.75-.44-1.13-.63a5.7,5.7,0,0,0-.58-.33c-.81-.45-1.63-.89-2.45-1.3-.41-.21-.82-.42-1.24-.62s-1.06-.52-1.59-.76a1.15,1.15,0,0,0-.25-.12c-.48-.22-1-.45-1.45-.66l-2.08-.88c-.79-.32-1.58-.65-2.38-.94s-1.78-.67-2.69-1-1.82-.61-2.74-.89-1.83-.54-2.77-.79c-1.83-.5-3.7-.94-5.58-1.32a.54.54,0,0,1-.1,0c-.72-.14-1.44-.28-2.16-.39l-.14,0-1-.16c-1.34-.22-2.7-.4-4.07-.56-.15,0-.32,0-.49-.06-.4,0-.79-.08-1.2-.12-.91-.09-1.81-.16-2.73-.22s-1.9-.11-2.87-.14-2-.05-3-.05c-2.66,0-5.29.11-7.89.35-.62,0-1.23.1-1.83.17s-1.27.14-1.91.23-1.27.16-1.89.26l-1.9.31c-.53.09-1.08.19-1.62.3-1.33.26-2.64.54-3.94.85-.61.14-1.22.3-1.82.46l-1.81.5c-1,.28-2,.59-3,.9h0l-2.37.81-.06,0c-.8.28-1.58.58-2.37.89l-.13,0c-.72.28-1.44.58-2.14.87-.89.37-1.77.77-2.63,1.16s-1.46.68-2.16,1l-2.28,1.16-.08,0c-.72.39-1.44.78-2.15,1.19s-1.45.83-2.17,1.29h0c-.68.41-1.34.82-2,1.24l-.75.49c-.71.46-1.39.92-2.08,1.4-.85.58-1.67,1.19-2.49,1.8s-1.42,1.08-2.11,1.64a88.46,88.46,0,0,0-11.11,10.52c-1.2,1.33-2.33,2.68-3.43,4.07-.93,1.18-1.84,2.38-2.7,3.63q-1.15,1.62-2.25,3.3,1.1-1.68,2.25-3.3c.23,0,.45-.06.68-.07a10.52,10.52,0,0,0,3.76-.61,21.87,21.87,0,0,0,2.77-2.15c2.45-1.75,6.48-2.07,7.14-5,.23-1,0-2.06.33-3,.69-1.77,3.05-2,4.94-2,.81,0,1.75.11,2.12.82a2,2,0,0,1-.08,1.64,15.39,15.39,0,0,1-6.49,8c-2.45,1.5-5.66,2.66-6.34,5.45.34.95,2.06.88,2.2,1.87.1.79-.91,1.2-1.28,1.91-.54,1,.69,2.28,1.86,2.23a5.17,5.17,0,0,0,3-1.7c2.57-2.38,5.27-5,6.2-8.35.4-1.39.54-3,1.67-4a2.76,2.76,0,0,1,4.2,1.34c1.11-.62,2.85-1.09,3.43.07a5.89,5.89,0,0,1,.24,1.33c.37,1.8,2.84,2.62,3.09,4.45.3,2.1-2.4,3.19-4.5,3.51l-5.73.91a5.14,5.14,0,0,0-2.37.76,1.84,1.84,0,0,0-.7,2.22,5.2,5.2,0,0,0,1,1c1.59,1.59.29,4.85-1.95,4.92-.76,0-1.51-.25-2.27-.28-2.26-.1-4.05,1.89-5.13,3.88s-1.88,4.27-3.68,5.62c-2.91,2.19-7.93,1.68-9.34,5.05a8,8,0,0,0,0,4.33,5.84,5.84,0,0,1-.53,4.26c-.83,1.18-3,1.44-3.63.11a3.33,3.33,0,0,1-.08-1.88c.34-2.09.66-4.18,1-6.27.24-1.56.45-3.29-.47-4.57-1.28-1.77-4.17-1.61-5.83-.18s-2.35,3.66-2.81,5.79a25.26,25.26,0,0,1-1.61,5.62h0c-.3,1.75-.54,3.53-.72,5.32s-.32,3.66-.39,5.52a8.45,8.45,0,0,0,.73-.67c.88-.92,2.68-4.81,4.29-2.9a1.46,1.46,0,0,1,0,1.77c-.5.63-1.49.77-1.87,1.46s.19,1.84.95,2.38A8.43,8.43,0,0,1,248.4,195c1,1.49,0,3.73,1,5.25.86,1.29,2.69,1.38,4.26,1.55l.54.08c.44-3.1,1.89-5.63,6.13-6.59,5.85-1.33,13.53,3.51,16.82,7.92,3.68,4.93,5.41,11.91,11,14.38,4,1.77,9.74,1.13,11.71,5.07,1.75,3.53-1.3,7.5-1.77,11.42-.3,2.58.55,5.15.75,7.74s-.58,5.62-2.94,6.71c-1.31.59-3,.52-4,1.51-1.87,1.78-.33,5.45-2.21,7.23a9.92,9.92,0,0,1-2.39,1.26c-4.22,2.13-4.11,8.35-2.15,12.65l.21.46a89.28,89.28,0,0,0,87.67,2.21h0A85.29,85.29,0,0,0,381,269a88.25,88.25,0,0,0,11.09-8.81,87.2,87.2,0,0,0,6.78-7.08c1.5-1.72,2.91-3.51,4.26-5.35.7-1,1.37-1.89,2-2.87a87,87,0,0,0,11.1-22.84A87.2,87.2,0,0,0,419.65,207c.27-2,.48-4,.62-6.09a5.14,5.14,0,0,1-3.59,1.6C414.53,202.44,412.77,200.65,411.91,198.67Z"/><path class="cls-7" d="M309.89,129.09c-1.77,1.06-2.71,3.06-4.07,4.6s-3.81,2.65-5.42,1.36a3.68,3.68,0,0,1-1.21-2.63,6.7,6.7,0,0,1,1-4.09c.77-1.25,1.94-2.23,2.59-3.55s.52-3.25-.82-3.87c-.72-.33-1.63-.2-2.27-.67-1.15-.85-.32-2.85,1-3.36s2.82-.11,4.25,0c5.18.33,9-3.06,12.87-5.88,3-2.18,9.47-4.77,13-2.53,1.4.89,1.94,3.18.63,4.19-.59.45-1.41.55-1.95,1s-.75,1.58-1.13,2.39c-1,2.09-3.8,2.85-4.71,5-.55,1.28-.3,2.87-1.15,4a4.85,4.85,0,0,1-2.9,1.44l-6.75,1.6A10.4,10.4,0,0,0,309.89,129.09Z"/><path class="cls-7" d="M370.21,239c-2.24,3.37-2.64,7.58-3.27,11.58s-1.68,8.25-4.76,10.89-8.72,2.48-10.41-1.2c-.92-2-.45-4.35-.95-6.49-.65-2.79-2.87-4.94-3.92-7.6a21.09,21.09,0,0,1-1-7.22c-.4-13.34-3.66-27.26-12.74-37a8.76,8.76,0,0,0-4-2.79,5.06,5.06,0,0,0-5.21,1.8c-.73,1-1.1,2.19-2,3-1.95,1.77-5.33.5-6.63-1.79s-1.12-5.08-.9-7.7l.81-9.75c.14-1.69.33-3.52,1.44-4.81,1.59-1.83,4.43-1.92,6.37-3.37,2.54-1.9,2.88-5.54,4.49-8.28s6.62-3.9,7.36-.81c5.31-11.37,17,5.51,24,4.24,2-.36,4-1.34,6-1,3.6.5,5.46,4.47,6.69,7.89q3,8.53,6.1,17.05c.77,2.17,1.78,4.57,3.92,5.4,1.64.64,3.55.15,5.21.76,4.37,1.59,2.95,8.48-.57,11.53s-8.47,5-10.14,9.32c-1.27,3.27-.26,7.11-1.62,10.34C373.64,235.2,371.6,236.87,370.21,239Z"/><path class="cls-7" d="M386.83,242.67c-1.44.2-3.14-.51-4.23.45a4.64,4.64,0,0,0-1,2.28,4.92,4.92,0,0,1-2,2.78,3.07,3.07,0,0,1-3.33-.06,2.25,2.25,0,0,1-.46-3.11,15.43,15.43,0,0,1,1.25-1c1.9-1.8.6-5.15,2.05-7.29.86-1.27,2.2-2.55,3.14-3.83.73-1,1-1.77,2.32-2C390.32,229.69,393,241.81,386.83,242.67Z"/><path class="cls-6" d="M253.61,218.45c-.28-2.56.57-5.12.61-7.7,0-1.78-.1-3.66-.13-5.46a24.71,24.71,0,0,1-4.53-.63,1.36,1.36,0,0,1-.83-.42,1.71,1.71,0,0,1-.19-1c-.11-2-2-3.33-3.78-4.34A15,15,0,0,0,242,197.6c0,.21,0,.41,0,.62a89.08,89.08,0,0,0,5.67,28.32,85.84,85.84,0,0,0,5.46,11.7c.87,1.62,1.83,3.22,2.84,4.78,1.24,1.94,2.54,3.83,3.94,5.65s2.68,3.47,4.14,5.1a86,86,0,0,0,6.31,6.5q2.94,2.76,6.15,5.23c-4.88-13.08-9.47-26.43-17.8-37.56C256.54,225,254,222.06,253.61,218.45Z"/><path class="cls-7" d="M242,193.37c0,.54,0,1.08,0,1.61s0,.87,0,1.31c0-.44,0-.87,0-1.31S242,193.91,242,193.37Z"/><g class="cls-8"><path class="cls-7" d="M281.52,269.12c.75.5,1.51,1,2.28,1.48l1.62,1-1.62-1C283,270.12,282.27,269.62,281.52,269.12Z"/></g><path class="cls-6" d="M386.37,213.22c3.52-3.05,4.94-9.94.57-11.53-1.66-.61-3.57-.12-5.21-.76-2.14-.83-3.15-3.23-3.92-5.4q-3-8.52-6.1-17.05c-1.23-3.42-3.09-7.39-6.69-7.89-2-.29-4,.69-6,1-7,1.27-18.71-15.61-24-4.24-.74-3.09-5.76-1.93-7.36.81s-2,6.38-4.49,8.28c-1.94,1.45-4.78,1.54-6.37,3.37-1.11,1.29-1.3,3.12-1.44,4.81l-.81,9.75c-.22,2.62-.4,5.42.9,7.7s4.68,3.56,6.63,1.79c.89-.82,1.26-2,2-3a5.06,5.06,0,0,1,5.21-1.8,8.76,8.76,0,0,1,4,2.79c9.08,9.78,12.34,23.7,12.74,37a21.09,21.09,0,0,0,1,7.22c1.05,2.66,3.27,4.81,3.92,7.6.5,2.14,0,4.49.95,6.49,1.69,3.68,7.34,3.83,10.41,1.2s4.14-6.89,4.76-10.89,1-8.21,3.27-11.58c1.39-2.1,3.43-3.77,4.4-6.09,1.36-3.23.35-7.07,1.62-10.34C377.9,218.19,382.85,216.27,386.37,213.22Z"/><g class="cls-8"><path class="cls-7" d="M242,191.27v0h0v0c0,.17,0,.32,0,.49,0,.53,0,1.07,0,1.61,0-.54,0-1.08,0-1.61C242,191.59,242,191.44,242,191.27Z"/></g><g class="cls-8"><path class="cls-7" d="M242,196.29c0,.44,0,.88,0,1.31h0C242,197.17,242,196.73,242,196.29Z"/></g><path class="cls-6" d="M254.25,201.83l-.54-.08c-1.57-.17-3.4-.26-4.26-1.55-1-1.52,0-3.76-1-5.25a8.43,8.43,0,0,0-2.23-1.66c-.76-.54-1.41-1.56-.95-2.38s1.37-.83,1.87-1.46a1.46,1.46,0,0,0,0-1.77c-1.61-1.91-3.41,2-4.29,2.9a8.45,8.45,0,0,1-.73.67v0c0,.17,0,.32,0,.49,0,.53,0,1.07,0,1.61s0,1.08,0,1.61,0,.87,0,1.31,0,.88,0,1.31a15,15,0,0,1,2.76,1.35c1.73,1,3.67,2.33,3.78,4.34a1.71,1.71,0,0,0,.19,1,1.36,1.36,0,0,0,.83.42,24.71,24.71,0,0,0,4.53.63"/><path class="cls-6" d="M254.09,205.29c0,1.8.16,3.68.13,5.46,0,2.58-.89,5.14-.61,7.7.41,3.61,2.93,6.58,5.12,9.49,8.33,11.13,12.92,24.48,17.8,37.56h0c.9.72,1.82,1.4,2.75,2.06.74.53,1.48,1.05,2.23,1.56s1.51,1,2.28,1.48l1.62,1-.21-.46c-2-4.3-2.07-10.52,2.15-12.65a9.92,9.92,0,0,0,2.39-1.26c1.88-1.78.34-5.45,2.21-7.23,1.06-1,2.72-.92,4-1.51,2.36-1.09,3.12-4.11,2.94-6.71s-1.05-5.16-.75-7.74c.47-3.92,3.52-7.89,1.77-11.42-2-3.94-7.69-3.3-11.71-5.07-5.63-2.47-7.36-9.45-11-14.38-3.29-4.41-11-9.25-16.82-7.92-4.24,1-5.69,3.49-6.13,6.59"/><path class="cls-6" d="M247.57,169c1.66-1.43,4.55-1.59,5.83.18.92,1.28.71,3,.47,4.57-.33,2.09-.65,4.18-1,6.27a3.33,3.33,0,0,0,.08,1.88c.63,1.33,2.8,1.07,3.63-.11a5.84,5.84,0,0,0,.53-4.26,8,8,0,0,1,0-4.33c1.41-3.37,6.43-2.86,9.34-5.05,1.8-1.35,2.61-3.63,3.68-5.62s2.87-4,5.13-3.88c.76,0,1.51.31,2.27.28,2.24-.07,3.54-3.33,1.95-4.92a5.2,5.2,0,0,1-1-1,1.84,1.84,0,0,1,.7-2.22,5.14,5.14,0,0,1,2.37-.76l5.73-.91c2.1-.32,4.8-1.41,4.5-3.51-.25-1.83-2.72-2.65-3.09-4.45a5.89,5.89,0,0,0-.24-1.33c-.58-1.16-2.32-.69-3.43-.07a2.76,2.76,0,0,0-4.2-1.34c-1.13.93-1.27,2.57-1.67,4-.93,3.39-3.63,6-6.2,8.35a5.17,5.17,0,0,1-3,1.7c-1.17.05-2.4-1.2-1.86-2.23.37-.71,1.38-1.12,1.28-1.91-.14-1-1.86-.92-2.2-1.87.68-2.79,3.89-4,6.34-5.45a15.39,15.39,0,0,0,6.49-8,2,2,0,0,0,.08-1.64c-.37-.71-1.31-.82-2.12-.82-1.89,0-4.25.22-4.94,2-.37.95-.1,2-.33,3-.66,2.94-4.69,3.26-7.14,5a21.87,21.87,0,0,1-2.77,2.15,10.52,10.52,0,0,1-3.76.61c-.23,0-.45,0-.68.07q-1.15,1.62-2.25,3.3c-.72,1.12-1.41,2.26-2.08,3.41a88,88,0,0,0-7.75,17.26q-1,3.16-1.83,6.44t-1.34,6.63a25.48,25.48,0,0,0,1.61-5.63C245.22,172.65,245.91,170.42,247.57,169Z"/><path class="cls-6" d="M322.44,125c.85-1.11.6-2.7,1.15-4,.91-2.13,3.73-2.89,4.71-5,.38-.81.47-1.79,1.13-2.39s1.36-.6,1.95-1c1.31-1,.77-3.3-.63-4.19-3.5-2.24-9.95.35-13,2.53-3.89,2.82-7.69,6.21-12.87,5.88-1.43-.09-2.91-.49-4.25,0s-2.16,2.51-1,3.36c.64.47,1.55.34,2.27.67,1.34.62,1.47,2.55.82,3.87s-1.82,2.3-2.59,3.55a6.7,6.7,0,0,0-1,4.09,3.68,3.68,0,0,0,1.21,2.63c1.61,1.29,4.06.19,5.42-1.36s2.3-3.54,4.07-4.6a10.4,10.4,0,0,1,2.9-1l6.75-1.6A4.85,4.85,0,0,0,322.44,125Z"/><g class="cls-8"><path class="cls-7" d="M420.42,193.75c0-1.28,0-2.56-.11-3.82.07,1.26.11,2.54.11,3.82,0,.41,0,.82,0,1.23,0,2-.07,3.93-.18,5.88.11-2,.18-3.9.18-5.88C420.45,194.57,420.45,194.16,420.42,193.75Z"/></g><g class="cls-8"><path class="cls-7" d="M414.84,163.81c.43,1.13.83,2.26,1.2,3.41-.37-1.15-.77-2.28-1.2-3.41,0,0,0,0,0,0h0Z"/></g><path class="cls-6" d="M420.42,193.75c0-1.28,0-2.56-.11-3.82s-.17-2.53-.3-3.79c-.09-1-.21-2-.35-3s-.29-2.12-.47-3.16a86.48,86.48,0,0,0-2.09-9.27c-.33-1.17-.68-2.32-1.06-3.47s-.77-2.28-1.2-3.41v0h0c-.45-.84-.93-1.68-1.45-2.5-5-7.85-12.16-14-17.62-21.52-1.78-2.45-3.16-4.47-6.31-5-4.66-.72-7,1.94-10.33-2.48-.89-1.19-2.44-2.29-3.75-1.59.34.95.69,1.9,1,2.86a1.32,1.32,0,0,1,.11.62c-.07.66-1.06.85-1.62.48a5.8,5.8,0,0,1-1.25-1.6,4.58,4.58,0,0,0-6.71-.55,2.57,2.57,0,0,0-1.48-2.09,3.06,3.06,0,0,1-3.84,2.47c-.27-.86,1.27-1,1.81-1.75s-.1-1.65-.74-2.23a9.82,9.82,0,0,0-6.14-2.39c-1.43,0-3,.24-4.21-.49-.72-.43-1.23-1.13-2-1.54-1.56-.89-3.53-.07-5.11.8-2.16,1.2-4.39,2.72-5.15,5.07s.93,5.53,3.39,5.23a4.84,4.84,0,0,1,1.87-.21,2.28,2.28,0,0,1,1.35,2.16,6.32,6.32,0,0,0,.41,2.64c.42.79,1.7,1.19,2.2.44,1.16-1.1,1-2.95.72-4.52s-.61-3.33.32-4.62,3.64-.88,3.45.71c-.11.93-1.17,1.61-1.13,2.55s1.22,1.47,2.18,1.43a10.24,10.24,0,0,1,2.86-.14c.95.22,1.7,1.45,1,2.15-1.17,1.32-4.22-.95-4.83.7a4.75,4.75,0,0,0,0,1.36c-.12,1.38-1.85,1.89-3.24,2.06a7.53,7.53,0,0,1-4.11-.3c-1.25-.59-2.12-2.24-1.4-3.43a1.57,1.57,0,0,0-2.16.79,4.48,4.48,0,0,0-.15,2.57c-1.47-.32-2.79.92-3.62,2.15s-1.65,2.68-3.08,3.12-3.42-.15-4.17,1.15c-1,1.69,1.85,3.84.87,5.52-.57,1-1.92.92-3,1.21-2.84.81-3.83,5-1.89,7.18s5.8,2.09,7.85,0c1.43-1.45,2-3.5,3-5.25s3-3.32,4.93-2.76a6.21,6.21,0,0,1,2,1.27l2.84,2.39c.61.51,1.27,1.15,1.21,1.94-.05.63-.55,1.13-.76,1.72-.59,1.71,1.88,3.33,3.43,2.4s1.73-3.32.67-4.79c-1.47-2-4.79-3-4.71-5.56,1.7-1.39,4.37.07,5.36,2s1,4.27,1.85,6.29,3.16,3.82,5.11,2.84c-.51-1.76-1-3.49-1.51-5.23,1.24-.93,2.67,1.78,4.15,1.33.91-.29,1-1.58.62-2.46a12.37,12.37,0,0,1-1.25-2.56c-.29-1.72,1.64-3.26,3.37-3a4.42,4.42,0,0,1,3.31,3.65,8.11,8.11,0,0,0,.45,2c.65,1.35,2.33,1.76,3.72,2.33s2.83,2,2.26,3.35c-.27.6-.91,1.18-.68,1.8s1,.79,1,1.39c0,.39-.42.66-.79.82-.93.38-1.95.51-2.86.94a2.59,2.59,0,0,0-1.65,2.29c.11,1.41,1.8,2.09,2.59,3.26s.65,2.6,1.13,3.88a13.73,13.73,0,0,0,2.13,3.09c2.34,3.19,2.9,7.3,4,11.09.51,1.71,1.44,3.61,3.19,3.94a5.42,5.42,0,0,0,2.83-.55c2.53-1,5.15-2.08,6.92-4.13s2.37-5.41.55-7.43a1.42,1.42,0,0,0-.86-.55,2.64,2.64,0,0,0-1.33.47,3.78,3.78,0,0,1-3.94-.85,11.2,11.2,0,0,1-2.35-3.52c-.69-1.4-1.38-2.81-2.09-4.22a2.48,2.48,0,0,1,3,.28,16.94,16.94,0,0,1,2.06,2.54c2.1,2.63,5.56,3.79,8.91,4.19a8.32,8.32,0,0,1,2.52.52c2.5,1.14,3.22,4.83,5.86,5.62a16.56,16.56,0,0,1,2.24.51,4.11,4.11,0,0,1,1.88,2.8c.58,2.07.78,4.26,1.66,6.24s2.62,3.77,4.77,3.8a5.14,5.14,0,0,0,3.59-1.6h0c.11-2,.18-3.9.18-5.88C420.45,194.57,420.45,194.16,420.42,193.75Z"/><path class="cls-6" d="M384.5,230.84c-1.33.26-1.59,1-2.32,2-.94,1.28-2.28,2.56-3.14,3.83-1.45,2.14-.15,5.49-2.05,7.29a15.43,15.43,0,0,0-1.25,1,2.25,2.25,0,0,0,.46,3.11,3.07,3.07,0,0,0,3.33.06,4.92,4.92,0,0,0,2-2.78,4.64,4.64,0,0,1,1-2.28c1.09-1,2.79-.25,4.23-.45C393,241.81,390.32,229.69,384.5,230.84Z"/><g class="cls-9"><path d="M386.37,213.22c3.52-3.05,4.94-9.94.57-11.53-1.66-.61-3.57-.12-5.21-.76-2.14-.83-3.15-3.23-3.92-5.4q-3-8.52-6.1-17.05c-1.23-3.42-3.09-7.39-6.69-7.89-2-.29-4,.69-6,1-7,1.27-18.71-15.61-24-4.24-.74-3.09-5.76-1.93-7.36.81s-2,6.38-4.49,8.28c-1.94,1.45-4.78,1.54-6.37,3.37-1.11,1.29-1.3,3.12-1.44,4.81l-.81,9.75c-.22,2.62-.4,5.42.9,7.7s4.68,3.56,6.63,1.79c.89-.82,1.26-2,2-3a5.06,5.06,0,0,1,5.21-1.8,8.76,8.76,0,0,1,4,2.79c9.08,9.78,12.34,23.7,12.74,37a21.09,21.09,0,0,0,1,7.22c1.05,2.66,3.27,4.81,3.92,7.6.5,2.14,0,4.49.95,6.49,1.69,3.68,7.34,3.83,10.41,1.2s4.14-6.89,4.76-10.89,1-8.21,3.27-11.58c1.39-2.1,3.43-3.77,4.4-6.09,1.36-3.23.35-7.07,1.62-10.34C377.9,218.19,382.85,216.27,386.37,213.22Z"/></g><g class="cls-9"><path d="M276.53,265.5h0c.9.72,1.82,1.4,2.75,2.06.74.53,1.48,1.05,2.23,1.56s1.51,1,2.28,1.48l1.62,1-.21-.46c-2-4.3-2.07-10.52,2.15-12.65a9.92,9.92,0,0,0,2.39-1.26c1.88-1.78.34-5.45,2.21-7.23,1.06-1,2.72-.92,4-1.51,2.36-1.09,3.12-4.11,2.94-6.71s-1.05-5.16-.75-7.74c.47-3.92,3.52-7.89,1.77-11.42-2-3.94-7.69-3.3-11.71-5.07-5.63-2.47-7.36-9.45-11-14.38-3.29-4.41-11-9.25-16.82-7.92-4.24,1-5.69,3.49-6.13,6.59l-.54-.08c-1.57-.17-3.4-.26-4.26-1.55-1-1.52,0-3.76-1-5.25a8.43,8.43,0,0,0-2.23-1.66c-.76-.54-1.41-1.56-.95-2.38s1.37-.83,1.87-1.46a1.46,1.46,0,0,0,0-1.77c-1.61-1.91-3.41,2-4.29,2.9a8.45,8.45,0,0,1-.73.67v0c0,.17,0,.32,0,.49,0,.53,0,1.07,0,1.61s0,1.08,0,1.61,0,.87,0,1.31,0,.88,0,1.31c0,.21,0,.41,0,.62a89.08,89.08,0,0,0,5.67,28.32,85.84,85.84,0,0,0,5.46,11.7c.87,1.62,1.83,3.22,2.84,4.78,1.24,1.94,2.54,3.83,3.94,5.65s2.68,3.47,4.14,5.1a86,86,0,0,0,6.31,6.5q2.94,2.76,6.15,5.23"/></g><g class="cls-9"><path d="M247.57,169c1.66-1.43,4.55-1.59,5.83.18.92,1.28.71,3,.47,4.57-.33,2.09-.65,4.18-1,6.27a3.33,3.33,0,0,0,.08,1.88c.63,1.33,2.8,1.07,3.63-.11a5.84,5.84,0,0,0,.53-4.26,8,8,0,0,1,0-4.33c1.41-3.37,6.43-2.86,9.34-5.05,1.8-1.35,2.61-3.63,3.68-5.62s2.87-4,5.13-3.88c.76,0,1.51.31,2.27.28,2.24-.07,3.54-3.33,1.95-4.92a5.2,5.2,0,0,1-1-1,1.84,1.84,0,0,1,.7-2.22,5.14,5.14,0,0,1,2.37-.76l5.73-.91c2.1-.32,4.8-1.41,4.5-3.51-.25-1.83-2.72-2.65-3.09-4.45a5.89,5.89,0,0,0-.24-1.33c-.58-1.16-2.32-.69-3.43-.07a2.76,2.76,0,0,0-4.2-1.34c-1.13.93-1.27,2.57-1.67,4-.93,3.39-3.63,6-6.2,8.35a5.17,5.17,0,0,1-3,1.7c-1.17.05-2.4-1.2-1.86-2.23.37-.71,1.38-1.12,1.28-1.91-.14-1-1.86-.92-2.2-1.87.68-2.79,3.89-4,6.34-5.45a15.39,15.39,0,0,0,6.49-8,2,2,0,0,0,.08-1.64c-.37-.71-1.31-.82-2.12-.82-1.89,0-4.25.22-4.94,2-.37.95-.1,2-.33,3-.66,2.94-4.69,3.26-7.14,5a21.87,21.87,0,0,1-2.77,2.15,10.52,10.52,0,0,1-3.76.61c-.23,0-.45,0-.68.07q-1.15,1.62-2.25,3.3c-.72,1.12-1.41,2.26-2.08,3.41a88,88,0,0,0-7.75,17.26q-1,3.16-1.83,6.44t-1.34,6.63a25.48,25.48,0,0,0,1.61-5.63C245.22,172.65,245.91,170.42,247.57,169Z"/></g><g class="cls-9"><path d="M322.44,125c.85-1.11.6-2.7,1.15-4,.91-2.13,3.73-2.89,4.71-5,.38-.81.47-1.79,1.13-2.39s1.36-.6,1.95-1c1.31-1,.77-3.3-.63-4.19-3.5-2.24-9.95.35-13,2.53-3.89,2.82-7.69,6.21-12.87,5.88-1.43-.09-2.91-.49-4.25,0s-2.16,2.51-1,3.36c.64.47,1.55.34,2.27.67,1.34.62,1.47,2.55.82,3.87s-1.82,2.3-2.59,3.55a6.7,6.7,0,0,0-1,4.09,3.68,3.68,0,0,0,1.21,2.63c1.61,1.29,4.06.19,5.42-1.36s2.3-3.54,4.07-4.6a10.4,10.4,0,0,1,2.9-1l6.75-1.6A4.85,4.85,0,0,0,322.44,125Z"/></g><g class="cls-9"><path d="M420.42,193.75c0-1.28,0-2.56-.11-3.82s-.17-2.53-.3-3.79c-.09-1-.21-2-.35-3s-.29-2.12-.47-3.16a86.48,86.48,0,0,0-2.09-9.27c-.33-1.17-.68-2.32-1.06-3.47s-.77-2.28-1.2-3.41v0h0c-.45-.84-.93-1.68-1.45-2.5-5-7.85-12.16-14-17.62-21.52-1.78-2.45-3.16-4.47-6.31-5-4.66-.72-7,1.94-10.33-2.48-.89-1.19-2.44-2.29-3.75-1.59.34.95.69,1.9,1,2.86a1.32,1.32,0,0,1,.11.62c-.07.66-1.06.85-1.62.48a5.8,5.8,0,0,1-1.25-1.6,4.58,4.58,0,0,0-6.71-.55,2.57,2.57,0,0,0-1.48-2.09,3.06,3.06,0,0,1-3.84,2.47c-.27-.86,1.27-1,1.81-1.75s-.1-1.65-.74-2.23a9.82,9.82,0,0,0-6.14-2.39c-1.43,0-3,.24-4.21-.49-.72-.43-1.23-1.13-2-1.54-1.56-.89-3.53-.07-5.11.8-2.16,1.2-4.39,2.72-5.15,5.07s.93,5.53,3.39,5.23a4.84,4.84,0,0,1,1.87-.21,2.28,2.28,0,0,1,1.35,2.16,6.32,6.32,0,0,0,.41,2.64c.42.79,1.7,1.19,2.2.44,1.16-1.1,1-2.95.72-4.52s-.61-3.33.32-4.62,3.64-.88,3.45.71c-.11.93-1.17,1.61-1.13,2.55s1.22,1.47,2.18,1.43a10.24,10.24,0,0,1,2.86-.14c.95.22,1.7,1.45,1,2.15-1.17,1.32-4.22-.95-4.83.7a4.75,4.75,0,0,0,0,1.36c-.12,1.38-1.85,1.89-3.24,2.06a7.53,7.53,0,0,1-4.11-.3c-1.25-.59-2.12-2.24-1.4-3.43a1.57,1.57,0,0,0-2.16.79,4.48,4.48,0,0,0-.15,2.57c-1.47-.32-2.79.92-3.62,2.15s-1.65,2.68-3.08,3.12-3.42-.15-4.17,1.15c-1,1.69,1.85,3.84.87,5.52-.57,1-1.92.92-3,1.21-2.84.81-3.83,5-1.89,7.18s5.8,2.09,7.85,0c1.43-1.45,2-3.5,3-5.25s3-3.32,4.93-2.76a6.21,6.21,0,0,1,2,1.27l2.84,2.39c.61.51,1.27,1.15,1.21,1.94-.05.63-.55,1.13-.76,1.72-.59,1.71,1.88,3.33,3.43,2.4s1.73-3.32.67-4.79c-1.47-2-4.79-3-4.71-5.56,1.7-1.39,4.37.07,5.36,2s1,4.27,1.85,6.29,3.16,3.82,5.11,2.84c-.51-1.76-1-3.49-1.51-5.23,1.24-.93,2.67,1.78,4.15,1.33.91-.29,1-1.58.62-2.46a12.37,12.37,0,0,1-1.25-2.56c-.29-1.72,1.64-3.26,3.37-3a4.42,4.42,0,0,1,3.31,3.65,8.11,8.11,0,0,0,.45,2c.65,1.35,2.33,1.76,3.72,2.33s2.83,2,2.26,3.35c-.27.6-.91,1.18-.68,1.8s1,.79,1,1.39c0,.39-.42.66-.79.82-.93.38-1.95.51-2.86.94a2.59,2.59,0,0,0-1.65,2.29c.11,1.41,1.8,2.09,2.59,3.26s.65,2.6,1.13,3.88a13.73,13.73,0,0,0,2.13,3.09c2.34,3.19,2.9,7.3,4,11.09.51,1.71,1.44,3.61,3.19,3.94a5.42,5.42,0,0,0,2.83-.55c2.53-1,5.15-2.08,6.92-4.13s2.37-5.41.55-7.43a1.42,1.42,0,0,0-.86-.55,2.64,2.64,0,0,0-1.33.47,3.78,3.78,0,0,1-3.94-.85,11.2,11.2,0,0,1-2.35-3.52c-.69-1.4-1.38-2.81-2.09-4.22a2.48,2.48,0,0,1,3,.28,16.94,16.94,0,0,1,2.06,2.54c2.1,2.63,5.56,3.79,8.91,4.19a8.32,8.32,0,0,1,2.52.52c2.5,1.14,3.22,4.83,5.86,5.62a16.56,16.56,0,0,1,2.24.51,4.11,4.11,0,0,1,1.88,2.8c.58,2.07.78,4.26,1.66,6.24s2.62,3.77,4.77,3.8a5.14,5.14,0,0,0,3.59-1.6h0c.11-2,.18-3.9.18-5.88C420.45,194.57,420.45,194.16,420.42,193.75Z"/></g><g class="cls-9"><path d="M384.5,230.84c-1.33.26-1.59,1-2.32,2-.94,1.28-2.28,2.56-3.14,3.83-1.45,2.14-.15,5.49-2.05,7.29a15.43,15.43,0,0,0-1.25,1,2.25,2.25,0,0,0,.46,3.11,3.07,3.07,0,0,0,3.33.06,4.92,4.92,0,0,0,2-2.78,4.64,4.64,0,0,1,1-2.28c1.09-1,2.79-.25,4.23-.45C393,241.81,390.32,229.69,384.5,230.84Z"/></g></g><g id="Location"><path class="cls-6" d="M343.33,47.3a13.37,13.37,0,0,0-11.07-5.62s-10.36,0-13.42,9.28a15.06,15.06,0,0,0,.49,10.45,19,19,0,0,0,1.93,3.6c2.68,3.86,11,14.41,11,14.41h1.81C336.4,76.2,342.24,65.48,344,62,346.2,57.72,346.53,51.71,343.33,47.3ZM334,64.46a8.85,8.85,0,1,1,8.85-8.85A8.85,8.85,0,0,1,334,64.46Z"/><g class="cls-10"><path d="M343.33,47.3a13.37,13.37,0,0,0-11.07-5.62s-10.36,0-13.42,9.28a15.06,15.06,0,0,0,.49,10.45,19,19,0,0,0,1.93,3.6c2.68,3.86,11,14.41,11,14.41h1.81C336.4,76.2,342.24,65.48,344,62,346.2,57.72,346.53,51.71,343.33,47.3ZM334,64.46a8.85,8.85,0,1,1,8.85-8.85A8.85,8.85,0,0,1,334,64.46Z"/></g><path class="cls-6" d="M345.15,47.38a13.36,13.36,0,0,0-11.07-5.63s-10.35,0-13.42,9.28a15.05,15.05,0,0,0,.49,10.45,18.67,18.67,0,0,0,1.93,3.6c2.68,3.87,11,14.42,11,14.42s9.62-13.24,11.74-17.39C348,57.8,348.36,51.78,345.15,47.38ZM334,64.53a8.85,8.85,0,1,1,8.85-8.85A8.79,8.79,0,0,1,334,64.53Z"/><path class="cls-6" d="M334,46.76a8.85,8.85,0,0,0-8.34,5.89,7.58,7.58,0,1,1,.92,7.79A8.85,8.85,0,1,0,334,46.76Z"/><g class="cls-10"><path d="M334,46.76a8.85,8.85,0,0,0-8.34,5.89,7.58,7.58,0,1,1,.92,7.79A8.85,8.85,0,1,0,334,46.76Z"/></g></g><g id="Online_Elements" data-name="Online Elements"><path class="cls-6" d="M432.75,163.18c.07.12-.33.53-.91.9s-1.11.59-1.19.47.33-.53.91-.9S432.67,163.06,432.75,163.18Z"/><path class="cls-6" d="M441.18,157.74c.08.12-.8.83-2,1.58a6.32,6.32,0,0,1-2.25,1.14c-.08-.13.8-.83,2-1.58A6.24,6.24,0,0,1,441.18,157.74Z"/><path class="cls-6" d="M449.65,152.36c.07.12-.81.82-2,1.56a6.27,6.27,0,0,1-2.26,1.12c-.08-.12.81-.82,2-1.56A6.07,6.07,0,0,1,449.65,152.36Z"/><path class="cls-6" d="M458.15,147c.08.13-.81.82-2,1.55a6,6,0,0,1-2.27,1.11c-.07-.12.82-.81,2-1.55A6.42,6.42,0,0,1,458.15,147Z"/><path class="cls-6" d="M466.69,141.75c.07.12-.82.81-2,1.53a6.3,6.3,0,0,1-2.28,1.1c-.07-.12.82-.81,2-1.54A6.17,6.17,0,0,1,466.69,141.75Z"/><path class="cls-6" d="M475.26,136.53a6.5,6.5,0,0,1-2,1.52,6.4,6.4,0,0,1-2.28,1.08c-.08-.12.82-.81,2-1.53A6.12,6.12,0,0,1,475.26,136.53Z"/><path class="cls-6" d="M483.86,131.36c.08.12-.83.8-2,1.51a6.14,6.14,0,0,1-2.28,1.06c-.08-.12.83-.8,2-1.51A6.15,6.15,0,0,1,483.86,131.36Z"/><path class="cls-6" d="M492.5,126.25a6.43,6.43,0,0,1-2,1.49,6.34,6.34,0,0,1-2.29,1.06c-.08-.13.83-.8,2-1.5A6,6,0,0,1,492.5,126.25Z"/><path class="cls-6" d="M499,122.45c.07.13-.35.51-.95.86s-1.14.52-1.21.4.35-.51.95-.85S498.92,122.33,499,122.45Z"/><path class="cls-6" d="M255.54,113.34c.13-.06.45.42.71,1.06s.37,1.2.24,1.25-.45-.42-.72-1.06S255.4,113.39,255.54,113.34Z"/><path class="cls-6" d="M251.47,103.48a7.41,7.41,0,0,1,1.26,2.37,6.85,6.85,0,0,1,.77,2.56,7.15,7.15,0,0,1-1.26-2.36A7.05,7.05,0,0,1,251.47,103.48Z"/><path class="cls-6" d="M247.4,93.63A7,7,0,0,1,248.66,96a6.85,6.85,0,0,1,.77,2.56,7,7,0,0,1-1.25-2.36A7,7,0,0,1,247.4,93.63Z"/><path class="cls-6" d="M243.33,83.77a7.07,7.07,0,0,1,1.26,2.36,6.87,6.87,0,0,1,.77,2.57,7.28,7.28,0,0,1-1.25-2.37A7,7,0,0,1,243.33,83.77Z"/><path class="cls-6" d="M239.26,73.91a7.19,7.19,0,0,1,1.26,2.37,7.23,7.23,0,0,1,.78,2.56A6.75,6.75,0,0,1,240,76.48,7.19,7.19,0,0,1,239.26,73.91Z"/><path class="cls-6" d="M235.19,64.06a6.75,6.75,0,0,1,1.26,2.36,7.19,7.19,0,0,1,.78,2.57A7,7,0,0,1,236,66.62,7.23,7.23,0,0,1,235.19,64.06Z"/><path class="cls-6" d="M232.2,56.82c.14-.06.46.42.72,1s.37,1.2.24,1.26-.46-.42-.72-1.06S232.07,56.87,232.2,56.82Z"/><path class="cls-6" d="M222.11,178.7c0-.14.55-.29,1.24-.32s1.25.05,1.26.19-.54.29-1.23.33S222.12,178.85,222.11,178.7Z"/><path class="cls-6" d="M211.3,179.15a14.22,14.22,0,0,1,5.41-.2,7.18,7.18,0,0,1-2.69.36A7,7,0,0,1,211.3,179.15Z"/><path class="cls-6" d="M200.49,179.42a7.47,7.47,0,0,1,2.7-.32,7.34,7.34,0,0,1,2.71.21,7.57,7.57,0,0,1-2.7.32A7.26,7.26,0,0,1,200.49,179.42Z"/><path class="cls-6" d="M189.67,179.5a7.45,7.45,0,0,1,2.7-.27,7.16,7.16,0,0,1,2.71.26,7.49,7.49,0,0,1-2.71.27A7.09,7.09,0,0,1,189.67,179.5Z"/><path class="cls-6" d="M178.85,179.41a13.94,13.94,0,0,1,5.41.07,14.47,14.47,0,0,1-5.41-.07Z"/><path class="cls-6" d="M168,179.12a7.35,7.35,0,0,1,2.71-.17,7,7,0,0,1,2.7.34,7.48,7.48,0,0,1-2.71.18A7.14,7.14,0,0,1,168,179.12Z"/><path class="cls-6" d="M160.13,178.8c0-.14.57-.23,1.26-.2s1.24.17,1.24.31-.57.24-1.26.21S160.12,179,160.13,178.8Z"/><path class="cls-6" d="M232.87,233.09c0-.14.49-.37,1.17-.5s1.29-.08,1.29.08-.51.3-1.19.44S232.9,233.24,232.87,233.09Z"/><path class="cls-6" d="M222.94,235.34a6.5,6.5,0,0,1,2.42-.83,6.61,6.61,0,0,1,2.54-.32,6.5,6.5,0,0,1-2.42.83A6.6,6.6,0,0,1,222.94,235.34Z"/><path class="cls-6" d="M213,237.65a12.74,12.74,0,0,1,5-1.16,12.74,12.74,0,0,1-5,1.16Z"/><path class="cls-6" d="M203.12,240a6.5,6.5,0,0,1,2.42-.83,6.61,6.61,0,0,1,2.54-.32,6.5,6.5,0,0,1-2.42.83A6.38,6.38,0,0,1,203.12,240Z"/><path class="cls-6" d="M193.21,242.23a12.48,12.48,0,0,1,5-1.13,12.58,12.58,0,0,1-5,1.13Z"/><path class="cls-6" d="M183.28,244.48a12.7,12.7,0,0,1,5-1.12,12.25,12.25,0,0,1-5,1.12Z"/><path class="cls-6" d="M173.34,246.7a6.57,6.57,0,0,1,2.43-.81,6.25,6.25,0,0,1,2.54-.29,6.28,6.28,0,0,1-2.42.8A6.63,6.63,0,0,1,173.34,246.7Z"/><path class="cls-6" d="M163.4,248.87a6.55,6.55,0,0,1,2.43-.79,6.47,6.47,0,0,1,2.54-.29,6.37,6.37,0,0,1-2.43.8A6.56,6.56,0,0,1,163.4,248.87Z"/><path class="cls-6" d="M153.45,251a6.45,6.45,0,0,1,2.44-.78,6.56,6.56,0,0,1,2.54-.28,6.36,6.36,0,0,1-2.44.79A6.44,6.44,0,0,1,153.45,251Z"/><path class="cls-6" d="M143.49,253.09a6.34,6.34,0,0,1,2.44-.77,6.44,6.44,0,0,1,2.54-.27,6.45,6.45,0,0,1-2.44.78A6.54,6.54,0,0,1,143.49,253.09Z"/><path class="cls-6" d="M133.51,255.13a12.55,12.55,0,0,1,5-1,12.55,12.55,0,0,1-5,1Z"/><path class="cls-6" d="M123.53,257.11a6.51,6.51,0,0,1,2.45-.74,6.29,6.29,0,0,1,2.54-.24,6.53,6.53,0,0,1-2.44.75A6.44,6.44,0,0,1,123.53,257.11Z"/><path class="cls-6" d="M113.53,259a6.49,6.49,0,0,1,2.46-.73,6.07,6.07,0,0,1,2.54-.22,6.4,6.4,0,0,1-2.45.73A6.54,6.54,0,0,1,113.53,259Z"/><path class="cls-6" d="M103.53,260.91a6.49,6.49,0,0,1,2.45-.72,6.42,6.42,0,0,1,2.55-.21,6.1,6.1,0,0,1-2.45.72A6.42,6.42,0,0,1,103.53,260.91Z"/><path class="cls-6" d="M93.51,262.71A6.29,6.29,0,0,1,96,262a6.4,6.4,0,0,1,2.55-.19,6.65,6.65,0,0,1-2.46.7A6.4,6.4,0,0,1,93.51,262.71Z"/><path class="cls-6" d="M86,264c0-.14.51-.35,1.19-.46s1.25-.1,1.27,0-.5.35-1.18.47S86,264.16,86,264Z"/><path class="cls-6" d="M254.55,276.66a6.19,6.19,0,0,1,1.39-2.09c.89-1.06,1.69-1.85,1.8-1.76a6.19,6.19,0,0,1-1.39,2.09C255.46,276,254.66,276.75,254.55,276.66Z"/><path class="cls-6" d="M248.16,284.35a6.13,6.13,0,0,1,1.4-2.09c.88-1.06,1.68-1.85,1.79-1.75A6.29,6.29,0,0,1,250,282.6C249.07,283.66,248.27,284.44,248.16,284.35Z"/><path class="cls-6" d="M242,291.76c-.11-.09.46-1,1.28-1.95s1.56-1.7,1.67-1.61-.46,1-1.27,1.95S242.12,291.85,242,291.76Z"/><path class="cls-6" d="M224.78,129.49a6.12,6.12,0,0,1-2.21-1.19c-1.14-.77-2-1.5-1.92-1.62a6.32,6.32,0,0,1,2.21,1.19C224,128.65,224.86,129.37,224.78,129.49Z"/><path class="cls-6" d="M233.05,135.11a6.12,6.12,0,0,1-2.21-1.19c-1.14-.77-2-1.5-1.92-1.62a6.32,6.32,0,0,1,2.21,1.19C232.27,134.27,233.13,135,233.05,135.11Z"/><path class="cls-6" d="M240.44,140.14c-.08.12-.87-.28-1.77-.89s-1.56-1.21-1.48-1.33.87.28,1.77.9S240.52,140,240.44,140.14Z"/><path class="cls-6" d="M426.76,248.71a6.51,6.51,0,0,1-2.45-.58,6.39,6.39,0,0,1-2.27-1.07,12.11,12.11,0,0,1,4.72,1.65Z"/><path class="cls-6" d="M436.2,252a6.11,6.11,0,0,1-2.44-.57,6.39,6.39,0,0,1-2.28-1.07,6.17,6.17,0,0,1,2.45.57A6.39,6.39,0,0,1,436.2,252Z"/><path class="cls-6" d="M445.64,255.3a12.26,12.26,0,0,1-4.72-1.65,6.51,6.51,0,0,1,2.45.58A6.39,6.39,0,0,1,445.64,255.3Z"/><path class="cls-6" d="M455.08,258.6a12.26,12.26,0,0,1-4.72-1.65,6.29,6.29,0,0,1,2.45.58A6.2,6.2,0,0,1,455.08,258.6Z"/><path class="cls-6" d="M464.52,261.9a12.26,12.26,0,0,1-4.72-1.65,12.11,12.11,0,0,1,4.72,1.65Z"/><path class="cls-6" d="M474,265.2a12.26,12.26,0,0,1-4.72-1.65A12.11,12.11,0,0,1,474,265.2Z"/><path class="cls-6" d="M483.4,268.49a6.14,6.14,0,0,1-2.44-.57,6.23,6.23,0,0,1-2.28-1.08,6.48,6.48,0,0,1,2.45.58A6.39,6.39,0,0,1,483.4,268.49Z"/><path class="cls-6" d="M492.84,271.79a6.05,6.05,0,0,1-2.44-.58,6.23,6.23,0,0,1-2.28-1.07,6.48,6.48,0,0,1,2.45.58A6.39,6.39,0,0,1,492.84,271.79Z"/><path class="cls-6" d="M502.29,275.09a6.26,6.26,0,0,1-2.45-.58,6,6,0,0,1-2.27-1.07A6.05,6.05,0,0,1,500,274,6.23,6.23,0,0,1,502.29,275.09Z"/><path class="cls-6" d="M511.73,278.39a6.48,6.48,0,0,1-2.45-.58,6.39,6.39,0,0,1-2.27-1.07,6.05,6.05,0,0,1,2.44.58A6.12,6.12,0,0,1,511.73,278.39Z"/><path class="cls-6" d="M520.5,281.45c0,.14-1-.07-2.11-.46s-2-.82-1.94-.95,1,.07,2.11.46S520.55,281.32,520.5,281.45Z"/><path class="cls-6" d="M435.52,225.94a12.35,12.35,0,0,1-4.87-1.14,12.35,12.35,0,0,1,4.87,1.14Z"/><path class="cls-6" d="M445.25,228.23a6.36,6.36,0,0,1-2.49-.32,6.2,6.2,0,0,1-2.37-.83,6.36,6.36,0,0,1,2.49.32A6.2,6.2,0,0,1,445.25,228.23Z"/><path class="cls-6" d="M455,230.51a12.35,12.35,0,0,1-4.87-1.14,12.35,12.35,0,0,1,4.87,1.14Z"/><path class="cls-6" d="M464.72,232.8a6.37,6.37,0,0,1-2.49-.32,6.2,6.2,0,0,1-2.37-.83,6.36,6.36,0,0,1,2.49.32A6.2,6.2,0,0,1,464.72,232.8Z"/><path class="cls-6" d="M409.51,271.63c-.11.09-.92-.69-1.81-1.75a6.13,6.13,0,0,1-1.4-2.09c.11-.09.92.7,1.8,1.75A6.25,6.25,0,0,1,409.51,271.63Z"/><path class="cls-6" d="M416,279.21c-.11.1-.93-.67-1.83-1.71s-1.55-2-1.44-2.06.93.67,1.83,1.71S416.13,279.12,416,279.21Z"/><path class="cls-6" d="M422.67,286.69c-.11.09-.94-.66-1.87-1.69s-1.58-1.94-1.47-2,.94.66,1.86,1.69A6.42,6.42,0,0,1,422.67,286.69Z"/><path class="cls-6" d="M429.44,294c-.1.1-.95-.64-1.89-1.65s-1.62-1.91-1.51-2,.95.64,1.89,1.65S429.55,293.94,429.44,294Z"/><path class="cls-6" d="M436.35,301.28c-.11.1-1-.63-1.92-1.62s-1.65-1.89-1.55-2,1,.63,1.92,1.63S436.45,301.18,436.35,301.28Z"/><path class="cls-6" d="M443.37,308.39c-.1.11-1-.61-1.95-1.58s-1.68-1.86-1.58-2,1,.61,2,1.59S443.47,308.29,443.37,308.39Z"/><path class="cls-6" d="M450.52,315.39c-.1.1-1-.6-2-1.56s-1.72-1.82-1.62-1.93,1,.6,2,1.56S450.62,315.28,450.52,315.39Z"/><path class="cls-6" d="M454.56,319.23a.28.28,0,0,1-.39,0,.26.26,0,1,1,.36-.38A.28.28,0,0,1,454.56,319.23Z"/><rect class="cls-11" x="447.1" y="317.69" width="26.5" height="39.32" transform="translate(55.63 739.75) rotate(-81.07)"/><path class="cls-7" d="M477.73,353.52h0l-38.86-6.1v0l4.12-26.2h0l38.87,6.11v0Zm-38.83-6.15,38.79,6.09,4.11-26.13L443,321.23Z"/><path class="cls-7" d="M481.9,327.64a2.21,2.21,0,0,1-.41.29l-1.23.78-4.57,2.81-15.16,9.16-.12.08-.1-.11-.24-.26L448,327.11l-3.63-4.05-1-1.12a.26.26,0,1,1,.06,0l1,1.06,3.71,4c3.14,3.4,7.43,8.06,12.16,13.21l.24.26-.22,0,15.21-9.08,4.62-2.71,1.27-.72A3.31,3.31,0,0,1,481.9,327.64Z"/><path class="cls-7" d="M439,347.72c-.07-.07,3.42-3.2,7.78-7s7.95-6.79,8-6.72-3.42,3.2-7.79,7S439,347.79,439,347.72Z"/><path class="cls-7" d="M467.71,335.71c.09,0,2.41,4,5.19,9s5,9.1,4.89,9.14-2.41-4-5.2-9S467.62,335.76,467.71,335.71Z"/><path class="cls-4" d="M557,164.94a12.13,12.13,0,0,1,2.87-1.25l.59-2.84,4.81-.08.69,2.82a11.72,11.72,0,0,1,2.92,1.14l2.42-1.59,3.46,3.34-1.5,2.48a12.1,12.1,0,0,1,1.24,2.87l2.85.6.08,4.8-2.82.69a11.75,11.75,0,0,1-1.15,2.92l1.6,2.43-3.34,3.45-2.48-1.5a12,12,0,0,1-2.88,1.25l-.59,2.84-4.8.08-.69-2.82a12.12,12.12,0,0,1-2.92-1.14L555,187l-3.45-3.34,1.5-2.48a12,12,0,0,1-1.25-2.88l-2.84-.59-.09-4.8,2.83-.69a11.72,11.72,0,0,1,1.14-2.92l-1.59-2.43,3.34-3.45,2.48,1.5Zm2.56,6.4a5.16,5.16,0,1,0,7.29-.13A5.15,5.15,0,0,0,559.59,171.34Z"/><path class="cls-4" d="M559.59,171.34a3.87,3.87,0,0,1,1-.84,5.19,5.19,0,0,1,3.36-.8,5.3,5.3,0,0,1,2.29.82,5.28,5.28,0,0,1-2,9.62,4.94,4.94,0,0,1-1.58,0,5.09,5.09,0,0,1-1.47-.42A5.24,5.24,0,0,1,559,178a5.22,5.22,0,0,1-.22-5.64,3.85,3.85,0,0,1,.81-1s-.31.34-.71,1a5.18,5.18,0,0,0-.57,3.3,5.05,5.05,0,0,0,.89,2.14,5,5,0,0,0,2.06,1.67,4.57,4.57,0,0,0,1.38.39,4.52,4.52,0,0,0,1.51,0,5,5,0,0,0,4.09-5.76,4.58,4.58,0,0,0-.44-1.37,5.08,5.08,0,0,0-7.19-2.12C559.92,171,559.62,171.37,559.59,171.34Z"/><path class="cls-4" d="M557,164.94l-.16-.08-.48-.28-1.87-1.1h.06L551.26,167v-.1l1.6,2.42,0,0,0,0a11.92,11.92,0,0,0-1.13,2.9v.06h-.06l-2.82.7.08-.1q0,2.26.09,4.8l-.09-.11,2.85.58.07,0,0,.07a11.68,11.68,0,0,0,1.24,2.84l0,.07,0,.06c-.47.77-1,1.62-1.5,2.49l0-.17,3.46,3.34-.17,0,2.42-1.59.07-.05.08,0a11.3,11.3,0,0,0,2.88,1.13l.08,0,0,.09.7,2.82-.15-.11,4.81-.09-.14.12c.18-.9.39-1.87.59-2.84l0-.09.08,0a11.37,11.37,0,0,0,2.84-1.23h0l.08-.05.07.05,2.48,1.51-.18,0,3.34-3.46,0,.19-1.59-2.43,0-.08,0-.07a11.57,11.57,0,0,0,1.13-2.88l0-.09.09,0,2.82-.69-.11.14c0-1.64-.05-3.24-.08-4.8l.11.13-2.84-.6h-.08l0-.08a11.85,11.85,0,0,0-1.23-2.84l0-.07,0-.06c.51-.86,1-1.68,1.51-2.48l0,.15-3.45-3.35.14,0L569,164.82l-.05,0-.06,0a11.32,11.32,0,0,0-2.88-1.15h-.06v-.06c-.25-1-.47-2-.69-2.82l.09.06-4.8.07.06-.06c-.24,1.14-.44,2.07-.61,2.84v0h0a11.75,11.75,0,0,0-2.2.84l-.52.27c-.11.07-.17.1-.17.09l.16-.11c.11-.06.28-.17.51-.29a11.68,11.68,0,0,1,2.19-.89l0,0c.15-.77.34-1.71.57-2.84v-.06h0l4.81-.1h.07v.07l.71,2.81-.08-.07a11.91,11.91,0,0,1,3,1.15h-.11l2.42-1.59.08-.05.06.06,3.47,3.33.07.07-.05.08L573.39,169v-.13a12.18,12.18,0,0,1,1.26,2.9l-.1-.09,2.85.58.1,0v.1c0,1.57.06,3.17.09,4.81v.11l-.1,0-2.82.69.1-.1a12.15,12.15,0,0,1-1.16,2.95v-.15l1.59,2.43.06.09-.08.09-3.34,3.45-.08.09-.1-.06-2.48-1.51h.15a12.33,12.33,0,0,1-2.91,1.26l.11-.11c-.21,1-.41,1.94-.6,2.84l0,.11h-.12l-4.8.08h-.12l0-.11c-.24-1-.48-1.94-.69-2.82l.1.1a12.1,12.1,0,0,1-2.95-1.16h.15L555,187.13l-.09.06-.08-.07-3.46-3.35-.07-.07,0-.09c.53-.86,1-1.71,1.51-2.48v.13a12.15,12.15,0,0,1-1.26-2.9l.1.08-2.85-.59-.09,0v-.1c0-1.68,0-3.29-.07-4.8v-.08l.08,0,2.82-.69-.07.07a11.65,11.65,0,0,1,1.17-2.93v.09l-1.58-2.44,0-.05,0,0,3.35-3.44,0,0,0,0,1.83,1.13.47.3Z"/><path class="cls-12" d="M602,180.31a24.42,24.42,0,0,1,5.91-2.54l1.24-5.83,9.86-.14,1.4,5.79a24.17,24.17,0,0,1,6,2.38l5-3.25,7.07,6.88-3.11,5.08a24,24,0,0,1,2.54,5.91l5.84,1.24.14,9.86-5.8,1.4a24.53,24.53,0,0,1-2.37,6l3.25,5-6.88,7.07L627,222a24,24,0,0,1-5.91,2.54l-1.23,5.84-9.87.14-1.4-5.8a24.25,24.25,0,0,1-6-2.38l-5,3.26-7.07-6.88,3.11-5.09a24.07,24.07,0,0,1-2.55-5.91l-5.83-1.23-.14-9.87,5.8-1.4a23.84,23.84,0,0,1,2.37-6l-3.25-5,6.88-7.07,5.08,3.1Zm5.22,13.16a10.58,10.58,0,1,0,15-.21A10.58,10.58,0,0,0,607.22,193.47Z"/><g class="cls-13"><path class="cls-12" d="M602,180.31a24.42,24.42,0,0,1,5.91-2.54l1.24-5.83,9.86-.14,1.4,5.79a24.17,24.17,0,0,1,6,2.38l5-3.25,7.07,6.88-3.11,5.08a24,24,0,0,1,2.54,5.91l5.84,1.24.14,9.86-5.8,1.4a24.53,24.53,0,0,1-2.37,6l3.25,5-6.88,7.07L627,222a24,24,0,0,1-5.91,2.54l-1.23,5.84-9.87.14-1.4-5.8a24.25,24.25,0,0,1-6-2.38l-5,3.26-7.07-6.88,3.11-5.09a24.07,24.07,0,0,1-2.55-5.91l-5.83-1.23-.14-9.87,5.8-1.4a23.84,23.84,0,0,1,2.37-6l-3.25-5,6.88-7.07,5.08,3.1Zm5.22,13.16a10.58,10.58,0,1,0,15-.21A10.58,10.58,0,0,0,607.22,193.47Z"/></g><path class="cls-14" d="M545.56,207.45a17.63,17.63,0,0,1,4.26-1.85l.88-4.22,7.14-.13,1,4.19a17.26,17.26,0,0,1,4.33,1.7l3.61-2.36,5.13,5-2.23,3.68a17.7,17.7,0,0,1,1.85,4.27l4.22.88.13,7.13-4.19,1a18,18,0,0,1-1.7,4.33l2.36,3.6-5,5.13-3.68-2.23a17.7,17.7,0,0,1-4.27,1.85l-.88,4.23-7.13.12-1-4.19a17.56,17.56,0,0,1-4.33-1.7l-3.6,2.36-5.14-4.95,2.24-3.69a17.57,17.57,0,0,1-1.86-4.27l-4.22-.87-.12-7.14,4.19-1a17,17,0,0,1,1.7-4.32l-2.36-3.61,5-5.13,3.69,2.23Zm3.8,9.51a7.65,7.65,0,1,0,10.82-.19A7.65,7.65,0,0,0,549.36,217Z"/><path class="cls-7" d="M549.36,217s.09-.16.3-.4a6.49,6.49,0,0,1,1.09-.91,7.65,7.65,0,0,1,5-1.25,7.91,7.91,0,0,1,6.27,4.35,8,8,0,0,1-10.46,10.84,7.89,7.89,0,0,1-4.56-6.12,7.63,7.63,0,0,1,1.06-5.08,6.12,6.12,0,0,1,.88-1.12c.23-.22.36-.33.38-.31s-.43.53-1,1.58a7.61,7.61,0,0,0-.79,4.85,7.35,7.35,0,0,0,12.51,3.93A7.35,7.35,0,0,0,555.73,215a7.7,7.7,0,0,0-4.82,1C549.88,216.51,549.41,217,549.36,217Z"/><path class="cls-7" d="M545.56,207.45a8.37,8.37,0,0,1-.95-.5l-2.8-1.63.15,0-4.9,5.19,0-.25,2.39,3.59.08.11-.07.13a17.4,17.4,0,0,0-1.65,4.28l0,.15-.15,0-4.19,1.05.22-.27c.05,2.24.1,4.63.15,7.13l-.24-.3,4.22.87.19,0,.06.19a17.45,17.45,0,0,0,1.83,4.18l.1.17-.1.18-2.23,3.69,0-.43,5.14,4.94-.45,0,3.6-2.37.19-.13.19.11a17,17,0,0,0,4.24,1.66l.22.06.06.22c.32,1.31.67,2.74,1,4.19l-.38-.29,7.13-.13-.37.31.88-4.23,0-.23.22-.06a17.29,17.29,0,0,0,4.17-1.81H564l0,0,.06,0,.12.07.23.14.46.28.93.57,1.84,1.11-.49.06,5-5.13-.05.48-2.36-3.6-.12-.2.11-.2a17.18,17.18,0,0,0,1.67-4.23l.06-.23.22,0,4.19-1-.29.37q0-3.66-.11-7.14l.29.35-4.22-.89-.21,0-.06-.21a17.36,17.36,0,0,0-1.8-4.18l-.11-.18.11-.17,2.24-3.68.05.4-5.11-5,.37,0-3.61,2.35-.15.09-.14-.08a17.3,17.3,0,0,0-4.26-1.7l-.15,0,0-.15c-.36-1.52-.69-2.9-1-4.19l.23.17-7.13.07.16-.14c-.36,1.67-.67,3.05-.92,4.21l0,.08-.07,0a18,18,0,0,0-3.27,1.23c-.68.33-1,.53-1,.5a1.29,1.29,0,0,1,.23-.17c.16-.11.4-.26.74-.45a16.33,16.33,0,0,1,3.26-1.35l-.09.09c.23-1.16.5-2.55.83-4.23l0-.14h.14l7.13-.18H558l0,.19c.33,1.29.67,2.66,1.05,4.18l-.18-.19a17.6,17.6,0,0,1,4.4,1.71H563l3.59-2.38.2-.13.18.16,5.15,4.94.18.18-.13.22L570,213.6v-.35a18,18,0,0,1,1.9,4.34l-.27-.25,4.23.87.28.06v.29c0,2.32.09,4.7.14,7.13v.3l-.29.07-4.19,1,.28-.28a18.15,18.15,0,0,1-1.74,4.42v-.4l2.36,3.61.17.26-.21.22-5,5.14-.21.22-.27-.16L565.37,239l-.92-.57-.47-.28-.23-.14-.11-.07-.06,0,0,0h0c.19,0-.4,0,.41,0h0a18.23,18.23,0,0,1-4.36,1.89l.27-.3-.88,4.23-.06.3h-.31l-7.14.12h-.3l-.08-.3-1-4.19.28.28a17.73,17.73,0,0,1-4.42-1.75h.39l-3.61,2.36-.25.16-.21-.21-5.12-5-.2-.2.15-.23,2.24-3.68v.35a18,18,0,0,1-1.88-4.36l.25.23-4.22-.89-.24-.05v-.25c0-2.5-.06-4.89-.09-7.13v-.23l.22-.05,4.19-1-.18.19a17.36,17.36,0,0,1,1.75-4.38v.24l-2.34-3.62-.09-.14.11-.11,5-5.08.07-.07.09.05,2.69,1.71.69.46A1.19,1.19,0,0,1,545.56,207.45Z"/><path class="cls-7" d="M549.36,217a5.71,5.71,0,0,1,.7-.65,7.47,7.47,0,0,1,2.41-1.33,7.73,7.73,0,1,1,3.25,15,7.84,7.84,0,0,1-4.41-.78,7.89,7.89,0,0,1-4.28-8,8.25,8.25,0,0,1,.68-2.42,7.94,7.94,0,0,1,.62-1.1,6,6,0,0,1,.36-.52l.19-.25.09-.12,0-.05h0l0,.05a.41.41,0,0,0,.11.41l.5,0a4.63,4.63,0,0,0-.66.71,7.35,7.35,0,0,0-.15,8.6A7.49,7.49,0,0,0,562,224.77a7.54,7.54,0,0,0-5.2-9.84,7.65,7.65,0,0,0-4.26.1,8,8,0,0,0-3.16,1.93,2.31,2.31,0,0,1,.63-.76,7.15,7.15,0,0,1,2.43-1.46,7.87,7.87,0,0,1,4.47-.24,8,8,0,0,1,4.83,3.41,8.17,8.17,0,1,1-13.4-.41,5.87,5.87,0,0,1,.8-.86l.25-.2.25.22a.45.45,0,0,1,.11.45l0,.09,0,.05-.06.08-.09.12-.19.23-.33.48a7.06,7.06,0,0,0-.56,1,7,7,0,0,0-.61,2.18,7.26,7.26,0,0,0,.81,4.29A7.13,7.13,0,1,0,561,218.54a7.31,7.31,0,0,0-4.28-3.29,7.57,7.57,0,0,0-4.16,0A12.54,12.54,0,0,0,549.36,217Z"/><path class="cls-7" d="M545.56,207.45l-3.75-2.25h.11l-5,5.24,0-.17,2.42,3.68-.3.09v-.13l.31.07a17.52,17.52,0,0,0-1.69,4.32l-.31-.17.1-.11.18.32-4.31,1.06.15-.2c.05,2.31.09,4.78.14,7.39l-.18-.22,4.36.91-.22.41-.13-.13.39-.24a18.11,18.11,0,0,0,1.85,4.25l-.47.13v-.2l.47.14-2.31,3.82,0-.33,5.37,5.17-.35,0,3.74-2.46.17.54H546l.13-.54a17.76,17.76,0,0,0,4.31,1.68l-.28.51-.16-.15.51-.29c.33,1.33.7,2.83,1.07,4.35l-.31-.23,7.48-.14-.31.25c.28-1.34.59-2.85.91-4.39l.57.29-.16.17-.33-.54a17.75,17.75,0,0,0,4.25-1.86l.16.64h-.23l.18-.63,3.84,2.32-.43.05,5.19-5.39,0,.44c-.76-1.15-1.61-2.44-2.46-3.75l.65-.21v.23l-.67-.16a17.75,17.75,0,0,0,1.68-4.3l.61.34-.15.16-.35-.61,4.35-1.07-.28.36c0-2.32-.09-4.88-.14-7.46l.3.36-4.39-.91.34-.64.15.14-.62.38a17.68,17.68,0,0,0-1.85-4.22l.71-.2v.2l-.71-.2,2.31-3.81.06.47-5.35-5.14.48,0-3.71,2.44-.23-.71h.16l-.17.72a17.17,17.17,0,0,0-4.27-1.66l.36-.66.11.11-.65.37c-.34-1.35-.7-2.81-1.07-4.29l.39.3-7.32.16.38-.31c-.28,1.35-.57,2.83-.87,4.3l-.67-.34,0-.06.4.65a15.75,15.75,0,0,0-3.64,1.55l-.28.16s0,0,0-.07a.13.13,0,0,0,0-.07h0c.11,0-.21-.51-.39-.4h-.13l.58-.3q.6-.33,1.23-.6a19.16,19.16,0,0,1,2.54-.9l-.28.29c.31-1.44.61-2.85.92-4.26l.63.39-.1.08-.25-.7,7.13-.09-.23.7-.13-.1.62-.4c.35,1.43.69,2.86,1,4.28l-.28-.29a18,18,0,0,1,4.55,1.81H563l3.69-2.4.17.7-.2,0,.3-.66c1.72,1.68,3.43,3.33,5.12,5l-.64.33,0-.23.7.15-2.3,3.78v-.4a18.33,18.33,0,0,1,2,4.53l-.29-.26,4.34.91-.37.6-.16-.19.66-.25q.06,3.62.12,7.14l-.66-.22.16-.21.37.58-4.31,1.05.27-.26a18,18,0,0,1-1.82,4.6l0-.37c.83,1.27,1.64,2.5,2.43,3.72l-.64.16,0-.27.61.28-5,5.12-.29-.58.27,0-.13.63-3.8-2.31h.35a17.57,17.57,0,0,1-4.54,2l.24-.25c-.32,1.51-.62,2.94-.91,4.35l-.53-.32.21-.17.21.57-7.13.12.18-.56.22.16-.5.32c-.37-1.52-.71-2.93-1.05-4.31l.22.22a17.45,17.45,0,0,1-4.58-1.81h.3l-3.71,2.43-.13-.52.26,0-.23.49-5.12-5,.44-.23,0,.24-.49-.1,2.3-3.78v.26a17.74,17.74,0,0,1-1.94-4.49l.18.17-4.33-.9.22-.37.14.17-.4.15c-.05-2.7-.08-5-.12-7.14l.36.12-.12.16-.2-.32,4.27-1-.13.13a17.41,17.41,0,0,1,1.77-4.49V214l-2.4-3.67.26-.07,0,.14-.23-.11,5-5.12.07.14h-.08l0-.16,3.68,2.25a5.14,5.14,0,0,1-.95-.48l-2.82-1.62-.21-.12.24,0h.09l.24,0-.17.18-4.88,5.19-.28.3,0-.41v-.13l0-.4.23.33,2.43,3.65.06.08,0,.09a17.45,17.45,0,0,0-1.7,4.42l0,.1-.11,0-4.27,1.08-.55.14.35-.46.11-.15.35-.46v.57c0,2.15.11,4.44.17,7.14l0,.65-.42-.5-.14-.17-.41-.49.63.12,4.34.88.14,0,0,.14a17.25,17.25,0,0,0,1.92,4.36l.08.13-.08.13-2.28,3.8-.39.65-.1-.76,0-.24-.1-.75.54.52c1.62,1.56,3.3,3.17,5.16,4.94l.58.56-.81-.07-.25,0-.81-.07.68-.45,3.7-2.44.15-.1.16.09a16.7,16.7,0,0,0,4.44,1.73l.18,0,0,.18c.34,1.39.69,2.79,1.07,4.32l.21.86-.7-.54-.22-.17-.7-.54.89,0,7.13-.14h.93l-.72.59-.2.17-.72.59.19-.9c.29-1.41.59-2.84.9-4.36l0-.2.19-.05a17.36,17.36,0,0,0,4.38-1.91l.17-.1.17.1,3.8,2.3.84.51-1,.13-.27,0-1,.13.68-.71,5-5.13.7-.73-.1,1a2.45,2.45,0,0,1,0,.27l-.09,1-.56-.85-2.44-3.71-.11-.18.1-.19a17.11,17.11,0,0,0,1.74-4.43l.05-.21.22-.05,4.31-1.06,1-.25-.64.83-.16.21-.64.83,0-1c0-2.35-.08-4.72-.12-7.13l0-1.07.68.82.16.2.68.82-1.05-.22-4.33-.91-.23,0L571,218a17,17,0,0,0-1.88-4.34l-.12-.2.12-.2,2.3-3.78.56-.93.14,1.08,0,.23.14,1.08-.78-.76-5.13-5-.78-.77,1.09.11.21,0,1.1.1-.93.6-3.69,2.41-.2.13-.2-.12a16.79,16.79,0,0,0-4.36-1.72l-.23-.06,0-.23c-.35-1.42-.69-2.84-1-4.28l-.26-1.07.88.67.13.1.88.69h-1.12l-7.13.1H549.6l.86-.71.09-.08.87-.71-.24,1.1c-.3,1.41-.6,2.82-.91,4.26l0,.23L550,206a18.19,18.19,0,0,0-2.44.87c-.4.18-.78.36-1.17.57l-.6.31-.07,0h-.15c-.18.12-.5-.43-.39-.4h0v0l0,0a.65.65,0,0,1,.1-.15,1,1,0,0,1,.28-.27l.3-.17a17.47,17.47,0,0,1,3.81-1.64l1.37-.4-1,1.05-.05,0-.94,1,.27-1.36c.3-1.48.59-2.95.87-4.31l.06-.31h.31l7.32-.16h.31l.08.3c.36,1.48.73,2.95,1.06,4.29l.34,1.36-1-1-.11-.11-1-1,1.34.32a17.87,17.87,0,0,1,4.47,1.75l1.22.67-1.4,0h-.16l-1.38,0,1.15-.76,3.72-2.45.25-.17.23.22,5.34,5.14.22.21-.16.26-2.31,3.82-.7,1.16V212l.7,1.16a18,18,0,0,1,1.92,4.4l.37,1.3-1-.92-.15-.14-1-.92,1.32.28,4.38.91.29.06v.29c0,2.59.1,5.15.14,7.47v.29l-.28.07-4.35,1.07-1.27.31.92-.92.16-.16.91-.91-.3,1.25a18.28,18.28,0,0,1-1.76,4.47l-.63,1.12,0-1.28V231l-.05-1.28.71,1.07,2.45,3.75.16.24-.2.2-5.2,5.38-.19.2-.24-.14L563.44,238l-1-.63h2.65l-1,.63a18.14,18.14,0,0,1-4.4,1.9l-1.14.32.81-.86.15-.17.81-.86-.24,1.16-.92,4.39-.06.25h-.25l-7.48.12H551l-.06-.24c-.37-1.52-.74-3-1.06-4.36l-.26-1.05.77.77.15.15.77.77-1.05-.26a18,18,0,0,1-4.45-1.76l-.92-.52,1.05,0h.22l1,0-.88.58-3.75,2.44-.19.12-.17-.15-5.34-5.2-.15-.15.11-.18,2.33-3.81.48-.78v2l-.47-.78a18,18,0,0,1-1.88-4.38l-.23-.83.63.59.13.12.64.6-.85-.18-4.35-.93-.18,0v-.18q0-3.92-.08-7.4V219l.16,0,4.32-1,.64-.15-.47.47-.1.1-.48.47.17-.65a17.82,17.82,0,0,1,1.76-4.39l.29-.51,0,.59v.72l-.32-.49-2.37-3.71-.07-.09.08-.08c2.11-2.12,3.82-3.86,5.13-5.17l.05,0,.06,0,2.75,1.77.68.46Z"/><path class="cls-6" d="M223.22,321.07h0A20.76,20.76,0,0,1,211.86,294h0a20.75,20.75,0,0,1,27.06-11.36h0a20.77,20.77,0,0,1,11.37,27.07h0A20.76,20.76,0,0,1,223.22,321.07Z"/><path class="cls-5" d="M235.6,303.12,227.84,300l-.9,2.23,5.23,2.14c-1.72,2.45-4.31,3.33-6.87,2.28a6.58,6.58,0,1,1,8.45-8.86l2.32-.78a9,9,0,1,0-11.7,11.9c4.43,1.81,9-.26,10.89-4.87Z"/><polygon class="cls-5" points="246.72 307.77 243.52 306.46 244.83 303.26 242.78 302.43 241.47 305.63 238.27 304.32 237.43 306.36 240.64 307.67 239.33 310.88 241.37 311.71 242.68 308.51 245.89 309.82 246.72 307.77"/><path class="cls-11" d="M208.18,133.76h0A17.79,17.79,0,0,1,190.39,116h0a17.78,17.78,0,0,1,17.79-17.79h0A17.78,17.78,0,0,1,226,116h0A17.79,17.79,0,0,1,208.18,133.76Z"/><path class="cls-7" d="M208.18,133.78a17.82,17.82,0,1,1,12.59-5.22A17.69,17.69,0,0,1,208.18,133.78Zm0-35.57a17.75,17.75,0,1,0,12.56,5.2A17.61,17.61,0,0,0,208.18,98.21Z"/><path class="cls-5" d="M198.7,121.92a11.05,11.05,0,0,0,17-9.82,7.89,7.89,0,0,0,1.94-2,7.51,7.51,0,0,1-2.23.61,3.9,3.9,0,0,0,1.71-2.15,7.53,7.53,0,0,1-2.47.94A3.89,3.89,0,0,0,208,113a11,11,0,0,1-8-4.06,3.89,3.89,0,0,0,1.2,5.19,3.93,3.93,0,0,1-1.76-.49,3.91,3.91,0,0,0,3.12,3.87,4,4,0,0,1-1.75.06,3.88,3.88,0,0,0,3.63,2.7A7.81,7.81,0,0,1,198.7,121.92Z"/><path class="cls-6" d="M475.43,243.91h0a10.61,10.61,0,0,1-10.61-10.61h0a10.61,10.61,0,0,1,10.61-10.61h0a10.62,10.62,0,0,1,10.62,10.61h0A10.62,10.62,0,0,1,475.43,243.91Z"/><path class="cls-5" d="M472,234.29a.25.25,0,0,0,.36-.18c0-.13.11-.45.15-.59s0-.24-.11-.4a2.09,2.09,0,0,1-.47-1.42,3.42,3.42,0,0,1,3.56-3.47,2.71,2.71,0,0,1,3,2.78c0,2.09-.92,3.85-2.29,3.85a1.13,1.13,0,0,1-1.15-1.4,15,15,0,0,0,.64-2.57,1,1,0,0,0-1-1.08c-.78,0-1.4.8-1.4,1.87a2.85,2.85,0,0,0,.23,1.15l-.93,3.94a8,8,0,0,0,0,2.75.09.09,0,0,0,.17,0,7.82,7.82,0,0,0,1.31-2.37c.09-.32.51-2,.51-2a2.09,2.09,0,0,0,1.77.9c2.32,0,3.9-2.12,3.9-5a4.33,4.33,0,0,0-4.58-4.15c-3.44,0-5.18,2.46-5.18,4.52A2.8,2.8,0,0,0,472,234.29Z"/><path class="cls-6" d="M545.05,377.74h0a19.19,19.19,0,0,1-19.19-19.19h0a19.19,19.19,0,0,1,19.19-19.19h0a19.2,19.2,0,0,1,19.2,19.19h0A19.2,19.2,0,0,1,545.05,377.74Z"/><path class="cls-15" d="M555.58,358a10.34,10.34,0,0,0-20.66-.18c0,.15,0,.3,0,.45a10.12,10.12,0,0,0,1.48,5.29l-1.86,5.51,5.72-1.82a10.4,10.4,0,0,0,5,1.27,10.29,10.29,0,0,0,10.33-10.25Zm-10.33,8.89a8.59,8.59,0,0,1-4.78-1.43l-3.34,1.06,1.08-3.2a8.53,8.53,0,0,1-1.65-5.05,7.75,7.75,0,0,1,0-.84,8.69,8.69,0,0,1,17.31.16c0,.23,0,.45,0,.68A8.67,8.67,0,0,1,545.25,366.9Z"/><path class="cls-15" d="M550,360.35c-.25-.13-1.5-.74-1.73-.82s-.4-.13-.57.12-.66.82-.8,1-.3.19-.56.06a7.06,7.06,0,0,1-2-1.25,7.17,7.17,0,0,1-1.41-1.74c-.15-.25,0-.38.11-.51s.25-.29.38-.44a.47.47,0,0,0,.09-.12,1.68,1.68,0,0,0,.16-.3.45.45,0,0,0,0-.44c-.07-.13-.58-1.36-.79-1.87s-.42-.41-.57-.41-.31,0-.48,0a1,1,0,0,0-.68.32,2.82,2.82,0,0,0-.89,2.1,3.43,3.43,0,0,0,.13.85,5.76,5.76,0,0,0,.91,1.75,10.46,10.46,0,0,0,4.32,3.79c2.58,1,2.58.67,3.05.63a2.56,2.56,0,0,0,1.71-1.2,2.12,2.12,0,0,0,.15-1.19A1.4,1.4,0,0,0,550,360.35Z"/><path class="cls-11" d="M490.49,42.3h0a11.61,11.61,0,0,1-11.6-11.6h0a11.6,11.6,0,0,1,11.6-11.6h0a11.6,11.6,0,0,1,11.6,11.6h0A11.6,11.6,0,0,1,490.49,42.3Z"/><path class="cls-5" d="M490.49,25.49c1.7,0,1.9,0,2.57,0a3.72,3.72,0,0,1,1.18.22A2.16,2.16,0,0,1,495.45,27a3.72,3.72,0,0,1,.22,1.18c0,.67,0,.87,0,2.57s0,1.9,0,2.57a3.72,3.72,0,0,1-.22,1.18,2.16,2.16,0,0,1-1.21,1.21,3.72,3.72,0,0,1-1.18.22c-.67,0-.87,0-2.57,0s-1.9,0-2.57,0a3.72,3.72,0,0,1-1.18-.22,2.16,2.16,0,0,1-1.21-1.21,3.72,3.72,0,0,1-.22-1.18c0-.67,0-.87,0-2.57s0-1.9,0-2.57a3.72,3.72,0,0,1,.22-1.18,2.16,2.16,0,0,1,1.21-1.21,3.72,3.72,0,0,1,1.18-.22c.67,0,.87,0,2.57,0m0-1.15c-1.73,0-1.94,0-2.62,0a4.91,4.91,0,0,0-1.55.29,3.17,3.17,0,0,0-1.12.74,3,3,0,0,0-.73,1.12,4.62,4.62,0,0,0-.3,1.55c0,.68,0,.89,0,2.62s0,1.94,0,2.62a4.62,4.62,0,0,0,.3,1.55A3,3,0,0,0,485.2,36a3.14,3.14,0,0,0,1.12.73,4.62,4.62,0,0,0,1.55.3c.68,0,.89,0,2.62,0s1.94,0,2.62,0a4.62,4.62,0,0,0,1.55-.3,3.3,3.3,0,0,0,1.86-1.85,4.91,4.91,0,0,0,.29-1.55c0-.68,0-.89,0-2.62s0-1.94,0-2.62a4.91,4.91,0,0,0-.29-1.55,3.35,3.35,0,0,0-1.86-1.86,4.91,4.91,0,0,0-1.55-.29c-.68,0-.89,0-2.62,0"/><path class="cls-5" d="M490.49,27.43a3.27,3.27,0,1,0,3.27,3.27,3.28,3.28,0,0,0-3.27-3.27m0,5.39a2.12,2.12,0,1,1,2.12-2.12,2.12,2.12,0,0,1-2.12,2.12"/><path class="cls-5" d="M494.65,27.31a.77.77,0,1,1-.77-.77.76.76,0,0,1,.77.77"/><path class="cls-11" d="M116.67,238.77h0a9.73,9.73,0,0,1-9.73-9.72h0a9.73,9.73,0,0,1,9.73-9.72h0a9.72,9.72,0,0,1,9.72,9.72h0A9.72,9.72,0,0,1,116.67,238.77Z"/><path class="cls-5" d="M115.18,234.93h2.37V229h1.65l.18-2h-1.83v-1.13c0-.46.1-.65.55-.65h1.28v-2.06h-1.64c-1.76,0-2.56.78-2.56,2.26V227H114v2h1.23Z"/><path class="cls-6" d="M461.44,102.42a2.81,2.81,0,0,0,1.24-.83,2.67,2.67,0,0,0,.61-1.68,4.09,4.09,0,0,0-.2-1.14c-.1-.41-.21-.85-.33-1.31-.92-3.73-2.25-9.09-3.89-15.7-.4-1.65-.83-3.39-1.27-5.2-.23-.9-.45-1.83-.68-2.77a8,8,0,0,0-.4-1.36,2.4,2.4,0,0,0-.91-1,2.26,2.26,0,0,0-1.32-.33,13.33,13.33,0,0,0-1.47.34l-3.06.8-6.38,1.65L415,81.23a2.4,2.4,0,0,0-1.71,2.71c.3,1.24.6,2.48.89,3.71l1.77,7.28,3.32,13.77.39,1.63a2.54,2.54,0,0,0,.71,1.33,2.3,2.3,0,0,0,1.33.63,3.87,3.87,0,0,0,1.5-.23l6-1.54L440,107.76l15.68-4,4.27-1.06,1.11-.26a2.73,2.73,0,0,1,.38-.07,1.61,1.61,0,0,1-.37.12l-1.1.31L455.73,104l-15.64,4.12-10.81,2.81-6,1.57a4.42,4.42,0,0,1-1.66.25A2.84,2.84,0,0,1,420,112a3,3,0,0,1-.84-1.55c-.13-.54-.27-1.08-.4-1.63l-3.35-13.76-1.77-7.28-.9-3.75a2.89,2.89,0,0,1,2.08-3.27l28.44-7.31,6.38-1.64,3.07-.78a11.59,11.59,0,0,1,1.54-.35,2.77,2.77,0,0,1,1.57.4,2.81,2.81,0,0,1,1.06,1.18,8.67,8.67,0,0,1,.42,1.45c.22.94.44,1.86.66,2.77q.64,2.72,1.25,5.21c1.57,6.62,2.84,12,3.73,15.73.11.47.21.91.31,1.32a4.58,4.58,0,0,1,.18,1.19,2.7,2.7,0,0,1-.68,1.73,2.67,2.67,0,0,1-.94.67A1.52,1.52,0,0,1,461.44,102.42Z"/><polygon class="cls-6" points="439.13 88.62 445.22 90.46 440.65 95 436.08 99.55 434.56 93.16 433.03 86.78 439.13 88.62"/><rect class="cls-1" x="478.28" y="83.98" width="50.65" height="63.36" transform="matrix(0.13, -0.99, 0.99, 0.13, 321.77, 599.32)"/><path class="cls-7" d="M538.38,94.78a2.33,2.33,0,0,1-.31,0l-.88-.11-3.41-.44-12.86-1.69-45.35-6,.18-.14c-2,14.94-4.3,32.07-6.74,50.2h0l-.16-.21,62.79,8.49-.17.13c2.07-15.11,3.78-27.63,5-36.4.61-4.38,1.08-7.81,1.41-10.17.16-1.16.29-2.06.38-2.68s.14-.93.14-.93,0,.3-.1.9-.2,1.5-.34,2.66c-.31,2.35-.76,5.78-1.33,10.15-1.17,8.79-2.83,21.35-4.84,36.51l0,.15-.15,0-62.8-8.42-.18,0,0-.18h0c2.45-18.13,4.76-35.25,6.78-50.19l0-.17.16,0L521,92.37l12.82,1.77,3.37.47.87.13Z"/><rect class="cls-6" x="481.43" y="86.2" width="44.28" height="58.91" transform="translate(321.74 599.27) rotate(-82.33)"/><polygon class="cls-6" points="471.42 133.66 495.48 109.13 505.82 127.89 515.61 119.93 529.8 141.52 471.42 133.66"/><path class="cls-6" d="M513.93,108.21a4.64,4.64,0,1,1-4-5.21A4.65,4.65,0,0,1,513.93,108.21Z"/><g class="cls-9"><polygon points="471.42 133.66 495.48 109.13 505.82 127.89 515.61 119.93 529.8 141.52 471.42 133.66"/></g><g class="cls-9"><path d="M513.93,108.21a4.64,4.64,0,1,1-4-5.21A4.65,4.65,0,0,1,513.93,108.21Z"/></g><rect class="cls-1" x="506.62" y="48.89" width="76.54" height="95.74" transform="translate(368.7 621.38) rotate(-81.51)"/><path class="cls-7" d="M597.88,66l-.46,0-1.33-.19L590.94,65l-19.39-2.83L503.16,52.09l.28-.21c-3.35,22.53-7.2,48.36-11.27,75.69h0l-.24-.32,94.68,14.19-.26.2c3.45-22.79,6.31-41.68,8.32-54.89,1-6.6,1.8-11.78,2.35-15.33.27-1.76.48-3.12.63-4.05s.23-1.4.23-1.4,0,.46-.17,1.36-.33,2.26-.58,4c-.51,3.54-1.26,8.71-2.22,15.3-1.95,13.25-4.74,32.2-8.11,55.06l0,.23-.23,0-94.69-14.1-.27,0,0-.27h0c4.09-27.33,8-53.16,11.33-75.69l0-.24.24,0L571.74,62l19.32,3,5.09.79,1.3.21Z"/><rect class="cls-6" x="511.37" y="52.25" width="66.9" height="89.01" transform="translate(368.65 621.31) rotate(-81.51)"/><polygon class="cls-6" points="495.87 123.26 532.76 86.72 547.96 115.3 562.93 103.47 583.9 136.41 495.87 123.26"/><path class="cls-6" d="M560.64,85.74a7,7,0,1,1-5.89-8A7,7,0,0,1,560.64,85.74Z"/><g class="cls-9"><polygon points="495.87 123.26 532.76 86.72 547.96 115.3 562.93 103.47 583.9 136.41 495.87 123.26"/></g><g class="cls-9"><path d="M560.64,85.74a7,7,0,1,1-5.89-8A7,7,0,0,1,560.64,85.74Z"/></g><path class="cls-6" d="M516.4,260.23,518,288.64a1.92,1.92,0,0,0,1.9,1.81l51.12.38a1.92,1.92,0,0,0,1.93-1.91l.17-22.11a1.92,1.92,0,0,0-1.92-1.93l-31.44,0a1.92,1.92,0,0,1-1.36-.56l-5.42-5.43a2,2,0,0,0-1.34-.56l-13.26-.09A1.92,1.92,0,0,0,516.4,260.23Z"/><rect class="cls-2" x="517.13" y="261.33" width="55.86" height="33.38" transform="translate(2.05 -3.98) rotate(0.42)"/><path class="cls-6" d="M512.78,264.09l4,34.83A1.25,1.25,0,0,0,518,300l54.43.4a1.23,1.23,0,0,0,1.24-1.13l3-34.79a1.24,1.24,0,0,0-1.22-1.34L514,262.71A1.25,1.25,0,0,0,512.78,264.09Z"/><rect class="cls-5" x="165.87" y="6.82" width="123.46" height="50.15"/><path class="cls-6" d="M289.33,57s0-.31,0-.9,0-1.46,0-2.6c0-2.29,0-5.65,0-10,0-8.65,0-21.17-.07-36.67l.14.14L165.87,7h0l.19-.2c0,17.56,0,34.52,0,50.15l-.18-.19,88.52.09,25.67.05,6.88,0h0l-6.83,0-25.64,0-88.64.09h-.19V57c0-15.63,0-32.59,0-50.15V6.63h.2l123.46,0h.14v.13c0,15.53,0,28.08-.07,36.76,0,4.31,0,7.66,0,10,0,1.12,0,2,0,2.57S289.33,57,289.33,57Z"/><path class="cls-6" d="M166,13.59c0-.11,27.6-.2,61.63-.2s61.64.09,61.64.2-27.6.19-61.64.19S166,13.69,166,13.59Z"/><g class="cls-16"><path class="cls-6" d="M171.16,10.56a.9.9,0,1,1-.9-.9A.9.9,0,0,1,171.16,10.56Z"/></g><g class="cls-16"><path class="cls-6" d="M174.23,10.56a.9.9,0,1,1-.9-.9A.9.9,0,0,1,174.23,10.56Z"/></g><g class="cls-16"><path class="cls-6" d="M177.25,10.56a.9.9,0,1,1-.89-.9A.89.89,0,0,1,177.25,10.56Z"/></g><g class="cls-16"><rect class="cls-6" x="176.36" y="21.74" width="29.82" height="29.82"/></g><path class="cls-6" d="M280.79,29.73c0,.11-15.35.19-34.28.19s-34.27-.08-34.27-.19,15.34-.2,34.27-.2S280.79,29.62,280.79,29.73Z"/><path class="cls-6" d="M280.79,35.8c0,.11-15.35.2-34.28.2s-34.27-.09-34.27-.2,15.34-.19,34.27-.19S280.79,35.69,280.79,35.8Z"/><path class="cls-6" d="M256.37,41.88l-.45,0-1.29,0L249.9,42l-15.6,0-15.6,0L214,42l-1.28,0-.45,0a1.42,1.42,0,0,1,.45,0l1.28,0,4.73-.06,15.6-.06,15.6.06,4.73.06,1.29,0A1.48,1.48,0,0,1,256.37,41.88Z"/><rect class="cls-5" x="21.26" y="263.84" width="106.01" height="70.98"/><path class="cls-6" d="M127.27,334.82s0-.44,0-1.29,0-2.1,0-3.74c0-3.29,0-8.11,0-14.28,0-12.33,0-30.06-.08-51.67l.15.16-106,0h0l.19-.19c0,25.29,0,49.34,0,71l-.18-.17,76.38.08,21.82,0,5.8,0h0l-5.77,0-21.78.05L21.26,335h-.17v-.18c0-21.64,0-45.69,0-71v-.19h.2l106,0h.16v.15c0,21.65-.06,39.41-.07,51.77,0,6.15,0,11,0,14.24,0,1.62,0,2.87,0,3.71S127.27,334.82,127.27,334.82Z"/><path class="cls-6" d="M21.26,270.18c0-.11,23.72-.19,53-.19s53,.08,53,.19-23.71.19-53,.19S21.26,270.28,21.26,270.18Z"/><g class="cls-16"><circle class="cls-6" cx="24.6" cy="266.98" r="0.85"/></g><g class="cls-16"><path class="cls-6" d="M28.36,267a.85.85,0,1,1-.85-.85A.85.85,0,0,1,28.36,267Z"/></g><g class="cls-16"><path class="cls-6" d="M31.23,267a.85.85,0,1,1-.85-.85A.85.85,0,0,1,31.23,267Z"/></g><g class="cls-16"><rect class="cls-6" x="30.38" y="277.58" width="28.28" height="28.28"/></g><path class="cls-6" d="M112.74,285.57c0,.11-11,.19-24.63.19s-24.64-.08-24.64-.19,11-.19,24.64-.19S112.74,285.47,112.74,285.57Z"/><path class="cls-6" d="M112.74,290.83c0,.1-11,.19-24.63.19s-24.64-.09-24.64-.19,11-.19,24.64-.19S112.74,290.72,112.74,290.83Z"/><path class="cls-6" d="M112.74,296.08c0,.11-11,.19-24.63.19s-24.64-.08-24.64-.19,11-.19,24.64-.19S112.74,296,112.74,296.08Z"/><path class="cls-6" d="M92.59,301.34a7.58,7.58,0,0,1-1.15.07l-3.12.06c-2.63,0-6.27.06-10.29.06s-7.66,0-10.29-.06l-3.12-.06a7.58,7.58,0,0,1-1.15-.07,6.65,6.65,0,0,1,1.15-.08l3.12-.06c2.63,0,6.27-.05,10.29-.05s7.66,0,10.29.05l3.12.06A6.65,6.65,0,0,1,92.59,301.34Z"/><g class="cls-16"><rect class="cls-6" x="32.15" y="315.39" width="13.29" height="13.29"/></g><g class="cls-16"><rect class="cls-6" x="56.25" y="315.39" width="13.29" height="13.29"/></g><g class="cls-16"><rect class="cls-6" x="80.35" y="315.39" width="13.29" height="13.29"/></g><g class="cls-16"><rect class="cls-6" x="104.45" y="315.39" width="13.29" height="13.29"/></g></g><g id="Character_2" data-name="Character 2"><path class="cls-7" d="M374.52,236.49c2.79,10.14,7,18.26,11.11,22.34s8.51,8.85,8.36,14.63c-.06,2.28-.82,4.69.18,6.73,1.29,2.66,4.72,3.23,7.3,4.68,3.8,2.14,5.92,6.67,5.77,11a17.77,17.77,0,0,1-5.43,11.59c-3.2,3.22-8.26,5.47-12.23,3.27-2.4-1.32-3.77-3.91-5-6.37q-9.39-19.09-17-39"/><path class="cls-7" d="M348.9,193.09a26.11,26.11,0,0,0-45.51,17.76c.07,6.78,2.73,13.89.05,20.13-1.9,4.41-6.29,7.74-6.89,12.5-.7,5.53,4,10.54,3.78,16.11-.17,3.63-2.44,6.84-5.06,9.36s-5.67,4.6-8.07,7.33c-6.68,7.58-7.11,19.57-2.06,28.32S299.93,318.85,310,320s20.27-1.57,29.15-6.4c5.79-3.14,11.23-7.28,14.67-12.89s4.62-12.89,1.9-18.89"/><path class="cls-11" d="M317.06,189a32.93,32.93,0,0,1,4.49.21A60,60,0,0,1,332,192.14c4.05,1.37,7.94,2.12,10.77,1.91a13.46,13.46,0,0,0,3.29-.58,4.17,4.17,0,0,0,1.13-.46,22.14,22.14,0,0,1-4.43.68,31.71,31.71,0,0,1-10.6-2c-4-1.37-7.76-2.54-10.58-2.79a16.61,16.61,0,0,0-3.33-.06A4.87,4.87,0,0,0,317.06,189Z"/><path class="cls-11" d="M405,416.68,388.11,369l7.07-45.28c2.07-12.22,3.19-23-.15-29.07-8.91-16.27-19.5-17.63-34-21.24-3-.75-25.65-1.29-28.14-.65-19.64,2.39-32.13,12.94-38.84,29.95L286.87,333l-10,31.65a13.48,13.48,0,0,1-9,7.47L228.35,386l.4,7.77-.22,10.47,52.7-10.42c10.57-2.09,21.3-6.1,24.23-16.35L311,360.61c2.85,7.1,5.93,13.6,5.93,13.6l-3.44,42.47Z"/><path class="cls-11" d="M390.37,332.41,375.78,383a24.33,24.33,0,0,1-16.09,16.47l-62.63,17.35-8.54-21.6,56.56-21.65,13.44-50.67s2.94-28.27,28.5-27.07"/><path class="cls-7" d="M387,295.84h-.76c-.51,0-1.26,0-2.24,0a25.05,25.05,0,0,0-8.37,1.8,22.53,22.53,0,0,0-5.39,3.09,25.89,25.89,0,0,0-5.11,5.34,38.22,38.22,0,0,0-6.45,16.8v0h0c-3.72,14.09-8.28,31.35-13.38,50.68l0,.11-.11.05-56.55,21.68.15-.34c.48,1.21,1,2.52,1.51,3.84,2.41,6.08,4.78,12.08,7,17.76l-.31-.16L350.8,401.7l6.07-1.67c1-.28,2-.54,3-.83a29.39,29.39,0,0,0,2.79-1.1,24,24,0,0,0,11.75-11.88,34.9,34.9,0,0,0,1.72-5q1.45-5,2.78-9.59c3.56-12.2,6.41-22,8.38-28.77,1-3.36,1.76-6,2.29-7.75l.6-2c.14-.45.22-.68.22-.68s-.05.24-.17.69-.31,1.14-.56,2c-.5,1.79-1.24,4.41-2.19,7.79-1.94,6.77-4.74,16.59-8.23,28.8l-2.76,9.61a33.57,33.57,0,0,1-1.72,5.06,24.44,24.44,0,0,1-11.92,12.11,25.21,25.21,0,0,1-2.85,1.13c-1,.3-2,.56-3,.84l-6.07,1.69-53.8,14.93-.23.06-.08-.21c-2.25-5.68-4.62-11.68-7-17.76l-1.52-3.84-.09-.25.24-.09L345,373.35l-.15.16c5.15-19.31,9.75-36.56,13.5-50.64v0A38.44,38.44,0,0,1,364.92,306a25.64,25.64,0,0,1,5.2-5.37,22.62,22.62,0,0,1,5.45-3.08A24.57,24.57,0,0,1,384,295.8c1-.08,1.73,0,2.24,0Z"/><path class="cls-7" d="M348.1,362.2s-.27.06-.75.07a9.2,9.2,0,0,1-2.05-.21,13.41,13.41,0,0,1-6-3.08,14.61,14.61,0,0,1-3.93-5.49,8.14,8.14,0,0,1-.38-1.11,5.17,5.17,0,0,1-.2-.86c-.08-.48-.11-.74-.07-.75s.28,1,1,2.58a15.81,15.81,0,0,0,3.93,5.23,14.35,14.35,0,0,0,5.74,3.12C347,362.12,348.1,362.1,348.1,362.2Z"/><path class="cls-7" d="M310.43,324.19a8,8,0,0,1-.51,1.49c-.35.95-.9,2.32-1.51,4a43.26,43.26,0,0,0-3,13.69,22.93,22.93,0,0,0,1.11,7.6,28.21,28.21,0,0,0,2.64,5.73,36.46,36.46,0,0,0,2.42,3.52,10,10,0,0,1,.93,1.27,1.83,1.83,0,0,1-.3-.28c-.19-.19-.46-.47-.79-.86a28.91,28.91,0,0,1-2.57-3.46,26.77,26.77,0,0,1-2.79-5.77,22.78,22.78,0,0,1-1.17-7.76,40.78,40.78,0,0,1,3.2-13.81c.67-1.69,1.26-3,1.67-4A9.78,9.78,0,0,1,310.43,324.19Z"/><path class="cls-7" d="M350.67,380.25a19,19,0,0,0-2.36-3.88,19.46,19.46,0,0,0-3.54-2.84,8.28,8.28,0,0,1,5.9,6.72Z"/><path class="cls-17" d="M289.71,398.24s-17.95,1.78-17.58,13.44l22.36-1.35Z"/><path class="cls-3" d="M371,340.9c-.09,0-.16-3.39-.16-7.56s.07-7.56.16-7.56.15,3.39.15,7.56S371,340.9,371,340.9Z"/><path class="cls-3" d="M375.94,332.41a93.36,93.36,0,0,1-10.58,0,93.36,93.36,0,0,1,10.58,0Z"/><path class="cls-3" d="M374.94,337.75c-.06.05-1.79-1.88-3.87-4.32a51.22,51.22,0,0,1-3.63-4.51c.06-.05,1.79,1.88,3.87,4.32A54.92,54.92,0,0,1,374.94,337.75Z"/><path class="cls-3" d="M367,336.89a6.24,6.24,0,0,1,.92-1.21c.62-.72,1.5-1.67,2.49-2.7l2.54-2.63a8.48,8.48,0,0,1,1.09-1.07,6.09,6.09,0,0,1-.93,1.21c-.61.72-1.49,1.67-2.48,2.7l-2.55,2.63A8.91,8.91,0,0,1,367,336.89Z"/><path class="cls-3" d="M386.56,317.07c-.08,0-.15-3.39-.15-7.56s.07-7.56.15-7.56.15,3.39.15,7.56S386.65,317.07,386.56,317.07Z"/><path class="cls-3" d="M391.55,308.58a93.18,93.18,0,0,1-10.57,0,93.18,93.18,0,0,1,10.57,0Z"/><path class="cls-3" d="M390.56,313.92a52.92,52.92,0,0,1-3.87-4.31,56.12,56.12,0,0,1-3.64-4.52,54.22,54.22,0,0,1,3.87,4.32C389,311.85,390.62,313.87,390.56,313.92Z"/><path class="cls-3" d="M382.65,313.06a5.76,5.76,0,0,1,.92-1.21c.61-.72,1.49-1.67,2.48-2.7l2.55-2.63a10,10,0,0,1,1.08-1.07,6.24,6.24,0,0,1-.92,1.21c-.61.72-1.49,1.67-2.49,2.7L383.73,312A8.91,8.91,0,0,1,382.65,313.06Z"/><path class="cls-3" d="M330.94,402.41c-.08,0-.15-3.38-.15-7.56s.07-7.55.15-7.55.16,3.38.16,7.55S331,402.41,330.94,402.41Z"/><path class="cls-3" d="M335.94,393.92a93.36,93.36,0,0,1-10.58,0,93.36,93.36,0,0,1,10.58,0Z"/><path class="cls-3" d="M334.94,399.26a57.72,57.72,0,0,1-3.87-4.31,52.15,52.15,0,0,1-3.63-4.52c.06-.05,1.79,1.88,3.87,4.32A54.92,54.92,0,0,1,334.94,399.26Z"/><path class="cls-3" d="M327,398.4a6.62,6.62,0,0,1,.92-1.21c.61-.72,1.5-1.67,2.49-2.7l2.54-2.63a8.56,8.56,0,0,1,1.09-1.07,6.09,6.09,0,0,1-.93,1.21c-.61.72-1.49,1.67-2.48,2.7l-2.55,2.63A8.91,8.91,0,0,1,327,398.4Z"/><path class="cls-3" d="M365.9,382.81c-.08,0-.15-3.38-.15-7.55s.07-7.56.15-7.56.16,3.38.16,7.56S366,382.81,365.9,382.81Z"/><path class="cls-3" d="M370.89,374.33a93.18,93.18,0,0,1-10.57,0,87.37,87.37,0,0,1,10.57,0Z"/><path class="cls-3" d="M369.9,379.67a56.63,56.63,0,0,1-3.87-4.32c-2.07-2.44-3.7-4.46-3.64-4.51a50.94,50.94,0,0,1,3.87,4.31A53.57,53.57,0,0,1,369.9,379.67Z"/><path class="cls-3" d="M362,378.81a6.45,6.45,0,0,1,.92-1.22c.61-.71,1.5-1.66,2.49-2.69l2.54-2.64A9.21,9.21,0,0,1,369,371.2a6.08,6.08,0,0,1-.92,1.21c-.61.71-1.49,1.66-2.48,2.7s-1.82,1.88-2.55,2.63A11.35,11.35,0,0,1,362,378.81Z"/><path class="cls-3" d="M378,411.08c-.09,0-.16-3.38-.16-7.55s.07-7.56.16-7.56.15,3.38.15,7.56S378,411.08,378,411.08Z"/><path class="cls-3" d="M382.94,402.6a93.18,93.18,0,0,1-10.57,0,87.37,87.37,0,0,1,10.57,0Z"/><path class="cls-3" d="M381.94,407.94a57.91,57.91,0,0,1-3.86-4.32,53.91,53.91,0,0,1-3.64-4.51,55.37,55.37,0,0,1,3.87,4.31A52.15,52.15,0,0,1,381.94,407.94Z"/><path class="cls-3" d="M374,407.08a6.29,6.29,0,0,1,.93-1.22c.61-.71,1.49-1.66,2.48-2.69l2.55-2.64a8.36,8.36,0,0,1,1.08-1.06,6.62,6.62,0,0,1-.92,1.21c-.62.71-1.5,1.66-2.49,2.7L375.11,406A10.08,10.08,0,0,1,374,407.08Z"/><path class="cls-3" d="M320.42,365c-.08,0-.15-3.38-.15-7.55s.07-7.56.15-7.56.15,3.38.15,7.56S320.5,365,320.42,365Z"/><path class="cls-3" d="M325.41,356.47a93.18,93.18,0,0,1-10.57,0,87.37,87.37,0,0,1,10.57,0Z"/><path class="cls-3" d="M324.42,361.81a54.22,54.22,0,0,1-3.87-4.32,56.5,56.5,0,0,1-3.64-4.51,55.22,55.22,0,0,1,3.87,4.31A56.12,56.12,0,0,1,324.42,361.81Z"/><path class="cls-3" d="M316.5,361a6.86,6.86,0,0,1,.93-1.22c.61-.71,1.49-1.66,2.48-2.69l2.55-2.64a9.21,9.21,0,0,1,1.08-1.06,6.62,6.62,0,0,1-.92,1.21c-.61.71-1.5,1.67-2.49,2.7l-2.54,2.63A9.54,9.54,0,0,1,316.5,361Z"/><path class="cls-3" d="M342.74,340.18c-.08,0-.15-3.39-.15-7.56s.07-7.56.15-7.56.16,3.38.16,7.56S342.83,340.18,342.74,340.18Z"/><path class="cls-3" d="M347.74,331.69a93.36,93.36,0,0,1-10.58,0,93.36,93.36,0,0,1,10.58,0Z"/><path class="cls-3" d="M346.74,337a56.63,56.63,0,0,1-3.87-4.32,54.92,54.92,0,0,1-3.63-4.51,55.55,55.55,0,0,1,3.86,4.32A50.34,50.34,0,0,1,346.74,337Z"/><path class="cls-3" d="M338.83,336.17a6.24,6.24,0,0,1,.92-1.21c.61-.72,1.5-1.67,2.49-2.7l2.54-2.63a7.77,7.77,0,0,1,1.09-1.07,6.45,6.45,0,0,1-.93,1.21c-.61.71-1.49,1.67-2.48,2.7l-2.55,2.63A10,10,0,0,1,338.83,336.17Z"/><path class="cls-3" d="M283.88,383.83c-.08,0-.15-3.39-.15-7.56s.07-7.56.15-7.56.15,3.39.15,7.56S284,383.83,283.88,383.83Z"/><path class="cls-3" d="M288.87,375.34a93.18,93.18,0,0,1-10.57,0,93.18,93.18,0,0,1,10.57,0Z"/><path class="cls-3" d="M287.88,380.68a54.22,54.22,0,0,1-3.87-4.32,57.13,57.13,0,0,1-3.64-4.51,54.22,54.22,0,0,1,3.87,4.32A55.06,55.06,0,0,1,287.88,380.68Z"/><path class="cls-3" d="M280,379.82a6.24,6.24,0,0,1,.92-1.21c.61-.72,1.49-1.67,2.48-2.7l2.55-2.63a8.91,8.91,0,0,1,1.08-1.07,6.24,6.24,0,0,1-.92,1.21c-.61.72-1.49,1.67-2.49,2.7l-2.54,2.63A10,10,0,0,1,280,379.82Z"/><path class="cls-3" d="M298.46,342.23c-.08,0-.15-3.38-.15-7.56s.07-7.55.15-7.55.15,3.38.15,7.55S298.54,342.23,298.46,342.23Z"/><path class="cls-3" d="M303.45,333.74a93.18,93.18,0,0,1-10.57,0,93.18,93.18,0,0,1,10.57,0Z"/><path class="cls-3" d="M302.46,339.08a50.94,50.94,0,0,1-3.87-4.31,53.57,53.57,0,0,1-3.64-4.52,56.63,56.63,0,0,1,3.87,4.32C300.89,337,302.52,339,302.46,339.08Z"/><path class="cls-3" d="M294.54,338.22a6.45,6.45,0,0,1,.93-1.21c.61-.71,1.49-1.67,2.48-2.7l2.55-2.63a11.35,11.35,0,0,1,1.08-1.07,6.24,6.24,0,0,1-.92,1.21c-.61.72-1.5,1.67-2.49,2.7s-1.82,1.88-2.54,2.64A8,8,0,0,1,294.54,338.22Z"/><path class="cls-3" d="M317,313.76c-.09,0-.15-3.38-.15-7.55s.06-7.56.15-7.56.15,3.38.15,7.56S317.11,313.76,317,313.76Z"/><path class="cls-3" d="M322,305.28a93.18,93.18,0,0,1-10.57,0,87.37,87.37,0,0,1,10.57,0Z"/><path class="cls-3" d="M321,310.62a54.22,54.22,0,0,1-3.87-4.32,56.5,56.5,0,0,1-3.64-4.51,55.22,55.22,0,0,1,3.87,4.31A56.12,56.12,0,0,1,321,310.62Z"/><path class="cls-3" d="M313.11,309.76a6.29,6.29,0,0,1,.93-1.22c.61-.71,1.49-1.66,2.48-2.69l2.55-2.64a9.21,9.21,0,0,1,1.08-1.06,6.62,6.62,0,0,1-.92,1.21c-.61.71-1.5,1.66-2.49,2.7l-2.54,2.63A9.54,9.54,0,0,1,313.11,309.76Z"/><path class="cls-7" d="M329.07,416.51l-.14-2.74-40.54-3.88-18.95-48.23a4.18,4.18,0,0,0-3.85-2.66l-69.14-.88a4.2,4.2,0,0,0-3.87,5.95l24.21,52.61C254.37,416.6,292.42,417.17,329.07,416.51Z"/><path class="cls-5" d="M236.61,388.37a4,4,0,1,0,1.41-5.44A4,4,0,0,0,236.61,388.37Z"/><path class="cls-17" d="M361.77,201.78l.05,5.16,1.09,77.22c.13,9-7.48,16.21-17.08,16.27h0c-9.7.07-17.77-7.22-18.05-16.27-.29-9.5-.77-19.5-.77-19.5s-12.3-1.7-15.28-17.6c-1.48-7.91-1.44-20.95-1.06-31.61a16.87,16.87,0,0,1,18.17-16.24Z"/><path class="cls-7" d="M316.08,224.75a2,2,0,0,0,2,2,2,2,0,0,0,2.06-1.91,2,2,0,0,0-2-2A2,2,0,0,0,316.08,224.75Z"/><path class="cls-7" d="M313.68,222.15c.26.26,1.78-.93,4-1s3.85,1,4.08.73-.16-.6-.88-1.09a5.59,5.59,0,0,0-3.28-.92,5.47,5.47,0,0,0-3.16,1.12C313.77,221.54,313.55,222,313.68,222.15Z"/><path class="cls-7" d="M337.65,224.53a2,2,0,0,0,2,2,2,2,0,0,0,2.06-1.91,2,2,0,0,0-2-2A2,2,0,0,0,337.65,224.53Z"/><path class="cls-7" d="M335.36,222c.26.26,1.78-.93,4-1s3.85,1,4.08.73c.11-.12-.16-.6-.88-1.09a5.58,5.58,0,0,0-3.27-.91,5.34,5.34,0,0,0-3.17,1.12C335.45,221.36,335.23,221.84,335.36,222Z"/><path class="cls-7" d="M327.81,238.53a14.64,14.64,0,0,0-3.6-.55c-.56,0-1.1-.14-1.2-.52a2.78,2.78,0,0,1,.33-1.68l1.54-4.33c2.15-6.17,3.68-11.23,3.43-11.31s-2.19,4.84-4.33,11l-1.48,4.35a3.3,3.3,0,0,0-.23,2.22,1.44,1.44,0,0,0,1,.8,3.44,3.44,0,0,0,1,.1A14.16,14.16,0,0,0,327.81,238.53Z"/><path class="cls-18" d="M327,264.66a40.7,40.7,0,0,0,21.23-6.3s-4.89,11.12-20.91,10.06Z"/><path class="cls-18" d="M328.89,243.82a4,4,0,0,1,3.52-1.58,3.61,3.61,0,0,1,2.54,1.28,2.3,2.3,0,0,1,.25,2.62,2.67,2.67,0,0,1-2.87.81,8.48,8.48,0,0,1-2.87-1.6,2.43,2.43,0,0,1-.64-.64.72.72,0,0,1,0-.82"/><path class="cls-7" d="M334.34,239.88c-.36,0-.3,2.38-2.3,4.13s-4.55,1.56-4.56,1.9c0,.15.58.45,1.65.45a6,6,0,0,0,3.82-1.45,5.17,5.17,0,0,0,1.77-3.46C334.79,240.44,334.5,239.86,334.34,239.88Z"/><path class="cls-7" d="M334.55,213.34c.24.59,2.43.25,5,.49s4.71.88,5,.34c.14-.26-.23-.82-1.09-1.37a8.37,8.37,0,0,0-3.76-1.21,8.51,8.51,0,0,0-3.91.57C334.92,212.57,334.45,213.06,334.55,213.34Z"/><path class="cls-7" d="M314.31,215.74c.41.49,1.91-.07,3.74-.14s3.38.24,3.72-.29c.15-.26-.11-.76-.8-1.21a5.38,5.38,0,0,0-6,.35C314.33,215,314.14,215.51,314.31,215.74Z"/><path class="cls-7" d="M341.69,196.72c-4.27,5.68.17,13.71,5.09,18.84s10.91,11.07,9.57,18c-1.56,8.08-12.62,13.26-11,21.33.6,2.94,2.92,5.45,2.93,8.46,0,5.42-7,8.06-9,13.09-2.77,6.9,4.84,13.78,5,21.21.07,4.22-2.32,8.16-2.45,12.38-.26,8.64,10,15,18.34,12.84s14.13-10.3,15.95-18.75-.94-20.34-2.29-28.88l14.52,3.37c2.7-2.58-1-5.32-1.61-9-1.52-9.24-7.6-17.07-10.49-26-2.53-7.79-2.55-16.14-3.65-24.25s-3.62-16.57-9.82-21.92-16.92-6-21.93.46"/><path class="cls-11" d="M364.8,319.79a1.39,1.39,0,0,0-.2-.32l-.62-.91a20.64,20.64,0,0,1-1.9-3.74,20.89,20.89,0,0,1-1.35-6.48,19.85,19.85,0,0,1,1.49-8.59c1.24-3,3.45-5.88,5.79-8.94a44.89,44.89,0,0,0,3.38-5,19.72,19.72,0,0,0,2.21-6,11.83,11.83,0,0,0-.61-6.68,9.5,9.5,0,0,0-2-2.88,23.61,23.61,0,0,0-2.76-2.23c-1.91-1.35-4-2.72-5-4.86a10.32,10.32,0,0,1-.52-7.07c1.12-4.89,4.46-8.68,6.58-12.92a16.25,16.25,0,0,0,1.95-6.72,14.72,14.72,0,0,0-1.32-6.58,28.66,28.66,0,0,0-7.62-9.68c-2.9-2.56-5.77-4.74-8.12-7a25.39,25.39,0,0,1-5.39-6.9,16.58,16.58,0,0,1-1.88-6.32,11.72,11.72,0,0,1,.37-4.16c.26-.92.49-1.38.45-1.4a8.15,8.15,0,0,0-.54,1.37,11.25,11.25,0,0,0-.48,4.2,16.78,16.78,0,0,0,1.83,6.44,25.49,25.49,0,0,0,5.39,7c2.36,2.3,5.22,4.5,8.09,7.06a28.39,28.39,0,0,1,7.47,9.55,14.47,14.47,0,0,1,1.27,6.37,15.9,15.9,0,0,1-1.91,6.52c-1.06,2.09-2.39,4.09-3.65,6.19a23.57,23.57,0,0,0-3,6.84,10.8,10.8,0,0,0,.56,7.41c1.15,2.3,3.3,3.7,5.19,5.05a22.22,22.22,0,0,1,2.7,2.16,9.11,9.11,0,0,1,1.91,2.73,11.28,11.28,0,0,1,.59,6.41,19.23,19.23,0,0,1-2.14,5.85,44.24,44.24,0,0,1-3.33,4.93c-2.31,3.07-4.53,6-5.78,9.06a19.84,19.84,0,0,0-1.44,8.73,20.92,20.92,0,0,0,1.45,6.54,19.7,19.7,0,0,0,2,3.73c.28.4.52.68.67.88A2.78,2.78,0,0,0,364.8,319.79Z"/></g><g id="Character_1" data-name="Character 1"><path class="cls-7" d="M160.12,204s0-.83,0-2.42,0-3.95,0-7c0-6.14.08-15.14.14-26.61.15-22.92.35-55.73.59-95.28l.22.22-159.87,0h0l.26-.26C1.1,120.19.76,165,.47,204l-.24-.24,115.56.12,32.68.06,8.66,0h2.23l.76,0h-2.94l-8.61,0-32.63.06L.23,204.22H0V204C.28,165,.6,120.18.94,72.67v-.26h.28l159.87,0h.22v.22c-.34,39.61-.62,72.46-.82,95.42-.11,11.45-.19,20.43-.25,26.56,0,3-.06,5.38-.08,7S160.12,204,160.12,204Z"/><path class="cls-7" d="M160.12,79.7c0,.14-35.79.26-79.94.26s-80-.12-80-.26,35.79-.26,80-.26S160.12,79.56,160.12,79.7Z"/><path class="cls-7" d="M5,76.24A1.07,1.07,0,1,1,4,75.18,1.05,1.05,0,0,1,5,76.24Z"/><path class="cls-7" d="M8.83,76.24a1.07,1.07,0,1,1-1.07-1.06A1.06,1.06,0,0,1,8.83,76.24Z"/><path class="cls-7" d="M12.63,76.24a1.07,1.07,0,1,1-1.06-1.06A1.05,1.05,0,0,1,12.63,76.24Z"/><rect class="cls-1" x="111.47" y="84.85" width="41.77" height="35.93"/><path class="cls-17" d="M65,119.34l18.4-1.47c.12-2.14,0-10.46,0-10.46s7.65-1.19,7.75-8.84-1.24-25.23-1.24-25.23h0A26.58,26.58,0,0,0,63.18,76.7l-1.13.87Z"/><path class="cls-18" d="M83.41,107.3a17.76,17.76,0,0,1-10-2.83s2.36,5.51,10,4.82Z"/><path class="cls-17" d="M63,85.5c-.13-.06-5.26-1.56-5.09,3.68s5.39,4,5.39,3.83S63,85.5,63,85.5Z"/><path class="cls-18" d="M61.63,91.08s-.09.07-.24.14a.9.9,0,0,1-.68,0,2.25,2.25,0,0,1-1.11-2A2.92,2.92,0,0,1,59.81,88a1.08,1.08,0,0,1,.66-.73.47.47,0,0,1,.55.24c.07.14,0,.25.07.25s.11-.09.06-.3a.53.53,0,0,0-.21-.32.68.68,0,0,0-.51-.12,1.28,1.28,0,0,0-.93.84,3.19,3.19,0,0,0-.27,1.47,2.38,2.38,0,0,0,1.41,2.22,1,1,0,0,0,.82-.17C61.62,91.21,61.65,91.09,61.63,91.08Z"/><path class="cls-7" d="M87.14,85.2a1.09,1.09,0,0,1-1.06,1.1,1,1,0,0,1-1.13-1A1.11,1.11,0,0,1,86,84.21,1.05,1.05,0,0,1,87.14,85.2Z"/><path class="cls-7" d="M88.47,84.11c-.14.14-1-.47-2.14-.47s-2,.59-2.17.45.07-.33.45-.6A3,3,0,0,1,86.34,83a2.85,2.85,0,0,1,1.71.55C88.41,83.78,88.53,84,88.47,84.11Z"/><path class="cls-7" d="M75.62,85.61a1.09,1.09,0,0,1-1.06,1.1,1,1,0,0,1-1.13-1,1.11,1.11,0,0,1,1.06-1.11A1.05,1.05,0,0,1,75.62,85.61Z"/><path class="cls-7" d="M76.9,84.32c-.13.15-1-.47-2.14-.46s-2,.59-2.16.45.07-.33.45-.6a3,3,0,0,1,1.73-.53,2.81,2.81,0,0,1,1.7.55C76.85,84,77,84.26,76.9,84.32Z"/><path class="cls-7" d="M81.17,93.05a8.07,8.07,0,0,1,1.91-.35c.3,0,.59-.09.64-.29a1.58,1.58,0,0,0-.2-.89c-.29-.73-.58-1.49-.89-2.29a39.15,39.15,0,0,1-2-6,38.43,38.43,0,0,1,2.48,5.81c.29.8.58,1.56.85,2.3a1.72,1.72,0,0,1,.15,1.18.79.79,0,0,1-.49.44,2.58,2.58,0,0,1-.51.07A7.68,7.68,0,0,1,81.17,93.05Z"/><path class="cls-7" d="M77.71,93.86c.19,0,.19,1.27,1.29,2.17s2.45.77,2.46,1-.3.25-.88.26a3.17,3.17,0,0,1-2-.71,2.76,2.76,0,0,1-1-1.82C77.48,94.17,77.62,93.86,77.71,93.86Z"/><path class="cls-7" d="M77.21,79.72c-.12.31-1.29.16-2.67.33s-2.5.54-2.68.26.11-.44.56-.75a4.62,4.62,0,0,1,4.07-.45C77,79.31,77.26,79.56,77.21,79.72Z"/><path class="cls-7" d="M88,80.7c-.2.27-1,0-2,0s-1.8.18-2-.1,0-.41.41-.66a2.76,2.76,0,0,1,1.62-.44,2.85,2.85,0,0,1,1.59.54C88,80.3,88.12,80.57,88,80.7Z"/><path class="cls-7" d="M93.64,68.5a2.84,2.84,0,0,0-1-2.52,2,2,0,0,0-2.6.19,2.33,2.33,0,0,0-2-2.83c-1.25-.08-2.31.86-3.52,1.19a5.6,5.6,0,0,1-3.57-.41c-1.13-.46-2.19-1.09-3.34-1.5A9.78,9.78,0,0,0,65,68.36a4.35,4.35,0,0,0-4.61,1.75,7.11,7.11,0,0,0-1.09,5,15.72,15.72,0,0,0,.88,3.43c0,.1,0,.2,0,.3.08,4.21.55,9.15,2.35,9.18,3.13,0,2.38-5.85,2.38-5.85,3.84-1.48,2.41-7.24,3.37-8.11s3-2.9,11,1.21a15.68,15.68,0,0,0,9.55,1l.2,0h0l.07,0a7.46,7.46,0,0,0,2.06-.87,4.14,4.14,0,0,0,1.7-1.89,2.24,2.24,0,0,0-.44-2.4A4.87,4.87,0,0,0,93.64,68.5Z"/><path class="cls-6" d="M56.18,116.46c2.58-.49,5.09-1.43,8.12-1.56h0a32.52,32.52,0,0,0,19.62,0c.8.1,1.91.2,3.3.37,8.52,1,11.79,2.8,17.91,8.82l-.67,34.49s2.06,39.25,1.91,45.6H48.13l-.05-26.62v-7.25l-19.17,7,1.75-10.06s8.58-33.33,9.92-37.83C42.21,123.93,48.06,118,56.18,116.46Z"/><path class="cls-6" d="M37.7,167.81l28.7-4.08,5.46,9.77-26.68,12a11.58,11.58,0,0,1-4.74,1h0a11.54,11.54,0,0,1-10.66-7.15l-.86-2.11Z"/><path class="cls-6" d="M96.35,117.48s8.11,2.76,11.52,10.57c2.22,5.09,5.49,29.59,5.49,29.59l4.12,7.94a13.38,13.38,0,0,1,1.5,6.17V173a13.43,13.43,0,0,1-3,8.46h0a13.47,13.47,0,0,1-9.21,4.89c-4.11.36-9.09.53-10.15-.69-1.87-2.14-4.68-7.9-4.68-7.9l12-6.37-5.17-9.56Z"/><path class="cls-7" d="M47.18,184.63s.15-.11.46-.26L49,183.7l5.16-2.41,17.59-8-.12.36c-1.09-1.94-2.22-4-3.37-6-.72-1.28-1.42-2.55-2.09-3.75l.25.14-21,2.06-6.25.56-1.69.13a3.81,3.81,0,0,1-.59,0,2.17,2.17,0,0,1,.58-.11l1.68-.22,6.24-.72,21-2.23.17,0,.08.15,2.1,3.75c1.15,2.06,2.27,4.08,3.36,6l.13.25-.25.11L54.3,181.6l-5.21,2.26-1.41.59A3.52,3.52,0,0,1,47.18,184.63Z"/><path class="cls-7" d="M52.27,165c-.14,0-.26-5.13-.26-11.46s.12-11.46.26-11.46.27,5.13.27,11.46S52.42,165,52.27,165Z"/><path class="cls-7" d="M101.68,172.63a2.83,2.83,0,0,1,.87-.14,8,8,0,0,1,2.42.15,2.88,2.88,0,0,1,1.52.86,3.94,3.94,0,0,1,.79,1.83,4.21,4.21,0,0,1-.19,2.18,4.15,4.15,0,0,1-1.45,1.87,11,11,0,0,1-4.16,1.48,19.47,19.47,0,0,1-3.56.35,6.34,6.34,0,0,1-3.23-.57,16.49,16.49,0,0,0,3.22.19,20.28,20.28,0,0,0,3.47-.45,10.9,10.9,0,0,0,4-1.43,3.74,3.74,0,0,0,.83-5.17,2.57,2.57,0,0,0-1.29-.78,9.44,9.44,0,0,0-2.31-.3A3.08,3.08,0,0,1,101.68,172.63Z"/><path class="cls-7" d="M106.44,186.51a6.42,6.42,0,0,1-2.06.24,13,13,0,0,1-5-.82A10.7,10.7,0,0,1,97,184.62a5.7,5.7,0,0,1-1.52-1.73,4.49,4.49,0,0,1-.74-1.95c.08,0,.36.72,1,1.75a6.18,6.18,0,0,0,1.5,1.54,11.67,11.67,0,0,0,2.37,1.21,15.47,15.47,0,0,0,4.77.94A12.75,12.75,0,0,1,106.44,186.51Z"/><path class="cls-7" d="M112.17,161.64a9.46,9.46,0,0,1-1.41,1.7c-.93,1-2.22,2.39-3.68,3.88s-2.8,2.83-3.79,3.78a9.06,9.06,0,0,1-1.68,1.46,9.23,9.23,0,0,1,1.42-1.72c.92-1,2.21-2.39,3.67-3.88A51,51,0,0,1,112.17,161.64Z"/><path class="cls-7" d="M99.1,156.29a42,42,0,0,1-.26-6.55,42,42,0,0,1,.26-6.55,40.55,40.55,0,0,1,.26,6.55A40.55,40.55,0,0,1,99.1,156.29Z"/><path class="cls-4" d="M107,128.17c0,.15-14.7.26-32.83.26s-32.83-.11-32.83-.26,14.7-.26,32.83-.26S107,128,107,128.17Z"/><path class="cls-4" d="M108.69,133.4c0,.14-15.49.26-34.59.26s-34.6-.12-34.6-.26,15.49-.26,34.6-.26S108.69,133.25,108.69,133.4Z"/><path class="cls-4" d="M104.39,123.4c0,.15-13.5.27-30.14.27s-30.14-.12-30.14-.27,13.49-.26,30.14-.26S104.39,123.26,104.39,123.4Z"/><path class="cls-4" d="M107.15,202.32c0,.15-13.21.27-29.5.27s-29.51-.12-29.51-.27,13.21-.26,29.51-.26S107.15,202.18,107.15,202.32Z"/><path class="cls-4" d="M106.75,199c0,.15-13,.26-29.1.26s-29.11-.11-29.11-.26,13-.26,29.11-.26S106.75,198.82,106.75,199Z"/><path class="cls-4" d="M106.16,194.63c0,.14-13,.26-29,.26s-29-.12-29-.26,13-.26,29-.26S106.16,194.48,106.16,194.63Z"/><path class="cls-4" d="M63.83,176.66a4.93,4.93,0,0,1-1.48-1.37A13.83,13.83,0,0,1,60,171.06a13.52,13.52,0,0,1-.79-4.79,5.21,5.21,0,0,1,.28-2,22.06,22.06,0,0,0,1,6.61A21.8,21.8,0,0,0,63.83,176.66Z"/><path class="cls-4" d="M61.13,178.27a5.82,5.82,0,0,1-1.59-1.51A15.1,15.1,0,0,1,57,172.13a14.8,14.8,0,0,1-.84-5.24,6.21,6.21,0,0,1,.3-2.18,23.61,23.61,0,0,0,1,7.25A23.23,23.23,0,0,0,61.13,178.27Z"/><path class="cls-4" d="M58.54,179.58a6,6,0,0,1-1.78-1.51,13.52,13.52,0,0,1-2.82-4.9,13.68,13.68,0,0,1-.62-5.62,6.19,6.19,0,0,1,.55-2.28c.08,0-.12.89-.18,2.31A15.41,15.41,0,0,0,57,177.83C57.93,178.93,58.6,179.51,58.54,179.58Z"/><path class="cls-4" d="M95.54,181.69s.3.23.89.55a6.36,6.36,0,0,0,2.69.67,22.22,22.22,0,0,0,4.2-.27,6.54,6.54,0,0,0,4.4-2.15,6.21,6.21,0,0,0,1.3-4.68,6.6,6.6,0,0,0-1.82-3.62A9.79,9.79,0,0,0,104,170.1a2.73,2.73,0,0,1,1,.26,7.16,7.16,0,0,1,2.45,1.57,6.83,6.83,0,0,1,2,3.81,6.57,6.57,0,0,1-1.38,5.09,5.74,5.74,0,0,1-2.24,1.66,9.49,9.49,0,0,1-2.49.63,20.81,20.81,0,0,1-4.29.17,6.05,6.05,0,0,1-2.78-.88A2.16,2.16,0,0,1,95.54,181.69Z"/><path class="cls-4" d="M106,168.45s.11,0,.32,0a3.5,3.5,0,0,1,.91.15,5.77,5.77,0,0,1,2.7,2,14,14,0,0,1,2.24,4.48,8.31,8.31,0,0,1,.33,3,6.46,6.46,0,0,1-1.08,3.05,9.23,9.23,0,0,1-5,3.59,14.72,14.72,0,0,1-5,.58,28.56,28.56,0,0,1-3.33-.36,5.55,5.55,0,0,1-1.2-.26c0-.1,1.74.18,4.54.24a14.91,14.91,0,0,0,4.81-.66,8.93,8.93,0,0,0,4.66-3.42,6.17,6.17,0,0,0,1-2.81,7.89,7.89,0,0,0-.29-2.8,14.06,14.06,0,0,0-2.07-4.38,6,6,0,0,0-2.47-2.07C106.44,168.49,106,168.5,106,168.45Z"/><path class="cls-17" d="M92.26,159l-.62-.47A14.34,14.34,0,0,0,80.34,156h0a19.67,19.67,0,0,0-8.79,4.13l-4.92,4,5.23,9.37,3.56-5s3.32,4.5,3.91,4a7.43,7.43,0,0,0,1.31-1.9l-2.37-3.32L84,168.52l8.3-3.8-3.56-4.51,3.56,1.19Z"/><polygon class="cls-7" points="83.5 158.17 65.23 180.29 66.63 181.81 96.28 177.29 110.98 155.17 109.61 153.94 83.5 158.17"/><path class="cls-17" d="M102.88,164h0a2.82,2.82,0,0,0-2.64,1.8c-.44,1.14-1.08,2.48-1.8,2.87-1.31.72-3.59,1.29-4.79.7s-6-4.89-6.82-4.41-1.56,1.55-.72,2.51,5.27,3.83,4.43,4.79S80.36,169,78.92,169.38s-2.27,1.26-1.44,1.84,7.19,3,7.55,3.81c0,0-9.58-2.52-9.94-1.92s-1,1.56,0,1.92,9.22,2.51,9.94,2.87A17.53,17.53,0,0,0,88.72,179a39.89,39.89,0,0,1,3.86,1.22,8.39,8.39,0,0,0,6-.16l1-.39a3.8,3.8,0,0,0,2.36-3.75l-.19-3.27,1-2.69Z"/><path class="cls-11" d="M111,155.28a2.41,2.41,0,0,1-.55.13l-1.58.28-5.85.94L94.37,158l-5.12.77a9.71,9.71,0,0,0-5,2,32.91,32.91,0,0,0-3.62,4.15l-3.24,4.05c-2.07,2.55-3.93,4.86-5.52,6.83l-3.75,4.57-1,1.23a2.59,2.59,0,0,1-.39.4s.09-.17.31-.47l1-1.29c.9-1.16,2.13-2.74,3.62-4.68l5.43-6.89,3.22-4.07A32.47,32.47,0,0,1,84,160.34a10.22,10.22,0,0,1,5.21-2.12l5.14-.74,8.69-1.22,5.87-.77,1.6-.18A2,2,0,0,1,111,155.28Z"/><path class="cls-3" d="M97.15,160.13a2.52,2.52,0,0,0-.82.66.88.88,0,0,0,0,1,.93.93,0,0,0,1.23,0,1.26,1.26,0,0,0,.47-.71.82.82,0,0,0-.25-.79.66.66,0,0,0-.81,0"/></g><g id="Plant"><path class="cls-6" d="M95.52,378c-1.73,2.46-5.07,1.65-6.63.15s-2.21-3.68-2.8-5.76c-1.37-4.74-2.75-9.72-1.73-14.55a8,8,0,0,1,1.86-4,4.21,4.21,0,0,1,4-1.33c1.69.45,2.74,2.1,3.5,3.67a34.77,34.77,0,0,1,3.43,14.89A12.11,12.11,0,0,1,95.52,378"/><g class="cls-9"><path d="M95.52,378c-1.73,2.46-5.07,1.65-6.63.15s-2.21-3.68-2.8-5.76c-1.37-4.74-2.75-9.72-1.73-14.55a8,8,0,0,1,1.86-4,4.21,4.21,0,0,1,4-1.33c1.69.45,2.74,2.1,3.5,3.67a34.77,34.77,0,0,1,3.43,14.89A12.11,12.11,0,0,1,95.52,378"/></g><path class="cls-6" d="M89.06,390.51a14.89,14.89,0,0,0-9.27-1.13,7.65,7.65,0,0,0-4.57,2.05c-1.15,1.26-1.36,3.48,0,4.56a4.37,4.37,0,0,0,2.89.74c2.45,0,5.16-.46,7.12,1,1.12.84,1.86,2.24,3.2,2.65a3.15,3.15,0,0,0,3.47-1.54,5.42,5.42,0,0,0,.39-4A6.07,6.07,0,0,0,89.06,390.51Z"/><path class="cls-6" d="M100.25,381.57a8.93,8.93,0,0,1-1.39-8.24,15.84,15.84,0,0,1,4.88-7.08,26.38,26.38,0,0,1,8.74-5.16,9.33,9.33,0,0,1,3.93-.66,4.12,4.12,0,0,1,3.3,2c.92,1.76,0,3.88-.92,5.62a65.81,65.81,0,0,1-5.74,8.74c-1.72,2.22-3.69,4.41-6.31,5.41s-5.35.89-6.74-.93"/><path class="cls-7" d="M95.63,415.17a5.71,5.71,0,0,1-.15-1.12l-.3-3.05c-.14-1.28-.33-2.81-.68-4.48a35.81,35.81,0,0,0-1.63-5.28,19.73,19.73,0,0,0-2.7-4.78,10.18,10.18,0,0,0-3.41-2.84,9.61,9.61,0,0,0-2.87-.89,5.32,5.32,0,0,1-1.12-.16,5.2,5.2,0,0,1,1.13,0,8.66,8.66,0,0,1,3,.78,10,10,0,0,1,3.6,2.86,19.18,19.18,0,0,1,2.8,4.88,32.67,32.67,0,0,1,1.61,5.37,37.39,37.39,0,0,1,.6,4.53c.09,1.3.13,2.35.15,3.07A4.73,4.73,0,0,1,95.63,415.17Z"/><path class="cls-7" d="M95.42,412.82a3.52,3.52,0,0,1,0-.52c0-.38,0-.88,0-1.48,0-1.29,0-3.15-.07-5.45-.11-4.61-.51-11-1.27-17.94s-1.8-13.27-2.73-17.78c-.22-1.13-.44-2.15-.65-3s-.37-1.66-.53-2.29l-.35-1.44a2.17,2.17,0,0,1-.09-.51,1.81,1.81,0,0,1,.18.49c.11.37.26.84.43,1.42s.39,1.38.61,2.27.48,1.9.72,3a168.61,168.61,0,0,1,2.87,17.8c.76,7,1.11,13.37,1.14,18,0,2.31,0,4.18-.08,5.47,0,.6-.07,1.09-.09,1.48A1.85,1.85,0,0,1,95.42,412.82Z"/><path class="cls-7" d="M95.39,400.53a11.47,11.47,0,0,1,0-1.55c.06-1,.2-2.43.48-4.2a58.93,58.93,0,0,1,3.92-13.36,38.75,38.75,0,0,1,7.52-11.7,18.29,18.29,0,0,1,1.77-1.64c.27-.23.51-.46.75-.64l.69-.47a9.48,9.48,0,0,1,1.3-.84,45.65,45.65,0,0,0-4.27,3.82,40.29,40.29,0,0,0-7.33,11.66,57,57,0,0,0-2.58,7.17c-.67,2.25-1.11,4.32-1.45,6.06s-.5,3.17-.62,4.16A8.44,8.44,0,0,1,95.39,400.53Z"/></g></svg>