<svg fill="none" height="60" viewBox="0 0 180 60" width="180" xmlns="http://www.w3.org/2000/svg"><g fill="#ec4239"><path d="m20.4483 10c-10.90308.0321-20.4241474 8.5167-20.44825134 20.3759-.02410396 11.4413 8.91043134 20.4 20.37585134 20.4241 11.6262.0241 20.4643-9.1274 20.4723-20.3759 0-11.6985-9.4005-20.3759-20.3999-20.4241zm-14.63919 27.2777c-.50619.5142-1.2052.4981-1.69532-.0161-.65884-.691-.67491-1.9605-.0241-2.6675.56243-.6026 1.38999-.5464 1.88011.1446.233.3214.36156.7472.36156 1.4221-.00804.2893-.16069.7553-.52225 1.1169zm20.44019-10.5817c-.3214 3.1657-.8437 6.3153-.9803 9.505-.0321.7713-.0321 1.5507-.008 2.322.0241.7392-.3374 1.2133-.9722 1.5106-.6106.2892-1.2775.3535-1.9444.3936-.3133.0161-.482-.1205-.5303-.4499-.2169-1.3418-.1687-2.6916-.0241-4.0334.233-2.2818.7232-4.5315.8276-6.8214.0321-.7553.0562-1.5105-.0562-2.322-.5464.6026-.9722 1.2052-1.39 1.8238-1.157 1.7355-2.1372 3.5755-3.1496 5.3913-.4017.707-.9802 1.2293-1.7516 1.5105-.466.1687-.932.1848-1.406-.008-.6348-.2571-.924-.7071-.8196-1.382.1286-.8356.233-1.6632.1768-2.5068-.0161-.2973-.0723-.5865-.2652-.8276-.2812-.3374-.6347-.2892-.7954.1125-.0482.1205-.0964.2491-.1125.3857-.0883.7311-.3615 1.39-.707 2.0247-.3937.7312-.4982 1.5427-.683 2.3301-.0241.1044-.0482.2089-.0723.3133-.2812 1.6632-1.5346 2.0087-2.83621 1.9765-.93202-.0241-1.4382-.7231-1.33375-1.7033.0482-.4821.2089-.932.40173-1.3739 1.81583-4.2745 3.71203-8.5168 5.46353-12.8153.1286-.3214.2491-.6508.3857-.9642.3857-.8758 1.6792-1.3177 2.5309-.8677.2009.1044.3134.2812.4018.4821.4579 1.0605.5784 2.1854.5784 3.3263 0 1.4302-.0241 2.8604-.0321 4.2905 0 .1607-.0161.3134.0964.458.2652.3616.3053.3696.6026.0241.932-1.0927 1.6873-2.3059 2.4827-3.4951.7794-1.165 1.5266-2.3541 2.5952-3.2942.6589-.5704 1.39-.9963 2.2819-1.0606.6267-.0401 1.2614.5223 1.2775 1.149.0321 1.5346-.0804 3.0692-.233 4.5958zm3.6718 5.2788c.0241.458.3857.6347.7231.8356.6348.3776 1.2856.233 1.9364.0562.6669-.1848 1.3257-.4258 1.9444-.7311.249-.1205.3615-.0402.466.1687.1446.2732.1607.5705.0803.8517-.2892.9481-.8758 1.6149-1.8962 1.7917-.8436.1446-1.6872.2812-2.5389.3053-2.0087.0482-3.5111-1.1248-3.945-3.0933-.3535-1.5989-.1205-3.1817.2089-4.7565.3696-1.7998 1.2454-3.2782 2.7157-4.387 1.0124-.7632 2.1372-1.1891 3.4147-1.181 2.2899.008 3.9611 1.5506 4.1459 3.8244.0643.7714-.1848 1.4383-.7231 2.0007-.6508.6829-1.4302 1.1971-2.2578 1.631-1.2212.6348-2.4586 1.2213-3.6316 1.9444-.2812.1768-.6749.2973-.6428.7392z"/><path d="m29.6645 27.5878c.1767-1.0284.4017-2.2416 1.6792-2.8442.7633-.3616 1.5587-.3455 2.314.0401.707.3535.8356.916.4338 1.5909-.6829 1.1329-1.7033 1.7355-2.9728 1.9685-.2491.0482-.4981.0723-.7552.0964-.5705.0482-.7071-.0804-.699-.8517z"/></g></svg>