<svg fill="none" height="60" viewBox="0 0 180 60" width="180" xmlns="http://www.w3.org/2000/svg" xmlns:xlink="http://www.w3.org/1999/xlink"><clipPath id="a"><path d="m0 12h89.6253v36h-89.6253z"/></clipPath><g clip-path="url(#a)"><path d="m11.9357 41.8757c-.001 1.1801-.3518 2.3335-1.0081 3.3142-.6564.9808-1.58878 1.7449-2.67935 2.1959-1.09056.4509-2.29034.5684-3.44767.3376s-2.22024-.7996-3.05437-1.6344c-.834129-.8348-1.402027-1.8982-1.631901-3.0557-.229875-1.1575-.11140696-2.3572.340429-3.4474.451835-1.0902 1.216752-2.022 2.198052-2.6775.9813-.6556 2.13493-1.0054 3.31505-1.0054.78412 0 1.56056.1545 2.28493.4547s1.38248.7402 1.93673 1.2949c.5542.5547.9937 1.2132 1.2933 1.9378s.4535 1.5012.4529 2.2853z" fill="#fdcc0f"/><g fill="#231f20"><path d="m40.3085 44.6368c0 1.7401-.8406 2.5807-2.5807 2.5807h-3.8123c-1.74 0-2.5807-.8406-2.5807-2.5807v-15.4792c0-2.0724-.7283-3.4752-3.1379-3.4752-1.7653.0292-3.4898.5359-4.9903 1.4664v17.4978c0 1.74-.8407 2.5807-2.5807 2.5807h-3.8124c-1.74 0-2.5807-.8407-2.5807-2.5807v-22.8694c0-1.7351.8407-2.5807 2.5807-2.5807h1.4028c1.2365 0 1.74.6159 2.522 2.0186 2.9473-1.7962 6.324-2.7653 9.7753-2.8055 7.6248 0 9.8145 4.0372 9.8145 9.4185z"/><path d="m65.6561 36.1714h-13.9641c-.2248 3.6462 1.6814 4.7118 6.0558 4.7118 2.1196.0545 4.2353-.2108 6.2758-.787 2.2434-.4887 3.5289.8407 3.5289 2.5221v1.0655c0 1.5152-.5621 2.4438-2.0186 2.9717-2.9063.8983-5.9318 1.3515-8.9738 1.3441-9.2524 0-13.7392-4.7117-13.7392-14.8048 0-10.093 4.4282-14.8047 13.1234-14.8047 10.8213 0 12.5026 7.2875 12.2827 15.1958 0 1.6813-.8407 2.5807-2.5807 2.5807zm-13.9641-5.4986h7.962c.4888-3.0841-.1662-5.5524-3.5875-5.5524-3.0255 0-4.3745 2.0186-4.3745 5.5524z"/><path d="m73.6718 15.7558c0-1.6276.6697-2.2434 2.6932-2.8055l2.9326-.7869c2.3216-.611 3.348.5669 3.348 2.2825v4.7117h4.3989c1.74 0 2.5807.8407 2.5807 2.5807v2.3021c0 1.74-.8407 2.5807-2.5807 2.5807h-4.3989v10.7236c0 2.1896.8407 3.4213 3.7 3.4213h.5621c.3154-.0134.6303.038.9252.1509.2948.113.5634.2851.7892.5058.2258.2208.4039.4854.5235.7776.1196.2923.178.6059.1717.9216v1.8475c.0201.6661-.2014 1.317-.6236 1.8326s-1.0166.8612-1.6736.973c-.8317.1543-1.6761.2296-2.522.2248-7.9621 0-10.8214-3.309-10.8214-9.9269v-11.4371h-2.1848c-1.74 0-2.5806-.8407-2.5806-2.5807v-1.3002c0-1.4663.6158-2.1847 2.2434-2.6344l2.522-.6745z"/></g></g></svg>