<svg fill="none" height="60" viewBox="0 0 180 60" width="180" xmlns="http://www.w3.org/2000/svg"><path d="m36.1302 47.4634c.0247-7.6504-.148-23.7905-.148-23.7905v-.8637h6.5152s.0247.2468.0494.7897c.074.8391.1727 1.6782.2714 2.764 1.5795-2.0483 3.3811-3.3316 5.7009-3.7758 5.4047-1.0612 9.7728 2.0483 10.3651 7.6011.5923 5.5281.1234 11.0808.2468 16.6336.0247.5923 0 .6663 0 .6663h-7.5517s0-.4689 0-1.0118c0-4.0967 0-8.2181 0-12.3148 0-.9131 0-1.8016-.2468-2.69-.7651-2.8134-3.9733-3.7512-6.1204-1.7522-1.1106 1.0365-1.5795 2.3445-1.5795 3.8746 0 4.2694-.0246 9.6741.0247 13.9436" fill="#000"/><path d="m5.23213 37.0988c2.91211.0247 5.13317 2.3445 5.10857 5.3307-.0247 2.8874-2.34453 5.1579-5.18261 5.1332-2.86276-.0247-5.13322-2.3445-5.15789893-5.2319-.02467897-2.8875 2.34449893-5.2567 5.23193893-5.232z" fill="#04a746"/><g fill="#000"><path d="m77.2451 19.6265c-2.2952 0-3.85-1.4314-3.85-3.5538 0-2.3938 1.5548-4.0473 3.85-4.0473 2.2704 0 3.9239 1.6041 3.9486 3.8499.0247 2.2705-1.5548 3.7512-3.9486 3.7512z"/><path clip-rule="evenodd" d="m27.3692 46.5508c4.5903-2.1223 6.4165-6.145 6.5893-10.9821.2961-7.9713-4.8371-13.4253-12.4135-13.4006-7.6258.074-12.70967 5.2072-12.70967 12.833 0 .1728.02468.3208.04936.4689 2.34451 1.8016 3.87461 4.6396 3.87461 7.8232 0 .4689-.0494.9132-.0987 1.3574.1974.4195.5429.7157.9871 1.0118 4.4176 2.8134 9.0572 3.0602 13.7215.8884zm-9.8716-16.214c-.7403 1.456-.9871 3.0355-1.0118 4.6396.0494 1.925.3208 3.7759 1.4314 5.4047 1.9249 2.7394 5.5281 2.6407 7.0828-.2961 1.7276-3.233 1.8016-6.614.1234-9.921-.7403-1.5054-1.999-2.3938-3.7265-2.3691-1.8016.0246-3.0849.9378-3.8993 2.5419z" fill-rule="evenodd"/><path clip-rule="evenodd" d="m129.491 46.625 1.678-.4689-1.135-5.2566s-.568.1974-1.012.3208c-2.863.7651-5.8 1.1106-8.736.2715-1.703-.4936-3.011-1.4314-3.53-3.2576-.197-.691-.246-1.0119-.246-1.0119s5.602.0247 7.897.0247c.581 0 1.161-.0015 1.739-.0031 1.731-.0046 3.451-.0092 5.171.0278.74.0247 1.037-.1974 1.037-.9378 0-.4363.02-.8726.041-1.3075.035-.7215.069-1.4393.008-2.1476-.222-2.9121-.938-5.6761-3.011-7.8725-3.603-3.8253-10.785-4.1214-15.079-.5183-4.195 3.5291-5.232 8.2428-4.393 13.376.864 5.38 3.998 8.4155 9.329 9.4027 3.455.6416 6.885.2961 10.242-.6417zm-12.784-14.4372s3.085-.0247 4.368-.0247h4.344s.024-.0246.049-.3948c.173-1.6042-1.209-3.7512-2.764-4.2695-2.764-.9131-5.8 1.2093-5.997 4.1708-.025.4935 0 .5182 0 .5182z" fill-rule="evenodd"/><path d="m69.9156 12h-7.305v35.4636h7.305z"/><path d="m80.9473 23.0811h-7.305v24.3827h7.305z"/><path d="m84.5009 47.4634c.0246-7.6504-.1481-23.7905-.1481-23.7905v-.8637h6.5152s.0247.2468.0494.7897c.074.8391.1727 1.6782.2715 2.764 1.5794-2.0483 3.381-3.3316 5.7008-3.7758 5.4043-1.0612 9.7733 2.0483 10.3653 7.6011.592 5.5281.123 11.0808.247 16.6336.024.5923 0 .6663 0 .6663h-7.5521s0-.4689 0-1.0118c0-4.0967 0-8.2181 0-12.3148 0-.9131 0-1.8016-.2468-2.69-.7651-2.8134-3.9733-3.7512-6.1204-1.7522-1.1105 1.0365-1.5794 2.3445-1.5794 3.8746 0 4.2694-.0247 9.6741.0246 13.9436"/></g></svg>