<?xml version="1.0" encoding="utf-8"?>
<!-- Generator: Adobe Illustrator 26.3.1, SVG Export Plug-In . SVG Version: 6.00 Build 0)  -->
<svg version="1.1" id="Layer_1" xmlns="http://www.w3.org/2000/svg" xmlns:xlink="http://www.w3.org/1999/xlink" x="0px" y="0px"
	 viewBox="0 0 418.8 173.8" style="enable-background:new 0 0 418.8 173.8;" xml:space="preserve">
<style type="text/css">
	.st0{fill:#53BCE6;}
</style>
<g>
	<path d="M12.7,173.8H0v-133c10.1-3.2,20.7-4.9,31.4-5c6.9-0.1,13.8,1.1,20.3,3.5c5.8,2.1,11.2,5.4,15.7,9.7
		c4.4,4.2,7.8,9.2,10,14.9c2.4,5.9,3.5,12.3,3.5,18.7c0,8.2-1.4,15.2-4.2,21.1c-2.6,5.6-6.4,10.5-11.1,14.5
		c-4.6,3.8-9.9,6.6-15.7,8.3c-5.8,1.8-11.9,2.7-18,2.7c-3.3,0-6.5-0.2-9.7-0.7s-6.4-1.2-9.5-2L12.7,173.8z M66.4,82.3
		c0-10.6-3-19.2-8.9-25.8c-5.9-6.5-14.3-9.8-25-9.8c-3.4,0-6.7,0.2-10.1,0.6c-3.3,0.4-6.6,1.2-9.7,2.3v64.9c3,1,6,1.8,9.1,2.5
		c3,0.7,6,1,9.1,1c10.9,0,19.5-3.1,25.9-9.3C63.2,102.6,66.4,93.8,66.4,82.3z"/>
	<path d="M106.5,128.3V0h12.8v128.2h-12.8V128.3z"/>
	<path d="M224.2,114.9c-4.1,4.5-9.2,8.1-14.8,10.5S197,129,189.1,129c-6.6,0.1-13.2-1.1-19.3-3.8c-5.3-2.3-10-5.8-13.7-10.2
		c-3.7-4.3-6.5-9.3-8.2-14.7c-1.9-5.6-2.8-11.5-2.8-17.4c-0.2-7.1,1-14.3,3.3-21c1.9-5.5,5-10.5,9-14.8c3.7-3.8,8.2-6.8,13.2-8.7
		c5.1-1.9,10.5-2.8,15.9-2.8c13.4,0,23.6,4.1,30.4,12.4c6.8,8.2,10.1,20.2,9.9,36h-68.7c0.4,10.4,3.4,18.6,9,24.7s13.3,9.2,22.9,9.2
		c5,0.1,10-0.8,14.7-2.7c4.6-1.9,8.6-4.8,11.9-8.5L224.2,114.9z M213.9,73.3c0-3.6-0.6-7.2-1.7-10.6c-1.1-3.1-2.7-6-4.9-8.4
		c-2.3-2.5-5.2-4.4-8.3-5.6c-7.7-2.8-16.2-2.8-23.9,0c-3,1.2-5.8,3-8,5.4c-2.2,2.5-4,5.3-5.4,8.3c-1.7,3.4-2.7,7.1-3.2,10.9
		L213.9,73.3L213.9,73.3z"/>
	<path d="M310.7,58.3c-2.8-3.7-6.3-6.7-10.4-8.9c-4.1-2-8.7-3-13.2-2.8c-6.5,0-11.1,1.2-13.7,3.5c-2.6,2.2-4,5.4-3.9,8.8
		c-0.1,2.2,0.6,4.4,1.8,6.2c1.3,1.8,2.9,3.3,4.8,4.4c2.2,1.3,4.5,2.4,6.9,3.2c2.6,0.9,5.3,1.8,8.2,2.7c3.5,1.1,6.9,2.3,10.4,3.6
		c3.4,1.2,6.6,2.9,9.5,5c2.8,2,5.2,4.6,7,7.6c1.9,3.4,2.8,7.3,2.7,11.3c0.1,3.9-0.9,7.7-2.7,11.2c-1.8,3.3-4.3,6.1-7.3,8.3
		c-3.3,2.4-7,4.1-10.9,5.1c-10.8,2.8-22.3,2.2-32.7-1.8c-6.1-2.7-11.6-6.8-15.9-11.8l10-8.8c6.7,8.6,15.3,12.8,25.9,12.8
		c6.9,0,12-1.3,15.4-3.9c3.3-2.6,5-5.7,5-9.3c0.1-2.5-0.5-4.9-1.8-7.1c-1.3-2-3-3.6-5-4.9c-2.3-1.4-4.7-2.6-7.3-3.4
		c-2.8-0.9-5.7-1.8-8.7-2.7c-3.5-1-6.9-2.1-10.3-3.3c-3.2-1.1-6.3-2.7-9.1-4.7c-2.7-1.9-5-4.4-6.6-7.2c-1.8-3.4-2.7-7.3-2.6-11.2
		c0-8.1,2.9-14.3,8.8-18.7s13.5-6.6,22.9-6.6c6.1-0.1,12.1,1.1,17.7,3.4c5.2,2.2,10.1,6.1,14.9,11.6l-9.4,8.6L310.7,58.3z"/>
	<path d="M344.7,128.3V0.2h12.8v128.1L344.7,128.3L344.7,128.3z M357.6,81l44-44.4h17.2l-45.1,44l44.9,47.6h-17.8L357.6,81z"/>
	<path class="st0" d="M151.1,173.8H73.9v-12.1h77.2V173.8z"/>
</g>
</svg>
