<svg xmlns="http://www.w3.org/2000/svg" viewBox="0 0 394.54 352.13"><defs><style>.cls-1{fill:#fafafa;}.cls-14,.cls-2{fill:#fff;}.cls-3{fill:#e0e0e0;}.cls-4{fill:#f0f0f0;}.cls-5,.cls-6{fill:#ebebeb;}.cls-5{opacity:0.5;}.cls-7{fill:#e6e6e6;}.cls-8{fill:#263238;}.cls-9{fill:#ce7a63;}.cls-10{fill:#2f57a4;}.cls-11,.cls-12{opacity:0.2;}.cls-13{fill:#ba4d3c;}.cls-14{opacity:0.3;}</style></defs><g id="Background_Complete" data-name="Background Complete"><rect class="cls-1" x="224.98" y="7.09" width="158.39" height="90.45"/><polygon class="cls-2" points="233.99 97.54 274.27 7.09 304.51 7.09 264.22 97.54 233.99 97.54"/><polygon class="cls-2" points="315.29 97.54 355.57 7.09 366.6 7.09 326.31 97.54 315.29 97.54"/><path class="cls-3" d="M390.92,3.18H217.42a.71.71,0,0,0-.7.7h0a.71.71,0,0,0,.7.71h173.5a.71.71,0,0,0,.7-.71h0A.71.71,0,0,0,390.92,3.18Z"/><rect class="cls-4" x="303.23" y="6.84" width="1.88" height="90.94" transform="translate(608.34 104.63) rotate(180)"/><rect class="cls-3" x="305.11" y="6.84" width="0.94" height="90.94" transform="translate(611.16 104.63) rotate(180)"/><rect class="cls-4" x="303.23" y="-27.98" width="1.88" height="160.58" transform="translate(251.86 356.48) rotate(-90)"/><path class="cls-4" d="M384.46,96.75h0V6H223.88V96.75h0v1.88H384.46Zm-158.7,0V7.87H382.58V96.75Z"/><rect class="cls-3" x="384.46" y="5.99" width="0.94" height="92.64" transform="translate(769.86 104.63) rotate(180)"/><polygon class="cls-5" points="359.6 0 359.6 125.06 392.56 125.06 386.51 0 359.6 0"/><polygon class="cls-5" points="249.68 0 249.68 125.06 216.72 125.06 222.76 0 249.68 0"/><rect class="cls-1" x="11.74" y="7.09" width="158.39" height="90.45"/><polygon class="cls-2" points="20.75 97.54 61.04 7.09 91.27 7.09 50.99 97.54 20.75 97.54"/><polygon class="cls-2" points="102.05 97.54 142.34 7.09 153.36 7.09 113.08 97.54 102.05 97.54"/><path class="cls-3" d="M177.68,3.18H4.19a.71.71,0,0,0-.71.7h0a.71.71,0,0,0,.71.71H177.68a.7.7,0,0,0,.7-.71h0A.7.7,0,0,0,177.68,3.18Z"/><rect class="cls-4" x="90" y="6.84" width="1.88" height="90.94" transform="translate(181.87 104.63) rotate(180)"/><rect class="cls-3" x="91.87" y="6.84" width="0.94" height="90.94" transform="translate(184.68 104.63) rotate(180)"/><rect class="cls-4" x="90" y="-27.98" width="1.88" height="160.58" transform="translate(38.62 143.25) rotate(-90)"/><path class="cls-4" d="M171.22,96.75h0V6H10.64V96.75h0v1.88H171.22Zm-158.7,0V7.87H169.35V96.75Z"/><rect class="cls-3" x="171.22" y="5.99" width="0.94" height="92.64" transform="translate(343.38 104.63) rotate(180)"/><polygon class="cls-5" points="146.37 0 146.37 125.06 179.32 125.06 173.28 0 146.37 0"/><polygon class="cls-5" points="36.44 0 36.44 125.06 3.48 125.06 9.53 0 36.44 0"/><rect class="cls-6" y="171.99" width="213.08" height="12.6"/><rect class="cls-3" x="158.11" y="171.99" width="54.97" height="12.6"/><rect class="cls-6" y="184.59" width="18.68" height="132.05"/><rect class="cls-3" x="194.4" y="184.59" width="18.68" height="132.05"/><rect class="cls-3" x="36.29" y="184.59" width="18.68" height="132.05"/><rect class="cls-6" y="221.46" width="213.08" height="12.6"/><rect class="cls-3" x="158.11" y="221.46" width="54.97" height="12.6"/><rect class="cls-6" y="270.93" width="213.08" height="12.6"/><rect class="cls-3" x="158.11" y="270.93" width="54.97" height="12.6"/><rect class="cls-3" x="158.11" y="184.59" width="18.68" height="132.05"/><rect class="cls-4" x="374.39" y="181.73" width="16.85" height="130.38" transform="translate(765.63 493.84) rotate(180)"/><rect class="cls-7" x="257.94" y="312.11" width="130.97" height="4.54" transform="translate(646.84 628.75) rotate(180)"/><rect class="cls-1" x="255.6" y="181.73" width="118.78" height="130.38"/><rect class="cls-2" x="269.23" y="230.73" width="91.52" height="31.33" rx="4.37"/><rect class="cls-2" x="269.23" y="271.06" width="91.52" height="31.33" rx="4.37"/><rect class="cls-1" x="305.89" y="229.39" width="18.22" height="6.76" rx="2.47" transform="translate(629.99 465.53) rotate(180)"/><rect class="cls-2" x="269.23" y="190.41" width="91.52" height="31.33" rx="4.37"/><rect class="cls-1" x="305.89" y="189.06" width="18.22" height="6.76" rx="2.47" transform="translate(629.99 384.88) rotate(180)"/><rect class="cls-1" x="305.89" y="269.71" width="18.22" height="6.76" rx="2.47" transform="translate(629.99 546.19) rotate(180)"/><rect class="cls-4" x="252.52" y="177.51" width="121.86" height="4.22" transform="translate(626.91 359.24) rotate(180)"/><rect class="cls-7" x="374.39" y="177.51" width="20.16" height="4.22"/><polygon class="cls-7" points="374.12 135.69 301.53 135.69 295.69 175.32 368.28 175.32 374.12 135.69"/><polygon class="cls-7" points="368.28 175.32 368.24 177.51 295.65 177.51 295.68 175.32 368.28 175.32"/><polygon class="cls-4" points="371.88 135.69 299.29 135.69 293.45 175.32 366.04 175.32 371.88 135.69"/><polygon class="cls-2" points="364.29 173.51 369.6 137.5 301.04 137.5 295.73 173.51 364.29 173.51"/><polygon class="cls-4" points="347.13 175.32 347.09 177.51 267.16 177.51 267.19 175.32 347.13 175.32"/></g><g id="Character"><path class="cls-8" d="M333,33.61c-.78-6.49-11-11.6-19.87-8.53-10.18,3.53-8.57,12.86-15.3,13.22s-10.1,12.29-4.21,17.81-4.93,8-5.29,15.74S288,85.6,281.61,91.33c-8,7.22,4.33,30.48,24.58,19.84,18.15-9.52,40.87,4.18,44.93-9,3.51-11.42-13.71-23.81-10.1-29.35s1.2-10.73-2.89-17.41C333.11,47.17,345.46,34.94,333,33.61Z"/><path class="cls-9" d="M292.64,87.51c-2.47,5-5,10.12-7.65,15.07-1.34,2.47-2.69,4.92-4.09,7.28a55.2,55.2,0,0,1-4.37,6.5l-.33.39a.8.8,0,0,1-.21.19,3.08,3.08,0,0,1-.85.4,9.61,9.61,0,0,1-3,.35,35.06,35.06,0,0,1-7.59-1.17c-2.62-.64-5.27-1.48-7.9-2.39s-5.3-1.94-7.84-3l-2.32,4.22a81,81,0,0,0,15.88,8.17,38.68,38.68,0,0,0,9.25,2.3,18,18,0,0,0,5.56-.23,11.15,11.15,0,0,0,3.15-1.17,9.47,9.47,0,0,0,1.54-1,8.67,8.67,0,0,0,.71-.65l.48-.49a54.74,54.74,0,0,0,5.7-7.45c1.67-2.49,3.18-5,4.63-7.58,2.92-5.1,5.58-10.23,8.05-15.59Z"/><path class="cls-10" d="M298.51,78.25c-4-.14-11.19,14.57-11.19,14.57l10.52,12.77s12.28-15.4,10.59-20.38C306.68,80,304.4,78.46,298.51,78.25Z"/><polygon class="cls-11" points="297.84 81.81 292.37 98.96 297.3 104.92 297.84 81.81"/><path class="cls-9" d="M241.9,107.81l9.67,4.62.18,3.41c-2.79,2.8-8.64,1-8.64,1l-7.16-.93-.92-4a3.51,3.51,0,0,1,3.22-4.33l1.95-.1A3.44,3.44,0,0,1,241.9,107.81Z"/><polygon class="cls-9" points="318.05 342.42 308.55 342.42 307.68 320.41 317.19 320.41 318.05 342.42"/><path class="cls-8" d="M307.66,341.32h10.68a.67.67,0,0,1,.7.65l.36,8.45a1.73,1.73,0,0,1-1.69,1.69c-3.72-.07-5.49-.28-10.19-.28-2.89,0-9.54.3-13.53.3s-3.8-3.95-2.11-4.31c7.62-1.6,11.41-3.81,14.14-5.92A2.71,2.71,0,0,1,307.66,341.32Z"/><g class="cls-12"><polygon points="307.69 320.41 308.13 331.76 317.64 331.76 317.19 320.41 307.69 320.41"/></g><path class="cls-10" d="M294.7,83c-.21,6,.83,20,7.15,52.72l38.59-1.14c-1.12-15.69-1.42-25.37,5.13-57.83a113.62,113.62,0,0,0-16.46-1.67,122.86,122.86,0,0,0-17.52.52c-4.46.54-9.28,1.47-12.44,2.13A5.59,5.59,0,0,0,294.7,83Z"/><path class="cls-9" d="M326.79,55.37c-.94,5.67-1.73,16,2.32,19.68,0,0-3.75,7-13.38,9.55-8.89-4.51-4.14-9-4.14-9,6.24-1.69,5.94-6.35,4.72-10.7Z"/><polygon class="cls-3" points="315.73 84.6 316.88 82.34 323.06 83.74 315.73 84.6"/><path class="cls-2" d="M316.88,82.34c2-.9,11.17-6.88,11.53-8.74a20,20,0,0,1,4.6,1s-1.17,6.75-8.38,14.53C322.77,84.91,320.3,83.07,316.88,82.34Z"/><polygon class="cls-3" points="315.73 84.6 315.21 82.34 311.43 82.61 315.73 84.6"/><path class="cls-2" d="M315.21,82.34c-3.06-2-2.31-6.28-2-8.14a30,30,0,0,0-4.61,1,12.52,12.52,0,0,0-.47,13.93C309.61,85.14,312.14,83.7,315.21,82.34Z"/><path class="cls-11" d="M322.52,59.25l-6.21,5.62a17.12,17.12,0,0,1,.63,3.09c2.4-.42,5.62-3.15,5.8-5.67A8.47,8.47,0,0,0,322.52,59.25Z"/><path class="cls-9" d="M329.79,43.32c-.42,9.43-.4,13.43-5.07,18.34-7,7.39-18.51,4.82-20.92-4.54-2.17-8.42-1.12-22.42,8-26.33A12.88,12.88,0,0,1,329.79,43.32Z"/><path class="cls-8" d="M331.09,33.07c-3.48,1.75-8.29,1.44-9.2,3.55s1.63,14.67,6.86,14.73C333.56,44.86,334.28,36.08,331.09,33.07Z"/><path class="cls-8" d="M330.61,34.63c-7.69,4.88-33.08,9.43-24.78-1.56C312.12,24.73,328.69,28.92,330.61,34.63Z"/><path class="cls-8" d="M301.76,135.69s-3.73,70.23-3.92,99.1c-.2,30,8.25,94.77,8.25,94.77H319s-2.45-65.45-.47-95.07c2.16-32.29,9.67-99.64,9.67-99.64Z"/><polygon class="cls-10" points="320.01 330.02 304.93 330.02 304.31 325.21 321.26 324.62 320.01 330.02"/><path class="cls-11" d="M325.43,160.07c-1.39-1.73-3.21-.83-5.59,4.11-8.12,16.84-4,43.71-.52,59.18C320.88,204.1,323.46,178.71,325.43,160.07Z"/><path class="cls-8" d="M314.17,46.9c0,.77-.38,1.4-.88,1.4s-.92-.6-.93-1.37.38-1.39.88-1.4S314.16,46.13,314.17,46.9Z"/><path class="cls-8" d="M305.52,46.83c0,.77-.39,1.4-.89,1.41s-.92-.61-.93-1.38.38-1.39.88-1.4S305.5,46.07,305.52,46.83Z"/><path class="cls-8" d="M304.81,45.5,303,45S303.93,46.42,304.81,45.5Z"/><path class="cls-13" d="M308.84,47.57a20.35,20.35,0,0,1-2.65,4.94,3.33,3.33,0,0,0,2.75.46Z"/><path class="cls-8" d="M313.17,55.9A7.87,7.87,0,0,1,312,56a.23.23,0,0,1,0-.45,6,6,0,0,0,4.91-2.46.22.22,0,0,1,.31-.07.22.22,0,0,1,.07.31A6.25,6.25,0,0,1,313.17,55.9Z"/><path class="cls-9" d="M332.49,51.91A6.89,6.89,0,0,1,329,55.82c-2.19,1-3.68-.84-3.4-3.11.25-2.05,1.69-5,4.05-5.11A3.1,3.1,0,0,1,332.49,51.91Z"/><path class="cls-8" d="M317.66,44.37a.45.45,0,0,1-.47-.23c-1-1.85-3.63-2.21-3.66-2.21a.47.47,0,0,1-.39-.51.45.45,0,0,1,.51-.39c.13,0,3.15.44,4.33,2.69a.45.45,0,0,1-.18.61Z"/><path class="cls-8" d="M302.88,42.39a.45.45,0,0,1-.37-.79,4.48,4.48,0,0,1,4-1,.45.45,0,0,1,.3.56.45.45,0,0,1-.56.31h0a3.54,3.54,0,0,0-3.14.84A.47.47,0,0,1,302.88,42.39Z"/><path class="cls-9" d="M341.68,91.6c2.74,3.93,5.5,8.12,8.07,12.27a135,135,0,0,1,7,12.73l.38.81.19.41c.05.1,0,0,0,0s0,0,0,0,.09.15.09.46a9.38,9.38,0,0,1-.39,2.59,40,40,0,0,1-2.49,6.37c-2.06,4.33-4.54,8.7-7.06,12.93l3.79,3a83.31,83.31,0,0,0,9.74-12.28,41,41,0,0,0,3.84-7.38,17.05,17.05,0,0,0,1.16-4.81,9.77,9.77,0,0,0-.29-3.29,4.19,4.19,0,0,0-.14-.47l-.15-.41-.18-.46-.36-.94c-1-2.49-2.06-4.89-3.22-7.25s-2.41-4.64-3.68-6.91a138.53,138.53,0,0,0-8.54-13.1Z"/><path class="cls-10" d="M345.57,76.72c3.9,1.06,8.94,14.23,8.94,14.23l-14.68,11.18s-5.81-11-4.33-16C337,80.87,341.11,75.51,345.57,76.72Z"/><path class="cls-10" d="M303.93,343a3.38,3.38,0,0,1-2.25-.58,1.18,1.18,0,0,1-.3-1.1.85.85,0,0,1,.45-.6c1.23-.64,4.82,1.3,5.23,1.52a.2.2,0,0,1,.09.23.25.25,0,0,1-.2.19A16.76,16.76,0,0,1,303.93,343Zm-1.5-2a.91.91,0,0,0-.43.09.31.31,0,0,0-.17.24.73.73,0,0,0,.19.72c.52.52,2.07.61,4.22.26A11.14,11.14,0,0,0,302.43,341Z"/><path class="cls-10" d="M306.91,342.65l-.09,0c-1.08-.52-3.12-2.57-2.83-3.64.06-.26.28-.58.91-.64a1.46,1.46,0,0,1,1.2.39c1.1,1,1.06,3.55,1.06,3.66a.24.24,0,0,1-.12.2A.21.21,0,0,1,306.91,342.65ZM305,338.79h-.13c-.42,0-.46.2-.48.26-.17.65,1.19,2.26,2.28,3a4.8,4.8,0,0,0-.92-2.94A1.1,1.1,0,0,0,305,338.79Z"/><polygon class="cls-9" points="357.9 342.42 348.39 342.42 345.23 320.41 354.74 320.41 357.9 342.42"/><path class="cls-8" d="M348,341.32h10.68a.77.77,0,0,1,.77.65l1.32,8.45a1.5,1.5,0,0,1-1.5,1.69c-3.72-.07-5.52-.28-10.22-.28-2.89,0-5.25.3-9.24.3s-4.25-3.95-2.59-4.31c7.43-1.6,6.72-3.81,9.2-5.92A2.47,2.47,0,0,1,348,341.32Z"/><path class="cls-10" d="M346.52,343a3.68,3.68,0,0,1-2.32-.58,1.29,1.29,0,0,1-.42-1.1.74.74,0,0,1,.38-.6c1.16-.64,5,1.3,5.4,1.52a.22.22,0,0,1,.12.23.21.21,0,0,1-.17.19A16.21,16.21,0,0,1,346.52,343Zm-1.72-2a.82.82,0,0,0-.42.09.27.27,0,0,0-.15.24.84.84,0,0,0,.27.72c.58.52,2.15.61,4.25.26A12.26,12.26,0,0,0,344.8,341Z"/><path class="cls-10" d="M349.46,342.65l-.09,0c-1.14-.52-3.41-2.57-3.25-3.64,0-.26.22-.58.84-.64a1.61,1.61,0,0,1,1.25.39c1.21,1,1.46,3.55,1.47,3.66a.2.2,0,0,1-.09.2A.21.21,0,0,1,349.46,342.65Zm-2.31-3.86H347c-.41,0-.43.2-.44.26-.1.65,1.44,2.26,2.61,3a5.33,5.33,0,0,0-1.25-2.94A1.24,1.24,0,0,0,347.15,338.79Z"/><g class="cls-12"><polygon points="345.23 320.41 346.86 331.76 356.37 331.76 354.74 320.41 345.23 320.41"/></g><path class="cls-8" d="M340.44,134.55c9.26,14.71,6.67,68.84,8.14,97.73,1.51,30.06,8.95,97.28,8.95,97.28H344.68s-12.34-68.42-18.09-97.43c-6.35-32-14.08-97.58-14.08-97.58Z"/><polygon class="cls-10" points="358.39 330.02 343.31 330.02 342.77 325.21 359.73 324.62 358.39 330.02"/><path class="cls-8" d="M313.46,45.57l-1.85-.5S312.58,46.49,313.46,45.57Z"/><path class="cls-10" d="M341,132.26l1.09,3.43c.14.26-.17.55-.61.56l-39.72,1.18c-.35,0-.64-.15-.67-.37l-.45-3.44c0-.24.26-.45.64-.46L340.31,132A.7.7,0,0,1,341,132.26Z"/><path class="cls-8" d="M335.83,136.79l1.05,0c.21,0,.36-.12.34-.25L336.6,132c0-.13-.21-.24-.41-.23l-1.05,0c-.21,0-.36.12-.35.25l.63,4.47C335.44,136.69,335.62,136.8,335.83,136.79Z"/><path class="cls-8" d="M304.66,137.72l1,0c.21,0,.36-.12.34-.25l-.62-4.48c0-.13-.2-.23-.41-.22l-1,0c-.21,0-.36.12-.35.25l.63,4.47C304.27,137.62,304.45,137.72,304.66,137.72Z"/><path class="cls-8" d="M320.25,137.25l1,0c.21,0,.37-.12.35-.25L321,132.5c0-.13-.2-.23-.41-.23l-1.05,0c-.2,0-.36.12-.34.25l.62,4.48C319.85,137.16,320,137.26,320.25,137.25Z"/><path class="cls-9" d="M350.64,137.67l-10.12,1.75,7.39,6.22c-.1.07,5.61-2.14,6.19-6.11Z"/><path class="cls-9" d="M337.68,147.24l2.23,1.69a2.9,2.9,0,0,0,3.44,0l4.56-3.32-7.39-6.22L337.27,143A2.89,2.89,0,0,0,337.68,147.24Z"/></g><g id="Maker_launch" data-name="Maker launch"><rect class="cls-2" x="38.5" y="115.9" width="262.17" height="162.8" rx="8.9" transform="translate(339.18 394.61) rotate(180)"/><path class="cls-10" d="M47.4,279.21H291.78a9.41,9.41,0,0,0,9.4-9.4v-145a9.41,9.41,0,0,0-9.4-9.4H47.4a9.4,9.4,0,0,0-9.4,9.4v145A9.41,9.41,0,0,0,47.4,279.21Zm244.38-162.8a8.4,8.4,0,0,1,8.39,8.39v145a8.41,8.41,0,0,1-8.39,8.39H47.4A8.4,8.4,0,0,1,39,269.81v-145a8.39,8.39,0,0,1,8.39-8.39Z"/><path class="cls-2" d="M41.71,278.7H297.47a7,7,0,0,1,5.3,2.43l9.44,10.92a7,7,0,0,1-5.3,11.58H32.26A7,7,0,0,1,27,292.05l9.45-10.92A7,7,0,0,1,41.71,278.7Z"/><path class="cls-10" d="M32.26,304.14H306.91a7.51,7.51,0,0,0,5.68-12.42l-9.44-10.92a7.48,7.48,0,0,0-5.68-2.6H41.71A7.49,7.49,0,0,0,36,280.8l-9.44,10.92a7.51,7.51,0,0,0,5.68,12.42Zm265.21-24.93a6.51,6.51,0,0,1,4.92,2.25l9.44,10.92a6.5,6.5,0,0,1-4.92,10.75H32.26a6.5,6.5,0,0,1-4.91-10.75l9.44-10.92a6.51,6.51,0,0,1,4.92-2.25Z"/><path class="cls-10" d="M309.38,296.54a3.12,3.12,0,0,1,2,5.52,6.87,6.87,0,0,1-4.44,1.57H32.27a6.88,6.88,0,0,1-4.67-1.76,3.1,3.1,0,0,1,2.18-5.33Z"/><rect class="cls-10" x="93.26" y="71.28" width="152.66" height="252.04" rx="3.83" transform="translate(366.89 27.71) rotate(90)"/><path class="cls-14" d="M49.33,270.88H289.84a3,3,0,0,0,3-3V126.73a3,3,0,0,0-3-3H49.33a3,3,0,0,0-3,3V267.87A3,3,0,0,0,49.33,270.88ZM289.84,124.22a2.52,2.52,0,0,1,2.52,2.51V267.87a2.51,2.51,0,0,1-2.52,2.51H49.33a2.51,2.51,0,0,1-2.51-2.51V126.73a2.52,2.52,0,0,1,2.51-2.51Z"/><path class="cls-10" d="M130.74,177.06c0,5-48.4,5-48.4,0C82.34,149.32,130.74,149.32,130.74,177.06Z"/><path class="cls-2" d="M106.54,181.33a130.94,130.94,0,0,0,16.71-.94c7.2-1,8-2.37,8-3.33,0-14.66-12.83-21.35-24.74-21.35h0c-11.92,0-24.74,6.68-24.74,21.35C81.8,181.12,102.41,181.33,106.54,181.33Zm23.66-4.27c0,1.34-8.22,3.18-23.66,3.18s-23.66-1.84-23.66-3.18c0-13.92,12.26-20.27,23.66-20.27s23.66,6.35,23.66,20.27Z"/><path class="cls-2" d="M78.35,114.27c-3.74,7.85-8.13,26-8.81,40.41a3,3,0,0,0,4.42,2.8,10.64,10.64,0,0,1,3.53-1.21c1.45-.22,2.56-2.26,2.59-4.7l.48-36C80.58,113.61,79.09,112.72,78.35,114.27Z"/><path class="cls-10" d="M72.55,158.35a3.39,3.39,0,0,0,1.65-.43,10.48,10.48,0,0,1,3.36-1.15c1.72-.26,3-2.45,3-5.19l.47-36c0-1.33-.58-2.4-1.46-2.6a1.54,1.54,0,0,0-1.71,1h0c-3.71,7.78-8.16,26-8.86,40.6a3.49,3.49,0,0,0,1.65,3.14A3.56,3.56,0,0,0,72.55,158.35ZM79.32,114h.05c.28.06.69.61.68,1.59l-.48,36c0,2.18-1,4-2.16,4.21A11.38,11.38,0,0,0,73.72,157a2.5,2.5,0,0,1-3.67-2.32c.69-14.52,5.09-32.52,8.76-40.22h0C78.87,114.37,79.07,114,79.32,114Z"/><path class="cls-2" d="M77.65,161.71c0,7.15,57.78,7.15,57.78,0V82.07A108.11,108.11,0,0,0,124,33c-4.8-9.42-10.81-17.36-17.42-17.36S93.92,23.55,89.12,33a108.11,108.11,0,0,0-11.47,49.1Z"/><path class="cls-10" d="M106.54,167.58a129.24,129.24,0,0,0,19.95-1.35c6.36-1,9.45-2.53,9.45-4.52V82.07a109.08,109.08,0,0,0-11.53-49.33c-6-11.7-12-17.64-17.87-17.64S94.64,21,88.67,32.74A109.08,109.08,0,0,0,77.14,82.07v79.64h0C77.14,167.42,103.53,167.58,106.54,167.58Zm0-151.47c5.48,0,11.19,5.75,17,17.09a108,108,0,0,1,11.42,48.87v79.64c0,2.73-12.47,4.86-28.39,4.86s-28.39-2.13-28.39-4.86V82.07A108,108,0,0,1,89.57,33.2C95.35,21.86,101.06,16.11,106.54,16.11Z"/><path class="cls-10" d="M106.54,54.06c9.32,0,17.89-2.54,23.51-7l-.63-.79c-5.36,4.23-13.92,6.75-22.88,6.75S89,50.53,83.66,46.3l-.63.79C88.65,51.52,97.22,54.06,106.54,54.06Z"/><path class="cls-2" d="M133.53,114.27c6.46,8.06,14,27,14.86,41.57a3,3,0,0,1-4.26,2.92,27,27,0,0,0-9.14-2.49,4.82,4.82,0,0,1-4.36-4.7l-.79-36A2.07,2.07,0,0,1,133.53,114.27Z"/><path class="cls-10" d="M145.39,159.55a3.55,3.55,0,0,0,3.51-3.74c-.84-14.69-8.56-33.85-15-41.85h0a2.58,2.58,0,0,0-4.6,1.65l.8,36a5.3,5.3,0,0,0,4.81,5.19,26.39,26.39,0,0,1,9,2.45A3.51,3.51,0,0,0,145.39,159.55Zm-12.25-45c6.31,7.89,13.92,26.78,14.75,41.28a2.49,2.49,0,0,1-1.13,2.24,2.4,2.4,0,0,1-2.41.19,27.68,27.68,0,0,0-9.32-2.54,4.29,4.29,0,0,1-3.89-4.2l-.79-36a1.5,1.5,0,0,1,1-1.5,1.54,1.54,0,0,1,1.77.5Z"/><ellipse class="cls-10" cx="97.33" cy="92.22" rx="16.78" ry="24.02"/><ellipse class="cls-2" cx="95.75" cy="92.22" rx="12.93" ry="20.1"/><path class="cls-2" d="M244.07,274.18a.55.55,0,0,0,.54-.55c0-.52,0-1.16,0-1.89.17-5.63.52-17.33-6.68-24.05-4.39-4.09-10.94-5.72-19.45-4.86-26.73,2.7-41.62-4.7-53.1-26.41-5.1-9.64-16.16-11-25.93-12.17-7.47-.9-14.52-1.76-17.7-6.16-1.94-2.7-2.36-6.57-1.29-11.85a.54.54,0,1,0-1.06-.22c-1.14,5.6-.66,9.75,1.47,12.7,3.46,4.79,10.74,5.67,18.45,6.61,10,1.21,20.27,2.46,25.1,11.59,11.73,22.18,26.92,29.75,54.17,27,8.19-.84,14.45.71,18.6,4.57,6.84,6.38,6.5,17.76,6.34,23.22,0,.75,0,1.4,0,1.93A.55.55,0,0,0,244.07,274.18Z"/><path class="cls-2" d="M126,274.18a.55.55,0,0,0,.54-.54v-.56c.17-10,.4-23.61-14.75-25.56-9-1.15-14.28-3.32-16.24-6.62S95.32,233.21,97,229c1.43-3.64,2.92-7.4,2-10.59a32.35,32.35,0,0,0-7.67-13.2c-4.06-4.65-6.3-7.21,1.52-18.81a.54.54,0,0,0-.9-.61c-8.28,12.29-5.7,15.24-1.43,20.13a31.47,31.47,0,0,1,7.44,12.8c.84,2.83-.51,6.25-1.94,9.88-1.75,4.42-3.55,9-1.3,12.81,2.14,3.61,7.71,5.95,17,7.15,14.18,1.83,14,14.91,13.8,24.47v.57a.54.54,0,0,0,.53.55Z"/><path class="cls-2" d="M238,166.39h.34a9.8,9.8,0,0,1,8.62-6.17,9.65,9.65,0,0,1,3,.31,10.05,10.05,0,0,1,19.21,2.54,7.85,7.85,0,0,1,.22,15.68l-30.68,1.49a6.93,6.93,0,0,1-.67-13.85Z"/><path class="cls-2" d="M193.77,134.47h0a12.18,12.18,0,0,0-8.55,3.53,12,12,0,0,0-1.93,14.54l9.61-6.73,5-10.63a12.05,12.05,0,0,0-4.09-.71m0-1.08a13,13,0,0,1,5.54,1.23l-5.55,11.92L183,154.08a13.15,13.15,0,0,1,10.79-20.69Z"/><path class="cls-2" d="M193.76,146.54,183,154.08a13,13,0,0,0,1.48,1.76,13.16,13.16,0,0,0,18.6-18.61,13.4,13.4,0,0,0-3.75-2.62Z"/><path class="cls-2" d="M229.09,228a3.28,3.28,0,0,0,3.24-2.76l3.54-21.6a3.29,3.29,0,0,0-2.72-3.79L197.23,194a3.28,3.28,0,0,0-3.78,2.72l-3.54,21.6a3.3,3.3,0,0,0,2.72,3.78h0L228.55,228A3.27,3.27,0,0,0,229.09,228ZM196.7,195l.36,0L233,201a2.23,2.23,0,0,1,1.83,2.54l-3.54,21.6a2.2,2.2,0,0,1-.9,1.44,2.14,2.14,0,0,1-1.64.39l-35.93-5.88A2.22,2.22,0,0,1,191,218.5l3.54-21.6a2.2,2.2,0,0,1,.89-1.44A2.23,2.23,0,0,1,196.7,195Zm-4,26.54h0Z"/><polygon class="cls-2" points="206.28 209.92 218.42 205.33 216.32 218.14 206.28 209.92"/><rect class="cls-2" x="58.24" y="192.48" width="7.29" height="21.94"/><rect class="cls-2" x="58.24" y="215.95" width="7.29" height="4.13"/><rect class="cls-2" x="58.24" y="222.6" width="7.29" height="2.06"/><rect class="cls-2" x="58.24" y="228.43" width="7.29" height="1.03"/><polygon class="cls-2" points="69.15 194.5 61.88 181.91 54.61 194.5 69.15 194.5"/><rect class="cls-2" x="160.02" y="157.19" width="4.6" height="13.85"/><rect class="cls-2" x="160.02" y="172.01" width="4.6" height="2.61"/><rect class="cls-2" x="160.02" y="176.2" width="4.6" height="1.3"/><rect class="cls-2" x="160.02" y="179.89" width="4.6" height="0.65"/><polygon class="cls-2" points="166.91 158.46 162.32 150.51 157.73 158.46 166.91 158.46"/><rect class="cls-10" x="55.53" y="76.68" width="5.85" height="17.6"/><rect class="cls-10" x="55.53" y="95.52" width="5.85" height="3.31"/><rect class="cls-10" x="55.53" y="100.85" width="5.85" height="1.66"/><rect class="cls-10" x="55.53" y="105.53" width="5.85" height="0.83"/><polygon class="cls-10" points="64.28 78.31 58.45 68.2 52.62 78.31 64.28 78.31"/></g></svg>