<svg xmlns="http://www.w3.org/2000/svg" viewBox="0 0 644.6 432.66"><defs><style>.cls-1{fill:#fafafa;}.cls-2{fill:#ebebeb;}.cls-3{fill:#2f57a4;}.cls-4{fill:#263238;}.cls-5{fill:#455a64;}.cls-6{fill:#e0e0e0;}.cls-7{fill:#f5f5f5;}.cls-8{opacity:0.3;}.cls-9{opacity:0.2;}.cls-10{fill:#fff;}.cls-11{fill:#a56959;}.cls-12{fill:#7c4435;}.cls-13{opacity:0.78;}</style></defs><g id="Background_Complete" data-name="Background Complete"><rect class="cls-1" x="48.05" y="28.85" width="365.8" height="245"/><rect class="cls-2" x="48.05" y="28.85" width="365.8" height="24.47" transform="translate(461.9 82.16) rotate(180)"/><path class="cls-1" d="M398,41.08A3,3,0,1,0,401,38.33,2.85,2.85,0,0,0,398,41.08Z"/><path class="cls-1" d="M388.46,41.08a3,3,0,1,0,3-2.75A2.86,2.86,0,0,0,388.46,41.08Z"/><path class="cls-1" d="M378.92,41.08a3,3,0,1,0,3-2.75A2.86,2.86,0,0,0,378.92,41.08Z"/></g><g id="Plant"><path class="cls-3" d="M79.94,305.8c19.12-13.36,23.46-38.15,22.7-60.43-.13-3.72.28-7.64-1.49-10.91s-5.89-5.49-9.23-3.92c-2.76,1.3-4,4.51-5.51,7.17A21.7,21.7,0,0,1,77.69,246c-2.37,1.23-5.3,2-7.64.69-3.21-1.77-3.58-6.2-3.56-9.9q.06-10.35.13-20.68c0-3.7,0-7.48-1.12-11s-3.69-6.78-7.21-7.76-7.87,1-8.62,4.66a35.37,35.37,0,0,0-.1,4.61c-.1,1.54-.82,3.23-2.28,3.66s-2.95-.61-4.06-1.7c-3.82-3.73-6.41-8.54-8.83-13.33s-4.77-9.68-8.24-13.76-8.25-7.3-13.55-7.6-10.95,3-12.29,8.17,1.71,10.51,5,14.73a82.46,82.46,0,0,0,17.19,16.39,6.81,6.81,0,0,1,2.88,3.09c.8,2.47-1.54,4.92-4,5.73-2.76.92-5.75.63-8.64,1s-6,1.61-7.1,4.34c-1.51,3.78,1.65,7.74,4.76,10.34A71,71,0,0,0,31.4,249.79c2.72,1,5.58,1.86,7.78,3.78s3.52,5.23,2.19,7.84-4.73,3.44-7.58,2.91-5.4-2.07-8.12-3.1c-5.08-1.92-11.65-1.57-14.9,2.83C8.63,266.94,8.44,271,9.52,274.4a27,27,0,0,0,5.61,9.14c8.15,9.56,18.58,17.26,30.37,21.35s22.72,5.19,34.44.91"/><path class="cls-4" d="M80.24,322.32a162.82,162.82,0,0,0-6-30.49A331,331,0,0,0,61,256.14C59.71,253,58.39,250,57.1,247s-2.58-6-4-8.83a165.28,165.28,0,0,0-9.2-15.86c-3.17-4.9-6.35-9.43-9.36-13.65s-5.91-8.09-8.7-11.51A131.64,131.64,0,0,0,11.5,182c-1.83-1.65-3.29-2.88-4.28-3.71l-1.15-.92a2.42,2.42,0,0,0-.4-.3,2.07,2.07,0,0,0,.36.35l1.1,1c1,.86,2.39,2.12,4.19,3.8a137.75,137.75,0,0,1,14.13,15.25c2.75,3.43,5.61,7.31,8.61,11.53s6.15,8.77,9.3,13.67a167.84,167.84,0,0,1,9.13,15.81c1.42,2.83,2.7,5.79,4,8.81l3.93,9.17A340.85,340.85,0,0,1,73.59,292a166,166,0,0,1,6.17,30.36"/><path class="cls-4" d="M52.89,238.1a7.92,7.92,0,0,0,.36-1.58c.19-1,.43-2.51.69-4.35.52-3.68,1.07-8.8,1.65-14.43s1.2-10.73,1.78-14.4c.29-1.83.53-3.31.71-4.34a7,7,0,0,0,.21-1.6,7.11,7.11,0,0,0-.47,1.55c-.26,1-.58,2.48-.92,4.31-.7,3.66-1.4,8.76-2,14.4s-1.07,10.6-1.46,14.45c-.19,1.73-.35,3.2-.47,4.37A7.05,7.05,0,0,0,52.89,238.1Z"/><path class="cls-4" d="M5.32,229.21a9.75,9.75,0,0,0,1.9.23c1.22.11,3,.25,5.17.51,4.35.47,10.35,1.33,16.92,2.57s12.47,2.63,16.71,3.76c2.12.54,3.83,1,5,1.36a10.49,10.49,0,0,0,1.86.46,9.57,9.57,0,0,0-1.78-.71c-1.16-.41-2.85-1-5-1.58-4.22-1.25-10.12-2.72-16.72-4a169.19,169.19,0,0,0-17-2.38c-2.19-.19-4-.26-5.2-.29A9.92,9.92,0,0,0,5.32,229.21Z"/><path class="cls-4" d="M73.61,291a2.52,2.52,0,0,0,.32-.58l.82-1.72c.7-1.49,1.65-3.69,2.8-6.41,2.29-5.45,5.22-13.08,8.35-21.54s6-16.1,8.16-21.59c1.06-2.67,1.94-4.86,2.6-6.5l.69-1.77c.16-.4.23-.62.2-.63a2.52,2.52,0,0,0-.32.58l-.82,1.72c-.7,1.49-1.65,3.69-2.8,6.41-2.29,5.45-5.22,13.08-8.35,21.54s-6,16.1-8.16,21.59c-1.07,2.67-1.94,4.87-2.6,6.5-.28.7-.5,1.29-.69,1.77S73.58,290.94,73.61,291Z"/><path class="cls-4" d="M10.4,270.58a2.44,2.44,0,0,0,.63.26l1.83.62,6.77,2.19c5.72,1.85,13.58,4.5,22.27,7.44s16.58,5.53,22.33,7.26c2.88.87,5.22,1.55,6.84,2l1.87.49a2.22,2.22,0,0,0,.67.12,3,3,0,0,0-.63-.26l-1.84-.61-6.76-2.19c-5.72-1.86-13.58-4.51-22.27-7.45s-16.58-5.52-22.33-7.25c-2.88-.87-5.22-1.55-6.84-2l-1.87-.49A2.52,2.52,0,0,0,10.4,270.58Z"/></g><g id="Sparkles"><path class="cls-4" d="M499.12,144.71c0,.21,1.59.39,3.55.39s3.55-.18,3.55-.39-1.59-.4-3.55-.4S499.12,144.49,499.12,144.71Z"/><path class="cls-4" d="M495.36,135.06c-.22,0-.4,1.61-.4,3.6s.18,3.59.4,3.59.39-1.61.39-3.59S495.57,135.06,495.36,135.06Z"/><path class="cls-4" d="M491.35,144.47c0-.21-1.59-.39-3.55-.39s-3.55.18-3.55.39,1.59.4,3.55.4S491.35,144.69,491.35,144.47Z"/><path class="cls-4" d="M495.11,154.12c.22,0,.39-1.61.39-3.6s-.17-3.59-.39-3.59-.39,1.61-.39,3.59S494.9,154.12,495.11,154.12Z"/><path class="cls-4" d="M489.38,150c.17.14.86-.42,1.56-1.25s1.13-1.63,1-1.77-.86.43-1.56,1.26S489.21,149.85,489.38,150Z"/><path class="cls-4" d="M489.71,139c-.15.15.31.87,1,1.6s1.44,1.2,1.59,1-.31-.86-1-1.59S489.86,138.89,489.71,139Z"/><path class="cls-4" d="M497.84,141.83c.14.17.81-.16,1.5-.74s1.13-1.17,1-1.33-.8.16-1.49.73S497.7,141.66,497.84,141.83Z"/><path class="cls-4" d="M498.16,146.65c-.16.15.24.85.9,1.57s1.32,1.19,1.48,1-.24-.85-.9-1.57S498.32,146.51,498.16,146.65Z"/><path class="cls-4" d="M640.57,251.2a4.88,4.88,0,0,0,2,.22,4.81,4.81,0,0,0,2-.22,4.54,4.54,0,0,0-2-.23A4.6,4.6,0,0,0,640.57,251.2Z"/><path class="cls-4" d="M638.44,245.72a4.66,4.66,0,0,0-.23,2,4.72,4.72,0,0,0,.23,2.05,5,5,0,0,0,.22-2.05A4.94,4.94,0,0,0,638.44,245.72Z"/><path class="cls-4" d="M636.16,251.07a8.94,8.94,0,0,0-4,0,9.34,9.34,0,0,0,4,0Z"/><path class="cls-4" d="M638.3,256.54a9.57,9.57,0,0,0,0-4.08,9.16,9.16,0,0,0,0,4.08Z"/><path class="cls-4" d="M635,254.19c.1.08.49-.24.89-.71s.64-.92.54-1-.49.24-.88.71S635,254.12,635,254.19Z"/><path class="cls-4" d="M635.23,248c-.09.09.17.49.58.91s.82.68.91.59-.18-.49-.59-.91S635.32,247.9,635.23,248Z"/><path class="cls-4" d="M639.85,249.56c.07.1.46-.09.85-.41s.64-.67.56-.76-.46.09-.85.41S639.77,249.47,639.85,249.56Z"/><path class="cls-4" d="M640,252.3c-.09.09.13.48.51.89s.75.68.84.59-.14-.48-.51-.89S640.12,252.22,640,252.3Z"/><path class="cls-4" d="M489.73,233.3l-.23.55a3.94,3.94,0,0,1-2.15,2.13l-.61.25.58.23a3.94,3.94,0,0,1,2.17,2.18l.16.4.25-.51a3.93,3.93,0,0,1,2.19-2l.53-.19-.69-.33a3.94,3.94,0,0,1-1.91-2Z"/><path class="cls-4" d="M597.33,162l-.23.55a3.91,3.91,0,0,1-2.15,2.13l-.6.25.58.23a3.92,3.92,0,0,1,2.16,2.18l.17.4.24-.51a4,4,0,0,1,2.2-2l.52-.19-.68-.33a3.92,3.92,0,0,1-1.92-2Z"/></g><g id="Device"><rect class="cls-4" x="76.65" y="76.26" width="402.04" height="265.86" rx="14.57" transform="translate(555.33 418.37) rotate(180)"/><path class="cls-4" d="M77.72,322.45h400a17.8,17.8,0,0,1,17.8,17.8v5.47a0,0,0,0,1,0,0H59.92a0,0,0,0,1,0,0v-5.47A17.8,17.8,0,0,1,77.72,322.45Z" transform="translate(555.42 668.17) rotate(180)"/><rect class="cls-5" x="88.56" y="86.82" width="379.33" height="224.52" transform="translate(556.46 398.15) rotate(180)"/><polygon class="cls-5" points="317.3 322.45 311.89 331.05 235.84 331.05 230.82 322.45 317.3 322.45"/><rect class="cls-2" x="95.6" y="94.42" width="364.48" height="216.2" rx="3.27" transform="translate(555.68 405.04) rotate(180)"/><rect class="cls-1" x="95.6" y="110.26" width="364.48" height="200.36" transform="translate(555.68 420.88) rotate(180)"/><path class="cls-4" d="M430.19,102.77a2.91,2.91,0,1,0,2.91-2.91A2.91,2.91,0,0,0,430.19,102.77Z"/><path class="cls-4" d="M447.83,102.77a2.91,2.91,0,1,0,2.91-2.91A2.91,2.91,0,0,0,447.83,102.77Z"/><path class="cls-4" d="M439.36,102.77a2.91,2.91,0,1,0,2.91-2.91A2.91,2.91,0,0,0,439.36,102.77Z"/><path class="cls-5" d="M80.1,322.45c0,.15,89.24.26,199.28.26s199.3-.11,199.3-.26-89.21-.26-199.3-.26S80.1,322.31,80.1,322.45Z"/><rect class="cls-6" x="351.65" y="211.19" width="83.17" height="5.56" transform="translate(786.47 427.94) rotate(180)"/><rect class="cls-6" x="244.22" y="133.94" width="83.17" height="5.56" transform="translate(571.61 273.45) rotate(180)"/><path class="cls-6" d="M120.51,154.66c0,.15,46.32.26,103.44.26s103.44-.11,103.44-.26-46.3-.26-103.44-.26S120.51,154.52,120.51,154.66Z"/><path class="cls-6" d="M120.51,166.81c0,.15,46.32.26,103.44.26s103.44-.11,103.44-.26-46.3-.26-103.44-.26S120.51,166.67,120.51,166.81Z"/><path class="cls-6" d="M120.51,179c0,.15,46.32.26,103.44.26s103.44-.11,103.44-.26-46.3-.26-103.44-.26S120.51,178.82,120.51,179Z"/><path class="cls-6" d="M120.51,191.11c0,.15,46.32.26,103.44.26s103.44-.11,103.44-.26-46.3-.26-103.44-.26S120.51,191,120.51,191.11Z"/><path class="cls-6" d="M120.51,203.26c0,.14,46.32.26,103.44.26s103.44-.12,103.44-.26S281.09,203,224,203,120.51,203.12,120.51,203.26Z"/><path class="cls-6" d="M246.64,215.41c0,.14,18.07.26,40.37.26s40.38-.12,40.38-.26-18.08-.26-40.38-.26S246.64,215.27,246.64,215.41Z"/><path class="cls-6" d="M122,239c0,.14,30.44.26,68,.26s68-.12,68-.26-30.43-.26-68-.26S122,238.85,122,239Z"/><path class="cls-6" d="M122,251.89c0,.14,30.44.26,68,.26s68-.12,68-.26-30.43-.26-68-.26S122,251.74,122,251.89Z"/><path class="cls-6" d="M122,264.78c0,.15,30.44.26,68,.26s68-.11,68-.26-30.43-.26-68-.26S122,264.64,122,264.78Z"/><path class="cls-6" d="M122,277.68c0,.14,30.44.26,68,.26s68-.12,68-.26-30.43-.26-68-.26S122,277.54,122,277.68Z"/><path class="cls-6" d="M351.44,237.76c0,.14,18.14.26,40.52.26s40.53-.12,40.53-.26-18.14-.27-40.53-.27S351.44,237.61,351.44,237.76Z"/><path class="cls-6" d="M351.44,247.88c0,.15,18.14.26,40.52.26s40.53-.11,40.53-.26-18.14-.26-40.53-.26S351.44,247.74,351.44,247.88Z"/><path class="cls-6" d="M351.44,258c0,.15,18.14.26,40.52.26s40.53-.11,40.53-.26-18.14-.26-40.53-.26S351.44,257.87,351.44,258Z"/><path class="cls-6" d="M351.44,268.14c0,.14,18.14.26,40.52.26s40.53-.12,40.53-.26-18.14-.26-40.53-.26S351.44,268,351.44,268.14Z"/><path class="cls-6" d="M351.44,278.27c0,.14,18.14.26,40.52.26s40.53-.12,40.53-.26S414.35,278,392,278,351.44,278.12,351.44,278.27Z"/><rect class="cls-7" x="268.43" y="232.84" width="59.01" height="57.09" transform="translate(595.87 522.76) rotate(180)"/><polygon class="cls-2" points="322.87 285.04 306.54 255.66 293.19 274.44 285.07 264.47 273 285.04 322.87 285.04"/><path class="cls-2" d="M287.5,250a4.25,4.25,0,1,0,4.25-4.25A4.25,4.25,0,0,0,287.5,250Z"/><path class="cls-2" d="M273,285.2a1,1,0,0,0,0-.23c0-.17,0-.39,0-.67,0-.61,0-1.46,0-2.57,0-2.26,0-5.54.06-9.69,0-8.34.07-20.22.13-34.48l-.25.24,49.86,0-.28-.27h0V244q0,3.21,0,6.36v12.3c0,8,0,15.56,0,22.51l.25-.24-36.06.12-10.16.06-2.7,0-.7,0h0l.67,0,2.65,0,10.12.06,36.21.13h.24v-.25c0-6.95,0-14.51,0-22.51v-12.3c0-2.1,0-4.22,0-6.36v-6.45h0l-.29-.29-49.86,0h-.24v.24c.05,14.32.1,26.25.13,34.63,0,4.13,0,7.39.06,9.64q0,1.64,0,2.52c0,.27,0,.48,0,.64S273,285.21,273,285.2Z"/><rect class="cls-7" x="353.21" y="124.44" width="80.04" height="77.43" transform="translate(786.47 326.32) rotate(180)"/><polygon class="cls-6" points="427.05 195.25 404.9 155.4 386.8 180.87 375.79 167.35 359.42 195.25 427.05 195.25"/><path class="cls-6" d="M379.08,147.65a5.76,5.76,0,1,0,5.76-5.76A5.76,5.76,0,0,0,379.08,147.65Z"/><path class="cls-6" d="M359.42,195.47a2.33,2.33,0,0,0,0-.32c0-.23,0-.53,0-.9,0-.83,0-2,0-3.49,0-3.07.05-7.51.09-13.15,0-11.31.1-27.42.17-46.75l-.33.32,67.62.06c.09.08-.72-.72-.38-.37h0v4.38c0,1.46,0,2.92,0,4.37v8.62q0,8.53,0,16.69c0,10.84,0,21.09,0,30.53l.34-.34-48.9.17-13.79.09-3.66,0-.95,0a1.32,1.32,0,0,0-.33,0l.3,0h.91l3.59,0,13.72.09,49.11.17h.33v-.33c0-9.44,0-19.69,0-30.53q0-8.15,0-16.69c0-2.84,0-5.72,0-8.62v-8.75h0c.34.33-.47-.48-.39-.4l-67.62.06h-.33v.33c.07,19.42.13,35.6.17,47,0,5.61.06,10,.08,13.08,0,1.47,0,2.61,0,3.42,0,.36,0,.64,0,.87A1.45,1.45,0,0,0,359.42,195.47Z"/></g><g id="Padlock"><path class="cls-4" d="M237.66,182.16l8-.12-.31-21.78a29.13,29.13,0,0,1,58.26.06l.3,21.84,8-.12-.3-21.78a37.13,37.13,0,0,0-74.26.06Z"/><rect class="cls-3" x="218.63" y="171.54" width="110.86" height="108.31" rx="18.29" transform="translate(548.12 451.39) rotate(180)"/><g class="cls-8"><path d="M263,220a11.05,11.05,0,1,1,16.86,9.38l2.83,13.09H264.58s2-8.22,3.32-13.3A11,11,0,0,1,263,220Z"/></g><g class="cls-9"><path class="cls-10" d="M322.39,247c.72,0,1-12.65.71-28.22s-1.17-28.18-1.89-28.17-1,12.65-.71,28.22S321.67,247,322.39,247Z"/></g><g class="cls-9"><path class="cls-10" d="M322.31,259.54c.72,0,1.32-1.22,1.34-2.75s-.55-2.77-1.27-2.78-1.32,1.22-1.34,2.75S321.59,259.53,322.31,259.54Z"/></g><g class="cls-9"><path class="cls-10" d="M287.53,244.23c.58-.19-.78-5.95-3.13-13.61l-.29,1.27c1.06-1.07,2.17-2.18,3.33-3.41a12.14,12.14,0,0,0,3-7.35,11.42,11.42,0,0,0-1.47-6.25,10,10,0,0,0-2.81-3.17c-.83-.57-1.37-.72-1.47-.58-.26.32,1.43,1.66,2.62,4.56a10.68,10.68,0,0,1-1.79,11.05c-1.11,1.18-2.2,2.32-3.21,3.4l-.54.56.24.7C284.64,239,287,244.42,287.53,244.23Z"/></g><g class="cls-9"><path class="cls-10" d="M241.77,179.07c0,.36,4.43.65,11.59.83s17,.25,27.95.17c5.46,0,10.66-.12,15.39-.22s9-.39,12.41,0a16,16,0,0,1,7.59,2.57c1.59,1.09,2.24,2,2.42,1.88s-.25-1.22-1.78-2.67a15.16,15.16,0,0,0-8-3.6,39.61,39.61,0,0,0-6-.47l-6.72-.07c-4.73,0-9.93,0-15.39,0-10.92.08-20.8.3-28,.59S241.77,178.71,241.77,179.07Z"/></g></g><g id="Character"><path class="cls-3" d="M615.89,410.51l.7,2.65s9.63,15.67,8.49,17.14a6.14,6.14,0,0,1-6.68,2.08c-3.35-.84-17.49-14.27-17.49-14.27L600.1,416Z"/><g class="cls-8"><path d="M624.12,426.75s-4.17-1.85-6.57,3.54c0,0-1.81-.67-6.81-4.86s-9.83-8.28-9.83-8.28-.52-.41-.36,0,.36,1.13.36,1.13l9.65,8.52s5.78,4.95,7.24,5.35,2.91.88,4.75.06a5.13,5.13,0,0,0,2.75-2.38C625.3,429.58,624.12,426.75,624.12,426.75Z"/></g><path class="cls-4" d="M617,432.05s.15-.53.51-1.33a7.34,7.34,0,0,1,5-4.21c.85-.21,1.4-.22,1.4-.27a3.49,3.49,0,0,0-1.45.05,6.9,6.9,0,0,0-5.19,4.35A3.29,3.29,0,0,0,617,432.05Z"/><path class="cls-4" d="M600.1,416.47a2.69,2.69,0,0,0,.23.22l.67.61,2.51,2.17,8.37,7.08a35.79,35.79,0,0,0,4.82,3.67,7.81,7.81,0,0,0,4.79,1.13,4.86,4.86,0,0,0,3-1.5,2.82,2.82,0,0,0,.64-1,6.82,6.82,0,0,1-.73,1,4.86,4.86,0,0,1-2.9,1.36,7.67,7.67,0,0,1-4.62-1.16,36.84,36.84,0,0,1-4.76-3.66l-8.43-7-2.57-2.1-.71-.56C600.2,416.52,600.11,416.46,600.1,416.47Z"/><path class="cls-4" d="M615.36,423.06a10.44,10.44,0,0,0,1.78-1.11,10.3,10.3,0,0,0,1.73-1.19,5.45,5.45,0,0,0-1.9.93A5.37,5.37,0,0,0,615.36,423.06Z"/><path class="cls-4" d="M613.29,420.8a12.86,12.86,0,0,0,2.19-.9,15.32,15.32,0,0,0,2.15-1,6.88,6.88,0,0,0-2.28.71A7.12,7.12,0,0,0,613.29,420.8Z"/><path class="cls-4" d="M611.38,418.87c.06.07.93-.69,2.2-1.31s2.39-.85,2.38-.95a5.28,5.28,0,0,0-2.52.67A5,5,0,0,0,611.38,418.87Z"/><path class="cls-4" d="M610.26,416.57c0,.07.87-.52,2-1s2.1-.72,2.08-.81a4.47,4.47,0,0,0-2.2.52A4.4,4.4,0,0,0,610.26,416.57Z"/><path class="cls-4" d="M610.75,414.39a4,4,0,0,0,1.19-.79,9.8,9.8,0,0,0,1.09-1.12,9,9,0,0,0,.54-.75,1.76,1.76,0,0,0,.25-.45.62.62,0,0,0-.1-.62,1,1,0,0,0-1.09-.13,2.33,2.33,0,0,0-.8.55,3.09,3.09,0,0,0-.73,1.41,4.59,4.59,0,0,0-.1,1.06c0,.25,0,.38.06.38s0-.55.25-1.38a3,3,0,0,1,.73-1.27,2,2,0,0,1,.7-.46.73.73,0,0,1,.75.05c.15.15,0,.44-.17.7s-.34.5-.52.73a10.88,10.88,0,0,1-1,1.13C611.16,414,610.72,414.35,610.75,414.39Z"/><path class="cls-4" d="M611,414.12a.94.94,0,0,0-.11-.38,3.72,3.72,0,0,0-.57-.92,4.35,4.35,0,0,0-1.27-1,4,4,0,0,0-.9-.33,1.17,1.17,0,0,0-.56,0,.62.62,0,0,0-.46.45,1.3,1.3,0,0,0,.42,1,3.83,3.83,0,0,0,.72.63,3.87,3.87,0,0,0,1.51.6,3.2,3.2,0,0,0,1.08,0,1,1,0,0,0,.38-.11,8.43,8.43,0,0,1-1.42-.11,3.79,3.79,0,0,1-1.38-.62,3.63,3.63,0,0,1-.66-.59,1,1,0,0,1-.34-.76c0-.23.36-.28.65-.21a4,4,0,0,1,.84.29,4.25,4.25,0,0,1,1.22.9A13,13,0,0,1,611,414.12Z"/><path class="cls-4" d="M602.84,415.21a2.32,2.32,0,0,1,1.36.07,5.06,5.06,0,0,1,2.43,2.21,5.44,5.44,0,0,1,.64,3.24c-.1.86-.33,1.37-.28,1.39a3.12,3.12,0,0,0,.5-1.36,5.19,5.19,0,0,0-.59-3.42,4.88,4.88,0,0,0-2.63-2.27A1.47,1.47,0,0,0,602.84,415.21Z"/><path class="cls-4" d="M608.55,421.53a16.58,16.58,0,0,0,3.46,2.94,7.92,7.92,0,0,0-1.63-1.59A8,8,0,0,0,608.55,421.53Z"/><path class="cls-4" d="M606.64,420.51c-.09,0-.2.19-.26.45s0,.49,0,.52.2-.17.26-.45S606.72,420.51,606.64,420.51Z"/><path class="cls-4" d="M606.39,418.53c-.08,0-.09.27,0,.53s.18.46.26.45.11-.25,0-.52S606.48,418.5,606.39,418.53Z"/><path class="cls-4" d="M605.34,416.85c-.07.07,0,.26.2.48s.35.35.42.3,0-.26-.17-.5S605.39,416.8,605.34,416.85Z"/><path class="cls-4" d="M603.65,415.81c0,.09.14.25.38.36s.47.14.52.07-.13-.23-.39-.35S603.67,415.73,603.65,415.81Z"/><path class="cls-4" d="M601.67,415.58c0,.09.24.16.5.16s.49-.06.5-.15-.21-.16-.5-.16S601.66,415.5,601.67,415.58Z"/><path class="cls-11" d="M483,162.32c.62.75,1.51,8.7,1.51,8.7s14.64,25,16.69,25.34S512.16,179,512.16,179l9.13,8.4s-4.76,22.34-19.64,26.17c-7,1.81-19.28-20.47-27.46-39l-4.37-10.37Z"/><path class="cls-11" d="M470,165.1a.81.81,0,0,0,0,.26c.38,1.19,2.65,6.14,3.35,6.08s2.32-1.2,2.15-1.91-3-6.13-3-6.13-.51-.83-2.09-.39C469.42,163.28,470,165.1,470,165.1Z"/><path class="cls-11" d="M472.18,162s0,.1.05.25c.38,1.19,2.65,6.14,3.35,6.09s2.32-1.2,2.14-1.91-3-6.14-3-6.14-.5-.83-2.08-.39C471.62,160.17,472.18,162,472.18,162Z"/><path class="cls-11" d="M474.71,159.81s0,.11.05.26c.38,1.19,2.65,6.14,3.35,6.08s2.32-1.2,2.14-1.9-3-6.14-3-6.14-.5-.83-2.08-.39C474.15,158,474.71,159.81,474.71,159.81Z"/><path class="cls-11" d="M477.25,157.69s0,.11.05.26c.38,1.19,2.64,6.14,3.35,6.08s2.31-1.2,2.14-1.9-3-6.14-3-6.14-.51-.83-2.09-.39C476.69,155.87,477.25,157.69,477.25,157.69Z"/><path class="cls-12" d="M474.91,168.07a10.77,10.77,0,0,1-1.3-2.32,10,10,0,0,1-1-2.44,10.7,10.7,0,0,1,1.3,2.33A10.05,10.05,0,0,1,474.91,168.07Z"/><path class="cls-12" d="M477.85,166.79a21.89,21.89,0,0,1-1.8-3.32,20.39,20.39,0,0,1-1.48-3.48,22.24,22.24,0,0,1,1.79,3.33A20.1,20.1,0,0,1,477.85,166.79Z"/><g class="cls-13"><path class="cls-12" d="M480.73,165.23a20.9,20.9,0,0,1-1.8-3.32,20.36,20.36,0,0,1-1.49-3.48,21.72,21.72,0,0,1,1.8,3.33A22.19,22.19,0,0,1,480.73,165.23Z"/></g><path class="cls-11" d="M483,172.18l1-4.39a7.68,7.68,0,0,0-.9-5.62l-.77-1.29-9.58,4.84s2.39,3.11,4.8,1.28l-1.76,3.78Z"/><path class="cls-12" d="M476.67,171.12c.06,0,0-.51.09-1.36a4.93,4.93,0,0,1,1.72-3l.92-.74-1.12.37-2.48.8h.05A2.91,2.91,0,0,1,473,166c-.05-.08-.09-.17-.12-.23l-.13.33c2.76-1.26,5.24-2.43,7-3.38a15.1,15.1,0,0,0,2.73-1.67,29,29,0,0,0-2.89,1.35c-1.78.86-4.27,2-7,3.22l-.22.1.08.23a2.25,2.25,0,0,0,.16.31,2.94,2.94,0,0,0,1.55,1.24,4.24,4.24,0,0,0,1.82.18H476l2.47-.86-.21-.38a5,5,0,0,0-1.7,3.31A2.62,2.62,0,0,0,476.67,171.12Z"/><path class="cls-12" d="M474.15,166.89c-.1,0,.09.53,0,1.24a.92.92,0,0,1-.72.76,1.38,1.38,0,0,1-1.17-.73c-.64-1-1.28-1.93-1.67-2.6s-.6-1.13-.67-1.1,0,.52.34,1.27a22.82,22.82,0,0,0,1.58,2.73,1.79,1.79,0,0,0,1.65.91,1.29,1.29,0,0,0,1-1.18,2.16,2.16,0,0,0-.15-1C474.25,167,474.18,166.88,474.15,166.89Z"/><path class="cls-5" d="M515.69,230.81s8.15-20.07,8.11-20.45l-2.11-7.46-.85-4.33-2.76,3.21L504.61,187.7c-.25.34,6.1-8.87,12.53-17.89,4.48-6.29,9.33-7.67,12.17-7.87a19.26,19.26,0,0,1,3.61-.74L556.1,161a21.93,21.93,0,0,1,13.83,5.07c1.07.88,10,12.68,16,24.36L567.29,203.9l-3.07-5.41v.11c-.26,1.83-1.36,7.18-1.73,9-1.13,5.64-1.49,12.42,1.26,17.07a140.68,140.68,0,0,1,5.34,16H511.89S513.73,235.64,515.69,230.81Z"/><path class="cls-11" d="M561.71,222.42l2-1.57,0-.18.07.1,13-10.41-5.55-9.15,13.4-9.78c-.06.65,12.43,19.16,10.74,22.8-2.39,5.14-18.62,15.42-25.26,19.47a42.84,42.84,0,0,1,5.36,1.06c1.69.56-3.82,2-5.16,2.29-.52.1-1.59-.72-2.73-1.83l-.31.19-.35-.85a36.69,36.69,0,0,1-3.41-4c-.28-.43-.26-2.38-.16-4.44Z"/><path class="cls-3" d="M490,415.94l.07-1.89,19.17.56-.17,6.24-1.18,0c-5.28.13-26.83.31-30.33-.77C473.7,418.9,490,415.94,490,415.94Z"/><g class="cls-8"><path d="M502.19,420.52a6.18,6.18,0,0,1,2.55-3.72,6.86,6.86,0,0,1,4.5-1.17l-.15,5Z"/></g><g class="cls-8"><path d="M482,417.65s-5.73,1.38-5.05,2.26,22.48,1.47,32.11.94v-.4L483.66,420S483.15,417.73,482,417.65Z"/></g><path class="cls-4" d="M509.39,420.45l-.33,0-.95,0-3.47.05c-2.93,0-7,0-11.46-.12s-8.52-.3-11.45-.47l-3.47-.22-.94-.08-.33,0h.33l.95,0,3.47.16c2.93.13,7,.29,11.45.41s8.52.16,11.45.18l3.47,0h.95A1.25,1.25,0,0,1,509.39,420.45Z"/><path class="cls-4" d="M483.66,420.26a7.47,7.47,0,0,0-.6-1.56,7.16,7.16,0,0,0-1.15-1.26,2.49,2.49,0,0,1,1.35,1.16A2.29,2.29,0,0,1,483.66,420.26Z"/><path class="cls-4" d="M489.37,417.75c-.06,0-.32-.28-.58-.7s-.44-.77-.38-.8.31.28.58.69S489.42,417.72,489.37,417.75Z"/><path class="cls-4" d="M490.94,417c-.05,0-.34-.15-.66-.43s-.55-.55-.5-.59.34.15.66.43S491,417,490.94,417Z"/><path class="cls-4" d="M492,415.38a2.43,2.43,0,0,1-1,.09,2.3,2.3,0,0,1-1-.12,2.39,2.39,0,0,1,1-.09A2.49,2.49,0,0,1,492,415.38Z"/><path class="cls-4" d="M492.34,414.21a2.15,2.15,0,0,1-1.12.27,2.17,2.17,0,0,1-1.15-.17,7.2,7.2,0,0,1,1.14,0A6.17,6.17,0,0,1,492.34,414.21Z"/><path class="cls-4" d="M488.77,416.19a4.18,4.18,0,0,1-1.23,0,8.27,8.27,0,0,1-1.3-.31,3.64,3.64,0,0,1-.73-.3.68.68,0,0,1-.3-.36.43.43,0,0,1,.2-.45,2.36,2.36,0,0,1,2.77.68,1.88,1.88,0,0,1,.37.77.62.62,0,0,1,0,.31,3.31,3.31,0,0,0-.53-1,2.3,2.3,0,0,0-1-.66,2,2,0,0,0-1.47.06c-.2.13-.13.34.09.47a4.21,4.21,0,0,0,.68.29,9.2,9.2,0,0,0,1.25.34C488.3,416.14,488.77,416.15,488.77,416.19Z"/><path class="cls-4" d="M488.45,416.23a1,1,0,0,1-.12-.79,1.91,1.91,0,0,1,.36-.83,1.3,1.3,0,0,1,1-.55.46.46,0,0,1,.36.54,1.27,1.27,0,0,1-.22.5,3.36,3.36,0,0,1-.6.67,1.87,1.87,0,0,1-.72.45s.25-.2.6-.55a3.84,3.84,0,0,0,.54-.67c.17-.24.3-.67,0-.73a1.15,1.15,0,0,0-.82.46,2,2,0,0,0-.37.74A3.36,3.36,0,0,0,488.45,416.23Z"/><path class="cls-4" d="M509.14,415.58s-.54-.06-1.41,0a6.51,6.51,0,0,0-3.11,1.1,5.82,5.82,0,0,0-2,2.47c-.31.76-.36,1.27-.4,1.26a1,1,0,0,1,0-.36,4.67,4.67,0,0,1,.24-.95,5.47,5.47,0,0,1,2-2.59,6.21,6.21,0,0,1,3.24-1.08,5.17,5.17,0,0,1,1,.05A1.12,1.12,0,0,1,509.14,415.58Z"/><path class="cls-4" d="M499.84,418.73a11.43,11.43,0,0,1-2.8.18,11,11,0,0,1-2.78-.28c0-.06,1.25,0,2.79.07S499.83,418.67,499.84,418.73Z"/><path class="cls-4" d="M503.58,418.82c.05.05-.11.25-.24.51s-.22.49-.28.49-.09-.28.07-.59S503.54,418.78,503.58,418.82Z"/><path class="cls-4" d="M505,417.23s-.09.22-.29.4-.4.3-.45.25.09-.22.29-.4S505,417.19,505,417.23Z"/><path class="cls-4" d="M507.08,416.54c0,.06-.27,0-.55.13s-.49.22-.54.18.12-.28.47-.38S507.1,416.48,507.08,416.54Z"/><path class="cls-4" d="M508.53,416.22c0,.06-.09.15-.25.2s-.31.05-.33,0,.09-.14.25-.19S508.5,416.17,508.53,416.22Z"/><path class="cls-4" d="M546.19,113.9a7,7,0,0,1,8.16-.63c1.22.79,2.2,2,3.52,2.58,2.21,1,4.81.22,7.2.61a7.61,7.61,0,0,1,6.18,7.63c-.1,1.93-.93,4,0,5.67.82,1.48,2.67,2,4,3.06a5.69,5.69,0,0,1,.79,7.74,28.4,28.4,0,0,0-2.25,2.41c-.94,1.46-.81,3.34-1,5.07s-1.24,3.67-3,3.79c-1.4.09-2.66-1.09-4.06-1-2,.16-2.77,2.51-3.91,4.12a7,7,0,0,1-6.51,2.84c-1.79-.25-3.56-1.19-5.3-.75-2.2.56-3.52,3.14-5.76,3.46-1.67.24-3.22-.87-4.45-2s-2.5-2.45-4.16-2.75c-2-.35-3.93.85-5.94,1.13a6.7,6.7,0,0,1-6.61-3.32c-1.1-2-1.1-4.46-2.13-6.5a35.86,35.86,0,0,0-2.67-3.74,5,5,0,0,1-1-4.32c.36-1,1.24-1.82,1.67-2.84.64-1.52.17-3.24,0-4.88s.16-3.63,1.67-4.3a15.44,15.44,0,0,0,1.92-.64c1.17-.73,1.11-2.4,1.22-3.77a6.23,6.23,0,0,1,2.83-5c1.75-1,4.34-.51,5.22,1.29"/><path class="cls-3" d="M557.38,132.38a13,13,0,0,0-7-18.47,20.4,20.4,0,0,0-7.85-.92,16.4,16.4,0,0,0-6.61,1.36,7.14,7.14,0,0,0-4.09,5.09"/><path class="cls-11" d="M544.9,172.82h0A9.19,9.19,0,0,1,535,164c-.19-5-.36-10-.36-10s-7.58-.71-8.13-8.21-.29-24.81-.29-24.81h0a26.1,26.1,0,0,1,26.4,1.7l1.17.78-.43,40.34A9.18,9.18,0,0,1,544.9,172.82Z"/><path class="cls-4" d="M529.8,134.13a1.09,1.09,0,1,0-1.54,0A1.08,1.08,0,0,0,529.8,134.13Z"/><path class="cls-4" d="M526.88,132.87c.12.12.83-.49,1.86-.56s1.82.42,1.92.28-.08-.29-.42-.52a2.56,2.56,0,0,0-1.55-.38,2.5,2.5,0,0,0-1.47.6C526.91,132.57,526.82,132.81,526.88,132.87Z"/><path class="cls-4" d="M539.6,132.72a1.09,1.09,0,1,0,1.52.27A1.09,1.09,0,0,0,539.6,132.72Z"/><path class="cls-4" d="M538.15,133.11a2.14,2.14,0,0,1,1.87-.56c1-.08,1.81.42,1.92.28s-.08-.29-.42-.52a2.58,2.58,0,0,0-3,.22C538.19,132.81,538.09,133.05,538.15,133.11Z"/><path class="cls-4" d="M534.48,141.13a5.06,5.06,0,0,0-1.69-.25c-.27,0-.49-.06-.52-.2a1.46,1.46,0,0,1,.15-.79c.22-.7.45-1.41.69-2.15.94-3.06,1.59-5.58,1.43-5.63a29.46,29.46,0,0,0-2,5.46l-.64,2.16a1.71,1.71,0,0,0-.08,1.13.73.73,0,0,0,.49.41,2,2,0,0,0,.47,0A4.74,4.74,0,0,0,534.48,141.13Z"/><path class="cls-12" d="M534.64,153.85a17.46,17.46,0,0,0,9.62-3.38s-2,5.55-9.52,5.33Z"/><path class="cls-4" d="M547,118.34a7.07,7.07,0,0,1-6,6.18c-1.84.22-3.84-.29-5.5.55a9.53,9.53,0,0,0-2.8,2.82,4.5,4.5,0,0,1-3.32,2,9.36,9.36,0,0,1-1.88-.45,2.22,2.22,0,0,0-1.86.2,14.52,14.52,0,0,1-1.11-7,6.45,6.45,0,0,1,4.14-5.36c1.49-.44,3.1-.16,4.63-.42a15.15,15.15,0,0,0,3.6-1.33,11.27,11.27,0,0,1,6.19-1.32c2.11.32,4.15,2.06,4.09,4.2"/><path class="cls-4" d="M553.28,138.87c-2.71,2.18-6-3.48-7.45-7a35,35,0,0,1-2.11-11.34,5.74,5.74,0,0,1,.66-3.66c.78-1,1.13.24,2-.75,1.66-1.94,4.75-.89,6.26-.23,2.53,1.1,4.12,3.92,4.61,6.79a28,28,0,0,1-.31,8.71c-.19,1.31-.38,2.63-.56,3.95a6.52,6.52,0,0,1-.78,2.67,1.92,1.92,0,0,1-2.3.89"/><path class="cls-11" d="M553.38,132.7a1.14,1.14,0,0,1,1.09-1.14c1.4,0,3.69.52,3.9,4.39.3,5.52-5,4.14-5,4S553.37,134.84,553.38,132.7Z"/><path class="cls-12" d="M554.56,137.76s.1.06.27.13a1,1,0,0,0,.72,0,2.37,2.37,0,0,0,1-2.19,3.15,3.15,0,0,0-.34-1.37,1.1,1.1,0,0,0-.76-.69.49.49,0,0,0-.56.29c-.06.16,0,.27,0,.28s-.12-.09-.09-.32a.63.63,0,0,1,.2-.36.74.74,0,0,1,.52-.17,1.36,1.36,0,0,1,1,.81,3.1,3.1,0,0,1,.42,1.52,2.51,2.51,0,0,1-1.27,2.46,1.05,1.05,0,0,1-.89-.1C554.58,137.89,554.55,137.77,554.56,137.76Z"/><path class="cls-12" d="M537.12,142.46a1.46,1.46,0,1,1-.12-.18"/><path class="cls-4" d="M533.68,143.54a2.9,2.9,0,0,0,2.34-.08c1.27-.45,2-1.34,1.86-1.42s-.89.53-2,.93S533.69,143.38,533.68,143.54Z"/><path class="cls-3" d="M547.76,114c2-.29,3.5-2.29,3.84-4.32a14.59,14.59,0,0,0-.72-6.09,8.73,8.73,0,0,0-2.94,10.83"/><path class="cls-3" d="M547.78,113.72a3.59,3.59,0,0,0-1.71-4,7.4,7.4,0,0,0-4.5-.79.73.73,0,0,0-.39.1.75.75,0,0,0-.23.48,3.86,3.86,0,0,0,2.15,3.72,11.32,11.32,0,0,0,4.43,1,1.18,1.18,0,0,0,.7-.06.45.45,0,0,0,.25-.59"/><path class="cls-4" d="M520.45,123.62s0-.1.13-.26a1,1,0,0,1,.68-.38.86.86,0,0,1,1,.54,1.2,1.2,0,0,1-.63,1.33,1.44,1.44,0,0,1-1.69-.55,2.27,2.27,0,0,1-.16-2.19,3.91,3.91,0,0,1,4.48-2.22l.3.1,1.39.43-1.14-.88a2.25,2.25,0,0,1-.65-2.4,2.83,2.83,0,0,1,1.7-1.73A4.84,4.84,0,0,1,530,116c.55.33,1,.72,1.47,1a2.78,2.78,0,0,0,1.32.41c.8,0,1.11-.42,1.07-.42a2,2,0,0,1-1.06.22,2.64,2.64,0,0,1-1.18-.46c-.42-.27-.86-.67-1.43-1a6.57,6.57,0,0,0-2-.89,4.27,4.27,0,0,0-2.56.14,3.26,3.26,0,0,0-2,2,2.75,2.75,0,0,0,.82,3l.25-.45-.35-.11a4.36,4.36,0,0,0-5.06,2.55,2.75,2.75,0,0,0,.26,2.63,1.84,1.84,0,0,0,2.22.61,1.51,1.51,0,0,0,.72-1.75,1,1,0,0,0-.58-.6,1.25,1.25,0,0,0-.68,0,1,1,0,0,0-.74.53C520.41,123.51,520.44,123.63,520.45,123.62Z"/><path class="cls-4" d="M575.37,132.53a1.24,1.24,0,0,0-.54,0,2.13,2.13,0,0,0-1.24.95,2.17,2.17,0,0,0-.35,1.09,1.84,1.84,0,0,0,.46,1.3,2.34,2.34,0,0,0,1.41.74,2.17,2.17,0,0,0,1.73-.47,3.69,3.69,0,0,0,.59-3.86,5.41,5.41,0,0,0-3.1-3.28c-.77-.3-1.58-.41-2.34-.65a2.81,2.81,0,0,1-1.81-1.35,4.07,4.07,0,0,1-.28-2.39,14.86,14.86,0,0,1,.7-2.54,8.48,8.48,0,0,0,.54-2.7,3.83,3.83,0,0,0-1-2.56,4.81,4.81,0,0,0-2.22-1.4,6.41,6.41,0,0,0-2.49-.18c-1.64.17-3,1-4.3,1.2a2.93,2.93,0,0,1-1.84-.25,5.49,5.49,0,0,1-1.38-1.15,7.9,7.9,0,0,0-2.44-2.13,4.63,4.63,0,0,0-2.42-.4,4.17,4.17,0,0,0-1.49.43,2.27,2.27,0,0,0-.35.21c-.07,0-.11.08-.1.09a5.77,5.77,0,0,1,2-.53,4.73,4.73,0,0,1,2.29.46,8,8,0,0,1,2.29,2.12,5.44,5.44,0,0,0,1.46,1.25,3.32,3.32,0,0,0,2.09.33c1.46-.22,2.77-1,4.29-1.15a4.82,4.82,0,0,1,4.27,1.44,3.3,3.3,0,0,1,.83,2.22,8,8,0,0,1-.51,2.54,13.82,13.82,0,0,0-.72,2.63,4.48,4.48,0,0,0,.34,2.7,3.34,3.34,0,0,0,2.12,1.58c.81.25,1.61.36,2.31.63a5,5,0,0,1,2.87,3,3.34,3.34,0,0,1-.44,3.44,2,2,0,0,1-2.67-.18,1.74,1.74,0,0,1-.15-2.1,2.12,2.12,0,0,1,1.09-1C575.18,132.55,575.37,132.56,575.37,132.53Z"/><path class="cls-4" d="M543.55,137.84a.26.26,0,0,0,.33-.11.27.27,0,0,0-.49-.2A.26.26,0,0,0,543.55,137.84Z"/><path class="cls-4" d="M541.58,137.67a.27.27,0,0,0,.3-.25.26.26,0,0,0-.21-.32.29.29,0,0,0-.09.57Z"/><path class="cls-4" d="M539.79,138.08a.3.3,0,0,0,.22-.36.31.31,0,0,0-.3-.3.31.31,0,0,0-.22.36C539.52,138,539.65,138.1,539.79,138.08Z"/><ellipse class="cls-4" cx="541.91" cy="139.07" rx="0.26" ry="0.25"/><path class="cls-4" d="M529.45,138.33a.27.27,0,0,0,.3-.25.28.28,0,0,0-.22-.33.28.28,0,0,0-.29.26A.27.27,0,0,0,529.45,138.33Z"/><path class="cls-4" d="M528.14,138.41c.14,0,.19-.25.13-.46s-.24-.33-.38-.28-.19.25-.12.45S528,138.45,528.14,138.41Z"/><path class="cls-4" d="M528.8,140.21a.26.26,0,0,0,.21-.32.28.28,0,0,0-.3-.25.27.27,0,0,0-.21.32A.28.28,0,0,0,528.8,140.21Z"/><path class="cls-4" d="M488.69,414.61l22.56-163.45h0l.64-10.55,56.44-2.68,2.36,8.88c7.92,27.92,47.94,162.94,47.94,162.94l-19.55,6.16-58.2-154.7L513.79,414.34Z"/><path class="cls-5" d="M514.76,239c.15,0,.3-.31.34-.73s-.05-.75-.19-.77-.29.31-.33.72S514.62,239,514.76,239Z"/><path class="cls-5" d="M514.17,245c.15,0,.33-.64.41-1.46s0-1.5-.11-1.51-.32.64-.41,1.46S514,245,514.17,245Z"/><path class="cls-5" d="M513.56,250.92c.14,0,.32-.64.41-1.46s0-1.5-.1-1.51-.33.64-.42,1.46S513.41,250.91,513.56,250.92Z"/><path class="cls-5" d="M512.91,256.86c.15,0,.34-.63.42-1.45s0-1.5-.09-1.52-.33.64-.42,1.46S512.77,256.85,512.91,256.86Z"/><path class="cls-5" d="M512.25,262.8c.14,0,.33-.63.43-1.45s.05-1.5-.09-1.52-.34.64-.43,1.46S512.11,262.79,512.25,262.8Z"/><path class="cls-5" d="M511.57,268.74c.14,0,.33-.63.43-1.45s0-1.5-.09-1.52-.33.64-.43,1.46S511.42,268.73,511.57,268.74Z"/><path class="cls-5" d="M510.86,274.68c.15,0,.34-.64.44-1.45s.06-1.5-.08-1.52-.34.63-.44,1.45S510.72,274.66,510.86,274.68Z"/><path class="cls-5" d="M510.14,280.61c.15,0,.34-.63.44-1.45s.07-1.5-.08-1.51-.33.63-.43,1.45S510,280.6,510.14,280.61Z"/><path class="cls-5" d="M509.41,286.54c.14,0,.34-.63.44-1.45s.07-1.49-.07-1.51-.35.63-.45,1.45S509.26,286.53,509.41,286.54Z"/><path class="cls-5" d="M508.66,292.48c.14,0,.34-.64.44-1.45s.07-1.5-.07-1.52-.34.63-.44,1.45S508.51,292.46,508.66,292.48Z"/><path class="cls-5" d="M507.89,298.4c.14,0,.35-.63.45-1.44s.08-1.5-.06-1.52-.35.63-.45,1.45S507.75,298.39,507.89,298.4Z"/><path class="cls-5" d="M507.12,304.33c.14,0,.34-.63.45-1.45s.08-1.49-.06-1.51-.35.63-.46,1.45S507,304.31,507.12,304.33Z"/><path class="cls-5" d="M506.34,310.26c.14,0,.34-.63.45-1.45s.08-1.5-.06-1.51-.35.62-.46,1.44S506.19,310.24,506.34,310.26Z"/><path class="cls-5" d="M505.55,316.18c.14,0,.34-.62.45-1.44s.08-1.5-.06-1.52-.35.63-.45,1.45S505.4,316.17,505.55,316.18Z"/><path class="cls-5" d="M504.75,322.11c.14,0,.35-.63.46-1.45s.08-1.49-.06-1.51-.35.63-.46,1.44S504.61,322.09,504.75,322.11Z"/><path class="cls-5" d="M504,328c.14,0,.35-.62.46-1.44s.08-1.5-.06-1.52-.35.63-.46,1.45S503.81,328,504,328Z"/><path class="cls-5" d="M503.15,334c.14,0,.34-.63.46-1.45s.08-1.49-.06-1.51-.35.62-.46,1.44S503,333.94,503.15,334Z"/><path class="cls-5" d="M502.32,339.87c.15,0,.36-.62.47-1.44s.1-1.49,0-1.51-.36.62-.47,1.44S502.18,339.85,502.32,339.87Z"/><path class="cls-5" d="M501.45,345.78c.14,0,.36-.62.48-1.44s.1-1.49,0-1.51-.36.62-.48,1.44S501.31,345.76,501.45,345.78Z"/><path class="cls-5" d="M500.56,351.69c.14,0,.36-.63.48-1.44s.11-1.5,0-1.52-.36.62-.48,1.44S500.42,351.67,500.56,351.69Z"/><path class="cls-5" d="M499.67,357.6c.14,0,.36-.63.48-1.44s.11-1.5,0-1.52-.35.62-.48,1.44S499.53,357.57,499.67,357.6Z"/><path class="cls-5" d="M498.77,363.5c.14,0,.36-.62.48-1.44s.11-1.49,0-1.51-.36.62-.48,1.43S498.63,363.48,498.77,363.5Z"/><path class="cls-5" d="M497.88,369.4c.14,0,.35-.62.48-1.44s.11-1.49,0-1.51-.35.62-.48,1.43S497.73,369.38,497.88,369.4Z"/><path class="cls-5" d="M497,375.31c.14,0,.35-.63.48-1.44s.11-1.5,0-1.52-.36.62-.49,1.44S496.83,375.28,497,375.31Z"/><path class="cls-5" d="M496.08,381.22c.14,0,.36-.62.48-1.44s.11-1.5,0-1.52-.36.62-.49,1.44S495.93,381.2,496.08,381.22Z"/><path class="cls-5" d="M495.18,387.13c.14,0,.36-.62.48-1.44s.11-1.49,0-1.52-.36.63-.48,1.44S495,387.11,495.18,387.13Z"/><path class="cls-5" d="M494.28,393c.14,0,.36-.62.48-1.44s.11-1.49,0-1.51-.36.62-.48,1.43S494.14,393,494.28,393Z"/><path class="cls-5" d="M493.39,399c.14,0,.35-.62.48-1.44s.11-1.49,0-1.51-.35.62-.48,1.44S493.24,398.93,493.39,399Z"/><path class="cls-5" d="M492.5,404.87c.14,0,.35-.63.48-1.44s.1-1.5,0-1.52-.36.62-.48,1.44S492.35,404.84,492.5,404.87Z"/><path class="cls-5" d="M491.61,410.78c.15,0,.36-.62.48-1.44s.11-1.49,0-1.52-.35.63-.47,1.45S491.47,410.76,491.61,410.78Z"/><path class="cls-5" d="M491,415.26c.14,0,.3-.3.36-.71s0-.75-.15-.77-.31.29-.36.7S490.83,415.24,491,415.26Z"/><path class="cls-5" d="M600.46,411.64c-.14.05-.15.4,0,.8s.34.68.47.63.15-.4,0-.79S600.6,411.6,600.46,411.64Z"/><path class="cls-5" d="M598.61,405.86c-.13,0,0,.72.22,1.52s.58,1.41.71,1.37,0-.73-.21-1.53S598.75,405.81,598.61,405.86Z"/><path class="cls-5" d="M596.74,400.08c-.14,0,0,.73.22,1.52s.58,1.41.72,1.37,0-.73-.22-1.53S596.87,400,596.74,400.08Z"/><path class="cls-5" d="M594.83,394.31c-.14,0,0,.73.23,1.52s.59,1.41.73,1.36,0-.72-.24-1.52S595,394.26,594.83,394.31Z"/><path class="cls-5" d="M592.89,388.55c-.13,0,0,.73.24,1.52s.6,1.4.73,1.36,0-.73-.24-1.52S593,388.5,592.89,388.55Z"/><path class="cls-5" d="M590.93,382.8c-.14,0,0,.72.24,1.52s.61,1.4.74,1.35,0-.73-.24-1.52S591.06,382.75,590.93,382.8Z"/><path class="cls-5" d="M588.94,377.05c-.14.05,0,.73.25,1.52s.61,1.4.75,1.35,0-.72-.26-1.52S589.07,377,588.94,377.05Z"/><path class="cls-5" d="M586.92,371.32c-.13,0,0,.72.26,1.52s.62,1.39.75,1.34,0-.72-.25-1.52S587.06,371.27,586.92,371.32Z"/><path class="cls-5" d="M584.89,365.59c-.14.05,0,.73.26,1.52s.62,1.39.76,1.34,0-.73-.27-1.52S585,365.54,584.89,365.59Z"/><path class="cls-5" d="M582.83,359.87c-.14,0,0,.72.27,1.51s.63,1.39.76,1.35,0-.73-.27-1.52S583,359.82,582.83,359.87Z"/><path class="cls-5" d="M580.75,354.15c-.13.05,0,.73.28,1.52s.63,1.39.76,1.34,0-.73-.27-1.52S580.89,354.1,580.75,354.15Z"/><path class="cls-5" d="M578.65,348.44c-.13.05,0,.73.28,1.52s.64,1.38.77,1.33,0-.72-.28-1.51S578.79,348.39,578.65,348.44Z"/><path class="cls-5" d="M576.54,342.74c-.14.05,0,.73.28,1.51s.64,1.39.78,1.34,0-.73-.29-1.52S576.67,342.69,576.54,342.74Z"/><path class="cls-5" d="M574.41,337c-.14,0,0,.73.29,1.51s.64,1.39.78,1.34,0-.73-.29-1.52S574.54,337,574.41,337Z"/><path class="cls-5" d="M572.26,331.35c-.13,0,0,.73.3,1.51s.64,1.38.78,1.33,0-.73-.3-1.51S572.4,331.3,572.26,331.35Z"/><path class="cls-5" d="M570.1,325.66c-.13,0,0,.73.3,1.51s.65,1.38.78,1.33,0-.73-.29-1.51S570.24,325.61,570.1,325.66Z"/><path class="cls-5" d="M567.93,320c-.13.06,0,.73.3,1.52s.66,1.38.79,1.33,0-.73-.3-1.52S568.07,319.92,567.93,320Z"/><path class="cls-5" d="M565.75,314.3c-.13.05,0,.72.3,1.51s.66,1.38.79,1.32,0-.72-.3-1.51S565.89,314.24,565.75,314.3Z"/><path class="cls-5" d="M563.56,308.62c-.13.05,0,.73.31,1.51s.65,1.38.79,1.33,0-.73-.31-1.52S563.7,308.57,563.56,308.62Z"/><path class="cls-5" d="M561.36,303c-.13.05,0,.73.31,1.51s.66,1.38.79,1.32,0-.73-.3-1.51S561.5,302.9,561.36,303Z"/><path class="cls-5" d="M559.16,297.28c-.14.05,0,.73.31,1.51s.66,1.38.79,1.32,0-.73-.31-1.51S559.29,297.23,559.16,297.28Z"/><path class="cls-5" d="M557,291.61c-.14.05,0,.73.31,1.51s.66,1.38.79,1.33,0-.73-.31-1.52S557.08,291.56,557,291.61Z"/><path class="cls-5" d="M554.74,286c-.14.05,0,.73.31,1.51s.66,1.37.79,1.32,0-.73-.31-1.51S554.87,285.9,554.74,286Z"/><path class="cls-5" d="M552.52,280.29c-.14,0,0,.72.31,1.51s.66,1.37.8,1.32,0-.73-.31-1.51S552.65,280.23,552.52,280.29Z"/><path class="cls-5" d="M550.2,274.67c-.13.05,0,.73.35,1.5s.7,1.35.83,1.3,0-.73-.35-1.51S550.33,274.61,550.2,274.67Z"/><path class="cls-5" d="M547.59,269.17c-.12.07.07.73.45,1.48s.78,1.31.91,1.25-.07-.73-.45-1.48S547.72,269.11,547.59,269.17Z"/><path class="cls-5" d="M544.36,264c-.11.09.18.72.65,1.4s1,1.17,1.08,1.1-.17-.7-.65-1.4S544.47,263.94,544.36,264Z"/><path class="cls-5" d="M540.88,261.21c0,.14.23.34.57.53s.67.28.76.16-.13-.42-.52-.63S540.92,261.07,540.88,261.21Z"/><path class="cls-3" d="M550,175.54l35.77-1h36.47a8.83,8.83,0,0,1,8.66,9v24.74A104.65,104.65,0,0,1,619,257.53c-6.74,12.65-17.17,25.67-33.23,34-14.77-5.55-25.79-20.34-32.53-33a104.81,104.81,0,0,1-11.9-49.23V184.54A8.84,8.84,0,0,1,550,175.54Z"/><polygon class="cls-10" points="587.02 233.43 600.26 222.48 595.8 217.09 587.82 223.69 574.77 208.71 569.49 213.31 587.02 233.43"/><g class="cls-8"><path d="M550,175.54l35.77-1h36.47a8.83,8.83,0,0,1,8.66,9v24.74A104.65,104.65,0,0,1,619,257.53c-6.74,12.65-17.17,25.67-33.23,34-14.77-5.55-25.79-20.34-32.53-33a104.81,104.81,0,0,1-11.9-49.23V184.54A8.84,8.84,0,0,1,550,175.54Zm1.18,35.56a82.8,82.8,0,0,0,9.42,39c5.33,10,13.17,20.3,25.88,26.85,12.7-6.55,20.25-16.85,25.58-26.85a82.8,82.8,0,0,0,9.42-39V191.53a7,7,0,0,0-6.85-7.12h-56.6a7,7,0,0,0-6.85,7.12Z"/></g></g></svg>