<svg xmlns="http://www.w3.org/2000/svg" viewBox="0 0 564.84 384.48"><defs><style>.cls-1,.cls-2{fill:#ebebeb;}.cls-1{stroke:#ebebeb;stroke-miterlimit:10;}.cls-3{fill:#f5f5f5;}.cls-4{fill:#e0e0e0;}.cls-5{fill:#fafafa;}.cls-6{fill:#263238;}.cls-7{fill:#455a64;}.cls-8{fill:#fff;}.cls-9{fill:#2f57a4;}.cls-10,.cls-11{opacity:0.3;}.cls-12{opacity:0.2;}.cls-13,.cls-16{opacity:0.4;}.cls-14{fill:#ffbe9d;}.cls-15{fill:#eb996e;}.cls-17{opacity:0.6;}.cls-18{opacity:0.5;}</style></defs><g id="Background_Complete" data-name="Background Complete"><path class="cls-1" d="M49.11,378.57c0,3-10.58,5.41-23.64,5.41s-23.64-2.42-23.64-5.41,10.58-5.42,23.64-5.42S49.11,375.58,49.11,378.57Z"/><rect class="cls-2" x="79.99" y="104.61" width="84.76" height="259.65"/><rect class="cls-3" x="164.49" y="104.61" width="66.99" height="258.82"/><rect class="cls-4" x="84.54" y="146.17" width="71.9" height="20.24"/><rect class="cls-3" x="86.54" y="148.71" width="4.03" height="15.49"/><circle class="cls-5" cx="94.03" cy="151.97" r="1.28"/><circle class="cls-5" cx="94.03" cy="157.45" r="1.28"/><rect class="cls-3" x="100.43" y="150.69" width="3.96" height="11.9"/><rect class="cls-3" x="106.14" y="150.69" width="3.96" height="11.9"/><rect class="cls-3" x="111.86" y="150.69" width="3.96" height="11.9"/><rect class="cls-3" x="117.57" y="150.69" width="3.96" height="11.9"/><rect class="cls-3" x="123.29" y="150.69" width="3.96" height="11.9"/><rect class="cls-3" x="129" y="150.69" width="3.96" height="11.9"/><rect class="cls-3" x="134.72" y="150.69" width="3.96" height="11.9"/><rect class="cls-3" x="140.43" y="150.69" width="3.96" height="11.9"/><rect class="cls-3" x="146.15" y="150.69" width="3.96" height="11.9"/><rect class="cls-3" x="151.86" y="150.69" width="3.96" height="11.9"/><rect class="cls-4" x="84.54" y="178.59" width="71.9" height="20.24"/><rect class="cls-3" x="86.54" y="181.14" width="4.03" height="15.49"/><circle class="cls-5" cx="94.03" cy="184.4" r="1.28"/><circle class="cls-5" cx="94.03" cy="189.87" r="1.28"/><rect class="cls-3" x="100.43" y="183.12" width="3.96" height="11.9"/><rect class="cls-3" x="106.14" y="183.12" width="3.96" height="11.9"/><rect class="cls-3" x="111.86" y="183.12" width="3.96" height="11.9"/><rect class="cls-3" x="117.57" y="183.12" width="3.96" height="11.9"/><rect class="cls-3" x="123.29" y="183.12" width="3.96" height="11.9"/><rect class="cls-3" x="129" y="183.12" width="3.96" height="11.9"/><rect class="cls-3" x="134.72" y="183.12" width="3.96" height="11.9"/><rect class="cls-3" x="140.43" y="183.12" width="3.96" height="11.9"/><rect class="cls-3" x="146.15" y="183.12" width="3.96" height="11.9"/><rect class="cls-3" x="151.86" y="183.12" width="3.96" height="11.9"/><rect class="cls-4" x="84.54" y="211.02" width="71.9" height="20.24"/><rect class="cls-3" x="86.54" y="213.56" width="4.03" height="15.49"/><circle class="cls-5" cx="94.03" cy="216.82" r="1.28"/><path class="cls-5" d="M95.31,222.29a1.28,1.28,0,0,1-2.56,0,1.28,1.28,0,0,1,2.56,0Z"/><rect class="cls-3" x="100.43" y="215.54" width="3.96" height="11.9"/><rect class="cls-3" x="106.14" y="215.54" width="3.96" height="11.9"/><rect class="cls-3" x="111.86" y="215.54" width="3.96" height="11.9"/><rect class="cls-3" x="117.57" y="215.54" width="3.96" height="11.9"/><rect class="cls-3" x="123.29" y="215.54" width="3.96" height="11.9"/><rect class="cls-3" x="129" y="215.54" width="3.96" height="11.9"/><rect class="cls-3" x="134.72" y="215.54" width="3.96" height="11.9"/><rect class="cls-3" x="140.43" y="215.54" width="3.96" height="11.9"/><rect class="cls-3" x="146.15" y="215.54" width="3.96" height="11.9"/><rect class="cls-3" x="151.86" y="215.54" width="3.96" height="11.9"/><rect class="cls-4" x="84.54" y="243.44" width="71.9" height="20.24"/><rect class="cls-3" x="86.54" y="245.98" width="4.03" height="15.49"/><circle class="cls-5" cx="94.03" cy="249.24" r="1.28"/><path class="cls-5" d="M95.31,254.72A1.28,1.28,0,1,1,94,253.44,1.28,1.28,0,0,1,95.31,254.72Z"/><rect class="cls-3" x="100.43" y="247.96" width="3.96" height="11.9"/><rect class="cls-3" x="106.14" y="247.96" width="3.96" height="11.9"/><rect class="cls-3" x="111.86" y="247.96" width="3.96" height="11.9"/><rect class="cls-3" x="117.57" y="247.96" width="3.96" height="11.9"/><rect class="cls-3" x="123.29" y="247.96" width="3.96" height="11.9"/><rect class="cls-3" x="129" y="247.96" width="3.96" height="11.9"/><rect class="cls-3" x="134.72" y="247.96" width="3.96" height="11.9"/><rect class="cls-3" x="140.43" y="247.96" width="3.96" height="11.9"/><rect class="cls-3" x="146.15" y="247.96" width="3.96" height="11.9"/><rect class="cls-3" x="151.86" y="247.96" width="3.96" height="11.9"/><rect class="cls-4" x="84.54" y="275.86" width="71.9" height="20.24"/><rect class="cls-3" x="86.54" y="278.41" width="4.03" height="15.49"/><circle class="cls-5" cx="94.03" cy="281.67" r="1.28"/><path class="cls-5" d="M95.31,287.14A1.28,1.28,0,1,1,94,285.86,1.28,1.28,0,0,1,95.31,287.14Z"/><rect class="cls-3" x="100.43" y="280.39" width="3.96" height="11.9"/><rect class="cls-3" x="106.14" y="280.39" width="3.96" height="11.9"/><rect class="cls-3" x="111.86" y="280.39" width="3.96" height="11.9"/><rect class="cls-3" x="117.57" y="280.39" width="3.96" height="11.9"/><rect class="cls-3" x="123.29" y="280.39" width="3.96" height="11.9"/><rect class="cls-3" x="129" y="280.39" width="3.96" height="11.9"/><rect class="cls-3" x="134.72" y="280.39" width="3.96" height="11.9"/><rect class="cls-3" x="140.43" y="280.39" width="3.96" height="11.9"/><rect class="cls-3" x="146.15" y="280.39" width="3.96" height="11.9"/><rect class="cls-3" x="151.86" y="280.39" width="3.96" height="11.9"/><rect class="cls-4" x="84.54" y="308.29" width="71.9" height="20.24"/><rect class="cls-3" x="86.54" y="310.83" width="4.03" height="15.49"/><circle class="cls-5" cx="94.03" cy="314.09" r="1.28"/><path class="cls-5" d="M95.31,319.56A1.28,1.28,0,1,1,94,318.29,1.28,1.28,0,0,1,95.31,319.56Z"/><rect class="cls-3" x="100.43" y="312.81" width="3.96" height="11.9"/><rect class="cls-3" x="106.14" y="312.81" width="3.96" height="11.9"/><rect class="cls-3" x="111.86" y="312.81" width="3.96" height="11.9"/><rect class="cls-3" x="117.57" y="312.81" width="3.96" height="11.9"/><rect class="cls-3" x="123.29" y="312.81" width="3.96" height="11.9"/><rect class="cls-3" x="129" y="312.81" width="3.96" height="11.9"/><rect class="cls-3" x="134.72" y="312.81" width="3.96" height="11.9"/><rect class="cls-3" x="140.43" y="312.81" width="3.96" height="11.9"/><rect class="cls-3" x="146.15" y="312.81" width="3.96" height="11.9"/><rect class="cls-3" x="151.86" y="312.81" width="3.96" height="11.9"/><rect class="cls-4" x="84.54" y="340.71" width="71.9" height="20.24"/><rect class="cls-3" x="86.54" y="343.26" width="4.03" height="15.49"/><circle class="cls-5" cx="94.03" cy="346.51" r="1.28"/><path class="cls-5" d="M95.31,352A1.28,1.28,0,1,1,94,350.71,1.28,1.28,0,0,1,95.31,352Z"/><rect class="cls-3" x="100.43" y="345.23" width="3.96" height="11.9"/><rect class="cls-3" x="106.14" y="345.23" width="3.96" height="11.9"/><rect class="cls-3" x="111.86" y="345.23" width="3.96" height="11.9"/><rect class="cls-3" x="117.57" y="345.23" width="3.96" height="11.9"/><rect class="cls-3" x="123.29" y="345.23" width="3.96" height="11.9"/><rect class="cls-3" x="129" y="345.23" width="3.96" height="11.9"/><rect class="cls-3" x="134.72" y="345.23" width="3.96" height="11.9"/><rect class="cls-3" x="140.43" y="345.23" width="3.96" height="11.9"/><rect class="cls-3" x="146.15" y="345.23" width="3.96" height="11.9"/><rect class="cls-3" x="151.86" y="345.23" width="3.96" height="11.9"/><path class="cls-4" d="M129,146.17a3.82,3.82,0,0,1-.07-.63c0-.41-.06-1-.08-1.79s0-1.74-.09-2.84a17.93,17.93,0,0,0-.5-3.69,13.15,13.15,0,0,0-1.92-4,8.86,8.86,0,0,0-3.93-3.16,18.63,18.63,0,0,0-5.58-1.13l-6.19-.54c-8.49-.73-16.19-1.21-21.76-1.32-2.79-.06-5,0-6.61,0l-1.8,0a2.65,2.65,0,0,1-.63,0,2.49,2.49,0,0,1,.63-.08l1.79-.11c1.57-.07,3.83-.14,6.62-.12,5.59,0,13.31.43,21.8,1.16l6.2.55a19.28,19.28,0,0,1,5.71,1.2,9.26,9.26,0,0,1,4.1,3.35,13.42,13.42,0,0,1,1.93,4.19,18,18,0,0,1,.43,3.77c0,1.12,0,2.07,0,2.85s0,1.33,0,1.8A2.58,2.58,0,0,1,129,146.17Z"/><path class="cls-4" d="M107.19,146.17a2.7,2.7,0,0,1,0-.59c0-.45,0-1,0-1.69s0-1.64-.09-2.67a8.13,8.13,0,0,0-.89-3.32,6.3,6.3,0,0,0-3.24-2.49,8.85,8.85,0,0,0-4.72-.48,8,8,0,0,0-2.43.83,4.59,4.59,0,0,0-1.89,1.79,2.53,2.53,0,0,0,0,2.51,3.34,3.34,0,0,0,2.13,1.6,2.71,2.71,0,0,0,2.5-.72,3.7,3.7,0,0,0,1.12-2.38,3.58,3.58,0,0,0-.75-2.44A5.3,5.3,0,0,0,97,134.45a6.8,6.8,0,0,0-2.37-.61c-.81-.12-1.6-.23-2.36-.32-1.53-.17-3-.27-4.27-.32-2.62-.11-4.74-.07-6.21-.07H80.08a2.44,2.44,0,0,1-.59,0,2.49,2.49,0,0,1,.59-.07l1.69-.09c1.46,0,3.59-.15,6.22-.09,1.32,0,2.76.11,4.31.26.77.08,1.56.18,2.38.29.41.07.82.12,1.25.2a4.78,4.78,0,0,1,1.27.44,5.81,5.81,0,0,1,2.08,1.81,4.14,4.14,0,0,1,.85,2.77,4.21,4.21,0,0,1-1.28,2.72,3.21,3.21,0,0,1-3,.85,3.92,3.92,0,0,1-2.48-1.86,3.05,3.05,0,0,1,0-3,5.14,5.14,0,0,1,2.1-2,8.59,8.59,0,0,1,2.59-.86,9.3,9.3,0,0,1,5,.55,6.66,6.66,0,0,1,3.4,2.7,8.16,8.16,0,0,1,.86,3.49,26.62,26.62,0,0,1,0,2.69c0,.69,0,1.25-.07,1.69A2.27,2.27,0,0,1,107.19,146.17Z"/><path class="cls-4" d="M134.87,146.17a4.32,4.32,0,0,1-.15-.67c-.08-.44-.2-1.09-.38-1.92a37.69,37.69,0,0,0-2.13-6.85,19.91,19.91,0,0,0-6.25-8.39,11.81,11.81,0,0,0-5.72-2.18,61.08,61.08,0,0,0-6.74-.36c-9.29-.17-17.72-.14-23.81-.38-3-.11-5.51-.26-7.21-.38l-2-.17a3.2,3.2,0,0,1-.68-.09,3.38,3.38,0,0,1,.69,0l2,.07c1.7.06,4.17.15,7.21.21,6.09.15,14.5.06,23.81.23a60.36,60.36,0,0,1,6.8.38,12.26,12.26,0,0,1,5.94,2.3,18.33,18.33,0,0,1,4,4.19,24.76,24.76,0,0,1,2.34,4.43,34.64,34.64,0,0,1,2,7c.15.84.24,1.5.29,1.94A3.58,3.58,0,0,1,134.87,146.17Z"/><rect class="cls-4" x="85.53" y="107.84" width="69.92" height="10.15"/><rect class="cls-3" x="100.91" y="112.92" width="38.07" height="5.08"/><rect class="cls-2" x="345.72" y="104.61" width="84.76" height="259.65"/><rect class="cls-3" x="430.22" y="104.61" width="66.99" height="258.82"/><rect class="cls-4" x="350.27" y="146.17" width="71.9" height="20.24"/><rect class="cls-3" x="352.27" y="148.71" width="4.03" height="15.49"/><circle class="cls-5" cx="359.76" cy="151.97" r="1.28"/><circle class="cls-5" cx="359.76" cy="157.45" r="1.28"/><rect class="cls-3" x="366.16" y="150.69" width="3.96" height="11.9"/><rect class="cls-3" x="371.87" y="150.69" width="3.96" height="11.9"/><rect class="cls-3" x="377.59" y="150.69" width="3.96" height="11.9"/><rect class="cls-3" x="383.3" y="150.69" width="3.96" height="11.9"/><rect class="cls-3" x="389.02" y="150.69" width="3.96" height="11.9"/><rect class="cls-3" x="394.73" y="150.69" width="3.96" height="11.9"/><rect class="cls-3" x="400.45" y="150.69" width="3.96" height="11.9"/><rect class="cls-3" x="406.16" y="150.69" width="3.96" height="11.9"/><rect class="cls-3" x="411.88" y="150.69" width="3.96" height="11.9"/><rect class="cls-3" x="417.59" y="150.69" width="3.96" height="11.9"/><rect class="cls-4" x="350.27" y="178.59" width="71.9" height="20.24"/><rect class="cls-3" x="352.27" y="181.14" width="4.03" height="15.49"/><circle class="cls-5" cx="359.76" cy="184.4" r="1.28"/><circle class="cls-5" cx="359.76" cy="189.87" r="1.28"/><rect class="cls-3" x="366.16" y="183.12" width="3.96" height="11.9"/><rect class="cls-3" x="371.87" y="183.12" width="3.96" height="11.9"/><rect class="cls-3" x="377.59" y="183.12" width="3.96" height="11.9"/><rect class="cls-3" x="383.3" y="183.12" width="3.96" height="11.9"/><rect class="cls-3" x="389.02" y="183.12" width="3.96" height="11.9"/><rect class="cls-3" x="394.73" y="183.12" width="3.96" height="11.9"/><rect class="cls-3" x="400.45" y="183.12" width="3.96" height="11.9"/><rect class="cls-3" x="406.16" y="183.12" width="3.96" height="11.9"/><rect class="cls-3" x="411.88" y="183.12" width="3.96" height="11.9"/><rect class="cls-3" x="417.59" y="183.12" width="3.96" height="11.9"/><rect class="cls-4" x="350.27" y="211.02" width="71.9" height="20.24"/><rect class="cls-3" x="352.27" y="213.56" width="4.03" height="15.49"/><circle class="cls-5" cx="359.76" cy="216.82" r="1.28"/><path class="cls-5" d="M361,222.29a1.28,1.28,0,0,1-2.56,0,1.28,1.28,0,0,1,2.56,0Z"/><rect class="cls-3" x="366.16" y="215.54" width="3.96" height="11.9"/><rect class="cls-3" x="371.87" y="215.54" width="3.96" height="11.9"/><rect class="cls-3" x="377.59" y="215.54" width="3.96" height="11.9"/><rect class="cls-3" x="383.3" y="215.54" width="3.96" height="11.9"/><rect class="cls-3" x="389.02" y="215.54" width="3.96" height="11.9"/><rect class="cls-3" x="394.73" y="215.54" width="3.96" height="11.9"/><rect class="cls-3" x="400.45" y="215.54" width="3.96" height="11.9"/><rect class="cls-3" x="406.16" y="215.54" width="3.96" height="11.9"/><rect class="cls-3" x="411.88" y="215.54" width="3.96" height="11.9"/><rect class="cls-3" x="417.59" y="215.54" width="3.96" height="11.9"/><rect class="cls-4" x="350.27" y="243.44" width="71.9" height="20.24"/><rect class="cls-3" x="352.27" y="245.98" width="4.03" height="15.49"/><circle class="cls-5" cx="359.76" cy="249.24" r="1.28"/><path class="cls-5" d="M361,254.72a1.28,1.28,0,1,1-1.28-1.28A1.28,1.28,0,0,1,361,254.72Z"/><rect class="cls-3" x="366.16" y="247.96" width="3.96" height="11.9"/><rect class="cls-3" x="371.87" y="247.96" width="3.96" height="11.9"/><rect class="cls-3" x="377.59" y="247.96" width="3.96" height="11.9"/><rect class="cls-3" x="383.3" y="247.96" width="3.96" height="11.9"/><rect class="cls-3" x="389.02" y="247.96" width="3.96" height="11.9"/><rect class="cls-3" x="394.73" y="247.96" width="3.96" height="11.9"/><rect class="cls-3" x="400.45" y="247.96" width="3.96" height="11.9"/><rect class="cls-3" x="406.16" y="247.96" width="3.96" height="11.9"/><rect class="cls-3" x="411.88" y="247.96" width="3.96" height="11.9"/><rect class="cls-3" x="417.59" y="247.96" width="3.96" height="11.9"/><rect class="cls-4" x="350.27" y="275.86" width="71.9" height="20.24"/><rect class="cls-3" x="352.27" y="278.41" width="4.03" height="15.49"/><circle class="cls-5" cx="359.76" cy="281.67" r="1.28"/><path class="cls-5" d="M361,287.14a1.28,1.28,0,1,1-1.28-1.28A1.28,1.28,0,0,1,361,287.14Z"/><rect class="cls-3" x="366.16" y="280.39" width="3.96" height="11.9"/><rect class="cls-3" x="371.87" y="280.39" width="3.96" height="11.9"/><rect class="cls-3" x="377.59" y="280.39" width="3.96" height="11.9"/><rect class="cls-3" x="383.3" y="280.39" width="3.96" height="11.9"/><rect class="cls-3" x="389.02" y="280.39" width="3.96" height="11.9"/><rect class="cls-3" x="394.73" y="280.39" width="3.96" height="11.9"/><rect class="cls-3" x="400.45" y="280.39" width="3.96" height="11.9"/><rect class="cls-3" x="406.16" y="280.39" width="3.96" height="11.9"/><rect class="cls-3" x="411.88" y="280.39" width="3.96" height="11.9"/><rect class="cls-3" x="417.59" y="280.39" width="3.96" height="11.9"/><rect class="cls-4" x="350.27" y="308.29" width="71.9" height="20.24"/><rect class="cls-3" x="352.27" y="310.83" width="4.03" height="15.49"/><circle class="cls-5" cx="359.76" cy="314.09" r="1.28"/><path class="cls-5" d="M361,319.56a1.28,1.28,0,1,1-1.28-1.27A1.28,1.28,0,0,1,361,319.56Z"/><rect class="cls-3" x="366.16" y="312.81" width="3.96" height="11.9"/><rect class="cls-3" x="371.87" y="312.81" width="3.96" height="11.9"/><rect class="cls-3" x="377.59" y="312.81" width="3.96" height="11.9"/><rect class="cls-3" x="383.3" y="312.81" width="3.96" height="11.9"/><rect class="cls-3" x="389.02" y="312.81" width="3.96" height="11.9"/><rect class="cls-3" x="394.73" y="312.81" width="3.96" height="11.9"/><rect class="cls-3" x="400.45" y="312.81" width="3.96" height="11.9"/><rect class="cls-3" x="406.16" y="312.81" width="3.96" height="11.9"/><rect class="cls-3" x="411.88" y="312.81" width="3.96" height="11.9"/><rect class="cls-3" x="417.59" y="312.81" width="3.96" height="11.9"/><rect class="cls-4" x="350.27" y="340.71" width="71.9" height="20.24"/><rect class="cls-3" x="352.27" y="343.26" width="4.03" height="15.49"/><circle class="cls-5" cx="359.76" cy="346.51" r="1.28"/><path class="cls-5" d="M361,352a1.28,1.28,0,1,1-1.28-1.28A1.28,1.28,0,0,1,361,352Z"/><rect class="cls-3" x="366.16" y="345.23" width="3.96" height="11.9"/><rect class="cls-3" x="371.87" y="345.23" width="3.96" height="11.9"/><rect class="cls-3" x="377.59" y="345.23" width="3.96" height="11.9"/><rect class="cls-3" x="383.3" y="345.23" width="3.96" height="11.9"/><rect class="cls-3" x="389.02" y="345.23" width="3.96" height="11.9"/><rect class="cls-3" x="394.73" y="345.23" width="3.96" height="11.9"/><rect class="cls-3" x="400.45" y="345.23" width="3.96" height="11.9"/><rect class="cls-3" x="406.16" y="345.23" width="3.96" height="11.9"/><rect class="cls-3" x="411.88" y="345.23" width="3.96" height="11.9"/><rect class="cls-3" x="417.59" y="345.23" width="3.96" height="11.9"/><path class="cls-4" d="M394.73,146.17a4.38,4.38,0,0,1-.08-.63c0-.41,0-1-.07-1.79s0-1.74-.09-2.84a17.93,17.93,0,0,0-.5-3.69,13.15,13.15,0,0,0-1.92-4,8.86,8.86,0,0,0-3.93-3.16,18.63,18.63,0,0,0-5.58-1.13l-6.19-.54c-8.49-.73-16.19-1.21-21.76-1.32-2.79-.06-5.05,0-6.61,0l-1.8,0a2.65,2.65,0,0,1-.63,0,2.49,2.49,0,0,1,.63-.08l1.79-.11c1.57-.07,3.83-.14,6.62-.12,5.59,0,13.31.43,21.8,1.16l6.2.55a19.28,19.28,0,0,1,5.71,1.2,9.26,9.26,0,0,1,4.1,3.35,13.42,13.42,0,0,1,1.93,4.19,18,18,0,0,1,.43,3.77c0,1.12,0,2.07,0,2.85s0,1.33,0,1.8A2.58,2.58,0,0,1,394.73,146.17Z"/><path class="cls-4" d="M372.92,146.17a2.7,2.7,0,0,1-.05-.59c0-.45,0-1,0-1.69s0-1.64-.09-2.67a8.13,8.13,0,0,0-.89-3.32,6.3,6.3,0,0,0-3.24-2.49,8.85,8.85,0,0,0-4.72-.48,8,8,0,0,0-2.43.83,4.59,4.59,0,0,0-1.89,1.79,2.53,2.53,0,0,0,0,2.51,3.35,3.35,0,0,0,2.14,1.6,2.72,2.72,0,0,0,2.5-.72,3.75,3.75,0,0,0,1.12-2.38,3.58,3.58,0,0,0-.75-2.44,5.38,5.38,0,0,0-1.89-1.67,6.8,6.8,0,0,0-2.37-.61c-.81-.12-1.6-.23-2.36-.32-1.53-.17-3-.27-4.27-.32-2.62-.11-4.74-.07-6.21-.07h-1.69a2.44,2.44,0,0,1-.59,0,2.45,2.45,0,0,1,.58-.07l1.69-.09c1.47,0,3.6-.15,6.23-.09,1.32,0,2.76.11,4.3.26.78.08,1.57.18,2.39.29.41.07.82.12,1.25.2a4.91,4.91,0,0,1,1.27.44,5.81,5.81,0,0,1,2.08,1.81,4.14,4.14,0,0,1,.85,2.77,4.26,4.26,0,0,1-1.28,2.72,3.21,3.21,0,0,1-3,.85,3.92,3.92,0,0,1-2.48-1.86,3.05,3.05,0,0,1,0-3,5.08,5.08,0,0,1,2.1-2,8.59,8.59,0,0,1,2.59-.86,9.31,9.31,0,0,1,5,.55,6.66,6.66,0,0,1,3.4,2.7,8.31,8.31,0,0,1,.86,3.49c.05,1.05,0,2,0,2.69s-.05,1.25-.07,1.69A2.27,2.27,0,0,1,372.92,146.17Z"/><path class="cls-4" d="M400.6,146.17a4.32,4.32,0,0,1-.15-.67c-.08-.44-.2-1.09-.38-1.92a37.69,37.69,0,0,0-2.13-6.85,19.91,19.91,0,0,0-6.25-8.39,11.84,11.84,0,0,0-5.73-2.18,60.77,60.77,0,0,0-6.73-.36c-9.3-.17-17.72-.14-23.81-.38-3.05-.11-5.51-.26-7.21-.38l-2-.17a3.2,3.2,0,0,1-.68-.09,3.38,3.38,0,0,1,.69,0l2,.07c1.7.06,4.16.15,7.21.21,6.09.15,14.5.06,23.81.23a60.36,60.36,0,0,1,6.8.38A12.26,12.26,0,0,1,392,128a18.55,18.55,0,0,1,4,4.19,24.76,24.76,0,0,1,2.34,4.43,34.64,34.64,0,0,1,2,7c.15.84.24,1.5.28,1.94A3.25,3.25,0,0,1,400.6,146.17Z"/><rect class="cls-4" x="351.26" y="107.84" width="69.92" height="10.15"/><rect class="cls-3" x="366.63" y="112.92" width="38.07" height="5.08"/></g><g id="Server"><rect class="cls-2" x="174.84" y="67.76" width="96.61" height="295.95"/><rect class="cls-4" x="271.31" y="67.76" width="76.36" height="295"/><rect class="cls-6" x="180.19" y="215.13" width="81.95" height="23.07"/><rect class="cls-6" x="180.19" y="115.12" width="81.95" height="23.07"/><rect class="cls-7" x="182.47" y="118.03" width="4.59" height="17.66"/><path class="cls-8" d="M192.47,121.74a1.46,1.46,0,1,1-1.46-1.46A1.46,1.46,0,0,1,192.47,121.74Z"/><path class="cls-8" d="M192.47,128a1.46,1.46,0,1,1-1.46-1.46A1.46,1.46,0,0,1,192.47,128Z"/><rect class="cls-7" x="198.3" y="120.28" width="4.51" height="13.56"/><rect class="cls-7" x="204.81" y="120.28" width="4.51" height="13.56"/><rect class="cls-7" x="211.33" y="120.28" width="4.51" height="13.56"/><rect class="cls-7" x="217.84" y="120.28" width="4.51" height="13.56"/><rect class="cls-7" x="224.36" y="120.28" width="4.51" height="13.56"/><rect class="cls-7" x="230.87" y="120.28" width="4.51" height="13.56"/><rect class="cls-7" x="237.38" y="120.28" width="4.51" height="13.56"/><rect class="cls-7" x="243.9" y="120.28" width="4.51" height="13.56"/><rect class="cls-7" x="250.41" y="120.28" width="4.51" height="13.56"/><rect class="cls-7" x="256.92" y="120.28" width="4.51" height="13.56"/><rect class="cls-6" x="180.19" y="148.27" width="81.95" height="23.07"/><rect class="cls-7" x="182.47" y="151.17" width="4.59" height="17.66"/><path class="cls-8" d="M192.47,154.89a1.46,1.46,0,1,1-1.46-1.46A1.45,1.45,0,0,1,192.47,154.89Z"/><path class="cls-8" d="M192.47,161.13a1.46,1.46,0,1,1-1.46-1.46A1.45,1.45,0,0,1,192.47,161.13Z"/><rect class="cls-7" x="198.3" y="153.43" width="4.51" height="13.56"/><rect class="cls-7" x="204.81" y="153.43" width="4.51" height="13.56"/><rect class="cls-7" x="211.33" y="153.43" width="4.51" height="13.56"/><rect class="cls-7" x="217.84" y="153.43" width="4.51" height="13.56"/><rect class="cls-7" x="224.36" y="153.43" width="4.51" height="13.56"/><rect class="cls-7" x="230.87" y="153.43" width="4.51" height="13.56"/><rect class="cls-7" x="237.38" y="153.43" width="4.51" height="13.56"/><rect class="cls-7" x="243.9" y="153.43" width="4.51" height="13.56"/><rect class="cls-7" x="250.41" y="153.43" width="4.51" height="13.56"/><rect class="cls-7" x="256.92" y="153.43" width="4.51" height="13.56"/><rect class="cls-6" x="180.19" y="181.68" width="81.95" height="23.07"/><rect class="cls-7" x="182.47" y="184.58" width="4.59" height="17.66"/><path class="cls-8" d="M192.47,188.3a1.46,1.46,0,1,1-1.46-1.46A1.46,1.46,0,0,1,192.47,188.3Z"/><path class="cls-8" d="M192.47,194.54a1.46,1.46,0,1,1-1.46-1.46A1.45,1.45,0,0,1,192.47,194.54Z"/><rect class="cls-7" x="198.3" y="186.84" width="4.51" height="13.56"/><rect class="cls-7" x="204.81" y="186.84" width="4.51" height="13.56"/><rect class="cls-7" x="211.33" y="186.84" width="4.51" height="13.56"/><rect class="cls-7" x="217.84" y="186.84" width="4.51" height="13.56"/><rect class="cls-7" x="224.36" y="186.84" width="4.51" height="13.56"/><rect class="cls-7" x="230.87" y="186.84" width="4.51" height="13.56"/><rect class="cls-7" x="237.38" y="186.84" width="4.51" height="13.56"/><rect class="cls-7" x="243.9" y="186.84" width="4.51" height="13.56"/><rect class="cls-7" x="250.41" y="186.84" width="4.51" height="13.56"/><rect class="cls-7" x="256.92" y="186.84" width="4.51" height="13.56"/><rect class="cls-6" x="180.19" y="254.22" width="81.95" height="23.07"/><rect class="cls-7" x="182.47" y="257.12" width="4.59" height="17.66"/><path class="cls-8" d="M192.47,260.84a1.46,1.46,0,1,1-1.46-1.46A1.46,1.46,0,0,1,192.47,260.84Z"/><path class="cls-8" d="M192.47,267.08a1.46,1.46,0,1,1-1.46-1.46A1.46,1.46,0,0,1,192.47,267.08Z"/><rect class="cls-7" x="198.3" y="259.38" width="4.51" height="13.56"/><rect class="cls-7" x="204.81" y="259.38" width="4.51" height="13.56"/><rect class="cls-7" x="211.33" y="259.38" width="4.51" height="13.56"/><rect class="cls-7" x="217.84" y="259.38" width="4.51" height="13.56"/><rect class="cls-7" x="224.36" y="259.38" width="4.51" height="13.56"/><rect class="cls-7" x="230.87" y="259.38" width="4.51" height="13.56"/><rect class="cls-7" x="237.38" y="259.38" width="4.51" height="13.56"/><rect class="cls-7" x="243.9" y="259.38" width="4.51" height="13.56"/><rect class="cls-7" x="250.41" y="259.38" width="4.51" height="13.56"/><rect class="cls-7" x="256.92" y="259.38" width="4.51" height="13.56"/><rect class="cls-6" x="180.19" y="326.76" width="81.95" height="23.07"/><rect class="cls-7" x="182.47" y="329.67" width="4.59" height="17.66"/><path class="cls-8" d="M192.47,333.38a1.46,1.46,0,1,1-1.46-1.46A1.46,1.46,0,0,1,192.47,333.38Z"/><path class="cls-8" d="M192.47,339.62a1.46,1.46,0,1,1-1.46-1.46A1.46,1.46,0,0,1,192.47,339.62Z"/><rect class="cls-7" x="198.3" y="331.92" width="4.51" height="13.56"/><rect class="cls-7" x="204.81" y="331.92" width="4.51" height="13.56"/><rect class="cls-7" x="211.33" y="331.92" width="4.51" height="13.56"/><rect class="cls-7" x="217.84" y="331.92" width="4.51" height="13.56"/><rect class="cls-7" x="224.36" y="331.92" width="4.51" height="13.56"/><rect class="cls-7" x="230.87" y="331.92" width="4.51" height="13.56"/><rect class="cls-7" x="237.38" y="331.92" width="4.51" height="13.56"/><rect class="cls-7" x="243.9" y="331.92" width="4.51" height="13.56"/><rect class="cls-7" x="250.41" y="331.92" width="4.51" height="13.56"/><rect class="cls-7" x="256.92" y="331.92" width="4.51" height="13.56"/><rect class="cls-6" x="180.19" y="290.53" width="81.95" height="23.07"/><rect class="cls-7" x="182.47" y="293.43" width="4.59" height="17.66"/><path class="cls-8" d="M192.47,297.14a1.46,1.46,0,1,1-1.46-1.46A1.46,1.46,0,0,1,192.47,297.14Z"/><path class="cls-8" d="M192.47,303.38a1.46,1.46,0,1,1-1.46-1.46A1.46,1.46,0,0,1,192.47,303.38Z"/><rect class="cls-7" x="198.3" y="295.68" width="4.51" height="13.56"/><rect class="cls-7" x="204.81" y="295.68" width="4.51" height="13.56"/><rect class="cls-7" x="211.33" y="295.68" width="4.51" height="13.56"/><rect class="cls-7" x="217.84" y="295.68" width="4.51" height="13.56"/><rect class="cls-7" x="224.36" y="295.68" width="4.51" height="13.56"/><rect class="cls-7" x="230.87" y="295.68" width="4.51" height="13.56"/><rect class="cls-7" x="237.38" y="295.68" width="4.51" height="13.56"/><rect class="cls-7" x="243.9" y="295.68" width="4.51" height="13.56"/><rect class="cls-7" x="250.41" y="295.68" width="4.51" height="13.56"/><rect class="cls-7" x="256.92" y="295.68" width="4.51" height="13.56"/><path class="cls-6" d="M230.87,115.12a2.92,2.92,0,0,1-.08-.71c0-.47-.06-1.16-.08-2s0-2-.1-3.23a21.34,21.34,0,0,0-.56-4.22,15.34,15.34,0,0,0-2.19-4.61,10.24,10.24,0,0,0-4.49-3.61,21.53,21.53,0,0,0-6.37-1.3l-7.06-.61c-9.68-.84-18.45-1.37-24.81-1.49-3.18-.07-5.75-.05-7.53,0l-2,0a3.28,3.28,0,0,1-.71,0,4,4,0,0,1,.71-.08l2-.12c1.78-.07,4.35-.15,7.54-.13,6.37,0,15.16.5,24.84,1.34l7.06.62a22.25,22.25,0,0,1,6.51,1.36,10.66,10.66,0,0,1,4.66,3.81,15.27,15.27,0,0,1,2.19,4.77,19.93,19.93,0,0,1,.5,4.29c0,1.27,0,2.36,0,3.25s0,1.53,0,2A3.83,3.83,0,0,1,230.87,115.12Z"/><path class="cls-6" d="M206,115.12a2.69,2.69,0,0,1,0-.67l0-1.93c0-.83,0-1.86-.1-3a9.44,9.44,0,0,0-1-3.81,7.37,7.37,0,0,0-3.71-2.85,10.33,10.33,0,0,0-5.4-.55,9.16,9.16,0,0,0-2.78,1,5.29,5.29,0,0,0-2.17,2,2.94,2.94,0,0,0,0,2.9,3.82,3.82,0,0,0,2.45,1.84,3.1,3.1,0,0,0,2.88-.83,4.21,4.21,0,0,0,1.29-2.74,4.12,4.12,0,0,0-.86-2.8,6.06,6.06,0,0,0-2.16-1.91,7.92,7.92,0,0,0-2.71-.7q-1.4-.21-2.7-.36c-1.74-.19-3.38-.31-4.87-.37-3-.11-5.4-.07-7.08-.06H175.1a2.88,2.88,0,0,1-.67,0,3.23,3.23,0,0,1,.67-.07L177,100c1.67-.06,4.09-.16,7.09-.09,1.5,0,3.15.12,4.91.3.87.09,1.78.21,2.71.33.47.08.93.14,1.42.23a5.24,5.24,0,0,1,1.44.5,6.62,6.62,0,0,1,2.36,2,4.66,4.66,0,0,1,1,3.13,4.73,4.73,0,0,1-1.44,3.08,3.66,3.66,0,0,1-3.35,1,4.43,4.43,0,0,1-2.8-2.1,3.47,3.47,0,0,1,0-3.39,5.84,5.84,0,0,1,2.38-2.25,9.7,9.7,0,0,1,2.94-1,10.58,10.58,0,0,1,5.64.62,7.67,7.67,0,0,1,3.87,3.07,9.38,9.38,0,0,1,1,4c.07,1.2,0,2.23,0,3.07s-.06,1.43-.08,1.92A2.69,2.69,0,0,1,206,115.12Z"/><path class="cls-6" d="M237.56,115.12a3.57,3.57,0,0,1-.17-.76c-.09-.5-.23-1.24-.43-2.19a42.56,42.56,0,0,0-2.41-7.82,22.79,22.79,0,0,0-7.13-9.57,13.44,13.44,0,0,0-6.54-2.49,65.88,65.88,0,0,0-7.69-.41c-10.59-.2-20.19-.16-27.13-.43-3.47-.12-6.28-.28-8.22-.42l-2.23-.19a3.34,3.34,0,0,1-.77-.1,5.14,5.14,0,0,1,.78,0l2.23.09c1.94.07,4.75.18,8.22.25,6.94.18,16.53.08,27.14.28a67.44,67.44,0,0,1,7.74.42,13.87,13.87,0,0,1,6.76,2.62,21,21,0,0,1,4.51,4.76,28.17,28.17,0,0,1,2.67,5,39.29,39.29,0,0,1,2.27,7.92c.17,1,.28,1.71.34,2.22A4.9,4.9,0,0,1,237.56,115.12Z"/><rect class="cls-6" x="181.31" y="71.44" width="79.7" height="11.57"/><rect class="cls-7" x="198.84" y="77.22" width="43.39" height="5.78"/><path class="cls-6" d="M293.53,311.39c0,.06-.88.15-2.41.59a20.9,20.9,0,0,0-6,2.95,16.71,16.71,0,0,0-3.38,3.14,12.1,12.1,0,0,0-1.39,2.14,14.64,14.64,0,0,0-.87,2.57c-.91,3.66-.63,7.84-.45,12.21s-.11,8.69-1.83,12.18a13.63,13.63,0,0,1-3.25,4.35,16.11,16.11,0,0,1-4,2.53,15.47,15.47,0,0,1-3.74,1.12,13.21,13.21,0,0,1-2.93.12,9.31,9.31,0,0,1-1.84-.29,2.12,2.12,0,0,1-.61-.19c0-.06.87.21,2.46.28a14.76,14.76,0,0,0,2.87-.21,15.21,15.21,0,0,0,3.63-1.17,15.37,15.37,0,0,0,3.86-2.52,13.17,13.17,0,0,0,3.11-4.23c1.64-3.39,1.92-7.62,1.74-12s-.45-8.59.5-12.33a14.68,14.68,0,0,1,.93-2.66,11.92,11.92,0,0,1,1.46-2.21,17.07,17.07,0,0,1,3.51-3.17,20.13,20.13,0,0,1,6.17-2.85,14,14,0,0,1,1.82-.34A2.9,2.9,0,0,1,293.53,311.39Z"/><rect class="cls-6" x="256.79" y="351.24" width="6.54" height="7.96"/><rect class="cls-7" x="293.53" y="291.29" width="36.69" height="40.2"/><circle class="cls-6" cx="311.87" cy="311.55" r="12.08" transform="matrix(0.23, -0.97, 0.97, 0.23, -63.28, 543.04)"/><path class="cls-7" d="M317.91,311.55a6,6,0,1,1-6-6A6,6,0,0,1,317.91,311.55Z"/><circle class="cls-6" cx="298.49" cy="297.53" r="1.12"/><circle class="cls-6" cx="324.61" cy="297.53" r="1.12"/><circle class="cls-6" cx="324.85" cy="327.22" r="1.12"/><circle class="cls-6" cx="298.49" cy="327.68" r="1.12"/><rect class="cls-6" x="330.22" y="291.29" width="2.96" height="40.2"/><path class="cls-6" d="M437.12,328.45s.09.12.26.38l.73,1.16a13.6,13.6,0,0,1,1,2,21.16,21.16,0,0,1,1.1,2.84,27.21,27.21,0,0,1,1.15,8.26A27.76,27.76,0,0,1,439,353.84l-.64,1.42c-.26.46-.53.92-.79,1.39a29.28,29.28,0,0,1-1.84,2.75,23.52,23.52,0,0,1-5.07,4.81l-.74.54-.81.45c-.54.29-1.06.64-1.63.89l-1.75.75c-.58.26-1.21.39-1.83.6a25.24,25.24,0,0,1-7.87,1,29.22,29.22,0,0,1-8.23-1.39,28,28,0,0,1-7.73-4,23.22,23.22,0,0,1-6.13-6.61,73,73,0,0,1-4-8.35,24.32,24.32,0,0,0-4.9-7.66,11.8,11.8,0,0,0-3.67-2.41,13,13,0,0,0-4.24-.94c-5.78-.32-11.51,3-13.45,8a8.86,8.86,0,0,0-.57,3.83,5.5,5.5,0,0,0,1.37,3.4,4.1,4.1,0,0,0,3.25,1.23,5.63,5.63,0,0,0,3.21-1.31,7.68,7.68,0,0,0,2.35-6.11,14,14,0,0,0-1.64-6.06,15.19,15.19,0,0,0-21-6.1c-1,.6-1.53,1-1.55,1a9.57,9.57,0,0,1,1.49-1.07,15,15,0,0,1,4.92-1.88,15,15,0,0,1,16.43,7.9,14.37,14.37,0,0,1,1.72,6.22,9.92,9.92,0,0,1-.48,3.43,6.73,6.73,0,0,1-2,3,6.12,6.12,0,0,1-3.47,1.43,4.56,4.56,0,0,1-3.6-1.37,5.92,5.92,0,0,1-1.51-3.67,9.49,9.49,0,0,1,.59-4c2-5.23,7.95-8.64,13.92-8.32a13.48,13.48,0,0,1,4.41,1,12.24,12.24,0,0,1,3.84,2.52,24.51,24.51,0,0,1,5,7.82,75.56,75.56,0,0,0,4,8.29,22.62,22.62,0,0,0,6,6.47A27.6,27.6,0,0,0,408,366.6a28.9,28.9,0,0,0,8.08,1.38,24.78,24.78,0,0,0,7.74-1,15.62,15.62,0,0,0,1.79-.59l1.71-.72c.57-.25,1.08-.58,1.61-.87l.79-.44.73-.52a23.21,23.21,0,0,0,5-4.71,25.55,25.55,0,0,0,1.82-2.7l.79-1.36c.22-.47.43-.94.65-1.4a27.83,27.83,0,0,0,2.43-10.63,27.06,27.06,0,0,0-1.06-8.19,20.73,20.73,0,0,0-1-2.84,16,16,0,0,0-1-2c-.29-.5-.52-.89-.68-1.18A4,4,0,0,1,437.12,328.45Z"/><rect class="cls-6" x="429.21" y="316.59" width="19.01" height="19.01"/><rect class="cls-8" x="356.64" y="163.52" width="64.75" height="47.61"/><path class="cls-6" d="M421.39,211.13s0-.31,0-.88,0-1.44,0-2.54c0-2.23,0-5.48-.06-9.63,0-8.29-.06-20.17-.11-34.56l.21.22-64.74,0h0l.26-.26c0,17.09,0,33.29,0,47.61l-.24-.23,46.68.11,13.3.07,3.54,0h1.23a1.38,1.38,0,0,1-.29,0h-.89l-3.49,0-13.25.06-46.83.12h-.23v-.24c0-14.32,0-30.52,0-47.61v-.26h.27l64.74.05h.22v.21c-.05,14.45-.09,26.37-.12,34.7,0,4.12,0,7.35-.05,9.58,0,1.08,0,1.91,0,2.49S421.39,211.13,421.39,211.13Z"/><path class="cls-9" d="M373.41,178.56c-.06.18,1.49,21.14,1.49,20.91s29.38,0,29.38,0l.35-18.57H382.76l-.95-2.58Z"/><path class="cls-6" d="M420.8,178.56l.19,0,.54,0,2.12,0,8-.06,12.2-.06h3.61c1.23,0,2.53,0,3.78-.08a5.27,5.27,0,0,0,3.38-1.61,5.44,5.44,0,0,0,1.2-3.69v0c0-7.24,0-15.19,0-23.52,0-17.14.06-32.65.08-43.92,0-5.59.06-10.13.08-13.3,0-1.55,0-2.76,0-3.62,0-.39,0-.7,0-.94a1.14,1.14,0,0,1,0-.32,1.34,1.34,0,0,1,0,.32c0,.24,0,.55,0,.95,0,.86,0,2.07,0,3.61,0,3.18.05,7.72.09,13.31,0,11.27,0,26.78.07,43.91,0,8.33,0,16.28,0,23.52v0a5.89,5.89,0,0,1-1.33,4,5.75,5.75,0,0,1-3.67,1.75c-1.35.11-2.59,0-3.84.06l-3.61,0-12.2,0-8-.07-2.12,0-.54,0C420.87,178.58,420.8,178.57,420.8,178.56Z"/><path class="cls-6" d="M356.64,192.88l-.23,0-.69,0-2.65,0-9.73,0H328.9l-8.52,0a7.12,7.12,0,0,1-4.43-1.19,5.43,5.43,0,0,1-2.05-4.24,3.53,3.53,0,0,1,0-.46h0c0-6.21,0-12.13,0-17.52,0-2.69,0-5.25,0-7.64,0-1.2,0-2.36,0-3.46a7.56,7.56,0,0,0-.65-3A3.05,3.05,0,0,0,311,154a15.49,15.49,0,0,1-2.57-.43,3,3,0,0,1-1.55-1.68,7.45,7.45,0,0,1-.43-1.87,13.11,13.11,0,0,1,.06-2.63,6.73,6.73,0,0,1,.1-.67.79.79,0,0,1,.06-.23s0,.32-.06.91a14.72,14.72,0,0,0,.05,2.6,6.71,6.71,0,0,0,.45,1.79,2.77,2.77,0,0,0,1.44,1.52,16.38,16.38,0,0,0,2.52.36,4.87,4.87,0,0,1,1.38.46,2.8,2.8,0,0,1,1.11,1.1,7.53,7.53,0,0,1,.74,3.17c.09,1.11.06,2.27.07,3.46,0,2.4,0,5,0,7.65,0,5.39,0,11.31,0,17.54h0v0a2.66,2.66,0,0,0,0,.4,5,5,0,0,0,1.84,3.85,6.67,6.67,0,0,0,4.12,1.09l8.52.06,14.44.13,9.74.13,2.64.06.69,0C356.57,192.86,356.64,192.87,356.64,192.88Z"/><path class="cls-6" d="M308.89,145.49a2.13,2.13,0,1,1-2.13-2.12A2.14,2.14,0,0,1,308.89,145.49Z"/><path class="cls-6" d="M356.64,186.68a3.5,3.5,0,0,1-.77,0l-2.21.05-8.2.08-12.25.06h-3.56a30.11,30.11,0,0,1-3.76-.12A5.5,5.5,0,0,1,322.4,185a5.86,5.86,0,0,1-1.22-3.91h0c0-1,0-2.1,0-3.2,0-5.76,0-11.25,0-16.26,0-2.49,0-4.87,0-7.09a23.33,23.33,0,0,0-.16-3.19,3.88,3.88,0,0,0-1.08-2.55,4.49,4.49,0,0,0-2.4-.86,4.32,4.32,0,0,1-2.36-.59,3.28,3.28,0,0,1-1.19-1.77,7.07,7.07,0,0,1-.32-1.76,12.41,12.41,0,0,1,.08-2.44,3.49,3.49,0,0,1,.16-.84s0,.3-.06.85a15.16,15.16,0,0,0,0,2.42,7.61,7.61,0,0,0,.35,1.69,3.13,3.13,0,0,0,1.12,1.62,4.2,4.2,0,0,0,2.24.49,4.71,4.71,0,0,1,2.6.91,4.28,4.28,0,0,1,1.24,2.77,22.71,22.71,0,0,1,.19,3.23q0,3.34,0,7.1c0,5,0,10.5,0,16.27v3.23a5.44,5.44,0,0,0,1.1,3.55,5,5,0,0,0,3.18,1.67,28.3,28.3,0,0,0,3.68.13h3.56l12.25.05,8.2.09,2.21,0A4.55,4.55,0,0,1,356.64,186.68Z"/><circle class="cls-6" cx="314.04" cy="139.48" r="2.12"/><polygon class="cls-7" points="356.64 163.52 356.64 170.65 421.39 169.83 421.39 163.52 356.64 163.52"/></g><g id="Robot"><path class="cls-9" d="M53,204.37c.32.24,40.95,5.09,37.53,12.8S51.31,222,51.31,222Z"/><path class="cls-10" d="M53,204.37c.32.24,40.95,5.09,37.53,12.8S51.31,222,51.31,222Z"/><rect class="cls-7" x="53.12" y="213.28" width="81.95" height="23.07"/><rect class="cls-6" x="55.41" y="216.18" width="4.59" height="17.66"/><path class="cls-8" d="M65.4,219.9A1.46,1.46,0,1,1,64,218.44,1.45,1.45,0,0,1,65.4,219.9Z"/><path class="cls-8" d="M65.4,226.14A1.46,1.46,0,1,1,64,224.68,1.45,1.45,0,0,1,65.4,226.14Z"/><rect class="cls-6" x="71.23" y="218.44" width="4.51" height="13.56"/><rect class="cls-6" x="77.75" y="218.44" width="4.51" height="13.56"/><rect class="cls-6" x="84.26" y="218.44" width="4.51" height="13.56"/><rect class="cls-6" x="90.78" y="218.44" width="4.51" height="13.56"/><rect class="cls-6" x="97.29" y="218.44" width="4.51" height="13.56"/><rect class="cls-6" x="103.8" y="218.44" width="4.51" height="13.56"/><rect class="cls-6" x="110.32" y="218.44" width="4.51" height="13.56"/><rect class="cls-6" x="116.83" y="218.44" width="4.51" height="13.56"/><rect class="cls-6" x="123.35" y="218.44" width="4.51" height="13.56"/><rect class="cls-6" x="129.86" y="218.44" width="4.51" height="13.56"/><rect class="cls-6" x="135.07" y="213.28" width="13.32" height="23.07"/><path class="cls-6" d="M146.67,227.59c7.62,4,5.53,13.22,9.67,19.47a13.28,13.28,0,0,0,10.8,5.79,15,15,0,0,0,12.13-6.25c3.79-5.13,6.77-19.75,16.43-14.79.28.15.53-.28.25-.43-10.88-5.59-14.37,13.53-20.13,17.94a13.39,13.39,0,0,1-14.88,1.35c-4.33-2.46-5.76-6.79-6.86-11.33-1.19-4.88-2.38-9.7-7.15-12.19-.29-.14-.54.29-.26.44Z"/><path class="cls-9" d="M54.33,205.39c.38.32-1.29,56.74-25.32,56.72-24.27,0-30.1-51.38-27.89-55.64C4.5,200,33,187.74,54.33,205.39Z"/><path class="cls-8" d="M0,205.8a2.15,2.15,0,0,1,.55.16l1.54.56c.67.25,1.48.55,2.45.84s2.05.69,3.28,1,2.56.7,4,1,3,.59,4.68.88a82.05,82.05,0,0,0,10.86.86,81.18,81.18,0,0,0,10.88-.77c1.66-.27,3.24-.5,4.69-.84s2.81-.64,4-1,2.32-.68,3.28-1,1.79-.57,2.46-.82l1.54-.54a2.42,2.42,0,0,1,.55-.16,2.2,2.2,0,0,1-.51.25l-1.51.64c-.66.28-1.47.6-2.44.91s-2,.73-3.28,1-2.57.73-4,1-3,.61-4.71.9a77.28,77.28,0,0,1-11,.81,76.55,76.55,0,0,1-10.94-.91c-1.66-.3-3.24-.56-4.7-.93s-2.81-.7-4-1.07S5.4,208,4.45,207.64,2.68,207,2,206.7l-1.51-.64A2.43,2.43,0,0,1,0,205.8Z"/><g class="cls-11"><path d="M6.62,201.75C11.54,208,19.15,210,27.11,210s15.5-2.58,20.49-8.78c0,0-6-5.8-20.79-5.78A34.89,34.89,0,0,0,6.62,201.75Z"/></g><path class="cls-8" d="M28.37,261.2a1.66,1.66,0,0,1-.47-.24,7.94,7.94,0,0,1-1.2-.94,11.17,11.17,0,0,1-2.89-4.78A24.09,24.09,0,0,1,23,247c.13-3.12.27-6.53.42-10.12.32-7.17.64-13.67.9-18.37.13-2.29.25-4.17.33-5.56.05-.61.08-1.11.12-1.52a2,2,0,0,1,.07-.52,1.8,1.8,0,0,1,0,.53c0,.4,0,.91,0,1.51,0,1.4-.1,3.28-.16,5.58-.17,4.7-.43,11.2-.75,18.38-.16,3.58-.32,7-.46,10.11a24.75,24.75,0,0,0,.67,8.13,11.63,11.63,0,0,0,2.68,4.75A19.6,19.6,0,0,0,28.37,261.2Z"/><path class="cls-8" d="M25.38,248.25c-.05-.05.25-.34.82-.2a1.15,1.15,0,0,1,.77.64,1.09,1.09,0,0,1-.27,1.22,1.06,1.06,0,0,1-1.25.22,1,1,0,0,1-.48-.9.84.84,0,0,1,.26-.62c.12-.1.22-.1.23-.07s-.2.26-.12.66a.66.66,0,0,0,.34.5.57.57,0,0,0,.65-.16.68.68,0,0,0-.25-1.14C25.7,248.21,25.41,248.32,25.38,248.25Z"/><path class="cls-8" d="M26.85,239.91s0-.09.18-.13a.68.68,0,0,1,.56.18.88.88,0,0,1,.3.87.93.93,0,0,1-.94.64,1,1,0,0,1-.94-.6,1.08,1.08,0,0,1,0-.87c.22-.46.57-.53.58-.47s-.16.24-.23.59A.62.62,0,0,0,27,241a.48.48,0,0,0,.48-.26.51.51,0,0,0-.1-.47C27.13,239.94,26.87,240,26.85,239.91Z"/><path class="cls-12" d="M23.82,235.45s13.77,7.78,24.89,5.76l.82-2.47s-16.34-1.61-25.71-4.3Z"/><path class="cls-9" d="M28,222.36s43.9,3.33,38.36,11.37-24.87,3.64-24.87,3.64S29.06,228.38,28,222.36Z"/><path class="cls-9" d="M50.16,238.74a3.83,3.83,0,0,1-1.06,0c-.67,0-1.65-.09-2.86-.19-2.41-.2-5.74-.57-9.38-1.17s-6.92-1.3-9.27-1.87c-1.18-.29-2.13-.54-2.78-.73a3.62,3.62,0,0,1-1-.35,4.36,4.36,0,0,1,1,.15l2.81.57c2.36.48,5.64,1.12,9.27,1.72s6.94,1,9.34,1.32l2.84.35A4.72,4.72,0,0,1,50.16,238.74Z"/><path class="cls-9" d="M57.35,226.78a5.83,5.83,0,0,1-1.3-.21l-3.5-.73c-2.95-.62-7-1.45-11.58-2.24s-8.67-1.37-11.67-1.7c-1.5-.17-2.72-.3-3.56-.37a5.88,5.88,0,0,1-1.3-.18,7.11,7.11,0,0,1,1.32,0c.84,0,2.07.08,3.58.2,3,.24,7.17.76,11.72,1.56s8.63,1.68,11.57,2.39c1.47.36,2.66.67,3.47.89A7.46,7.46,0,0,1,57.35,226.78Z"/><g class="cls-13"><path class="cls-8" d="M52.71,209.74c.12.29-2.44,1.85-7,3.42-1.14.38-2.4.79-3.79,1.12s-2.86.66-4.44,1a65,65,0,0,1-10.37.9,65.25,65.25,0,0,1-10.38-.9c-1.57-.31-3.07-.58-4.44-1s-2.64-.74-3.78-1.12c-4.58-1.58-7.15-3.14-7-3.43s3,.58,7.52,1.66c1.15.26,2.39.55,3.75.78s2.81.47,4.34.71a83.4,83.4,0,0,0,10,.66,83.4,83.4,0,0,0,10-.66c1.53-.23,3-.41,4.33-.7s2.61-.52,3.76-.78C49.76,210.31,52.55,209.37,52.71,209.74Z"/></g><circle class="cls-9" cx="27.84" cy="178.9" r="26.49"/><path class="cls-6" d="M54.09,175.34a122.54,122.54,0,0,1-28.63,1.15,6.32,6.32,0,0,0-6.8,6h0a6.31,6.31,0,0,0,5.89,6.58c10.39.73,19.92.72,28.19-1.11C52.74,188,55.35,183.69,54.09,175.34Z"/><path class="cls-8" d="M29.81,182.79a.77.77,0,0,1-.72-.81.78.78,0,1,1,.72.81Z"/><path class="cls-8" d="M48.72,182.26a.74.74,0,1,1,.84-.68A.77.77,0,0,1,48.72,182.26Z"/><path class="cls-8" d="M44.14,182.43c.06,0-.11.62-.7,1.42a4.78,4.78,0,0,1-3.28,1.94,4.45,4.45,0,0,1-3.54-1.41c-.69-.72-.9-1.3-.85-1.33s.4.46,1.1,1.06a4.49,4.49,0,0,0,3.24,1.16,4.89,4.89,0,0,0,3-1.66C43.79,182.92,44.07,182.4,44.14,182.43Z"/><path class="cls-8" d="M28.73,152.43s.11,0,.3,0a6.89,6.89,0,0,1,.84.18,10.82,10.82,0,0,1,2.91,1.28,12.64,12.64,0,0,1,3.44,3.22,22.7,22.7,0,0,1,2.67,5.1,27.28,27.28,0,0,1,1.87,10.22,24.45,24.45,0,0,1-.23,3.15,4.62,4.62,0,0,1-.25,1.13c-.1,0,.18-1.64.11-4.28a29.89,29.89,0,0,0-2-10,23.91,23.91,0,0,0-2.57-5,13.18,13.18,0,0,0-3.26-3.19A16.45,16.45,0,0,0,28.73,152.43Z"/><path class="cls-8" d="M10.17,179.47s0-.14,0-.39,0-.62,0-1.1a22.68,22.68,0,0,1,.74-4,27.15,27.15,0,0,1,6.61-11.5A23.41,23.41,0,0,1,29,155.82a16.29,16.29,0,0,1,4-.44c.48,0,.85.06,1.1.07s.38.05.38.07a25.9,25.9,0,0,0-5.42.65,24.05,24.05,0,0,0-11.12,6.71,28.08,28.08,0,0,0-6.64,11.23A42.22,42.22,0,0,0,10.17,179.47Z"/><path class="cls-8" d="M35.12,160.86c0-.06.25-.22.61,0a.73.73,0,0,1,.29.7.85.85,0,0,1-.65.69.83.83,0,0,1-.86-.39.74.74,0,0,1,0-.76c.24-.37.56-.32.55-.26s-.16.17-.21.42a.33.33,0,0,0,.07.33.43.43,0,0,0,.36.15.42.42,0,0,0,.28-.27.38.38,0,0,0-.07-.34C35.33,161,35.13,160.93,35.12,160.86Z"/><path class="cls-8" d="M16.22,179.11c0-.06.24-.22.61,0a.71.71,0,0,1,.28.7.81.81,0,0,1-.64.69.83.83,0,0,1-.86-.39.72.72,0,0,1,0-.75c.24-.38.56-.33.55-.27s-.16.18-.21.42a.33.33,0,0,0,.07.33.38.38,0,0,0,.36.15.39.39,0,0,0,.27-.27.38.38,0,0,0-.06-.34C16.43,179.21,16.23,179.18,16.22,179.11Z"/><path class="cls-8" d="M36.93,167.42c0-.06.25-.22.62,0a.73.73,0,0,1,.28.7.81.81,0,0,1-1.51.3.72.72,0,0,1,0-.75c.24-.38.56-.33.55-.27s-.16.18-.22.42a.38.38,0,0,0,.07.34.39.39,0,0,0,.36.14.4.4,0,0,0,.28-.27.35.35,0,0,0-.07-.34C37.15,167.52,36.94,167.49,36.93,167.42Z"/><path class="cls-8" d="M4.17,178.42c0-.06.25-.23.61,0a.72.72,0,0,1,.29.7.86.86,0,0,1-.65.69.86.86,0,0,1-.86-.39.71.71,0,0,1,0-.76c.24-.37.56-.33.55-.26s-.16.17-.22.41a.37.37,0,0,0,.07.34.39.39,0,0,0,.36.14.4.4,0,0,0,.28-.27.35.35,0,0,0-.07-.34C4.39,178.51,4.18,178.49,4.17,178.42Z"/><path class="cls-8" d="M18.78,182.34A75.08,75.08,0,0,1,10,181.8a76.87,76.87,0,0,1-8.69-1.06,72.34,72.34,0,0,1,8.74.54A71,71,0,0,1,18.78,182.34Z"/><path class="cls-6" d="M7.85,181.31A2.32,2.32,0,1,0,10.17,179,2.31,2.31,0,0,0,7.85,181.31Z"/><g class="cls-13"><path class="cls-8" d="M12.82,196.63c-.06.14-.9,0-2.14-.77a12.62,12.62,0,0,1-4.06-4.66,25.11,25.11,0,0,1-2.72-8.7,27.43,27.43,0,0,1,.94-11.13,26.14,26.14,0,0,1,12.53-15.46,21.61,21.61,0,0,1,5.68-2.18c1.4-.3,2.2-.28,2.24-.12.11.41-2.93,1.19-7,3.87a28.94,28.94,0,0,0-6.22,5.65,25.93,25.93,0,0,0-4.76,9,27.5,27.5,0,0,0-1,10.14,27,27,0,0,0,2,8.13,15,15,0,0,0,3,4.69C12.25,196,12.91,196.45,12.82,196.63Z"/></g></g><g id="Character"><path class="cls-7" d="M462,52.83c.2.54,2.66,35.87,2.66,35.87L445,87.21l-2.94-29Z"/><polygon class="cls-6" points="464.62 88.7 466.53 88.16 463.79 52.31 461.73 52.89 464.62 88.7"/><path class="cls-6" d="M452.08,60a.83.83,0,1,1-.82-.83A.83.83,0,0,1,452.08,60Z"/><path class="cls-6" d="M513.28,68.69a1.56,1.56,0,0,0,2.09,2c1-.46,1.25-1.87,1.11-3s-.45-2.36.08-3.38a7.57,7.57,0,0,1,1.86-1.84,4.93,4.93,0,0,0,1.6-4.12,4.15,4.15,0,0,0-2.68-3.43c-1.48-.5-3.35-.14-4.41-1.29-.77-.83-.75-2.12-1.33-3.1-.89-1.51-2.94-1.86-4.69-1.71s-3.55.6-5.23.08c-1.41-.43-2.52-1.49-3.82-2.17a7.7,7.7,0,0,0-10.58,10,4.85,4.85,0,0,0,2.26,2.48"/><path class="cls-14" d="M511.53,98.52,495,97.2c-.11-1.93,0-9.41,0-9.41s-6.89-1.07-7-8,1.11-22.71,1.11-22.71h0a23.94,23.94,0,0,1,24.05,3l1,.78Z"/><path class="cls-6" d="M490.73,69a1,1,0,1,0-1.41-.07A1,1,0,0,0,490.73,69Z"/><path class="cls-6" d="M489.06,67.39c.11.12.79-.4,1.73-.41s1.64.49,1.75.37-.06-.27-.36-.5a2.28,2.28,0,0,0-1.39-.44,2.33,2.33,0,0,0-1.38.47C489.11,67.12,489,67.34,489.06,67.39Z"/><path class="cls-6" d="M500,68.22a1,1,0,0,0-.33,1.37,1,1,0,1,0,.33-1.37Z"/><path class="cls-6" d="M499.37,68.22c.1.12.78-.4,1.73-.4s1.64.48,1.74.36-.06-.27-.36-.5a2.32,2.32,0,0,0-1.39-.43,2.22,2.22,0,0,0-1.38.47C499.42,68,499.31,68.17,499.37,68.22Z"/><path class="cls-6" d="M495.56,76.05a4.72,4.72,0,0,0-1.53-.32c-.25,0-.45-.09-.46-.22a1.32,1.32,0,0,1,.17-.71c.25-.63.5-1.26.75-1.93a26.25,26.25,0,0,0,1.63-5.07A26.65,26.65,0,0,0,494,72.68c-.25.67-.48,1.31-.71,1.94a1.65,1.65,0,0,0-.14,1,.65.65,0,0,0,.43.4,1.83,1.83,0,0,0,.42.06A4.49,4.49,0,0,0,495.56,76.05Z"/><path class="cls-8" d="M498.64,77.1A18,18,0,0,1,494,78.45a2.62,2.62,0,0,0,3.09,1C499.15,78.74,498.64,77.1,498.64,77.1Z"/><path class="cls-15" d="M495,87.69a16.07,16.07,0,0,0,9-2.55s-2.12,5-9,4.33Z"/><path class="cls-6" d="M489,58.86s4,2.33,9.67,0c3.71-1.52,7.93-2.08,8.8-1.3s.78,4.48,4.24,5.82c0,0-.76,7,2.05,6.95s1.87-11,1.87-11L509,55.46l-7.37-2-7.11.47L489,55.06Z"/><path class="cls-14" d="M513.37,68.07c.12,0,4.74-1.4,4.59,3.31s-4.85,3.58-4.86,3.45S513.37,68.07,513.37,68.07Z"/><path class="cls-15" d="M514.6,73.09s.08.06.22.13a.87.87,0,0,0,.61,0,2,2,0,0,0,1-1.79,2.64,2.64,0,0,0-.2-1.18.93.93,0,0,0-.59-.65.41.41,0,0,0-.49.21c-.07.13,0,.22-.07.23s-.1-.08-.05-.28a.54.54,0,0,1,.19-.29.64.64,0,0,1,.46-.1,1.15,1.15,0,0,1,.83.76,2.71,2.71,0,0,1,.24,1.32,2.11,2.11,0,0,1-1.26,2,.88.88,0,0,1-.74-.14C514.6,73.2,514.58,73.1,514.6,73.09Z"/><path class="cls-6" d="M516.57,53.47c0,.15-.74.08-1.52.33s-1.33.7-1.44.6.33-.8,1.28-1.09S516.62,53.34,516.57,53.47Z"/><path class="cls-6" d="M513.89,50.5a3.21,3.21,0,0,1,.14,2.24c-.25,1.28-1,2-1.14,1.94s.41-.9.63-2S513.73,50.51,513.89,50.5Z"/><path class="cls-6" d="M493.67,65.84c-.14.26-1,0-2.13,0s-2,.1-2.12-.17.81-.93,2.17-.87S493.83,65.61,493.67,65.84Z"/><path class="cls-6" d="M504.24,65c-.14.26-1,0-2.13,0s-2,.1-2.13-.17.81-.94,2.18-.87S504.4,64.72,504.24,65Z"/><path class="cls-9" d="M543.23,356l1.64,6.9s11.27,14.64,14.75,13.93c2.28-.47-.52-4.29-4.81-15.42l-.9-4.59Z"/><path class="cls-6" d="M560.08,374.69a.59.59,0,0,1-.09.21,1.35,1.35,0,0,1-.47.44,1.89,1.89,0,0,1-1,.22,2.68,2.68,0,0,1-1.27-.47,53.13,53.13,0,0,1-5.68-5.3,70.88,70.88,0,0,1-5-5.9c-.6-.79-1.07-1.44-1.39-1.9l-.36-.53c-.08-.12-.12-.19-.11-.19a1.76,1.76,0,0,1,.14.17l.39.5c.42.54.9,1.15,1.44,1.86,1.24,1.55,3,3.66,5.08,5.85a63.48,63.48,0,0,0,5.61,5.32,2.1,2.1,0,0,0,2.16.3A1.46,1.46,0,0,0,560.08,374.69Z"/><path class="cls-6" d="M558.48,370s-.35,0-.91,0a5.22,5.22,0,0,0-2,.77,4.06,4.06,0,0,0-1.52,1.52c-.27.49-.34.84-.38.83a2,2,0,0,1,.24-.9,4,4,0,0,1,1.55-1.63,4.81,4.81,0,0,1,2.13-.74A1.84,1.84,0,0,1,558.48,370Z"/><path class="cls-6" d="M547.81,366.55s.12-.5.21-1.3a5.35,5.35,0,0,0-.56-3,5.07,5.07,0,0,0-2.16-2.18,8.14,8.14,0,0,0-1.23-.44,1.23,1.23,0,0,1,.36,0,3.92,3.92,0,0,1,.93.29,4.87,4.87,0,0,1,2.28,2.22,5.12,5.12,0,0,1,.53,3.13,5.75,5.75,0,0,1-.23,1A1.31,1.31,0,0,1,547.81,366.55Z"/><path class="cls-6" d="M543.94,357.2a7.12,7.12,0,0,1,.62,2.16c.21,1.23.43,2.19.39,2.21a7.06,7.06,0,0,1-.59-2.17C544.15,358.18,543.89,357.22,543.94,357.2Z"/><path class="cls-6" d="M555,362.41c0,.07-.64,0-1.4.22s-1.32.47-1.35.42a3.38,3.38,0,0,1,2.75-.64Z"/><path class="cls-6" d="M555.24,363.59c0,.07-.54,0-1.17.16s-1.08.44-1.12.39a1.79,1.79,0,0,1,1.07-.59A1.74,1.74,0,0,1,555.24,363.59Z"/><path class="cls-6" d="M556.14,365.08a5.58,5.58,0,0,0-1.21,0,5.37,5.37,0,0,0-1.12.5,1.49,1.49,0,0,1,1.07-.7A1.45,1.45,0,0,1,556.14,365.08Z"/><path class="cls-6" d="M554.23,361.92a1.29,1.29,0,0,1-.37-.05,6.73,6.73,0,0,1-1-.27,8.51,8.51,0,0,1-1.4-.62,8.21,8.21,0,0,1-.78-.48,1.18,1.18,0,0,1-.56-.86.67.67,0,0,1,.85-.54,1.81,1.81,0,0,1,.79.53,12.31,12.31,0,0,1,1,1.13,8.38,8.38,0,0,1,.62.82c.14.2.21.32.19.33s-.34-.41-.92-1.06c-.29-.32-.64-.69-1.06-1.08a1.53,1.53,0,0,0-.69-.47c-.26-.06-.6.07-.6.35s.24.51.47.68a7.85,7.85,0,0,0,.75.48,9.62,9.62,0,0,0,1.36.65C553.71,361.78,554.24,361.88,554.23,361.92Z"/><path class="cls-6" d="M553.64,361.78a1.26,1.26,0,0,1,0-.35c0-.22,0-.54.07-.94a5.21,5.21,0,0,1,.36-1.36,2.91,2.91,0,0,1,.44-.72.77.77,0,0,1,.9-.28.87.87,0,0,1,.31.89,3.33,3.33,0,0,1-.25.81,4.28,4.28,0,0,1-.8,1.16,5.86,5.86,0,0,1-.72.61,1,1,0,0,1-.3.18s.39-.31.91-.89a4.31,4.31,0,0,0,.73-1.14,3.1,3.1,0,0,0,.22-.75.69.69,0,0,0-.2-.69c-.21-.12-.47.05-.65.24a3.34,3.34,0,0,0-.42.66,5.53,5.53,0,0,0-.38,1.31A11.42,11.42,0,0,1,553.64,361.78Z"/><path class="cls-16" d="M544.87,362.93l-.8-3.32s2.77.51,3.48,2.58a8.63,8.63,0,0,1,.54,3.54l6,6.47s1.51-2.94,4.23-2.24c0,0,2.15,4.72,2.08,5.91s-1.44,1-1.93.82a24.52,24.52,0,0,1-5.38-4.25C549.92,369.14,546.41,365,544.87,362.93Z"/><path class="cls-9" d="M487.17,359.52l-.05-9.2,17.22-.21.22,13.45-1.07.08c-4.75.33-24.17,1.3-27.36.38C472.58,363,487.17,359.52,487.17,359.52Z"/><g class="cls-13"><path d="M498.31,363.5a6,6,0,0,1,2.16-3.69,5.8,5.8,0,0,1,4-1.31l.06,4.82Z"/></g><path class="cls-16" d="M480,361.47s-5.11,1.54-4.46,2.38,20.32.58,29-.29l0-.38-22.94.49S481.05,361.5,480,361.47Z"/><path class="cls-6" d="M504.8,363.16l-.3,0-.85.06-3.13.18c-2.64.13-6.29.26-10.33.31s-7.69,0-10.34,0l-3.13-.09-.85,0-.3,0,.3,0h.85l3.13,0c2.65,0,6.3,0,10.34,0s7.68-.16,10.33-.25l3.13-.11.85,0Z"/><path class="cls-6" d="M481.6,363.93a6.88,6.88,0,0,0-.6-1.48,7.8,7.8,0,0,0-1.08-1.19,2.35,2.35,0,0,1,1.25,1.08A2.29,2.29,0,0,1,481.6,363.93Z"/><path class="cls-6" d="M486.65,361.29s-.29-.26-.55-.65-.43-.74-.38-.77.3.26.55.65S486.7,361.26,486.65,361.29Z"/><path class="cls-6" d="M488,360.54s-.32-.14-.62-.4-.51-.51-.47-.56.31.14.61.4S488.07,360.49,488,360.54Z"/><path class="cls-6" d="M488.9,358.9a2,2,0,0,1-.9.12,1.86,1.86,0,0,1-.9-.08,2,2,0,0,1,.89-.12A1.92,1.92,0,0,1,488.9,358.9Z"/><path class="cls-6" d="M489.18,357.75a2.56,2.56,0,0,1-2,.18,5.54,5.54,0,0,1,1-.08A5.12,5.12,0,0,1,489.18,357.75Z"/><path class="cls-6" d="M486.05,359.8a3.27,3.27,0,0,1-1.11,0,6,6,0,0,1-1.18-.24,3.69,3.69,0,0,1-.68-.27.61.61,0,0,1-.28-.34.45.45,0,0,1,.16-.45,2,2,0,0,1,2.52.57,1.92,1.92,0,0,1,.37.73c0,.19,0,.3,0,.3a2.84,2.84,0,0,0-.51-.94,2,2,0,0,0-.95-.6,1.73,1.73,0,0,0-1.32.1c-.18.14-.11.34.09.46a3.45,3.45,0,0,0,.63.25,8.31,8.31,0,0,0,1.14.29C485.62,359.77,486.05,359.76,486.05,359.8Z"/><path class="cls-6" d="M485.76,359.85a1.1,1.1,0,0,1-.14-.76,1.76,1.76,0,0,1,.3-.81,1.1,1.1,0,0,1,.91-.58.44.44,0,0,1,.35.51,1.35,1.35,0,0,1-.18.49,3.65,3.65,0,0,1-.52.68,1.61,1.61,0,0,1-.63.46s.22-.21.52-.56a4.31,4.31,0,0,0,.46-.67c.15-.24.25-.66,0-.7s-.56.25-.73.47a1.92,1.92,0,0,0-.3.73A4.27,4.27,0,0,0,485.76,359.85Z"/><path class="cls-6" d="M504.39,358.46s-.5,0-1.27.06a5.51,5.51,0,0,0-2.77,1.18,5.59,5.59,0,0,0-1.7,2.47c-.25.74-.27,1.24-.31,1.23a1.12,1.12,0,0,1,0-.34,4.92,4.92,0,0,1,.18-.93,5.24,5.24,0,0,1,4.59-3.76,4.78,4.78,0,0,1,.95,0C504.27,358.41,504.39,358.44,504.39,358.46Z"/><path class="cls-6" d="M502.51,351.31a27.8,27.8,0,0,1,.19,3.54,30,30,0,0,1,0,3.54,62.77,62.77,0,0,1-.18-7.08Z"/><path class="cls-6" d="M496.13,361.85a9.71,9.71,0,0,1-2.52.28,9.14,9.14,0,0,1-2.52-.17c0-.06,1.13,0,2.52,0S496.12,361.79,496.13,361.85Z"/><path class="cls-6" d="M499.5,361.8c0,.05-.09.24-.2.5s-.17.49-.23.49-.09-.27,0-.57S499.46,361.76,499.5,361.8Z"/><path class="cls-6" d="M500.75,360.2s-.06.23-.24.41-.35.3-.39.26.06-.22.24-.41S500.71,360.17,500.75,360.2Z"/><path class="cls-6" d="M502.56,359.46c0,.06-.24.06-.49.15s-.43.23-.48.19.1-.28.41-.39S502.58,359.4,502.56,359.46Z"/><path class="cls-6" d="M503.86,359.1s-.08.14-.22.2-.28.06-.3,0,.08-.15.22-.2S503.83,359.05,503.86,359.1Z"/><polyline class="cls-6" points="475.45 176.9 483.49 355.55 510.31 356.12 505.86 206.55 536.02 357.26 561.52 357.26 527.47 176.9"/><polygon class="cls-7" points="534.7 354.83 535.31 357.47 561.52 357.82 561.13 353.7 534.7 354.83"/><path class="cls-7" d="M555.1,354.67c.15,0,.32.29.38.7s0,.76-.13.78-.31-.28-.38-.69S555,354.7,555.1,354.67Z"/><path class="cls-7" d="M554.12,348.83c.14,0,.37.61.5,1.42s.13,1.48,0,1.5-.36-.61-.5-1.42S554,348.85,554.12,348.83Z"/><path class="cls-7" d="M553.14,343c.14,0,.37.61.5,1.42s.13,1.48,0,1.5-.37-.61-.5-1.42S553,343,553.14,343Z"/><path class="cls-7" d="M552.16,337.13c.14,0,.36.61.5,1.42s.13,1.48,0,1.5-.37-.61-.51-1.42S552,337.15,552.16,337.13Z"/><path class="cls-7" d="M551.17,331.28c.14,0,.37.61.5,1.42s.13,1.48,0,1.5-.36-.61-.5-1.42S551,331.3,551.17,331.28Z"/><path class="cls-7" d="M550.18,325.43c.14,0,.37.61.51,1.41s.13,1.49,0,1.51-.37-.61-.51-1.42S550,325.45,550.18,325.43Z"/><path class="cls-7" d="M549.19,319.58c.14,0,.37.61.51,1.41s.13,1.49,0,1.51-.37-.61-.51-1.42S549.05,319.6,549.19,319.58Z"/><path class="cls-7" d="M548.2,313.73c.14,0,.37.61.5,1.42s.14,1.48,0,1.5-.37-.61-.51-1.42S548.06,313.75,548.2,313.73Z"/><path class="cls-7" d="M547.2,307.88c.14,0,.37.61.51,1.41s.13,1.49,0,1.51-.37-.61-.5-1.42S547.06,307.9,547.2,307.88Z"/><path class="cls-7" d="M546.2,302c.14,0,.37.61.51,1.42s.13,1.48,0,1.5-.37-.61-.5-1.42S546.06,302.05,546.2,302Z"/><path class="cls-7" d="M545.2,296.18c.14,0,.37.61.51,1.42s.13,1.48,0,1.5-.37-.61-.51-1.41S545.06,296.2,545.2,296.18Z"/><path class="cls-7" d="M544.19,290.33c.14,0,.37.61.51,1.42s.13,1.48,0,1.51-.37-.61-.51-1.42S544.05,290.36,544.19,290.33Z"/><path class="cls-7" d="M543.17,284.49c.14,0,.37.61.51,1.41s.14,1.49,0,1.51-.37-.61-.51-1.42S543,284.51,543.17,284.49Z"/><path class="cls-7" d="M542.15,278.64c.14,0,.37.61.51,1.42s.14,1.48,0,1.5-.37-.6-.51-1.41S542,278.67,542.15,278.64Z"/><path class="cls-7" d="M541.12,272.8c.15,0,.38.61.52,1.41s.14,1.49,0,1.51-.37-.61-.52-1.42S541,272.82,541.12,272.8Z"/><path class="cls-7" d="M540.09,267c.14,0,.37.6.52,1.41s.14,1.48,0,1.51-.37-.61-.52-1.42S540,267,540.09,267Z"/><path class="cls-7" d="M539.05,261.11c.14,0,.37.61.52,1.42s.14,1.48,0,1.5-.37-.6-.52-1.41S538.91,261.14,539.05,261.11Z"/><path class="cls-7" d="M538,255.27c.14,0,.37.61.52,1.42s.15,1.48,0,1.5-.38-.6-.52-1.41S537.86,255.3,538,255.27Z"/><path class="cls-7" d="M536.94,249.44c.14,0,.38.6.52,1.41s.15,1.48,0,1.5-.37-.6-.52-1.41S536.8,249.46,536.94,249.44Z"/><path class="cls-7" d="M535.88,243.6c.14,0,.37.61.52,1.41s.15,1.48,0,1.51-.37-.61-.52-1.42S535.74,243.62,535.88,243.6Z"/><path class="cls-7" d="M534.8,237.76c.14,0,.38.61.53,1.41s.15,1.48,0,1.51-.38-.6-.53-1.41S534.66,237.79,534.8,237.76Z"/><path class="cls-7" d="M533.72,231.93c.14,0,.37.61.52,1.41s.16,1.48,0,1.51-.38-.61-.53-1.41S533.57,232,533.72,231.93Z"/><path class="cls-7" d="M532.62,226.1c.14,0,.38.6.53,1.41s.16,1.48,0,1.5-.38-.6-.53-1.41S532.48,226.13,532.62,226.1Z"/><path class="cls-7" d="M531.51,220.27c.14,0,.38.6.54,1.41s.16,1.48,0,1.5-.38-.6-.53-1.41S531.37,220.3,531.51,220.27Z"/><path class="cls-7" d="M530.39,214.44c.15,0,.39.6.54,1.41s.17,1.48,0,1.51-.39-.61-.54-1.41S530.25,214.47,530.39,214.44Z"/><path class="cls-7" d="M529.26,208.62c.14,0,.39.6.54,1.4s.17,1.48,0,1.51-.38-.6-.54-1.41S529.12,208.64,529.26,208.62Z"/><path class="cls-7" d="M528.12,202.8c.14,0,.38.6.54,1.4s.17,1.48,0,1.51-.38-.61-.54-1.41S528,202.82,528.12,202.8Z"/><path class="cls-7" d="M527,197c.14,0,.39.6.55,1.4s.17,1.48,0,1.51-.38-.61-.54-1.41S526.82,197,527,197Z"/><path class="cls-7" d="M525.79,191.16c.14,0,.38.6.55,1.4s.18,1.48,0,1.51-.39-.6-.55-1.41S525.65,191.19,525.79,191.16Z"/><path class="cls-7" d="M524.6,185.34c.14,0,.39.6.55,1.4s.19,1.48,0,1.51-.38-.6-.55-1.4S524.46,185.37,524.6,185.34Z"/><path class="cls-7" d="M523.69,181c.14,0,.32.28.41.68s0,.76-.1.79-.33-.27-.41-.68S523.55,181,523.69,181Z"/><path class="cls-7" d="M505.69,354.66c.14,0,.27.32.3.73s-.08.75-.23.76-.27-.32-.29-.73S505.54,354.66,505.69,354.66Z"/><path class="cls-7" d="M505.44,348.7c.14,0,.29.66.32,1.48s-.06,1.49-.21,1.5-.28-.66-.31-1.48S505.3,348.71,505.44,348.7Z"/><path class="cls-7" d="M505.26,342.75c.14,0,.28.66.3,1.48s-.07,1.49-.22,1.5-.28-.66-.3-1.48S505.11,342.76,505.26,342.75Z"/><path class="cls-7" d="M505.11,336.8c.14,0,.27.66.29,1.48s-.08,1.49-.22,1.49-.28-.66-.3-1.48S505,336.8,505.11,336.8Z"/><path class="cls-7" d="M505,330.84c.15,0,.28.66.3,1.48s-.08,1.49-.23,1.5-.27-.66-.29-1.49S504.82,330.84,505,330.84Z"/><path class="cls-7" d="M504.81,324.88c.14,0,.28.66.3,1.48s-.08,1.5-.22,1.5-.28-.66-.3-1.48S504.66,324.88,504.81,324.88Z"/><path class="cls-7" d="M504.61,318.92c.15,0,.29.66.31,1.48s-.06,1.5-.2,1.5-.29-.66-.32-1.48S504.47,318.93,504.61,318.92Z"/><path class="cls-7" d="M504.36,313c.15,0,.29.66.32,1.48s-.05,1.49-.19,1.5-.29-.66-.33-1.48S504.22,313,504.36,313Z"/><path class="cls-7" d="M504.13,307c.14,0,.28.66.32,1.48s-.06,1.49-.21,1.5-.28-.66-.31-1.48S504,307,504.13,307Z"/><path class="cls-7" d="M503.92,301.07c.15,0,.28.65.31,1.48S504.17,304,504,304s-.28-.65-.31-1.48S503.78,301.07,503.92,301.07Z"/><path class="cls-7" d="M503.74,295.11c.14,0,.28.66.3,1.48s-.07,1.49-.21,1.49-.28-.65-.31-1.48S503.6,295.11,503.74,295.11Z"/><path class="cls-7" d="M503.58,289.15c.15,0,.28.66.3,1.49s-.08,1.49-.22,1.49-.28-.66-.3-1.48S503.44,289.16,503.58,289.15Z"/><path class="cls-7" d="M503.46,283.2c.14,0,.27.66.29,1.48s-.09,1.49-.23,1.5-.28-.67-.29-1.49S503.31,283.2,503.46,283.2Z"/><path class="cls-7" d="M503.35,277.24c.15,0,.28.66.29,1.49s-.09,1.49-.24,1.49-.27-.66-.28-1.49S503.21,277.24,503.35,277.24Z"/><path class="cls-7" d="M503.28,271.29c.15,0,.27.66.28,1.48s-.1,1.49-.24,1.49-.27-.66-.28-1.48S503.14,271.29,503.28,271.29Z"/><path class="cls-7" d="M503.24,265.33c.14,0,.27.66.27,1.49s-.11,1.49-.25,1.49-.27-.67-.27-1.49S503.1,265.33,503.24,265.33Z"/><path class="cls-7" d="M503.23,259.37c.14,0,.26.67.26,1.49s-.12,1.49-.26,1.49-.26-.67-.26-1.49S503.08,259.37,503.23,259.37Z"/><path class="cls-7" d="M503.24,253.42c.15,0,.26.66.26,1.49s-.12,1.49-.27,1.48-.26-.66-.25-1.49S503.1,253.42,503.24,253.42Z"/><path class="cls-7" d="M503.29,247.46c.15,0,.26.67.25,1.49s-.13,1.49-.28,1.49-.25-.67-.24-1.49S503.15,247.46,503.29,247.46Z"/><path class="cls-7" d="M503.37,241.5c.14,0,.25.67.24,1.5s-.14,1.48-.28,1.48-.25-.67-.24-1.49S503.23,241.5,503.37,241.5Z"/><path class="cls-7" d="M503.48,235.55c.14,0,.24.67.23,1.49s-.15,1.49-.29,1.49-.25-.67-.23-1.5S503.33,235.55,503.48,235.55Z"/><path class="cls-7" d="M503.61,229.59c.14,0,.24.67.22,1.5s-.15,1.48-.29,1.48-.25-.67-.23-1.5S503.47,229.59,503.61,229.59Z"/><path class="cls-7" d="M503.82,223.63c.14,0,.23.68.2,1.5s-.18,1.48-.32,1.48-.23-.68-.2-1.5S503.68,223.62,503.82,223.63Z"/><path class="cls-7" d="M504.17,217.68c.14,0,.21.69.16,1.51s-.22,1.47-.36,1.46-.22-.68-.16-1.5S504,217.67,504.17,217.68Z"/><path class="cls-7" d="M504.71,211.75c.14,0,.19.69.11,1.51s-.27,1.47-.41,1.45-.19-.69-.11-1.51S504.57,211.73,504.71,211.75Z"/><path class="cls-7" d="M505.29,207.32c.14,0,.21.37.15.78s-.22.73-.36.71-.21-.37-.16-.78S505.14,207.3,505.29,207.32Z"/><polygon class="cls-7" points="482.79 356.42 511.15 356.88 510.93 352.16 482.79 352.31 482.79 356.42"/><path class="cls-7" d="M501.39,179.17a5.21,5.21,0,0,1,.17,1.09c.07.71.16,1.73.27,3,.2,2.53.44,6,.68,9.88.12,1.92.22,3.75.32,5.44a16.74,16.74,0,0,0,.52,4.34,3.68,3.68,0,0,0,1.81,2.16,4.77,4.77,0,0,0,1,.29s-.1,0-.29,0a2.32,2.32,0,0,1-.82-.16A3.78,3.78,0,0,1,503,203a16.11,16.11,0,0,1-.65-4.44c-.11-1.69-.23-3.52-.36-5.44-.23-3.86-.42-7.36-.53-9.89-.06-1.26-.09-2.29-.1-3A3.93,3.93,0,0,1,501.39,179.17Z"/><path class="cls-7" d="M504.14,181.54c0,.07-.22.24-.25.67a.83.83,0,0,0,.21.61.72.72,0,0,0,1.14-.46.85.85,0,0,0-.28-.59c-.31-.28-.63-.22-.64-.3s.33-.3.85,0a1.12,1.12,0,0,1,.55.86,1.11,1.11,0,0,1-.72,1,1.07,1.07,0,0,1-1.25-.25,1.11,1.11,0,0,1-.22-1C503.69,181.55,504.14,181.47,504.14,181.54Z"/><path class="cls-7" d="M529.38,185.78a5.17,5.17,0,0,1-2.23.85,9.62,9.62,0,0,1-5.71-.64,9.49,9.49,0,0,1-4.28-3.83,5.13,5.13,0,0,1-.86-2.23c.09,0,.36.84,1.17,2a9.76,9.76,0,0,0,9.62,4.3C528.51,186.07,529.35,185.69,529.38,185.78Z"/><path class="cls-7" d="M484.78,179.17a3.85,3.85,0,0,1-.1,1.93A7.6,7.6,0,0,1,478,187a3.7,3.7,0,0,1-1.93-.16c0-.08.74,0,1.88-.2a8.32,8.32,0,0,0,4-1.88,8.44,8.44,0,0,0,2.39-3.72C484.67,179.9,484.69,179.17,484.78,179.17Z"/><path class="cls-14" d="M468.51,102.09l-25,6.49,4-29.63h0l.51-1.41,9.16-1.42L456,69.37A5.49,5.49,0,0,0,449.22,65l-3,.8a7.79,7.79,0,0,0-5,4c-1.74,3.4-3.43,7.12-3.27,6.8h0L424.59,113a13.76,13.76,0,0,0,1.48,14.66c4.32,5.61,14.75,1.7,19.66.75l32-7.05Z"/><path class="cls-14" d="M560.73,160.07a16.75,16.75,0,0,0-.08-22.06l-26.74-30.33-7.16,20c.49.33,20.82,22.13,20.82,22.13L530.1,171.6A12.5,12.5,0,0,0,528,183.52l3,12.18,14.45-6.48-1-1.49h-9.59l-.57-2.3h0Z"/><path class="cls-15" d="M551.33,145.93a8.39,8.39,0,0,1-2,2.38,13.61,13.61,0,0,1-2.25,2.08,7.07,7.07,0,0,1,1.88-2.45A10.91,10.91,0,0,1,551.33,145.93Z"/><path class="cls-9" d="M469.72,183.26l57.75-3.88-.68-28.45,0-20.59,6.44,9.49,17.15-17.92-19.17-18.43h0a30,30,0,0,0-11.67-7.55,24,24,0,0,0-7.31-1.4h0a29.29,29.29,0,0,1-17.65,0,85.52,85.52,0,0,0-16.05,3l-22.39,6,7.37,27.48L477,126.5S469.59,177.55,469.72,183.26Z"/><polygon class="cls-9" points="533.19 139.83 537.13 138.65 535.78 137.12 533.19 139.83"/><path class="cls-6" d="M527.33,131.38a14.37,14.37,0,0,1-2.3-3.11,14.51,14.51,0,0,1-1.85-3.39,14.93,14.93,0,0,1,2.3,3.12A14.79,14.79,0,0,1,527.33,131.38Z"/><polygon class="cls-9" points="463.53 131.32 459.06 125.44 461.8 124.83 463.53 131.32"/><g class="cls-17"><path class="cls-8" d="M535.52,108a1.52,1.52,0,0,1-.23.22l-.7.61a14.21,14.21,0,0,1-3.09,1.8,15.23,15.23,0,0,1-5.54,1.19,15.06,15.06,0,0,1-7.31-1.6,8.28,8.28,0,0,1-3.41-2.77,3.32,3.32,0,0,1-.6-2.34,2.3,2.3,0,0,1,1.74-1.79,3,3,0,0,1,2.54.53A4.8,4.8,0,0,1,520.5,106a7.26,7.26,0,0,1-.11,5.4,9,9,0,0,1-3.71,4.3,14,14,0,0,1-5.61,1.93,13.24,13.24,0,0,1-6.13-.52,8.33,8.33,0,0,1-2.75-1.61,10.6,10.6,0,0,1-2-2.54c-1.08-1.85-1.81-3.83-3.1-5.38a7.54,7.54,0,0,0-5.06-2.7,9.87,9.87,0,0,0-5.55,1,13.66,13.66,0,0,0-4.33,3.38,5.44,5.44,0,0,0-1.38,4.75,3.2,3.2,0,0,0,1.29,2,3,3,0,0,0,2.2.48,2.38,2.38,0,0,0,1.66-1.33,4.73,4.73,0,0,0,.41-2.16,13.42,13.42,0,0,0-.9-4.17,14.21,14.21,0,0,0-9.19-8.54,14.83,14.83,0,0,0-3.49-.62c-.81,0-1.24,0-1.24,0a7.84,7.84,0,0,1,1.24-.06,14.5,14.5,0,0,1,8.58,3.11,14.53,14.53,0,0,1,4.44,6,13.45,13.45,0,0,1,1,4.3,5.27,5.27,0,0,1-.43,2.35,2.81,2.81,0,0,1-1.95,1.57,3.43,3.43,0,0,1-2.54-.53,3.71,3.71,0,0,1-1.49-2.21,5.17,5.17,0,0,1,.1-2.73A7.08,7.08,0,0,1,481.8,109a14.27,14.27,0,0,1,4.48-3.52,10.43,10.43,0,0,1,5.83-1.1,8,8,0,0,1,5.4,2.88c1.36,1.64,2.1,3.65,3.15,5.45a9.71,9.71,0,0,0,1.88,2.41,7.56,7.56,0,0,0,2.58,1.51,12.51,12.51,0,0,0,5.88.5,13.58,13.58,0,0,0,5.42-1.84,8.49,8.49,0,0,0,3.52-4.06,6.8,6.8,0,0,0,.14-5,4.32,4.32,0,0,0-1.43-1.94,2.54,2.54,0,0,0-2.16-.47,1.85,1.85,0,0,0-1.44,1.45,2.91,2.91,0,0,0,.53,2,8,8,0,0,0,3.24,2.67,14.93,14.93,0,0,0,7.13,1.63,15.53,15.53,0,0,0,5.47-1.09A16.31,16.31,0,0,0,535.52,108Z"/></g><g class="cls-17"><path class="cls-8" d="M526.34,136.35h-.28l-.8-.06c-.7-.06-1.73-.17-3.06-.22a21,21,0,0,0-4.83.27A11.43,11.43,0,0,0,511.7,139a7.25,7.25,0,0,0-2,3,4,4,0,0,0,.41,3.69,3.11,3.11,0,0,0,1.6,1.14,2.39,2.39,0,0,0,1.94-.31A3.41,3.41,0,0,0,515,144.9a4.32,4.32,0,0,0,.19-2.18,9.12,9.12,0,0,0-2.08-4.18,12.78,12.78,0,0,0-3.83-3.11,14.18,14.18,0,0,0-10.15-1.28,17.89,17.89,0,0,0-8.84,5.38,9.83,9.83,0,0,0-2.53,4.17,3.28,3.28,0,0,0,.22,2.23,2.83,2.83,0,0,0,1.67,1.36,3.79,3.79,0,0,0,4-1,4.87,4.87,0,0,0,.95-3.92,6.42,6.42,0,0,0-1.76-3.46,11,11,0,0,0-3-2.15,14.78,14.78,0,0,0-10.87-1.27,9.8,9.8,0,0,0-3.52,2.1,6.32,6.32,0,0,1,.76-.77,8.4,8.4,0,0,1,2.69-1.52,14.78,14.78,0,0,1,11.1,1.13,11.13,11.13,0,0,1,3.1,2.21,6.77,6.77,0,0,1,1.89,3.66,5.27,5.27,0,0,1-1,4.29,4.21,4.21,0,0,1-4.46,1.2,3.23,3.23,0,0,1-1.95-1.59,3.71,3.71,0,0,1-.27-2.56,10.29,10.29,0,0,1,2.63-4.41,18.36,18.36,0,0,1,9.1-5.53A14.63,14.63,0,0,1,509.47,135a13.24,13.24,0,0,1,4,3.25,9.47,9.47,0,0,1,2.17,4.42,4.68,4.68,0,0,1-.23,2.43,3.9,3.9,0,0,1-1.5,1.85,2.9,2.9,0,0,1-2.31.35,3.57,3.57,0,0,1-1.82-1.31,4.4,4.4,0,0,1-.45-4.08,7.7,7.7,0,0,1,2.15-3.15,11.72,11.72,0,0,1,5.87-2.7,21,21,0,0,1,4.89-.19c1.33.09,2.37.23,3.06.32l.8.12Z"/></g><g class="cls-17"><path class="cls-8" d="M527.39,168.92a.7.7,0,0,1-.25.05c-.18,0-.43.07-.77.1a12.77,12.77,0,0,1-3-.11,14.46,14.46,0,0,1-4.48-1.47,13.83,13.83,0,0,1-4.73-4.06,7,7,0,0,1-.93-1.55,2.33,2.33,0,0,1,0-1.95,1.64,1.64,0,0,1,.75-.77,1.49,1.49,0,0,1,1.1,0,2.79,2.79,0,0,1,1.48,1.5,6.59,6.59,0,0,1,.27,4.26,10.2,10.2,0,0,1-2.11,4,14.11,14.11,0,0,1-8.36,4.59,15.72,15.72,0,0,1-10.11-1.63c-.39-.21-.76-.47-1.14-.7s-.71-.54-1.06-.8a7.49,7.49,0,0,1-1.77-2,3.64,3.64,0,0,1-.45-2.64,2.5,2.5,0,0,1,1.78-1.95,3.42,3.42,0,0,1,2.57.37,4.38,4.38,0,0,1,1.71,1.86,5.49,5.49,0,0,1,.05,4.73,7,7,0,0,1-3.21,3.18,9.26,9.26,0,0,1-4.15,1,19.67,19.67,0,0,1-7.39-1.63,27.56,27.56,0,0,1-9.11-6,19.31,19.31,0,0,1-2.6-3.05s.07.05.19.19l.5.58a29.5,29.5,0,0,0,2.05,2.13,28,28,0,0,0,9.1,5.78,19.76,19.76,0,0,0,7.25,1.54,8.85,8.85,0,0,0,3.95-.94,6.52,6.52,0,0,0,3-3,5,5,0,0,0-.07-4.31,3.8,3.8,0,0,0-1.51-1.64,3,3,0,0,0-2.19-.32,2,2,0,0,0-1.41,1.57,3.15,3.15,0,0,0,.4,2.27,7,7,0,0,0,1.65,1.85c.34.25.67.53,1,.77s.72.47,1.1.68a15.35,15.35,0,0,0,9.78,1.58,13.69,13.69,0,0,0,8.07-4.4,9.69,9.69,0,0,0,2-3.8,6.14,6.14,0,0,0-.21-4,2.43,2.43,0,0,0-1.23-1.29,1.07,1.07,0,0,0-1.35.6,2,2,0,0,0,0,1.63,7.41,7.41,0,0,0,.88,1.48,13.7,13.7,0,0,0,4.57,4,14.61,14.61,0,0,0,4.37,1.53,15.17,15.17,0,0,0,2.94.21l.77-.05Z"/></g><polygon class="cls-16" points="463.53 131.32 459.06 125.44 461.8 124.83 463.53 131.32"/><polygon class="cls-18" points="533.19 139.83 537.13 138.65 535.78 137.12 533.19 139.83"/></g></svg>