<svg xmlns="http://www.w3.org/2000/svg" viewBox="0 0 500 360.86"><defs><style>.cls-1{isolation:isolate;}.cls-2{fill:#ebebeb;}.cls-3,.cls-8{fill:#e6e6e6;}.cls-4{fill:#f0f0f0;}.cls-14,.cls-17,.cls-5{fill:#fafafa;}.cls-6{fill:#fff;}.cls-7{fill:#f5f5f5;}.cls-8{mix-blend-mode:multiply;}.cls-17,.cls-8{opacity:0.7;}.cls-9{fill:#ffc3bd;}.cls-10{fill:#263238;}.cls-11,.cls-13{fill:#407bff;}.cls-11{opacity:0.5;}.cls-12{opacity:0.2;}.cls-14{opacity:0.3;}.cls-15{fill:#2f57a4;}.cls-16{fill:#ed847e;}</style></defs><g class="cls-1"><g id="Background_Complete" data-name="Background Complete"><rect class="cls-2" y="327.45" width="500" height="0.25"/><rect class="cls-2" x="50.1" y="343.54" width="33.12" height="0.25"/><rect class="cls-2" x="168.78" y="346.26" width="8.69" height="0.25"/><rect class="cls-2" x="84.22" y="334.26" width="19.19" height="0.25"/><rect class="cls-2" x="404.35" y="335.94" width="43.19" height="0.25"/><rect class="cls-2" x="389.11" y="335.94" width="6.33" height="0.25"/><rect class="cls-2" x="274.85" y="340.16" width="93.68" height="0.25"/><path class="cls-2" d="M263,282.85h193.1a5.71,5.71,0,0,0,5.7-5.71V5.71A5.71,5.71,0,0,0,456.09,0H263a5.71,5.71,0,0,0-5.71,5.71V277.14A5.71,5.71,0,0,0,263,282.85ZM456.09.25a5.46,5.46,0,0,1,5.45,5.46V277.14a5.46,5.46,0,0,1-5.45,5.46H263a5.47,5.47,0,0,1-5.46-5.46V5.71A5.47,5.47,0,0,1,263,.25Z"/><path class="cls-2" d="M46.69,282.85h193.1a5.72,5.72,0,0,0,5.71-5.71V5.71A5.72,5.72,0,0,0,239.79,0H46.69A5.71,5.71,0,0,0,41,5.71V277.14A5.71,5.71,0,0,0,46.69,282.85ZM239.79.25a5.47,5.47,0,0,1,5.46,5.46V277.14a5.47,5.47,0,0,1-5.46,5.46H46.69a5.47,5.47,0,0,1-5.46-5.46V5.71A5.47,5.47,0,0,1,46.69.25Z"/><rect class="cls-3" x="179.4" y="33.65" width="251.58" height="144.13" transform="translate(610.38 211.44) rotate(180)"/><rect class="cls-4" x="175.66" y="33.65" width="253.57" height="144.13" transform="translate(604.89 211.44) rotate(180)"/><rect class="cls-5" x="236.26" y="-15.83" width="132.36" height="243.1" transform="translate(408.16 -196.73) rotate(90)"/><polygon class="cls-6" points="394.16 171.9 363.41 39.54 323.11 39.54 353.85 171.9 394.16 171.9"/><polygon class="cls-6" points="347.33 171.9 316.59 39.54 298.39 39.54 329.13 171.9 347.33 171.9"/><polygon class="cls-6" points="275.11 171.9 244.37 39.54 213.28 39.54 244.02 171.9 275.11 171.9"/><rect class="cls-3" x="115.05" y="105.39" width="132.36" height="0.67" transform="translate(286.95 -75.51) rotate(90)"/><rect class="cls-4" x="294.89" y="33.65" width="15.11" height="144.13" transform="translate(604.89 211.44) rotate(180)"/><rect class="cls-3" x="244.15" y="105.39" width="132.36" height="0.67" transform="translate(416.05 -204.62) rotate(90)"/><rect class="cls-3" x="302.18" y="33.65" width="0.53" height="144.13" transform="translate(604.89 211.44) rotate(180)"/><rect class="cls-3" x="270.17" y="234.16" width="21.33" height="93.28" transform="translate(561.66 561.61) rotate(180)"/><polygon class="cls-7" points="279.4 327.45 270.17 327.45 270.17 311.97 289.09 311.97 279.4 327.45"/><rect class="cls-3" x="435.65" y="234.16" width="21.33" height="93.28" transform="translate(892.62 561.61) rotate(180)"/><rect class="cls-7" x="270.17" y="234.16" width="173.54" height="87.96" transform="translate(713.87 556.28) rotate(180)"/><polygon class="cls-7" points="434.47 327.45 443.71 327.45 443.71 311.97 424.79 311.97 434.47 327.45"/><rect class="cls-4" x="277.33" y="241.56" width="159.21" height="32.44" transform="translate(713.87 515.56) rotate(180)"/><path class="cls-6" d="M356.94,267.26a9.48,9.48,0,1,0-9.48-9.48A9.49,9.49,0,0,0,356.94,267.26Zm0-17.95a8.48,8.48,0,1,1-8.48,8.47A8.48,8.48,0,0,1,356.94,249.31Z"/><rect class="cls-4" x="277.33" y="281.84" width="159.21" height="32.44" transform="translate(713.87 596.12) rotate(180)"/><path class="cls-6" d="M356.94,307.54a9.48,9.48,0,1,0-9.48-9.48A9.49,9.49,0,0,0,356.94,307.54Zm0-18a8.48,8.48,0,1,1-8.48,8.47A8.48,8.48,0,0,1,356.94,289.59Z"/><rect class="cls-3" x="177.68" y="258.33" width="70.88" height="69.11"/><rect class="cls-4" x="84.53" y="258.33" width="93.15" height="69.11" transform="translate(262.21 585.77) rotate(180)"/><rect class="cls-8" x="84.53" y="252.44" width="164.03" height="11.46"/><rect class="cls-3" x="177.68" y="251.71" width="74.45" height="6.62"/><rect class="cls-4" x="80.95" y="251.71" width="96.73" height="6.62" transform="translate(258.64 510.05) rotate(180)"/><circle class="cls-3" cx="76.01" cy="302.57" r="24.88" transform="translate(-120.13 59.96) rotate(-24.85)"/><path class="cls-8" d="M81.66,284.23c2.09.39,4-.13,4.14-1.16s-1.36-2.17-3.46-2.56-4,.13-4.14,1.16S79.56,283.84,81.66,284.23Z"/><path class="cls-8" d="M91.24,290.27c1.5,1.53,3.31,2.17,4.06,1.45s.14-2.56-1.35-4.09-3.31-2.17-4-1.44S89.75,288.75,91.24,290.27Z"/><path class="cls-8" d="M82.83,293.29c1.7,1.29,3.72,1.49,4.51.45s.06-2.93-1.64-4.22S82,288,81.19,289.07,81.13,292,82.83,293.29Z"/><rect class="cls-3" x="69.53" y="50.78" width="71.67" height="109.88" transform="translate(210.73 211.44) rotate(180)"/><rect class="cls-7" x="63.46" y="50.78" width="76.07" height="109.88" transform="translate(203 211.44) rotate(180)"/><rect class="cls-6" x="51.41" y="72.53" width="100.18" height="66.37" transform="translate(207.22 4.22) rotate(90)"/><rect class="cls-7" x="98.69" y="84.22" width="5.62" height="43.01" transform="translate(207.22 4.22) rotate(90)"/><rect class="cls-7" x="98.69" y="70.04" width="5.62" height="43.01" transform="translate(193.04 -9.95) rotate(90)"/><rect class="cls-7" x="98.69" y="55.87" width="5.62" height="43.01" transform="translate(178.87 -24.13) rotate(90)"/><rect class="cls-7" x="98.69" y="98.39" width="5.62" height="43.01" transform="translate(221.39 18.39) rotate(90)"/><rect class="cls-7" x="98.69" y="112.56" width="5.62" height="43.01" transform="translate(235.56 32.57) rotate(90)"/></g><g id="Character"><polygon class="cls-9" points="288.25 352.59 280.67 350.5 283.49 332.39 291.07 334.48 288.25 352.59"/><polygon class="cls-9" points="352.74 352.78 344.88 352.78 342.92 334.57 350.78 334.57 352.74 352.78"/><path class="cls-10" d="M344.23,351.87h9.59a.68.68,0,0,1,.67.54l1.55,7a1.16,1.16,0,0,1-1.15,1.4c-3.08-.06-5.34-.24-9.22-.24-2.39,0-9.6.25-12.9.25s-3.73-3.26-2.38-3.56c6.06-1.32,10.63-3.15,12.56-4.9A1.94,1.94,0,0,1,344.23,351.87Z"/><path class="cls-10" d="M281,349.63l8.28,2.29a.67.67,0,0,1,.5.69l-.36,7.15a1.14,1.14,0,0,1-1.46,1.05c-3-.87-7.24-2.24-11-3.27-4.39-1.21-8.25-2-13.39-3.44-3.12-.85-3.11-4.24-1.73-4.16,6.29.33,11.17,1.53,17.16-.22A3.65,3.65,0,0,1,281,349.63Z"/><path class="cls-9" d="M309.72,106.59c-.31.37-.75.9-1.16,1.35l-1.25,1.43c-.84.94-1.72,1.87-2.61,2.78-1.79,1.8-3.61,3.57-5.51,5.17-3.75,3.21-7.86,6-11.82,7.19-.49.17-1,.26-1.45.39l-.71.12c-.43.06,0,0,0,.07s-.08.06-.4,0a7.82,7.82,0,0,1-1.17-.5,22.46,22.46,0,0,1-2.83-1.84c-1-.7-2-1.49-2.94-2.32-3.91-3.33-7.8-7.14-11.57-10.9L261.58,113a86.64,86.64,0,0,0,9.82,13.93,38.31,38.31,0,0,0,6.81,6.32,18.28,18.28,0,0,0,2.44,1.43,11.3,11.3,0,0,0,3.52,1.06,10.38,10.38,0,0,0,2.08,0l1.32-.12c.86-.14,1.73-.26,2.56-.46a28.24,28.24,0,0,0,4.74-1.52,39.62,39.62,0,0,0,4.3-2.06,54,54,0,0,0,7.55-5.11,71.46,71.46,0,0,0,6.56-5.93q1.53-1.56,3-3.2c.49-.55,1-1.1,1.44-1.67s.91-1.12,1.44-1.82Z"/><polygon class="cls-10" points="306.97 130.61 303.91 133.69 289.83 122.41 294.87 118.5 306.97 130.61"/><path class="cls-10" d="M323.47,110c.58,7.5-16.3,22.8-16.3,22.8l-14.92-12.94s6.29-6.66,13.34-13.35C310.45,101.87,322.84,101.87,323.47,110Z"/><path class="cls-11" d="M323.47,110c.58,7.5-16.3,22.8-16.3,22.8l-14.92-12.94s6.29-6.66,13.34-13.35C310.45,101.87,322.84,101.87,323.47,110Z"/><path class="cls-12" d="M302,128.29c.15-.7.34-1.4.55-2.09,1.94-6.16,6.37-11.74,13.31-12.37,3.13-.28,4.05,1.92,3.81,5.15a101.2,101.2,0,0,1-12.5,13.79l-1.26-1.09-2,2-2.41-1.93A23.44,23.44,0,0,1,302,128.29Z"/><path class="cls-9" d="M266.93,112.17l-2.24-6.6-8.84,2.26a41.9,41.9,0,0,0,6,5.73Z"/><polygon class="cls-9" points="261.19 102.73 253.87 105.27 255.85 107.83 264.69 105.57 261.19 102.73"/><polygon class="cls-12" points="283.49 332.39 282.03 341.73 289.62 343.82 291.07 334.48 283.49 332.39"/><polygon class="cls-12" points="350.79 334.58 342.92 334.58 343.93 343.96 351.8 343.96 350.79 334.58"/><path class="cls-10" d="M355.43,106.35a176.16,176.16,0,0,0-5,25.86c-.74,6.1-1.19,11.91-1.47,17.19-.65,12.36-.38,21.78-.75,25l-41.95-2.92c-5.72-44.73,5.19-67.78,5.19-67.78a83.65,83.65,0,0,1,10.05-1.24c.71,0,1.43-.07,2.16-.08a155,155,0,0,1,17.84,1.24c1.13.13,2.26.3,3.36.47C350.48,105,355.43,106.35,355.43,106.35Z"/><path class="cls-11" d="M355.43,106.35a176.16,176.16,0,0,0-5,25.86c-.74,6.1-1.19,11.91-1.47,17.19-.65,12.36-.38,21.78-.75,25l-41.95-2.92c-5.72-44.73,5.19-67.78,5.19-67.78a83.65,83.65,0,0,1,10.05-1.24c.71,0,1.43-.07,2.16-.08a155,155,0,0,1,17.84,1.24c1.13.13,2.26.3,3.36.47C350.48,105,355.43,106.35,355.43,106.35Z"/><path class="cls-6" d="M315.67,129.48l9.16.61a.58.58,0,0,0,.59-.47l.08-.43a.55.55,0,0,1,.85-.37l4.93,4.07a.51.51,0,0,1-.14.83L324.89,137a.46.46,0,0,1-.71-.47l.08-.43a.45.45,0,0,0-.41-.54l-9.16-.61a.45.45,0,0,1-.42-.53l.8-4.52A.58.58,0,0,1,315.67,129.48Z"/><path class="cls-6" d="M332,127.21l-9.16-.62a.58.58,0,0,0-.59.47l-.08.43a.56.56,0,0,1-.86.37l-4.93-4.07a.51.51,0,0,1,.15-.83l6.24-3.32a.46.46,0,0,1,.71.47l-.07.44a.44.44,0,0,0,.41.53l9.16.61a.46.46,0,0,1,.42.54l-.81,4.51A.57.57,0,0,1,332,127.21Z"/><path class="cls-10" d="M341.51,103.59a155.11,155.11,0,0,0-17.84-1.24c-.73,0-1.46,0-2.17.08l-.25,0c-1.27,2.63-2.92,10.45,2.93,11.26,7.94,1.1,16.92-5.75,20.69-9.64C343.77,103.89,342.63,103.72,341.51,103.59Z"/><path class="cls-12" d="M344.83,117.66a33.05,33.05,0,0,0,5.2,18.18c.11-1.19.25-2.4.4-3.62.56-4.58,1.28-9.32,2.24-14.11Z"/><path class="cls-9" d="M341.13,83.38c-1.52,5.66-3.38,16.1.37,20.21a17.91,17.91,0,0,1-14.13,4.51c-4.93-.45-4.94-3.92-3.71-5.76,6.51-1.08,6.68-5.84,5.87-10.37Z"/><path class="cls-12" d="M336.4,86.89,329.54,92a18.7,18.7,0,0,1,.33,3.21c2.47-.19,6-2.64,6.45-5.18A8.44,8.44,0,0,0,336.4,86.89Z"/><path class="cls-10" d="M312.27,53.48c-2.91,6.11,8.52,21,17.85,19.37A155.39,155.39,0,0,0,345.74,69c4.53-1.31,6.19-7.29,1.88-8C333,58.38,317.09,43.32,312.27,53.48Z"/><path class="cls-9" d="M342.42,74.79c-1,7.74-1.22,12.32-5.43,16-6.32,5.58-15.66,1.36-17-6.53-1.19-7.1.68-18.56,8.5-21.12A10.65,10.65,0,0,1,342.42,74.79Z"/><path class="cls-10" d="M327.36,84.69h0a5.75,5.75,0,0,0,4.88-2,.2.2,0,0,0,0-.28.19.19,0,0,0-.28,0,5.45,5.45,0,0,1-4.54,1.83.2.2,0,0,0-.21.19A.19.19,0,0,0,327.36,84.69Z"/><path class="cls-10" d="M337,78.3c-2.93-6.39-3.56-12.91,1.8-14.91s9.86.68,11.35,4.71S341.26,87.6,337,78.3Z"/><path class="cls-10" d="M343.07,66.12c-5.38,3.86-23.82,4.09-21.22-2.83C323.8,58.11,336.61,58.27,343.07,66.12Z"/><path class="cls-9" d="M345.33,83.6a7.42,7.42,0,0,1-4.84,3c-2.57.38-3.53-2-2.55-4.26.89-2,3.3-4.68,5.75-4A3.32,3.32,0,0,1,345.33,83.6Z"/><path class="cls-13" d="M279.68,339.19l12.83,3.53s16.08-50.67,20-78.5c1-7.38,2.66-17.76,5.13-28.82,3.11-13.94,7-29,10.22-40.8,3.38-12.43,5.95-21.23,5.95-21.23l-27.59-1.92s-14.92,65.09-16.51,89C288.1,285.39,279.68,339.19,279.68,339.19Z"/><path class="cls-14" d="M279.68,339.19l12.83,3.53s16.08-50.67,20-78.5c1-7.38,2.66-17.76,5.13-28.82,3.11-13.94,7-29,10.22-40.8,3.38-12.43,5.95-21.23,5.95-21.23l-27.59-1.92s-14.92,65.09-16.51,89C288.1,285.39,279.68,339.19,279.68,339.19Z"/><path class="cls-12" d="M317.67,235.4c3.11-13.94,7-29,10.22-40.8L325,188.43C318.19,196.56,316.35,221.73,317.67,235.4Z"/><path class="cls-13" d="M321.13,172.49s3,67.32,6.3,90.12c3.64,25,12.87,79.54,12.87,79.54h14.4s.24-51.74-4.27-75.93c-5.14-27.55-2.22-91.84-2.22-91.84Z"/><path class="cls-14" d="M321.13,172.49s3,67.32,6.3,90.12c3.64,25,12.87,79.54,12.87,79.54h14.4s.24-51.74-4.27-75.93c-5.14-27.55-2.22-91.84-2.22-91.84Z"/><polygon class="cls-15" points="338.57 342.46 355.53 342.46 355.53 337.39 336.58 337.06 338.57 342.46"/><polygon class="cls-15" points="278.79 339.27 293.28 343.26 295.37 338.27 278.85 333.69 278.79 339.27"/><path class="cls-10" d="M330.48,76.14c0,.64-.41,1.13-.83,1.1s-.71-.57-.67-1.2.42-1.12.83-1.09S330.53,75.51,330.48,76.14Z"/><path class="cls-10" d="M323.33,75.64c0,.64-.41,1.13-.83,1.1s-.71-.57-.67-1.2.42-1.12.83-1.09S323.37,75,323.33,75.64Z"/><path class="cls-16" d="M325.58,76.12a22.57,22.57,0,0,1-3.4,5.2c1.05,1.12,3.08.62,3.08.62Z"/><path class="cls-10" d="M332.86,74a.39.39,0,0,1-.35-.17,3,3,0,0,0-2.29-1.41.36.36,0,0,1-.37-.37.35.35,0,0,1,.37-.37,3.71,3.71,0,0,1,2.92,1.74.38.38,0,0,1-.11.52A.49.49,0,0,1,332.86,74Z"/><path class="cls-10" d="M320.44,73a.38.38,0,0,1-.37-.56,3.7,3.7,0,0,1,2.82-1.9.36.36,0,0,1,.39.35.38.38,0,0,1-.35.39h0a3,3,0,0,0-2.21,1.53A.36.36,0,0,1,320.44,73Z"/><path class="cls-15" d="M341.63,353.25a2.35,2.35,0,0,1-1.51-.41,1.13,1.13,0,0,1-.39-1,.61.61,0,0,1,.32-.53c.87-.45,3.41,1.12,3.69,1.29a.19.19,0,0,1,.09.19.17.17,0,0,1-.14.15A9.38,9.38,0,0,1,341.63,353.25Zm-1.17-1.63a.57.57,0,0,0-.24,0,.24.24,0,0,0-.12.22.76.76,0,0,0,.26.68c.43.36,1.45.41,2.79.14A7.56,7.56,0,0,0,340.46,351.62Z"/><path class="cls-15" d="M343.64,353l-.08,0c-.82-.45-2.39-2.17-2.22-3.05,0-.16.14-.43.59-.48a1,1,0,0,1,.79.24c.91.74,1.1,3,1.11,3.11a.19.19,0,0,1-.08.17A.2.2,0,0,1,343.64,353Zm-1.58-3.19H342c-.24,0-.26.14-.27.18-.1.52.9,1.82,1.71,2.44a4.51,4.51,0,0,0-.92-2.47A.68.68,0,0,0,342.06,349.78Z"/><path class="cls-15" d="M279.94,350.48h0c-1.29-.1-3.54-.4-4.17-1.36a1.07,1.07,0,0,1-.1-1,.6.6,0,0,1,.43-.39c1.06-.25,3.69,2.12,4,2.39a.19.19,0,0,1,0,.21A.2.2,0,0,1,279.94,350.48Zm-3.74-2.37h-.05a.22.22,0,0,0-.16.16.66.66,0,0,0,.05.63c.35.55,1.58,1,3.33,1.15C278.32,349.14,276.82,348,276.2,348.11Z"/><path class="cls-15" d="M279.94,350.48a.19.19,0,0,1-.14-.05c-.8-.66-2.17-2.8-1.79-3.62.09-.19.3-.4.81-.31a1.37,1.37,0,0,1,.91.58c.74,1.06.38,3.15.37,3.24a.2.2,0,0,1-.12.15Zm-1.4-3.63c-.15,0-.18.09-.19.12-.23.49.65,2.12,1.43,2.94a4.37,4.37,0,0,0-.36-2.62,1,1,0,0,0-.67-.43Z"/><path class="cls-10" d="M355.57,171.83h0a3.4,3.4,0,0,1,2.81-3.27l23.4-2.64a3.54,3.54,0,0,1,3.64,3.39l6.86,60.79a3.55,3.55,0,0,1-2.79,4.12l-74.27,8.38a3.54,3.54,0,0,1-3.63-3.4l-5.77-51a3.54,3.54,0,0,1,2.79-4.12L349,179.47C352.52,179.07,355.24,175.9,355.57,171.83Z"/><path class="cls-15" d="M345.7,185.15h0a2.58,2.58,0,0,1,2.35-2.89l23.4-2.64a4.16,4.16,0,0,1,4.22,2.91l14.8,48.19a2.67,2.67,0,0,1-2.21,3.64L314,242.74a4.17,4.17,0,0,1-4.22-2.91l-12.2-39.73a2.66,2.66,0,0,1,2.21-3.63l40.41-4.56A6.06,6.06,0,0,0,345.7,185.15Z"/><path class="cls-9" d="M347,117.87l2.21,3.16c.75,1.08,1.48,2.17,2.2,3.28,1.44,2.19,2.83,4.42,4.19,6.66s2.59,4.52,3.77,6.79,2.2,4.59,3.05,6.88l.08.2,0,.09a1.22,1.22,0,0,0,.07.17c0,.18.09.33.13.55.07.42.12.92.17,1.46a27.62,27.62,0,0,1,0,3.52c-.14,2.48-.42,5.1-.81,7.71-.75,5.24-1.74,10.62-2.75,15.91l5.6,1.86a115.65,115.65,0,0,0,5.93-15.86,72.09,72.09,0,0,0,2-8.52,37.5,37.5,0,0,0,.49-4.69,21.79,21.79,0,0,0-.06-2.65c0-.47-.12-1-.19-1.48l-.19-.83-.1-.41-.08-.29a79.79,79.79,0,0,0-6.83-16.25q-2.07-3.78-4.4-7.38c-.78-1.2-1.57-2.39-2.39-3.56s-1.64-2.3-2.59-3.54Z"/><polygon class="cls-10" points="367.7 124.94 370.23 128.46 356.79 140.49 353.76 134.88 367.7 124.94"/><path class="cls-10" d="M355.43,106.35c7.37,1.48,13.83,19.51,13.83,19.51l-15.38,12.53s-5-9.16-9.07-18C340.42,110.76,346.5,104.55,355.43,106.35Z"/><path class="cls-11" d="M355.43,106.35c7.37,1.48,13.83,19.51,13.83,19.51l-15.38,12.53s-5-9.16-9.07-18C340.42,110.76,346.5,104.55,355.43,106.35Z"/><path class="cls-9" d="M360.11,172.71l-5.31,6,9.61,2.94s3.39-6.08.37-8.24Z"/><polygon class="cls-9" points="354.35 185.22 362.4 187.28 364.41 181.61 354.8 178.67 354.35 185.22"/></g><g id="Folder"><path class="cls-10" d="M174.21,78.28h0a3.39,3.39,0,0,1,3.47-2.56l23.4,2.69a3.54,3.54,0,0,1,2.78,4.12l-7,60.77a3.53,3.53,0,0,1-3.64,3.39L119,138.17a3.55,3.55,0,0,1-2.78-4.13l5.86-51a3.54,3.54,0,0,1,3.64-3.39l40.4,4.64C169.61,84.65,173,82.17,174.21,78.28Z"/><path class="cls-15" d="M165,59.73a366.29,366.29,0,0,1-10.35,59.56q26.79,7,53.34,15.42a422.8,422.8,0,0,0,13.46-85.58Q201.25,46.86,181,45.36,173.16,52.82,165,59.73Z"/><path class="cls-17" d="M165,59.73a366.29,366.29,0,0,1-10.35,59.56q26.79,7,53.34,15.42a422.8,422.8,0,0,0,13.46-85.58Q201.25,46.86,181,45.36,173.16,52.82,165,59.73Z"/><path class="cls-15" d="M169.55,69.67q22,2.83,44,6.6a1.2,1.2,0,0,0,1.31-1.14h0a1.35,1.35,0,0,0-1-1.52q-22-3.61-44.07-6.34a1.18,1.18,0,0,0-1.29,1.06h0A1.22,1.22,0,0,0,169.55,69.67Z"/><path class="cls-15" d="M168.61,77.1q22,3.27,43.9,7.43a1.18,1.18,0,0,0,1.33-1.1h0a1.35,1.35,0,0,0-1-1.54q-21.93-4-43.94-7.17a1.18,1.18,0,0,0-1.31,1h0A1.2,1.2,0,0,0,168.61,77.1Z"/><path class="cls-15" d="M167.53,84.49q21.91,3.69,43.75,8.26a1.17,1.17,0,0,0,1.34-1.07h0a1.31,1.31,0,0,0-.93-1.55q-21.85-4.45-43.8-8a1.17,1.17,0,0,0-1.32,1h0A1.19,1.19,0,0,0,167.53,84.49Z"/><path class="cls-15" d="M166.3,91.84q21.84,4.09,43.58,9.08a1.18,1.18,0,0,0,1.37-1h0a1.34,1.34,0,0,0-.9-1.57q-21.76-4.86-43.64-8.82a1.16,1.16,0,0,0-1.34,1h0A1.2,1.2,0,0,0,166.3,91.84Z"/><path class="cls-15" d="M182.22,102.86q13.08,2.92,26.11,6.18a1.18,1.18,0,0,0,1.39-1h0a1.32,1.32,0,0,0-.88-1.58q-13.05-3.18-26.15-6a1.18,1.18,0,0,0-1.37,1h0A1.24,1.24,0,0,0,182.22,102.86Z"/><path class="cls-15" d="M165,59.73q7.44.74,14.87,1.59c.48-5.29.85-10.62,1.12-16Q173.16,52.82,165,59.73Z"/><path class="cls-15" d="M161.59,89h0a2.6,2.6,0,0,1,2.94-2.29l23.4,2.69a4.17,4.17,0,0,1,3.46,3.78L195,143.51a2.66,2.66,0,0,1-3,3L117.77,138a4.17,4.17,0,0,1-3.46-3.79l-3-41.44a2.66,2.66,0,0,1,3-3l40.4,4.64A6,6,0,0,0,161.59,89Z"/><path class="cls-15" d="M219.41,129q4,29.55,6.67,59.42,27.58-2.49,55.17-5.26-3.45-38.9-9.15-77.3-20,3.17-40,6.17Q225.81,120.57,219.41,129Z"/><path class="cls-17" d="M219.41,129q4,29.55,6.67,59.42,27.58-2.49,55.17-5.26-3.45-38.9-9.15-77.3-20,3.17-40,6.17Q225.81,120.57,219.41,129Z"/><path class="cls-13" d="M226.06,137.24q22-2.87,44-5.91a1.21,1.21,0,0,0,1-1.36h0a1.18,1.18,0,0,0-1.31-1q-22,3.09-44,6a1.17,1.17,0,0,0-1,1.3h0A1.17,1.17,0,0,0,226.06,137.24Z"/><path class="cls-13" d="M227,144.44q22-2.73,44-5.66a1.2,1.2,0,0,0,1-1.35h0a1.17,1.17,0,0,0-1.29-1q-22,3-44,5.74a1.18,1.18,0,0,0-1,1.3h0A1.16,1.16,0,0,0,227,144.44Z"/><path class="cls-13" d="M227.83,151.66q22-2.61,44.08-5.42a1.21,1.21,0,0,0,1-1.35h0a1.17,1.17,0,0,0-1.29-1q-22,2.84-44.07,5.5a1.16,1.16,0,0,0-1,1.29h0A1.15,1.15,0,0,0,227.83,151.66Z"/><path class="cls-13" d="M228.66,158.89q22.05-2.5,44.11-5.18a1.2,1.2,0,0,0,1-1.34h0a1.17,1.17,0,0,0-1.28-1.06q-22,2.73-44.1,5.26a1.17,1.17,0,0,0-1,1.29h0A1.16,1.16,0,0,0,228.66,158.89Z"/><path class="cls-13" d="M247,164.21q13.31-1.49,26.59-3a1.21,1.21,0,0,0,1-1.34h0a1.16,1.16,0,0,0-1.27-1.06q-13.29,1.56-26.59,3.07a1.17,1.17,0,0,0-1,1.3h0A1.16,1.16,0,0,0,247,164.21Z"/><path class="cls-13" d="M219.41,129q7.4-1,14.79-2-1-7.47-2.12-14.94Q225.81,120.57,219.41,129Z"/></g></g></svg>