<svg xmlns="http://www.w3.org/2000/svg" viewBox="0 0 642.09 402.67"><defs><style>.cls-1{fill:#f5f5f5;}.cls-2{fill:#e0e0e0;}.cls-3{fill:#fff;}.cls-4{fill:#ebebeb;}.cls-5{fill:#fafafa;}.cls-6{fill:#ffbe9d;}.cls-7{fill:#263238;}.cls-8{fill:#455a64;}.cls-9{fill:#2f57a4;}.cls-10{opacity:0.3;}.cls-11{fill:#eb996e;}.cls-12{fill:#e8505b;}.cls-13{fill:#b78876;}.cls-14{fill:#aa6550;}.cls-15{opacity:0.5;}.cls-16{opacity:0.2;}</style></defs><g id="Background_Complete" data-name="Background Complete"><path class="cls-1" d="M284.56,389c12.8-8.94,15.71-25.54,15.2-40.46-.09-2.49.19-5.11-1-7.3s-3.95-3.68-6.17-2.63c-1.85.87-2.66,3-3.69,4.8a14.54,14.54,0,0,1-5.85,5.58c-1.58.82-3.54,1.33-5.11.46-2.15-1.18-2.4-4.15-2.38-6.63q0-6.92.08-13.84a22.7,22.7,0,0,0-.75-7.36,7.68,7.68,0,0,0-4.82-5.19c-2.36-.66-5.27.69-5.77,3.12a22.56,22.56,0,0,0-.07,3.08,2.59,2.59,0,0,1-1.53,2.45c-1,.29-2-.41-2.72-1.13a33,33,0,0,1-5.91-8.93,45.76,45.76,0,0,0-5.51-9.21c-2.32-2.73-5.53-4.89-9.08-5.09s-7.32,2-8.22,5.47,1.14,7,3.35,9.86a55,55,0,0,0,11.52,11,4.61,4.61,0,0,1,1.92,2.07c.54,1.66-1,3.3-2.66,3.84-1.84.61-3.85.42-5.78.65s-4,1.08-4.75,2.9c-1,2.53,1.1,5.19,3.19,6.93a47.3,47.3,0,0,0,14,8.09,15.87,15.87,0,0,1,5.21,2.53c1.47,1.28,2.36,3.51,1.47,5.25s-3.17,2.3-5.08,1.95-3.61-1.39-5.43-2.08c-3.4-1.28-7.8-1.05-10,1.9a7.82,7.82,0,0,0-.83,6.93,18,18,0,0,0,3.75,6.12,47.66,47.66,0,0,0,20.34,14.29c7.89,2.74,15.21,3.48,23.05.61"/><path class="cls-2" d="M284.76,400.1a108.69,108.69,0,0,0-4.05-20.41,218.92,218.92,0,0,0-8.81-23.9c-.89-2.07-1.76-4.12-2.63-6.14s-1.73-4-2.69-5.92a112.09,112.09,0,0,0-6.16-10.61c-2.12-3.28-4.25-6.32-6.27-9.14s-4-5.42-5.82-7.71a87.73,87.73,0,0,0-9.59-10.14c-1.22-1.1-2.2-1.93-2.87-2.48l-.76-.62-.27-.2s.07.09.24.24l.73.65c.65.58,1.61,1.42,2.81,2.55a91.45,91.45,0,0,1,9.46,10.21c1.84,2.29,3.76,4.89,5.76,7.72s4.12,5.87,6.23,9.15a110.66,110.66,0,0,1,6.11,10.59c1,1.89,1.81,3.87,2.68,5.89l2.62,6.14a227.36,227.36,0,0,1,8.83,23.84,110.12,110.12,0,0,1,4.13,20.32"/><path class="cls-2" d="M266.45,343.71a4.51,4.51,0,0,0,.24-1c.13-.69.29-1.68.46-2.92.35-2.46.72-5.88,1.11-9.66s.81-7.18,1.19-9.64c.19-1.22.36-2.22.48-2.9a5,5,0,0,0,.14-1.07,4.8,4.8,0,0,0-.31,1c-.18.68-.39,1.66-.62,2.89-.47,2.45-.94,5.86-1.33,9.64s-.72,7.1-1,9.67c-.12,1.17-.23,2.15-.31,2.93A4.62,4.62,0,0,0,266.45,343.71Z"/><path class="cls-2" d="M234.61,337.76a6.34,6.34,0,0,0,1.27.15c.81.08,2,.18,3.45.35,2.92.31,6.93.89,11.33,1.72s8.35,1.76,11.19,2.51c1.42.37,2.57.7,3.36.92a7,7,0,0,0,1.24.3,7.26,7.26,0,0,0-1.19-.47c-.78-.28-1.91-.65-3.32-1.06-2.83-.84-6.78-1.82-11.19-2.66a112.07,112.07,0,0,0-11.39-1.59c-1.46-.13-2.65-.18-3.47-.19A6.65,6.65,0,0,0,234.61,337.76Z"/><path class="cls-2" d="M280.32,379.1s.09-.13.22-.39.33-.69.54-1.15c.47-1,1.11-2.47,1.88-4.3,1.54-3.64,3.5-8.75,5.59-14.41s4-10.79,5.46-14.46c.72-1.79,1.31-3.26,1.74-4.35l.47-1.18c.1-.28.15-.42.13-.43a1.6,1.6,0,0,0-.21.39l-.55,1.15c-.47,1-1.11,2.47-1.87,4.3-1.54,3.64-3.5,8.75-5.6,14.41s-4,10.78-5.46,14.46c-.71,1.79-1.3,3.26-1.74,4.35-.18.47-.34.86-.46,1.18A1.71,1.71,0,0,0,280.32,379.1Z"/><path class="cls-2" d="M238,365.46s.14.08.42.17l1.23.42,4.53,1.47c3.82,1.24,9.09,3,14.9,5s11.1,3.7,15,4.86c1.92.58,3.49,1,4.57,1.33l1.26.33a1.33,1.33,0,0,0,.44.08s-.14-.07-.42-.17l-1.23-.42-4.53-1.46c-3.82-1.24-9.09-3-14.91-5s-11.1-3.69-15-4.86c-1.92-.58-3.49-1-4.57-1.32l-1.26-.33A2.49,2.49,0,0,0,238,365.46Z"/><rect class="cls-2" x="399.01" y="160.8" width="84.44" height="69.52"/><rect class="cls-1" x="386.68" y="207.6" width="92.31" height="22.9"/><path class="cls-2" d="M415.92,213.77a1,1,0,1,1-1-1A1,1,0,0,1,415.92,213.77Z"/><path class="cls-2" d="M420.52,213.77a1,1,0,1,1-1-1A1,1,0,0,1,420.52,213.77Z"/><path class="cls-2" d="M425.12,213.77a1,1,0,1,1-1-1A1,1,0,0,1,425.12,213.77Z"/><path class="cls-2" d="M429.72,213.77a1,1,0,1,1-1-1A1,1,0,0,1,429.72,213.77Z"/><path class="cls-2" d="M465.38,213.77a1,1,0,1,1-1.05-1A1,1,0,0,1,465.38,213.77Z"/><path class="cls-2" d="M470.07,213.77a1,1,0,1,1-1-1A1,1,0,0,1,470.07,213.77Z"/><path class="cls-2" d="M434.32,213.77a1,1,0,1,1-1-1A1,1,0,0,1,434.32,213.77Z"/><path class="cls-2" d="M456.92,213.77a1,1,0,1,1-1-1A1,1,0,0,1,456.92,213.77Z"/><path class="cls-2" d="M438.92,213.77a1,1,0,1,1-1-1A1,1,0,0,1,438.92,213.77Z"/><path class="cls-2" d="M443.52,213.77a1,1,0,1,1-1-1A1,1,0,0,1,443.52,213.77Z"/><path class="cls-2" d="M452.86,213.77a1,1,0,1,1-1-1A1,1,0,0,1,452.86,213.77Z"/><path class="cls-2" d="M473.89,213.77a1,1,0,1,1-1.05-1A1,1,0,0,1,473.89,213.77Z"/><path class="cls-2" d="M448.13,213.77a1,1,0,1,1-1.05-1A1,1,0,0,1,448.13,213.77Z"/><path class="cls-2" d="M461.3,213.77a1,1,0,1,1-1-1A1,1,0,0,1,461.3,213.77Z"/><path class="cls-2" d="M471.8,218.8a1,1,0,1,1,1,1A1,1,0,0,1,471.8,218.8Z"/><path class="cls-2" d="M467.2,218.8a1,1,0,1,1,1,1A1,1,0,0,1,467.2,218.8Z"/><path class="cls-2" d="M462.6,218.8a1,1,0,1,1,1,1A1,1,0,0,1,462.6,218.8Z"/><path class="cls-2" d="M458,218.8a1,1,0,1,1,1,1A1,1,0,0,1,458,218.8Z"/><path class="cls-2" d="M422.34,218.8a1,1,0,1,1,1,1A1,1,0,0,1,422.34,218.8Z"/><path class="cls-2" d="M417.65,218.8a1,1,0,1,1,1,1A1,1,0,0,1,417.65,218.8Z"/><path class="cls-2" d="M453.4,218.8a1,1,0,1,1,1,1A1,1,0,0,1,453.4,218.8Z"/><path class="cls-2" d="M430.8,218.8a1,1,0,1,1,1,1A1,1,0,0,1,430.8,218.8Z"/><path class="cls-2" d="M448.79,218.8a1,1,0,1,1,1,1A1,1,0,0,1,448.79,218.8Z"/><path class="cls-2" d="M444.19,218.8a1,1,0,1,1,1.05,1A1,1,0,0,1,444.19,218.8Z"/><path class="cls-2" d="M434.86,218.8a1,1,0,1,1,1,1A1,1,0,0,1,434.86,218.8Z"/><path class="cls-2" d="M413.83,218.8a1,1,0,1,1,1.05,1A1,1,0,0,1,413.83,218.8Z"/><path class="cls-2" d="M439.59,218.8a1,1,0,1,1,1.05,1A1,1,0,0,1,439.59,218.8Z"/><path class="cls-2" d="M426.42,218.8a1,1,0,1,1,1,1A1,1,0,0,1,426.42,218.8Z"/><path class="cls-2" d="M415.92,223.27a1,1,0,1,1-1-1A1,1,0,0,1,415.92,223.27Z"/><path class="cls-2" d="M420.52,223.27a1,1,0,1,1-1-1A1,1,0,0,1,420.52,223.27Z"/><path class="cls-2" d="M425.12,223.27a1,1,0,1,1-1-1A1,1,0,0,1,425.12,223.27Z"/><path class="cls-2" d="M429.72,223.27a1,1,0,1,1-1-1A1,1,0,0,1,429.72,223.27Z"/><circle class="cls-2" cx="464.33" cy="223.27" r="1.04"/><circle class="cls-2" cx="469.03" cy="223.27" r="1.04"/><path class="cls-2" d="M434.32,223.27a1,1,0,1,1-1-1A1,1,0,0,1,434.32,223.27Z"/><circle class="cls-2" cx="455.88" cy="223.27" r="1.04"/><path class="cls-2" d="M438.92,223.27a1,1,0,1,1-1-1A1,1,0,0,1,438.92,223.27Z"/><path class="cls-2" d="M443.52,223.27a1,1,0,1,1-1-1A1,1,0,0,1,443.52,223.27Z"/><circle class="cls-2" cx="451.82" cy="223.27" r="1.04"/><path class="cls-2" d="M473.89,223.27a1,1,0,1,1-1.05-1A1,1,0,0,1,473.89,223.27Z"/><path class="cls-2" d="M448.13,223.27a1,1,0,1,1-1.05-1A1,1,0,0,1,448.13,223.27Z"/><circle class="cls-2" cx="460.26" cy="223.27" r="1.04"/><rect class="cls-2" x="390.78" y="212.31" width="18.18" height="2.8"/><rect class="cls-2" x="390.78" y="217.12" width="18.18" height="2.8"/><rect class="cls-2" x="390.78" y="222.1" width="18.18" height="2.8"/><polygon class="cls-2" points="492.87 230.28 479 230.32 479 207.63 492.87 207.59 492.87 230.28"/><rect class="cls-1" x="386.68" y="180.24" width="92.31" height="22.9"/><path class="cls-2" d="M415.92,186.41a1,1,0,1,1-1-1A1,1,0,0,1,415.92,186.41Z"/><path class="cls-2" d="M420.52,186.41a1,1,0,1,1-1-1A1,1,0,0,1,420.52,186.41Z"/><path class="cls-2" d="M425.12,186.41a1,1,0,1,1-1-1A1,1,0,0,1,425.12,186.41Z"/><path class="cls-2" d="M429.72,186.41a1,1,0,1,1-1-1A1,1,0,0,1,429.72,186.41Z"/><path class="cls-2" d="M465.38,186.41a1,1,0,1,1-1.05-1A1,1,0,0,1,465.38,186.41Z"/><path class="cls-2" d="M470.07,186.41a1,1,0,1,1-1-1A1,1,0,0,1,470.07,186.41Z"/><path class="cls-2" d="M434.32,186.41a1,1,0,1,1-1-1A1,1,0,0,1,434.32,186.41Z"/><path class="cls-2" d="M456.92,186.41a1,1,0,1,1-1-1A1,1,0,0,1,456.92,186.41Z"/><path class="cls-2" d="M438.92,186.41a1,1,0,1,1-1-1A1,1,0,0,1,438.92,186.41Z"/><path class="cls-2" d="M443.52,186.41a1,1,0,1,1-1-1A1,1,0,0,1,443.52,186.41Z"/><path class="cls-2" d="M452.86,186.41a1,1,0,1,1-1-1A1,1,0,0,1,452.86,186.41Z"/><path class="cls-2" d="M473.89,186.41a1,1,0,1,1-1.05-1A1,1,0,0,1,473.89,186.41Z"/><path class="cls-2" d="M448.13,186.41a1,1,0,1,1-1.05-1A1,1,0,0,1,448.13,186.41Z"/><path class="cls-2" d="M461.3,186.41a1,1,0,1,1-1-1A1,1,0,0,1,461.3,186.41Z"/><path class="cls-2" d="M471.8,191.44a1,1,0,1,1,1,1A1,1,0,0,1,471.8,191.44Z"/><path class="cls-2" d="M467.2,191.44a1,1,0,1,1,1,1A1,1,0,0,1,467.2,191.44Z"/><path class="cls-2" d="M462.6,191.44a1,1,0,1,1,1,1A1,1,0,0,1,462.6,191.44Z"/><path class="cls-2" d="M458,191.44a1,1,0,1,1,1,1A1,1,0,0,1,458,191.44Z"/><path class="cls-2" d="M422.34,191.44a1,1,0,1,1,1,1A1,1,0,0,1,422.34,191.44Z"/><path class="cls-2" d="M417.65,191.44a1,1,0,1,1,1,1A1,1,0,0,1,417.65,191.44Z"/><path class="cls-2" d="M453.4,191.44a1,1,0,1,1,1,1A1,1,0,0,1,453.4,191.44Z"/><path class="cls-2" d="M430.8,191.44a1,1,0,1,1,1,1A1,1,0,0,1,430.8,191.44Z"/><path class="cls-2" d="M448.79,191.44a1,1,0,1,1,1,1A1,1,0,0,1,448.79,191.44Z"/><path class="cls-2" d="M444.19,191.44a1,1,0,1,1,1.05,1A1,1,0,0,1,444.19,191.44Z"/><path class="cls-2" d="M434.86,191.44a1,1,0,1,1,1,1A1,1,0,0,1,434.86,191.44Z"/><path class="cls-2" d="M413.83,191.44a1,1,0,1,1,1.05,1A1,1,0,0,1,413.83,191.44Z"/><path class="cls-2" d="M439.59,191.44a1,1,0,1,1,1.05,1A1,1,0,0,1,439.59,191.44Z"/><path class="cls-2" d="M426.42,191.44a1,1,0,1,1,1,1A1,1,0,0,1,426.42,191.44Z"/><path class="cls-2" d="M415.92,195.91a1,1,0,1,1-1-1A1,1,0,0,1,415.92,195.91Z"/><path class="cls-2" d="M420.52,195.91a1,1,0,1,1-1-1A1,1,0,0,1,420.52,195.91Z"/><path class="cls-2" d="M425.12,195.91a1,1,0,1,1-1-1A1,1,0,0,1,425.12,195.91Z"/><path class="cls-2" d="M429.72,195.91a1,1,0,1,1-1-1A1,1,0,0,1,429.72,195.91Z"/><path class="cls-2" d="M465.38,195.91a1,1,0,1,1-1.05-1A1,1,0,0,1,465.38,195.91Z"/><path class="cls-2" d="M470.07,195.91a1,1,0,1,1-1-1A1,1,0,0,1,470.07,195.91Z"/><path class="cls-2" d="M434.32,195.91a1,1,0,1,1-1-1A1,1,0,0,1,434.32,195.91Z"/><path class="cls-2" d="M456.92,195.91a1,1,0,1,1-1-1A1,1,0,0,1,456.92,195.91Z"/><path class="cls-2" d="M438.92,195.91a1,1,0,1,1-1-1A1,1,0,0,1,438.92,195.91Z"/><path class="cls-2" d="M443.52,195.91a1,1,0,1,1-1-1A1,1,0,0,1,443.52,195.91Z"/><path class="cls-2" d="M452.86,195.91a1,1,0,1,1-1-1A1,1,0,0,1,452.86,195.91Z"/><path class="cls-2" d="M473.89,195.91a1,1,0,1,1-1.05-1A1,1,0,0,1,473.89,195.91Z"/><path class="cls-2" d="M448.13,195.91a1,1,0,1,1-1.05-1A1,1,0,0,1,448.13,195.91Z"/><path class="cls-2" d="M461.3,195.91a1,1,0,1,1-1-1A1,1,0,0,1,461.3,195.91Z"/><rect class="cls-2" x="390.78" y="184.95" width="18.18" height="2.8"/><rect class="cls-2" x="390.78" y="189.76" width="18.18" height="2.8"/><rect class="cls-2" x="390.78" y="194.74" width="18.18" height="2.8"/><polygon class="cls-2" points="492.87 202.92 479 202.96 479 180.27 492.87 180.24 492.87 202.92"/><rect class="cls-1" x="386.68" y="153.77" width="92.31" height="22.9"/><path class="cls-2" d="M415.92,160a1,1,0,1,1-1-1A1,1,0,0,1,415.92,160Z"/><path class="cls-2" d="M420.52,160a1,1,0,1,1-1-1A1,1,0,0,1,420.52,160Z"/><path class="cls-2" d="M425.12,160a1,1,0,1,1-1-1A1,1,0,0,1,425.12,160Z"/><path class="cls-2" d="M429.72,160a1,1,0,1,1-1-1A1,1,0,0,1,429.72,160Z"/><path class="cls-2" d="M465.38,160a1,1,0,1,1-1.05-1A1,1,0,0,1,465.38,160Z"/><path class="cls-2" d="M470.07,160a1,1,0,1,1-1-1A1,1,0,0,1,470.07,160Z"/><path class="cls-2" d="M434.32,160a1,1,0,1,1-1-1A1,1,0,0,1,434.32,160Z"/><path class="cls-2" d="M456.92,160a1,1,0,1,1-1-1A1,1,0,0,1,456.92,160Z"/><path class="cls-2" d="M438.92,160a1,1,0,1,1-1-1A1,1,0,0,1,438.92,160Z"/><path class="cls-2" d="M443.52,160a1,1,0,1,1-1-1A1,1,0,0,1,443.52,160Z"/><path class="cls-2" d="M452.86,160a1,1,0,1,1-1-1A1,1,0,0,1,452.86,160Z"/><path class="cls-2" d="M473.89,160a1,1,0,1,1-1.05-1A1,1,0,0,1,473.89,160Z"/><path class="cls-2" d="M448.13,160a1,1,0,1,1-1.05-1A1,1,0,0,1,448.13,160Z"/><path class="cls-2" d="M461.3,160a1,1,0,1,1-1-1A1,1,0,0,1,461.3,160Z"/><path class="cls-2" d="M471.8,165a1,1,0,1,1,1,1A1,1,0,0,1,471.8,165Z"/><path class="cls-2" d="M467.2,165a1,1,0,1,1,1,1A1,1,0,0,1,467.2,165Z"/><path class="cls-2" d="M462.6,165a1,1,0,1,1,1,1A1,1,0,0,1,462.6,165Z"/><path class="cls-2" d="M458,165a1,1,0,1,1,1,1A1,1,0,0,1,458,165Z"/><path class="cls-2" d="M422.34,165a1,1,0,1,1,1,1A1,1,0,0,1,422.34,165Z"/><path class="cls-2" d="M417.65,165a1,1,0,1,1,1,1A1,1,0,0,1,417.65,165Z"/><path class="cls-2" d="M453.4,165a1,1,0,1,1,1,1A1,1,0,0,1,453.4,165Z"/><path class="cls-2" d="M430.8,165a1,1,0,1,1,1,1A1,1,0,0,1,430.8,165Z"/><path class="cls-2" d="M448.79,165a1,1,0,1,1,1,1A1,1,0,0,1,448.79,165Z"/><path class="cls-2" d="M444.19,165a1,1,0,1,1,1.05,1A1,1,0,0,1,444.19,165Z"/><path class="cls-2" d="M434.86,165a1,1,0,1,1,1,1A1,1,0,0,1,434.86,165Z"/><path class="cls-2" d="M413.83,165a1,1,0,1,1,1.05,1A1,1,0,0,1,413.83,165Z"/><path class="cls-2" d="M439.59,165a1,1,0,1,1,1.05,1A1,1,0,0,1,439.59,165Z"/><path class="cls-2" d="M426.42,165a1,1,0,1,1,1,1A1,1,0,0,1,426.42,165Z"/><path class="cls-2" d="M415.92,169.44a1,1,0,1,1-1-1A1,1,0,0,1,415.92,169.44Z"/><path class="cls-2" d="M420.52,169.44a1,1,0,1,1-1-1A1,1,0,0,1,420.52,169.44Z"/><path class="cls-2" d="M425.12,169.44a1,1,0,1,1-1-1A1,1,0,0,1,425.12,169.44Z"/><path class="cls-2" d="M429.72,169.44a1,1,0,1,1-1-1A1,1,0,0,1,429.72,169.44Z"/><circle class="cls-2" cx="464.33" cy="169.44" r="1.04"/><circle class="cls-2" cx="469.03" cy="169.44" r="1.04"/><path class="cls-2" d="M434.32,169.44a1,1,0,1,1-1-1A1,1,0,0,1,434.32,169.44Z"/><circle class="cls-2" cx="455.88" cy="169.44" r="1.04"/><path class="cls-2" d="M438.92,169.44a1,1,0,1,1-1-1A1,1,0,0,1,438.92,169.44Z"/><path class="cls-2" d="M443.52,169.44a1,1,0,1,1-1-1A1,1,0,0,1,443.52,169.44Z"/><circle class="cls-2" cx="451.82" cy="169.44" r="1.04"/><path class="cls-2" d="M473.89,169.44a1,1,0,1,1-1.05-1A1,1,0,0,1,473.89,169.44Z"/><path class="cls-2" d="M448.13,169.44a1,1,0,1,1-1.05-1A1,1,0,0,1,448.13,169.44Z"/><circle class="cls-2" cx="460.26" cy="169.44" r="1.04"/><rect class="cls-2" x="390.78" y="158.49" width="18.18" height="2.8"/><rect class="cls-2" x="390.78" y="163.3" width="18.18" height="2.8"/><rect class="cls-2" x="390.78" y="168.27" width="18.18" height="2.8"/><polygon class="cls-2" points="492.87 176.46 479 176.49 479 153.81 492.87 153.77 492.87 176.46"/><rect class="cls-2" x="146.96" y="159.82" width="81.01" height="66.69"/><rect class="cls-1" x="135.13" y="204.71" width="88.56" height="21.97"/><path class="cls-2" d="M163.18,210.64a1,1,0,1,1-1-1A1,1,0,0,1,163.18,210.64Z"/><path class="cls-2" d="M167.59,210.64a1,1,0,1,1-1-1A1,1,0,0,1,167.59,210.64Z"/><path class="cls-2" d="M172,210.64a1,1,0,1,1-1-1A1,1,0,0,1,172,210.64Z"/><path class="cls-2" d="M176.42,210.64a1,1,0,1,1-1-1A1,1,0,0,1,176.42,210.64Z"/><path class="cls-2" d="M210.63,210.64a1,1,0,1,1-1-1A1,1,0,0,1,210.63,210.64Z"/><path class="cls-2" d="M215.13,210.64a1,1,0,1,1-1-1A1,1,0,0,1,215.13,210.64Z"/><path class="cls-2" d="M180.83,210.64a1,1,0,0,1-2,0,1,1,0,0,1,2,0Z"/><path class="cls-2" d="M202.51,210.64a1,1,0,1,1-1-1A1,1,0,0,1,202.51,210.64Z"/><path class="cls-2" d="M185.25,210.64a1,1,0,1,1-1-1A1,1,0,0,1,185.25,210.64Z"/><path class="cls-2" d="M189.66,210.64a1,1,0,1,1-1-1A1,1,0,0,1,189.66,210.64Z"/><path class="cls-2" d="M198.62,210.64a1,1,0,1,1-1-1A1,1,0,0,1,198.62,210.64Z"/><path class="cls-2" d="M218.79,210.64a1,1,0,1,1-1-1A1,1,0,0,1,218.79,210.64Z"/><path class="cls-2" d="M194.08,210.64a1,1,0,1,1-1-1A1,1,0,0,1,194.08,210.64Z"/><path class="cls-2" d="M206.71,210.64a1,1,0,0,1-2,0,1,1,0,0,1,2,0Z"/><path class="cls-2" d="M216.79,215.46a1,1,0,1,1,1,1A1,1,0,0,1,216.79,215.46Z"/><path class="cls-2" d="M212.37,215.46a1,1,0,0,1,2,0,1,1,0,1,1-2,0Z"/><path class="cls-2" d="M208,215.46a1,1,0,1,1,1,1A1,1,0,0,1,208,215.46Z"/><path class="cls-2" d="M203.55,215.46a1,1,0,1,1,1,1A1,1,0,0,1,203.55,215.46Z"/><circle class="cls-2" cx="170.34" cy="215.46" r="1"/><path class="cls-2" d="M164.84,215.46a1,1,0,1,1,1,1A1,1,0,0,1,164.84,215.46Z"/><path class="cls-2" d="M199.13,215.46a1,1,0,1,1,1,1A1,1,0,0,1,199.13,215.46Z"/><circle class="cls-2" cx="178.45" cy="215.46" r="1"/><path class="cls-2" d="M194.72,215.46a1,1,0,1,1,1,1A1,1,0,0,1,194.72,215.46Z"/><path class="cls-2" d="M190.3,215.46a1,1,0,1,1,2,0,1,1,0,0,1-2,0Z"/><circle class="cls-2" cx="182.35" cy="215.46" r="1"/><circle class="cls-2" cx="162.18" cy="215.46" r="1"/><circle class="cls-2" cx="186.89" cy="215.46" r="1"/><circle class="cls-2" cx="174.25" cy="215.46" r="1"/><circle class="cls-2" cx="162.18" cy="219.75" r="1"/><path class="cls-2" d="M167.59,219.75a1,1,0,1,1-1-1A1,1,0,0,1,167.59,219.75Z"/><path class="cls-2" d="M172,219.75a1,1,0,1,1-1-1A1,1,0,0,1,172,219.75Z"/><path class="cls-2" d="M176.42,219.75a1,1,0,1,1-1-1A1,1,0,0,1,176.42,219.75Z"/><path class="cls-2" d="M210.63,219.75a1,1,0,1,1-1-1A1,1,0,0,1,210.63,219.75Z"/><path class="cls-2" d="M215.13,219.75a1,1,0,1,1-1-1A1,1,0,0,1,215.13,219.75Z"/><path class="cls-2" d="M180.83,219.75a1,1,0,1,1-1-1A1,1,0,0,1,180.83,219.75Z"/><path class="cls-2" d="M202.51,219.75a1,1,0,1,1-1-1A1,1,0,0,1,202.51,219.75Z"/><path class="cls-2" d="M185.25,219.75a1,1,0,1,1-1-1A1,1,0,0,1,185.25,219.75Z"/><path class="cls-2" d="M189.66,219.75a1,1,0,1,1-1-1A1,1,0,0,1,189.66,219.75Z"/><path class="cls-2" d="M198.62,219.75a1,1,0,1,1-1-1A1,1,0,0,1,198.62,219.75Z"/><path class="cls-2" d="M218.79,219.75a1,1,0,1,1-1-1A1,1,0,0,1,218.79,219.75Z"/><path class="cls-2" d="M194.08,219.75a1,1,0,1,1-1-1A1,1,0,0,1,194.08,219.75Z"/><path class="cls-2" d="M206.71,219.75a1,1,0,1,1-1-1A1,1,0,0,1,206.71,219.75Z"/><rect class="cls-2" x="139.06" y="209.24" width="17.44" height="2.68"/><rect class="cls-2" x="139.06" y="213.86" width="17.44" height="2.68"/><rect class="cls-2" x="139.06" y="218.63" width="17.44" height="2.68"/><polygon class="cls-2" points="237 226.48 223.69 226.51 223.69 204.75 237 204.72 237 226.48"/><rect class="cls-1" x="135.13" y="178.47" width="88.56" height="21.97"/><path class="cls-2" d="M163.18,184.4a1,1,0,1,1-1-1A1,1,0,0,1,163.18,184.4Z"/><path class="cls-2" d="M167.59,184.4a1,1,0,1,1-1-1A1,1,0,0,1,167.59,184.4Z"/><path class="cls-2" d="M172,184.4a1,1,0,1,1-1-1A1,1,0,0,1,172,184.4Z"/><path class="cls-2" d="M176.42,184.4a1,1,0,1,1-1-1A1,1,0,0,1,176.42,184.4Z"/><path class="cls-2" d="M210.63,184.4a1,1,0,1,1-1-1A1,1,0,0,1,210.63,184.4Z"/><path class="cls-2" d="M215.13,184.4a1,1,0,1,1-1-1A1,1,0,0,1,215.13,184.4Z"/><path class="cls-2" d="M180.83,184.4a1,1,0,1,1-1-1A1,1,0,0,1,180.83,184.4Z"/><path class="cls-2" d="M202.51,184.4a1,1,0,1,1-1-1A1,1,0,0,1,202.51,184.4Z"/><path class="cls-2" d="M185.25,184.4a1,1,0,1,1-1-1A1,1,0,0,1,185.25,184.4Z"/><path class="cls-2" d="M189.66,184.4a1,1,0,1,1-1-1A1,1,0,0,1,189.66,184.4Z"/><path class="cls-2" d="M198.62,184.4a1,1,0,1,1-1-1A1,1,0,0,1,198.62,184.4Z"/><path class="cls-2" d="M218.79,184.4a1,1,0,1,1-1-1A1,1,0,0,1,218.79,184.4Z"/><path class="cls-2" d="M194.08,184.4a1,1,0,1,1-1-1A1,1,0,0,1,194.08,184.4Z"/><path class="cls-2" d="M206.71,184.4a1,1,0,1,1-1-1A1,1,0,0,1,206.71,184.4Z"/><path class="cls-2" d="M216.79,189.22a1,1,0,1,1,1,1A1,1,0,0,1,216.79,189.22Z"/><path class="cls-2" d="M212.37,189.22a1,1,0,1,1,1,1A1,1,0,0,1,212.37,189.22Z"/><path class="cls-2" d="M208,189.22a1,1,0,1,1,1,1A1,1,0,0,1,208,189.22Z"/><path class="cls-2" d="M203.55,189.22a1,1,0,1,1,2,0,1,1,0,0,1-2,0Z"/><circle class="cls-2" cx="170.34" cy="189.22" r="1"/><path class="cls-2" d="M164.84,189.22a1,1,0,1,1,1,1A1,1,0,0,1,164.84,189.22Z"/><path class="cls-2" d="M199.13,189.22a1,1,0,1,1,1,1A1,1,0,0,1,199.13,189.22Z"/><circle class="cls-2" cx="178.45" cy="189.22" r="1"/><path class="cls-2" d="M194.72,189.22a1,1,0,1,1,1,1A1,1,0,0,1,194.72,189.22Z"/><path class="cls-2" d="M190.3,189.22a1,1,0,1,1,1,1A1,1,0,0,1,190.3,189.22Z"/><circle class="cls-2" cx="182.35" cy="189.22" r="1"/><circle class="cls-2" cx="162.18" cy="189.22" r="1"/><circle class="cls-2" cx="186.89" cy="189.22" r="1"/><circle class="cls-2" cx="174.25" cy="189.22" r="1"/><path class="cls-2" d="M163.18,193.5a1,1,0,1,1-1-1A1,1,0,0,1,163.18,193.5Z"/><path class="cls-2" d="M167.59,193.5a1,1,0,1,1-1-1A1,1,0,0,1,167.59,193.5Z"/><path class="cls-2" d="M172,193.5a1,1,0,1,1-1-1A1,1,0,0,1,172,193.5Z"/><path class="cls-2" d="M176.42,193.5a1,1,0,1,1-1-1A1,1,0,0,1,176.42,193.5Z"/><path class="cls-2" d="M210.63,193.5a1,1,0,1,1-1-1A1,1,0,0,1,210.63,193.5Z"/><path class="cls-2" d="M215.13,193.5a1,1,0,1,1-1-1A1,1,0,0,1,215.13,193.5Z"/><path class="cls-2" d="M180.83,193.5a1,1,0,1,1-1-1A1,1,0,0,1,180.83,193.5Z"/><path class="cls-2" d="M202.51,193.5a1,1,0,1,1-1-1A1,1,0,0,1,202.51,193.5Z"/><path class="cls-2" d="M185.25,193.5a1,1,0,1,1-1-1A1,1,0,0,1,185.25,193.5Z"/><path class="cls-2" d="M189.66,193.5a1,1,0,1,1-1-1A1,1,0,0,1,189.66,193.5Z"/><path class="cls-2" d="M198.62,193.5a1,1,0,1,1-1-1A1,1,0,0,1,198.62,193.5Z"/><path class="cls-2" d="M218.79,193.5a1,1,0,1,1-1-1A1,1,0,0,1,218.79,193.5Z"/><path class="cls-2" d="M194.08,193.5a1,1,0,1,1-1-1A1,1,0,0,1,194.08,193.5Z"/><path class="cls-2" d="M206.71,193.5a1,1,0,1,1-1-1A1,1,0,0,1,206.71,193.5Z"/><rect class="cls-2" x="139.06" y="182.99" width="17.44" height="2.68"/><rect class="cls-2" x="139.06" y="187.61" width="17.44" height="2.68"/><rect class="cls-2" x="139.06" y="192.38" width="17.44" height="2.68"/><polygon class="cls-2" points="237 200.23 223.69 200.27 223.69 178.5 237 178.47 237 200.23"/><rect class="cls-1" x="135.13" y="153.08" width="88.56" height="21.97"/><circle class="cls-2" cx="162.18" cy="159.01" r="1"/><path class="cls-2" d="M167.59,159a1,1,0,1,1-1-1A1,1,0,0,1,167.59,159Z"/><path class="cls-2" d="M172,159a1,1,0,0,1-2,0,1,1,0,0,1,2,0Z"/><path class="cls-2" d="M176.42,159a1,1,0,1,1-1-1A1,1,0,0,1,176.42,159Z"/><path class="cls-2" d="M210.63,159a1,1,0,1,1-1-1A1,1,0,0,1,210.63,159Z"/><path class="cls-2" d="M215.13,159a1,1,0,0,1-2,0,1,1,0,0,1,2,0Z"/><path class="cls-2" d="M180.83,159a1,1,0,1,1-1-1A1,1,0,0,1,180.83,159Z"/><path class="cls-2" d="M202.51,159a1,1,0,1,1-1-1A1,1,0,0,1,202.51,159Z"/><path class="cls-2" d="M185.25,159a1,1,0,1,1-1-1A1,1,0,0,1,185.25,159Z"/><path class="cls-2" d="M189.66,159a1,1,0,1,1-1-1A1,1,0,0,1,189.66,159Z"/><path class="cls-2" d="M198.62,159a1,1,0,1,1-1-1A1,1,0,0,1,198.62,159Z"/><path class="cls-2" d="M218.79,159a1,1,0,1,1-1-1A1,1,0,0,1,218.79,159Z"/><path class="cls-2" d="M194.08,159a1,1,0,0,1-2,0,1,1,0,0,1,2,0Z"/><path class="cls-2" d="M206.71,159a1,1,0,1,1-1-1A1,1,0,0,1,206.71,159Z"/><path class="cls-2" d="M216.79,163.83a1,1,0,1,1,1,1A1,1,0,0,1,216.79,163.83Z"/><path class="cls-2" d="M212.37,163.83a1,1,0,1,1,1,1A1,1,0,0,1,212.37,163.83Z"/><path class="cls-2" d="M208,163.83a1,1,0,1,1,1,1A1,1,0,0,1,208,163.83Z"/><path class="cls-2" d="M203.55,163.83a1,1,0,1,1,2,0,1,1,0,0,1-2,0Z"/><path class="cls-2" d="M169.34,163.83a1,1,0,1,1,1,1A1,1,0,0,1,169.34,163.83Z"/><path class="cls-2" d="M164.84,163.83a1,1,0,1,1,1,1A1,1,0,0,1,164.84,163.83Z"/><path class="cls-2" d="M199.13,163.83a1,1,0,1,1,1,1A1,1,0,0,1,199.13,163.83Z"/><path class="cls-2" d="M177.45,163.83a1,1,0,1,1,1,1A1,1,0,0,1,177.45,163.83Z"/><path class="cls-2" d="M194.72,163.83a1,1,0,1,1,1,1A1,1,0,0,1,194.72,163.83Z"/><path class="cls-2" d="M190.3,163.83a1,1,0,1,1,1,1A1,1,0,0,1,190.3,163.83Z"/><path class="cls-2" d="M181.35,163.83a1,1,0,1,1,1,1A1,1,0,0,1,181.35,163.83Z"/><path class="cls-2" d="M161.18,163.83a1,1,0,1,1,1,1A1,1,0,0,1,161.18,163.83Z"/><path class="cls-2" d="M185.89,163.83a1,1,0,1,1,1,1A1,1,0,0,1,185.89,163.83Z"/><path class="cls-2" d="M173.25,163.83a1,1,0,1,1,1,1A1,1,0,0,1,173.25,163.83Z"/><path class="cls-2" d="M163.18,168.11a1,1,0,1,1-1-1A1,1,0,0,1,163.18,168.11Z"/><path class="cls-2" d="M167.59,168.11a1,1,0,1,1-1-1A1,1,0,0,1,167.59,168.11Z"/><path class="cls-2" d="M172,168.11a1,1,0,1,1-1-1A1,1,0,0,1,172,168.11Z"/><path class="cls-2" d="M176.42,168.11a1,1,0,1,1-1-1A1,1,0,0,1,176.42,168.11Z"/><path class="cls-2" d="M210.63,168.11a1,1,0,1,1-1-1A1,1,0,0,1,210.63,168.11Z"/><path class="cls-2" d="M215.13,168.11a1,1,0,1,1-1-1A1,1,0,0,1,215.13,168.11Z"/><path class="cls-2" d="M180.83,168.11a1,1,0,1,1-1-1A1,1,0,0,1,180.83,168.11Z"/><path class="cls-2" d="M202.51,168.11a1,1,0,1,1-1-1A1,1,0,0,1,202.51,168.11Z"/><path class="cls-2" d="M185.25,168.11a1,1,0,1,1-1-1A1,1,0,0,1,185.25,168.11Z"/><path class="cls-2" d="M189.66,168.11a1,1,0,1,1-1-1A1,1,0,0,1,189.66,168.11Z"/><path class="cls-2" d="M198.62,168.11a1,1,0,1,1-1-1A1,1,0,0,1,198.62,168.11Z"/><path class="cls-2" d="M218.79,168.11a1,1,0,1,1-1-1A1,1,0,0,1,218.79,168.11Z"/><path class="cls-2" d="M194.08,168.11a1,1,0,1,1-1-1A1,1,0,0,1,194.08,168.11Z"/><path class="cls-2" d="M206.71,168.11a1,1,0,1,1-1-1A1,1,0,0,1,206.71,168.11Z"/><rect class="cls-2" x="139.06" y="157.6" width="17.44" height="2.68"/><rect class="cls-2" x="139.06" y="162.22" width="17.44" height="2.68"/><rect class="cls-2" x="139.06" y="166.99" width="17.44" height="2.68"/><polygon class="cls-2" points="237 174.84 223.69 174.88 223.69 153.11 237 153.08 237 174.84"/><rect class="cls-2" x="540.72" y="164.04" width="70.31" height="101.91"/><rect class="cls-1" x="537.2" y="164.04" width="70.31" height="101.91"/><rect class="cls-3" x="545.93" y="175.07" width="52.84" height="79.84"/><path class="cls-2" d="M598.77,254.91s0-.13,0-.39,0-.64,0-1.13c0-1,0-2.47,0-4.38,0-3.83,0-9.4-.05-16.45,0-14.07,0-34-.08-57.49l.17.18-52.83,0h0l.19-.2c0,30.12,0,57.89,0,79.84l-.15-.15,38.46.08,10.63,0,2.79,0h1l-.93,0-2.76,0-10.59,0-38.56.08h-.15v-.15c0-21.95,0-49.72,0-79.84v-.19h.2l52.83,0H599v.17c0,23.53-.07,43.5-.09,57.61,0,7,0,12.59-.05,16.41,0,1.89,0,3.34,0,4.34,0,.48,0,.85,0,1.11S598.77,254.91,598.77,254.91Z"/><path class="cls-2" d="M607.7,164a10.93,10.93,0,0,1-1.25,1.82c-.82,1.09-2,2.58-3.3,4.18s-2.56,3-3.47,4a12,12,0,0,1-1.55,1.58,13.52,13.52,0,0,1,1.34-1.75c.94-1.15,2.1-2.55,3.39-4.11l3.38-4.11A12.62,12.62,0,0,1,607.7,164Z"/><path class="cls-3" d="M599,254.65a65.27,65.27,0,0,0,9.22,11.53"/><path class="cls-2" d="M608.26,266.18a10.18,10.18,0,0,1-1.61-1.46,51.17,51.17,0,0,1-3.48-3.92c-1.27-1.6-2.34-3.13-3.06-4.26a10.42,10.42,0,0,1-1.07-1.89,15.64,15.64,0,0,1,1.3,1.74c.77,1.09,1.86,2.58,3.13,4.17s2.49,3,3.38,4A14.86,14.86,0,0,1,608.26,266.18Z"/><path class="cls-3" d="M537.19,265.87l9.21-11.36"/><path class="cls-2" d="M546.4,254.51c.08.06-1.92,2.66-4.46,5.8a68.84,68.84,0,0,1-4.75,5.56,136.52,136.52,0,0,1,9.21-11.36Z"/><path class="cls-2" d="M537.2,164a63.16,63.16,0,0,1,4.47,5.34,67.54,67.54,0,0,1,4.17,5.58,60.75,60.75,0,0,1-4.47-5.34A62.43,62.43,0,0,1,537.2,164Z"/><rect class="cls-2" x="564.62" y="191.28" width="17.69" height="50.24"/><polygon class="cls-2" points="642.09 51.07 642.09 109.89 557.61 109.89 554.57 51.48 642.09 51.07"/><rect class="cls-3" x="567.67" y="38.38" width="58.28" height="84.48" transform="translate(516.18 677.43) rotate(-90)"/><path class="cls-2" d="M639.45,110.17H554.17V51.08h85.28ZM555,109.36h83.68V51.88H555Z"/><rect class="cls-3" x="563.72" y="58.72" width="66.18" height="43.8"/><path class="cls-2" d="M629.9,58.72l-.33,0h-.94l-3.64,0-13.63,0-47.64.1.19-.2c0,13.39,0,28.21,0,43.8h0l-.21-.2,66.18,0-.17.16c0-13.32.07-24.25.09-31.86l0-8.82c0-1,0-1.78,0-2.31s0-.81,0-.81,0,.26,0,.77,0,1.29,0,2.29c0,2,0,5,.05,8.77,0,7.64,0,18.6.08,32v.17h-.16l-66.18,0h-.21v-.21h0c0-15.59,0-30.41,0-43.8v-.19h.19l47.76.1,13.6,0,3.59,0h1.23Z"/><path class="cls-2" d="M554.57,51.32a7.12,7.12,0,0,1,1.45.94c.86.62,2,1.51,3.31,2.53s2.39,2,3.18,2.7a7.83,7.83,0,0,1,1.21,1.23,57.74,57.74,0,0,1-4.65-3.61A45.24,45.24,0,0,1,554.57,51.32Z"/><path class="cls-2" d="M639.05,51.48a40.83,40.83,0,0,1-4.45,3.79,41,41,0,0,1-4.7,3.45,39.56,39.56,0,0,1,4.44-3.78A40.47,40.47,0,0,1,639.05,51.48Z"/><path class="cls-3" d="M639,109.77l-9.42-7.63"/><path class="cls-2" d="M629.56,102.14a45.17,45.17,0,0,1,4.84,3.65,45,45,0,0,1,4.58,4,43.6,43.6,0,0,1-4.84-3.65A45,45,0,0,1,629.56,102.14Z"/><path class="cls-2" d="M554.57,109.77A40.49,40.49,0,0,1,559,106a40.47,40.47,0,0,1,4.65-3.42,39.34,39.34,0,0,1-4.4,3.75A40.47,40.47,0,0,1,554.57,109.77Z"/><rect class="cls-2" x="590.64" y="58.88" width="14.67" height="41.64" transform="translate(518.27 677.68) rotate(-90)"/><rect class="cls-2" x="2.53" y="108.49" width="76.07" height="125.91"/><rect class="cls-4" y="108.49" width="76.07" height="125.91"/><rect class="cls-5" x="3.24" y="111.04" width="69.59" height="120.81"/><rect class="cls-4" x="16.49" y="126.74" width="42.79" height="89.41"/><path class="cls-2" d="M16.49,184.51c-.1-8.35,7.41-16.51,15.68-17.67,3.94-.56,8.13.22,11.82-1.29,6.58-2.69,8.67-11.43,15.29-14l.3,64.63H16.49Z"/></g><g id="Character_3" data-name="Character 3"><path class="cls-6" d="M497.12,346.71l3.82,12a13.82,13.82,0,0,0,10.74,9.61l25.55,4.8,6.94-.22-6.94-8.61L518,357.72a5.17,5.17,0,0,1-3.88-3.68L506.5,337.4l-9.68,5.94Z"/><path class="cls-7" d="M478.35,267.42c3.41-2.34,9.55-1.89,13.12.2s5.38,4.88,6.07,9.75a29.34,29.34,0,0,1,.58,5.17,5.19,5.19,0,0,0,1.25,4.11c1,1,2.65,1.33,3.35,2.56a2.33,2.33,0,0,1-2.73,3.37,2.26,2.26,0,0,1-1,2.77,4.26,4.26,0,0,1-3.16.27,8,8,0,0,1-5.87-7.87"/><path class="cls-7" d="M484.09,400.85c-17.54-5.81-5.51-29-5.51-29l76.69,7.21a11.09,11.09,0,0,1,11.16,11.09h0a11.09,11.09,0,0,1-11.09,11.1l-71.25-.39"/><path class="cls-7" d="M466.14,400.83c-17.1-5.77-5.31-29-5.31-29l74.75,7.05c7.31.09,10.87,3.62,10.87,11.07h0c0,6.12-2.28,11.29-10.84,11.11l-69.47-.23"/><path class="cls-8" d="M483.5,375.75h.21l.62,0,2.39.1,8.8.43,29,1.59c1.42.07,2.82.19,4.19.21s2.75.08,4.09.16,2.65.18,3.93.32a14.13,14.13,0,0,1,3.74.77,9,9,0,0,1,3.11,2,8.35,8.35,0,0,1,1.89,3,15.8,15.8,0,0,1,.77,3.27,23.77,23.77,0,0,1,.2,3.09,13.08,13.08,0,0,1-1,5.21,8.51,8.51,0,0,1-2.32,3.16,6.21,6.21,0,0,1-2.12,1.2c-.53.17-.54.11,0-.08a6.77,6.77,0,0,0,2-1.24,8.55,8.55,0,0,0,2.22-3.14,13,13,0,0,0,.91-5.11,21.85,21.85,0,0,0-.23-3.05,14.38,14.38,0,0,0-.77-3.19,8,8,0,0,0-1.82-2.89,8.72,8.72,0,0,0-3-1.9,13.52,13.52,0,0,0-3.65-.73c-1.28-.14-2.59-.23-3.92-.31s-2.69-.13-4.07-.15-2.78-.14-4.2-.21l-29-1.71-8.79-.57-2.39-.17-.62,0C483.57,375.77,483.49,375.76,483.5,375.75Z"/><path class="cls-8" d="M466.61,383.07a1.75,1.75,0,0,0,.61.3,6.18,6.18,0,0,0,1.82.37,7.09,7.09,0,0,0,7.6-7.79,6.45,6.45,0,0,0-.42-1.8,1.82,1.82,0,0,0-.32-.6,12.63,12.63,0,0,1,.45,2.42,7.4,7.4,0,0,1-2,5.37,7.33,7.33,0,0,1-5.31,2.11A12.25,12.25,0,0,1,466.61,383.07Z"/><path class="cls-9" d="M489.13,308.85c9.51,1.07,11.05,7.53,15.49,13.89L511,334.58l-11.79,7.23.41,18.17,4.82,16.08-44.42-2.52,5.47-19-6.44-19.58a36.19,36.19,0,0,1,.75-12c3.28-11.58,11.15-12.89,18.14-14.71a46.14,46.14,0,0,1,9.61-.05"/><g class="cls-10"><path d="M465.28,348.7a89.34,89.34,0,0,0,3.28,11.39,24.56,24.56,0,0,0,3.58,6.58,16.69,16.69,0,0,0,8.61,5.24,26.92,26.92,0,0,0,10.16.5L474,362.87l-4.5-15.62Z"/></g><path class="cls-7" d="M499.64,359.48a7.58,7.58,0,0,1-.12-1.29c0-.9-.1-2.09-.17-3.52-.13-3-.28-7.08-.42-11.62s-.23-8.65-.29-11.63c0-1.43,0-2.62,0-3.52a7.76,7.76,0,0,1,0-1.3,7.58,7.58,0,0,1,.12,1.29c0,.9.1,2.09.17,3.52.13,3,.28,7.08.41,11.63s.24,8.65.3,11.62c0,1.44,0,2.63,0,3.53A7.67,7.67,0,0,1,499.64,359.48Z"/><path class="cls-7" d="M459.83,334.8s0,.08.1.25l.25.75c.21.67.52,1.64.91,2.86.77,2.5,1.88,6.06,3.23,10.37l-.15-.07,19.75-7.29.49-.2-.08.16a86.3,86.3,0,0,0-4.63-13,36.72,36.72,0,0,0-5.87-9.52,13.22,13.22,0,0,0-3.32-2.69,6.77,6.77,0,0,0-3.07-.9,3.29,3.29,0,0,0-.62,0l-.55.06c-.17,0-.33,0-.47.05l-.38.1-.52.14-.18,0,.17-.06.51-.16.38-.12.48-.07.55-.07a4.62,4.62,0,0,1,.64,0,6.88,6.88,0,0,1,3.13.88A12.9,12.9,0,0,1,474,319a36.49,36.49,0,0,1,6,9.55,86.28,86.28,0,0,1,4.66,13l0,.12-.11,0-.5.21c-7.4,2.77-14.26,5.23-19.77,7.24l-.12,0,0-.11c-1.31-4.33-2.38-7.9-3.14-10.4-.36-1.23-.65-2.2-.85-2.88l-.21-.76C459.85,334.89,459.83,334.8,459.83,334.8Z"/><path class="cls-6" d="M467.11,348.13l4.27,13.33a13.89,13.89,0,0,0,10.74,9.74l25.55,4.86,6.95-.23-2.36-5.93-23.8-9.41a5.17,5.17,0,0,1-3.87-3.73L481,343Z"/><polygon class="cls-8" points="489.85 376.24 490.07 374.58 509.7 373.81 519.33 349.52 556.03 352.01 543.65 378.97 489.85 376.24"/><path class="cls-3" d="M533.77,365.28a1.92,1.92,0,1,1-.59-2.66A1.92,1.92,0,0,1,533.77,365.28Z"/><path class="cls-7" d="M485.68,268.56c-12.13-5.83-18.23,2.4-20.11,7.83a32.2,32.2,0,0,1-1,3.05,4.5,4.5,0,0,1-2.11,2.35c-.73.32-1.55.36-2.29.63a4.19,4.19,0,0,0-2.52,2.92,5.05,5.05,0,0,0,.68,3.84,3.92,3.92,0,0,1,.86,1.79,5.16,5.16,0,0,1-.27,1.33,3.64,3.64,0,0,0,6,3.55,5.11,5.11,0,0,0,2.21,2.77c1.09.52,2.7.05,2.92-1.13a2.88,2.88,0,0,0,5.47-1"/><path class="cls-6" d="M475.39,274.43a2.56,2.56,0,0,0-2.3,2.61h0l1.45,34.69c.06,4.1,6,6.41,10.43,6.32h0c4.43-.09,4.58-2.27,4.64-6.16.11-6.52.1-9,.11-8.92s5.59-.93,6.75-8.23c.58-3.64.4-9.59.09-14.46-.27-4.38-3.18-9.75-7.54-9.29Z"/><path class="cls-7" d="M494.66,285a.92.92,0,0,1-.9.94.89.89,0,0,1-1-.84.93.93,0,0,1,.9-.95A.9.9,0,0,1,494.66,285Z"/><path class="cls-7" d="M495.27,283.38c-.12.12-.83-.4-1.83-.4s-1.75.51-1.86.38.06-.27.39-.51a2.57,2.57,0,0,1,1.48-.46,2.48,2.48,0,0,1,1.46.48C495.22,283.1,495.33,283.32,495.27,283.38Z"/><path class="cls-7" d="M484.81,285a.93.93,0,0,1-.9.94.9.9,0,0,1-1-.84,1,1,0,0,1,.91-.95A.9.9,0,0,1,484.81,285Z"/><path class="cls-7" d="M485.36,283.57c-.11.12-.82-.41-1.83-.4s-1.75.5-1.86.38.07-.27.39-.51a2.63,2.63,0,0,1,1.49-.46,2.6,2.6,0,0,1,1.46.47C485.31,283.29,485.42,283.51,485.36,283.57Z"/><path class="cls-7" d="M489,291a6.76,6.76,0,0,1,1.64-.29c.25,0,.5-.08.54-.26a1.35,1.35,0,0,0-.17-.76l-.76-2a33.3,33.3,0,0,1-1.71-5.13,34.64,34.64,0,0,1,2.12,5c.25.69.5,1.34.73,2a1.55,1.55,0,0,1,.13,1,.68.68,0,0,1-.42.38,1.92,1.92,0,0,1-.44.06A6.61,6.61,0,0,1,489,291Z"/><path class="cls-11" d="M489.72,303a18.64,18.64,0,0,1-9.78-2.61s2.37,5,9.68,4.33Z"/><path class="cls-12" d="M488.59,293.47a1.79,1.79,0,0,0-1.62-.67,1.63,1.63,0,0,0-1.15.61,1.06,1.06,0,0,0-.08,1.2,1.23,1.23,0,0,0,1.32.34,4,4,0,0,0,1.29-.77,1.18,1.18,0,0,0,.29-.3.35.35,0,0,0,0-.38"/><path class="cls-7" d="M486.05,291.74c.17,0,.17,1.08,1.11,1.86s2.1.66,2.11.81-.26.21-.76.22a2.69,2.69,0,0,1-1.76-.61,2.39,2.39,0,0,1-.85-1.56C485.86,292,486,291.73,486.05,291.74Z"/><path class="cls-7" d="M485.82,281.8c-.1.28-1.11.15-2.29.29s-2.14.46-2.3.22.1-.38.48-.64a4,4,0,0,1,3.5-.39C485.64,281.46,485.86,281.67,485.82,281.8Z"/><path class="cls-7" d="M494.9,280.46c-.18.23-.87,0-1.71,0s-1.54.16-1.7-.08,0-.35.35-.57a2.36,2.36,0,0,1,1.38-.37,2.45,2.45,0,0,1,1.37.46C494.88,280.12,495,280.35,494.9,280.46Z"/><path class="cls-6" d="M473.9,286.11a1.83,1.83,0,0,0-1.91.1,3.39,3.39,0,0,0,2.13,6.29"/><path class="cls-7" d="M485.38,268.55a14.79,14.79,0,0,1,7,2.18,10.16,10.16,0,0,1,5,5.95,2.05,2.05,0,0,1-.06,1.65,1.61,1.61,0,0,1-2,.43,4.77,4.77,0,0,1-1.63-1.5,3.12,3.12,0,0,1-6.06-.07,2.74,2.74,0,0,1-2.82,2.51,3.59,3.59,0,0,1-3.1-2.45,9.08,9.08,0,0,1-1.29,3.56,3.13,3.13,0,0,1-3.31,1.35,6.42,6.42,0,0,1,0,3.26,2.22,2.22,0,0,1-2.58,1.51c-1-.34-1.4-1.54-1.64-2.59a24.34,24.34,0,0,1-.78-6.12,9,9,0,0,1,7.23-9.08,23.35,23.35,0,0,1,6.36-.58"/><path class="cls-11" d="M473.39,290.32c0-.05-.29.06-.64-.1a1.28,1.28,0,0,1-.63-1.25,1.3,1.3,0,0,1,.78-1.17c.37-.15.64-.08.65-.13s-.25-.23-.73-.13a1.4,1.4,0,0,0-.71.45,1.57,1.57,0,0,0-.36,1,1.44,1.44,0,0,0,.91,1.52C473.16,290.6,473.43,290.35,473.39,290.32Z"/><path class="cls-12" d="M494.17,269.41a19.55,19.55,0,0,0-4.47-1.62,14.54,14.54,0,0,0-5.1-.09,13.14,13.14,0,0,0-9.79,7,14.57,14.57,0,0,0-1.54,4.87,18.72,18.72,0,0,0,.11,4.74,4.51,4.51,0,0,1-.34-1.25,12.26,12.26,0,0,1-.13-3.53,14,14,0,0,1,1.48-5.05,13.19,13.19,0,0,1,10.14-7.29,14.45,14.45,0,0,1,5.25.2,12.94,12.94,0,0,1,3.31,1.25A4.81,4.81,0,0,1,494.17,269.41Z"/><path class="cls-5" d="M482.93,337a19.88,19.88,0,0,1-3,1c-1.86.54-4.43,1.29-7.25,2.2s-5.33,1.8-7.16,2.45a21.06,21.06,0,0,1-3,1,17.42,17.42,0,0,1,2.86-1.32c1.79-.74,4.31-1.69,7.13-2.6s5.42-1.61,7.31-2.07A18.27,18.27,0,0,1,482.93,337Z"/><path class="cls-5" d="M481.05,332.05c.05.14-4.38,1.93-9.9,4a105.47,105.47,0,0,1-10.08,3.52c-.05-.13,4.38-1.93,9.9-4S481,331.92,481.05,332.05Z"/><path class="cls-5" d="M504.72,324c0,.14-5.14,2-11.58,4.24s-11.7,3.89-11.74,3.75,5.13-2,11.57-4.24S504.67,323.83,504.72,324Z"/><path class="cls-5" d="M498.29,331.86a117.49,117.49,0,0,1-14.74,5,57.24,57.24,0,0,1,7.29-2.73A60.64,60.64,0,0,1,498.29,331.86Z"/><path class="cls-5" d="M506.84,328.11a16.83,16.83,0,0,1-3.68,1.94,16.66,16.66,0,0,1-3.89,1.46,16.83,16.83,0,0,1,3.68-1.94A17.22,17.22,0,0,1,506.84,328.11Z"/></g><g id="Character_2" data-name="Character 2"><path class="cls-8" d="M372.51,376.92,322.34,374c-.32-.71-.53-1.13-.53-1.13l-13.6.31-4.42-.26-.18.36-45.64,1c-9.1,0-18.65,5.6-18.63,12.7-.1,6.75,3.19,14.07,11.34,13.88l62.19-.37,62.19,0c8.15.14,10.3-4.78,10.29-10.61C386.28,379.06,379.47,377,372.51,376.92Z"/><path class="cls-7" d="M256.39,400.86l.3,0,.88,0,3.39,0,12.51-.08,41.76-.17-.18.18c-.09-1.36-.18-2.82-.28-4.29-.19-3-.38-6-.57-8.78l.16.16-38.48-4.17-11.4-1.28L261.4,382l-.79-.1-.27,0a1.37,1.37,0,0,1,.27,0l.8.07,3.08.3,11.41,1.17,38.49,4.06h.15v.15c.18,2.81.38,5.77.57,8.78.1,1.47.19,2.93.28,4.29v.19h-.18l-41.76.06-12.51,0-3.39,0h-.88Z"/><path class="cls-7" d="M269.17,383s-.67-.46-1.77-1.12a18.92,18.92,0,0,0-4.57-2,19.22,19.22,0,0,0-4.94-.71c-1.28,0-2.08.08-2.08,0a2.22,2.22,0,0,1,.55-.13,13.71,13.71,0,0,1,1.53-.14,16.51,16.51,0,0,1,5,.63,16.32,16.32,0,0,1,4.61,2.12,9.36,9.36,0,0,1,1.22.93C269,382.83,269.18,383,269.17,383Z"/><path class="cls-7" d="M368.63,380.05c0,.1-9.87,2.51-22.09,5.4s-22.14,5.16-22.16,5.07,9.86-2.52,22.08-5.41S368.61,380,368.63,380.05Z"/><path class="cls-7" d="M360.26,379.11a19.43,19.43,0,0,0-3.87,1.86,20,20,0,0,0-3.15,2.94,3.65,3.65,0,0,1,.68-1.1,10.31,10.31,0,0,1,2.27-2.13,10.48,10.48,0,0,1,2.8-1.35A3.48,3.48,0,0,1,360.26,379.11Z"/><polygon class="cls-13" points="314.62 389.04 323.99 390.32 324.02 400.5 315.4 400.31 314.62 389.04"/><path class="cls-9" d="M324,390.32h4.21a4.68,4.68,0,0,1,2.34.62l2.22,1.28a35.39,35.39,0,0,0,3.89,1.84c2.56.81,6.87,1.91,7.78,2.61,2.6,2,1.82,4.35.39,4.6-1.25.22-20.8-.76-20.8-.76Z"/><path class="cls-7" d="M330.93,399.64a9.59,9.59,0,0,1-.17-5.31,23.8,23.8,0,0,1,.06,2.66A21.73,21.73,0,0,1,330.93,399.64Z"/><path class="cls-7" d="M332.93,399.58a8.37,8.37,0,0,1-.16-2.43,8.54,8.54,0,0,1,.19-2.43,8.81,8.81,0,0,1,.16,2.43A8.49,8.49,0,0,1,332.93,399.58Z"/><path class="cls-7" d="M335.29,400a9.57,9.57,0,0,1-.37-2.49,8.71,8.71,0,0,1,0-2.52,9.31,9.31,0,0,1,.38,2.49A8.91,8.91,0,0,1,335.29,400Z"/><path class="cls-7" d="M329.1,396.94a3.09,3.09,0,0,1-.86-.27,8.36,8.36,0,0,1-2.11-1.3,7.68,7.68,0,0,1-.6-.56,2.31,2.31,0,0,1-.54-.76,1.06,1.06,0,0,1,.11-1,.81.81,0,0,1,.53-.29,1.36,1.36,0,0,1,.57.06,4.2,4.2,0,0,1,.9,7.46,2.65,2.65,0,0,1-1,.43,1,1,0,0,1-.55,0,.73.73,0,0,1-.42-.37,1,1,0,0,1,.12-1,3,3,0,0,1,.54-.66,6.6,6.6,0,0,1,2.06-1.36,3.39,3.39,0,0,1,.88-.25s-.3.13-.82.38a7,7,0,0,0-1.95,1.41,3.59,3.59,0,0,0-.48.61.8.8,0,0,0-.09.71.57.57,0,0,0,.66.22,2.19,2.19,0,0,0,.83-.4,3.89,3.89,0,0,0-.81-6.88.68.68,0,0,0-.76.11.77.77,0,0,0-.08.75,4.29,4.29,0,0,0,1,1.24A11.39,11.39,0,0,0,329.1,396.94Z"/><path class="cls-7" d="M344.82,401.26a2.39,2.39,0,0,0,.52-.64,2.43,2.43,0,0,0-.29-2.12,4.73,4.73,0,0,0-2.6-2c-1.2-.42-2.62-.62-4.05-1.07a28.15,28.15,0,0,1-7-3.15,23.11,23.11,0,0,1-1.9-1.33,3.82,3.82,0,0,1-.64-.56,3.59,3.59,0,0,1,.72.45c.46.3,1.11.74,1.95,1.23a31.15,31.15,0,0,0,6.94,3c1.41.43,2.82.64,4.06,1.1a4.91,4.91,0,0,1,2.71,2.14,2.51,2.51,0,0,1,.19,2.3,1.4,1.4,0,0,1-.44.48C344.9,401.24,344.83,401.27,344.82,401.26Z"/><path class="cls-7" d="M304.11,266.74c-2.9,1.13-6.19,5.55-6.78,8.61-.52,2.69.19,5.45.54,8.18s.28,5.76-1.48,7.87c-1.09,1.31-2.69,2.07-4,3.19a9.37,9.37,0,0,0-.91,13.27,4.91,4.91,0,0,0-3.57,4.94,7.32,7.32,0,0,0,3.21,5.52,15.18,15.18,0,0,0,6.13,2.35,13.08,13.08,0,0,0,6.89-.19c2.57-.94,4.47-3.07,6.53-4.87,2.51-2.21,5.44-4.07,7.25-6.88,2.1-3.28,2.37-7.38,2.36-11.28a98.23,98.23,0,0,0-3-23.65"/><path class="cls-13" d="M341.43,321.74l16,27.62a11.74,11.74,0,0,1,.35,11.11h0A11.72,11.72,0,0,1,346.92,367l-24.41-.62-.66-8.87,21.48-4.18-14.56-25Z"/><path class="cls-13" d="M282.33,369.24l22.45,5.88.47-6.73-20.71-11.95,15-28.08-12.69-6.47-15.82,27.7h0a13,13,0,0,0,7.53,18.47Z"/><path class="cls-9" d="M334.73,339.52,350,331.4a77.22,77.22,0,0,0-6.6-10.94,33.64,33.64,0,0,0-20.51-12.85h0l-17.64.25a23.5,23.5,0,0,0-6.29,1.47v-.07c-9.57,2.14-20.13,23.05-20.13,23.05l14,7.31.32,2.19a14.88,14.88,0,0,0,3.65,7.81l-4,26.74,45.3.82-5.82-19.13Z"/><path class="cls-7" d="M297.24,349.77a3.51,3.51,0,0,1-.68-.51,10,10,0,0,1-1.54-1.72,11.13,11.13,0,0,1-1.91-7.28,24.44,24.44,0,0,1,1-4.07c.4-1.22.81-2.3,1.17-3.2s.66-1.62.89-2.12a3.83,3.83,0,0,1,.38-.75,4,4,0,0,1-.26.8l-.78,2.16c-.32.91-.71,2-1.09,3.21a26.13,26.13,0,0,0-1,4,11.57,11.57,0,0,0,.4,4.05,10.53,10.53,0,0,0,1.37,3A18.33,18.33,0,0,0,297.24,349.77Z"/><path class="cls-5" d="M298.58,326.46a12.6,12.6,0,0,1-2.39-2.79,13.69,13.69,0,0,1-2-3.09,12.81,12.81,0,0,1,2.38,2.78A13.7,13.7,0,0,1,298.58,326.46Z"/><path class="cls-5" d="M305.92,314.09a10.21,10.21,0,0,1-2.66,1.78,10,10,0,0,1-2.92,1.32,10.21,10.21,0,0,1,2.66-1.78A9.69,9.69,0,0,1,305.92,314.09Z"/><path class="cls-5" d="M288.23,331.7a8.28,8.28,0,0,1,0-3,8.72,8.72,0,0,1,.49-2.92,8.56,8.56,0,0,1,0,3A8.65,8.65,0,0,1,288.23,331.7Z"/><path class="cls-5" d="M304.53,337.49A9.35,9.35,0,0,1,302,339.2a8.78,8.78,0,0,1-2.79,1.26,9.39,9.39,0,0,1,2.54-1.71A9.06,9.06,0,0,1,304.53,337.49Z"/><path class="cls-5" d="M309.85,325.29a8.65,8.65,0,0,1-1.77,2.39c-1.08,1.22-2,2.14-2.15,2a8.73,8.73,0,0,1,1.76-2.39C308.78,326.11,309.74,325.19,309.85,325.29Z"/><path class="cls-5" d="M320.44,328.93a7.92,7.92,0,0,1-1.85-2.17,7.77,7.77,0,0,1-1.43-2.46,7.78,7.78,0,0,1,1.85,2.16A7.87,7.87,0,0,1,320.44,328.93Z"/><path class="cls-5" d="M314.88,340.38a12.09,12.09,0,0,1-.6-3.46,12.46,12.46,0,0,1-.08-3.51,23.6,23.6,0,0,1,.68,7Z"/><path class="cls-5" d="M310.57,350.28a9.31,9.31,0,0,1-1.77-2.58,9.79,9.79,0,0,1-1.33-2.84,9.46,9.46,0,0,1,1.78,2.58A9.91,9.91,0,0,1,310.57,350.28Z"/><path class="cls-5" d="M324.65,344.57a9.74,9.74,0,0,1-1.76,2.7,10.12,10.12,0,0,1-2.17,2.38,10.34,10.34,0,0,1,1.76-2.7A10.63,10.63,0,0,1,324.65,344.57Z"/><path class="cls-5" d="M330.69,338.83a8.32,8.32,0,0,1-3.23-1.79,8,8,0,0,1-2.51-2.7,36.38,36.38,0,0,1,2.83,2.29A33.26,33.26,0,0,1,330.69,338.83Z"/><path class="cls-5" d="M340.44,330.66A11.57,11.57,0,0,1,337,331a11.38,11.38,0,0,1-3.49-.18,12.19,12.19,0,0,1,3.47-.34A12,12,0,0,1,340.44,330.66Z"/><g class="cls-10"><path d="M342.9,318.11A9,9,0,0,1,329,329.36a6.46,6.46,0,0,0-1.57-1.34,7,7,0,0,0-1.92-.4A6.94,6.94,0,0,1,321,316.74Z"/></g><polygon class="cls-7" points="290.54 382.82 287.9 353.02 343.07 352.87 339.5 383.06 290.54 382.82"/><path class="cls-5" d="M319,368.83a3.52,3.52,0,1,1-3.52-3.5A3.5,3.5,0,0,1,319,368.83Z"/><path class="cls-13" d="M316.41,318.19a8.61,8.61,0,0,0,8.43-8.51l.4-34.26h0a2.73,2.73,0,0,0-2.44-2.77L308.33,269c-4.64-.49-7.72,5.22-8,9.87-.33,5.17-.52,11.49.09,15.34,1.23,7.76,7.18,8.74,7.18,8.74s0,3,0,6.68a8.61,8.61,0,0,0,8.8,8.57Z"/><path class="cls-7" d="M303.33,283.88a1,1,0,0,0,.95,1,1,1,0,0,0,1-.9,1,1,0,0,0-1-1A.94.94,0,0,0,303.33,283.88Z"/><path class="cls-7" d="M301.69,282.15c.12.13.88-.43,1.95-.43s1.85.54,2,.41-.07-.29-.41-.54a2.74,2.74,0,0,0-1.58-.49,2.66,2.66,0,0,0-1.55.5C301.74,281.86,301.63,282.09,301.69,282.15Z"/><path class="cls-7" d="M313.5,283.88a1,1,0,0,0,1,1,1,1,0,0,0,1-.9,1,1,0,0,0-1-1A1,1,0,0,0,313.5,283.88Z"/><path class="cls-7" d="M312.21,282.35c.12.13.88-.43,1.94-.43s1.86.54,2,.41-.06-.29-.41-.54a2.71,2.71,0,0,0-1.57-.49,2.66,2.66,0,0,0-1.55.5C312.26,282.06,312.15,282.29,312.21,282.35Z"/><path class="cls-7" d="M308.32,290.28a7.3,7.3,0,0,0-1.73-.31c-.28,0-.54-.08-.58-.27a1.36,1.36,0,0,1,.18-.81c.26-.66.53-1.35.81-2.08a35.72,35.72,0,0,0,1.81-5.44,35.72,35.72,0,0,0-2.24,5.28l-.78,2.09a1.62,1.62,0,0,0-.14,1.08.69.69,0,0,0,.45.4,2.08,2.08,0,0,0,.46.06A6.78,6.78,0,0,0,308.32,290.28Z"/><path class="cls-14" d="M307.59,302.94A19.68,19.68,0,0,0,318,300.17s-2.52,5.33-10.28,4.6Z"/><path class="cls-14" d="M308.78,292.86a1.9,1.9,0,0,1,1.73-.71,1.74,1.74,0,0,1,1.21.65,1.12,1.12,0,0,1,.09,1.27,1.31,1.31,0,0,1-1.41.36,4,4,0,0,1-1.36-.82,1,1,0,0,1-.31-.32.35.35,0,0,1,0-.39"/><path class="cls-7" d="M311.47,291c-.17,0-.17,1.15-1.17,2s-2.23.69-2.24.86.28.22.8.24a3,3,0,0,0,1.87-.65,2.52,2.52,0,0,0,.91-1.66C311.68,291.3,311.55,291,311.47,291Z"/><path class="cls-7" d="M311.73,280.47c.1.3,1.17.16,2.43.31s2.27.49,2.43.23-.1-.4-.51-.68a4,4,0,0,0-1.81-.63,4.19,4.19,0,0,0-1.9.22C311.91,280.11,311.68,280.34,311.73,280.47Z"/><path class="cls-7" d="M301.84,280.17c.19.25.92,0,1.81,0s1.64.17,1.81-.09,0-.36-.37-.59a2.47,2.47,0,0,0-1.47-.4,2.52,2.52,0,0,0-1.45.49C301.86,279.81,301.76,280.06,301.84,280.17Z"/><path class="cls-7" d="M344,314.78c-1.44-2.46-4.65-4.1-4.63-6.95,0-1.74,1.33-3.26,1.4-5,.16-3.48-4.31-5.31-5.51-8.58-1.09-3,.79-6.31.13-9.41-.81-3.78-4.24-5.28-7.06-7.83a13.17,13.17,0,0,1-2.88-3.93c-.09-.18-.19-.36-.29-.53a12.26,12.26,0,0,0-9-5.82,19.13,19.13,0,0,0-10.47-.51,9.57,9.57,0,0,0-4.89,2.75,5.77,5.77,0,0,0-1.35,5.29,4.15,4.15,0,0,0,4.29,3c1.43-.19,2.8-1.25,4.18-.83s2,2,3.36,2.24,2.5-.94,3.84-1.06,2.76,1.09,3.42,2.42a11.62,11.62,0,0,1,.64,1.64c1.1,5.48,3.21,8,1.74,11.2-.78,1.71-2.11,3.22-2.31,5.09-.48,4.28,5.09,7.4,4.77,11.69-.13,1.83-1.32,3.38-2,5.08a9,9,0,0,0,3.05,10.09,6,6,0,0,0,5.47,1,4.11,4.11,0,0,0,.6-.28,7.91,7.91,0,0,0,3.61,1.94c3.29.7,6.74-1.16,8.74-3.86C344.79,321.1,345.6,317.5,344,314.78Z"/><path class="cls-8" d="M330.6,325.59a10.62,10.62,0,0,0,2.72-.91,8.84,8.84,0,0,0,2.61-2.08,7.88,7.88,0,0,0,1.85-3.93,8.33,8.33,0,0,0-.92-5.16,8.43,8.43,0,0,0-4.53-3.91,7.88,7.88,0,0,1-2.93-1.85,4.28,4.28,0,0,1-.86-3.52,10.5,10.5,0,0,1,1.3-3.5,20.6,20.6,0,0,0,1.59-3.36,4.88,4.88,0,0,0-.09-3.51,10.24,10.24,0,0,0-2.07-2.88c-.82-.86-1.69-1.67-2.43-2.59a12,12,0,0,1-1.77-3,28.4,28.4,0,0,1-1.63-6.08,41.43,41.43,0,0,0-1.19-5.3,10.82,10.82,0,0,0-4.43-6.22,8.44,8.44,0,0,0-2.67-1h.19a3.32,3.32,0,0,1,.56.08,6.22,6.22,0,0,1,2,.76,8.93,8.93,0,0,1,2.58,2.25,12.8,12.8,0,0,1,2.1,4,41.76,41.76,0,0,1,1.27,5.33,28.3,28.3,0,0,0,1.64,6,11.67,11.67,0,0,0,1.71,2.84c.72.87,1.58,1.68,2.42,2.55a10.39,10.39,0,0,1,2.18,3,5.4,5.4,0,0,1,.11,3.86c-.82,2.5-2.57,4.43-2.89,6.77a3.82,3.82,0,0,0,.74,3.13,7.72,7.72,0,0,0,2.75,1.74,9.88,9.88,0,0,1,2.81,1.69,8.82,8.82,0,0,1,2.81,7.87,8.26,8.26,0,0,1-2,4.07,8.73,8.73,0,0,1-2.74,2.06,7.49,7.49,0,0,1-2.06.66c-.24.05-.43.05-.56.07A.94.94,0,0,1,330.6,325.59Z"/></g><g id="Character_1" data-name="Character 1"><path class="cls-9" d="M42.27,392.07l1.45-2.23,12.48,7.9-2.94,4.93-.82-.41c-3.63-1.85-18.31-9.65-20.25-11.73C30,388.21,42.27,392.07,42.27,392.07Z"/><g class="cls-15"><path class="cls-9" d="M48.7,399.88a5.21,5.21,0,0,1,3.17-1.9,4.32,4.32,0,0,1,3.61,1l-2.13,3.54Z"/></g><g class="cls-15"><path class="cls-9" d="M36.18,390.37s-4.42-1.11-4.31-.21,14.65,9.34,21.39,12.51l.14-.3-17-9.7S36.91,390.83,36.18,390.37Z"/></g><path class="cls-9" d="M53.61,402.48a1.28,1.28,0,0,1-.24-.11l-.65-.32-2.37-1.25c-2-1.06-4.73-2.57-7.72-4.3s-5.66-3.36-7.57-4.56L32.8,390.5l-.61-.4L32,390a.75.75,0,0,1,.22.12l.63.37,2.28,1.39c1.94,1.18,4.61,2.78,7.6,4.51s5.71,3.26,7.69,4.35l2.35,1.3.63.35Z"/><path class="cls-9" d="M36.25,392.87a7,7,0,0,0,.2-1.36,6,6,0,0,0-.27-1.34,1.93,1.93,0,0,1,.45,1.34A2,2,0,0,1,36.25,392.87Z"/><path class="cls-9" d="M41.11,393.14a1.59,1.59,0,0,1-.12-.72,1.64,1.64,0,0,1,.06-.73,1.59,1.59,0,0,1,.12.72A1.49,1.49,0,0,1,41.11,393.14Z"/><path class="cls-9" d="M42.46,393.19c-.05,0-.17-.23-.28-.56s-.15-.6-.1-.61.17.23.27.56S42.51,393.18,42.46,393.19Z"/><path class="cls-9" d="M43.81,392.37a1.74,1.74,0,0,1-.72-.3c-.37-.21-.65-.41-.62-.46a1.78,1.78,0,0,1,.71.3C43.55,392.12,43.83,392.33,43.81,392.37Z"/><path class="cls-9" d="M44.52,391.65a1.42,1.42,0,0,1-.86-.21c-.45-.22-.74-.51-.71-.55a4.36,4.36,0,0,1,.78.39A4.61,4.61,0,0,1,44.52,391.65Z"/><path class="cls-9" d="M41.32,391.78a2.79,2.79,0,0,1-.81-.48,5.27,5.27,0,0,1-.76-.7,2.77,2.77,0,0,1-.38-.49.54.54,0,0,1-.06-.38.38.38,0,0,1,.32-.25,1.73,1.73,0,0,1,1.6,1.52,1.65,1.65,0,0,1,0,.7.52.52,0,0,1-.11.23,2.52,2.52,0,0,0,0-.91,1.74,1.74,0,0,0-.43-.87,1.51,1.51,0,0,0-1-.5c-.18,0-.22.21-.12.38a2.48,2.48,0,0,0,.34.46,6.78,6.78,0,0,0,.72.71C41,391.57,41.34,391.75,41.32,391.78Z"/><path class="cls-9" d="M41.09,391.7a.91.91,0,0,1,.23-.63,1.58,1.58,0,0,1,.57-.46,1,1,0,0,1,.93,0,.39.39,0,0,1,0,.53,1,1,0,0,1-.35.28,2.59,2.59,0,0,1-.68.27,1.26,1.26,0,0,1-.66.06s.25-.05.63-.18a3.41,3.41,0,0,0,.63-.29c.21-.11.47-.37.28-.53a.84.84,0,0,0-.74,0,1.81,1.81,0,0,0-.54.4A3.79,3.79,0,0,0,41.09,391.7Z"/><path class="cls-9" d="M55.37,398.84s-.34-.24-1-.51a4.72,4.72,0,0,0-2.54-.35,4.77,4.77,0,0,0-2.34,1.07c-.51.43-.74.79-.77.77s0-.1.15-.26a4.22,4.22,0,0,1,.54-.6,4.47,4.47,0,0,1,2.39-1.15,4.54,4.54,0,0,1,2.62.4,4.27,4.27,0,0,1,.69.43C55.3,398.76,55.38,398.83,55.37,398.84Z"/><path class="cls-9" d="M47.82,397.71a8.23,8.23,0,0,1-2-.9,8.11,8.11,0,0,1-1.77-1.23s.83.49,1.86,1.08S47.84,397.66,47.82,397.71Z"/><path class="cls-9" d="M50.32,399.15c0,.05-.17.14-.37.28s-.34.29-.38.26,0-.24.28-.4S50.31,399.11,50.32,399.15Z"/><path class="cls-9" d="M51.94,398.53c0,.05-.15.13-.36.19s-.39.06-.4,0,.14-.14.35-.19S51.92,398.48,51.94,398.53Z"/><path class="cls-9" d="M53.59,398.78s-.2-.06-.43-.11-.41,0-.43-.07.19-.16.47-.1S53.63,398.74,53.59,398.78Z"/><path class="cls-9" d="M54.7,399.08c0,.05-.12.07-.25.05s-.23-.07-.22-.12.12-.07.25-.05S54.71,399,54.7,399.08Z"/><path class="cls-7" d="M146.67,382.67l-49.8-47a16.38,16.38,0,0,0-11.71-4.93h0A16.36,16.36,0,0,0,71,339L41.08,388.52l18.17,11.17,26.92-38.76,24.59,22.22Z"/><path class="cls-7" d="M161.33,385c.22.63,1.69,16.68-19.84,16.68H84a13.2,13.2,0,0,1-13.19-13.19h0A13.2,13.2,0,0,1,84,375.33h53.57a13.14,13.14,0,0,1,5.55,1.23Z"/><path class="cls-8" d="M78.86,375.33c0,.13,11.89.24,26.54.24s26.55-.11,26.55-.24-11.89-.23-26.55-.23S78.86,375.21,78.86,375.33Z"/><path class="cls-8" d="M87.74,350c-.14,0-.14,2.49-.59,5.51s-1.15,5.41-1,5.45a23.15,23.15,0,0,0,1.61-11Z"/><path class="cls-8" d="M85.3,349.6a34.68,34.68,0,0,0,1,11.24c.14,0-.22-2.52-.48-5.62S85.43,349.6,85.3,349.6Z"/><path class="cls-7" d="M129.91,279a1.68,1.68,0,0,0,2.71,1.5c1-.76.82-2.29.38-3.45s-1.11-2.37-.83-3.58a8.13,8.13,0,0,1,1.48-2.42,5.4,5.4,0,0,0,.59-4.76,4.53,4.53,0,0,0-3.73-2.89c-1.68-.13-3.56.74-5-.18-1-.67-1.35-2-2.21-2.91-1.34-1.35-3.58-1.17-5.38-.56s-3.58,1.58-5.48,1.48c-1.59-.08-3-.9-4.58-1.27a8.34,8.34,0,0,0-8.47,13.31c.78,1,2.52,3.86,6,3.14"/><path class="cls-6" d="M127.94,265.85l.46,2.5,7.23,37.3c.84,4.33-2.22,8.5-6.86,9.37h0c-4.69.87-9.23-2-10.15-6.32-1-4.58-2.07-9.38-2.07-9.38s-6.1.25-8.92-7.2c-1.41-3.7-2.52-10-3.26-15.21a8.31,8.31,0,0,1,7.39-9.45Z"/><path class="cls-7" d="M107.35,281.92a1,1,0,0,0,1.15.8,1,1,0,0,0,.84-1.1,1,1,0,0,0-1.16-.8A1,1,0,0,0,107.35,281.92Z"/><path class="cls-7" d="M106.41,279.89c.15.1.78-.61,1.84-.83s2,.16,2,0-.12-.27-.51-.45a2.76,2.76,0,0,0-1.67-.16,2.65,2.65,0,0,0-1.44.82C106.4,279.59,106.34,279.84,106.41,279.89Z"/><path class="cls-7" d="M117.83,279.78a1,1,0,0,0,1.16.8,1,1,0,0,0,.83-1.11,1,1,0,0,0-1.16-.8A1,1,0,0,0,117.83,279.78Z"/><path class="cls-7" d="M116.89,277.92c.15.1.79-.61,1.85-.83s2,.16,2,0-.13-.27-.52-.45a2.76,2.76,0,0,0-1.67-.16,2.62,2.62,0,0,0-1.43.82C116.88,277.62,116.82,277.87,116.89,277.92Z"/><path class="cls-7" d="M114.67,286.6a7.32,7.32,0,0,0-1.79,0c-.27,0-.54,0-.63-.14a1.45,1.45,0,0,1,0-.85c.12-.7.24-1.45.37-2.23a35.08,35.08,0,0,0,.68-5.78,36.23,36.23,0,0,0-1.14,5.71c-.12.78-.23,1.53-.34,2.24a1.63,1.63,0,0,0,.08,1.1.73.73,0,0,0,.53.3,1.68,1.68,0,0,0,.47,0A7.38,7.38,0,0,0,114.67,286.6Z"/><path class="cls-11" d="M116.55,299.32a20,20,0,0,0,9.74-4.89s-1.4,5.81-9.26,6.69Z"/><path class="cls-7" d="M118,286.68c-.17,0,.07,1.18-.75,2.21s-2.07,1.15-2,1.31.32.17.84.07a2.86,2.86,0,0,0,1.73-1,2.57,2.57,0,0,0,.55-1.83C118.22,286.92,118,286.66,118,286.68Z"/><path class="cls-7" d="M115.75,273.81c.17.27,1.2-.09,2.48-.2s2.36,0,2.47-.27c0-.14-.19-.37-.65-.57a4,4,0,0,0-1.93-.25,4.11,4.11,0,0,0-1.84.61C115.86,273.41,115.68,273.68,115.75,273.81Z"/><path class="cls-7" d="M106.16,276.73c.24.2.92-.2,1.8-.39s1.65-.18,1.77-.47c0-.13-.11-.35-.49-.51a2.49,2.49,0,0,0-1.54-.09,2.56,2.56,0,0,0-1.34.78C106.1,276.36,106.05,276.63,106.16,276.73Z"/><path class="cls-7" d="M103.4,273.54s4.36,1.25,9.14-2.28c3.13-2.31,7-3.85,8-3.31s1.8,4,5.38,4.47c0,0,1,6.79,3.6,6.08s-.55-14.07-.55-14.07l-7.46,1.14-7.41-.1-6.61,2.14-5,2.35Z"/><path class="cls-7" d="M128.74,262.48c0-.11-.66-.21-1.34.21s-.9,1.07-.8,1.11.43-.41,1-.76S128.75,262.6,128.74,262.48Z"/><path class="cls-7" d="M126.05,260.68c-.12,0,.09.81.14,1.75s-.21,1.68-.1,1.73a2.12,2.12,0,0,0,.51-1.75A2.63,2.63,0,0,0,126.05,260.68Z"/><path class="cls-6" d="M128.78,275.77c.1-.07,4.13-2.45,5.11,2s-3.72,4.54-3.76,4.42S128.78,275.77,128.78,275.77Z"/><path class="cls-11" d="M131.13,280.22s.09,0,.24.07a.78.78,0,0,0,.58-.12,2,2,0,0,0,.52-1.92,2.74,2.74,0,0,0-.46-1.07.92.92,0,0,0-.72-.47.4.4,0,0,0-.42.31c0,.14,0,.22,0,.23s-.12-.05-.12-.24a.49.49,0,0,1,.12-.32.58.58,0,0,1,.4-.21,1.14,1.14,0,0,1,1,.52,2.66,2.66,0,0,1,.54,1.19,2.08,2.08,0,0,1-.71,2.18.88.88,0,0,1-.74,0C131.16,280.33,131.12,280.23,131.13,280.22Z"/><polygon class="cls-2" points="122.56 374.96 122.56 372 80.49 372.86 56.27 334.16 54.05 335.76 78.86 375.33 122.56 374.96"/><path class="cls-6" d="M93.46,362.06l-2.12,3.14v6.46a1.39,1.39,0,0,0,1.53-.62,25.71,25.71,0,0,0,1-3.87l1,2.65a2.28,2.28,0,0,0,2.68,1.39l7.8-2-3.18-9.11Z"/><path class="cls-9" d="M131.22,301a11.5,11.5,0,0,1,8.45.57c3.93,1.86,7.56,6.81,9.76,12.59s7.72,15.6,12,32.47c3.74,14.72,8.62,30.21,4.57,35.72l-.08.11a8.34,8.34,0,0,1-9.52,2.85l-4-1.41a69.37,69.37,0,0,1-23.4-14.09l-13.79-12.58,5.53-4.2s-4.3-27.39-2.5-37.82C119.84,306.17,126.58,302.46,131.22,301Z"/><path class="cls-9" d="M140.14,314.12l7.7,36a12.89,12.89,0,0,1-8.19,14.8l-33.45,6.41L102,358.84h0l27.14-8.46-8-34.76Z"/><path class="cls-9" d="M148.12,356.94s0,.07-.05.21l-.13.62c0,.14-.05.29-.09.46l-.19.54-.23.62-.37.67a8.82,8.82,0,0,1-2.7,2.86,15.13,15.13,0,0,1-4.91,2.14l-33.09,6.06.22.13c-1.38-3.95-2.83-8.13-4.35-12.48l-.14.28,27.15-8.45.21-.07-.06-.21-1.49-5.84c-1.57-6.3-3.05-12.46-4.34-18.45-.63-3-1.23-5.94-1.64-8.85-.12-.72-.11-1.44-.18-2.16a9.2,9.2,0,0,1,.24-2.1,8.7,8.7,0,0,1,1.85-3.69,9,9,0,0,1,7.09-3.17,9.25,9.25,0,0,1,6.59,3.33,17.38,17.38,0,0,1,3.39,6.25,55.53,55.53,0,0,1,1.54,6.48c1.64,8.34,3,15.09,3.9,19.78.47,2.32.83,4.13,1.08,5.37l.3,1.4c.07.31.11.47.11.47a4.44,4.44,0,0,0-.07-.48c-.06-.33-.14-.8-.24-1.4-.24-1.26-.57-3.07-1-5.39-.89-4.7-2.18-11.46-3.76-19.81a55.48,55.48,0,0,0-1.52-6.53,17.71,17.71,0,0,0-3.45-6.4,9.66,9.66,0,0,0-6.86-3.48,9.45,9.45,0,0,0-7.42,3.31,9.14,9.14,0,0,0-2,3.86,10.17,10.17,0,0,0-.25,2.2c.07.74.07,1.49.19,2.22.41,2.93,1,5.88,1.63,8.89,1.28,6,2.76,12.16,4.34,18.46.51,2,1,4,1.49,5.84l.15-.27L102,358.64l-.21.07.07.21,4.39,12.46.05.16.17,0c13.69-2.56,25.09-4.65,33.08-6.22a15.31,15.31,0,0,0,5-2.22,8.84,8.84,0,0,0,2.71-2.95l.36-.68.22-.64c.06-.2.12-.38.18-.55l.07-.47.1-.63C148.12,357,148.13,356.94,148.12,356.94Z"/><path class="cls-9" d="M133.84,355.09s.1-.42-.07-1.08a5,5,0,0,0-1.35-2.23,4.84,4.84,0,0,0-2.28-1.25c-.66-.15-1.08-.08-1.08,0s.39.13,1,.34a6,6,0,0,1,2.06,1.27,5.85,5.85,0,0,1,1.36,2C133.69,354.7,133.76,355.1,133.84,355.09Z"/><g class="cls-16"><path class="cls-9" d="M140.92,313.64A206.94,206.94,0,0,1,149,352.07a31.15,31.15,0,0,1,.18,9,10,10,0,0,1-12.7,8.81c-2.78-.53-7.27-1.14-9.82-2.35l15-3.08s9.65-.6,5.51-19.08S140.92,313.64,140.92,313.64Z"/></g><path class="cls-9" d="M119.26,314.12l-2.71-8.47,17.7-11.75,2.4,8.26s-9.19,1-11.58,3.49S119.26,314.12,119.26,314.12Z"/><path class="cls-7" d="M120.16,308.91a5.91,5.91,0,0,1-1-2.28,6.3,6.3,0,0,1-.5-2.43,6.1,6.1,0,0,1,1,2.28A6.3,6.3,0,0,1,120.16,308.91Z"/><path class="cls-7" d="M123.54,306.8a6.1,6.1,0,0,1-1-2.28,6.3,6.3,0,0,1-.5-2.43,5.91,5.91,0,0,1,1,2.28A6.3,6.3,0,0,1,123.54,306.8Z"/><path class="cls-7" d="M126.92,304.69a6.1,6.1,0,0,1-1-2.28,6.31,6.31,0,0,1-.5-2.44,12,12,0,0,1,1.49,4.72Z"/><path class="cls-7" d="M130,302.79a11.59,11.59,0,0,1-1.49-4.72,6.1,6.1,0,0,1,1,2.28A6.34,6.34,0,0,1,130,302.79Z"/><path class="cls-7" d="M133.2,300.5a6.09,6.09,0,0,1-1-2.27,6,6,0,0,1-.49-2.44,6.1,6.1,0,0,1,1,2.28A6,6,0,0,1,133.2,300.5Z"/><path class="cls-2" d="M104.72,365.92a5.19,5.19,0,0,1,.84-.27L108,365l8.93-2.39,13.26-3.49,3.83-1a11.19,11.19,0,0,0,1.91-.58,5.27,5.27,0,0,0,3.1-4.84,8.16,8.16,0,0,0-.35-2.08c-.19-.72-.37-1.43-.55-2.16-2.89-11.53-5.51-22-7.41-29.58-.92-3.76-1.66-6.81-2.19-9l-.57-2.45a4.29,4.29,0,0,1-.16-.86,7.81,7.81,0,0,1,.26.83c.17.6.39,1.41.67,2.43.56,2.16,1.36,5.2,2.34,8.94,1.95,7.6,4.62,18,7.57,29.55l.54,2.15a8.45,8.45,0,0,1,.37,2.21,5.83,5.83,0,0,1-3.41,5.3,12,12,0,0,1-2,.61l-3.83,1L117,362.93l-9,2.24-2.45.58A6.4,6.4,0,0,1,104.72,365.92Z"/><path class="cls-2" d="M105.4,367.87l.22-.08.66-.2,2.52-.72,9.31-2.54,13.83-3.7,4-1.07c.67-.18,1.4-.34,2-.56a5.3,5.3,0,0,0,3.51-4.83,6.64,6.64,0,0,0-.34-2.17c-.2-.74-.4-1.49-.61-2.24-3.2-12-6.11-22.85-8.22-30.77l-2.44-9.34c-.27-1.07-.48-1.92-.63-2.54-.06-.27-.12-.49-.16-.67a.67.67,0,0,1,0-.23.61.61,0,0,1,.08.22c.06.17.13.39.21.65.18.62.42,1.46.73,2.52.62,2.24,1.51,5.41,2.59,9.3,2.16,7.9,5.11,18.75,8.38,30.73l.6,2.24a7.18,7.18,0,0,1,.36,2.32,5.78,5.78,0,0,1-1.92,4.13,6,6,0,0,1-1.94,1.16c-.73.23-1.39.37-2.08.57l-4,1-13.85,3.6-9.36,2.38-2.55.62-.66.15A.72.72,0,0,1,105.4,367.87Z"/></g><g id="Plants"><path class="cls-9" d="M206,372.41c-1.33,1.89-3.9,1.27-5.09.11a9.56,9.56,0,0,1-2.16-4.42c-1.05-3.65-2.11-7.47-1.33-11.19a6.17,6.17,0,0,1,1.43-3,3.26,3.26,0,0,1,3.08-1c1.29.34,2.1,1.61,2.68,2.82a26.56,26.56,0,0,1,2.64,11.44,9.21,9.21,0,0,1-1.25,5.3"/><g class="cls-16"><path d="M206,372.41c-1.33,1.89-3.9,1.27-5.09.11a9.56,9.56,0,0,1-2.16-4.42c-1.05-3.65-2.11-7.47-1.33-11.19a6.17,6.17,0,0,1,1.43-3,3.26,3.26,0,0,1,3.08-1c1.29.34,2.1,1.61,2.68,2.82a26.56,26.56,0,0,1,2.64,11.44,9.21,9.21,0,0,1-1.25,5.3"/></g><path class="cls-9" d="M201,382a11.47,11.47,0,0,0-7.13-.86,5.86,5.86,0,0,0-3.51,1.57,2.53,2.53,0,0,0,0,3.51,3.34,3.34,0,0,0,2.22.56c1.88,0,4-.35,5.47.78.86.65,1.43,1.72,2.46,2a2.43,2.43,0,0,0,2.67-1.19,4.15,4.15,0,0,0,.3-3.06A4.67,4.67,0,0,0,201,382Z"/><path class="cls-9" d="M209.64,375.13a6.89,6.89,0,0,1-1.08-6.34,12.15,12.15,0,0,1,3.76-5.44,20.23,20.23,0,0,1,6.72-4,7.13,7.13,0,0,1,3-.51,3.16,3.16,0,0,1,2.53,1.54c.71,1.34,0,3-.7,4.31a50.84,50.84,0,0,1-4.41,6.72,12,12,0,0,1-4.86,4.16c-2,.77-4.11.68-5.18-.72"/><path class="cls-7" d="M206.09,401a3.37,3.37,0,0,1-.12-.86c-.06-.63-.14-1.41-.23-2.35a32.87,32.87,0,0,0-.53-3.44,26.24,26.24,0,0,0-1.25-4.06,15,15,0,0,0-2.07-3.67,7.71,7.71,0,0,0-2.62-2.18,7.28,7.28,0,0,0-2.21-.69,5.36,5.36,0,0,1-.86-.12,3.68,3.68,0,0,1,.87,0,6.72,6.72,0,0,1,2.3.6,7.66,7.66,0,0,1,2.77,2.2,14.61,14.61,0,0,1,2.15,3.75,24.53,24.53,0,0,1,1.24,4.13,29.68,29.68,0,0,1,.46,3.48c.07,1,.1,1.8.12,2.36A4.53,4.53,0,0,1,206.09,401Z"/><path class="cls-7" d="M205.93,399.14s0-.13,0-.39,0-.68,0-1.14c0-1,0-2.43,0-4.2-.09-3.53-.4-8.42-1-13.79s-1.38-10.2-2.1-13.66c-.17-.87-.34-1.65-.5-2.34s-.28-1.27-.41-1.75l-.27-1.11a3,3,0,0,1-.07-.39s.06.12.14.37.2.65.33,1.09.3,1.06.47,1.75.37,1.46.56,2.33a131.1,131.1,0,0,1,2.2,13.67c.59,5.38.85,10.28.88,13.83,0,1.77,0,3.21-.07,4.2,0,.46,0,.84-.07,1.14A2.14,2.14,0,0,1,205.93,399.14Z"/><path class="cls-7" d="M205.9,389.7a8.35,8.35,0,0,1,0-1.19,30.66,30.66,0,0,1,.37-3.23,39.44,39.44,0,0,1,1.05-4.71,40.94,40.94,0,0,1,2-5.56,29.63,29.63,0,0,1,5.78-9,13.81,13.81,0,0,1,1.36-1.26c.21-.17.39-.35.58-.49l.53-.36a7.61,7.61,0,0,1,1-.65,37,37,0,0,0-3.29,2.94,31.19,31.19,0,0,0-5.63,9,44.09,44.09,0,0,0-2,5.51,47.17,47.17,0,0,0-1.12,4.66c-.24,1.34-.39,2.44-.47,3.2A6.49,6.49,0,0,1,205.9,389.7Z"/><path class="cls-9" d="M600.93,386c-.56-2.21.9-4.42,2.53-6s3.58-3,4.43-5.13c1.39-3.42-.42-7.87,1.93-10.72,1.38-1.67,3.84-2.22,5.07-4A9.16,9.16,0,0,0,616,357a32.66,32.66,0,0,1,8.2-15.15,28.32,28.32,0,0,1-3.27,14.63c-1,1.79-2.12,3.54-2.45,5.54-.52,3.26,1.28,6.63.46,9.83-.94,3.65-5.07,6.08-5.28,9.85-.18,3.18,2.58,6,2.35,9.18a8.47,8.47,0,0,1-1.44,3.77c-2.48,4.08-6.12,6.88-11.61,6.76l-6.72.2Z"/><g class="cls-10"><path d="M600.93,386c-.56-2.21.9-4.42,2.53-6s3.58-3,4.43-5.13c1.39-3.42-.42-7.87,1.93-10.72,1.38-1.67,3.84-2.22,5.07-4A9.16,9.16,0,0,0,616,357a32.66,32.66,0,0,1,8.2-15.15,28.32,28.32,0,0,1-3.27,14.63c-1,1.79-2.12,3.54-2.45,5.54-.52,3.26,1.28,6.63.46,9.83-.94,3.65-5.07,6.08-5.28,9.85-.18,3.18,2.58,6,2.35,9.18a8.47,8.47,0,0,1-1.44,3.77c-2.48,4.08-6.12,6.88-11.61,6.76l-6.72.2Z"/></g><path class="cls-7" d="M594.89,401.74a5.55,5.55,0,0,1-1.85-.05,11.05,11.05,0,0,1-2.18-.57,9.36,9.36,0,0,1-2.69-1.49,3.79,3.79,0,0,1-1.1-1.48,7,7,0,0,1-.3-2,18.3,18.3,0,0,0-.15-2.18,5.82,5.82,0,0,0-.81-2.16c-.78-1.4-2.09-2.72-2.5-4.62a15.24,15.24,0,0,1,.21-5.88,12.44,12.44,0,0,0-.12-6.32c-.71-2.1-2.17-4-2.89-6.38s-.37-5-.51-7.51a9.94,9.94,0,0,0-.85-3.74c-.54-1.19-1.29-2.32-1.87-3.57-1.18-2.54-1.37-5.41-1.68-8.22-.15-1.42-.3-2.85-.46-4.3a20.89,20.89,0,0,0-.72-4.3,40,40,0,0,0-1.58-4.17,13.93,13.93,0,0,1-.77-2.17,23.24,23.24,0,0,1-.21-2.32,27.9,27.9,0,0,1,.21-4.65c.19-1.55.48-3.08.66-4.64l0-.26,0-.31.28.14a10.27,10.27,0,0,1,3.6,3.07,16.64,16.64,0,0,1,2.2,4.11,51,51,0,0,1,2,8.81,24.13,24.13,0,0,0,2.71,8.14c.73,1.2,1.62,2.3,2.39,3.47a9.59,9.59,0,0,1,1.65,3.84c.38,2.85-1.2,5.33-.89,7.85a8.7,8.7,0,0,0,1.21,3.5c.6,1.07,1.31,2.07,2,3.08a19.65,19.65,0,0,1,1.78,3.11,9.83,9.83,0,0,1,.81,3.37c.15,2.27-.18,4.42,0,6.45a14.9,14.9,0,0,0,1.63,5.53c.8,1.66,1.7,3.16,2.45,4.61.37.73.72,1.44,1,2.15a10.26,10.26,0,0,1,.58,2.13,13.69,13.69,0,0,1,0,3.83,9.78,9.78,0,0,1-2,4.88,5.42,5.42,0,0,1-.55.59,2.61,2.61,0,0,1-.44.37l-.39.27a8.69,8.69,0,0,0,1.31-1.28,9.64,9.64,0,0,0,1.85-4.85,13.41,13.41,0,0,0-.06-3.78,11,11,0,0,0-.58-2.08c-.29-.69-.64-1.4-1-2.12-.75-1.44-1.66-2.93-2.48-4.6a15.17,15.17,0,0,1-1.68-5.63c-.17-2.07.16-4.23,0-6.44a9.61,9.61,0,0,0-.79-3.26,19.61,19.61,0,0,0-1.77-3.05c-.67-1-1.39-2-2-3.1a9.13,9.13,0,0,1-1.26-3.64c-.31-2.68,1.26-5.19.87-7.83a9,9,0,0,0-1.59-3.67c-.76-1.15-1.65-2.25-2.4-3.48a24.56,24.56,0,0,1-2.78-8.28,50.29,50.29,0,0,0-2-8.74,16.09,16.09,0,0,0-2.15-4,10,10,0,0,0-3.44-3l.31-.17,0,.27c-.17,1.57-.46,3.11-.65,4.65a27,27,0,0,0-.21,4.57,20.45,20.45,0,0,0,.2,2.25,13.14,13.14,0,0,0,.74,2.1,39.6,39.6,0,0,1,1.6,4.21,22.17,22.17,0,0,1,.73,4.37c.15,1.45.3,2.88.45,4.3.3,2.83.5,5.65,1.63,8.1.56,1.22,1.31,2.35,1.86,3.58a10.38,10.38,0,0,1,.88,3.88c.13,2.59-.22,5.12.47,7.43s2.14,4.2,2.87,6.37a12.7,12.7,0,0,1,.1,6.47,15.22,15.22,0,0,0-.25,5.78c.38,1.81,1.65,3.12,2.45,4.56a6,6,0,0,1,.82,2.25,16.92,16.92,0,0,1,.13,2.2,6.7,6.7,0,0,0,.28,1.95,3.48,3.48,0,0,0,1,1.42,8.91,8.91,0,0,0,2.63,1.5,10.81,10.81,0,0,0,2.15.6,8.59,8.59,0,0,0,1.36.14Z"/><path class="cls-7" d="M574.11,322.45a.64.64,0,0,1,.06.21l.15.6c.13.53.28,1.33.53,2.33s.86,2.13,1.37,3.52a47.13,47.13,0,0,1,1.57,4.78c.51,1.79,1,3.78,1.41,5.92a25,25,0,0,0,2.11,6.57c.55,1.1,1.16,2.21,1.65,3.42a15.57,15.57,0,0,1,.94,3.86,79.39,79.39,0,0,0,1.41,8.14c1.31,5.51,2.57,10.76,3.71,15.54s2.22,9.07,3.11,12.69,1.57,6.5,2.06,8.55l.54,2.34c0,.24.1.44.13.61a.55.55,0,0,1,0,.21.8.8,0,0,1-.07-.2l-.17-.6-.62-2.31-2.2-8.53c-.91-3.61-2-7.9-3.2-12.66s-2.42-10-3.74-15.55a75.13,75.13,0,0,1-1.4-8.17,15.87,15.87,0,0,0-.91-3.77c-.47-1.18-1.08-2.28-1.62-3.39a25,25,0,0,1-2.11-6.68c-.45-2.14-.87-4.12-1.35-5.91s-1-3.39-1.5-4.77-1.07-2.53-1.31-3.56-.35-1.82-.46-2.36c0-.25-.07-.45-.1-.61A.72.72,0,0,1,574.11,322.45Z"/><path class="cls-9" d="M593.71,401.75c-4.38-2.63-5.59-10.56-3.74-15.31s5.09-9.1,5.61-14.18c.41-3.9-.85-7.92.08-11.73,1.26-5.15,6.31-9.11,6.28-14.41,0-3-1.69-5.77-1.53-8.74.18-3.64,3-6.52,4.74-9.72,2.68-4.89,2.89-10.7,3.82-16.2s3.07-11.38,8-14.06c.69,4.68,1.91,7.89,1.48,14.22-.15,2.27-2.82,6.61-3.2,11.59-.23,3-.4,6-.6,8.94a28.67,28.67,0,0,1-1.45,8.56c-.81,2.08-2.1,4-2.71,6.11-1.13,4,.3,8.41-.62,12.5-.78,3.46-3.2,6.43-3.71,9.95-.71,4.93,2.46,10.09.79,14.79-.82,2.33-2.76,4.2-3.32,6.61-.43,1.87,0,3.86-.38,5.74-.63,3-6.43,5.35-9.51,5.14"/><path class="cls-7" d="M615.7,302a1.1,1.1,0,0,1,0,.27c0,.19-.06.45-.1.76-.11.68-.22,1.67-.46,2.95s-.92,2.73-1.47,4.48-1.13,3.75-1.64,6-1,4.74-1.4,7.42a31.1,31.1,0,0,1-2.3,8.39c-.62,1.4-1.32,2.8-1.85,4.29a19.35,19.35,0,0,0-1,4.74,96.39,96.39,0,0,1-1.35,10.21c-1.38,6.92-2.7,13.51-3.9,19.51s-2.4,11.36-3.35,15.89-1.75,8.15-2.3,10.7c-.28,1.24-.5,2.21-.65,2.91q-.11.46-.18.75a1.61,1.61,0,0,1-.07.25.86.86,0,0,1,0-.26c0-.19.08-.44.13-.76.14-.7.33-1.68.57-2.92.52-2.57,1.26-6.22,2.17-10.73s2-9.93,3.26-15.91,2.5-12.58,3.87-19.5a95.86,95.86,0,0,0,1.35-10.18,20,20,0,0,1,1-4.84c.55-1.52,1.25-2.93,1.88-4.32a30.92,30.92,0,0,0,2.31-8.28c.47-2.68.92-5.17,1.45-7.43a62.32,62.32,0,0,1,1.72-6c.56-1.76,1.26-3.19,1.53-4.45s.4-2.25.53-2.92c.06-.32.11-.57.15-.76A2,2,0,0,1,615.7,302Z"/></g><g id="Lines"><path class="cls-7" d="M313.33,260.42c-.14,0-.26-17.91-.26-40s.12-40,.26-40,.26,17.91.26,40S313.48,260.42,313.33,260.42Z"/><path class="cls-7" d="M148.13,258s0-.18,0-.54,0-.9,0-1.62c0-1.48,0-3.68,0-6.68v-.08h.08c21.5-.11,87.46-.18,165.35-.18l163,.17h.09v.09q0,5.58,0,8.41c0,.93,0,1.63,0,2.11s0,.71,0,.71,0-.24,0-.71,0-1.18,0-2.11q0-2.84,0-8.41l.09.09-163,.17c-77.89,0-143.85-.08-165.35-.18l.08-.08c0,3,0,5.2,0,6.68,0,.72,0,1.25,0,1.62S148.13,258,148.13,258Z"/><path class="cls-7" d="M258.49,75.15c.15,0,.26,10.2.26,22.79s-.11,22.79-.26,22.79-.26-10.2-.26-22.79S258.35,75.15,258.49,75.15Z"/><path class="cls-7" d="M369.88,75.15c.15,0,.26,10.2.26,22.79s-.11,22.79-.26,22.79-.26-10.2-.26-22.79S369.74,75.15,369.88,75.15Z"/><path class="cls-7" d="M475.89,68.39s0,.3,0,.9,0,1.49,0,2.65c0,2.35,0,5.81,0,10.29,0,9,0,22.06.08,38.5v.17h-.17l-161,.09-166.19-.1h-.16v-.16c0-14.89.05-26.68.07-34.76,0-4,0-7.13,0-9.23,0-1,0-1.84,0-2.38s0-.81,0-.81,0,.28,0,.81,0,1.34,0,2.38c0,2.1,0,5.2,0,9.23,0,8.08,0,19.87.07,34.76l-.16-.16,166.19-.1,161,.09-.17.17c0-16.44.06-29.52.08-38.5,0-4.48,0-7.94,0-10.29,0-1.16,0-2,0-2.65S475.89,68.39,475.89,68.39Z"/><path class="cls-7" d="M315.87,158.43c-.14,0-.26-8.44-.26-18.85s.12-18.85.26-18.85.26,8.44.26,18.85S316,158.43,315.87,158.43Z"/></g><g id="Server"><rect class="cls-7" x="263.22" y="155.21" width="101.66" height="83.69"/><rect class="cls-8" x="248.38" y="177.52" width="111.13" height="27.57"/><rect class="cls-7" x="253.31" y="183.2" width="21.88" height="3.37"/><rect class="cls-7" x="253.31" y="188.99" width="21.88" height="3.37"/><rect class="cls-7" x="253.31" y="194.98" width="21.88" height="3.37"/><path class="cls-7" d="M283.84,185.23a1.26,1.26,0,1,1-1.25-1.25A1.25,1.25,0,0,1,283.84,185.23Z"/><path class="cls-7" d="M289.38,185.23a1.26,1.26,0,1,1-1.25-1.25A1.25,1.25,0,0,1,289.38,185.23Z"/><path class="cls-7" d="M294.92,185.23a1.26,1.26,0,1,1-1.25-1.25A1.25,1.25,0,0,1,294.92,185.23Z"/><path class="cls-7" d="M300.46,185.23a1.26,1.26,0,1,1-1.25-1.25A1.25,1.25,0,0,1,300.46,185.23Z"/><path class="cls-7" d="M343.38,185.23a1.26,1.26,0,1,1-1.25-1.25A1.25,1.25,0,0,1,343.38,185.23Z"/><path class="cls-7" d="M349,185.23a1.26,1.26,0,1,1-1.25-1.25A1.25,1.25,0,0,1,349,185.23Z"/><path class="cls-7" d="M306,185.23a1.26,1.26,0,1,1-1.26-1.25A1.25,1.25,0,0,1,306,185.23Z"/><path class="cls-7" d="M333.2,185.23A1.26,1.26,0,1,1,332,184,1.25,1.25,0,0,1,333.2,185.23Z"/><path class="cls-1" d="M311.54,185.23a1.26,1.26,0,1,1-1.26-1.25A1.25,1.25,0,0,1,311.54,185.23Z"/><path class="cls-1" d="M317.08,185.23a1.26,1.26,0,1,1-1.26-1.25A1.25,1.25,0,0,1,317.08,185.23Z"/><path class="cls-1" d="M328.32,185.23a1.26,1.26,0,1,1-1.26-1.25A1.26,1.26,0,0,1,328.32,185.23Z"/><path class="cls-1" d="M353.63,185.23a1.26,1.26,0,1,1-1.26-1.25A1.25,1.25,0,0,1,353.63,185.23Z"/><path class="cls-12" d="M322.62,185.23a1.26,1.26,0,1,1-1.26-1.25A1.25,1.25,0,0,1,322.62,185.23Z"/><path class="cls-12" d="M338.48,185.23a1.26,1.26,0,1,1-1.26-1.25A1.25,1.25,0,0,1,338.48,185.23Z"/><path class="cls-7" d="M351.12,191.28a1.26,1.26,0,1,1,1.25,1.26A1.25,1.25,0,0,1,351.12,191.28Z"/><circle class="cls-7" cx="346.83" cy="191.28" r="1.26"/><path class="cls-7" d="M340,191.28a1.26,1.26,0,1,1,1.26,1.26A1.25,1.25,0,0,1,340,191.28Z"/><circle class="cls-7" cx="335.76" cy="191.28" r="1.26"/><circle class="cls-7" cx="292.83" cy="191.28" r="1.26"/><path class="cls-7" d="M285.93,191.28a1.26,1.26,0,1,1,1.25,1.26A1.25,1.25,0,0,1,285.93,191.28Z"/><path class="cls-7" d="M329,191.28a1.26,1.26,0,1,1,1.26,1.26A1.25,1.25,0,0,1,329,191.28Z"/><path class="cls-7" d="M301.76,191.28a1.26,1.26,0,1,1,1.25,1.26A1.25,1.25,0,0,1,301.76,191.28Z"/><path class="cls-1" d="M323.42,191.28a1.26,1.26,0,1,1,1.26,1.26A1.25,1.25,0,0,1,323.42,191.28Z"/><path class="cls-1" d="M317.88,191.28a1.26,1.26,0,1,1,1.26,1.26A1.26,1.26,0,0,1,317.88,191.28Z"/><path class="cls-1" d="M306.65,191.28a1.26,1.26,0,1,1,1.25,1.26A1.25,1.25,0,0,1,306.65,191.28Z"/><circle class="cls-1" cx="282.59" cy="191.28" r="1.26"/><path class="cls-12" d="M312.34,191.28a1.26,1.26,0,1,1,1.26,1.26A1.26,1.26,0,0,1,312.34,191.28Z"/><circle class="cls-12" cx="297.74" cy="191.28" r="1.26"/><circle class="cls-7" cx="282.59" cy="196.67" r="1.26"/><path class="cls-7" d="M289.38,196.67a1.26,1.26,0,1,1-1.25-1.26A1.25,1.25,0,0,1,289.38,196.67Z"/><circle class="cls-7" cx="293.67" cy="196.67" r="1.26"/><path class="cls-7" d="M300.46,196.67a1.26,1.26,0,1,1-1.25-1.26A1.25,1.25,0,0,1,300.46,196.67Z"/><path class="cls-7" d="M343.38,196.67a1.26,1.26,0,1,1-1.25-1.26A1.25,1.25,0,0,1,343.38,196.67Z"/><circle class="cls-7" cx="347.78" cy="196.67" r="1.26"/><circle class="cls-7" cx="304.74" cy="196.67" r="1.26"/><circle class="cls-7" cx="331.95" cy="196.67" r="1.26"/><path class="cls-1" d="M311.54,196.67a1.26,1.26,0,1,1-1.26-1.26A1.25,1.25,0,0,1,311.54,196.67Z"/><path class="cls-1" d="M317.08,196.67a1.26,1.26,0,1,1-1.26-1.26A1.25,1.25,0,0,1,317.08,196.67Z"/><circle class="cls-1" cx="327.06" cy="196.67" r="1.26"/><path class="cls-1" d="M353.63,196.67a1.26,1.26,0,1,1-1.26-1.26A1.25,1.25,0,0,1,353.63,196.67Z"/><circle class="cls-12" cx="321.36" cy="196.67" r="1.26"/><path class="cls-12" d="M338.48,196.67a1.26,1.26,0,1,1-1.26-1.26A1.25,1.25,0,0,1,338.48,196.67Z"/><rect class="cls-8" x="248.38" y="211.55" width="111.13" height="27.57"/><circle class="cls-7" cx="282.31" cy="218.98" r="1.26"/><path class="cls-7" d="M289.11,219a1.26,1.26,0,1,1-1.26-1.25A1.25,1.25,0,0,1,289.11,219Z"/><circle class="cls-7" cx="293.39" cy="218.98" r="1.26"/><path class="cls-7" d="M300.19,219a1.26,1.26,0,1,1-1.26-1.25A1.26,1.26,0,0,1,300.19,219Z"/><path class="cls-7" d="M343.11,219a1.26,1.26,0,1,1-1.26-1.25A1.25,1.25,0,0,1,343.11,219Z"/><circle class="cls-7" cx="347.5" cy="218.98" r="1.26"/><circle class="cls-7" cx="304.47" cy="218.98" r="1.26"/><circle class="cls-7" cx="331.67" cy="218.98" r="1.26"/><path class="cls-1" d="M311.26,219a1.26,1.26,0,1,1-1.25-1.25A1.25,1.25,0,0,1,311.26,219Z"/><circle class="cls-1" cx="315.55" cy="218.98" r="1.26"/><circle class="cls-1" cx="326.79" cy="218.98" r="1.26"/><path class="cls-1" d="M353.35,219a1.26,1.26,0,1,1-1.25-1.25A1.25,1.25,0,0,1,353.35,219Z"/><path class="cls-12" d="M322.34,219a1.26,1.26,0,1,1-1.25-1.25A1.25,1.25,0,0,1,322.34,219Z"/><path class="cls-12" d="M338.2,219a1.26,1.26,0,1,1-1.25-1.25A1.25,1.25,0,0,1,338.2,219Z"/><path class="cls-7" d="M350.84,225a1.26,1.26,0,1,1,1.26,1.26A1.26,1.26,0,0,1,350.84,225Z"/><path class="cls-7" d="M345.3,225a1.26,1.26,0,1,1,1.26,1.26A1.26,1.26,0,0,1,345.3,225Z"/><path class="cls-7" d="M339.76,225a1.26,1.26,0,1,1,1.26,1.26A1.26,1.26,0,0,1,339.76,225Z"/><path class="cls-7" d="M334.23,225a1.26,1.26,0,1,1,1.25,1.26A1.25,1.25,0,0,1,334.23,225Z"/><path class="cls-7" d="M291.3,225a1.26,1.26,0,1,1,1.26,1.26A1.25,1.25,0,0,1,291.3,225Z"/><path class="cls-7" d="M285.65,225a1.26,1.26,0,1,1,1.26,1.26A1.26,1.26,0,0,1,285.65,225Z"/><path class="cls-7" d="M328.69,225a1.26,1.26,0,1,1,1.25,1.26A1.25,1.25,0,0,1,328.69,225Z"/><path class="cls-7" d="M301.48,225a1.26,1.26,0,1,1,1.26,1.26A1.26,1.26,0,0,1,301.48,225Z"/><path class="cls-1" d="M323.15,225a1.26,1.26,0,1,1,1.25,1.26A1.25,1.25,0,0,1,323.15,225Z"/><path class="cls-1" d="M317.61,225a1.26,1.26,0,1,1,1.25,1.26A1.25,1.25,0,0,1,317.61,225Z"/><path class="cls-1" d="M306.37,225a1.26,1.26,0,1,1,1.26,1.26A1.25,1.25,0,0,1,306.37,225Z"/><path class="cls-1" d="M281.06,225a1.26,1.26,0,1,1,1.25,1.26A1.25,1.25,0,0,1,281.06,225Z"/><path class="cls-12" d="M312.07,225a1.26,1.26,0,1,1,1.25,1.26A1.25,1.25,0,0,1,312.07,225Z"/><path class="cls-12" d="M296.21,225a1.26,1.26,0,1,1,1.25,1.26A1.25,1.25,0,0,1,296.21,225Z"/><path class="cls-7" d="M283.57,230.42a1.26,1.26,0,1,1-1.26-1.26A1.25,1.25,0,0,1,283.57,230.42Z"/><path class="cls-7" d="M289.11,230.42a1.26,1.26,0,1,1-1.26-1.26A1.25,1.25,0,0,1,289.11,230.42Z"/><path class="cls-7" d="M294.65,230.42a1.26,1.26,0,1,1-1.26-1.26A1.26,1.26,0,0,1,294.65,230.42Z"/><path class="cls-7" d="M300.19,230.42a1.26,1.26,0,1,1-1.26-1.26A1.26,1.26,0,0,1,300.19,230.42Z"/><path class="cls-7" d="M343.11,230.42a1.26,1.26,0,1,1-1.26-1.26A1.25,1.25,0,0,1,343.11,230.42Z"/><path class="cls-7" d="M348.76,230.42a1.26,1.26,0,1,1-1.26-1.26A1.25,1.25,0,0,1,348.76,230.42Z"/><path class="cls-7" d="M305.72,230.42a1.26,1.26,0,1,1-1.25-1.26A1.25,1.25,0,0,1,305.72,230.42Z"/><path class="cls-7" d="M332.93,230.42a1.26,1.26,0,1,1-1.26-1.26A1.25,1.25,0,0,1,332.93,230.42Z"/><path class="cls-1" d="M311.26,230.42a1.26,1.26,0,1,1-1.25-1.26A1.25,1.25,0,0,1,311.26,230.42Z"/><path class="cls-1" d="M316.8,230.42a1.26,1.26,0,1,1-1.25-1.26A1.25,1.25,0,0,1,316.8,230.42Z"/><path class="cls-1" d="M328,230.42a1.26,1.26,0,1,1-1.25-1.26A1.25,1.25,0,0,1,328,230.42Z"/><path class="cls-1" d="M353.35,230.42a1.26,1.26,0,1,1-1.25-1.26A1.25,1.25,0,0,1,353.35,230.42Z"/><path class="cls-12" d="M322.34,230.42a1.26,1.26,0,1,1-1.25-1.26A1.25,1.25,0,0,1,322.34,230.42Z"/><path class="cls-12" d="M338.2,230.42a1.26,1.26,0,1,1-1.25-1.26A1.25,1.25,0,0,1,338.2,230.42Z"/><rect class="cls-7" x="253.31" y="217.22" width="21.88" height="3.37"/><rect class="cls-7" x="253.31" y="223.02" width="21.88" height="3.37"/><rect class="cls-7" x="253.31" y="229.01" width="21.88" height="3.37"/><polygon class="cls-7" points="376.21 205.05 359.5 205.09 359.5 177.52 376.21 177.48 376.21 205.05"/><polygon class="cls-7" points="376.21 171.52 359.5 171.57 359.5 144 376.21 143.95 376.21 171.52"/><polygon class="cls-7" points="376.21 238.86 359.5 238.9 359.5 211.33 376.21 211.29 376.21 238.86"/><rect class="cls-8" x="249.18" y="143.74" width="111.13" height="27.57"/><rect class="cls-7" x="254.11" y="149.42" width="21.88" height="3.37"/><rect class="cls-7" x="254.11" y="155.21" width="21.88" height="3.37"/><rect class="cls-7" x="254.11" y="161.2" width="21.88" height="3.37"/><path class="cls-7" d="M284.65,151.45a1.26,1.26,0,1,1-1.26-1.25A1.25,1.25,0,0,1,284.65,151.45Z"/><circle class="cls-7" cx="288.93" cy="151.45" r="1.26"/><path class="cls-7" d="M295.73,151.45a1.26,1.26,0,1,1-1.26-1.25A1.26,1.26,0,0,1,295.73,151.45Z"/><circle class="cls-7" cx="300.01" cy="151.45" r="1.26"/><path class="cls-7" d="M344.19,151.45a1.26,1.26,0,1,1-1.26-1.25A1.25,1.25,0,0,1,344.19,151.45Z"/><circle class="cls-7" cx="348.58" cy="151.45" r="1.26"/><path class="cls-7" d="M306.8,151.45a1.26,1.26,0,1,1-1.25-1.25A1.25,1.25,0,0,1,306.8,151.45Z"/><circle class="cls-7" cx="332.75" cy="151.45" r="1.26"/><path class="cls-1" d="M312.34,151.45a1.26,1.26,0,1,1-1.25-1.25A1.25,1.25,0,0,1,312.34,151.45Z"/><path class="cls-1" d="M317.88,151.45a1.26,1.26,0,1,1-1.25-1.25A1.25,1.25,0,0,1,317.88,151.45Z"/><path class="cls-1" d="M329.12,151.45a1.26,1.26,0,1,1-1.25-1.25A1.25,1.25,0,0,1,329.12,151.45Z"/><path class="cls-1" d="M354.43,151.45a1.26,1.26,0,1,1-1.25-1.25A1.25,1.25,0,0,1,354.43,151.45Z"/><path class="cls-12" d="M323.42,151.45a1.26,1.26,0,1,1-1.25-1.25A1.25,1.25,0,0,1,323.42,151.45Z"/><circle class="cls-12" cx="338.03" cy="151.45" r="1.26"/><path class="cls-7" d="M351.92,157.51a1.26,1.26,0,1,1,1.26,1.25A1.26,1.26,0,0,1,351.92,157.51Z"/><path class="cls-7" d="M346.38,157.51a1.26,1.26,0,1,1,1.26,1.25A1.26,1.26,0,0,1,346.38,157.51Z"/><path class="cls-7" d="M340.84,157.51a1.26,1.26,0,1,1,1.26,1.25A1.26,1.26,0,0,1,340.84,157.51Z"/><path class="cls-7" d="M335.31,157.51a1.26,1.26,0,1,1,1.25,1.25A1.25,1.25,0,0,1,335.31,157.51Z"/><path class="cls-7" d="M292.38,157.51a1.26,1.26,0,1,1,1.26,1.25A1.25,1.25,0,0,1,292.38,157.51Z"/><path class="cls-7" d="M286.73,157.51a1.26,1.26,0,1,1,1.26,1.25A1.26,1.26,0,0,1,286.73,157.51Z"/><path class="cls-7" d="M329.77,157.51a1.26,1.26,0,1,1,1.25,1.25A1.25,1.25,0,0,1,329.77,157.51Z"/><path class="cls-7" d="M302.56,157.51a1.26,1.26,0,1,1,1.26,1.25A1.26,1.26,0,0,1,302.56,157.51Z"/><path class="cls-1" d="M324.23,157.51a1.26,1.26,0,1,1,1.25,1.25A1.25,1.25,0,0,1,324.23,157.51Z"/><path class="cls-1" d="M318.69,157.51a1.26,1.26,0,1,1,1.25,1.25A1.25,1.25,0,0,1,318.69,157.51Z"/><path class="cls-1" d="M307.45,157.51a1.26,1.26,0,1,1,1.26,1.25A1.25,1.25,0,0,1,307.45,157.51Z"/><path class="cls-1" d="M282.14,157.51a1.26,1.26,0,1,1,1.25,1.25A1.25,1.25,0,0,1,282.14,157.51Z"/><path class="cls-12" d="M313.15,157.51a1.26,1.26,0,1,1,1.25,1.25A1.25,1.25,0,0,1,313.15,157.51Z"/><path class="cls-12" d="M297.29,157.51a1.26,1.26,0,1,1,1.25,1.25A1.25,1.25,0,0,1,297.29,157.51Z"/><path class="cls-7" d="M284.65,162.89a1.26,1.26,0,1,1-1.26-1.26A1.25,1.25,0,0,1,284.65,162.89Z"/><path class="cls-7" d="M290.19,162.89a1.26,1.26,0,1,1-1.26-1.26A1.25,1.25,0,0,1,290.19,162.89Z"/><path class="cls-7" d="M295.73,162.89a1.26,1.26,0,1,1-1.26-1.26A1.26,1.26,0,0,1,295.73,162.89Z"/><path class="cls-7" d="M301.27,162.89a1.26,1.26,0,1,1-1.26-1.26A1.26,1.26,0,0,1,301.27,162.89Z"/><path class="cls-7" d="M344.19,162.89a1.26,1.26,0,1,1-1.26-1.26A1.25,1.25,0,0,1,344.19,162.89Z"/><path class="cls-7" d="M349.84,162.89a1.26,1.26,0,1,1-1.26-1.26A1.25,1.25,0,0,1,349.84,162.89Z"/><path class="cls-7" d="M306.8,162.89a1.26,1.26,0,1,1-1.25-1.26A1.25,1.25,0,0,1,306.8,162.89Z"/><path class="cls-7" d="M334,162.89a1.26,1.26,0,1,1-1.26-1.26A1.25,1.25,0,0,1,334,162.89Z"/><path class="cls-1" d="M312.34,162.89a1.26,1.26,0,1,1-1.25-1.26A1.25,1.25,0,0,1,312.34,162.89Z"/><path class="cls-1" d="M317.88,162.89a1.26,1.26,0,1,1-1.25-1.26A1.25,1.25,0,0,1,317.88,162.89Z"/><path class="cls-1" d="M329.12,162.89a1.26,1.26,0,1,1-1.25-1.26A1.25,1.25,0,0,1,329.12,162.89Z"/><path class="cls-1" d="M354.43,162.89a1.26,1.26,0,1,1-1.25-1.26A1.25,1.25,0,0,1,354.43,162.89Z"/><path class="cls-12" d="M323.42,162.89a1.26,1.26,0,1,1-1.25-1.26A1.25,1.25,0,0,1,323.42,162.89Z"/><path class="cls-12" d="M339.28,162.89a1.26,1.26,0,1,1-1.25-1.26A1.25,1.25,0,0,1,339.28,162.89Z"/></g><g id="Files"><path class="cls-9" d="M392.46,80.62H343.13A6.17,6.17,0,0,1,337,74.45V6.17A6.17,6.17,0,0,1,343.13,0h31.28l24.22,25V74.45A6.17,6.17,0,0,1,392.46,80.62Z"/><g class="cls-16"><path d="M338.2,56.16h59.19a1.24,1.24,0,0,1,1.24,1.24V74.14a6.48,6.48,0,0,1-6.48,6.48H343.43A6.48,6.48,0,0,1,337,74.14V57.4A1.24,1.24,0,0,1,338.2,56.16Z"/></g><g class="cls-16"><path class="cls-3" d="M374.41,0V19.22A5.74,5.74,0,0,0,380.15,25h18.48Z"/></g><g class="cls-16"><path d="M374.66,20.9s-.24,4.66,5.07,6.19c.2.06.4.1.6.14,2.42.43,18.3,3.26,18.3,2.89V25H380.15S375.54,24.8,374.66,20.9Z"/></g><path class="cls-5" d="M354.61,66.82a5.29,5.29,0,0,1,9.15-3.27l-1.42,1.32a3.09,3.09,0,0,0-2.41-1.12,3.07,3.07,0,1,0,0,6.13,3.06,3.06,0,0,0,2.41-1.13l1.42,1.31a5.27,5.27,0,0,1-9.15-3.24Z"/><path class="cls-5" d="M364.42,70.67l.75-1.68a5.62,5.62,0,0,0,3.16,1c1.32,0,1.85-.43,1.85-1,0-1.8-5.57-.56-5.57-4.13,0-1.63,1.31-3,4-3a6.35,6.35,0,0,1,3.33.85l-.69,1.68a5.35,5.35,0,0,0-2.65-.75c-1.32,0-1.83.49-1.83,1.09,0,1.77,5.58.55,5.58,4.07,0,1.61-1.33,3-4.07,3A6.88,6.88,0,0,1,364.42,70.67Z"/><path class="cls-5" d="M373.15,70.67l.76-1.68a5.62,5.62,0,0,0,3.16,1c1.32,0,1.85-.43,1.85-1,0-1.8-5.57-.56-5.57-4.13,0-1.63,1.31-3,4-3a6.37,6.37,0,0,1,3.33.85L380,64.39a5.38,5.38,0,0,0-2.66-.75c-1.31,0-1.82.49-1.82,1.09,0,1.77,5.58.55,5.58,4.07,0,1.61-1.33,3-4.07,3A6.92,6.92,0,0,1,373.15,70.67Z"/><path class="cls-5" d="M357.74,35.77c1,.31,1.48.95,1.48,2.47v3.53a1.45,1.45,0,0,0,1.61,1.63h.39v2.69H360c-2.76,0-4.17-1.41-4.17-4v-4a.9.9,0,0,0-1-1h-.72V34.43h.72c.6,0,1-.33,1-1v-4c0-2.54,1.41-3.95,4.17-3.95h1.27v2.69h-.39a1.45,1.45,0,0,0-1.61,1.63v3.53C359.22,34.83,358.76,35.47,357.74,35.77Z"/><path class="cls-5" d="M381.5,34.43v2.69h-.73a.9.9,0,0,0-1,1v4c0,2.54-1.41,4-4.16,4h-1.28V43.4h.4a1.45,1.45,0,0,0,1.6-1.63V38.24c0-1.52.47-2.16,1.48-2.47-1-.3-1.48-.94-1.48-2.46V29.78a1.45,1.45,0,0,0-1.6-1.63h-.4V25.46h1.28c2.75,0,4.16,1.41,4.16,3.95v4a.91.91,0,0,0,1,1Z"/><path class="cls-9" d="M500.16,80.62H450.83a6.17,6.17,0,0,1-6.17-6.17V6.17A6.17,6.17,0,0,1,450.83,0h31.28l24.22,25V74.45A6.17,6.17,0,0,1,500.16,80.62Z"/><path class="cls-5" d="M487.76,47.79s.41,0,1.17-.17A5.79,5.79,0,0,0,491.79,46,5.59,5.59,0,0,0,493,44a5.8,5.8,0,0,0,.28-1.34c0-.47,0-1,0-1.5,0-2.1,0-4.48,0-7.11,0-1.32,0-2.7,0-4.13v-2.2a10.38,10.38,0,0,0-.16-2.23,6.33,6.33,0,0,0-2.52-3.76,6.21,6.21,0,0,0-2.19-1,10.32,10.32,0,0,0-2.51-.18l-22.63,0a6.08,6.08,0,0,0-4.64,3,5.8,5.8,0,0,0-.83,2.64c0,.93,0,1.91,0,2.85,0,3.79,0,7.44,0,10.93,0,.86,0,1.75,0,2.55a5.74,5.74,0,0,0,4.38,4.94,9.61,9.61,0,0,0,2.22.16h2.2l4.13,0,12.48.08,3.39.05.88,0,.3,0a1.16,1.16,0,0,1-.3,0l-.88,0-3.39,0L470.71,48h-6.33a9.7,9.7,0,0,1-2.32-.15,6.19,6.19,0,0,1-4.74-5.31c-.08-.89,0-1.72-.05-2.6,0-3.49,0-7.14,0-10.93,0-1,0-1.89,0-2.89a6.35,6.35,0,0,1,.89-2.86,6.63,6.63,0,0,1,5-3.22c8.08-.06,15.7,0,22.68,0a10.57,10.57,0,0,1,2.62.2,6.78,6.78,0,0,1,5,5.12,10.21,10.21,0,0,1,.15,2.32v2.2c0,1.43,0,2.81,0,4.13,0,2.63,0,5,0,7.11,0,.52,0,1,0,1.53a6.13,6.13,0,0,1-.32,1.39,6,6,0,0,1-1.33,2.1,5.74,5.74,0,0,1-3,1.59A4.29,4.29,0,0,1,487.76,47.79Z"/><path class="cls-5" d="M493.3,44.57s-.14-.12-.36-.37L492,43.07l-3.39-4.19L486.29,36,485,34.34l-.67-.84a1.7,1.7,0,0,0-.81-.52,1.73,1.73,0,0,0-1.83.54l-1.48,1.9c-1,1.29-2,2.63-3.11,4l-1.4,1.79-.18.23-.21-.2L472,38l-.8-.77a2.67,2.67,0,0,0-.79-.63,1.89,1.89,0,0,0-1.79.1,4.23,4.23,0,0,0-.71.65l-.69.71-1.31,1.35-2.36,2.41-3.42,3.45-.94.92a1.9,1.9,0,0,1-.35.29,1.71,1.71,0,0,1,.28-.36l.88-1,3.3-3.56,2.31-2.46,1.29-1.37c.23-.23.45-.47.68-.71a4.32,4.32,0,0,1,.79-.73,2.36,2.36,0,0,1,2.25-.15,3.32,3.32,0,0,1,.92.71l.81.77,3.36,3.25-.38,0,1.4-1.79,3.12-4,1.5-1.9a2.23,2.23,0,0,1,2.35-.68,2.2,2.2,0,0,1,1,.68l.67.86,1.27,1.64,2.27,2.95,3.26,4.3.86,1.18A1.67,1.67,0,0,1,493.3,44.57Z"/><path class="cls-5" d="M474.06,31.24s.28,0,.76-.2a3.16,3.16,0,0,0,1.64-1.18,3,3,0,0,0,.39-2.84,3,3,0,0,0-5.58,0,3,3,0,0,0,.38,2.84A3.14,3.14,0,0,0,473.3,31c.47.15.76.16.76.2a1.44,1.44,0,0,1-.81,0,3.22,3.22,0,0,1-1.89-1.15,3.39,3.39,0,0,1-.54-3.23,3.43,3.43,0,0,1,6.48,0,3.39,3.39,0,0,1-.54,3.23,3.25,3.25,0,0,1-1.89,1.15A1.44,1.44,0,0,1,474.06,31.24Z"/><g class="cls-16"><path d="M444.66,56.16h61.67a0,0,0,0,1,0,0v18.1A6.36,6.36,0,0,1,500,80.62H451a6.36,6.36,0,0,1-6.36-6.36V56.16A0,0,0,0,1,444.66,56.16Z"/></g><path class="cls-9" d="M482.11,0V19.22A5.74,5.74,0,0,0,487.85,25h18.48Z"/><g class="cls-16"><path d="M482.37,20.9s-.25,4.66,5.06,6.19a6,6,0,0,0,.61.14c2.41.43,18.29,3.26,18.29,2.89V25H487.85S483.24,24.8,482.37,20.9Z"/></g><path class="cls-5" d="M470,67.51h2V71.4a6.65,6.65,0,0,1-3.88,1.22,5,5,0,1,1,0-9.92,5.09,5.09,0,0,1,4,1.66l-1.43,1.31a3.22,3.22,0,0,0-2.48-1.08,3.07,3.07,0,1,0,0,6.14,3.52,3.52,0,0,0,1.72-.41Z"/><path class="cls-5" d="M474.05,62.86h2.22v9.6h-2.22Z"/><path class="cls-5" d="M480.76,64.64v2.54h4.44V69h-4.44v3.5h-2.22v-9.6h7.25v1.78Z"/><path class="cls-9" d="M283.22,80.62H233.89a6.17,6.17,0,0,1-6.17-6.17V6.17A6.17,6.17,0,0,1,233.89,0h31.29l24.21,25V74.45A6.17,6.17,0,0,1,283.22,80.62Z"/><g class="cls-16"><path d="M227.72,56.16h61.67a0,0,0,0,1,0,0V73.78a6.84,6.84,0,0,1-6.84,6.84h-48a6.84,6.84,0,0,1-6.84-6.84V56.16A0,0,0,0,1,227.72,56.16Z"/></g><path class="cls-5" d="M249.58,71.94l1.55-1.87a2.78,2.78,0,0,0,2.24,1.33c1.12,0,1.71-.67,1.71-2V63.66h-4.24V61.42h7v7.83c0,3-1.5,4.44-4.34,4.44A4.87,4.87,0,0,1,249.58,71.94Z"/><path class="cls-5" d="M259.52,72.63l.9-1.94a6.31,6.31,0,0,0,3.22.9c1.25,0,1.71-.33,1.71-.84,0-1.52-5.6,0-5.6-3.68,0-1.75,1.58-3,4.29-3a7.71,7.71,0,0,1,3.57.81l-.9,1.92a5.27,5.27,0,0,0-2.67-.69c-1.21,0-1.72.38-1.72.86,0,1.59,5.6,0,5.6,3.71,0,1.72-1.6,2.95-4.38,2.95A8.09,8.09,0,0,1,259.52,72.63Z"/><path class="cls-5" d="M240.79,43.32l1.93-2.27a5.83,5.83,0,0,0,4.87,2.77c2.63,0,4-1.6,4-4.74V26h-8.43v-2.9h11.73V38.92c0,5.2-2.53,7.77-7.3,7.77A8.15,8.15,0,0,1,240.79,43.32Z"/><path class="cls-5" d="M259,44.55,260.33,42a11.41,11.41,0,0,0,6.2,1.83c3,0,4.2-.9,4.2-2.4,0-4-11.17-.53-11.17-7.57,0-3.16,2.84-5.3,7.37-5.3a12.9,12.9,0,0,1,6.44,1.6L272,32.72a9.18,9.18,0,0,0-5.1-1.4c-2.8,0-4.17,1-4.17,2.43,0,4.17,11.2.77,11.2,7.63,0,3.21-2.93,5.24-7.63,5.24A12.69,12.69,0,0,1,259,44.55Z"/><path class="cls-9" d="M265.18,0V19.22A5.74,5.74,0,0,0,270.92,25h18.47Z"/><g class="cls-16"><path d="M265.43,20.9s-.24,4.66,5.06,6.19c.2.06.41.1.61.14,2.41.43,18.29,3.26,18.29,2.89V25H270.92S266.3,24.8,265.43,20.9Z"/></g><path class="cls-9" d="M173,80.62H123.66a6.17,6.17,0,0,1-6.17-6.17V6.17A6.17,6.17,0,0,1,123.66,0h31.28l24.22,25V74.45A6.17,6.17,0,0,1,173,80.62Z"/><g class="cls-16"><path d="M117.49,56.16h61.67a0,0,0,0,1,0,0V73.72a6.9,6.9,0,0,1-6.9,6.9H124.39a6.9,6.9,0,0,1-6.9-6.9V56.16A0,0,0,0,1,117.49,56.16Z"/></g><g class="cls-16"><path class="cls-3" d="M154.94,0V19.22A5.74,5.74,0,0,0,160.68,25h18.48Z"/></g><g class="cls-16"><path d="M155.2,20.9s-.25,4.66,5.06,6.19a6,6,0,0,0,.61.14c2.41.43,18.29,3.26,18.29,2.89V25H160.68S156.07,24.8,155.2,20.9Z"/></g><path class="cls-5" d="M142.82,36l-7.41,2.71,7.41,2.69v2.78l-10.59-4V37.23l10.59-4Z"/><path class="cls-5" d="M150.77,27.73h3.09l-7.33,20.94h-3.09Z"/><path class="cls-5" d="M164.84,37.23v2.89l-10.58,4V41.36l7.4-2.69L154.26,36V33.2Z"/><path class="cls-5" d="M140.3,65.26v8.29h-1.92v-3.4h-3.76v3.4H132.7V65.26h1.92v3.27h3.76V65.26Z"/><path class="cls-5" d="M144,66.82h-2.65V65.26h7.22v1.56H145.9v6.73H144Z"/><path class="cls-5" d="M157.12,73.55v-5l-2.44,4.09h-.86l-2.43-4v4.87h-1.8V65.26h1.59l3.1,5.15,3-5.15h1.58l0,8.29Z"/><path class="cls-5" d="M160.88,65.26h1.92V72H167v1.56h-6.08Z"/><g class="cls-16"><path class="cls-3" d="M265.18,0V19.22A5.74,5.74,0,0,0,270.92,25h18.47Z"/></g><g class="cls-16"><path class="cls-3" d="M482.11,0V19.22A5.74,5.74,0,0,0,487.85,25h18.48Z"/></g></g></svg>