<svg xmlns="http://www.w3.org/2000/svg" viewBox="0 0 612.21 325.64"><defs><style>.cls-1{fill:#e0e0e0;}.cls-2{fill:#fafafa;}.cls-3{fill:#ebebeb;}.cls-4{fill:#f5f5f5;}.cls-5{fill:#263238;}.cls-6{fill:#455a64;}.cls-7{fill:#2f57a4;}.cls-8,.cls-9{opacity:0.4;}.cls-10{fill:#ffbe9d;}.cls-11{opacity:0.2;}.cls-12{fill:#eb996e;}.cls-13,.cls-15{fill:#fff;}.cls-14{opacity:0.3;}.cls-15{opacity:0.5;}</style></defs><g id="Background_Complete" data-name="Background Complete"><polygon class="cls-1" points="532.33 25.08 463.93 25.08 463.93 114.28 532.33 116 532.33 25.08"/><polygon class="cls-2" points="527.83 28.26 467.97 28.26 467.97 109.15 527.83 111.17 527.83 28.26"/><polygon class="cls-1" points="517.35 42.96 477.63 41.44 477.63 97.99 517.35 97.99 517.35 42.96"/><polygon class="cls-3" points="477.63 97.99 517.35 68.94 477.63 41.44 477.63 97.99"/><rect class="cls-3" x="0.5" y="65.99" width="84.76" height="259.65"/><rect class="cls-4" x="85" y="66.83" width="66.99" height="258.82"/><rect class="cls-1" x="5.05" y="107.55" width="71.9" height="20.24"/><rect class="cls-4" x="7.06" y="110.09" width="4.03" height="15.49"/><path class="cls-2" d="M15.83,113.35a1.28,1.28,0,1,1-1.28-1.28A1.28,1.28,0,0,1,15.83,113.35Z"/><path class="cls-2" d="M15.83,118.82a1.28,1.28,0,1,1-1.28-1.28A1.28,1.28,0,0,1,15.83,118.82Z"/><rect class="cls-4" x="20.94" y="112.07" width="3.96" height="11.9"/><rect class="cls-4" x="26.66" y="112.07" width="3.96" height="11.9"/><rect class="cls-4" x="32.37" y="112.07" width="3.96" height="11.9"/><rect class="cls-4" x="38.09" y="112.07" width="3.96" height="11.9"/><rect class="cls-4" x="43.8" y="112.07" width="3.96" height="11.9"/><rect class="cls-4" x="49.52" y="112.07" width="3.96" height="11.9"/><rect class="cls-4" x="55.23" y="112.07" width="3.96" height="11.9"/><rect class="cls-4" x="60.95" y="112.07" width="3.96" height="11.9"/><rect class="cls-4" x="66.66" y="112.07" width="3.96" height="11.9"/><rect class="cls-4" x="72.38" y="112.07" width="3.96" height="11.9"/><rect class="cls-1" x="5.05" y="139.97" width="71.9" height="20.24"/><rect class="cls-4" x="7.06" y="142.52" width="4.03" height="15.49"/><path class="cls-2" d="M15.83,145.77a1.28,1.28,0,1,1-1.28-1.28A1.28,1.28,0,0,1,15.83,145.77Z"/><path class="cls-2" d="M15.83,151.25a1.28,1.28,0,0,1-2.56,0,1.28,1.28,0,0,1,2.56,0Z"/><rect class="cls-4" x="20.94" y="144.49" width="3.96" height="11.9"/><rect class="cls-4" x="26.66" y="144.49" width="3.96" height="11.9"/><rect class="cls-4" x="32.37" y="144.49" width="3.96" height="11.9"/><rect class="cls-4" x="38.09" y="144.49" width="3.96" height="11.9"/><rect class="cls-4" x="43.8" y="144.49" width="3.96" height="11.9"/><rect class="cls-4" x="49.52" y="144.49" width="3.96" height="11.9"/><rect class="cls-4" x="55.23" y="144.49" width="3.96" height="11.9"/><rect class="cls-4" x="60.95" y="144.49" width="3.96" height="11.9"/><rect class="cls-4" x="66.66" y="144.49" width="3.96" height="11.9"/><rect class="cls-4" x="72.38" y="144.49" width="3.96" height="11.9"/><rect class="cls-1" x="5.05" y="172.39" width="71.9" height="20.24"/><rect class="cls-4" x="7.06" y="174.94" width="4.03" height="15.49"/><path class="cls-2" d="M15.83,178.2a1.28,1.28,0,0,1-2.56,0,1.28,1.28,0,0,1,2.56,0Z"/><path class="cls-2" d="M15.83,183.67a1.28,1.28,0,1,1-1.28-1.28A1.28,1.28,0,0,1,15.83,183.67Z"/><rect class="cls-4" x="20.94" y="176.92" width="3.96" height="11.9"/><rect class="cls-4" x="26.66" y="176.92" width="3.96" height="11.9"/><rect class="cls-4" x="32.37" y="176.92" width="3.96" height="11.9"/><rect class="cls-4" x="38.09" y="176.92" width="3.96" height="11.9"/><rect class="cls-4" x="43.8" y="176.92" width="3.96" height="11.9"/><rect class="cls-4" x="49.52" y="176.92" width="3.96" height="11.9"/><rect class="cls-4" x="55.23" y="176.92" width="3.96" height="11.9"/><rect class="cls-4" x="60.95" y="176.92" width="3.96" height="11.9"/><rect class="cls-4" x="66.66" y="176.92" width="3.96" height="11.9"/><rect class="cls-4" x="72.38" y="176.92" width="3.96" height="11.9"/><rect class="cls-1" x="5.05" y="204.82" width="71.9" height="20.24"/><rect class="cls-4" x="7.06" y="207.36" width="4.03" height="15.49"/><path class="cls-2" d="M15.83,210.62a1.28,1.28,0,1,1-1.28-1.28A1.28,1.28,0,0,1,15.83,210.62Z"/><path class="cls-2" d="M15.83,216.1a1.28,1.28,0,1,1-2.56,0,1.28,1.28,0,1,1,2.56,0Z"/><rect class="cls-4" x="20.94" y="209.34" width="3.96" height="11.9"/><rect class="cls-4" x="26.66" y="209.34" width="3.96" height="11.9"/><rect class="cls-4" x="32.37" y="209.34" width="3.96" height="11.9"/><rect class="cls-4" x="38.09" y="209.34" width="3.96" height="11.9"/><rect class="cls-4" x="43.8" y="209.34" width="3.96" height="11.9"/><rect class="cls-4" x="49.52" y="209.34" width="3.96" height="11.9"/><rect class="cls-4" x="55.23" y="209.34" width="3.96" height="11.9"/><rect class="cls-4" x="60.95" y="209.34" width="3.96" height="11.9"/><rect class="cls-4" x="66.66" y="209.34" width="3.96" height="11.9"/><rect class="cls-4" x="72.38" y="209.34" width="3.96" height="11.9"/><rect class="cls-1" x="5.05" y="237.24" width="71.9" height="20.24"/><rect class="cls-4" x="7.06" y="239.79" width="4.03" height="15.49"/><path class="cls-2" d="M15.83,243a1.28,1.28,0,1,1-1.28-1.27A1.28,1.28,0,0,1,15.83,243Z"/><path class="cls-2" d="M15.83,248.52a1.28,1.28,0,1,1-1.28-1.28A1.28,1.28,0,0,1,15.83,248.52Z"/><rect class="cls-4" x="20.94" y="241.77" width="3.96" height="11.9"/><rect class="cls-4" x="26.66" y="241.77" width="3.96" height="11.9"/><rect class="cls-4" x="32.37" y="241.77" width="3.96" height="11.9"/><rect class="cls-4" x="38.09" y="241.77" width="3.96" height="11.9"/><rect class="cls-4" x="43.8" y="241.77" width="3.96" height="11.9"/><rect class="cls-4" x="49.52" y="241.77" width="3.96" height="11.9"/><rect class="cls-4" x="55.23" y="241.77" width="3.96" height="11.9"/><rect class="cls-4" x="60.95" y="241.77" width="3.96" height="11.9"/><rect class="cls-4" x="66.66" y="241.77" width="3.96" height="11.9"/><rect class="cls-4" x="72.38" y="241.77" width="3.96" height="11.9"/><rect class="cls-1" x="5.05" y="269.66" width="71.9" height="20.24"/><rect class="cls-4" x="7.06" y="272.21" width="4.03" height="15.49"/><path class="cls-2" d="M15.83,275.47a1.28,1.28,0,1,1-1.28-1.28A1.28,1.28,0,0,1,15.83,275.47Z"/><path class="cls-2" d="M15.83,280.94a1.28,1.28,0,1,1-1.28-1.28A1.28,1.28,0,0,1,15.83,280.94Z"/><rect class="cls-4" x="20.94" y="274.19" width="3.96" height="11.9"/><rect class="cls-4" x="26.66" y="274.19" width="3.96" height="11.9"/><rect class="cls-4" x="32.37" y="274.19" width="3.96" height="11.9"/><rect class="cls-4" x="38.09" y="274.19" width="3.96" height="11.9"/><rect class="cls-4" x="43.8" y="274.19" width="3.96" height="11.9"/><rect class="cls-4" x="49.52" y="274.19" width="3.96" height="11.9"/><rect class="cls-4" x="55.23" y="274.19" width="3.96" height="11.9"/><rect class="cls-4" x="60.95" y="274.19" width="3.96" height="11.9"/><rect class="cls-4" x="66.66" y="274.19" width="3.96" height="11.9"/><rect class="cls-4" x="72.38" y="274.19" width="3.96" height="11.9"/><rect class="cls-1" x="5.05" y="302.09" width="71.9" height="20.24"/><rect class="cls-4" x="7.06" y="304.63" width="4.03" height="15.49"/><path class="cls-2" d="M15.83,307.89a1.28,1.28,0,1,1-1.28-1.28A1.28,1.28,0,0,1,15.83,307.89Z"/><path class="cls-2" d="M15.83,313.37a1.28,1.28,0,0,1-2.56,0,1.28,1.28,0,0,1,2.56,0Z"/><rect class="cls-4" x="20.94" y="306.61" width="3.96" height="11.9"/><rect class="cls-4" x="26.66" y="306.61" width="3.96" height="11.9"/><rect class="cls-4" x="32.37" y="306.61" width="3.96" height="11.9"/><rect class="cls-4" x="38.09" y="306.61" width="3.96" height="11.9"/><rect class="cls-4" x="43.8" y="306.61" width="3.96" height="11.9"/><rect class="cls-4" x="49.52" y="306.61" width="3.96" height="11.9"/><rect class="cls-4" x="55.23" y="306.61" width="3.96" height="11.9"/><rect class="cls-4" x="60.95" y="306.61" width="3.96" height="11.9"/><rect class="cls-4" x="66.66" y="306.61" width="3.96" height="11.9"/><rect class="cls-4" x="72.38" y="306.61" width="3.96" height="11.9"/><path class="cls-1" d="M49.52,107.55a2.49,2.49,0,0,1-.08-.63c0-.41-.06-1-.08-1.8s0-1.73-.09-2.84a17.84,17.84,0,0,0-.5-3.68,13,13,0,0,0-1.92-4,8.8,8.8,0,0,0-3.93-3.16,19,19,0,0,0-5.58-1.14l-6.19-.53C22.66,89,15,88.52,9.39,88.41c-2.79-.06-5.05,0-6.61,0H1a4.4,4.4,0,0,1-.63,0A2.34,2.34,0,0,1,1,88.28l1.8-.11C4.34,88.1,6.6,88,9.39,88c5.6,0,13.31.43,21.8,1.17l6.2.55A19.1,19.1,0,0,1,43.11,91a9.33,9.33,0,0,1,4.1,3.36,13.28,13.28,0,0,1,1.92,4.19,17.29,17.29,0,0,1,.43,3.77c0,1.12,0,2.07,0,2.85s0,1.33,0,1.8A3.07,3.07,0,0,1,49.52,107.55Z"/><path class="cls-1" d="M27.71,107.55a2.16,2.16,0,0,1-.05-.59c0-.45,0-1,0-1.7s0-1.63-.09-2.66a8.31,8.31,0,0,0-.88-3.33,6.38,6.38,0,0,0-3.24-2.48,8.86,8.86,0,0,0-4.72-.48,7.84,7.84,0,0,0-2.44.83,4.7,4.7,0,0,0-1.89,1.78,2.57,2.57,0,0,0,0,2.52,3.36,3.36,0,0,0,2.13,1.6,2.71,2.71,0,0,0,2.5-.72,3.67,3.67,0,0,0,1.12-2.38,3.63,3.63,0,0,0-.74-2.44,5.33,5.33,0,0,0-1.9-1.67,6.74,6.74,0,0,0-2.36-.61c-.81-.13-1.6-.23-2.37-.32-1.53-.17-3-.27-4.27-.32-2.61-.11-4.74-.07-6.21-.07H.59a2.44,2.44,0,0,1-.59,0,2.49,2.49,0,0,1,.59-.07l1.69-.09c1.47-.06,3.59-.15,6.23-.09,1.31,0,2.76.11,4.3.26.77.08,1.57.18,2.38.29.41.07.82.12,1.25.2a4.46,4.46,0,0,1,1.27.44,5.81,5.81,0,0,1,2.08,1.81,4.09,4.09,0,0,1-.42,5.48,3.23,3.23,0,0,1-3,.86,3.87,3.87,0,0,1-2.47-1.86,3.07,3.07,0,0,1,0-3,5.12,5.12,0,0,1,2.1-2,8.37,8.37,0,0,1,2.6-.86,9.22,9.22,0,0,1,5,.55,6.69,6.69,0,0,1,3.4,2.7,8.28,8.28,0,0,1,.85,3.49,26.62,26.62,0,0,1,0,2.69c0,.68,0,1.24-.07,1.69A4.07,4.07,0,0,1,27.71,107.55Z"/><path class="cls-1" d="M55.39,107.55a3.56,3.56,0,0,1-.16-.67c-.08-.44-.2-1.09-.38-1.92a37.56,37.56,0,0,0-2.12-6.86,20.06,20.06,0,0,0-6.26-8.38,11.81,11.81,0,0,0-5.72-2.18A61.08,61.08,0,0,0,34,87.18C24.72,87,16.3,87,10.2,86.8c-3-.11-5.51-.26-7.21-.38L1,86.25a4.07,4.07,0,0,1-.68-.09,2.55,2.55,0,0,1,.68,0l2,.07c1.71.06,4.17.15,7.21.21,6.09.15,14.51.06,23.81.23a58.1,58.1,0,0,1,6.8.38,12.09,12.09,0,0,1,5.94,2.3,17.92,17.92,0,0,1,4,4.19A24.13,24.13,0,0,1,53.06,98a34.64,34.64,0,0,1,2,7c.15.84.24,1.5.29,1.94A4.38,4.38,0,0,1,55.39,107.55Z"/><rect class="cls-1" x="6.04" y="69.22" width="69.92" height="10.15"/><rect class="cls-4" x="21.42" y="74.29" width="38.07" height="5.08"/></g><g id="Character"><path class="cls-5" d="M463.06,101.36A5,5,0,0,0,457.22,98a9.21,9.21,0,0,1-2.73.69,7.15,7.15,0,0,1-2.33-.83,7.45,7.45,0,0,0-9.52,4.16,6.82,6.82,0,0,0-9.89,7.77,6,6,0,0,0-1.18,11.39,6.72,6.72,0,0,0,5,9.94,6.11,6.11,0,0,0,9.57,5.9,6.08,6.08,0,0,0,10.94,2c2.07,2.11,5.84,1.8,8-.2a9.59,9.59,0,0,0,2.59-8.14,6.32,6.32,0,0,0,6.84-9.89,5.6,5.6,0,0,0,4.76-3.9,7,7,0,0,0-1.21-6.18,9.37,9.37,0,0,0-5.46-3.34,7.16,7.16,0,0,0-9-5.66"/><polygon class="cls-6" points="455.04 242.93 452.57 321.97 448.81 321.97 449.54 243.14 455.04 242.93"/><polygon class="cls-6" points="468.63 241.98 487.19 325.4 491.21 325.21 475.88 241.98 468.63 241.98"/><polygon class="cls-6" points="434.34 242.93 412.71 325.4 407.94 325.21 428.27 242.58 434.34 242.93"/><path class="cls-6" d="M487,161.14s20.2-1.15,18.18,22.22-3.17,47-10.68,55.11-83.09,8.36-89.44,1.73,12.12-6.35,15.58-6.35,24.81,2,31.74-16.16S457.54,160,487,161.14Z"/><path class="cls-6" d="M488.27,161.15s15.44,3.17,14,19.32-5.48,44.44-13,51.65-36.9,8.78-52.8,7.79c-18.47-1.15-30.12-4.67-30.12-4.67S403,237.41,404,238.8s10,7,53.67,6.08,40.61-7.38,42.42-14.41,5.62-44.54,5.09-52.79S500.51,162.6,488.27,161.15Z"/><path class="cls-7" d="M395.28,320.39l-.06-9.19,17.23-.21.22,13.45-1.07.08c-4.75.32-24.17,1.3-27.36.38C380.68,323.86,395.28,320.39,395.28,320.39Z"/><g class="cls-8"><path d="M406.42,324.38a6,6,0,0,1,2.15-3.7,5.81,5.81,0,0,1,4-1.3l.06,4.81Z"/></g><path class="cls-9" d="M388.15,322.34s-5.11,1.55-4.46,2.38,20.31.59,29-.28l0-.38-22.93.48S389.15,322.37,388.15,322.34Z"/><path class="cls-5" d="M412.9,324l-.29,0-.85.06-3.13.17c-2.64.13-6.3.26-10.33.32s-7.7,0-10.34,0l-3.14-.09-.85,0-.29,0a.94.94,0,0,1,.29,0h.86l3.13,0c2.64,0,6.3,0,10.33,0s7.69-.16,10.33-.25l3.13-.11.86,0A1.07,1.07,0,0,1,412.9,324Z"/><path class="cls-5" d="M389.71,324.81a8,8,0,0,0-.61-1.49,7.43,7.43,0,0,0-1.08-1.18,2.34,2.34,0,0,1,1.26,1.07A2.38,2.38,0,0,1,389.71,324.81Z"/><path class="cls-5" d="M394.76,322.17c-.05,0-.3-.26-.56-.66s-.42-.73-.37-.76.29.26.55.65A2.09,2.09,0,0,1,394.76,322.17Z"/><path class="cls-5" d="M396.14,321.41s-.31-.13-.61-.39-.51-.52-.48-.56.32.14.62.4S396.18,321.37,396.14,321.41Z"/><path class="cls-5" d="M397,319.78a2.2,2.2,0,0,1-.9.12,2.05,2.05,0,0,1-.9-.08,3.74,3.74,0,0,1,1.8,0Z"/><path class="cls-5" d="M397.29,318.63a1.79,1.79,0,0,1-1,.3,1.72,1.72,0,0,1-1-.13,7,7,0,0,1,1-.08A5.64,5.64,0,0,1,397.29,318.63Z"/><path class="cls-5" d="M394.15,320.67a3,3,0,0,1-1.1,0,6.2,6.2,0,0,1-1.19-.25,3,3,0,0,1-.67-.26.64.64,0,0,1-.28-.34.44.44,0,0,1,.16-.45,2,2,0,0,1,2.89,1.3.71.71,0,0,1,0,.29,3.17,3.17,0,0,0-.52-.93,2,2,0,0,0-1-.61,1.73,1.73,0,0,0-1.32.11c-.17.13-.1.34.1.45a2.81,2.81,0,0,0,.62.26,6.8,6.8,0,0,0,1.15.28C393.73,320.64,394.15,320.64,394.15,320.67Z"/><path class="cls-5" d="M393.87,320.73a1,1,0,0,1-.14-.77,1.81,1.81,0,0,1,.29-.81,1.09,1.09,0,0,1,.91-.57.44.44,0,0,1,.35.5,1.24,1.24,0,0,1-.18.5,3.54,3.54,0,0,1-.51.68,1.66,1.66,0,0,1-.63.45s.22-.2.52-.55a4.1,4.1,0,0,0,.45-.67c.15-.24.25-.66,0-.71s-.56.26-.72.48a1.85,1.85,0,0,0-.31.72A3.75,3.75,0,0,0,393.87,320.73Z"/><path class="cls-5" d="M412.49,319.33s-.49,0-1.27.06a5.62,5.62,0,0,0-2.76,1.18,5.53,5.53,0,0,0-1.7,2.48c-.26.74-.28,1.24-.32,1.23a1,1,0,0,1,0-.35,4.31,4.31,0,0,1,.17-.93,5.24,5.24,0,0,1,4.59-3.75,4.12,4.12,0,0,1,.95,0A1.26,1.26,0,0,1,412.49,319.33Z"/><path class="cls-5" d="M410.62,312.19a62.61,62.61,0,0,1,.18,7.08,29,29,0,0,1-.2-3.54A28.66,28.66,0,0,1,410.62,312.19Z"/><path class="cls-5" d="M404.23,322.73a14.17,14.17,0,0,1-5,.11c0-.06,1.13,0,2.51,0S404.22,322.67,404.23,322.73Z"/><path class="cls-5" d="M407.61,322.68s-.09.24-.21.5-.17.49-.23.49-.09-.27,0-.57S407.57,322.64,407.61,322.68Z"/><path class="cls-5" d="M408.86,321.08s-.07.22-.25.41-.35.29-.39.25.07-.22.24-.4S408.82,321,408.86,321.08Z"/><path class="cls-5" d="M410.67,320.34c0,.05-.24.05-.49.15s-.44.23-.48.19.09-.28.41-.39S410.69,320.28,410.67,320.34Z"/><path class="cls-5" d="M412,320s-.08.14-.22.2-.27.06-.29,0,.07-.14.21-.2S411.94,319.92,412,320Z"/><path class="cls-7" d="M434.41,320.39l-.05-9.19,17.22-.21.22,13.45-1.07.08c-4.75.32-24.17,1.3-27.36.38C419.82,323.86,434.41,320.39,434.41,320.39Z"/><g class="cls-8"><path d="M445.55,324.38a6,6,0,0,1,2.16-3.7,5.79,5.79,0,0,1,4-1.3l.06,4.81Z"/></g><path class="cls-9" d="M427.28,322.34s-5.11,1.55-4.46,2.38,20.32.59,29-.28l0-.38-22.94.48S428.29,322.37,427.28,322.34Z"/><path class="cls-5" d="M452,324l-.3,0-.85.06-3.13.17c-2.64.13-6.29.26-10.33.32s-7.69,0-10.34,0L424,324.5l-.85,0-.3,0a1,1,0,0,1,.3,0H424l3.13,0c2.65,0,6.3,0,10.34,0s7.68-.16,10.33-.25l3.13-.11.85,0A1.17,1.17,0,0,1,452,324Z"/><path class="cls-5" d="M428.84,324.81a6.85,6.85,0,0,0-.6-1.49,6.75,6.75,0,0,0-1.09-1.18,2.27,2.27,0,0,1,1.26,1.07A2.31,2.31,0,0,1,428.84,324.81Z"/><path class="cls-5" d="M433.89,322.17c-.05,0-.3-.26-.55-.66s-.43-.73-.38-.76.3.26.55.65S433.94,322.14,433.89,322.17Z"/><path class="cls-5" d="M435.27,321.41s-.31-.13-.61-.39-.51-.52-.47-.56.31.14.61.4S435.31,321.37,435.27,321.41Z"/><path class="cls-5" d="M436.14,319.78a2.2,2.2,0,0,1-.9.12,2,2,0,0,1-.9-.08,1.92,1.92,0,0,1,.89-.13A2,2,0,0,1,436.14,319.78Z"/><path class="cls-5" d="M436.42,318.63a1.75,1.75,0,0,1-1,.3,1.68,1.68,0,0,1-1-.13,6.81,6.81,0,0,1,1-.08A5.51,5.51,0,0,1,436.42,318.63Z"/><path class="cls-5" d="M433.29,320.67a3.09,3.09,0,0,1-1.11,0,6.11,6.11,0,0,1-1.18-.25,3,3,0,0,1-.68-.26.68.68,0,0,1-.28-.34.44.44,0,0,1,.16-.45,2,2,0,0,1,2.89,1.3c.05.19.05.29,0,.29a3,3,0,0,0-.51-.93,2,2,0,0,0-1-.61,1.71,1.71,0,0,0-1.31.11c-.18.13-.11.34.09.45a2.7,2.7,0,0,0,.63.26,7,7,0,0,0,1.14.28C432.86,320.64,433.29,320.64,433.29,320.67Z"/><path class="cls-5" d="M433,320.73a1.1,1.1,0,0,1-.14-.77,1.94,1.94,0,0,1,.29-.81,1.1,1.1,0,0,1,.92-.57.44.44,0,0,1,.35.5,1.24,1.24,0,0,1-.19.5,3.54,3.54,0,0,1-.51.68,1.51,1.51,0,0,1-.63.45s.22-.2.52-.55a4.85,4.85,0,0,0,.46-.67c.15-.24.24-.66,0-.71s-.56.26-.73.48a1.82,1.82,0,0,0-.3.72A4.41,4.41,0,0,0,433,320.73Z"/><path class="cls-5" d="M451.63,319.33s-.5,0-1.28.06a5.38,5.38,0,0,0-4.46,3.66c-.25.74-.27,1.24-.31,1.23a1.18,1.18,0,0,1,0-.35,5.23,5.23,0,0,1,.18-.93,5.22,5.22,0,0,1,4.59-3.75,4.13,4.13,0,0,1,1,0A1.26,1.26,0,0,1,451.63,319.33Z"/><path class="cls-5" d="M449.75,312.19a62.61,62.61,0,0,1,.18,7.08,30.41,30.41,0,0,1-.19-3.54A30,30,0,0,1,449.75,312.19Z"/><path class="cls-5" d="M443.36,322.73a10,10,0,0,1-2.51.28,10.18,10.18,0,0,1-2.52-.17c0-.06,1.13,0,2.52,0S443.36,322.67,443.36,322.73Z"/><path class="cls-5" d="M446.74,322.68s-.09.24-.2.5-.17.49-.23.49-.09-.27,0-.57S446.7,322.64,446.74,322.68Z"/><path class="cls-5" d="M448,321.08s-.07.22-.24.41-.35.29-.39.25.06-.22.24-.4S448,321,448,321.08Z"/><path class="cls-5" d="M449.8,320.34c0,.05-.24.05-.49.15s-.43.23-.48.19.1-.28.41-.39S449.82,320.28,449.8,320.34Z"/><path class="cls-5" d="M451.09,320s-.07.14-.21.2-.28.06-.3,0,.08-.14.22-.2S451.07,319.92,451.09,320Z"/><path class="cls-10" d="M401.08,131.24c-1.21,12-4.38,48.4,12.26,47.14,19.63-1.5,24.15-17,24.15-17l-3.83-14s-19.37,16.84-19.87,14.79c-2.72-11.15-2-26.44-1.56-31.89"/><path class="cls-7" d="M487.93,174.16l-3.36-16.84c-2.47-13.79-21.8-14.74-21.8-14.74l-15.17-.25s-10.1-.32-18.19,6.32-13.51,11.73-13.51,11.73l12.69,14.68,7.51-5s-2.7,4.88-2.25,9c.42,4,4.63,7.06,4.63,7.06l1,25.8,45,.49-6.07-38.33Z"/><path class="cls-5" d="M466.73,156.29a4.86,4.86,0,0,1,.27,1.07c.15.81.35,1.8.58,3,.51,2.62,1.16,6,1.89,9.75s1.35,7.28,1.74,9.79c.2,1.26.34,2.28.43,3a4.44,4.44,0,0,1,.06,1.11,4.8,4.8,0,0,1-.26-1.08c-.16-.81-.36-1.79-.59-2.95-.51-2.62-1.16-6-1.89-9.76s-1.35-7.27-1.74-9.79c-.2-1.25-.34-2.28-.43-3A4.44,4.44,0,0,1,466.73,156.29Z"/><path class="cls-5" d="M488.24,174.33a78.51,78.51,0,0,1-9.15.3,83.56,83.56,0,0,1-9.15-.23,77.18,77.18,0,0,1,9.15-.29A82.37,82.37,0,0,1,488.24,174.33Z"/><path class="cls-5" d="M428.59,175.06a91.82,91.82,0,0,1-6.3-7.29,91.3,91.3,0,0,1-5.9-7.63,87.56,87.56,0,0,1,6.31,7.3A89.45,89.45,0,0,1,428.59,175.06Z"/><path class="cls-5" d="M434,174.44a10,10,0,0,1,.88-2c.33-.67.69-1.38,1.08-2.14a4,4,0,0,0,.74-2.61c-.36-2-.72-3.9-.93-5.24a9.72,9.72,0,0,1-.24-2.21,10,10,0,0,1,.6,2.14c.31,1.34.71,3.16,1.09,5.24a2.68,2.68,0,0,1-.18,1.61,12.84,12.84,0,0,1-.66,1.29l-1.18,2.1A8.7,8.7,0,0,1,434,174.44Z"/><polygon class="cls-11" points="439.37 208.66 438.73 199.06 482.1 199.06 483.75 207.39 439.37 208.66"/><path class="cls-11" d="M467.15,157.81q.28,8.81.58,17.61A11.11,11.11,0,0,1,467,181c-1.51,2.87-5.08,3.81-8.25,4.46l-19.33,4,35.81-1.74Z"/><path class="cls-10" d="M490,187.68c-1-8.1-2.06-13.31-2.06-13.31l-17.61.26s1.58,8.9,1.09,11.28c-.42,2.07-34.41,3.44-43.27,3.58-.53-.39-1.29.27-2-.32a7.13,7.13,0,0,1-1.51-1.86,11,11,0,0,1-1.21-2.74.9.9,0,0,0-1.68-.39c-.36.76,0,3.28,1.72,5.72s-2.72,1.18-4.34.74-6.68-1.53-7.2-1.12c-.76.59-.28,1.54,1.34,1.94s6.41,1.92,6.15,2.79-8.46-1.47-8.46-1.47-1.67-.78-2,.2c-.6,1.79,8.29,3.59,9.14,3.74.59.1.34,1.05-.29.91s-8.12-2.51-8.76-.7c-.48,1.39,7.3,1.55,8.59,2.93s-5.89-.74-6.3.6c-.16.5,2.83.73,7.12,1.34a111.21,111.21,0,0,0,13.27.47c10,.54,45.15,1.27,52.67.74C493.16,202.39,490.33,190.45,490,187.68Z"/><path class="cls-5" d="M489.75,165.06l.27,0c.17,0,.43.08.77.17a12,12,0,0,1,2.74,1.28,23.89,23.89,0,0,1,3.78,2.94,28.66,28.66,0,0,1,2.08,2.15,18.66,18.66,0,0,1,2,2.7,4.67,4.67,0,0,1,.4.84c.07.29.15.59.22.89.14.6.31,1.2.44,1.83.25,1.26.5,2.57.66,3.95a54.72,54.72,0,0,1,.35,8.81,91.56,91.56,0,0,1-3.38,19.88,77.42,77.42,0,0,1-3.17,10,35.36,35.36,0,0,1-4.85,8.47,22.53,22.53,0,0,1-3.15,3.31,18.47,18.47,0,0,1-3.69,2.24A45.2,45.2,0,0,1,478,237c-4.55,1.16-8.28,1.88-10.84,2.43l-2.95.62-.77.15a.74.74,0,0,1-.26,0s.08,0,.25-.09l.76-.2c.67-.17,1.65-.41,2.93-.71,2.55-.62,6.26-1.39,10.78-2.59a47.56,47.56,0,0,0,7.2-2.49,18.35,18.35,0,0,0,3.58-2.2,22.19,22.19,0,0,0,3.06-3.26,35.39,35.39,0,0,0,4.76-8.36,78.13,78.13,0,0,0,3.14-9.91,93.51,93.51,0,0,0,3.4-19.77,55.25,55.25,0,0,0-.3-8.74c-.15-1.36-.39-2.66-.62-3.92-.12-.62-.29-1.22-.42-1.82l-.21-.88a4,4,0,0,0-.36-.76,18.11,18.11,0,0,0-2-2.66c-.68-.8-1.36-1.51-2-2.16a25,25,0,0,0-3.69-3,12.73,12.73,0,0,0-2.67-1.35A9.35,9.35,0,0,1,489.75,165.06Z"/><path class="cls-10" d="M411.57,133.16s.28-1.29.73-5l4.12-8.07s-.92-1.69-3,1.89a2,2,0,0,1-3.67-1.61,3.28,3.28,0,0,1,5.9-1.2s1.32.13,1.47-.89-2.82-3.58-5.36-2.84a7.74,7.74,0,0,0-2.8,1.59s.55-8.49-.14-8.57-1.65.45-2.17,9.75c0,0-.28-7.34-.43-8.28s-1.41-1.57-1.56.79c0,.26-.49,7.48-.49,7.48s-.82-4.78-.91-5.16c-.23-1-1.23-.9-1.32.43-.07,1-.4,5.33-.4,5.33l-.62,13.3h-.08"/><path class="cls-10" d="M446.31,146.75c-.1-4.34-.27-8.87-.27-8.87s-6.4-.81-6.68-7.35.38-21.59.38-21.59l11.78-5.66L461.81,115l.16,31.53a7.83,7.83,0,0,1-7.83,7.86h0A7.83,7.83,0,0,1,446.31,146.75Z"/><path class="cls-5" d="M441.39,119.94a.82.82,0,1,0,.83-.82A.83.83,0,0,0,441.39,119.94Z"/><path class="cls-5" d="M440.05,119c.11.11.72-.41,1.59-.44s1.53.41,1.63.29-.06-.25-.35-.46a2,2,0,0,0-1.3-.37,2.06,2.06,0,0,0-1.26.49C440.09,118.76,440,119,440.05,119Z"/><path class="cls-5" d="M450.93,119.94a.82.82,0,1,0,.83-.82A.83.83,0,0,0,450.93,119.94Z"/><path class="cls-5" d="M449.77,119.19c.1.11.71-.41,1.59-.44s1.53.41,1.62.29-.06-.25-.34-.46a2.1,2.1,0,0,0-1.3-.38,2.18,2.18,0,0,0-1.27.49C449.81,118.93,449.72,119.14,449.77,119.19Z"/><path class="cls-5" d="M446.48,126.73a5.9,5.9,0,0,0-1.43-.22c-.23,0-.44-.05-.48-.21a1.22,1.22,0,0,1,.14-.72l.63-1.86a32.59,32.59,0,0,0,1.41-4.84A35.56,35.56,0,0,0,445,123.6l-.6,1.86a1.5,1.5,0,0,0-.1,1,.56.56,0,0,0,.37.34,1.82,1.82,0,0,0,.38,0A5.82,5.82,0,0,0,446.48,126.73Z"/><path class="cls-12" d="M446,137.88a15.6,15.6,0,0,0,8.48-2.78s-2,4.76-8.36,4.38Z"/><path class="cls-12" d="M446.79,129a1.71,1.71,0,0,1,1-1.25,1.35,1.35,0,0,1,1.13,0,1,1,0,0,1,.52,1,1.11,1.11,0,0,1-.91.84,3,3,0,0,1-1.3-.08,1,1,0,0,1-.34-.13.3.3,0,0,1-.14-.31"/><path class="cls-5" d="M449,126.7c.06,0,.17.24.14.66a2.32,2.32,0,0,1-2.24,2.12c-.43,0-.67-.12-.66-.18s1-.07,1.82-.83S448.82,126.69,449,126.7Z"/><path class="cls-5" d="M430.15,157.64a15.69,15.69,0,0,1,2.15-5.19,7.67,7.67,0,0,1-.83,2.7A7.88,7.88,0,0,1,430.15,157.64Z"/><path class="cls-5" d="M445.09,159.83a7.24,7.24,0,0,1-2.88-1.44,7.1,7.1,0,0,1-2.33-2.22,17.53,17.53,0,0,1,2.63,1.8A16.89,16.89,0,0,1,445.09,159.83Z"/><path class="cls-5" d="M443.23,146.91a5.78,5.78,0,0,1-2.17,1,5.56,5.56,0,0,1-2.33.53,11,11,0,0,1,4.5-1.55Z"/><path class="cls-5" d="M442.22,173.2a23.58,23.58,0,0,1,4-5.68,11.91,11.91,0,0,1-1.8,3A11.58,11.58,0,0,1,442.22,173.2Z"/><path class="cls-5" d="M443.08,183.92a12.19,12.19,0,0,1-2.85-2.14,11.89,11.89,0,0,1-2.51-2.53,24.55,24.55,0,0,1,5.36,4.67Z"/><path class="cls-5" d="M450.62,182.92a26.09,26.09,0,0,1-.91-3.27,25.32,25.32,0,0,1-1-3.25,7.37,7.37,0,0,1,1.46,3.11A7.25,7.25,0,0,1,450.62,182.92Z"/><path class="cls-5" d="M464.48,183.09a18.37,18.37,0,0,1-5.86,1.81,9.2,9.2,0,0,1,2.86-1.16A9,9,0,0,1,464.48,183.09Z"/><path class="cls-5" d="M465.14,172a24.35,24.35,0,0,1-6.18,3.35,23.55,23.55,0,0,1,6.18-3.35Z"/><path class="cls-5" d="M457.84,167.66a10.1,10.1,0,0,1-2-2.45,9.55,9.55,0,0,1-1.61-2.75,10.35,10.35,0,0,1,2,2.45A9.85,9.85,0,0,1,457.84,167.66Z"/><path class="cls-5" d="M463.3,156s-.13,0-.29-.11l.18-.07a14.71,14.71,0,0,1-.41,3.07,8.78,8.78,0,0,1-1.13,3.2,15.2,15.2,0,0,1,.62-3.31c.3-1.33.55-2.49.71-3l.07-.2.11.14C463.27,155.86,463.32,156,463.3,156Z"/><path class="cls-5" d="M475.18,148.17a12.36,12.36,0,0,1-3.56-.46,12.58,12.58,0,0,1-3.45-1,12.55,12.55,0,0,1,3.56.45A12.79,12.79,0,0,1,475.18,148.17Z"/><path class="cls-5" d="M472.34,159.5a7.32,7.32,0,0,1,.07-2.71,7.09,7.09,0,0,1,.6-2.64,7.21,7.21,0,0,1-.08,2.71A7.13,7.13,0,0,1,472.34,159.5Z"/><path class="cls-5" d="M478.65,162.83a11.58,11.58,0,0,1,1.84-4.52,11.19,11.19,0,0,1-1.84,4.52Z"/><path class="cls-5" d="M478.7,169.2a13.33,13.33,0,0,1-3.16-2,13.87,13.87,0,0,1-2.86-2.39,13.12,13.12,0,0,1,3.16,2A12.91,12.91,0,0,1,478.7,169.2Z"/><path class="cls-5" d="M448.41,209.37a7.75,7.75,0,0,1-2.49-1.37,8.33,8.33,0,0,1-2.2-1.8,7.75,7.75,0,0,1,2.49,1.37A8.33,8.33,0,0,1,448.41,209.37Z"/><path class="cls-5" d="M459.82,205.35a25.11,25.11,0,0,1-4.57,5.63,12.67,12.67,0,0,1,2.08-3A12.94,12.94,0,0,1,459.82,205.35Z"/><path class="cls-5" d="M471.68,210.85a7,7,0,0,1,1-2.46,7.14,7.14,0,0,1,1.49-2.21,6.87,6.87,0,0,1-1,2.46A6.94,6.94,0,0,1,471.68,210.85Z"/><path class="cls-5" d="M468.52,211.51a7.25,7.25,0,0,1-1.58-2.21,7,7,0,0,1-1.13-2.46,7.31,7.31,0,0,1,1.58,2.2A7.23,7.23,0,0,1,468.52,211.51Z"/><path class="cls-5" d="M439.28,107.4a4.18,4.18,0,1,0,6.07,4.85,3.53,3.53,0,0,0,.82,4.17,4.18,4.18,0,0,0,4.31.62,5.15,5.15,0,0,0,2.87-3.38,4.69,4.69,0,0,0,6,4.43,4.52,4.52,0,0,0,.83,8.06,4.13,4.13,0,0,0,3.46,7.43c2-.62,3.19-2.6,4-4.53a21.6,21.6,0,0,0-.06-16.38,18.47,18.47,0,0,0-12.31-10.55,16.13,16.13,0,0,0-15.37,4.55"/><path class="cls-6" d="M472.49,108s0,.07,0,.22a2.23,2.23,0,0,1,0,.64,3.85,3.85,0,0,1-1,2.16,3.67,3.67,0,0,1-3.45,1.16,4.1,4.1,0,0,1-3.2-3.37h.47a4.73,4.73,0,0,1-2.18,3.26,4.38,4.38,0,0,1-4.22.29,4.77,4.77,0,0,1-2.62-3.06,2.53,2.53,0,0,1,.17-2,1.62,1.62,0,0,1,.84-.64,1.18,1.18,0,0,1,1.06.18,1.54,1.54,0,0,1,.38,1.84,3.21,3.21,0,0,1-1.14,1.27,4.58,4.58,0,0,1-2.86.78,4.16,4.16,0,0,1-2.29-.85,4.3,4.3,0,0,1-1.21-1.38,4,4,0,0,1-.42-1.07,1.21,1.21,0,0,1,0-.4,8.78,8.78,0,0,0,.63,1.37,4.15,4.15,0,0,0,5.94,1.19,2.74,2.74,0,0,0,1-1.09,1.09,1.09,0,0,0-.25-1.28.87.87,0,0,0-1.19.35,2.06,2.06,0,0,0-.1,1.61,4.26,4.26,0,0,0,2.35,2.71,3.86,3.86,0,0,0,3.73-.24,4.25,4.25,0,0,0,2-2.9l.26-1.69.21,1.7a3.73,3.73,0,0,0,2.81,3,3.42,3.42,0,0,0,3.17-1,4,4,0,0,0,1.08-2C472.48,108.3,472.45,108,472.49,108Z"/><path class="cls-6" d="M477.76,114.8a1.71,1.71,0,0,1-.08.84,4.3,4.3,0,0,1-4.41,3.15,4.59,4.59,0,0,1-3.54-2.22c-.09-.15-.15-.31-.23-.46H470a3,3,0,0,1-1.46,1.62,3.8,3.8,0,0,1-1.94.46,4.32,4.32,0,0,1-3-1.38,6.32,6.32,0,0,1-1.24-1.8,1.91,1.91,0,0,1-.25-.75,12.12,12.12,0,0,0,1.74,2.29,4,4,0,0,0,2.72,1.17,3,3,0,0,0,2.91-1.79l.2-.55.28.54c.07.13.12.27.2.4a4.22,4.22,0,0,0,3.14,2,3.92,3.92,0,0,0,2.93-1,4.55,4.55,0,0,0,1.24-1.77A4.8,4.8,0,0,1,477.76,114.8Z"/><path class="cls-6" d="M471.16,127.16a2.49,2.49,0,0,1-2,.39,3.51,3.51,0,0,1-2-1,3.72,3.72,0,0,1-1-2.58l.39.23-.15.07a3.69,3.69,0,0,1-2.82.24,3.51,3.51,0,0,1-1.86-1.39,2.54,2.54,0,0,1-.53-2,6,6,0,0,0,.83,1.78,3.32,3.32,0,0,0,1.69,1.15,3.36,3.36,0,0,0,2.45-.24l.13-.06.39-.21v.43a3.37,3.37,0,0,0,.87,2.26,3.31,3.31,0,0,0,1.74,1A5.93,5.93,0,0,0,471.16,127.16Z"/><path class="cls-6" d="M434.36,111.33a6.7,6.7,0,0,0,2.56,1.46,4.75,4.75,0,0,0,3.08-.2,5,5,0,0,0,2.59-2.71,4.73,4.73,0,0,0,.24-.85l.16-.79.33.72a1.25,1.25,0,0,0,1.36.58,2.74,2.74,0,0,0,1.39-.81,5.12,5.12,0,0,0,1.39-2.48,7.64,7.64,0,0,0,.07-2.66s.15.23.27.7a5.23,5.23,0,0,1,0,2,5.41,5.41,0,0,1-1.41,2.73,3.2,3.2,0,0,1-1.62,1,1.75,1.75,0,0,1-1.93-.86l.49-.07a4.89,4.89,0,0,1-.26,1,5.38,5.38,0,0,1-2.89,3,4.92,4.92,0,0,1-3.37.11,4.74,4.74,0,0,1-2-1.15A1.86,1.86,0,0,1,434.36,111.33Z"/><path class="cls-6" d="M437.26,119.53c.06,0,.07.48-.42,1a2.63,2.63,0,0,1-2.52.65,4.9,4.9,0,0,1-2.24-1.3c-.47-.45-.71-.77-.66-.82s.38.17.89.54a6.09,6.09,0,0,0,2.12,1.07,2.53,2.53,0,0,0,2.16-.41C437.06,119.9,437.18,119.51,437.26,119.53Z"/><path class="cls-6" d="M445.34,120.85s0-.35-.22-.93a3.86,3.86,0,0,0-1.44-2,3.71,3.71,0,1,0-3.52,6.44,3.79,3.79,0,0,0,3.52-.49,3.94,3.94,0,0,0,1.44-2c.17-.59.17-.94.22-.94a2,2,0,0,1,0,1,3.94,3.94,0,0,1-1.42,2.28,4.11,4.11,0,0,1-3.91.65,4.16,4.16,0,0,1,0-7.83,4.1,4.1,0,0,1,3.91.64,4,4,0,0,1,1.42,2.29A2,2,0,0,1,445.34,120.85Z"/><path class="cls-6" d="M456.46,120.85s0-.35-.22-.93a3.89,3.89,0,0,0-1.45-2,3.71,3.71,0,1,0-3.52,6.44,3.78,3.78,0,0,0,3.52-.49,4,4,0,0,0,1.45-2c.17-.59.17-.94.22-.94a2.1,2.1,0,0,1,0,1,3.92,3.92,0,0,1-1.41,2.28,4.11,4.11,0,0,1-3.91.65,4.15,4.15,0,0,1,0-7.83,4.1,4.1,0,0,1,3.91.64,3.94,3.94,0,0,1,1.41,2.29A2.05,2.05,0,0,1,456.46,120.85Z"/><path class="cls-6" d="M448.8,120.66c0,.15-.79.26-1.77.26s-1.76-.11-1.76-.26.79-.26,1.76-.26S448.8,120.52,448.8,120.66Z"/><path class="cls-5" d="M409.62,211.46a262.71,262.71,0,0,1,45.62-.57L436,238.57l-17.4.07-3.74,79.5h-23l2.2-89.31a18,18,0,0,1,15.58-17.37Z"/><path class="cls-5" d="M452,240.76s34.48,2.34,33.62-28.62c0,0-55.23-9.32-58.82,6.73-1.15,5.15,2,99.91,2,99.91h24.1"/><path class="cls-6" d="M452.32,233.9a15,15,0,0,1,0,4,15.23,15.23,0,0,1-.49,3.94,30.84,30.84,0,0,1,.45-7.91Z"/><path class="cls-6" d="M451.22,209.29a1.73,1.73,0,0,1-.47.21c-.32.12-.79.28-1.41.46a46.29,46.29,0,0,1-5.32,1.1,47.78,47.78,0,0,0-7.82,1.68,17.89,17.89,0,0,0-4.21,2,11.87,11.87,0,0,0-3.43,3.58,16.35,16.35,0,0,0-2.47,9.24c.15,3,.29,5.72.41,8s.19,4.07.26,5.43c0,.59,0,1.07,0,1.47a3,3,0,0,1,0,.52,1.85,1.85,0,0,1-.09-.51c0-.4-.08-.88-.14-1.47-.1-1.36-.24-3.19-.41-5.41s-.38-5-.53-8a16.68,16.68,0,0,1,2.51-9.53,12.28,12.28,0,0,1,3.59-3.72,17.45,17.45,0,0,1,4.33-2.06A44.46,44.46,0,0,1,444,210.7c2.27-.32,4.09-.63,5.33-.94S451.21,209.25,451.22,209.29Z"/></g><g id="Desk"><polygon class="cls-6" points="378.01 154.38 391.1 195.25 463.46 196.56 462.98 194.39 436.55 193.57 424.38 154.36 378.01 154.38"/><path class="cls-13" d="M407.4,174.81c.43,1.72-.31,3.42-1.66,3.78s-2.78-.75-3.21-2.48.31-3.42,1.65-3.78S407,173.08,407.4,174.81Z"/><path class="cls-7" d="M539.1,183.54a6,6,0,0,0-4.05-1.17c0-.78,0-1.27,0-1.27H512.89s-.69,14.61,10.49,15.13c5,.23,7.87-2,9.51-4.84a11,11,0,0,0,2.51.31,5.76,5.76,0,0,0,3.49-1,4.37,4.37,0,0,0,1.66-3.74A4.26,4.26,0,0,0,539.1,183.54ZM537.59,189c-1,.71-2.64.6-3.74.4a19.3,19.3,0,0,0,1.07-4.8,4.24,4.24,0,0,1,2.78.64,2.19,2.19,0,0,1,.67,1.77A2.31,2.31,0,0,1,537.59,189Z"/><path class="cls-5" d="M531.77,176.4a2.64,2.64,0,0,1-.42-.5,4.84,4.84,0,0,1-.73-1.73,5,5,0,0,1,.26-3,9.63,9.63,0,0,1,2.49-3,7.32,7.32,0,0,0,2.24-4,6.85,6.85,0,0,0-1-5.08,7.11,7.11,0,0,0-2-2.05,10.65,10.65,0,0,0-2.74-1.23,8.27,8.27,0,0,1-2.9-1.46,4.29,4.29,0,0,1-1-1.35,2.74,2.74,0,0,1-.21-1.74c0-.09.05-.17.07-.24l.27.26a2.72,2.72,0,0,0-1.62,2.37,5.49,5.49,0,0,0,.66,2.93c.43.93,1,1.8,1.38,2.73a5.9,5.9,0,0,1,.56,2.94,4.24,4.24,0,0,1-1.32,2.53,8.17,8.17,0,0,1-2.23,1.48,42.62,42.62,0,0,0-4.3,1.85,6,6,0,0,0-2.5,2.77,6.71,6.71,0,0,0-.6,2.8,7.19,7.19,0,0,0,.46,2.42s0,0-.08-.14a3,3,0,0,1-.2-.45,6,6,0,0,1-.35-1.82,6.89,6.89,0,0,1,.55-2.9,6.2,6.2,0,0,1,2.57-2.93,43.7,43.7,0,0,1,4.31-1.92,7.72,7.72,0,0,0,2.11-1.43,3.79,3.79,0,0,0,1.19-2.3,5.35,5.35,0,0,0-.54-2.74c-.38-.9-.93-1.76-1.38-2.71a5.84,5.84,0,0,1-.7-3.16,3.76,3.76,0,0,1,.54-1.6,2.6,2.6,0,0,1,1.35-1.11l.38-.14-.12.4,0,.2a2.87,2.87,0,0,0,1.11,2.69,7.83,7.83,0,0,0,2.75,1.38,10.82,10.82,0,0,1,2.83,1.29A7.49,7.49,0,0,1,535,158.9a7.21,7.21,0,0,1,1,5.36,7.57,7.57,0,0,1-2.37,4.12,9.48,9.48,0,0,0-2.48,2.92,5,5,0,0,0-.32,2.84A5.8,5.8,0,0,0,531.77,176.4Z"/><polygon class="cls-5" points="558.75 195.43 331.79 195.43 331.79 202.38 343.93 202.38 337.47 325.21 340.93 325.2 347.39 202.38 546.33 201.29 550.9 324.84 554.73 325.05 549.83 202.38 558.75 202.38 558.75 195.43"/></g><g id="Server"><rect class="cls-3" x="111.71" y="29.69" width="96.61" height="295.95"/><rect class="cls-1" x="208.19" y="30.65" width="76.36" height="295"/><rect class="cls-5" x="117.06" y="77.06" width="81.95" height="23.07"/><rect class="cls-7" x="119.35" y="79.96" width="4.59" height="17.66"/><path class="cls-13" d="M129.34,83.67a1.46,1.46,0,1,1-1.46-1.45A1.46,1.46,0,0,1,129.34,83.67Z"/><path class="cls-13" d="M129.34,89.91a1.46,1.46,0,1,1-1.46-1.45A1.46,1.46,0,0,1,129.34,89.91Z"/><rect class="cls-6" x="135.17" y="82.22" width="4.51" height="13.56"/><rect class="cls-6" x="141.69" y="82.22" width="4.51" height="13.56"/><rect class="cls-6" x="148.2" y="82.22" width="4.51" height="13.56"/><rect class="cls-6" x="154.71" y="82.22" width="4.51" height="13.56"/><rect class="cls-6" x="161.23" y="82.22" width="4.51" height="13.56"/><rect class="cls-6" x="167.74" y="82.22" width="4.51" height="13.56"/><rect class="cls-6" x="174.26" y="82.22" width="4.51" height="13.56"/><rect class="cls-6" x="180.77" y="82.22" width="4.51" height="13.56"/><rect class="cls-6" x="187.28" y="82.22" width="4.51" height="13.56"/><rect class="cls-6" x="193.8" y="82.22" width="4.51" height="13.56"/><rect class="cls-5" x="117.06" y="110.21" width="81.95" height="23.07"/><rect class="cls-7" x="119.35" y="113.11" width="4.59" height="17.66"/><path class="cls-13" d="M129.34,116.82a1.46,1.46,0,1,1-1.46-1.46A1.46,1.46,0,0,1,129.34,116.82Z"/><path class="cls-13" d="M129.34,123.06a1.46,1.46,0,1,1-1.46-1.46A1.46,1.46,0,0,1,129.34,123.06Z"/><rect class="cls-6" x="135.17" y="115.36" width="4.51" height="13.56"/><rect class="cls-6" x="141.69" y="115.36" width="4.51" height="13.56"/><rect class="cls-6" x="148.2" y="115.36" width="4.51" height="13.56"/><rect class="cls-6" x="154.71" y="115.36" width="4.51" height="13.56"/><rect class="cls-6" x="161.23" y="115.36" width="4.51" height="13.56"/><rect class="cls-6" x="167.74" y="115.36" width="4.51" height="13.56"/><rect class="cls-6" x="174.26" y="115.36" width="4.51" height="13.56"/><rect class="cls-6" x="180.77" y="115.36" width="4.51" height="13.56"/><rect class="cls-6" x="187.28" y="115.36" width="4.51" height="13.56"/><rect class="cls-6" x="193.8" y="115.36" width="4.51" height="13.56"/><rect class="cls-5" x="117.06" y="143.62" width="81.95" height="23.07"/><rect class="cls-7" x="119.35" y="146.52" width="4.59" height="17.66"/><path class="cls-13" d="M129.34,150.23a1.46,1.46,0,1,1-1.46-1.46A1.46,1.46,0,0,1,129.34,150.23Z"/><path class="cls-13" d="M129.34,156.47a1.46,1.46,0,1,1-1.46-1.46A1.46,1.46,0,0,1,129.34,156.47Z"/><rect class="cls-6" x="135.17" y="148.77" width="4.51" height="13.56"/><rect class="cls-6" x="141.69" y="148.77" width="4.51" height="13.56"/><rect class="cls-6" x="148.2" y="148.77" width="4.51" height="13.56"/><rect class="cls-6" x="154.71" y="148.77" width="4.51" height="13.56"/><rect class="cls-6" x="161.23" y="148.77" width="4.51" height="13.56"/><rect class="cls-6" x="167.74" y="148.77" width="4.51" height="13.56"/><rect class="cls-6" x="174.26" y="148.77" width="4.51" height="13.56"/><rect class="cls-6" x="180.77" y="148.77" width="4.51" height="13.56"/><rect class="cls-6" x="187.28" y="148.77" width="4.51" height="13.56"/><rect class="cls-6" x="193.8" y="148.77" width="4.51" height="13.56"/><rect class="cls-5" x="117.06" y="177.49" width="81.95" height="23.07"/><rect class="cls-7" x="119.35" y="180.39" width="4.59" height="17.66"/><path class="cls-13" d="M129.34,184.1a1.46,1.46,0,1,1-1.46-1.46A1.46,1.46,0,0,1,129.34,184.1Z"/><path class="cls-13" d="M129.34,190.34a1.46,1.46,0,1,1-1.46-1.46A1.46,1.46,0,0,1,129.34,190.34Z"/><rect class="cls-6" x="135.17" y="182.64" width="4.51" height="13.56"/><rect class="cls-6" x="141.69" y="182.64" width="4.51" height="13.56"/><rect class="cls-6" x="148.2" y="182.64" width="4.51" height="13.56"/><rect class="cls-6" x="154.71" y="182.64" width="4.51" height="13.56"/><rect class="cls-6" x="161.23" y="182.64" width="4.51" height="13.56"/><rect class="cls-6" x="167.74" y="182.64" width="4.51" height="13.56"/><rect class="cls-6" x="174.26" y="182.64" width="4.51" height="13.56"/><rect class="cls-6" x="180.77" y="182.64" width="4.51" height="13.56"/><rect class="cls-6" x="187.28" y="182.64" width="4.51" height="13.56"/><rect class="cls-6" x="193.8" y="182.64" width="4.51" height="13.56"/><rect class="cls-5" x="117.06" y="216.16" width="81.95" height="23.07"/><rect class="cls-7" x="119.35" y="219.06" width="4.59" height="17.66"/><path class="cls-13" d="M129.34,222.77a1.46,1.46,0,1,1-1.46-1.46A1.46,1.46,0,0,1,129.34,222.77Z"/><path class="cls-13" d="M129.34,229a1.46,1.46,0,1,1-1.46-1.46A1.46,1.46,0,0,1,129.34,229Z"/><rect class="cls-6" x="135.17" y="221.31" width="4.51" height="13.56"/><rect class="cls-6" x="141.69" y="221.31" width="4.51" height="13.56"/><rect class="cls-6" x="148.2" y="221.31" width="4.51" height="13.56"/><rect class="cls-6" x="154.71" y="221.31" width="4.51" height="13.56"/><rect class="cls-6" x="161.23" y="221.31" width="4.51" height="13.56"/><rect class="cls-6" x="167.74" y="221.31" width="4.51" height="13.56"/><rect class="cls-6" x="174.26" y="221.31" width="4.51" height="13.56"/><rect class="cls-6" x="180.77" y="221.31" width="4.51" height="13.56"/><rect class="cls-6" x="187.28" y="221.31" width="4.51" height="13.56"/><rect class="cls-6" x="193.8" y="221.31" width="4.51" height="13.56"/><rect class="cls-5" x="117.06" y="288.7" width="81.95" height="23.07"/><rect class="cls-7" x="119.35" y="291.6" width="4.59" height="17.66"/><path class="cls-13" d="M129.34,295.32a1.46,1.46,0,1,1-1.46-1.46A1.45,1.45,0,0,1,129.34,295.32Z"/><path class="cls-13" d="M129.34,301.55a1.46,1.46,0,1,1-1.46-1.45A1.46,1.46,0,0,1,129.34,301.55Z"/><rect class="cls-6" x="135.17" y="293.86" width="4.51" height="13.56"/><rect class="cls-6" x="141.69" y="293.86" width="4.51" height="13.56"/><rect class="cls-6" x="148.2" y="293.86" width="4.51" height="13.56"/><rect class="cls-6" x="154.71" y="293.86" width="4.51" height="13.56"/><rect class="cls-6" x="161.23" y="293.86" width="4.51" height="13.56"/><rect class="cls-6" x="167.74" y="293.86" width="4.51" height="13.56"/><rect class="cls-6" x="174.26" y="293.86" width="4.51" height="13.56"/><rect class="cls-6" x="180.77" y="293.86" width="4.51" height="13.56"/><rect class="cls-6" x="187.28" y="293.86" width="4.51" height="13.56"/><rect class="cls-6" x="193.8" y="293.86" width="4.51" height="13.56"/><rect class="cls-5" x="117.06" y="252.46" width="81.95" height="23.07"/><rect class="cls-7" x="119.35" y="255.36" width="4.59" height="17.66"/><path class="cls-13" d="M129.34,259.08a1.46,1.46,0,1,1-1.46-1.46A1.45,1.45,0,0,1,129.34,259.08Z"/><path class="cls-13" d="M129.34,265.31a1.46,1.46,0,1,1-1.46-1.45A1.46,1.46,0,0,1,129.34,265.31Z"/><rect class="cls-6" x="135.17" y="257.62" width="4.51" height="13.56"/><rect class="cls-6" x="141.69" y="257.62" width="4.51" height="13.56"/><rect class="cls-6" x="148.2" y="257.62" width="4.51" height="13.56"/><rect class="cls-6" x="154.71" y="257.62" width="4.51" height="13.56"/><rect class="cls-6" x="161.23" y="257.62" width="4.51" height="13.56"/><rect class="cls-6" x="167.74" y="257.62" width="4.51" height="13.56"/><rect class="cls-6" x="174.26" y="257.62" width="4.51" height="13.56"/><rect class="cls-6" x="180.77" y="257.62" width="4.51" height="13.56"/><rect class="cls-6" x="187.28" y="257.62" width="4.51" height="13.56"/><rect class="cls-6" x="193.8" y="257.62" width="4.51" height="13.56"/><path class="cls-5" d="M167.74,77.06a3,3,0,0,1-.08-.71c0-.47-.06-1.16-.08-2s0-2-.1-3.24a20.53,20.53,0,0,0-.56-4.21,15,15,0,0,0-2.19-4.61,10.14,10.14,0,0,0-4.49-3.62,21.78,21.78,0,0,0-6.37-1.29l-7.06-.61c-9.67-.84-18.45-1.38-24.8-1.49-3.18-.07-5.76,0-7.54,0l-2,0a5.72,5.72,0,0,1-.72,0,3,3,0,0,1,.71-.08l2-.12c1.78-.08,4.36-.15,7.54-.13,6.37,0,15.16.5,24.84,1.34l7.07.62a21.86,21.86,0,0,1,6.5,1.36,10.59,10.59,0,0,1,4.66,3.8,15.41,15.41,0,0,1,2.2,4.77,20.61,20.61,0,0,1,.49,4.3c0,1.27,0,2.36,0,3.25s0,1.52,0,2A4,4,0,0,1,167.74,77.06Z"/><path class="cls-5" d="M142.88,77.06a3.5,3.5,0,0,1,0-.67l0-1.93c0-.84,0-1.86-.09-3a9.42,9.42,0,0,0-1-3.8A7.26,7.26,0,0,0,138,64.77a10.11,10.11,0,0,0-5.39-.55,9,9,0,0,0-2.79,1,5.29,5.29,0,0,0-2.17,2,2.92,2.92,0,0,0,0,2.89A3.89,3.89,0,0,0,130.12,72a3.13,3.13,0,0,0,2.87-.83,4.29,4.29,0,0,0,1.3-2.74,4.15,4.15,0,0,0-.86-2.8,6.21,6.21,0,0,0-2.17-1.92,8.34,8.34,0,0,0-2.71-.7c-.93-.13-1.83-.25-2.7-.35-1.74-.2-3.37-.31-4.86-.37-3-.12-5.41-.07-7.09-.07H112a3.22,3.22,0,0,1-.68,0,4.46,4.46,0,0,1,.67-.07L113.9,62c1.67-.06,4.1-.17,7.1-.1,1.5,0,3.14.13,4.9.31.88.09,1.78.2,2.71.33.47.07.94.13,1.43.22a5.86,5.86,0,0,1,1.44.5,6.53,6.53,0,0,1,2.35,2.06,4.6,4.6,0,0,1,1,3.13,4.71,4.71,0,0,1-1.44,3.07,3.63,3.63,0,0,1-3.35,1,4.37,4.37,0,0,1-2.79-2.11,3.42,3.42,0,0,1,0-3.38,5.78,5.78,0,0,1,2.38-2.25,9.24,9.24,0,0,1,2.95-1,10.55,10.55,0,0,1,5.63.62A7.58,7.58,0,0,1,142,67.44a9.51,9.51,0,0,1,1,4c.06,1.2,0,2.22,0,3.06s0,1.43-.07,1.93A2.94,2.94,0,0,1,142.88,77.06Z"/><path class="cls-5" d="M174.43,77.06a4.46,4.46,0,0,1-.16-.76c-.09-.51-.23-1.25-.44-2.19a42.33,42.33,0,0,0-2.41-7.82,22.79,22.79,0,0,0-7.13-9.58,13.54,13.54,0,0,0-6.54-2.49,70.51,70.51,0,0,0-7.68-.41c-10.59-.2-20.19-.16-27.14-.43-3.47-.12-6.28-.28-8.22-.42l-2.22-.18a4.5,4.5,0,0,1-.78-.1,4.23,4.23,0,0,1,.78,0l2.24.09c1.94.08,4.74.18,8.21.26,6.94.17,16.53.07,27.14.27a67.72,67.72,0,0,1,7.75.43,14,14,0,0,1,6.75,2.61,20.83,20.83,0,0,1,4.51,4.77,27.23,27.23,0,0,1,2.67,5.05A39.11,39.11,0,0,1,174,74.07c.18,1,.28,1.7.34,2.21A3.81,3.81,0,0,1,174.43,77.06Z"/><rect class="cls-5" x="118.19" y="33.38" width="79.7" height="11.57"/><rect class="cls-6" x="135.71" y="39.16" width="43.39" height="5.78"/><path class="cls-5" d="M230.4,273.33c0,.05-.88.14-2.41.58a21,21,0,0,0-6,2.95,17,17,0,0,0-3.38,3.15,11.41,11.41,0,0,0-1.39,2.14,15.21,15.21,0,0,0-.87,2.57c-.91,3.65-.63,7.84-.45,12.2s-.11,8.69-1.83,12.18a13.52,13.52,0,0,1-3.25,4.35,15.58,15.58,0,0,1-7.72,3.65,14,14,0,0,1-2.94.13,9.84,9.84,0,0,1-1.83-.29,2.87,2.87,0,0,1-.62-.19c0-.06.87.21,2.46.27a13.42,13.42,0,0,0,2.88-.21,15.92,15.92,0,0,0,3.63-1.16,15.32,15.32,0,0,0,3.85-2.52,13.28,13.28,0,0,0,3.11-4.23c1.64-3.39,1.92-7.63,1.74-12s-.45-8.59.51-12.34a14.82,14.82,0,0,1,.92-2.65,12.39,12.39,0,0,1,1.47-2.22,16.78,16.78,0,0,1,3.5-3.17,19.76,19.76,0,0,1,6.18-2.84,13.8,13.8,0,0,1,1.82-.35A3.08,3.08,0,0,1,230.4,273.33Z"/><rect class="cls-5" x="193.66" y="313.17" width="6.54" height="7.96"/><rect class="cls-6" x="230.4" y="253.23" width="36.69" height="40.2"/><circle class="cls-5" cx="248.75" cy="273.48" r="12.08" transform="translate(-120.53 255.99) rotate(-45)"/><path class="cls-6" d="M254.78,273.48a6,6,0,1,1-6-6A6,6,0,0,1,254.78,273.48Z"/><circle class="cls-5" cx="235.36" cy="259.47" r="1.12"/><circle class="cls-5" cx="261.48" cy="259.47" r="1.12"/><circle class="cls-5" cx="261.72" cy="289.15" r="1.12"/><circle class="cls-5" cx="235.36" cy="289.61" r="1.12"/><rect class="cls-5" x="267.09" y="253.23" width="2.96" height="40.2"/></g><g id="Shield"><path class="cls-5" d="M298.25,102c0,.15-10.51.26-23.47.26s-23.48-.11-23.48-.26,10.51-.26,23.48-.26S298.25,101.82,298.25,102Z"/><path class="cls-5" d="M395.7,107a3.92,3.92,0,0,1-.46,0l-1.38,0-5.37,0-20.12.07-69.46.1h-.18l-.06-.19a17.27,17.27,0,0,1,17-22.09l-.25.33a14.55,14.55,0,0,1-.54-4.66,15.33,15.33,0,0,1,7.95-12.95,15.71,15.71,0,0,1,14.72.07l-.36.13A22.88,22.88,0,0,1,350.7,55.3a21.48,21.48,0,0,1,17.08.8,23.31,23.31,0,0,1,10.58,11.56,22,22,0,0,1,1.3,13.86l-.19-.22a16.47,16.47,0,0,1,8,1.15,16.9,16.9,0,0,1,6,4.09,10.68,10.68,0,0,1,1.87,2.69,14.57,14.57,0,0,1,1,2.86,25.26,25.26,0,0,1,.69,5.22,29.51,29.51,0,0,1-.63,7.23,15.05,15.05,0,0,1-.5,1.82l-.21.59s.05-.22.17-.62.27-1,.44-1.81a30.87,30.87,0,0,0,.53-7.2,25.41,25.41,0,0,0-.72-5.17,11.39,11.39,0,0,0-2.85-5.42,16.52,16.52,0,0,0-5.88-4,16.21,16.21,0,0,0-7.88-1.1l-.25,0,.06-.25A21.79,21.79,0,0,0,378,67.82,22.92,22.92,0,0,0,367.58,56.5a21.07,21.07,0,0,0-16.72-.75A22.45,22.45,0,0,0,337.69,68l-.11.27-.25-.14a15.24,15.24,0,0,0-14.23-.07,14.86,14.86,0,0,0-7.67,12.52,14.11,14.11,0,0,0,.52,4.5l.09.34h-.35a16.75,16.75,0,0,0-16.54,21.43l-.24-.18,69.32.11,20.17.07,5.41,0,1.4,0Z"/><path class="cls-5" d="M382.23,166a3.2,3.2,0,0,1-.64.05l-1.83,0-6.87.07-23.68.09H349V166c0-4,0-8.35,0-12.84,0-12.65.06-24.09.08-32.43,0-4.12.06-7.46.08-9.83,0-1.12,0-2,.05-2.67q0-.42,0-.69a1.1,1.1,0,0,1,0-.24.75.75,0,0,1,0,.24q0,.27,0,.69c0,.65,0,1.55,0,2.67,0,2.37.05,5.71.09,9.83,0,8.34,0,19.78.07,32.43,0,4.49,0,8.83,0,12.84l-.25-.25,23.68.09,6.87.08,1.83,0A4,4,0,0,1,382.23,166Z"/><path class="cls-7" d="M373.05,38l-22.33-8-22.11,7.91c-2.82,1.33-5.29,2.13-5.29,4.76V55.73a49.52,49.52,0,0,0,7.28,26.06,45.32,45.32,0,0,0,20.34,18c9-2.94,15.78-10.76,19.9-17.45a49.44,49.44,0,0,0,7.29-26.06V44.47C378.13,40.72,376.14,38.89,373.05,38Z"/><g class="cls-14"><path d="M350.94,92.15a36,36,0,0,1-16.09-14.33,39.12,39.12,0,0,1-5.77-20.61V48c0-2.08,1.26-4,3.75-5.19l17.9-6.69V30l-22.11,7.91c-2.32,1-5.29,2.13-5.29,4.76V55.73a49.52,49.52,0,0,0,7.28,26.06,45.32,45.32,0,0,0,20.34,18Z"/></g><g class="cls-8"><path d="M350.94,99.75a26.87,26.87,0,0,0,4.38-1.88,39.5,39.5,0,0,0,9.29-7.3,50,50,0,0,0,6.45-8.68,47.68,47.68,0,0,0,7.07-26.3V44.78c0-5.38-2.77-5.78-5.09-6.79l-22.33-8v6.18l18.1,6.79c2.49,1.17,3.75,3.12,3.75,5.2v9.18a39.12,39.12,0,0,1-5.77,20.61,35.14,35.14,0,0,1-15.87,14.22Z"/></g><path class="cls-15" d="M356.64,56.62l0-1.76a5.8,5.8,0,1,0-11.59,0l0,1.8a3.23,3.23,0,0,0-2.76,3.2V70.27a3.24,3.24,0,0,0,3.24,3.24h10.82a3.24,3.24,0,0,0,3.24-3.24V59.85A3.24,3.24,0,0,0,356.64,56.62Zm-4.22,11.06h-2.83l.44-2.05a1.71,1.71,0,0,1-.82-1.46,1.73,1.73,0,1,1,3.45,0,1.71,1.71,0,0,1-.76,1.43C352.1,66.39,352.42,67.68,352.42,67.68Zm3-11.07h-9.1l0-1.75a4.55,4.55,0,0,1,9.1,0Z"/><path class="cls-13" d="M332.7,56.49a7.08,7.08,0,0,1-.33-1.81,29.05,29.05,0,0,1-.18-4.44c0-.87.08-1.7.16-2.45a5.13,5.13,0,0,1,.5-2,2.29,2.29,0,0,1,1-1c.31-.14.49-.13.5-.11a2.57,2.57,0,0,0-1.23,1.22,5.66,5.66,0,0,0-.39,1.88c-.05.75-.1,1.57-.12,2.43-.06,1.72,0,3.28.06,4.41A10.6,10.6,0,0,1,332.7,56.49Z"/><path class="cls-13" d="M333,62.19c-.11,0-.21-.53-.22-1.2s.06-1.21.17-1.21.21.54.22,1.2S333.14,62.19,333,62.19Z"/></g></svg>