<svg id="Camada_1" data-name="Camada 1" xmlns="http://www.w3.org/2000/svg" viewBox="0 0 180 60"><defs><style>.cls-1{fill:#fd5a1f;}.cls-1,.cls-2{fill-rule:evenodd;}.cls-2{fill:#1b3363;}.cls-3{fill:none;}</style></defs><path id="path2" class="cls-1" d="M10.26,33.72a4.62,4.62,0,0,0,0,9.23,4.62,4.62,0,0,0,0-9.23Z"/><path id="path4" class="cls-2" d="M26.51,30.28A15.59,15.59,0,0,0,24.57,30c-2-.17-2.45-.44-2.66-1a1.06,1.06,0,0,1,.13-.78,2.73,2.73,0,0,1,2.38-.84,7.32,7.32,0,0,1,3,.9,2.5,2.5,0,0,0,3.4-1,1.47,1.47,0,0,0,.1-.22,2.9,2.9,0,0,0-1.24-3.71,9.75,9.75,0,0,0-5.27-1.61c-4.05,0-6,2.09-6.78,3.36A7,7,0,0,0,17,31.22c1.55,4,5,4.29,7.07,4.47a13.45,13.45,0,0,1,1.37.17,1.13,1.13,0,0,1,1,1.23c-.07.75-.9,1.2-2.17,1.19a4.87,4.87,0,0,1-3.62-1.68.47.47,0,0,0-.67,0h0l-3.31,2.82a.61.61,0,0,0-.07.8A10,10,0,0,0,24.25,44a7.53,7.53,0,0,0,5.17-1.76,6.7,6.7,0,0,0,2.26-4.5,6.93,6.93,0,0,0-1.16-4.61A6.45,6.45,0,0,0,26.51,30.28Z"/><path id="path6" class="cls-2" d="M47.82,23.28a9.92,9.92,0,0,0-7.47-1.15V16.51a2.86,2.86,0,1,0-5.69-.58,2.81,2.81,0,0,0,0,.58v9.37a11.17,11.17,0,0,0-1.88,3.8,3,3,0,0,0,1.88,3.65v9.08a.54.54,0,0,0,.52.55h4.65a.53.53,0,0,0,.52-.55V28.5A4.18,4.18,0,0,1,44,28.05c1.77.66,1.77,2.75,1.77,5.42v8.94a.54.54,0,0,0,.52.55H51a.53.53,0,0,0,.52-.55V32C51.49,25.18,47.82,23.28,47.82,23.28Z"/><path id="path8" class="cls-2" d="M64,37.76a5,5,0,1,1,4.82-5.18v.18a4.89,4.89,0,0,1-4.79,5Zm0-16A11.08,11.08,0,1,0,74.79,33.17c0-.13,0-.25,0-.38A10.94,10.94,0,0,0,64,21.72Z"/><path id="path10" class="cls-2" d="M89.62,33.59a4.76,4.76,0,0,1-4.41,4.46,4.61,4.61,0,0,1-2.46-.55V31.24c0-1.85,1-2.72,2.17-2.72h0a4.75,4.75,0,0,1,4.72,4.77C89.64,33.39,89.63,33.49,89.62,33.59Zm5.78-.72a10.59,10.59,0,0,0-9.86-10.21,10.37,10.37,0,0,0-4.4.75c-2.51,1-4.12,3.29-4.12,6.82v2.59a2.72,2.72,0,0,0-1.64,1A2.79,2.79,0,0,0,75,36.26,11,11,0,0,0,77,40.14v8.71a.53.53,0,0,0,.53.53h4.73a.52.52,0,0,0,.52-.52h0V43.69a10.13,10.13,0,0,0,2.19.24A10.57,10.57,0,0,0,95.41,33.19C95.41,33.09,95.41,33,95.4,32.87Z"/><rect class="cls-3" width="180" height="60"/></svg>