<svg xmlns="http://www.w3.org/2000/svg" viewBox="0 0 649.73 364.18"><defs><style>.cls-1{isolation:isolate;}.cls-2{fill:#d3e8e8;}.cls-25,.cls-26,.cls-3{fill:#fff;}.cls-23,.cls-29,.cls-4{fill:#e1e8f0;}.cls-5{fill:#8fc6c6;}.cls-21,.cls-28,.cls-30,.cls-6{fill:none;}.cls-6,.cls-9{stroke:#206bc7;}.cls-21,.cls-28,.cls-30,.cls-6,.cls-9{stroke-miterlimit:10;}.cls-21,.cls-6{stroke-width:1.13px;}.cls-22,.cls-7,.cls-9{fill:#206bc7;}.cls-8{fill:#ffb701;}.cls-9{stroke-width:2.43px;}.cls-10{fill:#000400;}.cls-11{fill:#ffb4a5;}.cls-12{fill:#ff8164;}.cls-13{fill:#ff9e87;}.cls-14{fill:#2d2f3d;}.cls-15,.cls-16,.cls-22,.cls-29{mix-blend-mode:multiply;}.cls-15{opacity:0.21;}.cls-17{fill:#d18478;}.cls-18,.cls-20{fill:#749e9d;}.cls-18,.cls-19{opacity:0.93;}.cls-21{stroke:#000400;}.cls-23{opacity:0.51;}.cls-24,.cls-27{fill:#ffe25e;}.cls-25{opacity:0.73;}.cls-26{font-size:14.08px;font-family:Montserrat-Regular, Montserrat Regular;}.cls-27{opacity:0.55;}.cls-28{stroke:#fff;stroke-width:0.49px;}.cls-30{stroke:#ffb701;stroke-linecap:round;stroke-width:1.26px;}</style></defs><g class="cls-1"><g id="OBJECTS"><path class="cls-2" d="M121.65,304c-.34-14.67-2.84-29.43-8.86-42.81s-15.71-25.33-28.41-32.67c-9-5.23-21.43-7.65-29.35-.83a22.32,22.32,0,0,0-5.81,8.58A36.37,36.37,0,0,0,49,263c2.79,7.16,7.79,13.23,13.18,18.7,14.43,14.62,33.47,26.19,54,26.1"/><path class="cls-2" d="M119,333.42a56.71,56.71,0,0,0-34.6-18.22c-4.67-.62-15-2.25-17.77,2.82-2.67,4.9,3.69,12.37,6.95,15.1a46.89,46.89,0,0,0,12.59,8,31.53,31.53,0,0,0,32.72-6.45"/><path class="cls-2" d="M461.29,306.62c-7.35-20.94-10.18-44.14-3.64-65.35s23.62-39.88,45.36-44.33a19.78,19.78,0,0,1,9-.17,18.1,18.1,0,0,1,7.71,4.85c10.43,10.23,13.3,26.46,10.17,40.72s-11.47,26.87-20.86,38c-10.33,12.31-23.38,24-39.35,25.71"/><path class="cls-2" d="M471.5,330.44c3-4.73,8-7.81,12.91-10.51,9.94-5.44,20.53-10,31.76-11.61,6.09-.86,13.49-.17,16.57,5.16,2.56,4.42.86,10.15-2,14.39A30.85,30.85,0,0,1,510.17,341c-5.26.82-10.62.26-15.89-.46-7.31-1-14.75-2.37-21.12-6.09"/><path class="cls-3" d="M498.07,222.51a688.84,688.84,0,0,0-47.54,66.1q-6.12,9.67-11.92,19.55a.71.71,0,0,0,1.22.71,687.91,687.91,0,0,1,44.93-67.13q7-9.24,14.31-18.23c.57-.7-.43-1.71-1-1Z"/><path class="cls-3" d="M515.4,325.27a263.53,263.53,0,0,1-60.09,5.32.71.71,0,0,0,0,1.42,265.79,265.79,0,0,0,60.47-5.37c.89-.19.51-1.55-.38-1.37Z"/><path class="cls-3" d="M66.86,251.19a343.08,343.08,0,0,1,67.29,53.13q8.39,8.54,16.16,17.63c.59.7,1.59-.31,1-1A344.46,344.46,0,0,0,88,263.28q-10-7-20.39-13.32a.71.71,0,0,0-.72,1.23Z"/><path class="cls-3" d="M81.39,327.24a205.18,205.18,0,0,0,48,10q6.94.58,13.93.7a.71.71,0,0,0,0-1.41,203.84,203.84,0,0,1-48.2-6.63q-6.75-1.77-13.36-4c-.87-.29-1.24,1.07-.38,1.36Z"/><path class="cls-4" d="M122.54,364.18l355.54-.71L438.25,126.79A18.94,18.94,0,0,0,419.54,111l-317.14.64a18.94,18.94,0,0,0-18.64,22.09Z"/><path class="cls-5" d="M148.43,192c-4.5-3.55-10.25-3.55-12.85,0s-1.06,9.3,3.44,12.84,10.25,3.55,12.85,0S152.93,195.55,148.43,192Z"/><line class="cls-6" x1="163.93" y1="198.83" x2="357.34" y2="198.83"/><ellipse class="cls-5" cx="160.66" cy="275.44" rx="7.95" ry="10.38" transform="translate(-152.43 214.98) rotate(-48.82)"/><line class="cls-6" x1="180.87" y1="275.84" x2="374.28" y2="275.84"/><path class="cls-7" d="M84.05,136l-.29-2.31a18.94,18.94,0,0,1,18.64-22.09L419.54,111a18.94,18.94,0,0,1,18.71,15.8l1.64,9.72C440.74,135,84.05,136,84.05,136Z"/><path class="cls-3" d="M113.37,122.15c-2.33-1.84-5.31-1.84-6.66,0s-.55,4.82,1.78,6.66,5.32,1.84,6.67,0S115.71,124,113.37,122.15Z"/><path class="cls-8" d="M128.77,122.15c-2.33-1.84-5.31-1.84-6.66,0s-.55,4.82,1.78,6.66,5.32,1.84,6.67,0S131.11,124,128.77,122.15Z"/><path class="cls-5" d="M144.26,122.15c-2.33-1.84-5.31-1.84-6.66,0s-.55,4.82,1.78,6.66,5.32,1.84,6.67,0S146.6,124,144.26,122.15Z"/><circle class="cls-9" cx="349.35" cy="86.86" r="12.12"/><path class="cls-10" d="M326.36,127.48l30.57-50.87c1.77-4.22-3.2-16.92-6.41-20.19-8.81-9-21.53-13.48-34.07-14.35-7-.48-20.27,7.09-24.23,15.83-4.38,9.68-7,19.21-19,23.92-25.74,10.06-20.53,38.25-20.53,38.25"/><path class="cls-7" d="M322.05,48.3a28.31,28.31,0,0,1,7.49-3.92,61.17,61.17,0,0,0-7.68-1.69c-.46.15-.92.3-1.37.48-12.41,4.93-21,22.07-17.91,35,1.48,0,4.86.65,6.28.38C309.09,67.64,313.05,54.84,322.05,48.3Z"/><path class="cls-11" d="M310.88,79.33a1.06,1.06,0,0,1-1.32.77c-2.43-.7-7.91-2.8-10.49,3.35s2.5,11.57,6.14,12.81c1.05.36,3.44,1.26,4,2.25,1.54,3-2.81,27.15-7,35.31-.31,15.6,23,36.92,23,36.92s6.13-8.64,11.05-27.5c0,0,1.53-34,1.76-34.16,3.81-2.14,18.88-1,18.54-27.61-.31-24.69-17.49-27.77-22-28.21C330.82,52.89,318.15,50.17,310.88,79.33Z"/><path class="cls-10" d="M347,54.33S332.73,87.1,310.14,80.07C310.14,80.07,304.81,37.89,347,54.33Z"/><path class="cls-12" d="M301.31,86.08s6.1-7,7.92,5.18"/><path class="cls-13" d="M332,85.3a5.95,5.95,0,1,1-7.23,4.28A6,6,0,0,1,332,85.3Z"/><path class="cls-13" d="M355.27,94.14a6,6,0,0,1,1.05-11.08S357,90.08,355.27,94.14Z"/><path class="cls-3" d="M351.29,89.84l-9.94,1.89s3.39,4.3,6.17,3.25S351.29,89.84,351.29,89.84Z"/><path class="cls-12" d="M346.39,81.63,346,88.24l3.41-.48a.84.84,0,0,0,.55-1.33Z"/><path d="M335.86,76.15c-1.05.84.42-2.72,1.9-3.22a2.67,2.67,0,0,1,3.47,1.41A8.32,8.32,0,0,0,335.86,76.15Z"/><path d="M354.06,74.55c1.15.7-.77-2.65-2.3-3a2.66,2.66,0,0,0-3.26,1.84A8.34,8.34,0,0,1,354.06,74.55Z"/><path d="M339.6,82.14c.13,1.16.69,2,1.25,2s.92-1,.79-2.21-.69-2-1.25-2S339.47,81,339.6,82.14Z"/><path d="M348.76,80.57c.12,1.11.66,2,1.19,1.9s.88-1,.76-2.12-.66-2-1.2-1.9S348.64,79.46,348.76,80.57Z"/><path class="cls-12" d="M339,108.58a22.39,22.39,0,0,1-10.8-.76C322.82,105.93,333.39,119.6,339,108.58Z"/><path class="cls-14" d="M305.89,364.14c1.75-7.33,3.11-13.06,4-16.79,1.22-5.13,9.15-4,8.53,1.24-.45,3.78-.81,9.07-1.1,15.55h60.15c-3.86-52.67-12.45-99.75-29.07-127.22-22.2-3.06-49.28.94-71.79,1.61-11.2,19.79-17.12,34.29-23.55,59.46-2.08,8.13-7.3,33.14-13.82,66.15Z"/><path class="cls-15" d="M348.07,246.9l-100.6,73.39s7.79-43.27,24-73.75Z"/><path class="cls-13" d="M453.3,195.24S433.7,213.32,402,236.39l-.05.11-.16-.08c-1.93.31-9.48,4.17-11.08,4,0,0-19.61,7.68-33.16-37.3-2-4-30.43-52.57-30.89-53.13,0,0,3.36-10.11,3.61-10.33,17.93-15.41,37.32,46.35,54.94,67.36a2.59,2.59,0,0,0,3,.73c2.18-.89,5.16-2.37,5.16-2.37l18.46-9,32.4-21.1s2.52-11.18,3.4-12.44c1.63-.5,8.28-.75,8.28-.75S476.41,144.8,476.41,149c0,2.51-11.06,14.94-11.06,14.94s5.66,6.91,6,11.43S453.3,195.24,453.3,195.24Z"/><g class="cls-16"><path class="cls-17" d="M447.51,163.31q3.32-.23,6.63-.23c1.1,0,2.2,0,3.31,0l1.65,0a5.81,5.81,0,0,1,1.84.2,1.7,1.7,0,0,1,.87.82,2.08,2.08,0,0,1,.22,1.08,2.75,2.75,0,0,1-.88,1.81,7.08,7.08,0,0,1-3.15,1.52q-3.22.87-6.48,1.53c2.06-.86,4.11-1.65,6.19-2.36a6.9,6.9,0,0,0,2.68-1.45,1.73,1.73,0,0,0,.53-1.11.76.76,0,0,0-.41-.79,6,6,0,0,0-1.44-.15l-1.66-.07c-1.1-.06-2.2-.11-3.3-.2C451.91,163.81,449.71,163.6,447.51,163.31Z"/><path class="cls-17" d="M464.44,163.94c-.64.7-1.28,1.39-1.85,2.13s-1.16,1.47-1.69,2.23a34.2,34.2,0,0,0-2.81,4.78l-.22-.74a2.4,2.4,0,0,0,2.26-.11,15.18,15.18,0,0,0,2.38-1.45c.8-.54,1.61-1.07,2.42-1.59s1.64-1,2.49-1.5c-.7.68-1.44,1.3-2.15,1.95s-1.48,1.25-2.23,1.86a13.49,13.49,0,0,1-2.45,1.71,4.65,4.65,0,0,1-1.56.47,2.94,2.94,0,0,1-1.73-.36l-.45-.27.23-.47a23.12,23.12,0,0,1,3.12-4.82,24.32,24.32,0,0,1,2-2.07A20,20,0,0,1,464.44,163.94Z"/><path class="cls-17" d="M460.62,172.94a6.28,6.28,0,0,0-.14,1.64,1.32,1.32,0,0,0,.68,1c.3.12.67,0,1.16-.3s1-.54,1.46-.82c1-.54,1.92-1.12,2.88-1.7s1.91-1.19,2.91-1.76a17.45,17.45,0,0,1-5.23,4.44c-.51.28-1,.55-1.54.79a4,4,0,0,1-.92.32,1.54,1.54,0,0,1-1.14-.2,1.9,1.9,0,0,1-.81-1.83A4,4,0,0,1,460.62,172.94Z"/><path class="cls-17" d="M470.3,175.33a3.32,3.32,0,0,1-1.39,1.6,4.57,4.57,0,0,1-4.21.35,3.36,3.36,0,0,1-1.64-1.35,9.62,9.62,0,0,0,1.88.51,8.19,8.19,0,0,0,3.59-.3A9.22,9.22,0,0,0,470.3,175.33Z"/></g><path class="cls-5" d="M328.14,139.39A18,18,0,0,1,349.32,138c11.9,7.05,34.1,55.29,41.05,64.82l28.26-17.33s15.34,24.07,21.1,28.63c0,0-43.41,39.07-59.53,31.65S328.14,139.39,328.14,139.39Z"/><path class="cls-18" d="M363.25,185.9c-5.67-17.67-15.86-33.23-28.5-46.69a5.58,5.58,0,0,1-1.48-2.82,17.88,17.88,0,0,0-5.13,3s23.49,64.64,41,93.33C369.6,216.88,368.12,201.09,363.25,185.9Z"/><path class="cls-5" d="M336.75,133.19c-.65,1.57,24.26,49,23.49,64.41s-3.47,43.53-2.65,45.86c0,0-19.89,7.48-86.17-3,.52-13.37,4.37-97.6,4.37-97.6s21.68-13.32,27.3-13.74c0,0,4,5.32,9.74,6.81a56,56,0,0,0,12.48,1.84C332.35,138,333.73,137,336.75,133.19Z"/><g class="cls-19"><path class="cls-20" d="M319.92,235.68c-46-22.11-34.73-70.4-41.88-94.12-1.4.83-2.25,1.35-2.25,1.35s-3.85,84.23-4.37,97.6c46.49,7.32,70.16,5.82,80.15,4.28C346.74,242.36,324.85,238.05,319.92,235.68Z"/></g><circle class="cls-9" cx="304.14" cy="89.72" r="12.12" transform="translate(104.1 335.76) rotate(-67.32)"/><path class="cls-6" d="M310.62,91.16l6.93,7.47A11.38,11.38,0,0,0,328,102.1l18.91-3.48"/><rect class="cls-7" x="342.19" y="96.43" width="7.03" height="4.06" rx="1.82" transform="translate(-12.72 71.27) rotate(-11.56)"/><circle class="cls-21" cx="304.14" cy="89.72" r="7.97"/><path class="cls-13" d="M288.91,141.17c-12.83-10.45-43.06,28.49-43.06,28.49l-25.38,29.92-42-36.7c-.61-3.66-1.74-9.88-2.92-12.78-1.25-3.08-.81-8-.47-10.51a1,1,0,0,0-1.39-1.09,4.65,4.65,0,0,0-2.94,4.11c-.25,2.67-1.58,6.59-1.68,8.71a.64.64,0,0,1-.94.57c-2.19-.86-3.15-2.15-6.05-4.52A41.59,41.59,0,0,1,155.7,140c-2.76-4.12-6.5-9.85-7.79-7.8-.91,1.47,4,10,4.87,11.2a43,43,0,0,1,3.95,7.76c.22.83-6.07-5.14-8.78-8.85s-5.25-7.65-6.71-7.5.64,3.94.64,3.94-2.77-2.23-3.52-1.31c-.5.62,2.37,6.72,4.49,10.74-3.9-2.79-3.91-.67-3.91-.67s6,9.48,8.82,11.25c2.25,1.43,5.26,5.33,5.77,6.12s8.28,8.62,15.73,12.26c6.35,8.54,56.8,75.85,63.07,70.15C279.17,204.71,307.16,156,288.91,141.17Z"/><g class="cls-16"><path class="cls-17" d="M142.74,147.82,145,150a18.45,18.45,0,0,0,2.3,1.81c.81.54,1.7,1,2.57,1.63a17.56,17.56,0,0,1,2.47,2h-1.17c.9-.72,1.82-1.42,2.76-2.09a28.15,28.15,0,0,1,3-1.82,28.18,28.18,0,0,1-2.18,2.74c-.78.86-1.59,1.68-2.42,2.48l-.55.54-.62-.55c-.74-.65-1.53-1.22-2.32-1.81s-1.67-1.14-2.5-1.84a11.54,11.54,0,0,1-2.12-2.41A14.26,14.26,0,0,1,142.74,147.82Z"/><path class="cls-17" d="M169.51,153c.16,1,.27,1.82.37,2.69s.17,1.72.23,2.57l.31,5.24a5.56,5.56,0,0,1-1.56-2.38,9.5,9.5,0,0,1-.57-2.73,10.3,10.3,0,0,1,.16-2.77A6.63,6.63,0,0,1,169.51,153Z"/><path class="cls-17" d="M142.09,139.26a42.47,42.47,0,0,0,2.69,3.5q1.42,1.63,2.92,3.21c1,1.08,2,2.14,3,3.29a18.35,18.35,0,0,1,2.58,3.73c-1.25-.88-2.43-1.76-3.58-2.71a33.87,33.87,0,0,1-3.29-3.06,20.83,20.83,0,0,1-2.75-3.64A10.87,10.87,0,0,1,142.09,139.26Z"/></g><path class="cls-5" d="M288.91,141.17c-12.83-10.45-43.06,28.49-43.06,28.49l-25.38,29.92-22.82-19.93C193.59,186,183.75,198,180,204.53c17.37,22.21,48.06,46.64,52.33,42.77C279.17,204.71,307.16,156,288.91,141.17Z"/><line class="cls-6" x1="63.45" y1="363.61" x2="552.52" y2="363.61"/><path class="cls-5" d="M396.82,84.3l9.24-9.24h34.79a12.82,12.82,0,0,0,12.83-12.82V59.45a12.82,12.82,0,0,0-12.83-12.82H409.64a12.82,12.82,0,0,0-12.82,12.82Z"/><path class="cls-3" d="M435.2,60.49a3.2,3.2,0,1,0,3.2-3.2A3.2,3.2,0,0,0,435.2,60.49Z"/><path class="cls-3" d="M423.47,60.49a3.2,3.2,0,1,0,3.2-3.2A3.2,3.2,0,0,0,423.47,60.49Z"/><path class="cls-3" d="M411.75,60.49a3.2,3.2,0,1,0,3.19-3.2A3.19,3.19,0,0,0,411.75,60.49Z"/><circle class="cls-22" cx="449.5" cy="46.33" r="6.62"/><path class="cls-8" d="M389.17,44.84l-9.24-9.24H345.14a12.82,12.82,0,0,1-12.82-12.82V20A12.82,12.82,0,0,1,345.14,7.17h31.21A12.82,12.82,0,0,1,389.17,20Z"/><path class="cls-3" d="M350.79,21a3.2,3.2,0,1,1-3.19-3.2A3.19,3.19,0,0,1,350.79,21Z"/><path class="cls-3" d="M362.52,21a3.2,3.2,0,1,1-3.2-3.2A3.2,3.2,0,0,1,362.52,21Z"/><path class="cls-3" d="M374.25,21a3.2,3.2,0,1,1-3.2-3.2A3.2,3.2,0,0,1,374.25,21Z"/><path class="cls-23" d="M463.36,164.69l30.28-26.63H607.69c23.22,0,42-16.54,42-36.94v-8c0-20.41-18.82-36.95-42-36.95H505.39c-23.22,0-42,16.54-42,36.95Z"/><rect class="cls-8" x="493.19" y="79.5" width="46.9" height="34.6"/><path class="cls-24" d="M493.17,78.92l20.2,20.19a4.61,4.61,0,0,0,6.51,0l20.33-20.33Z"/><path class="cls-25" d="M536.22,106.85H524.28a.58.58,0,0,1-.58-.59h0a.58.58,0,0,1,.58-.58h11.94a.58.58,0,0,1,.58.58h0A.58.58,0,0,1,536.22,106.85Z"/><path class="cls-3" d="M509.17,103.53H497.23a.58.58,0,0,1-.58-.58h0a.59.59,0,0,1,.58-.59h11.94a.59.59,0,0,1,.58.59h0A.58.58,0,0,1,509.17,103.53Z"/><path class="cls-3" d="M509.17,106.64H497.23a.58.58,0,0,1-.58-.59h0a.58.58,0,0,1,.58-.58h11.94a.58.58,0,0,1,.58.58h0A.58.58,0,0,1,509.17,106.64Z"/><path class="cls-3" d="M623.1,89.31H552.27a3.52,3.52,0,0,1-3.52-3.52h0a3.52,3.52,0,0,1,3.52-3.52H623.1a3.53,3.53,0,0,1,3.52,3.52h0A3.53,3.53,0,0,1,623.1,89.31Z"/><path class="cls-3" d="M589.77,100.72H550.69a1.94,1.94,0,0,1-1.94-1.94h0a1.94,1.94,0,0,1,1.94-1.94h39.08a1.94,1.94,0,0,1,2,1.94h0A1.94,1.94,0,0,1,589.77,100.72Z"/><path class="cls-3" d="M589.77,109.27H550.69a1.94,1.94,0,0,1-1.94-2h0a1.94,1.94,0,0,1,1.94-1.94h39.08a1.94,1.94,0,0,1,2,1.94h0A2,2,0,0,1,589.77,109.27Z"/><polygon class="cls-8" points="524.13 290.76 419.32 290.76 410.6 255.09 515.41 255.09 524.13 290.76"/><text class="cls-26" transform="matrix(0.97, 0, 0.26, 0.97, 440.75, 277.23)">ON LINE</text><ellipse class="cls-7" cx="403.38" cy="303.97" rx="4.7" ry="6.14" transform="translate(-91.01 407.39) rotate(-48.82)"/><path class="cls-22" d="M409.51,286c1.56,5.83,7.56,10.56,13.39,10.56s9.3-4.73,7.73-10.56-7.55-10.56-13.39-10.56S408,280.14,409.51,286Z"/><path class="cls-5" d="M413.1,292.35l-6.25-2c-.6-.19-.79-1-.28-1.15l11.54-3.91a.8.8,0,0,1,1,.77l-.86,12.61c0,.55-.83.55-1.15,0l-3.48-6A.9.9,0,0,0,413.1,292.35Z"/><path class="cls-8" d="M184.44,98.43a18.51,18.51,0,1,0-37,0c0,10.22,17.61,26.27,17.61,26.27S184.44,108.65,184.44,98.43Z"/><path class="cls-27" d="M153.5,84.75A16.14,16.14,0,0,0,152.28,91c0,7.88,5.68,16.44,13.69,18.08,7.68,1.56,16.13-3.72,18.4-11.11a.83.83,0,0,0,0-.15A18.47,18.47,0,0,0,153.5,84.75Z"/><path class="cls-24" d="M162.83,120a24.07,24.07,0,0,1-3.55-1.14c3.18,3.47,5.76,5.82,5.76,5.82s1.91-1.59,4.53-4.07A24.59,24.59,0,0,1,162.83,120Z"/><path class="cls-28" d="M160.56,116.34s2.39-19.4-.3-18.21-4.18,4.18-1.19,4.78,14.92,0,14.92,0,1.07-3.4-.89-4.18c-3-1.2-3,10.15-3.59,18.21"/><path class="cls-4" d="M172.5,120.52H157.58a2.09,2.09,0,0,1-2.09-2.09h0a2.08,2.08,0,0,1,2.09-2.09H172.5a2.09,2.09,0,0,1,2.09,2.09h0A2.1,2.1,0,0,1,172.5,120.52Z"/><path class="cls-4" d="M165.34,130.07h0a8.66,8.66,0,0,1-8.66-8.66v-1.49H174v1.49A8.66,8.66,0,0,1,165.34,130.07Z"/><path class="cls-29" d="M168.94,129.27a8.64,8.64,0,0,0,5.05-7.86v-1.49H157.85Q163.36,124.64,168.94,129.27Z"/><line class="cls-30" x1="132.57" y1="98.55" x2="140.98" y2="98.55"/><line class="cls-30" x1="191.45" y1="98.55" x2="199.86" y2="98.55"/><line class="cls-30" x1="142.42" y1="74.76" x2="148.37" y2="80.7"/><line class="cls-30" x1="166.21" y1="64.9" x2="166.21" y2="73.31"/><line class="cls-30" x1="190.01" y1="74.76" x2="184.06" y2="80.7"/><g class="cls-16"><path class="cls-29" d="M147.87,18.05l-5.14-7.33a4.81,4.81,0,0,0-6.34-1.4,70.24,70.24,0,0,0-17.88,14.51,4.82,4.82,0,0,0,0,6.48L124.7,37a4.72,4.72,0,0,1,.6,5.67,54.7,54.7,0,0,0-4.67,9.69,4.71,4.71,0,0,1-4.26,3l-10.35.4a4.82,4.82,0,0,0-4.56,4.07,71.71,71.71,0,0,0,.17,23.66,4.81,4.81,0,0,0,4.9,4l9.55-.33a4.72,4.72,0,0,1,4.61,3,53.61,53.61,0,0,0,2.16,5q1.14,2.32,2.48,4.5A4.72,4.72,0,0,1,125,105l-6.1,7.86a4.8,4.8,0,0,0,.27,6.2,71.51,71.51,0,0,0,18.6,14.56,4.82,4.82,0,0,0,6.13-1.3l5.92-7.76A4.73,4.73,0,0,1,155,123a54.6,54.6,0,0,0,11.19,2.35,4.76,4.76,0,0,1,4.21,4l1.34,8.75a4.82,4.82,0,0,0,5.13,4.05,70.29,70.29,0,0,0,22.78-5.54,4.84,4.84,0,0,0,2.92-5.27l-1.87-10.6a4.7,4.7,0,0,1,1.9-4.71,53.42,53.42,0,0,0,8-6.66,4.72,4.72,0,0,1,5.67-.8l7.89,4.35a4.8,4.8,0,0,0,6.29-1.5,71.86,71.86,0,0,0,9.88-21.22,4.82,4.82,0,0,0-2.49-5.63L228.7,80a4.74,4.74,0,0,1-2.65-4.58,53.61,53.61,0,0,0-.18-10.59,4.74,4.74,0,0,1,2.8-4.83l8.56-3.83a4.81,4.81,0,0,0,2.63-5.79,72.15,72.15,0,0,0-10.31-20.86,4.8,4.8,0,0,0-6.23-1.41l-8.14,4.49a4.75,4.75,0,0,1-5.58-.72,54.39,54.39,0,0,0-9.08-7.06,4.75,4.75,0,0,1-2.07-5.28l2.4-8.92A4.81,4.81,0,0,0,198,4.94,71.73,71.73,0,0,0,175.27,0a4.79,4.79,0,0,0-5,4l-1.6,9.19a4.74,4.74,0,0,1-4.05,3.91,53.29,53.29,0,0,0-11.28,2.73A4.74,4.74,0,0,1,147.87,18.05ZM184.2,36.81c41.54,21.18,22.35,77.61-23.49,69.07a5.22,5.22,0,0,1-1.44-.49c-41.51-21.19-22.33-77.59,23.5-69.07A5.63,5.63,0,0,1,184.2,36.81Z"/><path class="cls-29" d="M38.12,84.43,34,78.52a3.88,3.88,0,0,0-5.12-1.12A56.69,56.69,0,0,0,14.46,89.09a3.89,3.89,0,0,0,0,5.22l5,5.35a3.81,3.81,0,0,1,.49,4.57A44.93,44.93,0,0,0,16.17,112a3.79,3.79,0,0,1-3.43,2.44l-8.34.32a3.87,3.87,0,0,0-3.67,3.28,57.57,57.57,0,0,0,.13,19.07,3.89,3.89,0,0,0,4,3.21l7.7-.26a3.8,3.8,0,0,1,3.71,2.44,40.64,40.64,0,0,0,1.74,4c.62,1.26,1.29,2.47,2,3.63a3.8,3.8,0,0,1-.26,4.32l-4.92,6.34a3.89,3.89,0,0,0,.21,5A57.93,57.93,0,0,0,30,177.6a3.88,3.88,0,0,0,4.94-1l4.78-6.25A3.82,3.82,0,0,1,43.9,169a43.78,43.78,0,0,0,9,1.9,3.83,3.83,0,0,1,3.39,3.23l1.09,7a3.88,3.88,0,0,0,4.13,3.27,56.47,56.47,0,0,0,18.36-4.47,3.9,3.9,0,0,0,2.35-4.24l-1.51-8.55a3.8,3.8,0,0,1,1.53-3.79A43.31,43.31,0,0,0,88.67,158a3.82,3.82,0,0,1,4.57-.65l6.36,3.51a3.86,3.86,0,0,0,5.06-1.2,58.22,58.22,0,0,0,8-17.11,3.87,3.87,0,0,0-2-4.53l-7.35-3.63a3.77,3.77,0,0,1-2.14-3.68,43.58,43.58,0,0,0-.15-8.54,3.82,3.82,0,0,1,2.26-3.89l6.9-3.09a3.86,3.86,0,0,0,2.11-4.66,57,57,0,0,0-3.43-8.67A58.2,58.2,0,0,0,104,93.71a3.87,3.87,0,0,0-5-1.14l-6.56,3.62a3.83,3.83,0,0,1-4.5-.58,43.45,43.45,0,0,0-7.32-5.69,3.84,3.84,0,0,1-1.67-4.26l1.94-7.19a3.87,3.87,0,0,0-2.32-4.61,58.13,58.13,0,0,0-18.3-4,3.88,3.88,0,0,0-4,3.2L54.9,80.5a3.84,3.84,0,0,1-3.27,3.15,43.32,43.32,0,0,0-9.09,2.2A3.83,3.83,0,0,1,38.12,84.43ZM67.4,99.55c33.48,17.07,18,62.54-18.93,55.66a4.29,4.29,0,0,1-1.16-.39c-33.45-17.08-18-62.53,18.94-55.66A4.34,4.34,0,0,1,67.4,99.55Z"/></g><circle class="cls-8" cx="39.34" cy="296.54" r="12.06" transform="translate(-80.61 22.51) rotate(-16.08)"/><path class="cls-8" d="M28.69,267.8a5.93,5.93,0,1,0-5.93,5.93A5.94,5.94,0,0,0,28.69,267.8Z"/><path class="cls-8" d="M86.06,49.37a5.93,5.93,0,1,0-5.93,5.93A5.93,5.93,0,0,0,86.06,49.37Z"/><path class="cls-8" d="M556.18,346.37a5.93,5.93,0,1,0-5.92,5.93A5.92,5.92,0,0,0,556.18,346.37Z"/><path class="cls-8" d="M509.46,160.9a5.93,5.93,0,1,0-5.93,5.93A5.92,5.92,0,0,0,509.46,160.9Z"/><circle class="cls-8" cx="260.89" cy="65.95" r="10.24"/></g></g></svg>