<svg xmlns="http://www.w3.org/2000/svg" viewBox="0 0 424.34 332.13"><defs><style>.cls-1{isolation:isolate;}.cls-2,.cls-26,.cls-4{fill:#e0e8ff;}.cls-15,.cls-19,.cls-2,.cls-22,.cls-3{mix-blend-mode:multiply;}.cls-5{fill:#758aff;}.cls-6{fill:#6b3c00;}.cls-7{fill:#593200;}.cls-8{fill:#ffc582;}.cls-27,.cls-28,.cls-9{fill:#fff;}.cls-10{fill:#ededed;}.cls-11{fill:#94724c;}.cls-12{fill:#d6a56d;}.cls-13{fill:#0094c6;}.cls-14{fill:#ffa866;}.cls-15{fill:none;stroke:#d9d9d9;stroke-linecap:round;stroke-linejoin:round;stroke-width:2px;}.cls-16{fill:#ffee3d;}.cls-17{fill:#453e18;}.cls-18,.cls-19{fill:#009fcf;}.cls-19{opacity:0.18;}.cls-20{fill:#00ace0;}.cls-21{fill:#006385;}.cls-22{fill:#d0d8ed;}.cls-23{fill:#c5cce0;}.cls-24{fill:#d6d6d6;}.cls-25{opacity:0.1;}.cls-26{mix-blend-mode:screen;}.cls-27{font-size:15.69px;}.cls-27,.cls-28{font-family:Poppins-Bold, Poppins Bold;font-weight:700;}.cls-28{font-size:42.2px;}</style></defs><g class="cls-1"><g id="OBJECTS"><path class="cls-2" d="M331.27,320.39a82.27,82.27,0,0,0,9.88-68.3c-4.38-14.37-12.79-27.71-13.86-42.7-2.15-29.95,24.95-54.17,30.57-83.67,2.47-13-.22-28.07-10.81-35.95s-25.4-6.19-37.24-.74-21.87,14.16-33.24,20.54-25.37,10.32-37.38,5.24c-12.17-5.14-19.07-18.09-22.93-30.72S210.49,58,203.9,46.57C193,27.72,169.85,17.44,148.25,20.1S107.35,37.33,97,56.48s-12.16,42.3-7,63.44c2.61,10.73,6.92,21,9.27,31.78s2.56,22.59-2.68,32.31c-11,20.31-39.88,23.14-55,40.57-12.5,14.38-12.89,36.32-5.79,54s20.42,32,33.71,45.68c62,2.09,125.1,2.22,187.09,4.31C280.66,329.38,307.21,321.8,331.27,320.39Z"/><path class="cls-2" d="M309.37,95.35c-.16,17.54,16.51,32.8,13.61,50.09-1.56,9.26-8.61,18.64-4.51,27.08,3.63,7.46,14,8.76,21.95,6.33,18.58-5.68,29.88-24.68,35.28-43.35,5.08-17.56,6.34-37.17-1.8-53.54-6.55-13.19-21.68-24.83-37-23.75C322.78,59.2,309.49,82.15,309.37,95.35Z"/><path class="cls-2" d="M66.43,63.05A71.15,71.15,0,0,0,65,132.26c3.65,6.69,8.58,12.94,15.24,16.66s15.25,4.56,21.87.78c10-5.74,12.28-19.26,11.48-30.8s-3.42-23.64,1-34.33c2.9-7,8.46-12.39,13.4-18.09s9.54-12.36,9.79-19.9c.66-19.54-20.08-18.08-32.58-14A71,71,0,0,0,66.43,63.05Z"/><g class="cls-3"><path class="cls-4" d="M328.18,324.39l-1.33-1.21c3.66-4,9.52-13.2,7.54-29.73-.89-7.35-3.07-14.62-5.19-21.64-.94-3.14-1.92-6.39-2.77-9.61a149.24,149.24,0,0,1,10.91-104.09c1.43-2.81,3-5.64,4.46-8.38,4.42-8.1,9-16.48,10.95-25.54,3.45-15.89-3.36-27.8-11.15-32.14-7.47-4.17-18-3.53-28.93,1.75-4,1.93-7.88,4.29-11.63,6.57a107.77,107.77,0,0,1-15.59,8.35c-21.67,8.69-48.76,1.3-63-17.18-6.85-8.88-10.72-19.62-14.46-30-1.45-4-2.95-8.19-4.59-12.17-5.13-12.38-14.51-27.91-30.1-31.63-13.69-3.26-27.56,3.92-36.78,10.51-17.65,12.63-30.08,29.72-35,48.14-3.34,12.42-3.47,25.94-3.6,39-.19,19.47-.39,39.6-11.39,55.81-5,7.38-11.88,13.27-18.53,19C61.74,195.51,55.3,201,50.49,207.7c-10.88,15.14-13.55,36.57-7.32,58.8,5.6,20,17,37.7,28.06,54.84l-1.52,1C58.6,305.06,47.11,287.22,41.44,267c-6.39-22.76-3.62-44.76,7.59-60.34,4.93-6.86,11.45-12.44,17.77-17.84,6.56-5.62,13.34-11.42,18.21-18.6,10.69-15.76,10.88-34.73,11.08-54.82.13-13.19.26-26.82,3.65-39.46,5.05-18.83,17.74-36.28,35.72-49.14C145,20,159.35,12.56,173.71,16c16.33,3.89,26.06,19.93,31.34,32.69,1.67,4,3.17,8.2,4.63,12.25,3.69,10.25,7.51,20.85,14.19,29.51,13.78,17.87,40,25,60.9,16.6a105.37,105.37,0,0,0,15.33-8.21c3.79-2.31,7.71-4.69,11.78-6.66,11.45-5.53,22.6-6.16,30.6-1.7,8.35,4.66,15.68,17.32,12,34.1-2,9.31-6.66,17.81-11.14,26-1.48,2.72-3,5.54-4.42,8.33a147.41,147.41,0,0,0-10.79,102.81c.85,3.19,1.82,6.42,2.76,9.55,2.14,7.1,4.35,14.44,5.25,21.95C338.25,310.48,332.05,320.16,328.18,324.39Z"/></g><g class="cls-3"><path class="cls-4" d="M65.42,204.23a25.81,25.81,0,0,0,.06-18,18.62,18.62,0,0,0-13.12,11.18,21.41,21.41,0,0,0-1.59,8q-3-7.83-5.33-15.93a21.11,21.11,0,0,0,11.82-10.27,26.18,26.18,0,0,0,2.55-17.92,18.54,18.54,0,0,0-14.55,9.29,22,22,0,0,0-2.69,7.79Q41.34,173,40.4,167.51a30.4,30.4,0,0,0,3-16.41,30.77,30.77,0,0,0-7.75-18c-4.3,4.58-6.83,11.65-6.15,19.28a25.12,25.12,0,0,0,7.2,15.8q.36,2.16.78,4.32a29.83,29.83,0,0,0-5.43-6.55c-5.12-4.6-11.17-6.56-16.81-5.45.55,7.55,3.91,14.85,9.36,19.36a17.91,17.91,0,0,0,15.42,4.07q2.1,8.34,4.88,16.43a29.4,29.4,0,0,0-6.27-5.65c-5.7-3.77-12-4.83-17.39-2.95,1.59,7.31,5.91,14,11.93,17.65A18,18,0,0,0,49,211.18q3.23,7.9,7.08,15.5a28.76,28.76,0,0,0-7-4.69c-6.16-2.91-12.5-3.07-17.61-.45,2.58,7,7.77,13,14.22,15.71a18,18,0,0,0,15.91-.41q4.27,7.35,9.15,14.34a28.94,28.94,0,0,0-7.56-3.67c-6.5-2-12.79-1.29-17.49,2,3.51,6.53,9.48,11.73,16.25,13.57a18,18,0,0,0,15.7-2.61q5.27,6.7,11.09,13a28.9,28.9,0,0,0-8-2.59c-6.74-1.12-12.87.48-17.06,4.41,4.39,6,11,10.32,18,11.22a17.93,17.93,0,0,0,15.2-4.74q6.19,5.92,12.89,11.37a29.36,29.36,0,0,0-8.34-1.49c-6.85-.19-12.71,2.24-16.32,6.71,5.22,5.35,12.47,8.76,19.55,8.7a17.86,17.86,0,0,0,14.46-6.79,204.56,204.56,0,0,0,24.07,14.9,2.08,2.08,0,0,0,2.87-.6,2.11,2.11,0,0,0-1.13-2.69,202.64,202.64,0,0,1-18-10.7,21.09,21.09,0,0,0,2.36-15.51,26.35,26.35,0,0,0-9.61-15.36,18.56,18.56,0,0,0-5.16,16.46,21.57,21.57,0,0,0,3,7.7q-6.78-5.12-13.06-10.76a21.2,21.2,0,0,0,4.58-15,25.9,25.9,0,0,0-7.25-16.43,18.64,18.64,0,0,0-7.45,15.53,21.44,21.44,0,0,0,1.81,8q-5.92-6-11.32-12.37a21.27,21.27,0,0,0,6.65-14.15,25.65,25.65,0,0,0-4.84-17.22,18.67,18.67,0,0,0-9.56,14.32,21.51,21.51,0,0,0,.67,8.14q-5-6.69-9.46-13.77a21.28,21.28,0,0,0,8.56-13.08A25.61,25.61,0,0,0,74.51,210a18.66,18.66,0,0,0-11.45,12.86,21.32,21.32,0,0,0-.47,8.15q-4-7.32-7.46-15A21.22,21.22,0,0,0,65.42,204.23Z"/></g><g class="cls-3"><path class="cls-4" d="M363.34,242.53a22.53,22.53,0,0,1,3-15.46,16.33,16.33,0,0,1,9.4,11.83,18.6,18.6,0,0,1,0,7.17c2.6-4.15,5-8.43,7.27-12.8a18.62,18.62,0,0,1-8.45-10.83,23,23,0,0,1,.83-15.85A16.25,16.25,0,0,1,386.33,217a19.13,19.13,0,0,1,1,7.16q2-4.45,3.71-9.05a26.59,26.59,0,0,1,.16-14.63,26.91,26.91,0,0,1,9.7-14.22,22.92,22.92,0,0,1-6.81,30c-.45,1.2-.92,2.39-1.4,3.58a26.41,26.41,0,0,1,5.78-4.72c5.18-3.09,10.72-3.76,15.38-1.86-1.75,6.41-5.86,12.12-11.31,15.08a15.71,15.71,0,0,1-14,.92q-3.21,6.81-7,13.31a25.3,25.3,0,0,1,6.35-3.8c5.54-2.29,11.11-2.15,15.46.39-2.6,6-7.44,11-13.23,13.17a15.73,15.73,0,0,1-13.92-1.09q-4.11,6.25-8.71,12.14a25.54,25.54,0,0,1,6.8-2.86c5.79-1.47,11.27-.54,15.23,2.58-3.39,5.56-8.87,9.83-14.89,11.12a15.73,15.73,0,0,1-13.61-3q-4.92,5.61-10.29,10.8a25,25,0,0,1,7.12-1.88c5.93-.65,11.23,1,14.71,4.67-4.11,5-10.13,8.5-16.27,8.94a15.77,15.77,0,0,1-13.07-4.89q-5.66,4.88-11.72,9.29a25.4,25.4,0,0,1,7.33-.89c6,.18,11,2.58,13.94,6.67-4.79,4.41-11.24,7-17.41,6.63a15.73,15.73,0,0,1-12.28-6.65q-6.33,4.06-13,7.61a25.71,25.71,0,0,1,7.43.13c5.93,1,10.56,4.06,12.91,8.52-5.39,3.72-12.2,5.44-18.29,4.2a15.65,15.65,0,0,1-11.29-8.28,179.7,179.7,0,0,1-23.23,8.77,1.82,1.82,0,0,1-2.36-1,1.84,1.84,0,0,1,1.42-2.12A176.9,176.9,0,0,0,294,315.56a18.49,18.49,0,0,1,.58-13.75,23.09,23.09,0,0,1,10.85-11.59,16.28,16.28,0,0,1,1.67,15,18.86,18.86,0,0,1-3.85,6.12q6.69-3.25,13.05-7.05a18.61,18.61,0,0,1-1.42-13.66,22.75,22.75,0,0,1,9-12.92,16.36,16.36,0,0,1,3.8,14.63,18.75,18.75,0,0,1-2.9,6.56q6.1-4.12,11.82-8.73a18.64,18.64,0,0,1-3.34-13.3,22.44,22.44,0,0,1,7.07-14,16.34,16.34,0,0,1,5.81,13.93,18.9,18.9,0,0,1-1.94,6.89q5.43-4.91,10.45-10.26a18.64,18.64,0,0,1-5.16-12.69,22.44,22.44,0,0,1,5.05-14.85,16.39,16.39,0,0,1,7.69,13,18.57,18.57,0,0,1-1,7.09q4.71-5.61,8.94-11.62A18.56,18.56,0,0,1,363.34,242.53Z"/></g><path class="cls-5" d="M387,332.13H25a6.72,6.72,0,0,1-6.71-6.71h0A6.72,6.72,0,0,1,25,318.7H387a6.72,6.72,0,0,1,6.72,6.72h0A6.72,6.72,0,0,1,387,332.13Z"/><path class="cls-6" d="M133.05,227.65a30.77,30.77,0,0,1-9.18-44.78c4-5.38,9.9-10,10.64-16.6.78-6.87-4.37-12.83-6.74-19.33A25.36,25.36,0,0,1,131.58,123c3.76-4.79,9.32-8.27,11.83-13.82,1.58-3.49,1.77-7.42,2.21-11.23s1.25-7.78,3.75-10.68,7.21-4.22,10.26-1.9c5.79-6,12.6-13.22,20.27-16.44s16.89-3.68,24.06.53c5.68,3.32,9.46,9.08,14.45,13.37,4.28,3.69,9.4,6.25,14,9.51s8.92,7.52,10.34,13c2.33,9-3.68,18-4,27.32-.27,9,4.86,17.34,6,26.3s-1.91,18.3-6.75,26.08-11.37,14.33-17.85,20.81c-2.62,11.71-11.25,20-22.25,24.77s-23.33,5.59-35.32,5.15C152.89,235.44,141.47,232.6,133.05,227.65Z"/><path class="cls-7" d="M146.43,204c-2.5-3.31-2.43-7.91-1.38-11.91s2.92-7.77,3.74-11.83c1.12-5.48.23-11.15-.91-16.62s-2.53-11-2.42-16.56,1.93-11.43,6.21-15c15-12.62,39.26-8.23,58.76-6.18,9.85,1,16.58,10.54,19.71,19.94s2.06,19.88-1.66,29.06-9.95,17.16-17,24.09c-4.22,4.14-11.7.82-17.5,2s-10.58,4.58-15.92,6.82a38.82,38.82,0,0,1-27.15,1C148.31,207.82,146.14,206.68,146.43,204Z"/><path class="cls-8" d="M254.06,213.72a52.25,52.25,0,0,0-28.4-18.57c-5.14-1.28-10.47-1.78-15.52-3.36a29.72,29.72,0,0,1-4.2-1.69,92.3,92.3,0,0,1-2.89-23.68H173.44a92.75,92.75,0,0,1-2.9,23.68,29.72,29.72,0,0,1-4.2,1.69c-5.05,1.58-10.38,2.08-15.51,3.36a51.75,51.75,0,0,0-39.19,50.73v73.17l132.08-1.93a21.44,21.44,0,0,0,21.13-21.44v-49.8A52.21,52.21,0,0,0,254.06,213.72Z"/><path class="cls-9" d="M202.7,314.33c2.52-6.61,2.74-13.83,3.65-20.85,1.75-13.46,6.14-26.41,9.26-39.62s5.87-27.61,2.46-40.74a240.38,240.38,0,0,1-58-.1c-7.29,3.06-11.07,12.26-12.42,20s-.37,15.76-.22,23.66c.17,8.64-.68,17.28-.27,25.92s2.19,17.46,7.07,24.6a44.39,44.39,0,0,0,11.47,11l35.44-.52A26.46,26.46,0,0,0,202.7,314.33Z"/><path class="cls-10" d="M147.6,240c1.35-7.78,5.13-17,12.42-20a239.87,239.87,0,0,0,58,.09,49.59,49.59,0,0,1,1.47,9.78,55.25,55.25,0,0,0-1.47-16.66,240.38,240.38,0,0,1-58-.1c-7.29,3.06-11.07,12.26-12.42,20A62.17,62.17,0,0,0,147,246,47.55,47.55,0,0,1,147.6,240Z"/><path class="cls-10" d="M147.38,263.6c0-.27,0-.54,0-.81-.13,5.93-.46,11.86-.31,17.78C147.17,274.92,147.49,269.26,147.38,263.6Z"/><path class="cls-11" d="M172.66,179a63,63,0,0,0,30.47-8.25c-.06-1.45-.09-2.9-.08-4.34H173.44A91.53,91.53,0,0,1,172.66,179Z"/><path class="cls-8" d="M160.27,128.16c-1.2-2.22-2.64-4.43-4.83-5.69s-5.28-1.25-7,.63c-1.36,1.52-1.45,3.78-1.33,5.82.25,4.14,1.16,8.39,3.65,11.69s6.85,5.46,10.86,4.4C162.23,139.38,163,133.15,160.27,128.16Z"/><path class="cls-12" d="M160,132.56l.43.06a24.61,24.61,0,0,0-1.9-4,8.45,8.45,0,0,0-3.13-3,5.08,5.08,0,0,0-4.27-.26,3.66,3.66,0,0,0-2.23,3.49,3.63,3.63,0,0,1,3.44-1,3.52,3.52,0,0,1,2.6,2.36,2.66,2.66,0,0,0-2,2.22,5.28,5.28,0,0,0,.46,3.09,4.89,4.89,0,0,0,1,1.55,2.29,2.29,0,0,0,1.64.73,3.39,3.39,0,0,1-2.41,1.37,6.54,6.54,0,0,0,6.38-.42A27.94,27.94,0,0,0,160,132.56Z"/><path class="cls-8" d="M214.38,130.32c1.2-2.22,2.64-4.43,4.83-5.69s5.28-1.25,7,.63c1.36,1.52,1.45,3.78,1.33,5.83-.25,4.13-1.16,8.38-3.65,11.68s-6.85,5.46-10.86,4.4C212.42,141.54,211.7,135.31,214.38,130.32Z"/><path class="cls-12" d="M214.65,134.72l-.42.06a24.61,24.61,0,0,1,1.9-4,8.45,8.45,0,0,1,3.13-3,5.08,5.08,0,0,1,4.27-.26,3.66,3.66,0,0,1,2.23,3.49,3.63,3.63,0,0,0-3.44-1,3.52,3.52,0,0,0-2.6,2.36,2.66,2.66,0,0,1,2,2.22,5.21,5.21,0,0,1-.47,3.09,4.86,4.86,0,0,1-1,1.55,2.29,2.29,0,0,1-1.64.73,3.39,3.39,0,0,0,2.41,1.37,6.56,6.56,0,0,1-6.39-.42A28.56,28.56,0,0,1,214.65,134.72Z"/><circle class="cls-13" cx="157.44" cy="132.4" r="8.52"/><circle class="cls-13" cx="217.77" cy="132.4" r="8.52"/><ellipse class="cls-8" cx="187.56" cy="134.25" rx="30.21" ry="40.63"/><path class="cls-6" d="M159.14,119c-.94-.43.69-2.07,3.15-2.73,6.51-1.76,13.71-2.5,19.12,1.52.22,1.12-1.22,2.45-2.35,2.59a7.36,7.36,0,0,1-3.32-.71A29.49,29.49,0,0,0,159.14,119Z"/><path class="cls-6" d="M215.69,119c.95-.43-.68-2.07-3.14-2.73-6.51-1.76-13.72-2.5-19.13,1.52-.21,1.12,1.23,2.45,2.36,2.59a7.3,7.3,0,0,0,3.31-.71A29.49,29.49,0,0,1,215.69,119Z"/><path class="cls-14" d="M179,144.1c0,1.17-3.73,2.12-8.34,2.12s-8.35-.95-8.35-2.12,3.74-2.12,8.35-2.12S179,142.93,179,144.1Z"/><path class="cls-14" d="M212.29,144.1c0,1.17-3.73,2.12-8.34,2.12s-8.34-.95-8.34-2.12S199.34,142,204,142,212.29,142.93,212.29,144.1Z"/><path class="cls-15" d="M186.77,125.46A22.43,22.43,0,0,1,183,141.31a5.55,5.55,0,0,0-1.41,3.15,3.28,3.28,0,0,0,2.47,2.78,8.06,8.06,0,0,0,3.93-.11"/><path class="cls-9" d="M170.9,140.61a13.46,13.46,0,1,1,13.46-13.46A13.48,13.48,0,0,1,170.9,140.61Zm0-24.73a11.27,11.27,0,1,0,11.27,11.27A11.27,11.27,0,0,0,170.9,115.88Z"/><path class="cls-9" d="M204.68,140.61a13.46,13.46,0,1,1,13.46-13.46A13.48,13.48,0,0,1,204.68,140.61Zm0-24.73A11.27,11.27,0,1,0,216,127.15,11.28,11.28,0,0,0,204.68,115.88Z"/><path class="cls-9" d="M183.9,128l-1.27-1.79a9.12,9.12,0,0,1,10.33,0L191.68,128C187.85,125.3,183.94,128,183.9,128Z"/><path class="cls-15" d="M178.88,152.87a17.9,17.9,0,0,0,18.72-.7"/><path class="cls-15" d="M184.81,159.49a11.62,11.62,0,0,0,5.64.45"/><path class="cls-6" d="M146.21,136.37a63.62,63.62,0,0,0,22.33-29.85,38.25,38.25,0,0,0,27.15,9.85,11.43,11.43,0,0,1-4.52-4.37c9.44,2.24,17.56,8,23.78,15.41,2.53,3,4.67,6.39,7.52,9.11s6.68,4.77,10.6,4.35c-2.45-10.4-4.83-21.14-8.74-31.07-2.4-6.1-5.24-12.31-10.26-16.53-6.24-5.25-14.95-6.58-23.09-6a55.38,55.38,0,0,0-24.66,7.77,53,53,0,0,0-22.1,26.87,20,20,0,0,0-1.51,7.64A9.12,9.12,0,0,0,146.21,136.37Z"/><path class="cls-16" d="M157.4,143a2.75,2.75,0,1,1-2.75-2.75A2.76,2.76,0,0,1,157.4,143Z"/><path class="cls-16" d="M223.27,143a2.75,2.75,0,1,1-2.75-2.75A2.76,2.76,0,0,1,223.27,143Z"/><path class="cls-17" d="M171.54,123.12a2.74,2.74,0,0,0-2.31,2l2.31,2.32-2.31,2.31a2.74,2.74,0,0,0,2.31,2c1.52,0,2.75-1.93,2.75-4.31S173.06,123.12,171.54,123.12Z"/><path class="cls-17" d="M203.68,123.12a2.75,2.75,0,0,0-2.31,2l2.31,2.32-2.31,2.31a2.75,2.75,0,0,0,2.31,2c1.52,0,2.76-1.93,2.76-4.31S205.2,123.12,203.68,123.12Z"/><path class="cls-9" d="M152.18,117.61a30.49,30.49,0,0,1,1.33-13.39,33.22,33.22,0,0,1,7-11.91A33.68,33.68,0,0,1,172,84.14a34.54,34.54,0,0,1,27.73,0,33.71,33.71,0,0,1,11.43,8.18,33,33,0,0,1,7,11.91,30.63,30.63,0,0,1,1.32,13.39A36.27,36.27,0,0,0,208.1,95.33a33.09,33.09,0,0,0-44.56,0A36.23,36.23,0,0,0,152.18,117.61Z"/><path class="cls-18" d="M225.66,195.15c-4.26-1.06-8.64-1.6-12.9-2.64a1000,1000,0,0,0-18.93,125.34l49.89-.73a21.44,21.44,0,0,0,21.13-21.44v-49.8a51.75,51.75,0,0,0-39.19-50.73Z"/><path class="cls-18" d="M164.67,192.27c-4.55,1.21-9.27,1.74-13.84,2.88a51.75,51.75,0,0,0-39.19,50.73v73.17l72-1.05A1000.73,1000.73,0,0,0,164.67,192.27Z"/><path class="cls-19" d="M150.83,195.15c-1.56.39-3.09.86-4.59,1.39q-5.22,14.82-9.52,29.85c5.45,3.14,10.71,7.05,16.63,9.54-2.14,5.21-4.42,11-6.56,16.2a490.93,490.93,0,0,1,27.91,66l9-.11a837.89,837.89,0,0,0-22.85-124.85C157.49,193.82,154.12,194.33,150.83,195.15Z"/><path class="cls-19" d="M230.75,252.13c-2.09-5.22-4.33-11-6.42-16.2,5.79-2.49,10.94-6.4,16.26-9.54q-4.11-14.8-9.15-29.41a51,51,0,0,0-5.78-1.83c-3.14-.79-6.35-1.28-9.53-1.91a854.21,854.21,0,0,0-22.3,124.61l9.76-.14A494.92,494.92,0,0,1,230.75,252.13Z"/><path class="cls-20" d="M164.67,192.27c-3.7,1-7.51,1.52-11.26,2.3q-4.64,15.8-8.4,31.82c4.49,3.14,8.82,7.05,13.7,9.54-1.76,5.21-3.65,11-5.41,16.2a551.85,551.85,0,0,1,23,66l7.39-.11A1000.73,1000.73,0,0,0,164.67,192.27Z"/><path class="cls-20" d="M224.93,195c-4-1-8.15-1.49-12.17-2.48a1000,1000,0,0,0-18.93,125.34l8.21-.12a551.56,551.56,0,0,1,22.88-65.6c-1.76-5.22-3.65-11-5.41-16.2,4.88-2.49,9.21-6.4,13.7-9.54Q229.51,210.58,224.93,195Z"/><path class="cls-16" d="M167.25,192.79a1.64,1.64,0,0,1-1.16-.49,1.27,1.27,0,0,1-.21-.25,1,1,0,0,1-.14-.28,1.24,1.24,0,0,1-.1-.31,1.34,1.34,0,0,1,0-.65,1.32,1.32,0,0,1,.1-.3,1.11,1.11,0,0,1,.14-.29,1.64,1.64,0,0,1,.21-.25,1.7,1.7,0,0,1,1.47-.45,1.6,1.6,0,0,1,.31.1,1.32,1.32,0,0,1,.29.15,1.69,1.69,0,0,1,.25.2,2.52,2.52,0,0,1,.21.25,2.64,2.64,0,0,1,.15.29c0,.1.07.21.09.3a1.84,1.84,0,0,1,0,.33,1.82,1.82,0,0,1,0,.32c0,.1-.06.21-.09.31a2.49,2.49,0,0,1-.15.28,1.73,1.73,0,0,1-.21.25,1,1,0,0,1-.25.2,1,1,0,0,1-.29.15,1.12,1.12,0,0,1-.31.1A1.46,1.46,0,0,1,167.25,192.79Z"/><path class="cls-16" d="M186.33,202.23h0a1.65,1.65,0,0,1-1.57-1.47h0A1.64,1.64,0,0,1,183,202h0a1.63,1.63,0,0,1-1.45-1.57h0a1.65,1.65,0,0,1-1.86,1.07h0a1.66,1.66,0,0,1-1.34-1.7h0a1.63,1.63,0,0,1-2,.9h0a1.63,1.63,0,0,1-1.14-1.86h0a1.65,1.65,0,0,1-2.11.61h0a1.64,1.64,0,0,1-.82-2.06h0a1.66,1.66,0,0,1-2.23.19h0a1.64,1.64,0,0,1-.35-2.21h0a1.65,1.65,0,0,1-2.22-.37h0a1.65,1.65,0,0,1,.3-2.31h0a1.66,1.66,0,0,1,2.3.31h0a1.69,1.69,0,0,1,0,1.92h0a1.67,1.67,0,0,1,1.93.06h0a1.64,1.64,0,0,1,.52,1.88h0a1.65,1.65,0,0,1,1.92-.37h0a1.64,1.64,0,0,1,.91,1.78h0a1.62,1.62,0,0,1,1.87-.71h0a1.62,1.62,0,0,1,1.16,1.65h0a1.66,1.66,0,0,1,1.81-.94h0a1.63,1.63,0,0,1,1.34,1.57h0a1.64,1.64,0,0,1,1.74-1.1h0a1.65,1.65,0,0,1,1.45,1.46h0a1.63,1.63,0,0,1,1.65-1.22h0a1.62,1.62,0,0,1,1.54,1.34h0a1.65,1.65,0,0,1,1.55-1.35h0a1.65,1.65,0,0,1,1.65,1.19h0a1.64,1.64,0,0,1,1.4-1.47h0a1.65,1.65,0,0,1,1.77,1h0a1.63,1.63,0,0,1,1.23-1.61h0a1.66,1.66,0,0,1,1.86.83h0a1.65,1.65,0,0,1,1-1.74h0a1.65,1.65,0,0,1,1.94.59h0a1.64,1.64,0,0,1,.82-1.85h0a1.63,1.63,0,0,1,2,.36h0a1.65,1.65,0,0,1,.58-1.93h0a1.62,1.62,0,0,1,2,.07h0a1.65,1.65,0,0,1,.31-2h0a1.64,1.64,0,0,1,2.32.06h0a1.62,1.62,0,0,1,0,2.32h0a1.65,1.65,0,0,1-2.18.08h0a1.64,1.64,0,0,1-.49,2.12h0a1.65,1.65,0,0,1-2.17-.23h0a1.64,1.64,0,0,1-.76,2h0a1.64,1.64,0,0,1-2.11-.51h0a1.66,1.66,0,0,1-1,1.93h0a1.65,1.65,0,0,1-2-.75h0a1.63,1.63,0,0,1-1.22,1.78h0a1.63,1.63,0,0,1-1.93-1h0a1.66,1.66,0,0,1-1.42,1.64h0a1.64,1.64,0,0,1-1.81-1.18h0a1.65,1.65,0,0,1-1.56,1.5h0a1.67,1.67,0,0,1-1.7-1.34h0a1.63,1.63,0,0,1-1.61,1.35h-.06Z"/><path class="cls-16" d="M209.44,192.82a1.67,1.67,0,0,1-1.16-.48,1.64,1.64,0,0,1-.48-1.16,1.67,1.67,0,0,1,.48-1.17,1.7,1.7,0,0,1,2.32,0,1.65,1.65,0,0,1,0,2.33A1.69,1.69,0,0,1,209.44,192.82Z"/><path class="cls-21" d="M177.68,161.8h-.05a56.59,56.59,0,0,1-9.46-1.1,19.23,19.23,0,0,1-8.74-4.31,19.45,19.45,0,0,1-5.52-10.63,55.44,55.44,0,0,1-.66-11.76.92.92,0,0,1,.91-.89.9.9,0,0,1,.89.92,54.17,54.17,0,0,0,.63,11.38,17.68,17.68,0,0,0,5,9.65,17.38,17.38,0,0,0,7.93,3.88,54.23,54.23,0,0,0,9.15,1.05.91.91,0,0,1,0,1.81Z"/><path class="cls-21" d="M180.32,160.83c0,1.35-1.52,2.44-3.4,2.44s-3.4-1.09-3.4-2.44,1.53-2.45,3.4-2.45S180.32,159.48,180.32,160.83Z"/><path class="cls-18" d="M124.83,212.6c-10.23,10.5-17.26,23.77-22.18,37.58s-7.83,28.23-10.73,42.59c-.83,4.14-1.66,8.44-.62,12.52,2.14,8.38,11.39,12.95,20,13.95s17.37-.43,25.87,1.16C143.45,284.69,140.82,245.15,124.83,212.6Z"/><path class="cls-8" d="M154,301.4c6.31-1.84,12.66-3.7,19.19-4.36s13.34-.08,19.26,2.77,10.84,8.17,12.19,14.6c.43,2-3.52,2.6-5.53,3.17a18.64,18.64,0,0,1-6.24.35L172,316.77c-5-.28-10.39.94-14.56-1.78a9.59,9.59,0,0,1-3.82-6.2C153.1,306.34,153.84,303.89,154,301.4Z"/><path class="cls-18" d="M110.73,290.7a495.67,495.67,0,0,1,54.65-.07c1.66,8.53,3.9,17.88,3.15,26.54a88.62,88.62,0,0,1-44.47.44C114,315.14,110.61,301,110.73,290.7Z"/><path class="cls-19" d="M155.31,290.45a58.56,58.56,0,0,0-20.84-6,183.18,183.18,0,0,0,.73-31.33c2.65,8.4,4.57,17,4.46,25.84C145.81,281.19,151.9,284.85,155.31,290.45Z"/><path class="cls-4" d="M127.88,312.8H335.67a0,0,0,0,1,0,0v1.72a4.19,4.19,0,0,1-4.19,4.19H132.07a4.19,4.19,0,0,1-4.19-4.19V312.8A0,0,0,0,1,127.88,312.8Z"/><path class="cls-22" d="M127.88,312.8H335.67a0,0,0,0,1,0,0v1.72a4.19,4.19,0,0,1-4.19,4.19H132.07a4.19,4.19,0,0,1-4.19-4.19V312.8A0,0,0,0,1,127.88,312.8Z"/><path class="cls-22" d="M200.27,314.52V312.8H127.88v1.72a4.19,4.19,0,0,0,4.19,4.18h64A4.18,4.18,0,0,0,200.27,314.52Z"/><path class="cls-9" d="M335.67,312.8H200.27l30.19-83a8.85,8.85,0,0,1,7.63-5.59H362.31c3.09,0,4.68,2.5,3.56,5.59Z"/><path class="cls-23" d="M292.78,268.52c-1.75,4.81-7.06,8.7-11.86,8.7s-7.28-3.89-5.53-8.7,7.06-8.69,11.86-8.69S294.53,263.72,292.78,268.52Z"/><path class="cls-22" d="M185.76,316.84h-4.7a1.07,1.07,0,0,1-1.07-1.07h0a1.07,1.07,0,0,1,1.07-1.08h4.7a1.08,1.08,0,0,1,1.08,1.08h0A1.08,1.08,0,0,1,185.76,316.84Z"/><path class="cls-22" d="M176.23,316.84h-4.7a1.07,1.07,0,0,1-1.07-1.07h0a1.07,1.07,0,0,1,1.07-1.08h4.7a1.07,1.07,0,0,1,1.07,1.08h0A1.07,1.07,0,0,1,176.23,316.84Z"/><path class="cls-22" d="M166.7,316.84H162a1.07,1.07,0,0,1-1.08-1.07h0a1.08,1.08,0,0,1,1.08-1.08h4.7a1.07,1.07,0,0,1,1.07,1.08h0A1.07,1.07,0,0,1,166.7,316.84Z"/><path class="cls-24" d="M109.19,307.41a14.29,14.29,0,1,1,14.29-14.29A14.3,14.3,0,0,1,109.19,307.41Zm0-24.11a9.82,9.82,0,1,0,9.82,9.82A9.84,9.84,0,0,0,109.19,283.3Z"/><path class="cls-9" d="M69.34,306.41a18.93,18.93,0,0,0,.68,5.08,9.93,9.93,0,0,0,9.61,7.21H97.17a9.92,9.92,0,0,0,9.6-7.21,18.94,18.94,0,0,0,.69-5.08V277.32H69.34Z"/><path class="cls-25" d="M97.23,277.32v29.09a18.93,18.93,0,0,1-.68,5.08A9.92,9.92,0,0,1,87,318.7H97.17a9.92,9.92,0,0,0,9.6-7.21,18.94,18.94,0,0,0,.69-5.08V277.32Z"/><path class="cls-26" d="M282.42,66.44a23.4,23.4,0,0,0-.14-2.53l3.6-1.55a26.07,26.07,0,0,0-.83-3.67l-3.94.16a22.63,22.63,0,0,0-2.19-4.54l2.58-3a25.66,25.66,0,0,0-2.35-2.94l-3.45,1.84a23.17,23.17,0,0,0-4-3.14l1-3.79a26.5,26.5,0,0,0-3.39-1.64l-2.32,3.18a22.3,22.3,0,0,0-4.92-1.13l-.71-3.86c-.63,0-1.25-.07-1.88-.07s-1.26,0-1.89.07L257,43.72A22.3,22.3,0,0,0,252,44.85l-2.32-3.18a26.5,26.5,0,0,0-3.39,1.64l1,3.79a23.17,23.17,0,0,0-4,3.14l-3.45-1.84a25.66,25.66,0,0,0-2.35,2.94l2.58,3A22.63,22.63,0,0,0,238,58.85L234,58.69a26.07,26.07,0,0,0-.83,3.67l3.6,1.55a22.93,22.93,0,0,0,0,5.06l-3.6,1.55a26.07,26.07,0,0,0,.83,3.67L238,74a22.45,22.45,0,0,0,2.19,4.55l-2.58,3a25.66,25.66,0,0,0,2.35,2.94l3.45-1.84a23.17,23.17,0,0,0,4,3.14l-1,3.79a25.18,25.18,0,0,0,3.39,1.63L252,88A22.3,22.3,0,0,0,257,89.16l.71,3.85c.63,0,1.25.08,1.89.08s1.25,0,1.88-.08l.71-3.85A22.3,22.3,0,0,0,267.06,88l2.32,3.17a25.18,25.18,0,0,0,3.39-1.63l-1-3.79a23.17,23.17,0,0,0,4-3.14l3.45,1.84a25.66,25.66,0,0,0,2.35-2.94l-2.58-3A22.45,22.45,0,0,0,281.11,74l3.94.17a26.07,26.07,0,0,0,.83-3.67L282.28,69A23.54,23.54,0,0,0,282.42,66.44ZM259.55,82.62a16.19,16.19,0,1,1,16.18-16.18A16.18,16.18,0,0,1,259.55,82.62Z"/><path class="cls-26" d="M92,166a18.42,18.42,0,0,0-.13-2.12l3-1.31a22.42,22.42,0,0,0-.7-3.07l-3.3.14a19.14,19.14,0,0,0-1.84-3.81l2.16-2.5a22.11,22.11,0,0,0-2-2.46l-2.89,1.54a19.7,19.7,0,0,0-3.32-2.63l.86-3.18a21.25,21.25,0,0,0-2.84-1.37l-1.94,2.66A19.54,19.54,0,0,0,75,147l-.6-3.23c-.52,0-1.05-.06-1.58-.06s-1,0-1.57.06l-.6,3.23a19.54,19.54,0,0,0-4.13,1l-2-2.66a22.5,22.5,0,0,0-2.84,1.37l.87,3.18a19.7,19.7,0,0,0-3.32,2.63l-2.9-1.54a22,22,0,0,0-2,2.46l2.16,2.5a18.61,18.61,0,0,0-1.84,3.81l-3.3-.14a22.42,22.42,0,0,0-.7,3.07l3,1.31a21,21,0,0,0-.12,2.12c0,.71,0,1.42.12,2.12l-3,1.3a22.08,22.08,0,0,0,.7,3.07l3.3-.13a18.86,18.86,0,0,0,1.84,3.81l-2.16,2.49a22.13,22.13,0,0,0,2,2.47l2.9-1.55a19.21,19.21,0,0,0,3.32,2.63l-.87,3.18a22.5,22.5,0,0,0,2.84,1.37l2-2.66a18.94,18.94,0,0,0,4.13,1l.6,3.23c.52,0,1,.06,1.57.06s1.06,0,1.58-.06l.6-3.23a18.94,18.94,0,0,0,4.13-1l1.94,2.66a21.25,21.25,0,0,0,2.84-1.37l-.86-3.18a19.21,19.21,0,0,0,3.32-2.63l2.89,1.55a22.22,22.22,0,0,0,2-2.47l-2.16-2.49a19.41,19.41,0,0,0,1.84-3.81l3.3.13a22.08,22.08,0,0,0,.7-3.07l-3-1.3A18.7,18.7,0,0,0,92,166ZM72.82,179.61A13.57,13.57,0,1,1,86.4,166,13.58,13.58,0,0,1,72.82,179.61Z"/><path class="cls-26" d="M365.86,197.09a13.17,13.17,0,0,0-.09-1.55l2.21-1a16.22,16.22,0,0,0-.51-2.24l-2.42.1a13.28,13.28,0,0,0-1.34-2.79l1.58-1.83a17.74,17.74,0,0,0-1.44-1.8l-2.11,1.13a14.45,14.45,0,0,0-2.43-1.92l.63-2.33a15.9,15.9,0,0,0-2.08-1l-1.42,1.95a13.83,13.83,0,0,0-3-.7l-.44-2.36c-.38,0-.76,0-1.15,0s-.78,0-1.16,0l-.43,2.36a13.7,13.7,0,0,0-3,.7l-1.43-1.95a15.9,15.9,0,0,0-2.08,1l.64,2.33a13.69,13.69,0,0,0-2.43,1.92L339.8,186a17.74,17.74,0,0,0-1.44,1.8l1.58,1.83a14.35,14.35,0,0,0-1.34,2.79l-2.41-.1a14.9,14.9,0,0,0-.52,2.24l2.21,1c-.05.51-.09,1-.09,1.55s0,1,.09,1.55l-2.21,1a15.32,15.32,0,0,0,.52,2.25l2.41-.1a14.63,14.63,0,0,0,1.34,2.79l-1.58,1.82a15.77,15.77,0,0,0,1.44,1.8l2.12-1.13a14.22,14.22,0,0,0,2.43,1.93l-.64,2.32a16,16,0,0,0,2.08,1l1.43-1.95a13.14,13.14,0,0,0,3,.69l.43,2.37c.38,0,.77,0,1.16,0s.77,0,1.15,0l.44-2.37a13.26,13.26,0,0,0,3-.69l1.42,1.95a16,16,0,0,0,2.08-1l-.63-2.32a15,15,0,0,0,2.43-1.93l2.11,1.13a15.77,15.77,0,0,0,1.44-1.8l-1.58-1.82a13.52,13.52,0,0,0,1.34-2.79l2.42.1a16.7,16.7,0,0,0,.51-2.25l-2.21-1A13.3,13.3,0,0,0,365.86,197.09Zm-14,9.92a9.93,9.93,0,1,1,9.92-9.92A9.92,9.92,0,0,1,351.83,207Z"/><path class="cls-9" d="M303.49,153.63H268.7a10.21,10.21,0,0,0-10.21,10.21v16.63a10.21,10.21,0,0,0,10.21,10.21h1.17L267.5,194a1.34,1.34,0,0,0,1.61,2l11.09-4.7a8.05,8.05,0,0,1,3.14-.64h20.15a10.21,10.21,0,0,0,10.21-10.21V163.84A10.21,10.21,0,0,0,303.49,153.63Z"/><path class="cls-10" d="M306.7,166H265.49a1.78,1.78,0,0,1-1.78-1.77h0a1.78,1.78,0,0,1,1.78-1.77H306.7a1.77,1.77,0,0,1,1.77,1.77h0A1.77,1.77,0,0,1,306.7,166Z"/><path class="cls-10" d="M306.7,173.93H265.49a1.78,1.78,0,0,1-1.78-1.78h0a1.78,1.78,0,0,1,1.78-1.77H306.7a1.77,1.77,0,0,1,1.77,1.77h0A1.78,1.78,0,0,1,306.7,173.93Z"/><path class="cls-10" d="M288.66,181.81H265.49a1.78,1.78,0,0,1-1.78-1.77h0a1.78,1.78,0,0,1,1.78-1.77h23.17a1.77,1.77,0,0,1,1.77,1.77h0A1.77,1.77,0,0,1,288.66,181.81Z"/><rect class="cls-5" x="305" y="54.2" width="73.8" height="73.8" rx="20.34"/><path class="cls-9" d="M322.33,109.91A26.09,26.09,0,1,1,361.46,75.4a2.08,2.08,0,1,1-3.12,2.75,21.94,21.94,0,1,0,5,9.82,2.08,2.08,0,0,1,4.07-.89,26.09,26.09,0,0,1-45.05,22.83Z"/><path class="cls-9" d="M347.12,79a2.11,2.11,0,0,1-.52-1.22,2.08,2.08,0,0,1,1.92-2.24l9.12-.7-.7-9.12a2.08,2.08,0,0,1,4.15-.33l.86,11.2A2.07,2.07,0,0,1,360,78.83l-11.2.87A2.08,2.08,0,0,1,347.12,79Z"/><text class="cls-27" transform="translate(324.82 98.36)">24/7</text><g class="cls-3"><circle class="cls-4" cx="29.3" cy="111.47" r="3.36"/><circle class="cls-4" cx="4.6" cy="194.94" r="2.15"/><path class="cls-4" d="M25.94,292.06a1.61,1.61,0,1,1-1.6-1.61A1.6,1.6,0,0,1,25.94,292.06Z"/><circle class="cls-4" cx="32.45" cy="85.83" r="1.33" transform="translate(-53.91 116.82) rotate(-89.03)"/><circle class="cls-4" cx="116.7" cy="10.42" r="2.31"/><path class="cls-4" d="M200.27,10.79a2.68,2.68,0,1,1-2.68-2.68A2.68,2.68,0,0,1,200.27,10.79Z"/><path class="cls-4" d="M217.21,36.68a3.07,3.07,0,1,1-3.06-3.07A3.06,3.06,0,0,1,217.21,36.68Z"/><circle class="cls-4" cx="298.43" cy="30.26" r="3.36"/><path class="cls-4" d="M261.19,16.48a1.35,1.35,0,1,1-1.35-1.36A1.35,1.35,0,0,1,261.19,16.48Z"/><path class="cls-4" d="M335.67,38.86a2.18,2.18,0,1,1-2.18-2.18A2.18,2.18,0,0,1,335.67,38.86Z"/><path class="cls-4" d="M393.75,79.63a2.36,2.36,0,1,1-2.36-2.35A2.36,2.36,0,0,1,393.75,79.63Z"/><path class="cls-4" d="M391.75,138.27a3.71,3.71,0,1,1-3.71-3.71A3.71,3.71,0,0,1,391.75,138.27Z"/><circle class="cls-4" cx="415.72" cy="167.9" r="1.86"/><circle class="cls-4" cx="381.57" cy="170.66" r="2.77"/><circle class="cls-4" cx="400.28" cy="283.09" r="2.52"/><circle class="cls-4" cx="379.81" cy="301.54" r="3.53"/></g><path class="cls-2" d="M56.72,24.89h0a10.25,10.25,0,0,0,8.72,8.72h0a10.26,10.26,0,0,0-8.72,8.72h0A10.27,10.27,0,0,0,48,33.61h0a10.26,10.26,0,0,0,8.72-8.72Z"/><path class="cls-2" d="M413.86,112.3h0a7.94,7.94,0,0,0,6.76,6.75h0a8,8,0,0,0-6.76,6.76h0a7.94,7.94,0,0,0-6.75-6.76h0a7.93,7.93,0,0,0,6.75-6.75Z"/><path class="cls-2" d="M6.76,264.93h0a7.93,7.93,0,0,0,6.75,6.75h0a7.94,7.94,0,0,0-6.75,6.76h0A8,8,0,0,0,0,271.68H0a7.94,7.94,0,0,0,6.76-6.75Z"/><path class="cls-2" d="M417.58,253.94h0a8,8,0,0,0,6.76,6.76h0a8,8,0,0,0-6.76,6.76h0a7.94,7.94,0,0,0-6.75-6.76h0a7.94,7.94,0,0,0,6.75-6.76Z"/><path class="cls-2" d="M6.76,131h0a6.43,6.43,0,0,0,5.47,5.47h0a6.43,6.43,0,0,0-5.47,5.47h0a6.45,6.45,0,0,0-5.47-5.47h0A6.45,6.45,0,0,0,6.76,131Z"/><path class="cls-2" d="M232,2.64h0a6.43,6.43,0,0,0,5.47,5.47h0A6.43,6.43,0,0,0,232,13.58h0a6.43,6.43,0,0,0-5.47-5.47h0A6.43,6.43,0,0,0,232,2.64Z"/><path class="cls-2" d="M382,26.9h0a10.26,10.26,0,0,0,8.72,8.71h0A10.27,10.27,0,0,0,382,44.33h0a10.26,10.26,0,0,0-8.71-8.72h0A10.25,10.25,0,0,0,382,26.9Z"/><rect class="cls-5" x="36.29" y="48.64" width="87.19" height="61.99" rx="17.08"/><circle class="cls-9" cx="54.43" cy="68.56" r="7.26" transform="translate(-30.99 87.73) rotate(-64.2)"/><path class="cls-9" d="M106.17,65.77H69.43a2.23,2.23,0,0,1-2.23-2.23h0a2.23,2.23,0,0,1,2.23-2.24h36.74a2.23,2.23,0,0,1,2.23,2.24h0A2.23,2.23,0,0,1,106.17,65.77Z"/><path class="cls-9" d="M106.17,75.92H69.43a2.23,2.23,0,0,1-2.23-2.23h0a2.23,2.23,0,0,1,2.23-2.24h36.74a2.23,2.23,0,0,1,2.23,2.24h0A2.23,2.23,0,0,1,106.17,75.92Z"/><circle class="cls-9" cx="54.43" cy="90.61" r="7.26" transform="translate(-49.27 111.1) rotate(-70.18)"/><path class="cls-9" d="M106.17,87.81H69.43a2.23,2.23,0,0,1-2.23-2.23h0a2.23,2.23,0,0,1,2.23-2.23h36.74a2.23,2.23,0,0,1,2.23,2.23h0A2.23,2.23,0,0,1,106.17,87.81Z"/><path class="cls-9" d="M106.17,98H69.43a2.23,2.23,0,0,1-2.23-2.24h0a2.23,2.23,0,0,1,2.23-2.23h36.74a2.23,2.23,0,0,1,2.23,2.23h0A2.23,2.23,0,0,1,106.17,98Z"/><rect class="cls-5" x="23.85" y="200.63" width="57.78" height="57.78" rx="15.92"/><text class="cls-28" transform="translate(42.54 246)">?</text><rect class="cls-5" x="156.5" width="73.8" height="53.8" rx="20.34"/><path class="cls-9" d="M213.72,26.9a5.4,5.4,0,1,1-5.4-5.4A5.4,5.4,0,0,1,213.72,26.9Z"/><circle class="cls-9" cx="193.4" cy="26.9" r="5.4"/><circle class="cls-9" cx="178.48" cy="26.9" r="5.4"/></g></g></svg>