<svg xmlns="http://www.w3.org/2000/svg" viewBox="0 0 695.38 462.85"><defs><style>.cls-1{fill:#e0e0e0;}.cls-2{fill:#ebebeb;}.cls-3{fill:#f5f5f5;}.cls-4{opacity:0.3;}.cls-5{fill:#fafafa;}.cls-6{fill:#fff;}.cls-7{fill:#263238;}.cls-8{fill:#ffbe9d;}.cls-9{fill:#eb996e;}.cls-10{fill:#2f57a4;}.cls-11{fill:#455a64;}.cls-12{fill:#a5695f;}.cls-13{fill:#83534b;}</style></defs><g id="Background_Complete" data-name="Background Complete"><path class="cls-1" d="M65.89,269.52a35.32,35.32,0,0,1-.26-6,35.32,35.32,0,0,1,.26-6,35.32,35.32,0,0,1,.26,6A35.32,35.32,0,0,1,65.89,269.52Z"/><path class="cls-1" d="M65.89,293.52a35.32,35.32,0,0,1-.26-6,35.32,35.32,0,0,1,.26-6,35.32,35.32,0,0,1,.26,6A35.32,35.32,0,0,1,65.89,293.52Z"/><path class="cls-1" d="M65.89,317.52a69.36,69.36,0,0,1,0-12,69.36,69.36,0,0,1,0,12Z"/><path class="cls-1" d="M65.89,341.52a69.36,69.36,0,0,1,0-12,69.36,69.36,0,0,1,0,12Z"/><path class="cls-1" d="M65.89,365.52a69.36,69.36,0,0,1,0-12,69.36,69.36,0,0,1,0,12Z"/><path class="cls-1" d="M75.55,379.87a35.32,35.32,0,0,1-6,.26c-1.39,0-2.66,0-3.66-.06h0a.19.19,0,0,1-.19-.2,9.12,9.12,0,0,1,.2-2.35,9.35,9.35,0,0,1,.21,2.35l-.21-.21c1,0,2.27-.06,3.66-.06A33.5,33.5,0,0,1,75.55,379.87Z"/><path class="cls-1" d="M99.55,379.87a35.32,35.32,0,0,1-6,.26,35.22,35.22,0,0,1-6-.26,33.41,33.41,0,0,1,6-.27A33.5,33.5,0,0,1,99.55,379.87Z"/><path class="cls-1" d="M123.55,379.87a35.32,35.32,0,0,1-6,.26,35.22,35.22,0,0,1-6-.26,33.41,33.41,0,0,1,6-.27A33.5,33.5,0,0,1,123.55,379.87Z"/><path class="cls-1" d="M143,379.87a13.62,13.62,0,0,1-3.71.26,13.58,13.58,0,0,1-3.7-.26,12.89,12.89,0,0,1,3.7-.27A12.94,12.94,0,0,1,143,379.87Z"/><path class="cls-1" d="M304.61,35.88a17.44,17.44,0,0,1,6,0,17.44,17.44,0,0,1-6,0Z"/><path class="cls-1" d="M283.92,35.88a51.63,51.63,0,0,1,10.35,0,51.63,51.63,0,0,1-10.35,0Z"/><path class="cls-1" d="M263.23,35.88a51.63,51.63,0,0,1,10.35,0,51.63,51.63,0,0,1-10.35,0Z"/><path class="cls-1" d="M246.88,41.88a35.22,35.22,0,0,1-.26-6c.52-.52.15-.14.27-.26h2.33l1.91.06a6.3,6.3,0,0,1,1.75.18,6,6,0,0,1-1.75.19l-1.91,0-1.13,0h-1.2c.11-.11-.27.26.25-.26A34,34,0,0,1,246.88,41.88Z"/><path class="cls-1" d="M246.88,65.14a33.09,33.09,0,0,1-.26-5.81,33.16,33.16,0,0,1,.26-5.82,32,32,0,0,1,.26,5.82A32,32,0,0,1,246.88,65.14Z"/><path class="cls-1" d="M246.88,82.77a9,9,0,0,1-.26-3,9,9,0,0,1,.26-3,8.68,8.68,0,0,1,.26,3A8.68,8.68,0,0,1,246.88,82.77Z"/><path class="cls-1" d="M551.3,122.8a69.36,69.36,0,0,1-12,0,69.36,69.36,0,0,1,12,0Z"/><path class="cls-1" d="M575.3,122.8a69.36,69.36,0,0,1-12,0,69.36,69.36,0,0,1,12,0Z"/><path class="cls-1" d="M599.3,122.8a69.36,69.36,0,0,1-12,0,69.36,69.36,0,0,1,12,0Z"/><path class="cls-1" d="M623.3,122.8a69.36,69.36,0,0,1-12,0,69.36,69.36,0,0,1,12,0Z"/><path class="cls-1" d="M647.3,122.8a69.36,69.36,0,0,1-12,0,69.36,69.36,0,0,1,12,0Z"/><path class="cls-1" d="M670.84,123.26s-.07-.16-.1-.46l.1.1c-.91.09-3,.16-5.54.16a35.32,35.32,0,0,1-6-.26,35.32,35.32,0,0,1,6-.26c2.5,0,4.63.07,5.54.16h0a.1.1,0,0,1,.08.1C670.91,123.1,670.87,123.26,670.84,123.26Z"/><path class="cls-1" d="M670.84,147.26a34,34,0,0,1-.26-6,34.19,34.19,0,0,1,.26-6,35.39,35.39,0,0,1,.26,6A35.15,35.15,0,0,1,670.84,147.26Z"/><path class="cls-1" d="M670.84,171.26a34,34,0,0,1-.26-6,34.19,34.19,0,0,1,.26-6,35.39,35.39,0,0,1,.26,6A35.15,35.15,0,0,1,670.84,171.26Z"/><path class="cls-1" d="M670.84,195.26a34,34,0,0,1-.26-6,34.19,34.19,0,0,1,.26-6,35.39,35.39,0,0,1,.26,6A35.15,35.15,0,0,1,670.84,195.26Z"/><path class="cls-1" d="M670.84,219.26a34,34,0,0,1-.26-6,34.19,34.19,0,0,1,.26-6,35.39,35.39,0,0,1,.26,6A35.15,35.15,0,0,1,670.84,219.26Z"/><path class="cls-1" d="M670.84,243.26a34,34,0,0,1-.26-6,34.19,34.19,0,0,1,.26-6,35.39,35.39,0,0,1,.26,6A35.15,35.15,0,0,1,670.84,243.26Z"/><path class="cls-1" d="M659.36,255.79a35.32,35.32,0,0,1,6-.26c2.45,0,4.55.06,5.48.15l-.11.11c0-.34.07-.53.11-.53s.07.19.1.53a.08.08,0,0,1-.08.1h0c-.93.09-3,.15-5.48.15A35.32,35.32,0,0,1,659.36,255.79Z"/><path class="cls-1" d="M635.36,255.79a69.36,69.36,0,0,1,12,0,69.36,69.36,0,0,1-12,0Z"/><path class="cls-2" d="M610.07,96.6,612.51,136a2.66,2.66,0,0,0,2.65,2.5h71a2.66,2.66,0,0,0,2.66-2.67v-30.7a2.66,2.66,0,0,0-2.68-2.66l-43.65.28a2.66,2.66,0,0,1-1.89-.77L633,94.54a2.66,2.66,0,0,0-1.87-.77h-18.4A2.67,2.67,0,0,0,610.07,96.6Z"/><rect class="cls-3" x="611.25" y="97.84" width="77.56" height="46.35"/><path class="cls-2" d="M605.08,102,611,150.32a1.72,1.72,0,0,0,1.7,1.51h75.59a1.72,1.72,0,0,0,1.71-1.58l3.8-48.33a1.71,1.71,0,0,0-1.7-1.85H606.78A1.71,1.71,0,0,0,605.08,102Z"/><path class="cls-2" d="M51.27,63.41a18.62,18.62,0,0,0,11.1-17.22c0-10.29-7.75-18.66-17.39-18.71S27.49,35.74,27.44,46A18.6,18.6,0,0,0,38.57,63.41c-26.87,4-25.65,33.26-25.65,33.26L76.46,97S77.91,67.44,51.27,63.41Z"/><path class="cls-3" d="M579.91,39.2a13.83,13.83,0,0,0,8.24-12.79c0-7.64-5.75-13.85-12.91-13.88s-13,6.12-13,13.76a13.81,13.81,0,0,0,8.26,12.91c-20,3-19,24.68-19,24.68l47.17.22S599.68,42.18,579.91,39.2Z"/><path class="cls-3" d="M143.27,31.76a8.8,8.8,0,0,0,5.24-8.13A8.26,8.26,0,1,0,132,23.55a8.78,8.78,0,0,0,5.25,8.21c-12.68,1.91-12.1,15.69-12.1,15.69l30,.14S155.84,33.65,143.27,31.76Z"/><path class="cls-3" d="M403.38,415.42a11.32,11.32,0,0,0,6.75-10.48c0-6.26-4.71-11.36-10.58-11.39s-10.65,5-10.68,11.29a11.33,11.33,0,0,0,6.78,10.58C379.29,417.88,380,435.66,380,435.66l38.68.18S419.59,417.87,403.38,415.42Z"/><rect class="cls-3" x="584.78" y="344.23" width="93.81" height="90.76"/><polygon class="cls-1" points="592.05 427.23 618 380.52 639.23 410.38 652.13 394.52 671.32 427.23 592.05 427.23"/><path class="cls-1" d="M648.27,371.44a6.75,6.75,0,1,1-6.75-6.75A6.75,6.75,0,0,1,648.27,371.44Z"/><g class="cls-4"><path class="cls-1" d="M671.32,427.48a1.61,1.61,0,0,1,0-.37c0-.27,0-.62,0-1.06,0-1,0-2.33,0-4.08,0-3.6-.06-8.81-.1-15.42,0-13.26-.12-32.13-.2-54.8l.39.38-79.26.07c-.11.09.84-.84.44-.44V362c0,3.4,0,6.77,0,10.11q0,10,0,19.56c0,12.71,0,24.72,0,35.78l-.39-.39,57.31.2,16.17.1,4.29.05,1.11,0,.39,0a1.22,1.22,0,0,1-.35,0l-1.07,0-4.21.05-16.08.1-57.56.2h-.39v-.39c0-11.06,0-23.07,0-35.78q0-9.54,0-19.56V362c0-1.7,0-3.41,0-5.12v-5.15l.46-.46,79.26.06h.38v.38c-.08,22.77-.15,41.73-.2,55.05,0,6.57-.07,11.74-.1,15.32,0,1.73,0,3.07,0,4,0,.43,0,.76,0,1A1.77,1.77,0,0,1,671.32,427.48Z"/></g><rect class="cls-2" y="279.41" width="39.92" height="38.62"/><polygon class="cls-1" points="3.1 314.72 14.14 294.85 23.17 307.55 28.66 300.81 36.83 314.72 3.1 314.72"/><path class="cls-1" d="M27,291a2.88,2.88,0,1,1-2.87-2.87A2.88,2.88,0,0,1,27,291Z"/><g class="cls-4"><path class="cls-1" d="M36.83,314.83s0-.06,0-.16,0-.26,0-.45c0-.41,0-1,0-1.74,0-1.53,0-3.74,0-6.56,0-5.64,0-13.67-.09-23.32l.17.17-33.73,0,.19-.18h0v2.17c0,.73,0,1.46,0,2.18V299.6c0,5.41,0,10.53,0,15.23l-.16-.17,24.38.09,6.88,0,1.83,0h0l-1.79,0-6.84,0L3.1,315H2.93v-.17c0-4.7,0-9.82,0-15.23v-17h0l.2-.2,33.73,0H37v.16c0,9.69-.06,17.76-.08,23.43,0,2.79,0,5,0,6.52,0,.73,0,1.3,0,1.71v.43C36.83,314.79,36.83,314.83,36.83,314.83Z"/></g><path class="cls-3" d="M20,350.06l2.24,36.44a2.46,2.46,0,0,0,2.46,2.31h65.6a2.46,2.46,0,0,0,2.46-2.46V358a2.46,2.46,0,0,0-2.47-2.46l-40.35.26a2.46,2.46,0,0,1-1.74-.71l-7-6.9a2.44,2.44,0,0,0-1.73-.71h-17A2.45,2.45,0,0,0,20,350.06Z"/><rect class="cls-5" x="21.06" y="351.2" width="71.68" height="42.83"/><path class="cls-3" d="M15.35,355.05l5.48,44.66a1.57,1.57,0,0,0,1.57,1.39H92.25a1.58,1.58,0,0,0,1.58-1.46L97.35,355a1.59,1.59,0,0,0-1.58-1.71H16.93A1.59,1.59,0,0,0,15.35,355.05Z"/><path class="cls-2" d="M362.39,227.67a8.86,8.86,0,0,1-.22-2,15.82,15.82,0,0,0-.27-2.35,22.93,22.93,0,0,0-.61-3.17A29.79,29.79,0,0,0,358,212a30.59,30.59,0,0,0-7.58-8.73,30.2,30.2,0,0,0-28.47-4.89,28.33,28.33,0,0,0-7.7,3.93,27.7,27.7,0,0,0-6.5,6.24,30,30,0,0,0-.86,35.52,33.92,33.92,0,0,0,2.85,3.56,34.68,34.68,0,0,0,3.34,3,28.34,28.34,0,0,0,7.5,4.3,30.43,30.43,0,0,0,36.67-11.86,29.59,29.59,0,0,0,3.68-8,23.83,23.83,0,0,0,.78-3.14,16,16,0,0,0,.37-2.34,8.44,8.44,0,0,1,.32-2,8.08,8.08,0,0,1,0,2,13.36,13.36,0,0,1-.22,2.39,20,20,0,0,1-.63,3.23,29,29,0,0,1-3.51,8.31,31.39,31.39,0,0,1-21.46,14.51A31.76,31.76,0,0,1,320,256.4a30.07,30.07,0,0,1-7.93-4.48,34.63,34.63,0,0,1-3.53-3.14,35.58,35.58,0,0,1-3-3.74,31.51,31.51,0,0,1,.91-37.49,36.68,36.68,0,0,1,3.21-3.59,35.32,35.32,0,0,1,3.68-3,29.69,29.69,0,0,1,8.13-4.08,31.64,31.64,0,0,1,16.65-.89,31.09,31.09,0,0,1,13.07,6.33,30.76,30.76,0,0,1,7.66,9.2,29,29,0,0,1,3.11,8.47,22.56,22.56,0,0,1,.48,3.26,13.86,13.86,0,0,1,.1,2.4A8.45,8.45,0,0,1,362.39,227.67Z"/><path class="cls-2" d="M356.21,208.37c.07.1-.49.58-1.56,1.38l-2,1.43c-.4.27-.81.57-1.27.86l-1.52.79a34.87,34.87,0,0,1-18.16,4.58l-2.75-.13-2.63-.41c-.44-.07-.87-.13-1.29-.21l-1.23-.33c-.81-.23-1.61-.42-2.37-.66a40.18,40.18,0,0,1-7.71-3.55c-4.14-2.5-6.15-4.78-6-4.93s2.41,1.72,6.58,3.88a46.8,46.8,0,0,0,7.59,3.11c.74.21,1.51.37,2.29.57l1.18.3,1.23.18,2.52.37,2.62.11a37.65,37.65,0,0,0,17.58-4l1.54-.67c.47-.24.9-.51,1.31-.73l2.1-1.16C355.46,208.58,356.14,208.27,356.21,208.37Z"/><path class="cls-2" d="M306.79,245.93c-.06-.1.49-.58,1.57-1.38l2-1.43c.39-.27.8-.58,1.26-.86l1.52-.8a34.83,34.83,0,0,1,18.16-4.57L334,237l2.64.41c.43.08.86.13,1.28.22l1.23.33c.81.22,1.62.41,2.38.66a39.2,39.2,0,0,1,7.7,3.55c4.14,2.5,6.16,4.78,6,4.92s-2.42-1.71-6.59-3.88a46.18,46.18,0,0,0-7.58-3.1c-.74-.21-1.51-.38-2.29-.58l-1.19-.29-1.22-.19-2.52-.37-2.62-.1a37.48,37.48,0,0,0-17.59,3.95l-1.54.66c-.47.25-.89.51-1.3.74l-2.11,1.16C307.55,245.72,306.86,246,306.79,245.93Z"/><path class="cls-2" d="M362.37,228.39c0,.46-13.84.51-30.9.09s-30.87-1.13-30.86-1.59,13.84-.52,30.9-.1S362.38,227.92,362.37,228.39Z"/><path class="cls-2" d="M330.07,257.77c-.47,0-.52-13.84-.1-30.89S331.1,196,331.57,196s.51,13.84.1,30.89S330.54,257.78,330.07,257.77Z"/><path class="cls-2" d="M330.07,257.72c-.12.18-3.52-2.12-7.45-7.35a41.54,41.54,0,0,1-5.52-10,37.41,37.41,0,0,1-2.39-13.84,35.49,35.49,0,0,1,3.12-13.7,42.68,42.68,0,0,1,6-9.71c4.16-5,7.59-7.26,7.71-7.08s-2.94,2.72-6.76,7.82a45.76,45.76,0,0,0-5.54,9.59,35.44,35.44,0,0,0-2.86,13.11,37.67,37.67,0,0,0,2.16,13.27,44.44,44.44,0,0,0,5,9.87C327.18,254.94,330.24,257.54,330.07,257.72Z"/><path class="cls-2" d="M332.26,196c.12-.18,3.52,2.12,7.45,7.35a41.88,41.88,0,0,1,5.52,10,37.41,37.41,0,0,1,2.39,13.84A35.49,35.49,0,0,1,344.5,241a43.12,43.12,0,0,1-6,9.72c-4.16,5-7.59,7.25-7.71,7.07s2.94-2.72,6.76-7.81a46.12,46.12,0,0,0,5.54-9.6,35.59,35.59,0,0,0,2.86-13.11A37.67,37.67,0,0,0,343.76,214a45.31,45.31,0,0,0-5-9.87C335.15,198.82,332.09,196.22,332.26,196Z"/></g><g id="Character_4" data-name="Character 4"><rect class="cls-6" x="404.13" y="219.7" width="227.56" height="169"/><path class="cls-7" d="M631.68,388.71c0-1.76-.08-66.7-.21-169l.21.22-227.53,0h0l.26-.26c0,60.71,0,118.23,0,169l-.23-.24,227.55.24-227.55.23h-.24v-.23c0-50.78,0-108.3,0-169v-.26h.28l227.53.05h.22v.21C631.77,322,631.69,387,631.68,388.71Z"/><path class="cls-1" d="M631.68,244.75c0,.14-50.83.26-113.52.26s-113.53-.12-113.53-.26,50.82-.26,113.53-.26S631.68,244.6,631.68,244.75Z"/><path class="cls-1" d="M418,232.12a3.43,3.43,0,1,1-3.43-3.42A3.43,3.43,0,0,1,418,232.12Z"/><path class="cls-1" d="M428.27,232.12a3.43,3.43,0,1,1-3.42-3.42A3.42,3.42,0,0,1,428.27,232.12Z"/><path class="cls-1" d="M438.6,232.12a3.43,3.43,0,1,1-3.43-3.42A3.43,3.43,0,0,1,438.6,232.12Z"/><path class="cls-1" d="M526.88,207.1a6,6,0,0,0-6-3.33,8.14,8.14,0,0,0-10-.31,7.24,7.24,0,0,0-11.2,5.37,6,6,0,0,0-5.78,9.91,5.81,5.81,0,0,0,1.88,11.41l29.71-16.32A5.94,5.94,0,0,0,526.88,207.1Z"/><path class="cls-8" d="M494.87,230.93a24.65,24.65,0,0,1,25.67-21.43l1.28.06c13.71,1.49,20.1,14,18.24,27.63l-4.27,45.69-.23,2.21-32,4.79.62-11.67S491,275.5,491.52,262.27C491.76,255.89,493.32,242.78,494.87,230.93Z"/><path class="cls-9" d="M504,278.19A32.16,32.16,0,0,0,521.6,274s-4.54,9.31-17.67,7.46Z"/><path class="cls-7" d="M497.74,243.78a1.88,1.88,0,0,0,1.72,2,1.8,1.8,0,0,0,2-1.6,1.89,1.89,0,0,0-1.72-2A1.8,1.8,0,0,0,497.74,243.78Z"/><path class="cls-7" d="M497.39,237.53c.22.26,1.7-.73,3.73-.62s3.47,1.2,3.7,1-.1-.56-.72-1.07a5.26,5.26,0,0,0-3-1.07,5,5,0,0,0-3,.8C497.51,237,497.28,237.42,497.39,237.53Z"/><path class="cls-7" d="M515.66,245a1.89,1.89,0,0,0,1.72,2,1.82,1.82,0,0,0,2-1.61,1.89,1.89,0,0,0-1.73-2A1.8,1.8,0,0,0,515.66,245Z"/><path class="cls-7" d="M517.33,238.9c.23.26,1.71-.73,3.74-.62s3.47,1.2,3.7,1-.1-.56-.73-1.07a5.2,5.2,0,0,0-2.95-1.07,5,5,0,0,0-3,.8C517.46,238.35,517.22,238.79,517.33,238.9Z"/><path class="cls-7" d="M509.21,253.6a12.78,12.78,0,0,0-3.26-.76c-.52-.08-1-.21-1.08-.57a2.72,2.72,0,0,1,.43-1.52c.55-1.23,1.12-2.52,1.73-3.87,2.41-5.51,4.18-10.06,4-10.16s-2.35,4.3-4.76,9.82l-1.67,3.9a3.07,3.07,0,0,0-.37,2,1.28,1.28,0,0,0,.82.8,3.49,3.49,0,0,0,.87.17A13.67,13.67,0,0,0,509.21,253.6Z"/><path class="cls-7" d="M515.12,255.3c-.33,0-.44,2.17-2.41,3.64s-4.3,1.11-4.33,1.42c0,.14.5.45,1.5.53a5.48,5.48,0,0,0,3.6-1.06,4.78,4.78,0,0,0,1.88-3.06C515.49,255.85,515.27,255.3,515.12,255.3Z"/><path class="cls-1" d="M517.2,230.92c.18.56,2.22.4,4.59.8s4.26,1.16,4.6.68c.15-.23-.16-.77-.91-1.34a7.58,7.58,0,0,0-3.37-1.37,7.66,7.66,0,0,0-3.62.24C517.59,230.24,517.13,230.65,517.2,230.92Z"/><path class="cls-1" d="M498.43,231.69c.33.48,1.75.07,3.44.13s3.09.47,3.44,0c.16-.23,0-.7-.64-1.17a5,5,0,0,0-5.55-.1C498.5,231,498.28,231.46,498.43,231.69Z"/><path class="cls-1" d="M496.44,224.93s3.9-8.11,8-9.84c4.94-2.1,6.76,3.31,11.43,2.25s9.39-3.07,13.92.72c5,4.15,2.41,6.77,2.43,12.65.11,23.84,4.12,30.77,5.91,19.64.2-1.22,3.65-2,4.41-7.19,1-6.69,1.66-14.84.39-19.68-1.06-4.08-3.22-7-7.18-10.24-6.24-5.16-15.15-5.71-21.24-5.4S496.4,214.54,496.44,224.93Z"/><path class="cls-8" d="M537.3,250a3.59,3.59,0,0,1,4-3.27c2.46.36,5.13,1.89,4.71,7-.73,9-9.64,6.42-9.63,6.16S537,253.72,537.3,250Z"/><path class="cls-9" d="M538.66,256.58s.14.13.4.27a1.56,1.56,0,0,0,1.17.12c1-.27,1.91-1.72,2.09-3.34a5.19,5.19,0,0,0-.26-2.29A1.83,1.83,0,0,0,541,250a.79.79,0,0,0-1,.36c-.15.24-.1.42-.15.43s-.18-.16-.08-.53a.93.93,0,0,1,.4-.53,1.16,1.16,0,0,1,.89-.16,2.22,2.22,0,0,1,1.53,1.53,5.36,5.36,0,0,1,.33,2.56c-.2,1.81-1.27,3.44-2.61,3.71a1.67,1.67,0,0,1-1.41-.36C538.65,256.8,538.62,256.6,538.66,256.58Z"/><path class="cls-1" d="M538,232.43a8.6,8.6,0,0,1-3.91,1.58,3,3,0,0,1-3.17-2.24c-.08-.63.11-1.35-.28-1.86s-1.38-.47-2.14-.43a5.77,5.77,0,0,1-5.78-4.43c-.72,1-2.28.85-3.27.15a12.88,12.88,0,0,1-2.32-2.76,3.73,3.73,0,0,0-3-1.7,9.19,9.19,0,0,1-2,.33c-1.18-.16-1.69-1.58-1.81-2.77s-.19-2.57-1.16-3.26-2.13-.35-3.23-.25-2.5-.22-2.72-1.3a2.18,2.18,0,0,1,.48-1.62,5.88,5.88,0,0,1,7-1.87,7.94,7.94,0,0,1,14.65-.81,8.06,8.06,0,0,1,12.72,3.57,5.85,5.85,0,0,1,6.16,8.82,5.53,5.53,0,0,1,2.83,4.56c-.06,1.87-2,3.64-3.76,3.06a3.24,3.24,0,0,1-5.75,3"/><path class="cls-6" d="M544,229.22a2.21,2.21,0,0,1-.65,1.7,2.9,2.9,0,0,1-1.87,1,3.13,3.13,0,0,1-2.54-.87l.39,0a9,9,0,0,1-1.92,2.16,5.25,5.25,0,0,1-1.69,1,4.07,4.07,0,0,1-4.37-1.55,5.21,5.21,0,0,1-.63-1.92,1.87,1.87,0,0,1,0-.73s.11.24.24.69a6,6,0,0,0,.74,1.76,3.7,3.7,0,0,0,5.43.4,9.07,9.07,0,0,0,1.82-2l.18-.26.21.22a2.72,2.72,0,0,0,2.14.8,2.61,2.61,0,0,0,1.68-.78A4.4,4.4,0,0,0,544,229.22Z"/><path class="cls-6" d="M527.9,207.73s-.24.05-.65.2a3.19,3.19,0,0,0-1.47,1.13l-.11.16-.12-.17a11.29,11.29,0,0,0-4.19-3.75,8.75,8.75,0,0,0-3.52-1,7.34,7.34,0,0,0-3.88.9,7.44,7.44,0,0,0-2.39,2,6.14,6.14,0,0,0-1.13,2.67l0,.29-.27-.09a5.07,5.07,0,0,0-3.78.27,5,5,0,0,0-2.16,2.1,6.92,6.92,0,0,0-.7,2.65,2,2,0,0,1-.07-.75,5.05,5.05,0,0,1,.51-2,5.12,5.12,0,0,1,2.24-2.33,5.45,5.45,0,0,1,4.11-.37l-.31.2a6.46,6.46,0,0,1,1.19-2.91,7.91,7.91,0,0,1,2.55-2.21,7.77,7.77,0,0,1,4.16-.94,9,9,0,0,1,3.7,1,11.08,11.08,0,0,1,4.22,4h-.23a3.1,3.1,0,0,1,1.64-1.1A1.4,1.4,0,0,1,527.9,207.73Z"/><path class="cls-9" d="M518.16,256.77c-.14,0-.15-1-.88-1.79s-1.64-1-1.63-1.15.26-.13.67,0a2.67,2.67,0,0,1,1.36.86,2.59,2.59,0,0,1,.62,1.47C518.33,256.53,518.23,256.78,518.16,256.77Z"/><path class="cls-9" d="M519.09,254.31c-.13.07-.44-.26-.91-.49s-.92-.32-.93-.47.55-.32,1.17,0S519.22,254.26,519.09,254.31Z"/><path class="cls-9" d="M528.83,276s.13-.06.25-.22a.78.78,0,0,0,.06-.8c-.13-.35-.52-.67-.77-1.27a1.16,1.16,0,0,1,.06-1.05,6.49,6.49,0,0,1,.62-.74c.73-.87-1.28-1.58-1-2.72a1.37,1.37,0,0,1,.53-.94c.21-.15.36-.16.37-.14s-.5.33-.54,1.11a1.42,1.42,0,0,0,.62,1.09,2.41,2.41,0,0,1,.58.78,1.09,1.09,0,0,1-.18,1.13c-.22.29-.47.48-.59.69a.67.67,0,0,0,0,.63c.15.45.54.84.67,1.3a1,1,0,0,1-.27,1.07C529,276.08,528.82,276,528.83,276Z"/><path class="cls-9" d="M531.65,275.7s0-.14-.11-.34a3,3,0,0,0-.46-.78,3.17,3.17,0,0,1-.37-.59,1.32,1.32,0,0,1-.09-.89c.18-.65.73-1,1-1.49s.07-.85-.29-1.26a2.47,2.47,0,0,1-.46-.68,1.54,1.54,0,0,1-.11-.74c.12-.94.76-1.19.76-1.12s-.39.39-.39,1.13a1.51,1.51,0,0,0,.56,1.1,2.36,2.36,0,0,1,.52.76,1.24,1.24,0,0,1-.14,1.08c-.38.59-.87.93-1,1.35a1.56,1.56,0,0,0,.31,1.16,2.15,2.15,0,0,1,.35.94C531.75,275.58,531.67,275.7,531.65,275.7Z"/><path class="cls-1" d="M553.88,348.68l12,11.56L562,338.13l24.34-7.7s6.47,30.34,7.59,37.52c2,12.87-.46,31.18-12.46,32.47-13,1.39-22.78-11.41-29-19.82-4.8-6.46-12.54-17.75-12.54-17.75l14-14.17"/><path class="cls-1" d="M461.13,329c-3.91,12.31-9.37,14.16-11.53,49.4-.42,6.88,1.06,16,7.58,18.26,7.24,2.46,18.32-2,21.8-8V364.44Z"/><path class="cls-7" d="M477.26,380.48a30.76,30.76,0,0,0-5.7-9.82,5.07,5.07,0,0,1,1.26,1.13,19.37,19.37,0,0,1,2.42,3.3,19.12,19.12,0,0,1,1.66,3.74A4.69,4.69,0,0,1,477.26,380.48Z"/><path class="cls-1" d="M455.24,343.2c.21-.73,12.22-33.44,16.06-40.6,4.58-8.56,14.22-12.35,20.21-12.72s70,4.73,70,4.73,17.93,4.51,21.56,20.74c4.56,20.36,8.22,40.43,8.22,40.43l-32.1,6.93-3.78-9.51-60.31,13.46L480.4,344.87Z"/><polygon class="cls-1" points="565.77 296.48 540.75 285.45 537.95 274.66 508.75 288.47 502.63 281.71 500.07 289.33 493.67 291.42 481.08 316.24 478.76 373.77 478.98 388.71 565.28 389.28 564.58 364.82 565.77 296.48"/><path class="cls-1" d="M538,274.66s-3.27.95-11.65,5.42c-8.22,4.38-17.55,8.39-17.55,8.39l.71,13.18,31.07-15.6"/><polyline class="cls-1" points="502.63 281.71 508.75 288.47 505.48 302.6 500.03 289.83"/><g class="cls-4"><path d="M508.63,289.93c-.27.2-2,16.31-2,16.31l31.14-18.82-28.35,14.23Z"/></g><path class="cls-10" d="M508.92,388.91s-.64-23.89-.07-38.86c.46-12.32-1.48-43.76-1.48-43.76l-4.06-.65a459.85,459.85,0,0,0-10.42,68l-1.14,15.15"/><path class="cls-7" d="M558.37,325.53a7.5,7.5,0,0,1,.29,1.27c.16.9.38,2.08.63,3.5.52,3,1.22,7.08,2,11.55s1.45,8.6,1.89,11.57c.23,1.48.4,2.69.5,3.52a7.64,7.64,0,0,1,.13,1.3,7.83,7.83,0,0,1-.29-1.28c-.17-.9-.38-2.07-.64-3.49-.53-3-1.24-7.08-2-11.55s-1.42-8.61-1.86-11.57c-.2-1.43-.37-2.61-.5-3.52A8.22,8.22,0,0,1,558.37,325.53Z"/><path class="cls-7" d="M567.63,298.39c0,.06-.84.75-2.11,2.05a25.62,25.62,0,0,0-6.6,12.28c-.39,1.77-.47,2.9-.55,2.89a2.9,2.9,0,0,1,0-.8,16.65,16.65,0,0,1,.26-2.15,23,23,0,0,1,6.69-12.44,15.91,15.91,0,0,1,1.65-1.4C567.37,298.52,567.61,298.36,567.63,298.39Z"/><polygon class="cls-10" points="508.85 294.77 506.06 293.69 503.43 298.21 502.95 305.64 506.67 306.24 509.46 301.65 508.85 294.77"/><path class="cls-7" d="M478.76,316.87c.12,0,.22,16.08.22,35.92s-.1,35.92-.22,35.92-.21-16.08-.21-35.92S478.64,316.87,478.76,316.87Z"/><path class="cls-7" d="M509,288.35c.06,0-.6,1-1.58,2.69a74.11,74.11,0,0,0-3.54,6.62c-.1.22-.2.44-.3.64l-.19.42-.2-.42a52.25,52.25,0,0,1-2.6-6.58c-.27-.86-.46-1.56-.58-2a2.57,2.57,0,0,1-.14-.77c.06,0,.39,1,1,2.71s1.52,4,2.71,6.5h-.39c.1-.2.2-.42.3-.64a53.22,53.22,0,0,1,3.67-6.6c.52-.81,1-1.45,1.3-1.88A3.25,3.25,0,0,1,509,288.35Z"/><path class="cls-7" d="M540.75,285.45a2.46,2.46,0,0,1-.42.26l-1.27.66-4.64,2.4c-3.91,2-9.28,4.94-15.22,8.12-3.62,1.92-7.05,3.71-10,5.2l-.28.14v-.3c0-3.87-.07-7.13-.09-9.49v-2.67a5.41,5.41,0,0,1,.05-.95,6.49,6.49,0,0,1,.07.95c0,.67.06,1.56.1,2.67.07,2.35.15,5.61.25,9.48l-.27-.17c3-1.52,6.38-3.32,10-5.25,5.94-3.17,11.33-6,15.28-8,2-1,3.59-1.76,4.71-2.28l1.3-.59A2.9,2.9,0,0,1,540.75,285.45Z"/><path class="cls-7" d="M482.52,295.61c.06,0-.43.87-1,2.28a25.29,25.29,0,0,0-1.79,5.73,25.84,25.84,0,0,0-.37,6c.09,1.54.25,2.49.18,2.5s-.1-.22-.2-.65a15.09,15.09,0,0,1-.28-1.83,21.74,21.74,0,0,1,2.18-11.87,13.74,13.74,0,0,1,.92-1.61A2.47,2.47,0,0,1,482.52,295.61Z"/><path class="cls-7" d="M506,306.72c-.07.1-.77-.23-1.58-.74s-1.41-1-1.35-1.11.77.23,1.58.74S506.05,306.62,506,306.72Z"/><path class="cls-7" d="M507.32,304.9a40.7,40.7,0,0,1-3.38-7.69,19.94,19.94,0,0,1,1.89,3.76A20.57,20.57,0,0,1,507.32,304.9Z"/><g class="cls-4"><path d="M524.92,370.69a2.84,2.84,0,0,0-1-1.82c-1-.67-2.32.21-3.38.84-2.78,1.66-6.22,1.6-9.46,1.46A239,239,0,0,1,482,368.4c-4.72-.79-9.47-1.82-13.69-4.07s-7.89-5.89-9.25-10.48l-2.25-1.23c1.74,3.73,1.56,14.29,2.19,18.35s2.43,7,6.35,8.24a14,14,0,0,0,4.92.35c16.06-.8,32.26-.08,48.32-.87,2.3-.12,5-.43,6.19-2.36C525.78,374.69,525.37,372.57,524.92,370.69Z"/></g><path class="cls-7" d="M585.27,379.86a.58.58,0,0,1-.11-.19c-.08-.14-.17-.33-.3-.56s-.28-.57-.46-.93l-.79-1.18a42.85,42.85,0,0,0-6.24-6.78c-2.9-2.67-6.58-5.67-10.73-9.11-2.06-1.73-4.25-3.55-6.45-5.57a61.19,61.19,0,0,1-6.48-6.73H554L541.52,361.9l-1.67,1.75,0-.27c4.73,6.91,9,13.6,13.55,19.21a92.63,92.63,0,0,0,6.8,7.6,56.65,56.65,0,0,0,6.61,5.89c4.33,3.27,8.67,4.67,11.69,4.59.37,0,.73,0,1.06,0l.93-.1.8-.09.65-.14.88-.2.31,0-.3.1-.87.23-.65.17-.8.1-.94.12c-.33,0-.69,0-1.07,0-3.06.13-7.48-1.26-11.86-4.52a56.23,56.23,0,0,1-6.69-5.88,89.92,89.92,0,0,1-6.86-7.61c-4.56-5.61-8.87-12.31-13.6-19.21l-.1-.14.12-.13,1.68-1.75,12.52-13.07.16-.17.15.19a62.15,62.15,0,0,0,6.41,6.7c2.18,2,4.37,3.85,6.42,5.59,4.12,3.45,7.79,6.49,10.68,9.19a40.77,40.77,0,0,1,6.17,6.89c.29.45.55.85.77,1.21s.32.68.44.95l.26.58A1.57,1.57,0,0,1,585.27,379.86Z"/><g class="cls-4"><path d="M542.78,367.41l-1.36-.41c1.18,6.75,4.88,16.3,8.23,22.28h9.75C555.71,384.66,542.78,367.41,542.78,367.41Z"/></g><path class="cls-8" d="M552,350.58,532.2,329l-11.84-2.24-13.44,1.7a2.89,2.89,0,0,0,1.71,3.26l-5,.29a2.82,2.82,0,0,0,1.85,3.68l-3.55.63a5.1,5.1,0,0,0,5.53,2.92,77.06,77.06,0,0,1,10.5-.71l7,3.83L514.59,342l-7.52,1.41s-1,1.93.71,2.38,8.22,0,8.22,0l9.39,3s3.67,5.21,4.94,6.63,7.38,4,7.38,4l3,2.69Z"/><path class="cls-9" d="M503.66,332a19.85,19.85,0,0,0,3.86-.15c2.37-.18,5.65-.49,9.25-.88l3.47-.39h-.14c2.68.75,5,1.38,6.68,1.8a11.8,11.8,0,0,0,2.7.54,11.51,11.51,0,0,0-2.57-1c-1.63-.54-3.93-1.26-6.61-2.06l-.07,0h-.07l-3.47.36c-3.61.39-6.87.79-9.23,1.11A19,19,0,0,0,503.66,332Z"/><path class="cls-9" d="M502.81,336.18a16.7,16.7,0,0,0,3.49-.24c2.15-.24,5.11-.63,8.36-1.11l3.25-.49-.19,0c4.66,1.82,8.1,3,8.16,2.87s-3.26-1.65-7.89-3.56l-.09,0h-.1l-3.25.46c-3.26.48-6.2.95-8.33,1.33A15.79,15.79,0,0,0,502.81,336.18Z"/><path class="cls-7" d="M452.54,332.82l10,37.82a4.7,4.7,0,0,0,4.64,3.5l51.85-1a4.71,4.71,0,0,0,4.51-5.68l-7.64-36.22a4.7,4.7,0,0,0-4.6-3.73H456.64A4.24,4.24,0,0,0,452.54,332.82Z"/><path class="cls-6" d="M486.42,342.74a2.54,2.54,0,1,1-3.65,1A2.69,2.69,0,0,1,486.42,342.74Z"/><path class="cls-8" d="M448.78,341.1a3.38,3.38,0,0,1,0-4.16,5.14,5.14,0,0,1,3.95-1.87,11.54,11.54,0,0,1,4.39.91,28.59,28.59,0,0,1,5,2.49,4.78,4.78,0,0,1,2.48,2.9c.22,1.29-1.19,2.77-2.33,2.12a5.52,5.52,0,0,1,3.22,3.83c.23,1.64-.64,2.52-2.23,3a2.47,2.47,0,0,1,1.43,3.16,2.83,2.83,0,0,1-3.55,1.08A8.29,8.29,0,0,1,458,352a7.55,7.55,0,0,1,.89,5.2,10.19,10.19,0,0,1-6.66-8.17,4.7,4.7,0,0,1-1.27-5.78,4.87,4.87,0,0,1-2.91-4.07"/><path class="cls-9" d="M463.19,350.33a14.37,14.37,0,0,1-1.51-1.16,10.26,10.26,0,0,0-4-2,5.53,5.53,0,0,0-2.43,0,4.47,4.47,0,0,0-1.77.89,5.5,5.5,0,0,0-1.15,1.45,1,1,0,0,1,.13-.5,3.63,3.63,0,0,1,.84-1.16,4.51,4.51,0,0,1,1.87-1,5.5,5.5,0,0,1,2.59,0,9.48,9.48,0,0,1,4.09,2.21A7.27,7.27,0,0,1,463.19,350.33Z"/><path class="cls-9" d="M462.8,343.65a8.47,8.47,0,0,1-1.84-.77A21.24,21.24,0,0,0,459,342a16.82,16.82,0,0,0-2.52-.65,7.13,7.13,0,0,0-2.56,0,4.82,4.82,0,0,0-1.9.82,4.76,4.76,0,0,0-1.23,1.48,1.05,1.05,0,0,1,.14-.52,3.51,3.51,0,0,1,.93-1.17,4.57,4.57,0,0,1,2-1,7.15,7.15,0,0,1,2.69,0,14.25,14.25,0,0,1,2.58.7,17.34,17.34,0,0,1,2,.94A14.35,14.35,0,0,1,462.8,343.65Z"/></g><g id="Speech_Bubble2" data-name="Speech Bubble2"><path class="cls-5" d="M440.79,258.63l-12.66-.28a29.43,29.43,0,1,0,3.13,10.09v0Z"/><path class="cls-7" d="M440.79,258.63l-9.46,9.89-.1.1-.05-.13h0l.18-.05a30.34,30.34,0,0,1,0,7.08,29.5,29.5,0,0,1-2.16,8.11,26.54,26.54,0,0,1-2.19,4.13c-.45.66-.89,1.35-1.37,2l-1.6,2a29.74,29.74,0,0,1-19.59,9.74,29.34,29.34,0,0,1-12.32-1.57,30.12,30.12,0,0,1-11.07-7,29.06,29.06,0,0,1-7.16-11.63l-.52-1.72c-.18-.56-.25-1.16-.38-1.73s-.27-1.16-.32-1.75l-.18-1.75a13,13,0,0,1-.08-1.76c0-.58,0-1.16,0-1.75l.15-1.73a14,14,0,0,1,.21-1.71,30.06,30.06,0,0,1,5-12.38,29.22,29.22,0,0,1,9.29-8.57,29.94,29.94,0,0,1,21.95-3.17,32.06,32.06,0,0,1,8.88,3.82,29.33,29.33,0,0,1,6.36,5.48,29.74,29.74,0,0,1,3.92,5.79l-.07-.05,12.65.37-12.66-.2h-.05l0,0a30,30,0,0,0-3.93-5.73,29.5,29.5,0,0,0-6.34-5.41A31.22,31.22,0,0,0,409,243.5a29.65,29.65,0,0,0-21.71,3.18,28.88,28.88,0,0,0-9.17,8.48,29.72,29.72,0,0,0-5,12.23,13.83,13.83,0,0,0-.2,1.7l-.15,1.71c0,.57,0,1.15,0,1.73a14.41,14.41,0,0,0,.08,1.73l.18,1.73c.05.58.22,1.15.32,1.72s.2,1.16.37,1.72l.52,1.69a28.76,28.76,0,0,0,7.07,11.5,29.77,29.77,0,0,0,10.93,6.94,29,29,0,0,0,12.18,1.56,29.46,29.46,0,0,0,19.4-9.59l1.59-1.92c.48-.67.91-1.35,1.36-2a25.58,25.58,0,0,0,2.18-4.08,29.13,29.13,0,0,0,2.18-8,30.05,30.05,0,0,0,0-7l-.08-.68.25.64v0l-.15,0C437.3,262.18,440.34,259.1,440.79,258.63Z"/><path class="cls-7" d="M393.3,271.22a3,3,0,1,1-3-3A3,3,0,0,1,393.3,271.22Z"/><path class="cls-7" d="M405.27,271.22a3,3,0,1,1-3-3A3,3,0,0,1,405.27,271.22Z"/><path class="cls-7" d="M417.21,269.72a3,3,0,1,1-4.09-1.09A3,3,0,0,1,417.21,269.72Z"/></g><g id="Character_3" data-name="Character 3"><rect class="cls-6" x="311.01" y="19.32" width="227.56" height="166.36"/><path class="cls-7" d="M538.56,185.68c0-1.75-.08-65.55-.21-166.36l.21.21L311,19.58h0l.26-.26c0,59.69,0,116.27,0,166.36l-.23-.23,227.55.23L311,185.92h-.24v-.24c0-50.09,0-106.67,0-166.36v-.26H311l227.53.05h.21v.21C538.65,120.13,538.56,183.93,538.56,185.68Z"/><path class="cls-1" d="M539.33,43.53c0,.14-50.83.26-113.52.26s-113.53-.12-113.53-.26,50.82-.26,113.53-.26S539.33,43.39,539.33,43.53Z"/><path class="cls-1" d="M325.6,30.91a3.43,3.43,0,1,1-3.43-3.43A3.44,3.44,0,0,1,325.6,30.91Z"/><path class="cls-1" d="M335.92,30.91a3.43,3.43,0,1,1-3.42-3.43A3.43,3.43,0,0,1,335.92,30.91Z"/><path class="cls-1" d="M346.25,30.91a3.43,3.43,0,1,1-3.43-3.43A3.44,3.44,0,0,1,346.25,30.91Z"/><path class="cls-8" d="M325.8,85.18l1.43-.92a5.41,5.41,0,0,1,7.64,2c2.31,4.21,5.17,10.08,5.17,10.08l-6.06,9.6-2,.06c-2.21,1.41-7.36-1.43-10.85-3.55s-1.77-4.25-1.77-4.25c-2.19-3,.83-4.25.83-4.25a3.24,3.24,0,0,1,.88-4.6"/><rect class="cls-6" x="284.42" y="58.47" width="44.64" height="62.51" transform="translate(-11.41 59.33) rotate(-10.85)"/><path class="cls-7" d="M290.7,124.62a1,1,0,0,1-.07-.27c0-.21-.1-.49-.17-.85-.16-.77-.38-1.88-.67-3.31-.57-2.93-1.41-7.18-2.47-12.56-2.11-10.84-5.09-26.2-8.62-44.35l0-.24.23,0,43.83-8.43h0l.25,0,0,.26c4.39,23,8.45,44.25,11.72,61.4l0,.21-.21,0-32,6-8.82,1.64-2.3.42c-.51.09-.77.12-.77.12l.81-.18,2.33-.47,8.84-1.75L334.5,116l-.17.25L322.52,54.88l.3.2h0L279,63.46l.19-.27c3.42,18.11,6.31,33.43,8.36,44.25,1,5.4,1.8,9.68,2.35,12.63.27,1.46.48,2.58.62,3.37q.11.56.15.87A2.8,2.8,0,0,1,290.7,124.62Z"/><path class="cls-7" d="M286.25,77.29c0-.14,7.21-1.64,16.17-3.36s16.23-3,16.26-2.85-7.21,1.65-16.17,3.36S286.28,77.44,286.25,77.29Z"/><path class="cls-7" d="M287.08,81.63c0-.14,7.21-1.65,16.17-3.36s16.23-3,16.26-2.85-7.21,1.64-16.17,3.36S287.11,81.77,287.08,81.63Z"/><path class="cls-7" d="M287.91,86c0-.14,7.21-1.64,16.17-3.36s16.23-3,16.26-2.85-7.21,1.65-16.17,3.36S287.94,86.11,287.91,86Z"/><path class="cls-7" d="M288.74,90.3c0-.14,7.21-1.65,16.17-3.36s16.23-3,16.26-2.85S314,85.73,305,87.45,288.77,90.44,288.74,90.3Z"/><path class="cls-7" d="M289.58,94.63c0-.14,7.21-1.64,16.16-3.36s16.23-3,16.26-2.85-7.21,1.65-16.16,3.36S289.6,94.77,289.58,94.63Z"/><path class="cls-7" d="M290.41,99c0-.14,7.21-1.65,16.16-3.36s16.23-3,16.26-2.86-7.21,1.65-16.16,3.37S290.43,99.11,290.41,99Z"/><path class="cls-7" d="M291.24,103.3c0-.14,7.21-1.64,16.16-3.36s16.23-3,16.26-2.85-7.21,1.65-16.16,3.36S291.26,103.44,291.24,103.3Z"/><path class="cls-7" d="M292.07,107.64c0-.14,7.21-1.65,16.16-3.36s16.24-3,16.26-2.86-7.21,1.65-16.16,3.37S292.09,107.78,292.07,107.64Z"/><path class="cls-7" d="M292.9,112c0-.14,7.21-1.64,16.16-3.36s16.24-3,16.26-2.85-7.21,1.65-16.16,3.36S292.92,112.11,292.9,112Z"/><path class="cls-7" d="M316.74,58.25a5.28,5.28,0,0,1,.31,1.09l.66,3c.07.32.14.65.21,1a2.46,2.46,0,0,1-4.82.94l-.14-.71c-.1-.47-.19-1-.28-1.44-.19-1-.37-1.93-.54-2.86-.09-.46-.17-.91-.26-1.35a4.83,4.83,0,0,1-.13-1.38,3.22,3.22,0,0,1,3.29-3,3.1,3.1,0,0,1,2.65,1.59,2.65,2.65,0,0,1,.3.81c0,.19,0,.29,0,.3a6.87,6.87,0,0,0-.48-1A3,3,0,0,0,315,54a2.84,2.84,0,0,0-2.82,2.65,4.66,4.66,0,0,0,.15,1.24l.27,1.36c.18.92.36,1.87.55,2.85.09.49.18,1,.28,1.44l.13.71a1.93,1.93,0,0,0,.22.58,2,2,0,0,0,2,1,2,2,0,0,0,1.6-1.34,2.14,2.14,0,0,0,.08-1c-.06-.34-.12-.68-.18-1-.19-1.2-.36-2.22-.5-3A4.73,4.73,0,0,1,316.74,58.25Z"/><path class="cls-8" d="M329.78,83.43l-13.31,2c-.23,1.2.47,2.89,3.53,2.94,2.9,0,5.51-.2,5.51-.2s3.22,6.71,6.38,7.45,1.6-6.44,1.6-6.44h0Z"/><path class="cls-7" d="M478.65,41.13c1.12-2.62,2.27-5.32,2.37-8.19s-1.07-6-3.54-7.27c-2.29-1.2-5.1-.64-7.52-1.5-3-1.07-4.89-4.09-6.22-7s.52-4.05-1.72-6.35c-3-3-4.92-3.49-8.69-1.63-2.72-1.92-12.14-5.4-14.86-5.49-4-.12-8.62.2-11.44,3.09-2.18,2.25-3.57,5.1-6.25,6.71-3.69,2.22-8.39.34-12.7.49A2.43,2.43,0,0,0,405.82,15a2.66,2.66,0,0,0,.35,2.17l3.32,7a6.65,6.65,0,0,1-5.76-.14,19.55,19.55,0,0,0,5.12,12.3,1.67,1.67,0,0,0-2.3.88,4.19,4.19,0,0,0,0,2.75,20.15,20.15,0,0,0,27.35,13.26L457.66,55a6.07,6.07,0,0,0,4.09,3.8c2.66-2,3.09-3.07,3.09-3.07,1.63,1.21.35.6,1.63,1.21,2.94,1.41,7.29-.26,7.95-3.54A6.92,6.92,0,0,1,476,49.75a12.1,12.1,0,0,1,3.47-1.92,9.74,9.74,0,0,0,4.34-4.45A7,7,0,0,1,478.65,41.13Z"/><path class="cls-8" d="M461.86,31l.61,49c.11,8.32-1.44,20.58-14.62,20.14h0c-11.39-1.24-14.42-12-14.51-19.8,0-3.69-.08-6.76-.11-7.14,0,0-12.48-1-13.53-13.34-.51-6-.56-18.31-.48-29.49A23,23,0,0,1,440.59,7.51l1.19-.09C454.67,7.23,462,18.07,461.86,31Z"/><path class="cls-9" d="M433.23,73.13a29.84,29.84,0,0,0,15.71-5.92s-3.26,9.29-15.65,9.08Z"/><path class="cls-7" d="M440.3,35.35c.24.25,1.66-.9,3.73-1s3.61,1,3.82.69-.15-.57-.82-1.05a5.19,5.19,0,0,0-3.07-.87,5,5,0,0,0-3,1.08C440.38,34.77,440.17,35.24,440.3,35.35Z"/><path class="cls-7" d="M439.92,39.94a1.67,1.67,0,0,0,1.73,1.56,1.59,1.59,0,0,0,1.61-1.62,1.67,1.67,0,0,0-1.73-1.57A1.61,1.61,0,0,0,439.92,39.94Z"/><path class="cls-7" d="M435.12,49.71a13.47,13.47,0,0,0-3.12-.33c-.49,0-.95-.07-1.06-.4a2.5,2.5,0,0,1,.22-1.46c.37-1.2.76-2.46,1.16-3.79,1.61-5.39,2.73-9.81,2.52-9.87s-1.7,4.25-3.3,9.65c-.39,1.33-.76,2.59-1.1,3.81a2.75,2.75,0,0,0-.12,1.91,1.2,1.2,0,0,0,.85.65,3.11,3.11,0,0,0,.83.06A12.21,12.21,0,0,0,435.12,49.71Z"/><path class="cls-7" d="M441.17,27.59c.2.45,1.86.11,3.84.21s3.6.54,3.83.1c.1-.21-.2-.63-.88-1a6.45,6.45,0,0,0-5.84-.24C441.42,27,441.09,27.37,441.17,27.59Z"/><path class="cls-7" d="M421.56,31.41c.22.38,1.83,0,3.78-.1s3.58.19,3.78-.2c.09-.19-.23-.52-.91-.82a6.86,6.86,0,0,0-2.89-.47,6.94,6.94,0,0,0-2.87.7C421.78,30.87,421.47,31.23,421.56,31.41Z"/><path class="cls-8" d="M461.52,40.17c.21-.1,8.3-3.12,8.64,5.33s-8.21,7.06-8.23,6.82S461.52,40.17,461.52,40.17Z"/><path class="cls-9" d="M464.38,49s.15.09.4.2a1.49,1.49,0,0,0,1.1,0c.88-.37,1.58-1.82,1.56-3.34a4.81,4.81,0,0,0-.5-2.09,1.71,1.71,0,0,0-1.16-1.09.76.76,0,0,0-.85.44c-.1.24,0,.41-.09.42s-.18-.13-.13-.48a1,1,0,0,1,.31-.55,1.14,1.14,0,0,1,.81-.24,2.06,2.06,0,0,1,1.59,1.24,5,5,0,0,1,.61,2.34c0,1.71-.79,3.33-2,3.74a1.58,1.58,0,0,1-1.36-.17C464.4,49.21,464.35,49,464.38,49Z"/><path class="cls-7" d="M437.12,55.57c-.1-.22,1.56-.71,2.73-2.27A9.73,9.73,0,0,0,441,51.1c.24-.62.43-1,.52-1s.06.44-.07,1.11a6.21,6.21,0,0,1-1.09,2.47,5,5,0,0,1-2.16,1.65C437.58,55.62,437.14,55.64,437.12,55.57Z"/><path class="cls-7" d="M472.76,26.49c-1.76-3-2.17-6.54-3.13-9.87s-2.82-6.77-6.08-7.94l-.07,0c-2.93-1.18-6.54-1.2-9,.83-.59-4.39-4.44-7.87-8.73-9S434.63.1,430.52,1.76c-3.18,1.28-6.26,3.9-10,7.75a41.52,41.52,0,0,0-4.32,5.23l-3.73,11.52a4.71,4.71,0,0,0-1,1,2.16,2.16,0,0,0,3.16,2.9l0,0a21.11,21.11,0,0,1,1,2v0l.07.12a11.88,11.88,0,0,0,.63,1.23v0l2.88,12.73c.18-3.47-.07-15.54.11-19a19.33,19.33,0,0,0,13.79-6.37c1.9-2.1,3.39-4.73,5.92-6,3.27-1.61,7.17-.44,10.61.76l-.14-.13a15.47,15.47,0,0,1,4.77,3.44,48.17,48.17,0,0,0,2.09,20.37c.32,1,1.2,3,2.17,3.38,1.9.73,2.41-1.2,3.55-2.23a5.07,5.07,0,0,1,3.45-.85,74.84,74.84,0,0,0,2.32-8.77,7.77,7.77,0,0,0,3.55.24l-1.09-2.61a3.93,3.93,0,0,0,1.52.68,1.38,1.38,0,0,0,1.44-.62C473.57,27.86,473.13,27.11,472.76,26.49Z"/><path class="cls-11" d="M450.65,11a10.28,10.28,0,0,1,1.24,1.13,8.9,8.9,0,0,1,1.89,4.1,15.06,15.06,0,0,1,.32,3.13c0,1.13-.09,2.35-.18,3.63a33.48,33.48,0,0,0-.09,4,14.43,14.43,0,0,0,.28,2.14,4.43,4.43,0,0,0,.87,2.07,1.85,1.85,0,0,0,1.74.58,2.84,2.84,0,0,0,1.57-.88,6.36,6.36,0,0,0,1.18-3.14l-.26,0a10.83,10.83,0,0,0,1.5,2.59,3.72,3.72,0,0,0,2.4,1.3,2.37,2.37,0,0,0,1.27-.22,2,2,0,0,0,.87-.85,2.16,2.16,0,0,0,.26-1.09,1.47,1.47,0,0,0-.4-1l-.13.11a7.87,7.87,0,0,0,2.65,2,7.2,7.2,0,0,0,.82.32.92.92,0,0,0,.3.07l-.28-.12c-.18-.07-.46-.18-.8-.35a8.39,8.39,0,0,1-2.55-2l-.13.12a1.6,1.6,0,0,1,.08,1.83,1.88,1.88,0,0,1-.78.75,2.15,2.15,0,0,1-1.16.19,3.44,3.44,0,0,1-2.22-1.24,10.2,10.2,0,0,1-1.45-2.53l-.17-.39-.09.42a6.06,6.06,0,0,1-1.13,3,2.53,2.53,0,0,1-1.4.79,1.59,1.59,0,0,1-1.48-.5,4.2,4.2,0,0,1-.8-1.93,15.17,15.17,0,0,1-.28-2.09,33.08,33.08,0,0,1,.08-4c.08-1.28.16-2.5.15-3.65a15.53,15.53,0,0,0-.36-3.18A8.63,8.63,0,0,0,452,12,5,5,0,0,0,450.65,11Z"/><path class="cls-11" d="M412.51,23l.1.08.31.23a4,4,0,0,0,.52.33,8.32,8.32,0,0,0,.75.4,11,11,0,0,0,5.28.95,14,14,0,0,0,7.44-2.75,24.23,24.23,0,0,0,6.39-7.37c.9-1.49,1.63-3,2.43-4.44a16.7,16.7,0,0,1,2.76-3.75A8.42,8.42,0,0,1,442,4.49a5.81,5.81,0,0,1,1.88-.21,6.33,6.33,0,0,1,1.71.33,7.1,7.1,0,0,1,2.57,1.54A7.2,7.2,0,0,1,449.59,8a8.34,8.34,0,0,1,.64,1.85,1.16,1.16,0,0,0,0-.13c0-.1,0-.23-.06-.38a5.92,5.92,0,0,0-.47-1.39A6.87,6.87,0,0,0,448.31,6a6.87,6.87,0,0,0-4.38-2,6.24,6.24,0,0,0-1.95.21,8.65,8.65,0,0,0-3.68,2.2,16.51,16.51,0,0,0-2.81,3.8c-.82,1.43-1.55,3-2.44,4.43a24,24,0,0,1-6.3,7.3,13.84,13.84,0,0,1-7.3,2.76,11,11,0,0,1-5.21-.85A17.84,17.84,0,0,1,412.51,23Z"/><path class="cls-11" d="M411.39,17.55a2.21,2.21,0,0,0,.44.31,9.72,9.72,0,0,0,1.31.66,12.25,12.25,0,0,0,2.07.68,14.27,14.27,0,0,0,2.65.35,14.13,14.13,0,0,0,2.67-.18,13,13,0,0,0,2.12-.54,9.36,9.36,0,0,0,1.34-.58,2.62,2.62,0,0,0,.47-.28s-.71.3-1.88.66a14.18,14.18,0,0,1-2.09.48,16.69,16.69,0,0,1-2.62.16,15.63,15.63,0,0,1-2.6-.33,12.64,12.64,0,0,1-2-.61C412.07,17.9,411.42,17.5,411.39,17.55Z"/><path class="cls-7" d="M421.47,36.13c.24.25,1.67-.9,3.73-1s3.61,1,3.83.69-.15-.58-.82-1a5.23,5.23,0,0,0-3.07-.87,5,5,0,0,0-3,1.08C421.55,35.55,421.35,36,421.47,36.13Z"/><path class="cls-7" d="M422.64,40.22a1.68,1.68,0,0,0,1.73,1.57,1.59,1.59,0,0,0,1.6-1.63,1.67,1.67,0,0,0-1.73-1.57A1.59,1.59,0,0,0,422.64,40.22Z"/><path class="cls-11" d="M413.27,86l-44.6,29.19L341.5,94,333,107.41s15.83,18.31,21.69,24.53,9.77,9.54,14.39,8.94,43.24-15.59,43.24-15.59l5.85-40.94-2.45.59A8,8,0,0,0,413.27,86Z"/><path class="cls-11" d="M463.05,76c-10,6.27-20,8.63-30.22,4.57l-15.31,3.91-7.44,12.94a11.66,11.66,0,0,0-1.53,6.71l2.92,49.53-9,31.46,88.31.76-4.35-23.37-10.95-84Z"/><path class="cls-11" d="M476.55,116.26l-2.76-37.92s20.78,1.93,27.66,16.59c5.8,12.36,23.2,48.29,24.91,53.37,5,14.93-4.22,36.71-36.59,35.52l-3.69-20.29Z"/><path class="cls-7" d="M493.15,147.83a9.1,9.1,0,0,0,.52,1.49c.36.91.89,2.15,1.5,3.5l1.56,3.47a10.27,10.27,0,0,0,.67,1.42,7.45,7.45,0,0,0-.51-1.49c-.36-.91-.89-2.14-1.5-3.5l-1.56-3.47A9.56,9.56,0,0,0,493.15,147.83Z"/><path class="cls-7" d="M481.65,118c.07,0,.12-2.41.12-5.37s0-5.37-.12-5.37-.12,2.4-.12,5.37S481.58,118,481.65,118Z"/><path class="cls-7" d="M484.71,101.84a3.21,3.21,0,0,0,.19-.6c.1-.39.27-.95.49-1.63a26.83,26.83,0,0,1,2.31-5.1A27.32,27.32,0,0,1,491,90c.49-.53.9-1,1.19-1.23a3.26,3.26,0,0,0,.43-.45,2.43,2.43,0,0,0-.5.38c-.31.26-.74.66-1.25,1.18a24.09,24.09,0,0,0-3.42,4.49,23.4,23.4,0,0,0-2.26,5.18c-.21.69-.35,1.26-.43,1.66A3,3,0,0,0,484.71,101.84Z"/><path class="cls-7" d="M411.37,99.49a7,7,0,0,1,.12,1.24c.05.8.06,2,0,3.39,0,2.86-.34,6.8-.68,11.14a110.19,110.19,0,0,0-.44,11.11c0,1.43.08,2.58.14,3.37a6.13,6.13,0,0,1,0,1.24,5.23,5.23,0,0,1-.24-1.22c-.13-.79-.23-1.94-.31-3.37a85.67,85.67,0,0,1,.29-11.17c.35-4.35.7-8.27.83-11.11.07-1.43.11-2.58.12-3.38A5.2,5.2,0,0,1,411.37,99.49Z"/><path class="cls-7" d="M506.4,154.8a9.87,9.87,0,0,1-1.42.8c-.93.49-2.25,1.23-3.86,2.19s-3.51,2.15-5.72,3.29c-1.11.57-2.29,1.14-3.53,1.68l-3.87,1.6-1.19.49.16-.28c.85,5.36,1.59,10.17,2.09,13.64.23,1.67.42,3,.57,4.1a8.37,8.37,0,0,1,.14,1.51,9.46,9.46,0,0,1-.33-1.48c-.19-1.05-.44-2.42-.73-4.07-.6-3.46-1.39-8.26-2.25-13.62l0-.21.19-.07,1.18-.49,3.87-1.59c1.23-.53,2.4-1.08,3.51-1.64,2.2-1.11,4.11-2.26,5.75-3.18s3-1.62,4-2.05c.47-.23.85-.38,1.11-.49S506.39,154.78,506.4,154.8Z"/><path class="cls-7" d="M511.11,148.3c0,.09-1.05.3-2.67.9a20.41,20.41,0,0,0-5.8,3.35,20.71,20.71,0,0,0-4.4,5.06c-.9,1.47-1.3,2.48-1.38,2.45s0-.28.2-.74a13.06,13.06,0,0,1,.86-1.9,18.44,18.44,0,0,1,10.4-8.57,14.16,14.16,0,0,1,2-.49A2.49,2.49,0,0,1,511.11,148.3Z"/><path class="cls-10" d="M477.46,185.52l21.7-52.36c1-2.39-.25-4.33-2.77-4.33H492c-1.78,0-3-1-3.11-2.51l-.14-1.92c-.12-1.54-1.33-2.52-3.12-2.52H464.91A7.26,7.26,0,0,0,460.1,124l-1.68,1.63a7.26,7.26,0,0,1-4.8,2.13H427.2a7.35,7.35,0,0,0-6.31,4.32l-21.52,53.43Z"/><g class="cls-4"><path d="M477.46,185.52l21.7-52.36c1-2.39-.25-4.33-2.77-4.33H492c-1.78,0-3-1-3.11-2.51l-.14-1.92c-.12-1.54-1.33-2.52-3.12-2.52H464.91A7.26,7.26,0,0,0,460.1,124l-1.68,1.63a7.26,7.26,0,0,1-4.8,2.13H427.2a7.35,7.35,0,0,0-6.31,4.32l-21.52,53.43Z"/></g><path class="cls-1" d="M481.05,167.74l8.18-31.65c.54-2.08-.82-4.17-2.72-4.17H422.36a2.91,2.91,0,0,0-2.73,2.36L407.71,181.9c-.52,2.1.31,3.35,2.22,3.33l64.54,0a2.94,2.94,0,0,0,2.7-2.34Z"/><path class="cls-2" d="M476.62,184.09l3.48-49.84a3.05,3.05,0,0,0-3.05-3.27H410.59v53.11Z"/><path class="cls-5" d="M477.36,185.23l-7.91-51.38a3.68,3.68,0,0,0-3.61-2.87H398.6a3.64,3.64,0,0,0-3.4,5.07l14.52,47Z"/><path class="cls-10" d="M477.46,185.49l-16.3-48.11a4.83,4.83,0,0,0-4.54-3.34H387.3a3.39,3.39,0,0,0-3.1,4.49l15.17,47Z"/><g class="cls-4"><path d="M444,177.44s2.61.12,3.82.2a35.55,35.55,0,0,0,16.84-3c1.64-.72,3.36-1.75,3.85-3.47.56-1.92-.69-3.92-2.21-5.22s-3.36-2.23-4.68-3.74-1.94-3.93-.64-5.46l.36.27c.94,2.37,3.55,3.52,5.71,4.88A20.13,20.13,0,0,1,475.47,173c.76,2.49,1,5.4-.55,7.52a9.32,9.32,0,0,1-4.56,3c-5.24,1.95-10.85,2-16.44,2-1.77,0-7.19-.07-7.19-.07-1.71-.47-2.27-1.36-3.3-2.8S442.7,178.47,444,177.44Z"/></g><path class="cls-8" d="M444,177.44,462,174.72l7-4a3.18,3.18,0,0,0,1.61-2.55v-.06a3.21,3.21,0,0,0-2-3.06c-2.23-.94-5.76-2.18-7.26-4.82-2.17-3.79,0-4.57,0-4.57l15.09,6,10.69,7.28,2.15,12.13-14.91,4.87s-16.62.93-21.2.42-4.59-2.65-4.59-2.65c-.85-.27-2.57-1.78-2.57-3.19-2.22-2.09-2.13-3.07-2.13-3.07"/><path class="cls-9" d="M467.07,182.66a3.6,3.6,0,0,0-.74.14c-.48.12-1.16.27-2,.44a44.73,44.73,0,0,1-6.73.8,43.63,43.63,0,0,1-6.77-.28c-.86-.1-1.56-.2-2-.27a3.47,3.47,0,0,0-.75-.09,4,4,0,0,0,.73.2c.48.12,1.17.25,2,.38a37.47,37.47,0,0,0,6.81.37,37,37,0,0,0,6.76-.9c.85-.2,1.53-.38,2-.53A3.71,3.71,0,0,0,467.07,182.66Z"/><path class="cls-9" d="M465.42,179.86a4.67,4.67,0,0,0-.76.15c-.47.11-1.17.27-2,.43a44,44,0,0,1-6.83.76,45.51,45.51,0,0,1-6.87-.32c-.88-.1-1.59-.2-2.07-.28a3.58,3.58,0,0,0-.77-.09,4.38,4.38,0,0,0,.74.21c.49.11,1.19.24,2.07.38a39,39,0,0,0,6.91.41,38,38,0,0,0,6.87-.85c.86-.2,1.55-.38,2-.54A3,3,0,0,0,465.42,179.86Z"/></g><g id="Character_2" data-name="Character 2"><rect class="cls-6" x="123.8" y="267.92" width="227.56" height="169"/><path class="cls-7" d="M351.35,436.92c0-1.76-.08-66.7-.21-169l.21.21-227.54.05h0l.26-.26c0,60.71,0,118.23,0,169l-.23-.23,227.55.23-227.55.24h-.24v-.24c0-50.77,0-108.29,0-169v-.26h.27l227.54,0h.21v.21C351.44,370.22,351.35,435.16,351.35,436.92Z"/><path class="cls-1" d="M351.35,290.38c0,.14-51,.26-113.79.26s-113.8-.12-113.8-.26,50.94-.26,113.8-.26S351.35,290.23,351.35,290.38Z"/><circle class="cls-1" cx="133.43" cy="278.04" r="3.35"/><circle class="cls-1" cx="143.52" cy="278.04" r="3.35"/><circle class="cls-1" cx="153.61" cy="278.04" r="3.35"/><path class="cls-12" d="M326.3,402.91s5.55-7.26,8.16-7.55,19,.29,21.25,0,15.22-5.75,15.22-5.75,2.3.78,2,2.83-14.65,9.81-16.37,10.1-15.51,1.3-15.51,1.3l-3.46,6.25Z"/><path class="cls-7" d="M278.72,311.39a8.7,8.7,0,0,0,1.39-15.1L270,292.91q-2.17,19.51-4.63,39a14.73,14.73,0,0,0,7.74-2.14c2.23-1.55,3.7-4.45,2.87-7a6.9,6.9,0,0,0,2.72-11.35Z"/><path class="cls-12" d="M229.29,303.76l.38-4.63L258,296.68c8.65,0,17,9.5,16.7,18.14-.37,9.61-1.21,21.33-3.07,28.34-3.73,14.09-14.9,14.79-14.9,14.79l-1,14.2c-.75,8.28-7.89,9.39-16.17,8.65h0A15.08,15.08,0,0,1,225.84,365Z"/><path class="cls-7" d="M270.19,325a1.84,1.84,0,0,1-2,1.68,1.76,1.76,0,0,1-1.72-1.85,1.85,1.85,0,0,1,2-1.68A1.77,1.77,0,0,1,270.19,325Z"/><path class="cls-7" d="M271,320.6c-.25.22-1.54-1-3.52-1.15s-3.52.64-3.71.38.18-.53.86-.92a5,5,0,0,1,5.77.61C271,320.05,271.15,320.5,271,320.6Z"/><path class="cls-7" d="M251.73,323.85a1.85,1.85,0,0,1-2,1.67,1.76,1.76,0,0,1-1.72-1.84,1.84,1.84,0,0,1,2-1.68A1.77,1.77,0,0,1,251.73,323.85Z"/><path class="cls-7" d="M251.56,319c-.25.22-1.54-1-3.52-1.15s-3.52.65-3.71.38c-.1-.12.18-.52.86-.92a5.09,5.09,0,0,1,3-.6,4.83,4.83,0,0,1,2.77,1.22C251.52,318.43,251.68,318.89,251.56,319Z"/><path class="cls-7" d="M257.24,334.38a12.7,12.7,0,0,1,3.27-.25c.51,0,1-.06,1.12-.39a2.59,2.59,0,0,0-.19-1.53c-.35-1.27-.71-2.6-1.1-4-1.51-5.68-2.55-10.34-2.32-10.4s1.64,4.51,3.15,10.19c.36,1.4.71,2.73,1,4a3,3,0,0,1,.06,2,1.29,1.29,0,0,1-.91.65,2.9,2.9,0,0,1-.87,0A12.91,12.91,0,0,1,257.24,334.38Z"/><path class="cls-13" d="M256.7,358a38.07,38.07,0,0,1-19.14-7.16s3.81,10.53,18.77,10.73Z"/><path class="cls-7" d="M252.57,313.45c-.25.52-2.19.06-4.54.1s-4.29.49-4.55,0c-.11-.24.27-.72,1.08-1.16a7.88,7.88,0,0,1,6.92-.06C252.3,312.73,252.68,313.2,252.57,313.45Z"/><path class="cls-7" d="M271.66,313.81c-.39.42-1.71-.19-3.34-.38s-3.06,0-3.33-.51c-.11-.24.15-.67.8-1a4.67,4.67,0,0,1,2.8-.46,4.61,4.61,0,0,1,2.57,1.18C271.69,313.13,271.84,313.61,271.66,313.81Z"/><path class="cls-7" d="M281,302.51a9,9,0,0,0,4.4-8.83,10.2,10.2,0,0,0-6.17-7.89,10.49,10.49,0,0,0-2-.6,9.27,9.27,0,0,0-4.33-1.73,4.81,4.81,0,0,0-3.27-4.13,11.52,11.52,0,0,0-5.54-.35A9.38,9.38,0,0,0,249,278.1a7.69,7.69,0,0,0-11.8,3.55,7.69,7.69,0,0,0-5.73,2,7.57,7.57,0,0,0-1.43,1.85,7.25,7.25,0,0,0-1.65,2.69,8.65,8.65,0,0,0-5.49,15.28,7.89,7.89,0,0,0,.44,12.66,10.12,10.12,0,0,0,0,8,4.88,4.88,0,0,0,2.28,2.6,2.23,2.23,0,0,0,.16.56c.72,1.43,2.89,1.06,4.24.2,3.27-2.1,5.28-5.71,6.53-9.39s1.85-7.56,3.06-11.25c0-.08,0-.17.08-.26a10.58,10.58,0,0,1,2.49-4.08,27.09,27.09,0,0,0,3.21,2.56,11.48,11.48,0,0,0,13.54-1.28,16.81,16.81,0,0,0,10.24,5c3.85.4,7.74.07,10.95-2.1A5.41,5.41,0,0,0,282,304.4,1.66,1.66,0,0,0,281,302.51Z"/><path class="cls-12" d="M229.66,322.94c-.18-.12-7.39-3.74-8.55,4.08s6.92,7.37,7,7.15S229.66,322.94,229.66,322.94Z"/><path class="cls-13" d="M226.13,330.85s-.15.08-.4.15a1.39,1.39,0,0,1-1-.13c-.78-.43-1.28-1.84-1.11-3.26a4.59,4.59,0,0,1,.68-1.89,1.59,1.59,0,0,1,1.18-.89.7.7,0,0,1,.74.49c.08.24,0,.39,0,.41s.19-.11.18-.44a.92.92,0,0,0-.24-.54,1,1,0,0,0-.72-.31,2,2,0,0,0-1.61,1,4.63,4.63,0,0,0-.79,2.11c-.19,1.58.4,3.17,1.48,3.67a1.47,1.47,0,0,0,1.28,0C226.09,331,226.15,330.87,226.13,330.85Z"/><path class="cls-11" d="M285.15,292.34a.51.51,0,0,1,.05.2,4.35,4.35,0,0,1,.07.58,5.83,5.83,0,0,1-.3,2.21,6,6,0,0,1-2,2.85,6.21,6.21,0,0,1-4.38,1.25l.15-.11a13.61,13.61,0,0,1-4.05,6.44,10.61,10.61,0,0,1-3.76,2.2,8.7,8.7,0,0,1-4.59.13,15.32,15.32,0,0,1-4.22-1.61,11.8,11.8,0,0,1-3.37-2.61l.24,0a14.25,14.25,0,0,1-7,2.88,11.21,11.21,0,0,1-5.84-1.19,11.77,11.77,0,0,1-3.17-2.31q-.47-.5-.69-.78a1.76,1.76,0,0,1-.21-.3s.33.37,1,1a12.41,12.41,0,0,0,3.18,2.2,11.23,11.23,0,0,0,5.72,1.09,14.14,14.14,0,0,0,6.82-2.86l.13-.1.11.13a11.66,11.66,0,0,0,3.27,2.51,15.09,15.09,0,0,0,4.13,1.57,8.43,8.43,0,0,0,4.41-.12,10.14,10.14,0,0,0,3.63-2.12,13.3,13.3,0,0,0,4-6.25l0-.12h.12a6,6,0,0,0,4.21-1.14,5.75,5.75,0,0,0,2-2.73,5.82,5.82,0,0,0,.37-2.15C285.18,292.61,285.13,292.34,285.15,292.34Z"/><path class="cls-11" d="M229.52,287.9a15.63,15.63,0,0,0-1,2.6,11.24,11.24,0,0,0,.38,7.13l0,.12-.1.08a7.24,7.24,0,0,0-2.49,2.92,7,7,0,0,0-.58,4.16,7.27,7.27,0,0,0,2.81,4.58l.13.1-.09.14a9,9,0,0,0-1.53,4.77,9.88,9.88,0,0,0,.65,3.95,10.85,10.85,0,0,0,1.87,3.06l-.19-.16a6.92,6.92,0,0,1-.49-.52,8.92,8.92,0,0,1-1.39-2.3,9.8,9.8,0,0,1-.74-4,9.25,9.25,0,0,1,1.54-5l0,.23a7.59,7.59,0,0,1-3-4.8,7.34,7.34,0,0,1,.62-4.37,7.49,7.49,0,0,1,2.63-3l-.06.19a11.2,11.2,0,0,1-.26-7.3,9.44,9.44,0,0,1,.81-1.93c.11-.21.22-.36.28-.47S229.51,287.89,229.52,287.9Z"/><path class="cls-7" d="M224,333.35a6,6,0,0,0-.34,1.39,2.12,2.12,0,0,0,.39,1.4,1.77,1.77,0,0,0,1.55.66,1.44,1.44,0,0,0,1.14-1.16,2.73,2.73,0,0,0-.08-1.49c-.27-.83-.55-1.34-.49-1.36a3.62,3.62,0,0,1,.73,1.28,2.82,2.82,0,0,1,.17,1.65,2.1,2.1,0,0,1-.45.91,1.59,1.59,0,0,1-1,.53,2,2,0,0,1-1.86-.82,2.33,2.33,0,0,1-.39-1.62A2.16,2.16,0,0,1,224,333.35Z"/><path class="cls-13" d="M252.1,336.72a3.63,3.63,0,0,0,.59,5.92A2.09,2.09,0,0,0,254,343a3,3,0,0,0,1.82-1.55l1.13-1.69a.82.82,0,0,0,.21-.64c-.05-.24-.3-.37-.52-.48l-4.37-2.09"/><path class="cls-7" d="M254,342.7a4.12,4.12,0,0,1-2-.7,3.37,3.37,0,0,1-1.51-1.88,2.53,2.53,0,0,1,0-1.49,4.38,4.38,0,0,1,.68-1.39,3.83,3.83,0,0,1,1.12-1l.15-.09.14.09c2.82,1.72,5.08,2.77,5,2.9a19.2,19.2,0,0,1-5.32-2.43h.29a3.48,3.48,0,0,0-1,.88,3.06,3.06,0,0,0-.65,2.4,3.1,3.1,0,0,0,1.23,1.68C253.2,342.37,254,342.61,254,342.7Z"/><path class="cls-11" d="M149.39,437s28.45-51,33.18-59.25c5.57-9.7,10.42-13.22,14.79-15.33a34.26,34.26,0,0,1,14.71-3.3l14.11-.1s5.36,8,12.63,9.59c10,2.16,17.52-5.27,17.52-5.27l20.27,8.3-4.07,37.46a55.21,55.21,0,0,1-10,26.16L261.19,437l-74.7-.07,8.66-27-16,27Z"/><path class="cls-11" d="M276.6,371.62s5.89,3.46,10.33,17.8,14,39.85,14,39.85l24-27.23,14.24,9s-23,39.88-26.62,44.6c-5.44,7-19.19,11.06-27.26,1.71-5.87-6.8-19.89-39.7-19.89-39.7Z"/><path class="cls-7" d="M268,392.41a1.77,1.77,0,0,1,.22.43c.13.29.33.71.54,1.28a39,39,0,0,1,1.52,4.85,42.93,42.93,0,0,1-4.92,32.43,39,39,0,0,1-2.9,4.18c-.36.47-.68.82-.89,1.06a2.09,2.09,0,0,1-.34.34,14.47,14.47,0,0,1,1.07-1.52,50.42,50.42,0,0,0,2.74-4.25,44.42,44.42,0,0,0,4.88-32.16,48,48,0,0,0-1.35-4.87A15,15,0,0,1,268,392.41Z"/><path class="cls-7" d="M199.8,387.83a2.82,2.82,0,0,1,0,.52c0,.4-.12.89-.2,1.48-.18,1.29-.49,3.14-.91,5.42-.84,4.56-2.19,10.84-4.07,17.66s-3.93,12.91-5.55,17.26c-.8,2.17-1.49,3.92-2,5.12l-.58,1.37c-.14.32-.22.48-.24.47a2.18,2.18,0,0,1,.14-.5c.13-.38.3-.85.49-1.41.46-1.3,1.08-3.05,1.84-5.17,1.52-4.38,3.51-10.46,5.39-17.28s3.28-13,4.21-17.59l1.07-5.38.3-1.46A1.72,1.72,0,0,1,199.8,387.83Z"/><path class="cls-12" d="M164.07,436.93s2.72-3.69,4.05-4.39,3.18-.68,4,0l.81.72s4.22-1.89,6.25-.43c0,0,4-1.9,5.93.27,0,0,3.09-2,4.4-.25s1.17,4.72.54,6.24-1.82,6.73-2.74,6.82c0,0-2.47.27-2.8-1.07s-.47-2-.47-2-.94,4.71-2.07,4.95-3.3.1-3.38-2c0,0-1.05,1.56-2.08,1.1s-2.3-1.21-2.18-2.48.13-2.56.13-2.56-.57,1.86-1.5,1.46-1.87-.32-2.39-1.9-1.82-4.6-1.82-4.6Z"/><path class="cls-13" d="M174.37,441.87c-.06,0,.19-.52.4-1.34a7.58,7.58,0,0,0,.14-3.26,7.66,7.66,0,0,0-1.3-3,11.66,11.66,0,0,1-.85-1.1,3.12,3.12,0,0,1,1.08.93,6.7,6.7,0,0,1,1.21,6.53A3,3,0,0,1,174.37,441.87Z"/><path class="cls-13" d="M179.43,432.9a6.62,6.62,0,0,1,.54,1.86,18.42,18.42,0,0,1-.62,9.24,6.11,6.11,0,0,1-.79,1.77,32.75,32.75,0,0,0,1.28-6.38A34.09,34.09,0,0,0,179.43,432.9Z"/><path class="cls-13" d="M185.19,433.21a14.64,14.64,0,0,1,.06,5,15,15,0,0,1-1.18,4.84c-.12,0,.47-2.18.78-4.89S185.07,433.22,185.19,433.21Z"/><path class="cls-12" d="M201,434.28a1.58,1.58,0,0,0-1.07-.86,3.39,3.39,0,0,0-3,.82,11.44,11.44,0,0,0-2.24,2.75h6C200.54,436.06,201.31,435.13,201,434.28Z"/><path class="cls-10" d="M355.33,351.33H387.4a32.08,32.08,0,1,1-32.13-32.07Z"/><path class="cls-10" d="M361,346.18l-.1-32.08h.1A32.23,32.23,0,0,1,393.11,346Z"/></g><g id="Speech_Bubble1" data-name="Speech Bubble1"><path class="cls-5" d="M207.75,338l-6.24-11a29.53,29.53,0,1,0-7.07,7.86v0Z"/><path class="cls-7" d="M207.75,338l-13.34-3-.14,0,.09-.11h0l.13.13a30.19,30.19,0,0,1-6.06,3.65,29.25,29.25,0,0,1-8.08,2.3,25.49,25.49,0,0,1-4.66.24c-.8,0-1.62-.06-2.44-.13l-2.49-.38a29.71,29.71,0,0,1-18.41-11.82,29.33,29.33,0,0,1-5-11.38,29.94,29.94,0,0,1,.35-13.1A29,29,0,0,1,154,292.16l1.2-1.32c.4-.45.87-.81,1.3-1.22s.85-.82,1.34-1.17l1.41-1.05a12.75,12.75,0,0,1,1.46-1l1.5-.91,1.56-.76a13.82,13.82,0,0,1,1.58-.7,30,30,0,0,1,13.21-2,29.14,29.14,0,0,1,12.12,3.58,29.93,29.93,0,0,1,14,17.21A31.76,31.76,0,0,1,206,312.4a29.5,29.5,0,0,1-1.44,8.27,29.92,29.92,0,0,1-3,6.34v-.09L207.75,338l-6.32-11,0-.05,0,0a29.84,29.84,0,0,0,2.9-6.31,29.23,29.23,0,0,0,1.4-8.22,31.83,31.83,0,0,0-1.3-9.49,29.73,29.73,0,0,0-13.87-17,29,29,0,0,0-12-3.52,29.67,29.67,0,0,0-13,2,13.72,13.72,0,0,0-1.56.7l-1.55.75-1.47.9a11.67,11.67,0,0,0-1.45.95l-1.4,1.05c-.47.33-.87.77-1.32,1.15s-.88.76-1.28,1.2l-1.18,1.31a28.67,28.67,0,0,0-6.24,12,29.67,29.67,0,0,0-.36,12.94,29.44,29.44,0,0,0,23.1,23l2.47.38c.81.07,1.62.09,2.42.14a27,27,0,0,0,4.62-.22,29.36,29.36,0,0,0,8-2.25,30.51,30.51,0,0,0,6-3.6l.55-.42-.43.55h0l-.05-.14Z"/><path class="cls-7" d="M168.12,311.53a3,3,0,1,1-3-3A3,3,0,0,1,168.12,311.53Z"/><path class="cls-7" d="M180.09,311.53a3,3,0,1,1-3-3A3,3,0,0,1,180.09,311.53Z"/><path class="cls-7" d="M192,310a3,3,0,1,1-4.08-1.1A3,3,0,0,1,192,310Z"/></g><g id="Character_1" data-name="Character 1"><path class="cls-8" d="M174.11,144.77a16.81,16.81,0,0,1,8.63,7.49c3.23,5.73,2.37,8.57,1.52,12s-2.33,10.12-2.42,9.68S174.11,144.77,174.11,144.77Z"/><rect class="cls-6" x="37.64" y="74.9" width="232.89" height="172.96"/><path class="cls-7" d="M270.53,247.86c0-1.76-.08-68.26-.21-173l.21.21-232.87,0h0l.26-.26c0,62.13,0,121,0,173l-.24-.23,232.89.23-232.89.24h-.23v-.24c0-52,0-110.83,0-173v-.26h.28l232.87,0h.21v.21C270.61,179.6,270.53,246.1,270.53,247.86Z"/><path class="cls-1" d="M270.14,99.08c0,.14-51.63.26-115.29.26s-115.3-.12-115.3-.26,51.61-.26,115.3-.26S270.14,98.93,270.14,99.08Z"/><path class="cls-1" d="M52.87,86.46A3.43,3.43,0,1,1,49.45,83,3.42,3.42,0,0,1,52.87,86.46Z"/><path class="cls-1" d="M63.2,86.46A3.43,3.43,0,1,1,59.77,83,3.42,3.42,0,0,1,63.2,86.46Z"/><path class="cls-1" d="M73.52,86.46A3.43,3.43,0,1,1,70.1,83,3.42,3.42,0,0,1,73.52,86.46Z"/><path class="cls-7" d="M166.52,71c-.78-2.82-2.31-5.58-4.83-7.05-1.2-.7-2.56-1.08-3.78-1.74a45.93,45.93,0,0,1-4-3,14.46,14.46,0,0,0-21.13,5.35c-2.84-2.16-7.76-1.25-11.12,0s-6.17,5.21-7,8.69l15.76,4.77a42.23,42.23,0,0,0,10.77,8.86,21.81,21.81,0,0,0,13.49,2.73A14.88,14.88,0,0,0,165.76,82,15.51,15.51,0,0,0,166.52,71Z"/><path class="cls-7" d="M177.7,123.19a9.43,9.43,0,0,0,2-13c-.89-1.15-2.11-2.2-2.31-3.64a7,7,0,0,1,.39-2.63,15.58,15.58,0,0,0-5.72-15.84c-.08-3.23-1.89-10.06-6-12.67l-18.62,2.61q1.26,29.43-.17,58.87c-.15,3-.26,6.24,1.38,8.76,2.33,3.58,7.2,4.32,11.46,4.43a34,34,0,0,0,12.09-1.42c3.85-1.35,7.39-4,9-7.77C183.69,135.16,181.13,128.46,177.7,123.19Z"/><path class="cls-8" d="M120.91,83.52l-.57-4.17,24.58-7.67c7.65-1.71,16.92,5.09,18.3,12.81,1.54,8.57,3.08,19.1,2.8,25.66-.57,13.2-10.31,16-10.31,16l1,7.82a14.45,14.45,0,0,1-12.5,16.17h0A14.46,14.46,0,0,1,128,137.68Z"/><path class="cls-7" d="M161.54,94.19a1.68,1.68,0,0,1-1.41,1.86,1.6,1.6,0,0,1-1.88-1.3,1.65,1.65,0,0,1,1.4-1.86A1.59,1.59,0,0,1,161.54,94.19Z"/><path class="cls-7" d="M161.12,90.31c-.19.24-1.55-.55-3.34-.34s-3,1.26-3.21,1.06.05-.5.58-1a4.55,4.55,0,0,1,2.54-1.12,4.43,4.43,0,0,1,2.69.54C161,89.83,161.21,90.2,161.12,90.31Z"/><path class="cls-7" d="M144.84,96.46a1.67,1.67,0,0,1-1.41,1.86,1.6,1.6,0,0,1-1.88-1.3A1.67,1.67,0,0,1,143,95.16,1.59,1.59,0,0,1,144.84,96.46Z"/><path class="cls-7" d="M143.57,92.66c-.18.24-1.54-.54-3.33-.33s-3,1.25-3.22,1.06.06-.51.59-1a4.52,4.52,0,0,1,2.54-1.11,4.39,4.39,0,0,1,2.68.53C143.43,92.18,143.66,92.55,143.57,92.66Z"/><path class="cls-7" d="M151.59,105.18a12,12,0,0,1,2.85-.86c.45-.1.87-.24.91-.56a2.37,2.37,0,0,0-.46-1.32c-.56-1-1.14-2.16-1.75-3.32-2.45-4.74-4.27-8.65-4.08-8.75s2.33,3.66,4.77,8.4l1.7,3.35a2.64,2.64,0,0,1,.44,1.77,1.15,1.15,0,0,1-.67.75,3.25,3.25,0,0,1-.77.2A12,12,0,0,1,151.59,105.18Z"/><path class="cls-9" d="M155.71,126.18a34.55,34.55,0,0,1-18.34-2.61s5.42,8.57,18.7,5.84Z"/><path class="cls-9" d="M151.33,109.58a3.24,3.24,0,0,0-3-.87,3,3,0,0,0-1.9,1.32,1.87,1.87,0,0,0,.1,2.15,2.16,2.16,0,0,0,2.41.33,6.73,6.73,0,0,0,2.13-1.63,1.82,1.82,0,0,0,.45-.59.58.58,0,0,0-.08-.66"/><path class="cls-7" d="M146.47,107c.29,0,.52,1.89,2.34,3.08s3.86.73,3.9,1-.41.43-1.28.56a4.88,4.88,0,0,1-3.25-.73,4.27,4.27,0,0,1-1.84-2.6C146.17,107.53,146.34,107,146.47,107Z"/><path class="cls-7" d="M143.23,85.6c-.12.51-1.93.48-4,1s-3.7,1.26-4,.85c-.15-.19.09-.68.72-1.23A7.13,7.13,0,0,1,142,84.8C142.85,85,143.28,85.36,143.23,85.6Z"/><path class="cls-7" d="M159.86,85.21c-.27.44-1.55.16-3,.31s-2.7.59-3,.2c-.15-.2,0-.63.5-1.07a4.42,4.42,0,0,1,4.9-.41C159.76,84.59,160,85,159.86,85.21Z"/><path class="cls-7" d="M123.69,70.51c-2.54.83-5.42,7.78-4.67,10.36a7.88,7.88,0,0,0,5.74,5.1,14.9,14.9,0,0,0,7.93-.51c3.63-1.1,7.45-3.6,7.71-7.39a14.71,14.71,0,0,0,13.87,3.81c4.86-1.25,8.46-8.69,9.83-13.52Z"/><path class="cls-11" d="M148.85,96.53c-.06,0,0-.66-.33-1.77a7.35,7.35,0,0,0-2.69-3.92,7,7,0,0,0-3-1.32,7.2,7.2,0,0,0-3.73.33,7.12,7.12,0,0,0,0,13.36,7.2,7.2,0,0,0,3.73.33,7.12,7.12,0,0,0,3-1.32,7.35,7.35,0,0,0,2.69-3.92c.3-1.12.27-1.77.33-1.77a2.42,2.42,0,0,1,0,.47,5.62,5.62,0,0,1-.16,1.35,7.3,7.3,0,0,1-2.65,4.17,7.53,7.53,0,0,1-10.69-1.5,7.56,7.56,0,0,1,7.52-11.92,7.37,7.37,0,0,1,3.16,1.44,7.27,7.27,0,0,1,2.66,4.17,5.62,5.62,0,0,1,.16,1.35A2.42,2.42,0,0,1,148.85,96.53Z"/><path class="cls-11" d="M167.25,93.21c-.06,0,0-.65-.33-1.77a7.35,7.35,0,0,0-2.69-3.92,7.13,7.13,0,0,0-6.75-1A7,7,0,0,0,154.19,89a7.07,7.07,0,0,0,0,8.39,7,7,0,0,0,3.29,2.48,7.23,7.23,0,0,0,3.74.33,7.12,7.12,0,0,0,3-1.31A7.33,7.33,0,0,0,166.92,95c.3-1.11.27-1.77.33-1.77a1.43,1.43,0,0,1,0,.47,6.19,6.19,0,0,1-.16,1.35,7.35,7.35,0,0,1-2.66,4.17,7.43,7.43,0,0,1-3.16,1.44,7.5,7.5,0,0,1-4-.3,7.4,7.4,0,0,1-3.54-2.63,7.53,7.53,0,0,1,0-9,7.4,7.4,0,0,1,3.54-2.63,7.61,7.61,0,0,1,4-.31,7.49,7.49,0,0,1,3.16,1.45,7.36,7.36,0,0,1,2.66,4.16,6.19,6.19,0,0,1,.16,1.35A1.43,1.43,0,0,1,167.25,93.21Z"/><path class="cls-11" d="M147.75,92.48c-.06,0-.07-.35.17-.83a2.78,2.78,0,0,1,1.59-1.32,2.69,2.69,0,0,1,2.05.19c.48.25.66.54.62.58s-.31-.11-.76-.25a2.83,2.83,0,0,0-3.19,1C147.94,92.22,147.82,92.51,147.75,92.48Z"/><path class="cls-11" d="M133.89,98.27a9.17,9.17,0,0,1-2.82,1.22,9.26,9.26,0,0,1-3,.73A9.46,9.46,0,0,1,130.9,99,9.08,9.08,0,0,1,133.89,98.27Z"/><path class="cls-8" d="M261.28,120.66a2.29,2.29,0,0,0,1.26-3.06l-8,2.41a31.67,31.67,0,0,0,6.42-3.5c2.17-1.78,1.08-3.32,1.08-3.32l-8.23,3.17-4.65,2.74-11.65,17.79s9.1,4.46,10.72,3.17c2.83-2.26,4.38-7.3,5-9.86a34.28,34.28,0,0,0,5.71-2,5.34,5.34,0,0,0,1.71-1.93l-6.35,1.21c.92-.27,6.8-2.28,7.27-3,.82-1.27.31-1.83.31-1.83l-8,1.24.82-.6Z"/><path class="cls-8" d="M231.94,139.18l-26.81,24.55C201.8,163,161,138.56,161,138.56L154.52,170s41.78,19.21,53.28,16.88c1.88-.38,5-.62,6.9-3.11,9.2-11.82,28.71-41.07,28.71-41.07Z"/><path class="cls-8" d="M250.15,138l-4.83-2.33,3.49-6.34,2.74-5.79,4.25-7.89L249.32,118a5.09,5.09,0,0,0-1.95,1.49l-10.65,14.72L232,139.05l4.56,12.26,5.36-8.36,3.13-.73C248.17,141.49,250.15,138,250.15,138Z"/><path class="cls-8" d="M242.37,128a39.72,39.72,0,0,1,6.95-2.71,5.79,5.79,0,0,1,2.4-.32,2.19,2.19,0,0,1,1.82,1.42,2.26,2.26,0,0,1-1.12,2.34,8.57,8.57,0,0,1-2.6.92,4.49,4.49,0,0,0-2.41,1.27,7.35,7.35,0,0,0-1,2.38,8.38,8.38,0,0,1-6.17,5.29"/><path class="cls-9" d="M240.21,138.58s.43-.13,1.17-.42a8.73,8.73,0,0,0,2.79-1.82,8,8,0,0,0,1.4-1.81,11.07,11.07,0,0,0,1-2.46,4.06,4.06,0,0,1,.73-1.35,3.54,3.54,0,0,1,1.31-.92c1-.44,2.09-.54,3.06-.94a3,3,0,0,0,1.23-.85,2,2,0,0,0,.48-1.29,1.9,1.9,0,0,0-1.87-1.56,7.39,7.39,0,0,0-2.57.44c-.8.23-1.55.47-2.22.71-1.35.47-2.43.91-3.17,1.22a7.44,7.44,0,0,1-1.16.46,5.49,5.49,0,0,1,1.09-.62,32.35,32.35,0,0,1,3.12-1.38c.67-.25,1.42-.52,2.23-.77a7.61,7.61,0,0,1,2.71-.5,2.89,2.89,0,0,1,1.47.53,2,2,0,0,1,.83,1.45,2.84,2.84,0,0,1-2,2.59c-1.06.44-2.14.54-3.05.93a3.25,3.25,0,0,0-1.16.8,3.51,3.51,0,0,0-.66,1.2,11.06,11.06,0,0,1-1.05,2.51,8.42,8.42,0,0,1-4.47,3.6,5.14,5.14,0,0,1-.9.23C240.33,138.59,240.21,138.6,240.21,138.58Z"/><path class="cls-7" d="M157.94,226.91H103a140.6,140.6,0,0,0-13.46,20.85l78.32.32C169.39,245.56,157.94,226.91,157.94,226.91Z"/><path class="cls-10" d="M174.19,177c-1.86-24.6-8-40.06-8-40.06L156.7,134h0c-1.43,6.29-11.68,8.37-17.51,5.62L133,136.35c-19.81-3-18.78-1.33-23.36,1.42-4,2.4-3.61,20.24-3.61,20.24s-9.88,46.5-9.34,54S103,226.91,103,226.91h55c5.53,0,7.11-12.51,6.73-17S174.8,185,174.19,177Z"/><path class="cls-7" d="M122,192.43a4.39,4.39,0,0,0,.92.78,17,17,0,0,0,2.85,1.66,17.24,17.24,0,0,0,4.69,1.41,16.13,16.13,0,0,0,6-.26,19.81,19.81,0,0,0,9.33-5.41,23.43,23.43,0,0,0,2.15-2.5,4.64,4.64,0,0,0,.64-1c-.08-.07-1.08,1.33-3.07,3.21a20.63,20.63,0,0,1-9.18,5.14,16.78,16.78,0,0,1-10.39-.95C123.42,193.42,122.07,192.34,122,192.43Z"/><g class="cls-4"><path d="M147.65,188.36a16,16,0,0,1-5.64,10.8,13.28,13.28,0,0,1-11.76,2.56,11.37,11.37,0,0,1-8-8.72,34.08,34.08,0,0,0,8.77,3.05,17.23,17.23,0,0,0,16.93-8l-.45.47"/></g><path class="cls-10" d="M84.93,175.81l27.69,13s11.29-25,12.26-28.39,4-8.82.89-15.94-11.49-9.73-16.12-6.7C99.29,144.56,84.93,175.81,84.93,175.81Z"/><path class="cls-10" d="M172,177.13c1.29,0,16.14,7.77,16.14,7.77l8.45-28c-12.62-8.41-23-18-30.37-20L170.11,160Z"/><path class="cls-7" d="M84.93,175.81a2.58,2.58,0,0,1,.55.2l1.53.65,5.6,2.48L111,187.52l2.24,1-.35.12c3.19-6.59,6-12.48,8-16.73,1-2.08,1.74-3.78,2.31-5,.25-.55.46-1,.63-1.36a2.07,2.07,0,0,1,.24-.46,1.63,1.63,0,0,1-.15.5c-.12.32-.29.79-.54,1.4-.48,1.21-1.22,2.95-2.16,5.1-1.9,4.3-4.65,10.22-7.83,16.81l-.12.24L113,189l-2.25-1c-7.12-3.32-13.56-6.32-18.31-8.52l-5.53-2.64-1.49-.74A2,2,0,0,1,84.93,175.81Z"/><path class="cls-7" d="M169.45,154.14a11.53,11.53,0,0,1,.58,1.72l1.45,4.73c1.2,4,3,9.6,3,16.06a34.29,34.29,0,0,1-1.47,8.9c-.77,2.67-1.67,5-2.43,6.95s-1.42,3.5-1.87,4.58a14.07,14.07,0,0,1-.74,1.66,1.3,1.3,0,0,1,.12-.46l.43-1.27c.44-1.18,1-2.74,1.72-4.64s1.57-4.3,2.3-7a34.61,34.61,0,0,0,1.42-8.78c-.08-6.34-1.75-11.94-2.86-15.94-.57-2-1-3.65-1.3-4.78-.14-.57-.24-1-.31-1.31A2.22,2.22,0,0,1,169.45,154.14Z"/><path class="cls-7" d="M146,148.56a18.28,18.28,0,0,0-5.46-10.74c-1.44-1.44-3.16-2.88-3.44-4.89-.36-2.61,1.9-5.05,1.53-7.66-.46-3.25-4.53-4.67-6-7.62-2-4,1.46-9.11-.64-13-1.27-2.35-4.28-3.61-4.89-6.2-.39-1.67,2.81-4.12,3.55-7.76,1.67-8.19,2.52-14.52-5.43-19.29l-4.64-6.36c-5.21,2.54-9.58,8.25-9.67,14.22,0,2.83,1.41,5.66.18,8.2-1.72,3.54-5.71,5.73-6.92,9.48-1.73,5.36,3,11.37,1,16.61-1.22,3.09-4.45,4.85-6.47,7.48a11.43,11.43,0,0,0,.73,14.34A14.43,14.43,0,0,0,94,151.52c.82,2.43,2.7,4.84,5.26,5,3.67.2,5.76-3.95,8.44-6.46a11.45,11.45,0,0,1,15.45.41c2.83,2.92,4,7.33,7.26,9.72s8.23,2,11.41-.6A12.57,12.57,0,0,0,146,148.56Z"/><path class="cls-8" d="M109.9,187c-5.24,8.62-8.9,13.58-8.9,13.58l47,28.64L142.55,242l-61-25.11s-6-6.19-3.89-13.08L87.39,177Z"/><path class="cls-9" d="M89.56,205c.11.15,2.33-1.72,5.63-2.92s6.18-1.27,6.17-1.46a12.82,12.82,0,0,0-6.37.92A12.75,12.75,0,0,0,89.56,205Z"/><path class="cls-8" d="M184.52,238l-11.73-5.61-22.89-1.82L148,229.25,142.55,242s6,2.87,9.14,3.12l19.25-.58L181,245.58Z"/><path class="cls-1" d="M250.5,192.79l-66,.53c-2.14,0-4.18,1-4.5,3.15l-7.21,48.09h-34a2,2,0,1,0,0,4H247.36l7.42-50.76A4.33,4.33,0,0,0,250.5,192.79Z"/><path class="cls-7" d="M250.5,192.79a3.28,3.28,0,0,1,1,.1,4.3,4.3,0,0,1,2.52,1.67,4.36,4.36,0,0,1,.82,2.1,12.53,12.53,0,0,1-.24,2.72c-.28,1.94-.6,4.18-.95,6.7-1.46,10.08-3.55,24.61-6.12,42.48l0,.17h-.18l-105.31.06h-2.84a2.7,2.7,0,0,1-1.5-.28,2.25,2.25,0,0,1,0-3.93,2.68,2.68,0,0,1,1.49-.28H172.8l-.26.22c2.6-17.23,5-33.3,7.19-47.71a3.76,3.76,0,0,1,1.22-2.51,4.91,4.91,0,0,1,2.53-1.12,21.76,21.76,0,0,1,2.66-.09l2.59,0,9.93-.07,17.66-.11,25.13-.13h8.46c.39,0,.59,0,.59,0l-.59,0-1.73,0-6.73.1-25.13.28-17.66.17-9.93.1-2.59,0a20.34,20.34,0,0,0-2.6.1,4.49,4.49,0,0,0-2.3,1,3.27,3.27,0,0,0-1.07,2.25c-2.15,14.42-4.55,30.49-7.12,47.72l0,.22H139.21A2.32,2.32,0,0,0,138,245a1.72,1.72,0,0,0-.78,2.09,1.65,1.65,0,0,0,.77.91,2.16,2.16,0,0,0,1.24.22h2.84l105.31.06-.2.18c2.65-17.86,4.8-32.38,6.3-42.46.38-2.51.71-4.75,1-6.69a11.85,11.85,0,0,0,.27-2.67,4.17,4.17,0,0,0-.76-2.05,4.28,4.28,0,0,0-2.44-1.69A6.53,6.53,0,0,0,250.5,192.79Z"/><circle class="cls-6" cx="214.71" cy="220.05" r="4.13"/><path class="cls-7" d="M175.47,248.08c.09,0,2.19-12.23,4.69-27.35s4.45-27.39,4.35-27.41-2.19,12.23-4.69,27.36S175.38,248.07,175.47,248.08Z"/></g></svg>