<svg xmlns="http://www.w3.org/2000/svg" viewBox="0 0 679.78 436.1"><defs><style>.cls-1,.cls-3{fill:#e0e0e0;}.cls-1,.cls-11,.cls-13{fill-rule:evenodd;}.cls-2{fill:#fafafa;}.cls-13,.cls-18,.cls-4{fill:#fff;}.cls-5{fill:#f5f5f5;}.cls-6{fill:#ebebeb;}.cls-11,.cls-7{fill:#2f57a4;}.cls-8{opacity:0.3;}.cls-9{fill:#263238;}.cls-10{fill:#455a64;}.cls-12{opacity:0.4;}.cls-14{fill:none;}.cls-15{fill:#e8505b;}.cls-16{fill:#b78876;}.cls-17{fill:#aa6550;}.cls-18,.cls-19{opacity:0.6;}.cls-20{opacity:0.5;}.cls-21{fill:#ffbe9d;}.cls-22{fill:#eb996e;}</style></defs><g id="Background_Complete" data-name="Background Complete"><path class="cls-1" d="M532,264.17a20.74,20.74,0,0,1-5.39.13l-2.78,4.15-7.72-3,.72-5a20.43,20.43,0,0,1-3.9-3.71l-4.9,1-3.36-7.56,4-3a19.9,19.9,0,0,1-.13-5.39l-4.15-2.78,3-7.72,4.95.72a20.12,20.12,0,0,1,3.71-3.9l-1-4.9,7.56-3.36,3,4a19.89,19.89,0,0,1,5.39-.13l2.78-4.15,7.72,3-.73,4.95a20.17,20.17,0,0,1,3.91,3.71l4.9-1,3.35,7.56-4,3a20.73,20.73,0,0,1,.13,5.39l4.15,2.78-3,7.71-5-.72a20.48,20.48,0,0,1-3.71,3.91l1,4.9L535,268.17l-3-4ZM532,252.3a8.87,8.87,0,1,0-11.71-4.51A8.86,8.86,0,0,0,532,252.3Z"/><rect class="cls-2" x="87.89" y="366.16" width="148.64" height="60.37"/><path class="cls-3" d="M236.53,426.53s0-.37,0-1.08,0-1.76,0-3.13c0-2.75,0-6.8,0-12,0-10.42,0-25.5-.09-44.15l.17.16-148.63.07h0l.24-.23c0,21.14,0,41.55,0,60.37l-.23-.22,106.57.1,30.92.06,8.27,0,2.14,0h.74l-.71,0h-2.11l-8.23,0-30.87.06-106.72.11h-.22v-.23c0-18.82,0-39.23,0-60.37v-.24h.24l148.63.07h.16v.17c0,18.69-.06,33.8-.09,44.25,0,5.19,0,9.23,0,12,0,1.36,0,2.4,0,3.11S236.53,426.53,236.53,426.53Z"/><path class="cls-3" d="M88,374.3c0-.13,33.22-.24,74.2-.24s74.2.11,74.2.24-33.21.23-74.2.23S88,374.43,88,374.3Z"/><circle class="cls-3" cx="93.18" cy="370.66" r="1.08"/><circle class="cls-3" cx="96.88" cy="370.66" r="1.08"/><path class="cls-3" d="M101.6,370.66a1.08,1.08,0,1,1-1.08-1.08A1.08,1.08,0,0,1,101.6,370.66Z"/><rect class="cls-3" x="100.52" y="384.11" width="35.9" height="35.9"/><path class="cls-3" d="M226.24,393.73c0,.13-18.47.24-41.25.24s-41.27-.11-41.27-.24,18.47-.23,41.27-.23S226.24,393.6,226.24,393.73Z"/><path class="cls-3" d="M226.24,401.05c0,.13-18.47.23-41.25.23s-41.27-.1-41.27-.23,18.47-.24,41.27-.24S226.24,400.92,226.24,401.05Z"/><path class="cls-3" d="M196.85,408.36a2.34,2.34,0,0,1-.54.05l-1.55,0-5.69.08-18.78.07-18.79-.07-5.69-.08-1.55,0a2.34,2.34,0,0,1-.54-.05,2.34,2.34,0,0,1,.54-.05l1.55,0,5.69-.08,18.79-.06,18.78.06,5.69.08,1.55,0A2.34,2.34,0,0,1,196.85,408.36Z"/><rect class="cls-4" x="123.9" y="337.82" width="131.31" height="88.72"/><path class="cls-3" d="M255.21,426.54s0-.56,0-1.61,0-2.64,0-4.69c0-4.1,0-10.13,0-17.84,0-15.41-.05-37.57-.1-64.58l.19.19-131.3.05h0l.23-.24c0,31.61,0,61.66,0,88.72l-.21-.22,94.6.11,27,.06,7.19,0,1.85,0h-1.8l-7.15,0-27,.06-94.74.11h-.22v-.22c0-27.06,0-57.11,0-88.72v-.24h.25l131.3.05h.19v.19c0,27.06-.07,49.26-.1,64.7,0,7.69,0,13.7-.05,17.8,0,2,0,3.59,0,4.65S255.21,426.54,255.21,426.54Z"/><path class="cls-3" d="M123.9,345.74c0-.13,29.37-.24,65.6-.24s65.6.11,65.6.24-29.36.24-65.6.24S123.9,345.87,123.9,345.74Z"/><path class="cls-3" d="M129.08,341.74a1.06,1.06,0,1,1-1.05-1.06A1.06,1.06,0,0,1,129.08,341.74Z"/><ellipse class="cls-3" cx="131.63" cy="341.74" rx="1.05" ry="1.06"/><ellipse class="cls-3" cx="135.19" cy="341.74" rx="1.05" ry="1.06"/><rect class="cls-3" x="135.19" y="354.99" width="35.03" height="35.34"/><path class="cls-3" d="M237.2,365c0,.13-13.66.24-30.5.24s-30.52-.11-30.52-.24,13.66-.24,30.52-.24S237.2,364.85,237.2,365Z"/><path class="cls-3" d="M237.2,371.55c0,.13-13.66.24-30.5.24s-30.52-.11-30.52-.24,13.66-.24,30.52-.24S237.2,371.42,237.2,371.55Z"/><path class="cls-3" d="M237.2,378.12c0,.13-13.66.23-30.5.23s-30.52-.1-30.52-.23,13.66-.24,30.52-.24S237.2,378,237.2,378.12Z"/><path class="cls-3" d="M212.25,384.68a7.07,7.07,0,0,1-1.42.1l-3.86.07c-3.27,0-7.78.07-12.75.07s-9.49,0-12.76-.07l-3.86-.07a7.07,7.07,0,0,1-1.42-.1,9.05,9.05,0,0,1,1.42-.09l3.86-.07c3.27,0,7.78-.07,12.76-.07s9.48,0,12.75.07l3.86.07A9.05,9.05,0,0,1,212.25,384.68Z"/><rect class="cls-3" x="137.38" y="402.25" width="16.46" height="16.61"/><rect class="cls-3" x="167.23" y="402.25" width="16.46" height="16.61"/><rect class="cls-3" x="197.09" y="402.25" width="16.46" height="16.61"/><rect class="cls-3" x="226.94" y="402.25" width="16.46" height="16.61"/><path class="cls-1" d="M644.62,255.82a28.25,28.25,0,0,1-7.51.18l-3.88,5.79-10.76-4.15,1-6.89a28.12,28.12,0,0,1-5.45-5.18l-6.84,1.35-4.67-10.54,5.58-4.16a28.33,28.33,0,0,1-.18-7.52l-5.79-3.88,4.15-10.76,6.89,1a28.7,28.7,0,0,1,5.18-5.45L621,198.79l10.54-4.68,4.16,5.59a28.25,28.25,0,0,1,7.51-.18l3.88-5.79,10.76,4.14-1,6.9A28.11,28.11,0,0,1,662.3,210l6.83-1.35,4.68,10.54-5.59,4.16a28.33,28.33,0,0,1,.19,7.52l5.79,3.88-4.15,10.75-6.9-1a28.05,28.05,0,0,1-5.18,5.44l1.35,6.84-10.54,4.67-4.16-5.58Zm.08-16.54A12.37,12.37,0,1,0,628.38,233,12.37,12.37,0,0,0,644.7,239.28Z"/><path class="cls-1" d="M158.41,98.27a19.14,19.14,0,0,1-5,.12l-2.59,3.86-7.17-2.77.67-4.59a18.86,18.86,0,0,1-3.63-3.46l-4.55.9-3.12-7,3.72-2.78a19.07,19.07,0,0,1-.12-5l-3.86-2.59,2.77-7.17,4.59.67a18.86,18.86,0,0,1,3.46-3.63l-.9-4.56,7-3.11,2.78,3.72a18.64,18.64,0,0,1,5-.12l2.59-3.86,7.17,2.76-.67,4.6a18.8,18.8,0,0,1,3.63,3.45l4.55-.9,3.12,7-3.72,2.77a18.72,18.72,0,0,1,.12,5l3.86,2.59-2.76,7.17-4.6-.67a19.09,19.09,0,0,1-3.45,3.63l.9,4.55-7,3.12-2.77-3.72Zm.05-11a8.24,8.24,0,1,0-10.88-4.19A8.24,8.24,0,0,0,158.46,87.24Z"/><path class="cls-3" d="M116.45,176.38s0-.33,0-.94,0-1.54,0-2.74c0-2.4,0-5.92,0-10.44,0-9,0-22.07-.08-38.06l.15.14-90.18,0h0l.19-.19c0,18.47,0,36.11,0,52.18l-.17-.17,64.87.08,18.62.05,5,0h0l-4.93,0-18.59.05-65,.08h-.17v-.17c0-16.07,0-33.71,0-52.18V124h.19l90.18,0h.14v.14c0,16-.06,29.09-.08,38.15,0,4.5,0,8,0,10.41,0,1.18,0,2.09,0,2.7S116.45,176.38,116.45,176.38Z"/><path class="cls-3" d="M116.48,130.52c0,.1-20.17.18-45,.18s-45.05-.08-45.05-.18,20.17-.19,45.05-.19S116.48,130.42,116.48,130.52Z"/><rect class="cls-5" x="34.07" y="139.12" width="27.86" height="27.86"/><path class="cls-3" d="M109.91,143.72l-.41,0-1.18,0-4.32.06-14.25.05-14.26-.05-4.32-.06-1.18,0-.41,0a1.2,1.2,0,0,1,.41,0l1.18,0,4.32-.06,14.26-.06,14.25.06,4.32.06,1.18,0A1.26,1.26,0,0,1,109.91,143.72Z"/><path class="cls-3" d="M110.8,149.94l-.42,0-1.2,0-4.41.06-14.58.05-14.57-.05L71.2,150,70,150l-.42,0a1.8,1.8,0,0,1,.42,0l1.2,0,4.42-.06,14.57-.05,14.58.05,4.41.06,1.2,0A1.69,1.69,0,0,1,110.8,149.94Z"/><path class="cls-3" d="M110.8,156.16a1.24,1.24,0,0,1-.42,0l-1.2,0-4.41.06-14.58.06-14.57-.06-4.42-.06-1.2,0a1.3,1.3,0,0,1-.42,0l.42,0,1.2,0,4.42-.06L90.19,156l14.58.05,4.41.06,1.2,0A2.24,2.24,0,0,1,110.8,156.16Z"/><path class="cls-3" d="M110.8,162.38a1.24,1.24,0,0,1-.42,0l-1.2,0-4.41.06-14.58,0-14.57,0-4.42-.06-1.2,0a1.3,1.3,0,0,1-.42,0l.42,0,1.2,0,4.42-.06,14.57-.05,14.58.05,4.41.06,1.2,0Z"/><path class="cls-3" d="M517.79,72.18s0-.22,0-.63,0-1,0-1.85c0-1.62,0-4,0-7.05,0-6.1,0-14.89,0-25.69l.1.09-60.88,0h0L457,37c0,12.47,0,24.38,0,35.22l-.11-.11,43.79.05,12.57,0,3.35,0h-3.3l-12.55,0-43.86.06h-.12v-.12c0-10.84,0-22.75,0-35.22v-.13h.13l60.88,0h.1V37c0,10.82,0,19.63-.06,25.75,0,3,0,5.41,0,7,0,.8,0,1.41,0,1.83S517.79,72.18,517.79,72.18Z"/><path class="cls-3" d="M517.81,41.22c0,.07-13.62.13-30.41.13S457,41.29,457,41.22s13.62-.12,30.42-.12S517.81,41.15,517.81,41.22Z"/><rect class="cls-5" x="462.18" y="47.03" width="18.81" height="18.81"/><path class="cls-3" d="M513.37,50.13l-.27,0-.8,0-2.91,0-9.63,0-9.62,0-2.92,0-.79,0-.28,0a1.58,1.58,0,0,1,.28,0l.79,0,2.92,0,9.62,0,9.63,0,2.91,0,.8,0A1.39,1.39,0,0,1,513.37,50.13Z"/><path class="cls-3" d="M514,54.33a1.07,1.07,0,0,1-.28,0l-.81,0-3,0-9.83,0-9.84,0-3,0-.81,0a1.11,1.11,0,0,1-.29,0l.29,0,.81,0,3,0,9.84,0,9.83,0,3,0,.81,0Z"/><path class="cls-3" d="M514,58.54l-.28,0-.81,0-3,0-9.83,0-9.84,0-3,0-.81,0-.29,0,.29,0,.81,0,3,0,9.84,0,9.83,0,3,0,.81,0Z"/><path class="cls-3" d="M514,62.74l-.28,0-.81,0-3,0-9.83,0-9.84,0-3,0-.81,0-.29,0a1.11,1.11,0,0,1,.29,0l.81,0,3,0,9.84,0,9.83,0,3,0,.81,0A1.07,1.07,0,0,1,514,62.74Z"/><path class="cls-6" d="M609.81,364.82a11.9,11.9,0,0,0-6.77,6.44,20.93,20.93,0,0,0-1.65,9.37c.15,6.2,3.1,12.7,6.42,17.93,5.56-4.06,7.44-11.82,8.14-15.81,1.12-6.32-.7-18.41-6.14-17.93"/><path class="cls-6" d="M600.92,408.15a10.2,10.2,0,0,0-2.43-9.93,13.56,13.56,0,0,0-9.66-4c-1.66,0-3.47.31-4.53,1.58a4.36,4.36,0,0,0-.46,4.39,8.94,8.94,0,0,0,3,3.49c4.22,3.2,8.9,5.52,14.1,4.44"/><path class="cls-3" d="M605.79,422.88a20.59,20.59,0,0,0-.35-4.09,18.94,18.94,0,0,0-1.19-4.31,42.22,42.22,0,0,0-2.24-5,20.37,20.37,0,0,0-6.66-7.33,15.17,15.17,0,0,0-2.7-1.35,3,3,0,0,0-1.08-.26c-.05.11,1.46.59,3.51,2a21.86,21.86,0,0,1,6.32,7.27,49.41,49.41,0,0,1,2.26,4.87,21.69,21.69,0,0,1,1.3,4.17A29.5,29.5,0,0,0,605.79,422.88Z"/><path class="cls-3" d="M610.38,374.15a11.94,11.94,0,0,0-.39,2c-.2,1.31-.47,3.22-.78,5.58-.62,4.73-1.41,11.26-2.1,18.5s-1.13,13.81-1.34,18.57c-.11,2.38-.18,4.31-.2,5.64a11.5,11.5,0,0,0,0,2.07,11.07,11.07,0,0,0,.23-2.05c.11-1.46.25-3.35.42-5.63.34-4.75.86-11.3,1.54-18.53s1.4-13.65,1.9-18.51c.23-2.27.42-4.16.56-5.61A11.86,11.86,0,0,0,610.38,374.15Z"/><path class="cls-6" d="M608.51,411.19a23.79,23.79,0,0,1,16.57-14.09c1.87-.42,4.2-.45,5.3,1.13s.27,3.76-.81,5.35a20.35,20.35,0,0,1-21.06,8.13"/><path class="cls-3" d="M622.66,402.17a3.58,3.58,0,0,0-1.06.28c-.67.2-1.61.57-2.77,1.05a27,27,0,0,0-8.24,5.3,16.71,16.71,0,0,0-3.18,4.41,16.41,16.41,0,0,0-1.63,7.19,3.07,3.07,0,0,0,.08,1.09c.14,0,.13-1.55.66-4a16.63,16.63,0,0,1,4.56-8.24,30.11,30.11,0,0,1,8-5.34A32.7,32.7,0,0,0,622.66,402.17Z"/></g><g id="Plant"><path class="cls-7" d="M57.45,410.11c.58-2.26-.9-4.54-2.57-6.18s-3.66-3.12-4.52-5.29c-1.41-3.52.48-8.09-1.91-11-1.41-1.73-3.94-2.31-5.19-4.16a9.44,9.44,0,0,1-1.13-3.3,33.55,33.55,0,0,0-8.33-15.6,29,29,0,0,0,3.27,15c1,1.85,2.16,3.65,2.48,5.71.52,3.35-1.35,6.8-.52,10.08.94,3.76,5.16,6.28,5.36,10.15.17,3.27-2.68,6.14-2.47,9.41a8.8,8.8,0,0,0,1.46,3.88c2.53,4.21,6.24,7.1,11.88,7l6.9.24Z"/><g class="cls-8"><path d="M57.45,410.11c.58-2.26-.9-4.54-2.57-6.18s-3.66-3.12-4.52-5.29c-1.41-3.52.48-8.09-1.91-11-1.41-1.73-3.94-2.31-5.19-4.16a9.44,9.44,0,0,1-1.13-3.3,33.55,33.55,0,0,0-8.33-15.6,29,29,0,0,0,3.27,15c1,1.85,2.16,3.65,2.48,5.71.52,3.35-1.35,6.8-.52,10.08.94,3.76,5.16,6.28,5.36,10.15.17,3.27-2.68,6.14-2.47,9.41a8.8,8.8,0,0,0,1.46,3.88c2.53,4.21,6.24,7.1,11.88,7l6.9.24Z"/></g><path class="cls-9" d="M63.55,426.26a5.31,5.31,0,0,0,1.9,0,11.38,11.38,0,0,0,2.24-.56,9.48,9.48,0,0,0,2.77-1.52,3.84,3.84,0,0,0,1.14-1.52,7.28,7.28,0,0,0,.33-2.06,17.21,17.21,0,0,1,.16-2.23,6,6,0,0,1,.84-2.22c.81-1.43,2.17-2.78,2.6-4.72a15.51,15.51,0,0,0-.19-6.05,12.74,12.74,0,0,1,.17-6.48c.74-2.16,2.25-4.11,3-6.54s.41-5.1.57-7.71a10.12,10.12,0,0,1,.9-3.83c.55-1.22,1.33-2.37,1.93-3.66,1.23-2.59,1.44-5.54,1.78-8.43.16-1.45.33-2.92.49-4.41a22,22,0,0,1,.77-4.41,38.66,38.66,0,0,1,1.65-4.27,14.35,14.35,0,0,0,.8-2.23,21.31,21.31,0,0,0,.22-2.37,27.35,27.35,0,0,0-.18-4.78c-.19-1.59-.47-3.17-.65-4.76l0-.28,0-.32-.29.14a10.74,10.74,0,0,0-3.71,3.14,16.64,16.64,0,0,0-2.28,4.2,52.22,52.22,0,0,0-2.15,9,24.58,24.58,0,0,1-2.83,8.34c-.76,1.23-1.68,2.35-2.48,3.55a9.85,9.85,0,0,0-1.71,3.94c-.41,2.91,1.2,5.48.87,8.06a8.87,8.87,0,0,1-1.26,3.58C70.26,386,69.53,387,68.83,388A19.56,19.56,0,0,0,67,391.19a10.14,10.14,0,0,0-.84,3.46c-.17,2.32.16,4.53,0,6.62a15.3,15.3,0,0,1-1.7,5.67c-.84,1.69-1.77,3.23-2.55,4.72a22.93,22.93,0,0,0-1,2.2,10.64,10.64,0,0,0-.61,2.18,14.15,14.15,0,0,0,0,3.94,9.87,9.87,0,0,0,2,5,5.6,5.6,0,0,0,.55.6,3.42,3.42,0,0,0,.46.39,4.07,4.07,0,0,0,.39.27,8.08,8.08,0,0,1-1.33-1.32,10,10,0,0,1-1.88-5,13.82,13.82,0,0,1,.09-3.88,11.06,11.06,0,0,1,.61-2.13c.29-.71.66-1.43,1.05-2.17.79-1.47,1.73-3,2.58-4.71a15.52,15.52,0,0,0,1.76-5.77c.18-2.13-.14-4.34,0-6.62a9.71,9.71,0,0,1,.83-3.34,19.85,19.85,0,0,1,1.83-3.12c.7-1,1.44-2,2.09-3.17a9.4,9.4,0,0,0,1.31-3.73c.34-2.75-1.26-5.33-.84-8a9.1,9.1,0,0,1,1.65-3.76c.79-1.18,1.71-2.3,2.49-3.56a25.28,25.28,0,0,0,2.9-8.49,51.39,51.39,0,0,1,2.13-9,16.56,16.56,0,0,1,2.22-4.09,10.25,10.25,0,0,1,3.56-3l-.32-.17c0,.08,0,.18,0,.27.18,1.62.46,3.2.65,4.77a27.58,27.58,0,0,1,.18,4.71,21.36,21.36,0,0,1-.21,2.3,14.54,14.54,0,0,1-.77,2.15,39.71,39.71,0,0,0-1.67,4.32,21.9,21.9,0,0,0-.77,4.48c-.17,1.49-.33,3-.49,4.41-.33,2.9-.55,5.8-1.73,8.31-.58,1.25-1.35,2.41-1.93,3.67a10.69,10.69,0,0,0-.92,4c-.15,2.66.19,5.27-.53,7.62s-2.22,4.31-3,6.54a13.27,13.27,0,0,0-.15,6.64,15.38,15.38,0,0,1,.23,5.93c-.4,1.86-1.71,3.2-2.54,4.67a6.21,6.21,0,0,0-.86,2.3,20.13,20.13,0,0,0-.14,2.26,7.12,7.12,0,0,1-.3,2A3.82,3.82,0,0,1,70.35,424a9.3,9.3,0,0,1-2.7,1.52,11.62,11.62,0,0,1-2.21.6,9.22,9.22,0,0,1-1.41.14Z"/><path class="cls-9" d="M85.35,345a1.26,1.26,0,0,0-.06.21c0,.16-.09.37-.16.62-.13.54-.29,1.36-.55,2.39s-.9,2.18-1.44,3.6-1.12,3.05-1.64,4.9-1,3.88-1.48,6.07a25.31,25.31,0,0,1-2.21,6.74c-.56,1.12-1.2,2.25-1.7,3.49a16.43,16.43,0,0,0-1,4,80.58,80.58,0,0,1-1.48,8.35c-1.39,5.65-2.71,11-3.91,15.94s-2.33,9.29-3.26,13L64.29,423l-.57,2.39c0,.26-.1.46-.14.63a1.13,1.13,0,0,0,0,.21s0-.06.08-.2.1-.37.18-.62c.15-.57.37-1.36.65-2.37.55-2.1,1.33-5.07,2.3-8.74s2.1-8.1,3.36-13,2.54-10.29,3.94-15.94A79.59,79.59,0,0,0,75.54,377a15.71,15.71,0,0,1,1-3.86c.49-1.21,1.11-2.34,1.68-3.47a25.77,25.77,0,0,0,2.2-6.84c.47-2.2.92-4.23,1.43-6.07a49.83,49.83,0,0,1,1.57-4.89c.5-1.42,1.11-2.59,1.36-3.65s.37-1.86.48-2.41l.11-.63A.73.73,0,0,0,85.35,345Z"/><path class="cls-7" d="M64.77,426.28c4.51-2.67,5.8-10.81,3.92-15.7S63.52,401.21,63,396c-.39-4,.93-8.13,0-12.05-1.26-5.29-6.42-9.39-6.37-14.83,0-3.05,1.77-5.92,1.64-9-.17-3.74-3-6.71-4.82-10-2.72-5-2.9-11-3.83-16.66s-3.09-11.71-8.1-14.48c-.74,4.79-2,8.08-1.6,14.58.14,2.34,2.85,6.81,3.22,11.93.22,3.06.37,6.12.56,9.18a29.65,29.65,0,0,0,1.44,8.8c.82,2.14,2.14,4.08,2.74,6.28,1.15,4.15-.35,8.64.57,12.84.78,3.57,3.24,6.63,3.75,10.24.71,5.07-2.58,10.34-.9,15.18.84,2.4,2.81,4.33,3.37,6.81.44,1.92,0,4,.36,5.89.63,3.12,6.57,5.53,9.74,5.34"/><path class="cls-9" d="M42.77,323.77a.79.79,0,0,0,0,.27c0,.2.06.46.11.79.1.69.22,1.71.45,3s.93,2.81,1.48,4.61,1.15,3.85,1.65,6.17,1,4.87,1.4,7.62a31.6,31.6,0,0,0,2.31,8.63c.63,1.44,1.34,2.88,1.87,4.42a19.38,19.38,0,0,1,1,4.87,101.58,101.58,0,0,0,1.32,10.49c1.38,7.12,2.7,13.89,3.9,20.05s2.39,11.68,3.35,16.34,1.75,8.37,2.3,11c.28,1.27.49,2.27.65,3,.07.32.13.57.18.77a1.23,1.23,0,0,0,.07.26.93.93,0,0,0,0-.27c0-.2-.08-.46-.14-.78-.13-.72-.32-1.72-.56-3-.52-2.64-1.25-6.4-2.16-11s-2-10.2-3.26-16.35-2.49-12.93-3.86-20a103.74,103.74,0,0,1-1.33-10.47,19.57,19.57,0,0,0-1-5c-.55-1.57-1.27-3-1.9-4.45a31.79,31.79,0,0,1-2.32-8.52c-.47-2.75-.92-5.31-1.45-7.63s-1.13-4.39-1.73-6.18-1.27-3.28-1.54-4.57-.4-2.32-.54-3c-.06-.33-.1-.59-.14-.79Z"/></g><g id="Speech_Bubble" data-name="Speech Bubble"><path class="cls-9" d="M553.15,107.19a2.19,2.19,0,0,1,0,.39c0,.29,0,.65,0,1.1,0,1,0,2.36.06,4.08,0,3.54.07,8.5.12,14.42l-.23-.22,20,0c.06,0-.49.5-.26.26h0v-2.71c0-.9,0-1.79,0-2.67v-5.17c0-3.35,0-6.52,0-9.43l.22.23-14.42-.12-4.09-.06-1.09,0-.39,0a1.17,1.17,0,0,1,.34,0l1,0,4-.06,14.56-.11h.23v.23c0,2.91,0,6.08,0,9.43,0,1.68,0,3.41,0,5.17v5.38h0c.24-.23-.31.32-.26.27l-20,0h-.23v-.23c0-6,.08-11,.11-14.56,0-1.7,0-3.05.06-4q0-.63,0-1A1.17,1.17,0,0,1,553.15,107.19Z"/><path class="cls-7" d="M577.31,102.73c.34.27-4,6-9.59,12.91l-3.38,4-.49.59-.56-.5c-4.7-4.2-7.92-7.36-7.7-7.62s3.82,2.46,8.66,6.5l-1,.09,3.31-4.1C572.14,107.79,577,102.45,577.31,102.73Z"/><path class="cls-10" d="M562.54,86.87a2.38,2.38,0,0,1,.5,0l1.47,0c.32,0,.68,0,1.07,0l1.3.18,1.5.22,1.69.41a27.24,27.24,0,0,1,8.15,3.56A28.81,28.81,0,0,1,591.45,113a30.5,30.5,0,0,1,.08,4c0,.67,0,1.34-.13,2s-.2,1.35-.31,2a28.82,28.82,0,0,1-2.74,8,31,31,0,0,1-5.24,7.21,30.14,30.14,0,0,1-7.56,5.43,27.3,27.3,0,0,1-9.21,2.83,18.13,18.13,0,0,1-2.45.21,23,23,0,0,1-2.49,0,28.81,28.81,0,0,1-14.87-4.79l.3,0L536.74,144l-.59.24.17-.62q1.51-5.55,3-10.79l.05.27A29,29,0,0,1,534,120.78a26,26,0,0,1-.39-6.31,20.07,20.07,0,0,1,.28-3c.08-.5.16-1,.23-1.48s.24-1,.35-1.43a28.85,28.85,0,0,1,11.26-16.4,27.78,27.78,0,0,1,6.69-3.54l1.51-.53,1.43-.37,1.31-.32c.42-.08.83-.13,1.21-.19.76-.09,1.43-.22,2-.25l1.48-.05.91,0a1.36,1.36,0,0,1,.3,0l-.3,0-.9.07-1.48.1c-.58,0-1.24.19-2,.3a28.72,28.72,0,0,0-22.93,21.28c-.11.46-.25.93-.34,1.4s-.14,1-.22,1.45a19.53,19.53,0,0,0-.26,3,25.52,25.52,0,0,0,.4,6.19,28.5,28.5,0,0,0,5.31,12l.09.12,0,.15-2.94,10.78-.43-.38,10.09-4.05.15-.07.15.1a28.59,28.59,0,0,0,9.68,4.07,29.63,29.63,0,0,0,4.86.61,21.9,21.9,0,0,0,2.43,0,17.54,17.54,0,0,0,2.4-.21,26.63,26.63,0,0,0,9-2.75,29.81,29.81,0,0,0,7.41-5.3,30.56,30.56,0,0,0,5.15-7,28.66,28.66,0,0,0,2.71-7.86c.1-.66.2-1.33.31-2s.08-1.32.13-2a29.42,29.42,0,0,0-.06-3.88A28.51,28.51,0,0,0,578,91.63,27.46,27.46,0,0,0,570,88l-1.66-.44-1.49-.25-1.28-.21c-.4,0-.75,0-1.07-.08l-1.46-.1Z"/></g><g id="Gears"><path class="cls-11" d="M527.85,347.53a31.91,31.91,0,0,1-6.94-4.89l-7.42,2.64-7-11,5.56-5.58a31.66,31.66,0,0,1-1.46-8.36L503.51,317l2.85-12.71,7.87,0a32.15,32.15,0,0,1,4.89-6.94l-2.64-7.41,11-7,5.58,5.55a32.07,32.07,0,0,1,8.37-1.46l3.37-7.1,12.71,2.85,0,7.87a31.57,31.57,0,0,1,6.94,4.89l7.42-2.64,7,11-5.56,5.58a31.66,31.66,0,0,1,1.46,8.36l7.11,3.38L579,333.9h-7.87a32,32,0,0,1-4.89,6.95l2.64,7.41-11,7-5.58-5.55a32.07,32.07,0,0,1-8.37,1.45l-3.37,7.11-12.71-2.85,0-7.87Zm11.2-14.95a14,14,0,1,0-10.57-16.69A14,14,0,0,0,539.05,332.58Z"/><path class="cls-9" d="M617.74,310.36a6.12,6.12,0,0,1-1.92-.6A8.1,8.1,0,0,1,612,305.9a8.2,8.2,0,0,1,.51-7.92,8.23,8.23,0,0,1,3.66-3.15,8.29,8.29,0,0,1,9.62,2.15,8.4,8.4,0,0,1,2,4.42,8.26,8.26,0,0,1-2.93,7.38,8.08,8.08,0,0,1-5.1,1.86,6,6,0,0,1-2-.28,18.93,18.93,0,0,0,2,.1,8.12,8.12,0,0,0,4.9-1.94,7.88,7.88,0,0,0,2.16-2.94,8,8,0,0,0,.55-4.13,7.29,7.29,0,0,0-.62-2.18,7.15,7.15,0,0,0-1.27-2,7.86,7.86,0,0,0-9.08-2,7.46,7.46,0,0,0-2,1.26,7.3,7.3,0,0,0-1.49,1.71,7.93,7.93,0,0,0-.57,7.55,8.1,8.1,0,0,0,3.6,3.84A17,17,0,0,0,617.74,310.36Z"/><path class="cls-9" d="M611.24,319s0,.09,0,.28,0,.5,0,.87c0,.79,0,1.93.05,3.41l-.06-.07,7.39,1.61-.14.07c.59-1.25,1.25-2.65,1.94-4.13l0-.08h.08a18.5,18.5,0,0,0,4.82-.86l.08,0,.07.06,3.25,3.21-.21,0,6.37-4.06-.07.22c-.48-1.33-1-2.8-1.54-4.3l0-.11.08-.09a18.57,18.57,0,0,0,2.8-4l.05-.11h.13l4.56,0-.2.16c.52-2.31,1.07-4.81,1.64-7.37l.12.24L638.36,302l-.12-.06v-.13a18.5,18.5,0,0,0-.84-4.8l0-.13.1-.1,3.22-3.23,0,.28-4-6.38.27.09-4.3,1.53-.13.05-.11-.09a18,18,0,0,0-4-2.8h0l-.13-.21h0v-2.28c0-.76,0-1.52,0-2.28l.18.23L621,280l.26-.12-2,4.12-.06.13h-.14a18.29,18.29,0,0,0-4.79.83l-.13,0-.1-.09-3.23-3.23.27,0-6.38,4,.08-.25,1.53,4.3,0,.12-.08.09a18.26,18.26,0,0,0-2.82,4l0,.11h-4.69L599,294c-.59,2.59-1.14,5-1.67,7.37l-.1-.2,4.12,2,.09,0v.11a18.12,18.12,0,0,0,.82,4.81l0,.09-.07.06L599,311.45l0-.17,4,6.4-.13,0,4.31-1.51h.05l0,0a19.43,19.43,0,0,0,2.93,2.26l.79.47a2.53,2.53,0,0,1,.26.16l-.28-.13c-.18-.09-.45-.23-.81-.44a18.53,18.53,0,0,1-3-2.21h.07l-4.29,1.56-.08,0,0-.07c-1.15-1.8-2.5-3.9-4.07-6.37l-.06-.09.08-.08L602,308l0,.15a19.05,19.05,0,0,1-.87-4.89l.1.14-4.13-2-.13-.06,0-.14c.52-2.33,1.07-4.78,1.64-7.37l0-.15h.15l4.57,0-.18.11a18.79,18.79,0,0,1,2.86-4.08l0,.21c-.51-1.41-1-2.84-1.54-4.3l-.06-.16.15-.09,6.37-4.05.15-.1.13.13,3.24,3.22-.23-.06a18.79,18.79,0,0,1,4.91-.85l-.19.13c.64-1.37,1.3-2.74,2-4.13l.08-.16.18,0,7.38,1.65.18,0V286h0l-.13-.21h0a18.71,18.71,0,0,1,4.07,2.88l-.24-.05,4.31-1.53.17-.07.1.16,4,6.39.1.15-.13.13-3.22,3.23.05-.22a19,19,0,0,1,.85,4.91l-.12-.19,4.12,2,.15.07,0,.17c-.58,2.56-1.14,5.06-1.67,7.37l0,.17h-4.73l.17-.11a18.83,18.83,0,0,1-2.87,4.07l0-.2,1.52,4.31,0,.14-.12.07-6.39,4-.12.07-.09-.09-3.23-3.23.16,0a18.64,18.64,0,0,1-4.9.83l.12-.08c-.71,1.49-1.38,2.87-2,4.12l0,.08-.1,0-7.36-1.69-.06,0v-.06c0-1.46,0-2.6,0-3.38,0-.37,0-.66,0-.88A1.71,1.71,0,0,1,611.24,319Z"/><path class="cls-11" d="M574.66,275.54a15.82,15.82,0,0,1-3.44-2.43l-3.68,1.31L564.08,269l2.76-2.77a15.64,15.64,0,0,1-.72-4.15l-3.53-1.68,1.41-6.3h3.91a15.88,15.88,0,0,1,2.42-3.44L569,246.94l5.46-3.46,2.77,2.75a16.41,16.41,0,0,1,4.15-.72l1.67-3.52,6.31,1.41v3.9a15.82,15.82,0,0,1,3.44,2.43l3.68-1.31,3.46,5.46-2.76,2.77a16,16,0,0,1,.73,4.15l3.52,1.67-1.41,6.31h-3.91a15.51,15.51,0,0,1-2.42,3.45l1.31,3.68-5.46,3.46-2.77-2.76a15.57,15.57,0,0,1-4.15.72L581,280.86l-6.31-1.42v-3.9Zm5.56-7.42a6.93,6.93,0,1,0-5.24-8.28A6.92,6.92,0,0,0,580.22,268.12Z"/><g class="cls-12"><path class="cls-13" d="M574.66,275.54a15.82,15.82,0,0,1-3.44-2.43l-3.68,1.31L564.08,269l2.76-2.77a15.64,15.64,0,0,1-.72-4.15l-3.53-1.68,1.41-6.3h3.91a15.88,15.88,0,0,1,2.42-3.44L569,246.94l5.46-3.46,2.77,2.75a16.41,16.41,0,0,1,4.15-.72l1.67-3.52,6.31,1.41v3.9a15.82,15.82,0,0,1,3.44,2.43l3.68-1.31,3.46,5.46-2.76,2.77a16,16,0,0,1,.73,4.15l3.52,1.67-1.41,6.31h-3.91a15.51,15.51,0,0,1-2.42,3.45l1.31,3.68-5.46,3.46-2.77-2.76a15.57,15.57,0,0,1-4.15.72L581,280.86l-6.31-1.42v-3.9Zm5.56-7.42a6.93,6.93,0,1,0-5.24-8.28A6.92,6.92,0,0,0,580.22,268.12Z"/></g><path class="cls-14" d="M211,101.68a14.62,14.62,0,0,1-3.85.09l-2,3-5.52-2.13.52-3.53a14.88,14.88,0,0,1-2.79-2.65l-3.5.69-2.4-5.4,2.86-2.14a14.62,14.62,0,0,1-.09-3.85l-3-2,2.12-5.51,3.53.51A14.62,14.62,0,0,1,199.61,76l-.69-3.5,5.39-2.4,2.14,2.87a14.22,14.22,0,0,1,3.85-.1l2-3L217.8,72l-.52,3.53a14.62,14.62,0,0,1,2.79,2.66l3.5-.69,2.4,5.4L223.11,85a14.63,14.63,0,0,1,.09,3.85l3,2L224,96.37l-3.53-.52a14.62,14.62,0,0,1-2.66,2.79l.7,3.5-5.4,2.4L211,101.68Zm0-8.48A6.33,6.33,0,1,0,202.69,90,6.34,6.34,0,0,0,211.05,93.2Z"/><path class="cls-15" d="M211.05,93.2s-.11.08-.35.2a5.35,5.35,0,0,1-1.12.35,6.34,6.34,0,0,1-4.23-.63,6.52,6.52,0,0,1-2.58-9A6.53,6.53,0,0,1,209.89,81a6.52,6.52,0,0,1,4.93,7.94,6.24,6.24,0,0,1-2.37,3.55,4.56,4.56,0,0,1-1,.6c-.25.1-.38.15-.39.13s.51-.26,1.28-.89a6.31,6.31,0,0,0,2.13-3.48,6.15,6.15,0,0,0-1.58-5.64,6.1,6.1,0,0,0-10.47,4.64,6.19,6.19,0,0,0,3.11,5,6.41,6.41,0,0,0,4,.75C210.52,93.4,211,93.15,211.05,93.2Z"/><path class="cls-15" d="M211,101.68s.06,0,.15.16l.42.53,1.63,2.12-.1,0,5.38-2.44-.07.15-.72-3.5v-.09l.07-.06a14.46,14.46,0,0,0,2.61-2.77l.06-.08h.1l3.54.5-.2.12c.66-1.74,1.37-3.58,2.1-5.52l.08.25-3-2L223,89l0-.13a14.32,14.32,0,0,0-.11-3.79l0-.13.11-.08,2.86-2.14-.08.28c-.75-1.69-1.57-3.52-2.4-5.4l.27.14-3.5.7-.15,0-.09-.12a14.57,14.57,0,0,0-2.75-2.6l-.12-.09,0-.15c.16-1.11.34-2.32.51-3.54l.16.28-5.51-2.12.31-.1-2,3-.09.13-.15,0a14.59,14.59,0,0,0-3.78.09h0l-.25-.1h0v0l0-.05-.06-.09-.14-.18-.27-.36-.53-.71-1.06-1.43.31.08L199,72.7l.15-.29c.23,1.18.46,2.35.69,3.5l0,.15-.12.1a14.09,14.09,0,0,0-2.61,2.74l-.09.12-.15,0-3.54-.52.27-.16-2.13,5.51-.09-.28,3,2,.12.08,0,.14a14.1,14.1,0,0,0,.09,3.79l0,.13-.11.09-2.87,2.12.07-.26L194.07,97l-.22-.12,3.5-.68.11,0,.08.09a14.09,14.09,0,0,0,2.74,2.63l.09.06,0,.1c-.19,1.29-.37,2.44-.53,3.53l-.1-.16,5.5,2.16-.14,0,2-3,0,0h0a15.37,15.37,0,0,0,2.89.06l.72-.06c.16,0,.24,0,.23,0l-.23,0-.71.11a13.59,13.59,0,0,1-2.91,0l.07,0c-.53.82-1.18,1.79-2,3l-.05.08-.09,0c-1.56-.6-3.38-1.29-5.52-2.09l-.12-.05,0-.12c.16-1.09.32-2.25.5-3.54l.07.17a14.82,14.82,0,0,1-2.84-2.68l.19.07-3.5.7-.16,0-.06-.14c-.77-1.71-1.57-3.5-2.41-5.4l-.08-.15.14-.11,2.86-2.14-.09.22a15,15,0,0,1-.1-3.91l.1.22-3-2-.16-.11.07-.18,2.12-5.51.07-.19.2,0,3.53.51-.24.1a14.5,14.5,0,0,1,2.7-2.84l-.09.25c-.23-1.16-.46-2.32-.7-3.5l0-.2.19-.09,5.4-2.39.19-.09.12.17c.36.47.71,1,1.07,1.43l.53.71.27.36.13.18.07.09,0,0,0,0h0l-.25-.1h0a14.74,14.74,0,0,1,3.91-.1l-.24.12,2-3,.12-.17.19.07,5.51,2.13.19.08,0,.2c-.18,1.22-.36,2.42-.52,3.53l-.1-.24a14.61,14.61,0,0,1,2.83,2.7l-.24-.09,3.5-.68.2,0,.07.18,2.39,5.4.07.17-.14.11-2.87,2.13.09-.22a14.74,14.74,0,0,1,.08,3.91l-.09-.2,3,2,.14.09-.06.15c-.76,1.93-1.47,3.77-2.15,5.5l-.05.14-.15,0L220.48,96l.17-.07a14.79,14.79,0,0,1-2.7,2.81l.05-.15c.25,1.26.47,2.44.67,3.51l0,.1-.09,0-5.42,2.35-.06,0,0,0-1.54-2.15-.4-.56Z"/><path class="cls-7" d="M211.05,93.2l-.18.07a4.61,4.61,0,0,1-.56.2,6.29,6.29,0,0,1-2.25.26,6.51,6.51,0,0,1-3.38-1.25,6.36,6.36,0,0,1-.75-9.52,6.4,6.4,0,0,1,9.4.25,6.44,6.44,0,0,1,.79,7.39,6.6,6.6,0,0,1-1.26,1.63,7.2,7.2,0,0,1-.81.65l-.43.28-.23.13-.11.06,0,0h0s0,0,0,0,.12-.12,0-.28L211,93a4,4,0,0,0,.74-.35A6.13,6.13,0,0,0,214.55,86a6.25,6.25,0,0,0-10.78-2.75,6.29,6.29,0,0,0,.94,9.24A6.43,6.43,0,0,0,208,93.72a6.07,6.07,0,0,0,2.27-.25c.5-.15.75-.28.75-.27a1.86,1.86,0,0,1-.72.37,5.84,5.84,0,0,1-2.31.35,6.44,6.44,0,0,1-3.48-1.21,6.6,6.6,0,0,1-2.63-4.09,6.7,6.7,0,0,1,7.86-7.84A6.69,6.69,0,0,1,215,85.87a6.62,6.62,0,0,1-3,7.18,4.3,4.3,0,0,1-.87.4l-.2.07-.1-.2a.3.3,0,0,1,.05-.31l0,0,0,0,.06,0,.12-.06.21-.12.41-.27a6.16,6.16,0,0,0,.75-.6,6.43,6.43,0,0,0,1.16-1.49,6.14,6.14,0,0,0,.72-3.59A6.07,6.07,0,0,0,213,83.54a5.89,5.89,0,0,0-2.86-1.82,6,6,0,0,0-7.52,6.65,6.05,6.05,0,0,0,2.28,3.88,6.22,6.22,0,0,0,3.21,1.28,6.68,6.68,0,0,0,2.22-.16C210.79,93.26,211.05,93.15,211.05,93.2Z"/><path class="cls-7" d="M211,101.68c.23.29.82,1.1,2.16,2.9l-.07,0,5.51-2.45-.05.11c-.22-1.08-.45-2.28-.71-3.58l.21,0,0,.1-.17-.12a15.12,15.12,0,0,0,2.66-2.79l.14.18-.11,0,0-.23,3.63.53-.14.08c.69-1.79,1.42-3.7,2.2-5.71l.06.18-3.07-2.05.24-.2.06.14-.3.05a14.36,14.36,0,0,0-.1-3.85l.33,0-.06.15-.26-.2,3-2.21L226,83c-.78-1.74-1.63-3.66-2.51-5.64l.21.11-3.63.72,0-.38.17.07-.22.3a14.71,14.71,0,0,0-2.78-2.65l.3-.24.07.17-.39,0c.17-1.12.35-2.39.54-3.67l.13.22-5.78-2.22.25-.08-2.06,3.08-.28-.32.17-.08.07.42a14.29,14.29,0,0,0-3.84.1h0l0-.42h0l-.18.41h0s0,0,.08,0l.14-.39,0,0h0l.05,0,.13,0-.27.34c-.68-.91-1.44-1.94-2.22-3l.28.07-5.66,2.52.13-.26.72,3.64-.45,0,.06-.17.37.27A14.32,14.32,0,0,0,197,78.79l-.29-.36.16-.08.06.47-3.67-.53.26-.16c-.68,1.79-1.44,3.77-2.21,5.77l-.09-.29,3.08,2-.37.32-.07-.16.48-.08a14.17,14.17,0,0,0,.1,3.83l-.48-.06.06-.15.38.3-2.95,2.21.08-.31,2.5,5.61-.28-.15,3.6-.72,0,.5-.13,0,.29-.4A14.47,14.47,0,0,0,200.26,99l-.39.31-.05-.12.5-.06c-.16,1.13-.34,2.37-.52,3.62l-.16-.28,5.66,2.15-.31.1,2-3,.32.38,0,0-.09-.49a13.4,13.4,0,0,0,3.28-.06l.26,0s0,0,0,0a.11.11,0,0,0,0,0l0,0h0c-.08,0,0,.39.14.35H211l-.54,0c-.37,0-.75.06-1.12.07a15,15,0,0,1-2.23-.09l.24-.11-2,3-.29-.4.1,0,0,.49-5.5-2.15.32-.37.06.12-.48.09c.19-1.21.36-2.41.54-3.6l.11.24a14.59,14.59,0,0,1-2.92-2.79l.25.09-3.58.7.07-.48.15.08-.35.33q-1.2-2.73-2.38-5.4l.48,0,0,.18-.4-.27,2.94-2.18-.09.24a14.19,14.19,0,0,1-.09-4.06l.1.23-3-2,.38-.28.06.2h-.47l2.13-5.51.35.3-.18.11-.09-.45,3.64.53-.23.1a14.6,14.6,0,0,1,2.81-3l-.08.23c-.24-1.24-.48-2.43-.71-3.61l.44.06-.1.2-.31-.32L204.3,70l0,.43-.22-.06.24-.35,2.13,2.86-.09-.07.12,0,.06,0h0l-.24.13.09.29h0l.17-.42h0l-.1,0h0a14.42,14.42,0,0,1,4-.08l-.21.09,2.06-3.05.24.32-.21.07v-.41L217.81,72l-.26.3-.11-.19.38-.08c-.18,1.29-.36,2.48-.53,3.64l-.08-.19a14.6,14.6,0,0,1,2.94,2.8l-.19-.06,3.61-.71,0,.35-.19-.1.26-.24,2.39,5.4-.33,0,0-.2.28.19L223,85.08l.06-.16a14.6,14.6,0,0,1,.1,4l-.07-.15,3,2-.23.17-.05-.17h.28c-.8,2.09-1.49,3.85-2.12,5.51l-.2-.16.14-.09,0,.25-3.6-.53.11,0a14.28,14.28,0,0,1-2.75,2.89l0-.1c.3,1.49.51,2.57.71,3.56l-.18,0,.06-.1.12.12-5.4,2.4v-.11l.07,0-.06.09L211,101.68a4.34,4.34,0,0,1,.57.67l1.66,2.12.1.13-.16,0-.07,0-.16,0,.15-.07,5.37-2.46.24-.11-.12.24-.05.1-.12.24-.06-.26c-.2-1-.42-2.07-.73-3.56v-.06l0,0a14,14,0,0,0,2.68-2.87l.05-.06h.07l3.61.51.38,0-.33.19-.14.09-.33.19.14-.36,2.09-5.52.15-.4.13.41.06.17.13.41L226,91.1l-3.05-2-.08-.06v-.09a14.35,14.35,0,0,0-.11-4l0-.1.08-.07c.92-.68,1.86-1.39,2.93-2.2l.41-.3-.13.49,0,.2-.13.48-.2-.46c-.76-1.69-1.55-3.45-2.41-5.39l-.22-.49.47.25.19.1.48.24-.53.11-3.6.72-.12,0-.07-.09A13.91,13.91,0,0,0,217,75.77l-.1-.07,0-.13c.17-1.16.34-2.35.53-3.64l.08-.58.3.51.11.19.3.51-.55-.21-5.52-2.11-.57-.22.59-.19.21-.07.59-.18-.35.51-2,3.06-.08.11-.13,0a14.18,14.18,0,0,0-3.84.09h-.08l-.05,0h0l0-.11v0l.09-.21,0-.08h0l.1.28-.25.13h0l-.06,0-.12-.05-.06,0,0,0L204,70.31l-.39-.52.63.16.22.06.63.16-.6.27-5.4,2.4-.61.27.31-.59.1-.2.31-.6.13.66c.24,1.18.47,2.37.72,3.61l0,.14-.11.09a14,14,0,0,0-2.72,2.86l-.09.12-.14,0-3.64-.53-.69-.1.6-.35.19-.11.6-.36-.25.66-2.13,5.51-.25.65-.21-.67-.07-.2-.21-.67.59.39,3,2,.13.08,0,.15a14.39,14.39,0,0,0,.09,3.93l0,.15-.12.1L191.74,92l-.58.43.18-.7,0-.18.18-.7.29.66L194.25,97l.29.66-.64-.33-.16-.08-.65-.34.72-.14,3.58-.7.16,0,.09.12a14.44,14.44,0,0,0,2.82,2.7l.13.09,0,.15c-.17,1.2-.35,2.4-.53,3.61l-.11.72-.37-.63-.07-.12-.38-.64.7.27,5.5,2.15.69.27-.71.22-.09,0-.72.22.42-.62c.67-1,1.35-2,2-3l.09-.13.16,0a14,14,0,0,0,2.15.09c.36,0,.72,0,1.09-.07l.56,0h.14c.1,0,.22.36.14.35h0l-.05,0a.36.36,0,0,1-.12.08,1,1,0,0,1-.26.09l-.28,0a13.91,13.91,0,0,1-3.4.07l-.94-.1.86-.4,0,0,.84-.39-.51.77-2,3-.11.17-.19-.07-5.67-2.16-.19-.07,0-.2c.18-1.25.35-2.49.52-3.62l.13-.93.36.86,0,.12.36.84-.75-.53a14.93,14.93,0,0,1-2.87-2.72l-.58-.72.87.32.12,0,.86.32-.9.18-3.6.72-.2,0-.09-.19c-.86-1.94-1.71-3.85-2.5-5.61l-.08-.18.16-.13,3-2.2.73-.55-.35.84-.06.15-.34.84-.14-.89a15.15,15.15,0,0,1-.1-4l.1-.89.38.81.07.15.37.82-.74-.5C193,85.36,191.91,84.66,191,84l-.16-.11.07-.19L193.08,78l.07-.19.19,0,3.67.54.86.12-.8.34-.17.07-.79.33.5-.69a14.75,14.75,0,0,1,2.74-2.87l.66-.54-.29.8-.07.18-.29.8L199.2,76l-.72-3.64,0-.19.18-.07,5.66-2.51.17-.07.11.14,2.21,3,.48.65-.74-.3-.12,0-.06,0h0l0,0,.14-.39c.11,0,.07,0,.09,0h0l0,0-.11.26v0l-.05.13h0l-.58-.24.6-.18h0a15.52,15.52,0,0,1,4-.09l.78.09-.71.33-.17.08-.72.33.44-.65L212,69.53l.09-.15.16.06,5.78,2.24.15.06,0,.17c-.19,1.28-.38,2.55-.55,3.67l-.1.71-.28-.66-.07-.17-.28-.66.58.42A14.67,14.67,0,0,1,220.36,78l.43.54-.65-.24-.17-.06-.66-.24.69-.13,3.64-.71.14,0,.06.14c.88,2,1.72,3.91,2.49,5.65l.06.13-.12.08-3,2.2-.49.36.23-.56.06-.15.23-.56.1.6a14.92,14.92,0,0,1,.08,3.93l-.07.57L223.2,89l-.06-.14-.24-.52.47.32,3,2.07.11.06-.05.12-2.23,5.7,0,.1-.11,0-3.63-.55L220,96l.4-.17.12,0,.41-.17-.27.35A14.6,14.6,0,0,1,218,98.81l-.31.24.14-.36,0-.11.13-.37.08.39c.24,1.3.47,2.5.67,3.58l0,.07-.07,0-5.54,2.38,0,0,0,0-1.57-2.2-.38-.56Z"/><path class="cls-7" d="M205.82,58.4a9.8,9.8,0,0,1-2.59.07l-1.34,2L198.18,59l.35-2.37a10,10,0,0,1-1.88-1.79l-2.36.46-1.61-3.63,1.92-1.44a9.77,9.77,0,0,1-.06-2.59l-2-1.34L194,42.62l2.38.35a9.94,9.94,0,0,1,1.79-1.88l-.47-2.36,3.64-1.61,1.43,1.93a9.86,9.86,0,0,1,2.6-.07l1.33-2,3.72,1.43L210,40.8a9.89,9.89,0,0,1,1.88,1.78l2.35-.46,1.62,3.63L214,47.19a9.39,9.39,0,0,1,.06,2.59l2,1.34-1.43,3.71-2.38-.35a9.36,9.36,0,0,1-1.79,1.88l.47,2.36-3.64,1.61-1.43-1.93Zm0-5.7a4.27,4.27,0,1,0-5.63-2.17A4.28,4.28,0,0,0,205.85,52.7Z"/><path class="cls-7" d="M205.85,52.7a3.25,3.25,0,0,1-1,.35,4.29,4.29,0,0,1-2.83-.44,4.31,4.31,0,0,1-2.27-3.51,4.37,4.37,0,0,1,5.3-4.58,4.28,4.28,0,0,1,2.22,1.25,4.37,4.37,0,0,1,1.08,4,4.23,4.23,0,0,1-1.58,2.39,3.1,3.1,0,0,1-.92.51s.34-.16.86-.58a4.24,4.24,0,0,0,1.47-2.36,4.15,4.15,0,0,0,0-1.92,4.32,4.32,0,0,0-1.06-1.92A4.39,4.39,0,0,0,205,44.75a4.15,4.15,0,0,0-4.93,3.15,4,4,0,0,0-.09,1.19,4.19,4.19,0,0,0,2.12,3.37,4.25,4.25,0,0,0,2.73.49A10,10,0,0,0,205.85,52.7Z"/><path class="cls-7" d="M205.82,58.4l.1.12.27.36,1.1,1.43h0l3.62-1.64,0,.07c-.15-.71-.31-1.51-.48-2.35v-.05l0,0a10.24,10.24,0,0,0,1.77-1.87l0,0h.05l2.38.34-.09.06,1.42-3.71,0,.11-2-1.33-.05,0v-.06a9.63,9.63,0,0,0-.06-2.56v-.07l.05,0,1.92-1.43,0,.13c-.51-1.14-1.06-2.37-1.62-3.64l.13.07-2.36.47h-.07l0-.05A9.83,9.83,0,0,0,210,40.89l-.06,0v-.07l.35-2.38.07.13-3.71-1.43.15,0-1.34,2,0,.06h-.08a9.52,9.52,0,0,0-2.55.06h0l-.11-.05h0l0,0,0,0,0-.06-.09-.12-.18-.24-.36-.49-.72-1,.15,0-3.64,1.62.07-.14c.16.79.31,1.58.47,2.36v.07l-.06,0A9.34,9.34,0,0,0,196.45,43l0,.06h-.08L194,42.74l.12-.08-1.43,3.71,0-.13,2,1.34.06,0v.06a9.58,9.58,0,0,0,.06,2.57v.06l-.05,0-1.93,1.43,0-.12c.56,1.28,1.1,2.49,1.6,3.64l-.1-.06,2.36-.46h.05l0,0a10,10,0,0,0,1.86,1.78l0,0v.05c-.12.86-.24,1.64-.35,2.38L198.2,59l3.71,1.44-.07,0c.54-.79,1-1.44,1.35-2l0,0h0a9.27,9.27,0,0,0,2,0l.48,0,.16,0-.16,0-.48.07a10.38,10.38,0,0,1-2,0l0,0-1.33,2,0,0h0l-3.72-1.42-.05,0V59c.1-.73.21-1.51.34-2.38l0,.08a9.69,9.69,0,0,1-1.9-1.8l.08,0-2.35.47h-.08l0-.07-1.62-3.63,0-.07.07-.05,1.92-1.44,0,.1a9.55,9.55,0,0,1-.07-2.62l0,.1-2-1.33-.07,0,0-.09c.46-1.2.94-2.44,1.42-3.71l0-.09.09,0,2.38.34-.11,0a9.52,9.52,0,0,1,1.8-1.9l0,.11c-.15-.77-.31-1.56-.47-2.35v-.1l.08,0L201.26,37l.09,0,.06.08.71,1,.36.48.18.24.09.13.05.06,0,0h0l-.11,0h0a9.65,9.65,0,0,1,2.62-.07l-.12.06,1.34-2,.06-.08.09,0,3.71,1.44.09,0,0,.1-.35,2.37,0-.11a10.6,10.6,0,0,1,1.9,1.81l-.12,0,2.36-.46.09,0,0,.08c.56,1.27,1.1,2.5,1.61,3.64l0,.08-.07.05L214,47.27l0-.1a9.67,9.67,0,0,1,.06,2.62l0-.09,2,1.34.07,0,0,.07c-.51,1.31-1,2.54-1.44,3.71l0,.07h-.07l-2.38-.36.08,0a9.92,9.92,0,0,1-1.81,1.89l0-.07c.17.85.32,1.64.46,2.36v0l-.05,0-3.64,1.59h0l0,0-1.05-1.44-.26-.37Z"/><path class="cls-11" d="M250.79,77a19.14,19.14,0,0,1-5,.12L243.2,81,236,78.18l.67-4.59a18.57,18.57,0,0,1-3.63-3.46l-4.56.9-3.12-7,3.73-2.78a18.31,18.31,0,0,1-.12-5l-3.86-2.58,2.76-7.17,4.6.67A18.8,18.8,0,0,1,236,43.51l-.9-4.56,7-3.11,2.77,3.72a18.72,18.72,0,0,1,5-.12l2.58-3.86,7.18,2.76-.68,4.6a18.52,18.52,0,0,1,3.63,3.45l4.56-.9,3.12,7-3.73,2.77a18.32,18.32,0,0,1,.12,5l3.86,2.59-2.76,7.17-4.6-.67A19.09,19.09,0,0,1,259.69,73l.9,4.55-7,3.12L250.79,77Zm.05-11A8.24,8.24,0,1,0,240,61.75,8.25,8.25,0,0,0,250.84,65.94Z"/><g class="cls-12"><path class="cls-4" d="M205.82,58.4a9.8,9.8,0,0,1-2.59.07l-1.34,2L198.18,59l.35-2.37a10,10,0,0,1-1.88-1.79l-2.36.46-1.61-3.63,1.92-1.44a9.77,9.77,0,0,1-.06-2.59l-2-1.34L194,42.62l2.38.35a9.94,9.94,0,0,1,1.79-1.88l-.47-2.36,3.64-1.61,1.43,1.93a9.86,9.86,0,0,1,2.6-.07l1.33-2,3.72,1.43L210,40.8a9.89,9.89,0,0,1,1.88,1.78l2.35-.46,1.62,3.63L214,47.19a9.39,9.39,0,0,1,.06,2.59l2,1.34-1.43,3.71-2.38-.35a9.36,9.36,0,0,1-1.79,1.88l.47,2.36-3.64,1.61-1.43-1.93Zm0-5.7a4.27,4.27,0,1,0-5.63-2.17A4.28,4.28,0,0,0,205.85,52.7Z"/><path class="cls-4" d="M205.85,52.7a3.25,3.25,0,0,1-1,.35,4.29,4.29,0,0,1-2.83-.44,4.31,4.31,0,0,1-2.27-3.51,4.37,4.37,0,0,1,5.3-4.58,4.28,4.28,0,0,1,2.22,1.25,4.37,4.37,0,0,1,1.08,4,4.23,4.23,0,0,1-1.58,2.39,3.1,3.1,0,0,1-.92.51s.34-.16.86-.58a4.24,4.24,0,0,0,1.47-2.36,4.15,4.15,0,0,0,0-1.92,4.32,4.32,0,0,0-1.06-1.92A4.39,4.39,0,0,0,205,44.75a4.15,4.15,0,0,0-4.93,3.15,4,4,0,0,0-.09,1.19,4.19,4.19,0,0,0,2.12,3.37,4.25,4.25,0,0,0,2.73.49A10,10,0,0,0,205.85,52.7Z"/><path class="cls-4" d="M205.82,58.4l.1.12.27.36,1.1,1.43h0l3.62-1.64,0,.07c-.15-.71-.31-1.51-.48-2.35v-.05l0,0a10.24,10.24,0,0,0,1.77-1.87l0,0h.05l2.38.34-.09.06,1.42-3.71,0,.11-2-1.33-.05,0v-.06a9.63,9.63,0,0,0-.06-2.56v-.07l.05,0,1.92-1.43,0,.13c-.51-1.14-1.06-2.37-1.62-3.64l.13.07-2.36.47h-.07l0-.05A9.83,9.83,0,0,0,210,40.89l-.06,0v-.07l.35-2.38.07.13-3.71-1.43.15,0-1.34,2,0,.06h-.08a9.52,9.52,0,0,0-2.55.06h0l-.11-.05h0l0,0,0,0,0-.06-.09-.12-.18-.24-.36-.49-.72-1,.15,0-3.64,1.62.07-.14c.16.79.31,1.58.47,2.36v.07l-.06,0A9.34,9.34,0,0,0,196.45,43l0,.06h-.08L194,42.74l.12-.08-1.43,3.71,0-.13,2,1.34.06,0v.06a9.58,9.58,0,0,0,.06,2.57v.06l-.05,0-1.93,1.43,0-.12c.56,1.28,1.1,2.49,1.6,3.64l-.1-.06,2.36-.46h.05l0,0a10,10,0,0,0,1.86,1.78l0,0v.05c-.12.86-.24,1.64-.35,2.38L198.2,59l3.71,1.44-.07,0c.54-.79,1-1.44,1.35-2l0,0h0a9.27,9.27,0,0,0,2,0l.48,0,.16,0-.16,0-.48.07a10.38,10.38,0,0,1-2,0l0,0-1.33,2,0,0h0l-3.72-1.42-.05,0V59c.1-.73.21-1.51.34-2.38l0,.08a9.69,9.69,0,0,1-1.9-1.8l.08,0-2.35.47h-.08l0-.07-1.62-3.63,0-.07.07-.05,1.92-1.44,0,.1a9.55,9.55,0,0,1-.07-2.62l0,.1-2-1.33-.07,0,0-.09c.46-1.2.94-2.44,1.42-3.71l0-.09.09,0,2.38.34-.11,0a9.52,9.52,0,0,1,1.8-1.9l0,.11c-.15-.77-.31-1.56-.47-2.35v-.1l.08,0L201.26,37l.09,0,.06.08.71,1,.36.48.18.24.09.13.05.06,0,0h0l-.11,0h0a9.65,9.65,0,0,1,2.62-.07l-.12.06,1.34-2,.06-.08.09,0,3.71,1.44.09,0,0,.1-.35,2.37,0-.11a10.6,10.6,0,0,1,1.9,1.81l-.12,0,2.36-.46.09,0,0,.08c.56,1.27,1.1,2.5,1.61,3.64l0,.08-.07.05L214,47.27l0-.1a9.67,9.67,0,0,1,.06,2.62l0-.09,2,1.34.07,0,0,.07c-.51,1.31-1,2.54-1.44,3.71l0,.07h-.07l-2.38-.36.08,0a9.92,9.92,0,0,1-1.81,1.89l0-.07c.17.85.32,1.64.46,2.36v0l-.05,0-3.64,1.59h0l0,0-1.05-1.44-.26-.37Z"/></g></g><g id="Character_1" data-name="Character 1"><path class="cls-16" d="M274.4,173l1.21-.21s9.5,3.14,9.29,1.3c-.28-2.44-8.92-4.73-9.75-4.77-1.38-.08-9.59.63-10.76,1.23s-8.28,7.25-8.28,7.25l8.53,9.3s2.35.3,5.53-2.3c1.61-1.32,4-3.67,4-3.67s-.1-.68.12-.93c.64-.75.2-1.25.2-1.25a1.6,1.6,0,0,0,1.21-1.22,1.18,1.18,0,0,0-.21-.89c-.54-.52-.78-.44-.78-.44a2.35,2.35,0,0,0,1.56-1.49c.27-1.09-1.32-1.64-1.32-1.64"/><path class="cls-17" d="M284.71,174.49a5.34,5.34,0,0,1-2.12.17,12.7,12.7,0,0,1-2.3-.33c-.83-.26-1.73-.56-2.67-.88l-2-.69h.13a30.39,30.39,0,0,1-5.05.59,29.61,29.61,0,0,1,5-1.09h.06l.07,0,2,.66,2.63.91a15.07,15.07,0,0,0,2.21.44C283.89,174.44,284.7,174.41,284.71,174.49Z"/><path class="cls-16" d="M273.75,173.45l-3.13,2.41a3.31,3.31,0,0,0-.95.95,1.18,1.18,0,0,0,0,1.29,1.13,1.13,0,0,0,1,.35,2.8,2.8,0,0,0,1-.35,34.44,34.44,0,0,0,3.71-2.07"/><path class="cls-17" d="M275.63,175.89a10,10,0,0,1-1.65,1.22,12.46,12.46,0,0,1-2,1.11,6,6,0,0,1-1.3.41,1.73,1.73,0,0,1-.78,0,1.06,1.06,0,0,1-.69-.54,1.45,1.45,0,0,1,.27-1.56,6.87,6.87,0,0,1,1-.91c.66-.53,1.27-1,1.78-1.35a6.7,6.7,0,0,1,1.77-1.06,14.6,14.6,0,0,1-1.57,1.32l-1.71,1.41a6.91,6.91,0,0,0-.92.87,1,1,0,0,0-.21,1.07c.15.33.59.4,1,.34a5.54,5.54,0,0,0,1.2-.36,15.47,15.47,0,0,0,2-1A8.54,8.54,0,0,1,275.63,175.89Z"/><path class="cls-16" d="M274.49,176.72s1-.91,1.37-.84a1.24,1.24,0,0,1,1.22.91c.19.65-.08.88-1.26,2.12"/><path class="cls-16" d="M274.49,176.72l-2.58,2.08a3.12,3.12,0,0,0-.79.83,1.06,1.06,0,0,0,0,1.1.9.9,0,0,0,.8.3,2.24,2.24,0,0,0,.85-.31,28.31,28.31,0,0,0,3-1.81"/><path class="cls-17" d="M277,177.48a3.81,3.81,0,0,1-1.19,1.58,10.44,10.44,0,0,1-1.75,1.27,11.19,11.19,0,0,1-1.15.57,3.18,3.18,0,0,1-1.4.34,1,1,0,0,1-.75-.41,1.14,1.14,0,0,1-.15-.81,2.08,2.08,0,0,1,.77-1.14c.61-.53,1.18-1,1.66-1.34a6.06,6.06,0,0,1,1.66-1.06,13.26,13.26,0,0,1-1.46,1.31c-.45.39-1,.87-1.58,1.4a1.8,1.8,0,0,0-.61.91.53.53,0,0,0,.5.68,2.64,2.64,0,0,0,1.19-.29,9.53,9.53,0,0,0,1.11-.53,11.29,11.29,0,0,0,1.75-1.15C276.57,178.07,277,177.44,277,177.48Z"/><path class="cls-16" d="M259.32,179.66a2.24,2.24,0,0,0,2.57.48c.87-.32,1.62-.93,2.47-1.32,2.55-1.16,5.71-.17,8.2-1.45.35-.17.72-.5.62-.88s-.52-.47-.87-.53l-9.15-1.5"/><path class="cls-17" d="M263.16,174.46a3.24,3.24,0,0,1,1,.06c.64.07,1.56.19,2.71.36l4,.6,1.15.18a1.85,1.85,0,0,1,1.29.54.79.79,0,0,1,0,.87,1.58,1.58,0,0,1-.57.5,5.83,5.83,0,0,1-1.28.49,36,36,0,0,1-5,.46,6.87,6.87,0,0,0-2,.49c-.6.26-1.13.62-1.64.89a3.25,3.25,0,0,1-2.74.42c-.64-.26-.8-.66-.77-.66a2.57,2.57,0,0,0,.84.47,3.21,3.21,0,0,0,2.48-.55,18.08,18.08,0,0,1,1.65-1,7.32,7.32,0,0,1,2.15-.58,40.77,40.77,0,0,0,4.9-.48,5.27,5.27,0,0,0,1.15-.44c.34-.18.55-.47.41-.62s-.55-.27-.94-.33l-1.15-.2-4-.71c-1.14-.21-2.06-.39-2.69-.53A4.35,4.35,0,0,1,263.16,174.46Z"/><path class="cls-16" d="M275.11,179.59s.72-.68,1-.63a1,1,0,0,1,.9.68c.14.49-.06.65-.93,1.58"/><path class="cls-16" d="M275.11,179.59l-1.91,1.54a2.32,2.32,0,0,0-.59.62.78.78,0,0,0,0,.81.66.66,0,0,0,.59.23,2.08,2.08,0,0,0,.63-.23,22.38,22.38,0,0,0,2.26-1.34"/><path class="cls-17" d="M277,180.15c.05,0-.18.57-.86,1.21a7.3,7.3,0,0,1-1.3.95,7.5,7.5,0,0,1-.85.44,2.56,2.56,0,0,1-1.07.25.82.82,0,0,1-.6-.33.88.88,0,0,1-.11-.64,1.55,1.55,0,0,1,.59-.88c.47-.37.9-.69,1.27-1a4.67,4.67,0,0,1,1.23-.78,5.13,5.13,0,0,1-1,1l-1.18,1a1.2,1.2,0,0,0-.43.65c0,.25.06.41.31.43a1.91,1.91,0,0,0,.86-.21,8.85,8.85,0,0,0,.82-.38,9.33,9.33,0,0,0,1.29-.84C276.63,180.57,276.94,180.11,277,180.15Z"/><path class="cls-17" d="M267.84,182.83a11.46,11.46,0,0,0-.23-2.11,10.3,10.3,0,0,0-1-1.87c.05-.11,1.05.46,1.43,1.74A2.37,2.37,0,0,1,267.84,182.83Z"/><path class="cls-10" d="M194.67,167.8c-4.4-2.25-8.75-2.75-13.49-2.89-5.52-.16-13.31-.94-19.26-.3,0,0-18.71,1.46-18.79,15.52l3,51.92-3.88,23.12,54.34,1.65-.39-27.28c.17,12.24-.42-26.49-.23-36.83.84-7.63,4.48-8.53,5.07-13.49C201.53,174.84,198.6,169.81,194.67,167.8Z"/><path class="cls-10" d="M183.4,165.26s8.26-.14,13.69,2.53,35.17,20.91,35.17,20.91L255.1,176l12.09,11.32L241,204.65a18,18,0,0,1-17.24,1.64L194.2,194.56Z"/><path class="cls-9" d="M195.94,184.17c.14,0,.29,8.07.32,18s-.06,18-.21,18-.28-8.07-.31-18S195.8,184.17,195.94,184.17Z"/><path class="cls-7" d="M126.64,397.45l-5.14,20.41-8.73,15a2.16,2.16,0,0,0,.91,3h0a2.14,2.14,0,0,0,2,0c3.92-2.11,18.29-10,18.59-11.47.34-1.76,6.85-21.18,6.85-21.18Z"/><path class="cls-18" d="M113.68,435.85,134.62,423l-.24.86a3.29,3.29,0,0,1-1.3,1.82c-1.71,1.16-6.5,4.25-17.37,10.18a2.15,2.15,0,0,1-2,0Z"/><g class="cls-19"><path class="cls-4" d="M132.26,415.28a1.32,1.32,0,0,0-.8,1.55,1.26,1.26,0,0,0,1.53.8,1.38,1.38,0,0,0,.84-1.64,1.3,1.3,0,0,0-1.68-.66"/></g><path class="cls-9" d="M120.77,428.27a6.73,6.73,0,0,0-1.34-2.07,6.49,6.49,0,0,0-2.22-1.09c0-.06.3-.14.79-.08a3.4,3.4,0,0,1,1.73.82,3.33,3.33,0,0,1,1,1.63C120.87,428,120.82,428.27,120.77,428.27Z"/><path class="cls-9" d="M118.57,430.59c-.12.06-.59-.78-1.55-1.37a20.62,20.62,0,0,0-1.92-.81,2.42,2.42,0,0,1,2.16.42C118.36,429.51,118.69,430.56,118.57,430.59Z"/><path class="cls-9" d="M124.42,425.53a20.79,20.79,0,0,0-2.26-2.27,21.74,21.74,0,0,0-2.81-1.54,5.92,5.92,0,0,1,5.07,3.81Z"/><path class="cls-9" d="M126.5,419.46c-.08.1-1.08-.68-2.52-1.13s-2.7-.43-2.71-.57a4.23,4.23,0,0,1,2.85.13A4.13,4.13,0,0,1,126.5,419.46Z"/><path class="cls-9" d="M128.17,413.5a10.57,10.57,0,0,0-2.6-1.24,10.52,10.52,0,0,0-2.88-.07c0-.05.27-.25.82-.39a4.73,4.73,0,0,1,4.11,1C128,413.16,128.21,413.46,128.17,413.5Z"/><path class="cls-9" d="M125.92,411.13a1.7,1.7,0,0,1,.18-.77,5.58,5.58,0,0,1,1.17-1.84,2.43,2.43,0,0,1,1.33-.85.87.87,0,0,1,.89.44,1.42,1.42,0,0,1,.06,1,3,3,0,0,1-3.32,2,3.56,3.56,0,0,1-2.86-2.71,1.22,1.22,0,0,1,.22-1,.86.86,0,0,1,1-.2,3,3,0,0,1,1.14,1.07,6.23,6.23,0,0,1,1,2,1.93,1.93,0,0,1,.12.78,10.17,10.17,0,0,0-1.33-2.55,2.84,2.84,0,0,0-1-.9.44.44,0,0,0-.53.1.82.82,0,0,0-.11.67,3.17,3.17,0,0,0,2.5,2.32,2.65,2.65,0,0,0,2.85-1.66,1,1,0,0,0,0-.71.48.48,0,0,0-.49-.25,2.21,2.21,0,0,0-1.14.7A8.24,8.24,0,0,0,125.92,411.13Z"/><path class="cls-7" d="M195.5,400.13l-1.14,17.15s17.07,5.67,17.17,8.86l-33.35.24.67-26.8Z"/><g class="cls-19"><path class="cls-4" d="M184.1,415.53a1.35,1.35,0,0,0-1,1.52,1.3,1.3,0,0,0,1.5,1,1.44,1.44,0,0,0,1-1.62,1.37,1.37,0,0,0-1.68-.86"/></g><g class="cls-19"><path class="cls-4" d="M178.18,426.38l.06-2.7,32.22.89a2.3,2.3,0,0,1,1.24,1.81Z"/></g><path class="cls-9" d="M194.91,417.13c0,.16-.83.21-1.65.71s-1.26,1.17-1.41,1.1.12-1,1.12-1.59S195,417,194.91,417.13Z"/><path class="cls-9" d="M198.36,418.68c0,.16-.68.42-1.26,1.09s-.75,1.39-.91,1.38-.24-.94.49-1.76S198.36,418.53,198.36,418.68Z"/><path class="cls-9" d="M200.22,422.93c-.15,0-.35-.79.09-1.67s1.22-1.21,1.28-1.08-.42.6-.77,1.33S200.38,422.91,200.22,422.93Z"/><path class="cls-9" d="M194.73,413.19c-.07.15-.81-.1-1.73-.06s-1.65.3-1.73.16.62-.71,1.71-.73S194.82,413.07,194.73,413.19Z"/><path class="cls-9" d="M194.9,409.73a3.21,3.21,0,0,1-1.67-.06,7.71,7.71,0,0,1-1.73-.59,8.43,8.43,0,0,1-.95-.54,1.94,1.94,0,0,1-.49-.41.73.73,0,0,1-.05-.87.91.91,0,0,1,.73-.35,2.22,2.22,0,0,1,.62.11,5.49,5.49,0,0,1,1,.39,6.14,6.14,0,0,1,1.51,1c.75.74,1,1.36.94,1.39s-.44-.47-1.21-1.08a6.41,6.41,0,0,0-1.46-.89,5.58,5.58,0,0,0-.95-.32c-.35-.11-.65-.12-.75,0s0,.08,0,.18a1.71,1.71,0,0,0,.37.3,9.12,9.12,0,0,0,.86.53,9.52,9.52,0,0,0,1.6.67A11.91,11.91,0,0,1,194.9,409.73Z"/><path class="cls-9" d="M194.68,410a2.56,2.56,0,0,1-.39-1.62,5.22,5.22,0,0,1,.28-1.82,5,5,0,0,1,.46-1,1.34,1.34,0,0,1,1.09-.81.77.77,0,0,1,.68.48,2.31,2.31,0,0,1,.15.62,3.79,3.79,0,0,1,0,1.12,3.93,3.93,0,0,1-.77,1.71c-.67.84-1.36,1-1.37,1s.52-.38,1.05-1.2a3.74,3.74,0,0,0,.57-1.55,3.09,3.09,0,0,0,0-1c0-.36-.16-.65-.3-.62s-.45.25-.6.53a6.66,6.66,0,0,0-.44.89,6,6,0,0,0-.37,1.66C194.61,409.32,194.77,409.93,194.68,410Z"/><polygon class="cls-9" points="195.5 251.13 144.68 250.74 120.12 412.04 141.21 414.71 168.24 282.09 176.33 415.18 176.35 415.58 199.16 415.18 195.5 251.13"/><path class="cls-9" d="M189.53,248.86a10,10,0,0,1-1.51.56c-1,.35-2.42.76-4.23,1.2a60.32,60.32,0,0,1-6.42,1.19,63.93,63.93,0,0,1-16,0A59.3,59.3,0,0,1,155,250.7c-1.8-.42-3.25-.83-4.23-1.17a9.16,9.16,0,0,1-1.52-.56,10.87,10.87,0,0,1,1.57.36c1,.28,2.46.63,4.26,1s4,.75,6.41,1a71.84,71.84,0,0,0,7.92.44,73.92,73.92,0,0,0,7.92-.48c2.42-.3,4.59-.67,6.4-1.07s3.26-.75,4.25-1A9,9,0,0,1,189.53,248.86Z"/><path class="cls-9" d="M161.62,132.72a30.07,30.07,0,0,1-1.67-5.63,10,10,0,0,1,.61-5.76,6,6,0,0,1,4.41-3.52c1.2-.18,2.45.08,3.61-.29,1.33-.42,2.27-1.58,3.33-2.49a10.27,10.27,0,0,1,6-2.4,6.09,6.09,0,0,1,3.34.65A3.4,3.4,0,0,1,183,116a16.46,16.46,0,0,1,4.15-.79,5.43,5.43,0,0,1,3.9,1.36,3.32,3.32,0,0,1,.74,3.87,2.7,2.7,0,0,1,3.43,1.14,3.49,3.49,0,0,1-.4,3.75,6.54,6.54,0,0,1-4,2.06,9.49,9.49,0,0,1-4.11-.32"/><path class="cls-16" d="M171.8,175.93h0a9.86,9.86,0,0,0,10.84-10.08c-.09-3.18-.15-5.9-.14-6.29,0,0,7.93-.85,8.4-8.71s-.05-26-.05-26h0A27.36,27.36,0,0,0,163.21,127l-1.21.84.94,38.51A9.86,9.86,0,0,0,171.8,175.93Z"/><path class="cls-17" d="M182.52,159.45a18.32,18.32,0,0,1-10.12-3.4s2.16,5.78,10,5.44Z"/><path class="cls-16" d="M162.59,136c-.13-.06-5.33-1.85-5.41,3.54s5.34,4.36,5.35,4.2S162.59,136,162.59,136Z"/><path class="cls-17" d="M160.92,141.72s-.1.06-.26.13a.92.92,0,0,1-.7,0,2.3,2.3,0,0,1-1-2.1,3.06,3.06,0,0,1,.28-1.34,1.09,1.09,0,0,1,.72-.71.49.49,0,0,1,.55.27c.07.15,0,.26.06.27s.12-.09.08-.31a.55.55,0,0,0-.21-.34.7.7,0,0,0-.52-.15,1.33,1.33,0,0,0-1,.82,3.29,3.29,0,0,0-.35,1.5,2.45,2.45,0,0,0,1.34,2.35,1,1,0,0,0,.86-.13C160.91,141.85,160.94,141.73,160.92,141.72Z"/><path class="cls-9" d="M191.13,127.28a18.45,18.45,0,0,1-11.45-1.12c-4-1.74-8.6-2.45-9.56-1.61s-1,4.87-4.75,6.25c0,0,1,11.35-2.07,11.35-2.26,0-2.13-15.9-2.13-15.9l7.29-4,8.07-2,7.65-.4,7.22,1.8Z"/><path class="cls-9" d="M189,136.47a1.16,1.16,0,0,1-1.11,1.16,1.11,1.11,0,0,1-1.19-1,1.15,1.15,0,0,1,1.11-1.16A1.1,1.1,0,0,1,189,136.47Z"/><path class="cls-9" d="M189.25,135.17c-.14.15-1-.49-2.25-.49s-2.15.62-2.28.47.08-.34.47-.62A3.18,3.18,0,0,1,187,134a3.06,3.06,0,0,1,1.79.58C189.19,134.83,189.32,135.11,189.25,135.17Z"/><path class="cls-9" d="M176.88,136.76a1.16,1.16,0,0,1-1.11,1.16,1.11,1.11,0,0,1-1.19-1,1.15,1.15,0,0,1,1.11-1.16A1.1,1.1,0,0,1,176.88,136.76Z"/><path class="cls-9" d="M177.09,135.4c-.15.15-1-.49-2.26-.49s-2.14.62-2.28.47.08-.33.48-.62a3.18,3.18,0,0,1,3.62,0C177,135.07,177.16,135.34,177.09,135.4Z"/><path class="cls-9" d="M181.58,144.58a8.23,8.23,0,0,1,2-.36c.31,0,.61-.1.67-.31A1.62,1.62,0,0,0,184,143q-.43-1.14-.93-2.4a41.07,41.07,0,0,1-2.1-6.3,42,42,0,0,1,2.6,6.11c.31.85.61,1.65.9,2.42a1.84,1.84,0,0,1,.16,1.24.76.76,0,0,1-.52.46,1.86,1.86,0,0,1-.54.08A7.76,7.76,0,0,1,181.58,144.58Z"/><path class="cls-9" d="M177.93,145.44c.21,0,.21,1.33,1.36,2.28s2.58.81,2.59,1-.32.26-.92.27a3.38,3.38,0,0,1-2.17-.75,2.92,2.92,0,0,1-1-1.92C177.69,145.76,177.84,145.43,177.93,145.44Z"/><path class="cls-9" d="M177.4,130.55c-.12.34-1.35.18-2.8.36s-2.63.57-2.82.27.11-.47.59-.79a4.92,4.92,0,0,1,4.29-.47C177.19,130.13,177.46,130.39,177.4,130.55Z"/><path class="cls-9" d="M188.8,131.59c-.22.28-1.07,0-2.1,0s-1.89.19-2.09-.11c-.09-.14,0-.42.43-.69a2.91,2.91,0,0,1,1.7-.46,2.88,2.88,0,0,1,1.67.57C188.77,131.16,188.89,131.45,188.8,131.59Z"/><rect class="cls-4" x="72.42" y="212.12" width="148.64" height="60.37"/><path class="cls-7" d="M221.06,272.5s0-.37,0-1.08,0-1.76,0-3.13c0-2.76,0-6.81,0-12,0-10.42-.06-25.49-.09-44.15l.16.17-148.63.07h0l.24-.24c0,21.15,0,41.55,0,60.38l-.23-.23,106.57.11,30.92.06,8.27,0h2.15l.73,0h-.71l-2.11,0-8.23,0-30.86.07-106.73.1H72.2v-.22c0-18.83,0-39.23,0-60.38v-.23h.24l148.63.07h.17v.16c0,18.7-.07,33.81-.09,44.25,0,5.2,0,9.23,0,12,0,1.36,0,2.39,0,3.1S221.06,272.5,221.06,272.5Z"/><path class="cls-7" d="M72.57,220.26c0-.13,33.23-.23,74.2-.23s74.2.1,74.2.23-33.21.24-74.2.24S72.57,220.39,72.57,220.26Z"/><g class="cls-8"><path class="cls-7" d="M78.79,216.62a1.08,1.08,0,1,1-1.07-1.08A1.07,1.07,0,0,1,78.79,216.62Z"/></g><g class="cls-8"><path class="cls-7" d="M82.49,216.62a1.08,1.08,0,0,1-2.16,0,1.08,1.08,0,1,1,2.16,0Z"/></g><g class="cls-8"><path class="cls-7" d="M86.13,216.62a1.08,1.08,0,1,1-1.08-1.08A1.08,1.08,0,0,1,86.13,216.62Z"/></g><rect class="cls-7" x="85.05" y="230.08" width="35.9" height="35.9"/><g class="cls-20"><rect class="cls-4" x="85.05" y="230.08" width="35.9" height="35.9"/></g><path class="cls-7" d="M210.78,239.7c0,.13-18.48.23-41.26.23s-41.27-.1-41.27-.23,18.48-.24,41.27-.24S210.78,239.57,210.78,239.7Z"/><path class="cls-7" d="M210.78,247c0,.13-18.48.24-41.26.24s-41.27-.11-41.27-.24,18.48-.23,41.27-.23S210.78,246.88,210.78,247Z"/><path class="cls-7" d="M181.38,254.33a2.9,2.9,0,0,1-.54,0l-1.55,0-5.69.07-18.78.07L136,254.49l-5.69-.07-1.55,0a2.9,2.9,0,0,1-.54,0,1.8,1.8,0,0,1,.54-.05l1.55-.05,5.69-.07,18.79-.07,18.78.07,5.69.07,1.55.05A1.8,1.8,0,0,1,181.38,254.33Z"/><path class="cls-10" d="M148.65,169.38s-7.24,3.73-10.46,17.13c-1.59,6.61-8.16,28.1-9.21,40.12-.66,7.47,7.49,14.43,14.91,15.53l.34,0c15.41,3.1,30.32-1.09,30.32-1.09L171.44,227s-19.7-3.82-22.21-5l7.65-30.21S162.59,170.67,148.65,169.38Z"/><path class="cls-9" d="M150.44,172.41l.28,0c.18,0,.45.07.79.15a9.11,9.11,0,0,1,2.85,1.29,8.61,8.61,0,0,1,3,3.92,16.5,16.5,0,0,1,1,6.53,25.13,25.13,0,0,1-.39,3.85c-.28,1.33-.65,2.66-1,4.07-.7,2.82-1.46,5.82-2.25,9-1.6,6.36-3.37,13.4-5.25,20.85l-.18-.31c2.31.65,4.76,1.3,7.26,1.92s5.2,1.23,7.75,1.71c1.27.24,2.54.46,3.8.61a19,19,0,0,1,1.9.28,5.4,5.4,0,0,1,.94.3,1.74,1.74,0,0,1,.81.68,5.86,5.86,0,0,1,.63,1.83l.39,1.79c.25,1.18.46,2.36.67,3.51.41,2.3.81,4.52,1.32,6.62l0,.23-.22.05a73.56,73.56,0,0,1-23.37,1.93,57.2,57.2,0,0,1-8.86-1.32,3.69,3.69,0,0,1,.6.07l1.72.27c1.51.22,3.72.52,6.56.71a75.45,75.45,0,0,0,23.24-2.1l-.17.27c-.52-2.11-.93-4.34-1.35-6.65-.21-1.15-.42-2.31-.67-3.49-.13-.59-.26-1.18-.4-1.78a5.33,5.33,0,0,0-.56-1.66,2.1,2.1,0,0,0-1.44-.76,17.7,17.7,0,0,0-1.86-.27c-1.27-.15-2.54-.37-3.83-.61-2.56-.49-5.16-1.08-7.78-1.72s-5-1.27-7.27-1.92l-.24-.07L149,222c1.9-7.46,3.69-14.48,5.3-20.84.81-3.17,1.58-6.18,2.3-9,.35-1.4.74-2.76,1-4a24.45,24.45,0,0,0,.43-3.79,16.55,16.55,0,0,0-.91-6.42,8.54,8.54,0,0,0-2.86-3.87,9.37,9.37,0,0,0-2.76-1.34c-.34-.1-.61-.15-.78-.2Z"/><path class="cls-9" d="M139.77,228a3.6,3.6,0,0,1,.53-1.72,8.19,8.19,0,0,1,7.21-4.28,3.54,3.54,0,0,1,1.76.35c0,.09-.69-.05-1.76,0a8.8,8.8,0,0,0-3.93,1.22,9,9,0,0,0-3,2.88C140.05,227.36,139.85,228,139.77,228Z"/><path class="cls-16" d="M172.26,228.3l5.69-.62a30.81,30.81,0,0,1,3.87-5.23c1.53-1.36,9.47-5.15,9.47-5.15a2.19,2.19,0,0,1,0,2.78,34.74,34.74,0,0,1-4.28,2.74h0a2.17,2.17,0,0,0,2.47,2.73c2.32-.43,5-.91,5.39-.91s2.72-2.2,4.42-3.86a1.45,1.45,0,0,1,2.44,1.32.77.77,0,0,1-.21.35s2.45-.09.27,3.2c0,0,.5,3-1.29,4.43,0,0-.78,3.67-1.93,4.94s-12.4,3.67-12.4,3.67l-11.72,1.13Z"/><path class="cls-17" d="M190.49,229a6.64,6.64,0,0,0,2,.05,10.53,10.53,0,0,0,4.73-1.24,9.91,9.91,0,0,0,3.3-3.62,7.24,7.24,0,0,0,.86-1.82,8.72,8.72,0,0,0-1.17,1.63,11.07,11.07,0,0,1-3.25,3.36,12,12,0,0,1-4.5,1.32A9.06,9.06,0,0,0,190.49,229Z"/><path class="cls-17" d="M191.65,231.64a3.81,3.81,0,0,0,1.84.14,12.79,12.79,0,0,0,2-.29,6.11,6.11,0,0,0,2.32-.94,10.52,10.52,0,0,0,1.72-1.77l1.24-1.55a6.44,6.44,0,0,0,1.05-1.5c-.06,0-.56.44-1.33,1.27-.38.41-.84.91-1.32,1.47a11.92,11.92,0,0,1-1.67,1.66,6.34,6.34,0,0,1-2.12.9c-.71.18-1.36.3-1.91.39C192.35,231.59,191.66,231.57,191.65,231.64Z"/><path class="cls-17" d="M193.23,234.54c0,.21,2.05-.22,4.42-.88a2,2,0,0,0,.87-.53,5.92,5.92,0,0,0,.61-.62,7.67,7.67,0,0,0,.87-1.18c.44-.71.56-1.23.5-1.25s-.31.41-.8,1a10,10,0,0,1-.92,1.06,8,8,0,0,1-.59.57,1.67,1.67,0,0,1-.66.4c-1.22.33-2.28.67-3.06.92A5.24,5.24,0,0,0,193.23,234.54Z"/></g><g id="Screen"><path class="cls-7" d="M375.39,92.44l.63,0a14.44,14.44,0,0,1,1.88.14,18.37,18.37,0,0,1,11.17,5.83A18.37,18.37,0,0,1,392.6,104a19.2,19.2,0,0,1,1.39,7.52q0,4.09,0,8.73c0,24.68,0,60.38.06,104.5s0,96.65,0,155v27.76a20.09,20.09,0,0,1-.71,5.65,19.07,19.07,0,0,1-2.37,5.22,20.37,20.37,0,0,1-3.86,4.28,18.75,18.75,0,0,1-10.69,4.15c-3.89.11-7.74,0-11.64.05H341.23l-48.41,0-24.76,0h-12.5a19.56,19.56,0,0,1-12.06-3.34,19,19,0,0,1-7.35-10.14,20.45,20.45,0,0,1-.77-6.26v-6.25q0-12.47,0-24.76,0-24.6,0-48.42c0-31.75,0-62.37,0-91.54s0-56.89,0-82.83q0-19.46,0-37.54v-4.49c0-.75.06-1.5.1-2.25s.19-1.49.38-2.21a18.87,18.87,0,0,1,3.9-7.84,19.18,19.18,0,0,1,6.87-5.14A19.57,19.57,0,0,1,255,92.18l16.14,0H282.7a5.81,5.81,0,0,1,3.64,1,6.12,6.12,0,0,1,2.27,3,9.94,9.94,0,0,1,.37,3.66v1.8a12.93,12.93,0,0,0,.06,1.77,5.92,5.92,0,0,0,1.38,3.1,5.5,5.5,0,0,0,2.83,1.76,6.67,6.67,0,0,0,1.67.16h8.39l24.43,0H338.5c.85,0,1.72,0,2.53,0a5.41,5.41,0,0,0,2.26-.79,5.89,5.89,0,0,0,2.6-3.74,9.94,9.94,0,0,0,.14-2.25c0-.74,0-1.48,0-2.21a12,12,0,0,1,.1-2.16,6.29,6.29,0,0,1,.69-2,5.92,5.92,0,0,1,3-2.62,9.19,9.19,0,0,1,3.68-.39l12,0,7.39,0,2.52,0s-.85,0-2.52,0l-7.39,0h-12a9.15,9.15,0,0,0-3.62.4A5.72,5.72,0,0,0,347,95.44a6.15,6.15,0,0,0-.67,1.93,12.44,12.44,0,0,0-.09,2.13v2.21a10.54,10.54,0,0,1-.14,2.3,6.1,6.1,0,0,1-2.68,3.87,5.7,5.7,0,0,1-2.36.83c-.86.08-1.69,0-2.55,0H294.92a6.09,6.09,0,0,1-1.74-.17,5.68,5.68,0,0,1-3-1.85,6,6,0,0,1-1.46-3.26,13.76,13.76,0,0,1-.07-1.81v-1.8a9.58,9.58,0,0,0-.36-3.55,5.79,5.79,0,0,0-2.15-2.81,5.56,5.56,0,0,0-3.45-1H255a18.49,18.49,0,0,0-14.81,6.57,18.6,18.6,0,0,0-3.8,7.69c-.19.71-.24,1.44-.37,2.16s-.09,1.46-.1,2.21v4.49q0,18.06,0,37.54V376q0,12.28,0,24.76V407a20,20,0,0,0,.75,6.12,18.49,18.49,0,0,0,7.14,9.86,19.09,19.09,0,0,0,11.77,3.23h12.5l24.76,0,48.41,0,23.59,0c3.88,0,7.78.06,11.61-.05a18.29,18.29,0,0,0,10.41-4A19.36,19.36,0,0,0,390.6,418a18.21,18.21,0,0,0,2.3-5.08,19,19,0,0,0,.69-5.51c0-1.88,0-3.75,0-5.62q0-11.2,0-22.14c0-58.33.06-110.86.08-155s.08-79.82.11-104.5q0-4.63,0-8.73a19.08,19.08,0,0,0-1.35-7.46,18.43,18.43,0,0,0-3.48-5.5,17.87,17.87,0,0,0-4.19-3.43,17.61,17.61,0,0,0-6.9-2.43,12.18,12.18,0,0,0-1.87-.17Z"/><path class="cls-7" d="M375.53,184.22A11.71,11.71,0,0,1,379,184c-.52.52-.15.14-.26.25h0v-.68c0-.22,0-.43,0-.66,0-.42,0-.79,0-1.11.05-.63.12-1,.19-1s.13.39.18,1q0,.48.06,1.11c0,.23,0,.44,0,.66v.68h0c-.12.12.26-.25-.26.27A12.12,12.12,0,0,1,375.53,184.22Z"/><path class="cls-7" d="M362,184.22a22,22,0,0,1,6.75,0,22,22,0,0,1-6.75,0Z"/><path class="cls-7" d="M348.52,184.22a22,22,0,0,1,6.75,0,22,22,0,0,1-6.75,0Z"/><path class="cls-7" d="M335,184.22a22,22,0,0,1,6.75,0,22,22,0,0,1-6.75,0Z"/><path class="cls-7" d="M321.5,184.22a22.1,22.1,0,0,1,6.76,0,22.1,22.1,0,0,1-6.76,0Z"/><path class="cls-7" d="M308,184.22a22,22,0,0,1,6.75,0,22,22,0,0,1-6.75,0Z"/><path class="cls-7" d="M294.49,184.22a22.1,22.1,0,0,1,6.76,0,22.1,22.1,0,0,1-6.76,0Z"/><path class="cls-7" d="M281,184.22a22,22,0,0,1,6.75,0,22,22,0,0,1-6.75,0Z"/><path class="cls-7" d="M267.48,184.22a22,22,0,0,1,6.75,0,22,22,0,0,1-6.75,0Z"/><path class="cls-7" d="M257.23,180.72a12.12,12.12,0,0,1,.26,3.5c-.52-.52-.14-.15-.26-.26h.7l.66,0,1.11.05c.64.05,1,.11,1,.19s-.39.13-1,.18l-1.11.06h-1.36l-.26-.26A12.12,12.12,0,0,1,257.23,180.72Z"/><path class="cls-7" d="M257.23,167a22.69,22.69,0,0,1,0,6.85,22.69,22.69,0,0,1,0-6.85Z"/><path class="cls-7" d="M257.23,153.32a11.61,11.61,0,0,1,.26,3.42,11.65,11.65,0,0,1-.26,3.43,11.65,11.65,0,0,1-.26-3.43A11.61,11.61,0,0,1,257.23,153.32Z"/><path class="cls-7" d="M260.73,143a12.17,12.17,0,0,1-3.5.26l.26-.26h0v1.34c0,.42,0,.8-.06,1.12,0,.63-.11,1-.18,1s-.14-.39-.19-1c0-.32,0-.7-.05-1.12l0-.65V143h0l.26-.26A12.17,12.17,0,0,1,260.73,143Z"/><path class="cls-7" d="M274.23,143a22,22,0,0,1-6.75,0,22,22,0,0,1,6.75,0Z"/><path class="cls-7" d="M287.74,143a22,22,0,0,1-6.75,0,22,22,0,0,1,6.75,0Z"/><path class="cls-7" d="M301.25,143a22.1,22.1,0,0,1-6.76,0,22.1,22.1,0,0,1,6.76,0Z"/><path class="cls-7" d="M314.75,143a22,22,0,0,1-6.75,0,22,22,0,0,1,6.75,0Z"/><path class="cls-7" d="M328.26,143a22.1,22.1,0,0,1-6.76,0,22.1,22.1,0,0,1,6.76,0Z"/><path class="cls-7" d="M341.76,143a22,22,0,0,1-6.75,0,22,22,0,0,1,6.75,0Z"/><path class="cls-7" d="M355.27,143a22,22,0,0,1-6.75,0,22,22,0,0,1,6.75,0Z"/><path class="cls-7" d="M368.77,143a22,22,0,0,1-6.75,0,22,22,0,0,1,6.75,0Z"/><path class="cls-7" d="M379,146.47a11.76,11.76,0,0,1-.26-3.5l.26.26h-.71l-.66,0-1.11-.05c-.63,0-1-.12-1-.19s.39-.14,1-.18c.32,0,.7,0,1.11-.06H379c.11.12-.26-.26.26.26A12.17,12.17,0,0,1,379,146.47Z"/><path class="cls-7" d="M379,160.17a11.26,11.26,0,0,1-.26-3.43,11.22,11.22,0,0,1,.26-3.42,11.61,11.61,0,0,1,.26,3.42A11.65,11.65,0,0,1,379,160.17Z"/><path class="cls-7" d="M379,173.87a11.31,11.31,0,0,1-.26-3.43A11.22,11.22,0,0,1,379,167a22.69,22.69,0,0,1,0,6.85Z"/><rect class="cls-7" x="256.44" y="141.9" width="2.15" height="2.15"/><rect class="cls-7" x="256.16" y="183.14" width="2.15" height="2.15"/><rect class="cls-7" x="317.06" y="183.14" width="2.15" height="2.15"/><rect class="cls-7" x="317.06" y="141.45" width="2.15" height="2.15"/><path class="cls-9" d="M379,122.44c0,.08-3.06.17-6.84.2s-6.83,0-6.84-.09,3.06-.17,6.84-.2S379,122.36,379,122.44Z"/><path class="cls-9" d="M379,125.94c0,.08-3.06.17-6.84.2s-6.84,0-6.84-.09,3.06-.17,6.84-.2S379,125.86,379,125.94Z"/><path class="cls-9" d="M379,129.43c0,.08-3.06.17-6.84.21s-6.84,0-6.84-.09,3.06-.17,6.84-.2S379,129.35,379,129.43Z"/><path class="cls-3" d="M337.2,244.88c0,.13-9.45.24-21.11.24S295,245,295,244.88s9.45-.24,21.11-.24S337.2,244.75,337.2,244.88Z"/><path class="cls-9" d="M370.87,253.55c0,.13-17,.24-37.95.24s-37.94-.11-37.94-.24,17-.24,37.94-.24S370.87,253.41,370.87,253.55Z"/><path class="cls-9" d="M370,259.74c0,.13-16.79.24-37.49.24s-37.5-.11-37.5-.24,16.78-.25,37.5-.25S370,259.6,370,259.74Z"/><path class="cls-9" d="M339.26,265.64c0,.13-9.92.24-22.14.24s-22.14-.11-22.14-.24,9.91-.24,22.14-.24S339.26,265.51,339.26,265.64Z"/><path class="cls-3" d="M337.2,339.08c0,.13-9.45.24-21.11.24s-21.11-.11-21.11-.24,9.45-.24,21.11-.24S337.2,338.94,337.2,339.08Z"/><path class="cls-9" d="M370.87,347.74c0,.13-17,.24-37.95.24s-37.94-.11-37.94-.24,17-.24,37.94-.24S370.87,347.61,370.87,347.74Z"/><path class="cls-9" d="M370,353.93c0,.13-16.79.24-37.49.24s-37.5-.11-37.5-.24,16.78-.24,37.5-.24S370,353.8,370,353.93Z"/><path class="cls-9" d="M339.26,359.83c0,.14-9.92.24-22.14.24S295,360,295,359.83s9.91-.24,22.14-.24S339.26,359.7,339.26,359.83Z"/><path class="cls-7" d="M337.31,202.27c0,.13-9.45.24-21.11.24s-21.11-.11-21.11-.24,9.45-.25,21.11-.25S337.31,202.13,337.31,202.27Z"/><path class="cls-9" d="M371,210.93c0,.13-17,.24-37.94.24s-38-.11-38-.24,17-.24,38-.24S371,210.8,371,210.93Z"/><path class="cls-9" d="M370.09,217.12c0,.13-16.79.24-37.5.24s-37.5-.11-37.5-.24,16.79-.24,37.5-.24S370.09,217,370.09,217.12Z"/><path class="cls-9" d="M339.37,223c0,.14-9.91.24-22.14.24s-22.14-.1-22.14-.24,9.91-.24,22.14-.24S339.37,222.89,339.37,223Z"/><path class="cls-7" d="M276.88,224.84a23.69,23.69,0,0,1,7,0,23.69,23.69,0,0,1-7,0Z"/><path class="cls-7" d="M262.88,224.84a23.69,23.69,0,0,1,7,0,23.69,23.69,0,0,1-7,0Z"/><path class="cls-7" d="M260.3,213.43a23.69,23.69,0,0,1,0,7,22.82,22.82,0,0,1,0-7Z"/><path class="cls-7" d="M262.12,201.26a5.06,5.06,0,0,1-1.82.22l.22-.22c0,.49,0,1.06,0,1.67a12.17,12.17,0,0,1-.26,3.5,11.56,11.56,0,0,1-.27-3.5c0-.61,0-1.18,0-1.67V201h.22A4.67,4.67,0,0,1,262.12,201.26Z"/><path class="cls-7" d="M276.12,201.26a23.69,23.69,0,0,1-7,0,23.69,23.69,0,0,1,7,0Z"/><path class="cls-7" d="M283.88,207.5a12.17,12.17,0,0,1-.26-3.5c0-1.12,0-2.11.1-2.74l.16.16c-.48,0-.76-.1-.76-.16s.28-.12.76-.16l.15,0v.18c.06.63.1,1.62.1,2.74A11.76,11.76,0,0,1,283.88,207.5Z"/><path class="cls-7" d="M283.88,221.5a23.69,23.69,0,0,1,0-7,23.69,23.69,0,0,1,0,7Z"/><rect class="cls-7" x="282.32" y="223.69" width="2.61" height="2.61"/><rect class="cls-7" x="282.32" y="199.31" width="2.61" height="2.61"/><rect class="cls-7" x="258.99" y="223.69" width="2.61" height="2.61"/><rect class="cls-7" x="258.99" y="199.95" width="2.61" height="2.61"/><path class="cls-3" d="M276.88,268.27a23.69,23.69,0,0,1,7,0,23.69,23.69,0,0,1-7,0Z"/><path class="cls-3" d="M262.88,268.27a23.69,23.69,0,0,1,7,0,23.69,23.69,0,0,1-7,0Z"/><path class="cls-3" d="M260.3,256.86a23.69,23.69,0,0,1,0,7,22.82,22.82,0,0,1,0-7Z"/><path class="cls-3" d="M262.12,244.68a4.67,4.67,0,0,1-1.82.23l.22-.23c0,.49,0,1.07,0,1.68a12.17,12.17,0,0,1-.26,3.5,11.56,11.56,0,0,1-.27-3.5c0-.61,0-1.19,0-1.68v-.23h.22A4.91,4.91,0,0,1,262.12,244.68Z"/><path class="cls-3" d="M276.12,244.68a23.69,23.69,0,0,1-7,0,23.69,23.69,0,0,1,7,0Z"/><path class="cls-3" d="M283.88,250.92a12.17,12.17,0,0,1-.26-3.5c0-1.11,0-2.11.1-2.74l.16.16c-.48,0-.76-.1-.76-.16s.28-.11.76-.16H284v.17c.06.63.1,1.63.1,2.74A11.76,11.76,0,0,1,283.88,250.92Z"/><path class="cls-3" d="M283.88,264.92a23.69,23.69,0,0,1,0-7,23.69,23.69,0,0,1,0,7Z"/><rect class="cls-3" x="282.32" y="267.12" width="2.61" height="2.61"/><rect class="cls-3" x="282.32" y="242.74" width="2.61" height="2.61"/><rect class="cls-3" x="258.99" y="267.12" width="2.61" height="2.61"/><rect class="cls-3" x="258.99" y="243.38" width="2.61" height="2.61"/><path class="cls-7" d="M277,314.26a23.69,23.69,0,0,1,7,0,23.69,23.69,0,0,1-7,0Z"/><path class="cls-7" d="M263,314.26a23.69,23.69,0,0,1,7,0,23.69,23.69,0,0,1-7,0Z"/><path class="cls-7" d="M260.42,302.85a12.07,12.07,0,0,1,.26,3.49,12.21,12.21,0,0,1-.26,3.51,12.21,12.21,0,0,1-.26-3.51A12.07,12.07,0,0,1,260.42,302.85Z"/><path class="cls-7" d="M262.25,290.67a4.75,4.75,0,0,1-1.83.23l.23-.23c0,.49,0,1.07,0,1.67a12.21,12.21,0,0,1-.26,3.51,12.21,12.21,0,0,1-.26-3.51c0-.6,0-1.18,0-1.67v-.24h.22A5,5,0,0,1,262.25,290.67Z"/><path class="cls-7" d="M276.25,290.67a23.69,23.69,0,0,1-7,0,23.69,23.69,0,0,1,7,0Z"/><path class="cls-7" d="M284,296.91a11.76,11.76,0,0,1-.26-3.5c0-1.12,0-2.11.1-2.74l.16.16c-.48,0-.76-.1-.76-.16s.28-.12.76-.16h.14l0,.17c.06.63.1,1.62.1,2.74A12.17,12.17,0,0,1,284,296.91Z"/><path class="cls-7" d="M284,310.91a23.69,23.69,0,0,1,0-7,23.69,23.69,0,0,1,0,7Z"/><rect class="cls-7" x="282.45" y="313.11" width="2.61" height="2.61"/><rect class="cls-7" x="282.45" y="288.72" width="2.61" height="2.61"/><rect class="cls-7" x="259.11" y="313.11" width="2.61" height="2.61"/><rect class="cls-7" x="259.11" y="289.36" width="2.61" height="2.61"/><path class="cls-3" d="M276.88,360.12a23.69,23.69,0,0,1,7,0,23.69,23.69,0,0,1-7,0Z"/><path class="cls-3" d="M262.88,360.12a23.69,23.69,0,0,1,7,0,23.69,23.69,0,0,1-7,0Z"/><path class="cls-3" d="M260.3,348.71a23.69,23.69,0,0,1,0,7,22.82,22.82,0,0,1,0-7Z"/><path class="cls-3" d="M262.12,336.54a5.06,5.06,0,0,1-1.82.22l.22-.22c0,.49,0,1.06,0,1.67a12.17,12.17,0,0,1-.26,3.5,11.56,11.56,0,0,1-.27-3.5c0-.61,0-1.18,0-1.67v-.24h.22A4.67,4.67,0,0,1,262.12,336.54Z"/><path class="cls-3" d="M276.12,336.54a23.69,23.69,0,0,1-7,0,23.69,23.69,0,0,1,7,0Z"/><path class="cls-3" d="M283.88,342.77a12.12,12.12,0,0,1-.26-3.5c0-1.11,0-2.11.1-2.73l.16.16c-.48-.05-.76-.1-.76-.16s.28-.12.76-.17H284v.18c.06.62.1,1.62.1,2.73A11.71,11.71,0,0,1,283.88,342.77Z"/><path class="cls-3" d="M283.88,356.77a23.69,23.69,0,0,1,0-7,23.69,23.69,0,0,1,0,7Z"/><rect class="cls-3" x="282.32" y="358.97" width="2.61" height="2.61"/><rect class="cls-3" x="282.32" y="334.59" width="2.61" height="2.61"/><rect class="cls-3" x="258.99" y="358.97" width="2.61" height="2.61"/><rect class="cls-3" x="258.99" y="335.23" width="2.61" height="2.61"/><path class="cls-7" d="M276.88,407.58a23.69,23.69,0,0,1,7,0,23.69,23.69,0,0,1-7,0Z"/><path class="cls-7" d="M262.88,407.58a23.69,23.69,0,0,1,7,0,23.69,23.69,0,0,1-7,0Z"/><path class="cls-7" d="M260.3,396.17a23.69,23.69,0,0,1,0,7,22.82,22.82,0,0,1,0-7Z"/><path class="cls-7" d="M262.12,384a4.67,4.67,0,0,1-1.82.23l.22-.23c0,.5,0,1.07,0,1.68a12.17,12.17,0,0,1-.26,3.5,11.56,11.56,0,0,1-.27-3.5c0-.61,0-1.18,0-1.68v-.23h.22A5.06,5.06,0,0,1,262.12,384Z"/><path class="cls-7" d="M276.12,384a22.82,22.82,0,0,1-7,0,23.69,23.69,0,0,1,7,0Z"/><path class="cls-7" d="M283.88,390.23a12.12,12.12,0,0,1-.26-3.5c0-1.11,0-2.11.1-2.74l.16.17c-.48-.05-.76-.1-.76-.17s.28-.11.76-.16H284V384c.06.63.1,1.63.1,2.74A11.71,11.71,0,0,1,283.88,390.23Z"/><path class="cls-7" d="M283.88,404.23a23.69,23.69,0,0,1,0-7,23.69,23.69,0,0,1,0,7Z"/><rect class="cls-7" x="282.32" y="406.43" width="2.61" height="2.61"/><rect class="cls-7" x="282.32" y="382.05" width="2.61" height="2.61"/><rect class="cls-7" x="258.99" y="406.43" width="2.61" height="2.61"/><rect class="cls-7" x="258.99" y="382.69" width="2.61" height="2.61"/><path class="cls-7" d="M336.31,289.88c0,.13-9.46.24-21.11.24s-21.12-.11-21.12-.24,9.45-.24,21.12-.24S336.31,289.74,336.31,289.88Z"/><path class="cls-9" d="M370,298.54c0,.13-17,.24-37.94.24s-37.95-.11-37.95-.24,17-.24,37.95-.24S370,298.41,370,298.54Z"/><path class="cls-9" d="M369.08,304.73c0,.13-16.79.24-37.5.24s-37.5-.11-37.5-.24,16.79-.24,37.5-.24S369.08,304.6,369.08,304.73Z"/><path class="cls-9" d="M338.36,310.63c0,.14-9.91.24-22.13.24s-22.15-.1-22.15-.24,9.92-.24,22.15-.24S338.36,310.5,338.36,310.63Z"/><path class="cls-7" d="M336.31,386.05c0,.13-9.46.24-21.11.24s-21.12-.11-21.12-.24,9.45-.24,21.12-.24S336.31,385.91,336.31,386.05Z"/><path class="cls-9" d="M370,394.71c0,.14-17,.24-37.94.24s-37.95-.1-37.95-.24,17-.24,37.95-.24S370,394.58,370,394.71Z"/><path class="cls-9" d="M369.08,400.9c0,.13-16.79.24-37.5.24s-37.5-.11-37.5-.24,16.79-.24,37.5-.24S369.08,400.77,369.08,400.9Z"/><path class="cls-9" d="M338.36,406.81c0,.13-9.91.24-22.13.24s-22.15-.11-22.15-.24,9.92-.25,22.15-.25S338.36,406.67,338.36,406.81Z"/><path class="cls-7" d="M257.65,129l.28,0,.76,0,2.84-.06-.08.07c0-.62,0-1.31,0-2,0-.38,0-.74,0-1.18a1.07,1.07,0,0,1,.95-.87c.46,0,.86,0,1.35,0a1.09,1.09,0,0,1,.93,1.09q0,1.44,0,3l-.13-.13,3.57,0-.13.14c0-1.44,0-2.93,0-4.45,0-.38,0-.76,0-1.13a1.15,1.15,0,0,0-.5-.85l-1.56-1.54-1.51-1.48-.73-.72c-.25-.25-.45-.5-.74-.56a1,1,0,0,0-.82.16c-.22.18-.45.44-.66.65l-1.29,1.3c-.8.83-1.64,1.6-2.25,2.32a2.54,2.54,0,0,0-.18,1.34v1.25c0,.78,0,1.45,0,2s0,1,0,1.3,0,.46,0,.47a3.42,3.42,0,0,1,0-.43c0-.35,0-.77,0-1.28s0-1.27,0-2c0-.41,0-.84,0-1.29,0-.23,0-.46,0-.7a1.48,1.48,0,0,1,.2-.75c.66-.81,1.45-1.52,2.26-2.39l1.27-1.3c.23-.22.42-.45.69-.68a1.24,1.24,0,0,1,1-.21,1.94,1.94,0,0,1,.85.62l.74.72,1.51,1.48,1.56,1.53a2.88,2.88,0,0,1,.4.44,1.12,1.12,0,0,1,.19.6c0,.38,0,.76,0,1.14,0,1.52,0,3,0,4.45V129h-.13l-3.58,0h-.13v-.13c0-1,0-2,0-3a.86.86,0,0,0-.72-.87c-.42,0-.9,0-1.3,0a.89.89,0,0,0-.77.7c0,.36,0,.78,0,1.14,0,.74,0,1.43,0,2V129h-.08l-2.88,0h-1Z"/><path class="cls-7" d="M256.44,159.39a.72.72,0,0,1-.25,0l-.71,0-2.76.05-10.12.08-15,.06H216.39a7.7,7.7,0,0,0-2.27.17,4.26,4.26,0,0,0-3,3.17,13.19,13.19,0,0,0-.1,2.37v2.4c0,1.59,0,3.16,0,4.7,0,3.07,0,6,0,8.86,0,5.65,0,10.73-.06,15s-.06,7.69-.08,10.13c0,1.16,0,2.08,0,2.75,0,.29,0,.52,0,.71a.13.13,0,1,1-.06,0c0-.19,0-.42,0-.71,0-.67,0-1.59,0-2.75,0-2.44-.05-5.89-.08-10.13s0-9.37-.06-15c0-2.82,0-5.79,0-8.86v-7.1a13,13,0,0,1,.11-2.47,4.77,4.77,0,0,1,3.31-3.57,8.41,8.41,0,0,1,2.42-.19h2.33l8.86,0,15,0,10.12.09,2.76.05.71,0Z"/><path class="cls-7" d="M259,159.3a1.58,1.58,0,1,1-1.58-1.58A1.57,1.57,0,0,1,259,159.3Z"/><path class="cls-7" d="M287.84,172.18s0-.36-.23-1a4,4,0,0,0-1.47-2.09,3.84,3.84,0,0,0-3.6-.5,3.79,3.79,0,1,0,3.6,6.58,3.94,3.94,0,0,0,1.47-2.08c.18-.6.18-1,.23-1a2.19,2.19,0,0,1,0,1,4,4,0,0,1-1.45,2.33,4.19,4.19,0,0,1-4,.66,4.23,4.23,0,0,1,0-8,4.14,4.14,0,0,1,4,.66,4,4,0,0,1,1.45,2.33A2.16,2.16,0,0,1,287.84,172.18Z"/></g><g id="Device"><path class="cls-9" d="M498.23,426.78l-117.49-.07a25.59,25.59,0,0,1-25.57-25.6l.05-294.53A25.6,25.6,0,0,1,380.83,81l117.48.07a25.6,25.6,0,0,1,25.58,25.6l-.06,294.53A25.59,25.59,0,0,1,498.23,426.78Z"/><path class="cls-4" d="M498.19,91.48H475.41a5.65,5.65,0,0,0-5.53,5.77v4.14a5.66,5.66,0,0,1-5.53,5.78l-44.4,0a5.66,5.66,0,0,1-5.53-5.79V97.21a5.66,5.66,0,0,0-5.53-5.78H380.94A17.92,17.92,0,0,0,363,109.33L363,396.81a17.92,17.92,0,0,0,17.91,17.93l117.25.07a17.93,17.93,0,0,0,17.94-17.92l.05-287.48A17.92,17.92,0,0,0,498.19,91.48Z"/><path class="cls-9" d="M501.65,120.51c0,.08-3,.16-6.61.19s-6.62,0-6.62-.08,3-.17,6.62-.2S501.65,120.43,501.65,120.51Z"/><path class="cls-9" d="M501.68,123.89c0,.08-3,.17-6.61.2s-6.62,0-6.62-.09,3-.16,6.62-.19S501.68,123.82,501.68,123.89Z"/><path class="cls-9" d="M501.71,127.28c0,.08-3,.16-6.61.19s-6.62,0-6.62-.08,3-.16,6.61-.19S501.71,127.2,501.71,127.28Z"/><path class="cls-9" d="M381.3,131.14h.27l.77,0,2.82-.07-.08.08c0-.62,0-1.31,0-2.05,0-.38,0-.74,0-1.18A1.09,1.09,0,0,1,386,127c.46,0,.86,0,1.35,0a1.09,1.09,0,0,1,.93,1.09c0,1,0,2,0,3l-.13-.13,3.57,0-.14.14c0-1.44,0-2.92,0-4.44,0-.38,0-.76,0-1.13a1.15,1.15,0,0,0-.5-.85l-1.56-1.53-1.5-1.48c-.24-.25-.49-.49-.73-.72s-.44-.49-.74-.55a.93.93,0,0,0-.81.15c-.22.18-.45.44-.67.65-.44.45-.86.88-1.28,1.29-.8.84-1.64,1.6-2.25,2.32a2.64,2.64,0,0,0-.18,1.34v1.25c0,.77,0,1.45,0,2s0,1,0,1.3,0,.46,0,.46a2.11,2.11,0,0,1,0-.42c0-.35,0-.77,0-1.28s0-1.26-.05-2c0-.4,0-.83,0-1.28,0-.23,0-.46,0-.7a1.41,1.41,0,0,1,.19-.74c.66-.81,1.45-1.53,2.26-2.39l1.27-1.3c.23-.22.41-.45.69-.68a1.18,1.18,0,0,1,1-.2,1.88,1.88,0,0,1,.86.61l.73.72,1.51,1.47,1.56,1.54a2.79,2.79,0,0,1,.39.43,1.09,1.09,0,0,1,.19.6c0,.38,0,.75,0,1.14,0,1.52,0,3,0,4.44v.13h-.14l-3.56,0h-.13v-.13c0-1,0-2,0-3a.87.87,0,0,0-.72-.87c-.41,0-.9,0-1.29,0a.86.86,0,0,0-.77.69c0,.36,0,.78,0,1.14v2.13h-.08l-2.87,0h-.75A1,1,0,0,1,381.3,131.14Z"/><rect class="cls-5" x="375.98" y="149.04" width="124.98" height="22.73" rx="9.59"/><path class="cls-9" d="M491.37,171.77l.72-.06a9.72,9.72,0,0,0,2.06-.4,9.87,9.87,0,0,0,3-1.58,9.33,9.33,0,0,0,2.85-3.61,9,9,0,0,0,.75-2.65,23.47,23.47,0,0,0,.09-3.06,21.06,21.06,0,0,0-.15-3.34,9.45,9.45,0,0,0-7.55-7.71,25.74,25.74,0,0,0-4.34-.16h-4.62l-98.62.07a9.38,9.38,0,0,0-9.32,8.58c-.08,1.13,0,2.33,0,3.48a10.83,10.83,0,0,0,.35,3.38,9.42,9.42,0,0,0,3.88,5.3,8.88,8.88,0,0,0,3,1.29,13.88,13.88,0,0,0,3.29.25h19.44l44.33.05,29.89.07,8.13,0,2.11,0,.72,0-.72,0-2.11,0-8.13,0-29.89.08-44.33.05H386.75a13.93,13.93,0,0,1-3.39-.26,9.27,9.27,0,0,1-3.17-1.35,9.86,9.86,0,0,1-4.07-5.55,11.29,11.29,0,0,1-.37-3.51c0-1.17,0-2.31,0-3.52a9.83,9.83,0,0,1,9.78-9l98.62.06h4.62a25.67,25.67,0,0,1,4.4.19,9.72,9.72,0,0,1,6.47,4.54,9.58,9.58,0,0,1,1.26,3.43,20.41,20.41,0,0,1,.13,3.37,23.8,23.8,0,0,1-.11,3.08,9.12,9.12,0,0,1-.78,2.7,9.56,9.56,0,0,1-2.93,3.65,9.77,9.77,0,0,1-3.07,1.56,9.46,9.46,0,0,1-2.08.36C491.62,171.78,491.37,171.77,491.37,171.77Z"/><path class="cls-9" d="M493.3,159.86s0-.36-.21-1a4.14,4.14,0,0,0-1.51-2.16,3.92,3.92,0,1,0,0,6.29,4.22,4.22,0,0,0,1.51-2.16c.17-.62.17-1,.21-1s0,.09,0,.27a3,3,0,0,1-.08.76,4.07,4.07,0,0,1-1.48,2.38,4.28,4.28,0,0,1-4.07.66,4.32,4.32,0,0,1,0-8.14,4.28,4.28,0,0,1,4.07.67,4,4,0,0,1,1.48,2.38,3,3,0,0,1,.08.76C493.33,159.77,493.32,159.86,493.3,159.86Z"/><path class="cls-9" d="M495.57,167a7.94,7.94,0,0,1-2-1.83,8.39,8.39,0,0,1-1.68-2.16,8.05,8.05,0,0,1,2,1.84A8.26,8.26,0,0,1,495.57,167Z"/><path class="cls-3" d="M392.85,158.13h-2.23v-.58h5.13v.58h-2.23v5.77h-.67Z"/><path class="cls-3" d="M400.34,161.71h-4a1.76,1.76,0,0,0,1.88,1.66,1.91,1.91,0,0,0,1.46-.62l.36.41a2.52,2.52,0,0,1-4.34-1.65,2.32,2.32,0,1,1,4.64,0C400.35,161.57,400.34,161.64,400.34,161.71Zm-4-.48h3.38a1.69,1.69,0,0,0-3.38,0Z"/><path class="cls-3" d="M404.56,163.9l-1.51-2-1.53,2h-.72l1.88-2.45-1.79-2.32h.73l1.43,1.87,1.43-1.87h.71l-1.8,2.32,1.9,2.45Z"/><path class="cls-3" d="M408.87,163.61a1.54,1.54,0,0,1-1,.33,1.27,1.27,0,0,1-1.4-1.39v-2.88h-.85v-.54h.85v-1h.65v1h1.45v.54h-1.45v2.85a.76.76,0,0,0,.82.87,1,1,0,0,0,.71-.25Z"/><rect class="cls-7" x="381.25" y="190.48" width="27.36" height="27.36"/><path class="cls-15" d="M461.23,193.42c0,.13-9.14.24-20.43.24s-20.43-.11-20.43-.24,9.15-.23,20.43-.23S461.23,193.29,461.23,193.42Z"/><path class="cls-9" d="M493.81,201.81c0,.13-16.44.23-36.71.23s-36.73-.1-36.73-.23,16.44-.23,36.73-.23S493.81,201.68,493.81,201.81Z"/><path class="cls-9" d="M493,207.8c0,.13-16.25.23-36.29.23s-36.29-.1-36.29-.23,16.25-.24,36.29-.24S493,207.67,493,207.8Z"/><path class="cls-9" d="M463.22,213.51c0,.13-9.59.23-21.42.23s-21.43-.1-21.43-.23,9.59-.23,21.43-.23S463.22,213.38,463.22,213.51Z"/><rect class="cls-7" x="381.25" y="236.06" width="27.36" height="27.36"/><path class="cls-15" d="M461.23,239c0,.13-9.14.23-20.43.23s-20.43-.1-20.43-.23,9.15-.23,20.43-.23S461.23,238.87,461.23,239Z"/><path class="cls-9" d="M493.81,247.39c0,.12-16.44.23-36.71.23s-36.73-.11-36.73-.23,16.44-.24,36.73-.24S493.81,247.26,493.81,247.39Z"/><path class="cls-9" d="M493,253.37c0,.13-16.25.24-36.29.24s-36.29-.11-36.29-.24,16.25-.23,36.29-.23S493,253.25,493,253.37Z"/><path class="cls-9" d="M463.22,259.09c0,.13-9.59.23-21.42.23s-21.43-.1-21.43-.23,9.59-.23,21.43-.23S463.22,259,463.22,259.09Z"/><rect class="cls-7" x="381.25" y="281.63" width="27.36" height="27.36"/><path class="cls-15" d="M461.23,284.58c0,.13-9.14.23-20.43.23s-20.43-.1-20.43-.23,9.15-.23,20.43-.23S461.23,284.45,461.23,284.58Z"/><path class="cls-9" d="M493.81,293c0,.13-16.44.24-36.71.24s-36.73-.11-36.73-.24,16.44-.23,36.73-.23S493.81,292.84,493.81,293Z"/><path class="cls-9" d="M493,299c0,.13-16.25.24-36.29.24s-36.29-.11-36.29-.24,16.25-.23,36.29-.23S493,298.82,493,299Z"/><path class="cls-9" d="M463.22,304.67c0,.12-9.59.23-21.42.23s-21.43-.11-21.43-.23,9.59-.24,21.43-.24S463.22,304.54,463.22,304.67Z"/><rect class="cls-7" x="381.25" y="327.21" width="27.36" height="27.36"/><path class="cls-10" d="M461.23,330.16c0,.12-9.14.23-20.43.23s-20.43-.11-20.43-.23,9.15-.24,20.43-.24S461.23,330,461.23,330.16Z"/><path class="cls-9" d="M493.81,338.54c0,.13-16.44.23-36.71.23s-36.73-.1-36.73-.23,16.44-.23,36.73-.23S493.81,338.41,493.81,338.54Z"/><path class="cls-9" d="M493,344.53c0,.13-16.25.23-36.29.23s-36.29-.1-36.29-.23,16.25-.23,36.29-.23S493,344.4,493,344.53Z"/><path class="cls-9" d="M463.22,350.24c0,.13-9.59.24-21.42.24s-21.43-.11-21.43-.24S430,350,441.8,350,463.22,350.11,463.22,350.24Z"/><rect class="cls-3" x="381.25" y="372.79" width="27.36" height="27.36"/><path class="cls-3" d="M461.23,375.73c0,.13-9.14.24-20.43.24s-20.43-.11-20.43-.24,9.15-.23,20.43-.23S461.23,375.6,461.23,375.73Z"/><path class="cls-6" d="M493.81,384.12c0,.13-16.44.23-36.71.23s-36.73-.1-36.73-.23,16.44-.23,36.73-.23S493.81,384,493.81,384.12Z"/><path class="cls-6" d="M493,390.11c0,.13-16.25.23-36.29.23s-36.29-.1-36.29-.23,16.25-.23,36.29-.23S493,390,493,390.11Z"/><path class="cls-6" d="M463.22,395.82c0,.13-9.59.23-21.42.23s-21.43-.1-21.43-.23,9.59-.23,21.43-.23S463.22,395.69,463.22,395.82Z"/><g class="cls-8"><rect x="381.25" y="327.21" width="27.36" height="27.36"/></g><g class="cls-8"><rect x="381.25" y="236.06" width="27.36" height="27.36"/></g></g><g id="Window"><rect class="cls-4" x="295.69" y="16.35" width="148.64" height="60.37"/><path class="cls-7" d="M444.33,76.72s0-.37,0-1.07,0-1.77,0-3.14c0-2.75,0-6.8,0-12,0-10.42-.05-25.49-.09-44.15l.17.17-148.63.07h0l.24-.24c0,21.14,0,41.55,0,60.37l-.23-.22,106.57.11,30.92.06,8.27,0h2.88l-.71,0H441.5l-8.22,0-30.87.06L295.69,77h-.23v-.23c0-18.82,0-39.23,0-60.37v-.24h.25l148.63.07h.16v.17c0,18.7-.06,33.8-.09,44.25,0,5.2,0,9.23,0,12,0,1.35,0,2.39,0,3.1S444.33,76.72,444.33,76.72Z"/><path class="cls-7" d="M295.84,24.49c0-.13,33.22-.23,74.2-.23s74.2.1,74.2.23-33.22.24-74.2.24S295.84,24.62,295.84,24.49Z"/><g class="cls-8"><circle class="cls-7" cx="300.98" cy="20.85" r="1.08"/></g><g class="cls-8"><path class="cls-7" d="M305.76,20.85a1.08,1.08,0,1,1-1.08-1.08A1.08,1.08,0,0,1,305.76,20.85Z"/></g><g class="cls-8"><path class="cls-7" d="M309.4,20.85a1.08,1.08,0,1,1-1.08-1.08A1.08,1.08,0,0,1,309.4,20.85Z"/></g><rect class="cls-7" x="308.32" y="34.31" width="35.9" height="35.9"/><g class="cls-20"><rect class="cls-4" x="308.32" y="34.31" width="35.9" height="35.9"/></g><path class="cls-7" d="M434,43.93c0,.13-18.47.23-41.26.23s-41.26-.1-41.26-.23,18.47-.24,41.26-.24S434,43.8,434,43.93Z"/><path class="cls-7" d="M434,51.24c0,.13-18.47.24-41.26.24s-41.26-.11-41.26-.24S370,51,392.78,51,434,51.11,434,51.24Z"/><path class="cls-7" d="M404.64,58.55a1.73,1.73,0,0,1-.54.05l-1.54,0-5.7.07-18.78.07-18.78-.07-5.69-.07-1.55,0a1.8,1.8,0,0,1-.54-.05,2.9,2.9,0,0,1,.54,0l1.55,0,5.69-.07,18.78-.07,18.78.07,5.7.07,1.54,0A2.77,2.77,0,0,1,404.64,58.55Z"/></g><g id="Character_2" data-name="Character 2"><polygon class="cls-7" points="533.17 406.08 538.3 425.05 521.62 426.57 518.12 408.51 533.17 406.08"/><path class="cls-9" d="M521.14,425a12,12,0,0,0,2.44-.08c1.5-.12,3.57-.35,5.85-.64l5.83-.79a14.85,14.85,0,0,0,2.4-.41,11.65,11.65,0,0,0-2.44.09c-1.5.12-3.57.35-5.85.65l-5.82.77A15.15,15.15,0,0,0,521.14,425Z"/><g class="cls-19"><polyline class="cls-4" points="538.3 425.05 521.62 426.57 521.35 425.18 537.82 423.08 538.28 424.86"/></g><path class="cls-9" d="M530,424.2a68.3,68.3,0,0,0-1.58-7.27,67.57,67.57,0,0,0-2-7.17,74,74,0,0,0,1.59,7.27A73.26,73.26,0,0,0,530,424.2Z"/><path class="cls-9" d="M522.06,424.9a8,8,0,0,1,0-3.53,7.08,7.08,0,0,1,1.83-3.3,6.85,6.85,0,0,1,4.15-1.91,7.11,7.11,0,0,1,4.46,1,7.75,7.75,0,0,1,2.6,2.76,9.73,9.73,0,0,1,1.05,3.38s0-.09,0-.25,0-.41,0-.72a7.42,7.42,0,0,0-.8-2.54,7.74,7.74,0,0,0-2.64-2.93,7.32,7.32,0,0,0-4.7-1.1,7,7,0,0,0-4.37,2,7.13,7.13,0,0,0-1.84,3.49,6.49,6.49,0,0,0,0,2.66,5,5,0,0,0,.2.7A.88.88,0,0,0,522.06,424.9Z"/><path class="cls-7" d="M464.32,401l1.12,16.85s-16.78,5.56-16.87,8.7l32.77.24-.66-26.33Z"/><g class="cls-19"><path class="cls-4" d="M475.52,416.11a1.34,1.34,0,0,1,1,1.5,1.28,1.28,0,0,1-1.47,1,1.42,1.42,0,0,1-1-1.6,1.34,1.34,0,0,1,1.65-.84"/></g><g class="cls-19"><path class="cls-4" d="M481.34,426.78l-.07-2.66-31.65.88a2.26,2.26,0,0,0-1.22,1.78Z"/></g><path class="cls-9" d="M464.9,417.69c0,.16.81.21,1.62.7s1.24,1.15,1.38,1.08-.12-1-1.1-1.56S464.86,417.54,464.9,417.69Z"/><path class="cls-9" d="M461.51,419.21c0,.16.67.41,1.23,1.07s.75,1.37.9,1.36.24-.92-.48-1.73S461.51,419.06,461.51,419.21Z"/><path class="cls-9" d="M459.68,423.38c.15,0,.35-.77-.09-1.64s-1.19-1.19-1.26-1.05.41.59.76,1.3S459.52,423.37,459.68,423.38Z"/><path class="cls-9" d="M465.07,413.82c.08.14.8-.1,1.71-.07s1.62.3,1.7.16-.62-.69-1.69-.71S465,413.7,465.07,413.82Z"/><path class="cls-9" d="M464.91,410.41a3,3,0,0,0,1.64-.05,8,8,0,0,0,1.7-.58,8.8,8.8,0,0,0,.93-.53,2.07,2.07,0,0,0,.48-.4.7.7,0,0,0,0-.85.88.88,0,0,0-.71-.35,2.5,2.5,0,0,0-.61.1,6.14,6.14,0,0,0-2.5,1.42c-.73.73-1,1.34-.92,1.37s.43-.47,1.18-1.07a6.85,6.85,0,0,1,1.44-.87,7.39,7.39,0,0,1,.94-.32c.34-.1.63-.11.73,0s0,.08,0,.19a1.67,1.67,0,0,1-.36.29,7.76,7.76,0,0,1-.85.52,9.33,9.33,0,0,1-1.57.66A14.27,14.27,0,0,0,464.91,410.41Z"/><path class="cls-9" d="M465.13,410.64a2.74,2.74,0,0,0,.38-1.6,5.43,5.43,0,0,0-.72-2.77,1.37,1.37,0,0,0-1.08-.8.78.78,0,0,0-.67.48,2.47,2.47,0,0,0-.15.61,3.35,3.35,0,0,0,0,1.1,3.64,3.64,0,0,0,.75,1.67c.66.83,1.34,1,1.35.95s-.52-.37-1-1.17a3.7,3.7,0,0,1-.57-1.53,3.77,3.77,0,0,1,0-.95c0-.35.17-.63.3-.6s.45.24.59.52a5.84,5.84,0,0,1,.43.87,6.16,6.16,0,0,1,.37,1.63C465.19,410,465,410.62,465.13,410.64Z"/><polygon class="cls-9" points="464.32 254.57 514.26 254.2 538.39 412.68 517.66 415.31 491.1 285 483.15 415.78 483.13 416.17 460.72 415.77 464.32 254.57"/><path class="cls-10" d="M487,267.42l-1.12,0h-3.05l-10.66-.08.23-.23c0,3.13,0,6.63,0,10.35l-.08-.19,1.88,1.72,5.53,5.09h-.34l7.45-6.51-.07.15c.05-3.09.08-5.63.11-7.48,0-.86,0-1.55.05-2.09a6,6,0,0,1,0-.76,3.19,3.19,0,0,1,.05.68c0,.53,0,1.21.05,2,0,1.88.06,4.47.11,7.61v.09l-.07.06-7.39,6.59-.16.15-.17-.16-5.54-5.07L472,277.68l-.09-.08v-.11c0-3.72,0-7.22,0-10.35v-.24h.24l10.8.32,3,.11A7.4,7.4,0,0,1,487,267.42Z"/><path class="cls-10" d="M510.53,266.73a7.81,7.81,0,0,1-1,.15l-2.73.34-9.55,1.08.2-.25c.38,3.06.82,6.55,1.29,10.27l-.1-.17,2.16,1.71,5.3,4.24-.36,0,5.88-7.28-.05.15c-.32-3.06-.6-5.58-.79-7.43-.09-.85-.15-1.54-.21-2.08s-.06-.75-.05-.77a2.85,2.85,0,0,1,.13.68c.08.52.18,1.2.3,2,.26,1.87.61,4.43,1,7.53V277l-.05.07-5.8,7.35-.16.19-.2-.15-5.31-4.23-2.15-1.72-.08-.07,0-.1c-.44-3.72-.85-7.21-1.22-10.28l0-.23.23,0,9.72-.87,2.69-.21A6.26,6.26,0,0,1,510.53,266.73Z"/><path class="cls-10" d="M480,290.79a11.31,11.31,0,0,1,2.1-1.41c1.33-.79,3.21-1.84,5.34-2.9s4.09-1.93,5.53-2.52a12,12,0,0,1,2.38-.83,12.56,12.56,0,0,1-2.23,1.17c-1.4.67-3.33,1.59-5.45,2.65s-4,2-5.39,2.76A13.75,13.75,0,0,1,480,290.79Z"/><path class="cls-10" d="M480.63,294.63a20.16,20.16,0,0,0,8.56-8.43,11.47,11.47,0,0,1-3.28,5.24A11.27,11.27,0,0,1,480.63,294.63Z"/><path class="cls-10" d="M466.53,340.43c.09,0,.46,1.14,1.56,2.73a13,13,0,0,0,13.1,5.53c1.91-.33,3-.88,3-.79s-.24.19-.74.43a11,11,0,0,1-2.23.72,12.62,12.62,0,0,1-13.48-5.68,12.07,12.07,0,0,1-1-2.11A2.42,2.42,0,0,1,466.53,340.43Z"/><path class="cls-10" d="M469.81,339.08a13.39,13.39,0,0,1,2,.51,24.09,24.09,0,0,0,4.89.66c3.87.15,7-.45,7-.27a7.17,7.17,0,0,1-2,.49,25.25,25.25,0,0,1-5,.3,18.42,18.42,0,0,1-5-.83A5.86,5.86,0,0,1,469.81,339.08Z"/><path class="cls-10" d="M506.94,340a34.19,34.19,0,0,0,6.88,3.82,33.82,33.82,0,0,0,7.71,1.61,7.34,7.34,0,0,1-2.35.08,19.83,19.83,0,0,1-5.54-1.21,20.2,20.2,0,0,1-5-2.71A7.58,7.58,0,0,1,506.94,340Z"/><path class="cls-10" d="M511.32,339.83c0-.16,2.05.09,4.54-.11s4.45-.76,4.5-.61a10.51,10.51,0,0,1-4.46,1.13A10.39,10.39,0,0,1,511.32,339.83Z"/><path class="cls-10" d="M491.4,286.09a74,74,0,0,0,8.08,2,76.59,76.59,0,0,0,8.32.6,9.54,9.54,0,0,1-2.45.29,31.69,31.69,0,0,1-6-.37,30.25,30.25,0,0,1-5.76-1.51A8.53,8.53,0,0,1,491.4,286.09Z"/><path class="cls-10" d="M492.76,280.73c.15,0,.26.45.25,1s-.13,1-.27,1-.26-.45-.25-1S492.62,280.73,492.76,280.73Z"/><path class="cls-10" d="M492.75,276.73c.14,0,.26.45.27,1s-.11,1-.25,1-.27-.44-.27-1S492.6,276.73,492.75,276.73Z"/><path class="cls-10" d="M492.64,272.73c.15,0,.28.44.3,1s-.09,1-.23,1-.28-.44-.29-1S492.5,272.74,492.64,272.73Z"/><path class="cls-10" d="M492.45,268.74c.15,0,.29.43.32,1s-.07,1-.21,1-.28-.44-.31-1S492.31,268.75,492.45,268.74Z"/><path class="cls-10" d="M492.17,264.75c.15,0,.3.42.34,1s0,1-.19,1-.29-.43-.33-1S492,264.76,492.17,264.75Z"/><path class="cls-10" d="M491.8,260.76c.15,0,.31.42.36,1s0,1-.16,1-.3-.42-.36-1S491.66,260.78,491.8,260.76Z"/><path class="cls-10" d="M520,411.6c.14,0,.34.38.45.93s.08,1-.06,1-.34-.39-.45-.93S519.82,411.62,520,411.6Z"/><path class="cls-10" d="M519.18,407.67c.14,0,.34.39.45.93s.08,1-.06,1-.34-.38-.45-.92S519,407.7,519.18,407.67Z"/><path class="cls-10" d="M518.4,403.75c.14,0,.34.39.45.93s.08,1-.06,1-.34-.39-.45-.93S518.26,403.78,518.4,403.75Z"/><path class="cls-10" d="M517.61,399.83c.14,0,.35.39.45.93s.09,1-.06,1-.34-.39-.45-.93S517.47,399.86,517.61,399.83Z"/><path class="cls-10" d="M516.83,395.91c.14,0,.34.38.45.93s.08,1-.06,1-.34-.39-.45-.93S516.69,395.94,516.83,395.91Z"/><path class="cls-10" d="M516,392c.14,0,.35.39.45.93s.09,1-.06,1-.34-.39-.45-.93S515.9,392,516,392Z"/><path class="cls-10" d="M515.26,388.06c.14,0,.34.39.45.93s.08,1-.06,1-.34-.38-.45-.93S515.12,388.09,515.26,388.06Z"/><path class="cls-10" d="M514.47,384.14c.14,0,.35.39.45.93s.09,1,0,1-.35-.39-.46-.93S514.33,384.17,514.47,384.14Z"/><path class="cls-10" d="M513.69,380.22c.14,0,.34.39.45.93s.08,1-.06,1-.34-.39-.45-.93S513.55,380.25,513.69,380.22Z"/><path class="cls-10" d="M512.9,376.3c.15,0,.35.38.46.92s.08,1-.06,1-.35-.39-.46-.93S512.76,376.32,512.9,376.3Z"/><path class="cls-10" d="M512.12,372.37c.14,0,.34.39.45.93s.08,1-.06,1-.34-.38-.45-.93S512,372.4,512.12,372.37Z"/><path class="cls-10" d="M511.33,368.45c.15,0,.35.39.46.93s.08,1-.06,1-.35-.39-.45-.93S511.19,368.48,511.33,368.45Z"/><path class="cls-10" d="M510.55,364.53c.14,0,.34.39.45.93s.08,1-.06,1-.34-.39-.45-.93S510.41,364.56,510.55,364.53Z"/><path class="cls-10" d="M509.77,360.61c.14,0,.34.38.45.93s.08,1-.06,1-.35-.39-.45-.93S509.62,360.63,509.77,360.61Z"/><path class="cls-10" d="M509,356.68c.14,0,.34.39.45.93s.08,1-.06,1-.34-.39-.45-.93S508.84,356.71,509,356.68Z"/><path class="cls-10" d="M508.2,352.76c.14,0,.34.39.45.93s.08,1-.06,1-.34-.38-.45-.93S508.06,352.79,508.2,352.76Z"/><path class="cls-10" d="M507.41,348.84c.14,0,.34.39.45.93s.09,1-.06,1-.34-.39-.45-.93S507.27,348.87,507.41,348.84Z"/><path class="cls-10" d="M506.63,344.92c.14,0,.34.39.45.93s.08,1-.06,1-.34-.39-.45-.93S506.49,345,506.63,344.92Z"/><path class="cls-10" d="M505.84,341c.14,0,.35.39.45.93s.09,1-.06,1-.34-.39-.45-.93S505.7,341,505.84,341Z"/><path class="cls-10" d="M505.06,337.07c.14,0,.34.39.45.93s.08,1-.06,1-.34-.38-.45-.93S504.92,337.1,505.06,337.07Z"/><path class="cls-10" d="M504.27,333.15c.14,0,.35.39.45.93s.09,1-.05,1-.35-.39-.46-.93S504.13,333.18,504.27,333.15Z"/><path class="cls-10" d="M503.49,329.23c.14,0,.34.39.45.93s.08,1-.06,1-.34-.39-.45-.93S503.35,329.26,503.49,329.23Z"/><path class="cls-10" d="M502.7,325.31c.14,0,.35.38.46.93s.08,1-.06,1-.35-.39-.46-.93S502.56,325.33,502.7,325.31Z"/><path class="cls-10" d="M501.92,321.38c.14,0,.34.39.45.93s.08,1-.06,1-.34-.38-.45-.92S501.78,321.41,501.92,321.38Z"/><path class="cls-10" d="M501.13,317.46c.15,0,.35.39.46.93s.08,1-.06,1-.35-.39-.45-.93S501,317.49,501.13,317.46Z"/><path class="cls-10" d="M500.35,313.54c.14,0,.34.39.45.93s.08,1-.06,1-.34-.39-.45-.93S500.21,313.57,500.35,313.54Z"/><path class="cls-10" d="M499.57,309.62c.14,0,.34.38.45.93s.08,1-.06,1-.35-.39-.45-.93S499.42,309.64,499.57,309.62Z"/><path class="cls-10" d="M498.78,305.69c.14,0,.34.39.45.93s.08,1-.06,1-.34-.39-.45-.93S498.64,305.72,498.78,305.69Z"/><path class="cls-10" d="M498,301.77c.14,0,.34.39.45.93s.08,1-.06,1-.34-.38-.45-.93S497.85,301.8,498,301.77Z"/><path class="cls-10" d="M497.21,297.85c.14,0,.34.39.45.93s.08,1-.06,1-.34-.39-.45-.93S497.07,297.88,497.21,297.85Z"/><path class="cls-10" d="M496.43,293.93c.14,0,.34.39.45.93s.08,1-.06,1-.34-.39-.45-.93S496.29,294,496.43,293.93Z"/><path class="cls-10" d="M495.64,290c.14,0,.35.38.45.92s.09,1-.06,1-.34-.39-.45-.93S495.5,290,495.64,290Z"/><path class="cls-10" d="M495,286.6c.14,0,.32.27.4.67s0,.75-.11.77-.32-.27-.4-.67S494.82,286.63,495,286.6Z"/><path class="cls-21" d="M426.39,181.75s-5.84-8.76-6-8.84h0s-5.27-8.88-7-8.88-1.12,1.8.69,5a12.64,12.64,0,0,1,1.75,4.53l-4.33,2.62s-2.89-1.12-3,1.58a18.6,18.6,0,0,0,.49,3.66c.18,1,.61,2,1.52,1.62a1.12,1.12,0,0,0,.78-1.08c.05-1.6-.25-2.18,0-2.18s3.12,8.37,3.12,8.37Z"/><path class="cls-21" d="M414.59,174.87a8.06,8.06,0,0,0-1.39-.82,2.78,2.78,0,0,0-1.58-.25,1.28,1.28,0,0,0-1,1.8,4.13,4.13,0,0,0,.71,1.19"/><path class="cls-21" d="M416.57,173.11a7.63,7.63,0,0,0-1.32-.78,2.57,2.57,0,0,0-1.49-.23,1.39,1.39,0,0,0-.84.43,1.37,1.37,0,0,0-.15,1.26,11.47,11.47,0,0,0,1.34,1.73"/><path class="cls-21" d="M424.35,176.81l8.45,18.05-9.31,9.52-4.85-13.46s-2.6.52-3.66-1.21c-1.18-1.92-2.74-7.48-2.74-7.48Z"/><path class="cls-22" d="M418.32,176.31c-.16.06-.59-1.07-1.39-2.21s-1.9-1.68-1.81-1.83a3.34,3.34,0,0,1,2.23,1.52A4.29,4.29,0,0,1,418.32,176.31Z"/><path class="cls-22" d="M409,176.38s.2-.32.74-.51a2.68,2.68,0,0,1,2.16.19,3.6,3.6,0,0,1,1.43,1.6c.24.49.33.81.27.84s-.28-.23-.58-.64a4.52,4.52,0,0,0-1.37-1.35,2.89,2.89,0,0,0-1.82-.29C409.29,176.3,409,176.45,409,176.38Z"/><path class="cls-22" d="M412.1,173.84a2.56,2.56,0,0,1,2.3.8,3,3,0,0,1,1.22,2.11c-.15.07-.62-.9-1.56-1.72S412.07,174,412.1,173.84Z"/><path class="cls-22" d="M410,177.74c.15,0,.18.56.52,1.09s.8.8.76.94-.76,0-1.2-.66S409.89,177.69,410,177.74Z"/><path class="cls-21" d="M426.37,181.4s.29-5.39-1-6.61-5,.05-5,.05"/><path class="cls-22" d="M419.8,172.27a13.14,13.14,0,0,1,2.33,2.78,13,13,0,0,1,1.9,3.09,12.79,12.79,0,0,1-2.33-2.78A13.12,13.12,0,0,1,419.8,172.27Z"/><path class="cls-21" d="M510.77,177.18c-.13-.72-.31-1.57-.56-2.55a7.61,7.61,0,0,0-1.06-2.36,11.59,11.59,0,0,0-2.07-2.49,1,1,0,0,1,.44-1.84c.9,0,3.15,1.58,4.69,4.39s2.45-2.15,2.82-4,1.74-7.32,2.39-7.65c.94-.48,1.63.44,1.22,2.23s-1.24,7.25-.27,7.4,2.67-9.06,2.67-9.06.05-2,1.16-1.9c2,.24-.54,9.89-.8,10.8-.19.64.85.83,1,.14s1.5-9.22,3.55-9c1.58.17-2,8-1.32,9.88s2.13-6.18,3.63-6c.56.08,1,.22-.53,4.76-.72,2.2-3.53,12.5-3.53,12.5l1.61,8.45L513,194.21Z"/><path class="cls-21" d="M494.55,131.42l.13,42.05-18,.86-.53-10.23s-6.4,1.27-8.06-4.68c-1.05-3.8-.79-33.18-.79-33.18Z"/><path class="cls-9" d="M464.89,129.2c2.84.82,3.46,5.46,3.46,5.46l4.45,9.84c2.27-1.77,5.32-1.67,5.9,2.32.42,2.88-3.17,3.46-3.17,3.46,2.09,3.55,3.5,6.43,6.54,9.81,3.29,3.65,5.13,4,8.7,4.08h3.93s1.93-6.25,5.49-21.88c4-17.33-16.54-15.1-20.35-19.53C473.66,115.56,455.93,126.64,464.89,129.2Z"/><path class="cls-9" d="M499.82,143.93c3.32-2.23,3.62-8.48,1.68-12.23a12,12,0,0,0-10.23-6.36,4.73,4.73,0,0,1-1.68-.19,4.63,4.63,0,0,1-1.79-1.7c-3-3.86-5.89-7.66-11.43-7.66a6.28,6.28,0,0,0-3.48.87,5.47,5.47,0,0,0-2.09,2.76,11.9,11.9,0,0,0-3.23-1.16,4,4,0,0,0-3.25.79,2.44,2.44,0,0,0-.51,3.11,3.94,3.94,0,0,0-3.93,3.28c-.29,1.84,2.35,3.14,2.63,3.28,0,0-1.46,3,2,4.87,1.39.73,3.2-.15,3.41-.26"/><path class="cls-10" d="M486.65,148c.15,0,.19,1.41.58,3.09a30.54,30.54,0,0,1,.79,3,5.94,5.94,0,0,1-1.3-2.92A5.77,5.77,0,0,1,486.65,148Z"/><path class="cls-10" d="M484.46,145.91a13.33,13.33,0,0,1,.65,3,13.16,13.16,0,0,1,.47,3,7.08,7.08,0,0,1-1-2.92A7,7,0,0,1,484.46,145.91Z"/><path class="cls-10" d="M478.22,139c0-.05.62.22,1.37,1a9.71,9.71,0,0,1,2.14,3.41,17.42,17.42,0,0,1,1,3.89,5.13,5.13,0,0,1,.11,1.66,5.63,5.63,0,0,1-.47-1.59,30.4,30.4,0,0,0-1.08-3.77,11.88,11.88,0,0,0-1.93-3.35C478.67,139.41,478.17,139,478.22,139Z"/><path class="cls-10" d="M475.69,134.24a18.48,18.48,0,0,0,.28,3.89,18,18,0,0,0,1.59,3.57,5.7,5.7,0,0,1-2.1-3.44A5.63,5.63,0,0,1,475.69,134.24Z"/><path class="cls-10" d="M497.22,144.75c-.07-.13.38-.51,1-.86s1.17-.52,1.24-.4-.37.51-1,.86S497.29,144.87,497.22,144.75Z"/><path class="cls-10" d="M488.5,140.26c.15,0,.42.73.94,1.57s1.06,1.45,1,1.56-.85-.36-1.41-1.29S488.37,140.28,488.5,140.26Z"/><path class="cls-10" d="M485.82,138.82c.15,0,.53.89,1.21,1.91s1.4,1.75,1.3,1.86-1-.47-1.73-1.57A3.43,3.43,0,0,1,485.82,138.82Z"/><path class="cls-10" d="M472.5,121.21s.06-.1.2-.24a5.72,5.72,0,0,1,.69-.56,6.48,6.48,0,0,1,3.11-1,8.21,8.21,0,0,1,4.68,1.15,11.33,11.33,0,0,1,4,4.36,18.52,18.52,0,0,1,1.55,4.06l-.36-.16a9.11,9.11,0,0,1,4.24-1,9.37,9.37,0,0,1,3.38.61,8,8,0,0,1,2,1.08c.42.32.62.52.6.54a15.15,15.15,0,0,0-2.68-1.32,9.4,9.4,0,0,0-7.28.54l-.28.15-.08-.3a18.71,18.71,0,0,0-1.53-3.94,11.05,11.05,0,0,0-3.77-4.2,8.1,8.1,0,0,0-4.41-1.19,6.73,6.73,0,0,0-3,.77C472.85,121,472.54,121.25,472.5,121.21Z"/><path class="cls-10" d="M463,123.49a1.71,1.71,0,0,0-.89.59,1.62,1.62,0,0,0-.29,1.17,1.77,1.77,0,0,0,1,1.23,2.62,2.62,0,0,0,1.93.2,6.17,6.17,0,0,0,2.09-1.06,19.5,19.5,0,0,1,2.24-1.57,9.34,9.34,0,0,1,2.8-1,11.45,11.45,0,0,1,5.67.43,14.25,14.25,0,0,1,4.09,2.19,17.07,17.07,0,0,1,2.3,2.1,3.78,3.78,0,0,1,.7.89c-.07.07-1.11-1.19-3.22-2.69a15.09,15.09,0,0,0-4-2,11.34,11.34,0,0,0-5.42-.37,9,9,0,0,0-2.66.94,21.5,21.5,0,0,0-2.21,1.51,6.54,6.54,0,0,1-2.27,1.1,3,3,0,0,1-2.21-.31,2.09,2.09,0,0,1-1.05-1.52A1.78,1.78,0,0,1,462,124C462.51,123.35,463.05,123.48,463,123.49Z"/><path class="cls-7" d="M512.88,175.52l22,39.42a11.19,11.19,0,0,1-1.7,10.47l.45-.65a9.39,9.39,0,0,1-7.32,3.49H526a9.4,9.4,0,0,1-8.63-5.65l-5.18-7.86Z"/><path class="cls-7" d="M465.14,172.7c4.32-2.21,8.59-2.71,13.25-2.84,5.43-.16,13.08-.92,18.92-.3,0,0,17.82-.55,17.9,13.26l-2.35,53,3.81,22.72-53.39,1.61.38-26.8c-.66-14,.75-33.69.75-33.69-.82-7.5-4.92-10.87-5.5-15.75C458.39,179.61,461.27,174.67,465.14,172.7Z"/><path class="cls-9" d="M480.19,236.6c.06-.08,1.21,1,3.38,2.11A20.2,20.2,0,0,0,502,239c2.21-1.08,3.4-2.07,3.46-2a4.38,4.38,0,0,1-.81.73,17,17,0,0,1-2.48,1.59,19.47,19.47,0,0,1-18.78-.33,17.34,17.34,0,0,1-2.43-1.68C480.43,236.91,480.16,236.63,480.19,236.6Z"/><path class="cls-9" d="M515.21,182.82a2,2,0,0,1,0,.53v1.5c0,1.38-.06,3.25-.1,5.52-.11,4.66-.32,11.09-.62,18.2s-.65,13.54-1,18.19c-.16,2.32-.3,4.2-.43,5.5-.07.6-.12,1.09-.16,1.49a.26.26,0,1,1-.1,0c0-.41,0-.9,0-1.5.07-1.38.16-3.25.28-5.51.21-4.73.49-11.13.81-18.19s.57-13.47.77-18.19c.11-2.27.2-4.14.27-5.52,0-.6.07-1.09.09-1.5A2,2,0,0,1,515.21,182.82Z"/><path class="cls-7" d="M526.41,187.4s2,5.93,2.37,6.73c0,0,5,14.42,6.61,24.15l-15.94-28.79C519.32,189.51,526.19,187.46,526.41,187.4Z"/><path class="cls-9" d="M518.55,185.66a10.34,10.34,0,0,1,1,1.48c.63,1,1.48,2.41,2.5,4.08,2.1,3.46,5.19,8.11,8.28,13.47,1.55,2.68,2.84,5.32,4,7.77a14.14,14.14,0,0,1,1.49,7,10.52,10.52,0,0,1-1.42,4.6,7.28,7.28,0,0,1-.76,1.06c-.21.23-.32.34-.33.32s.39-.49.92-1.48a11,11,0,0,0,1.22-4.53,14.23,14.23,0,0,0-1.56-6.75c-1.13-2.41-2.43-5-4-7.71-3.08-5.33-6.13-10-8.15-13.53-1-1.74-1.82-3.17-2.36-4.17A11.68,11.68,0,0,1,518.55,185.66Z"/><path class="cls-7" d="M420.35,200.38l12.35-8.08,7.8,13.51s10.81-15,15.72-23.83c4.52-8.1,10.37-10.28,13.19-10.87a1.26,1.26,0,0,1,1.5,1.37l-4.26,29.21c-.54,1.52-9.46,14.45-14.44,20.95-8.32,10.86-20.57,3.91-23.94-3.69C425.6,212.92,421.44,203.76,420.35,200.38Z"/><path class="cls-9" d="M437,218a6.75,6.75,0,0,1-.11-1.94,24.58,24.58,0,0,1,.46-4.69,13,13,0,0,1,1.76-4.39c.68-1,1.28-1.5,1.32-1.45s-.43.61-1,1.64a15.37,15.37,0,0,0-1.57,4.31,38.76,38.76,0,0,0-.6,4.59A7.79,7.79,0,0,1,437,218Z"/><path class="cls-9" d="M433.33,212a3.36,3.36,0,0,1,.11-1.67,7.69,7.69,0,0,1,2-3.56,5,5,0,0,1,3.63-1.8c1.11,0,1.62.59,1.57.62a5.13,5.13,0,0,0-1.57-.26,5.22,5.22,0,0,0-3.26,1.8,8.93,8.93,0,0,0-2,3.3A12.11,12.11,0,0,1,433.33,212Z"/><path class="cls-9" d="M470.21,174.72s.14.08.37.27a6.83,6.83,0,0,1,.93.91,11.51,11.51,0,0,1,2.32,4.17,16.08,16.08,0,0,1,.59,7.06,15.31,15.31,0,0,1-1.07,4.08,41.85,41.85,0,0,1-2,4,153.92,153.92,0,0,1-8.53,13.18c-1.18,1.63-2.15,2.93-2.85,3.81-.34.45-.62.78-.81,1a1.84,1.84,0,0,1-.32.32,13.81,13.81,0,0,1,1-1.45l2.71-3.9c2.24-3.32,5.35-7.92,8.38-13.23a43.13,43.13,0,0,0,2-4,15.29,15.29,0,0,0,1.06-3.94,16.08,16.08,0,0,0-.46-6.89,12,12,0,0,0-2.13-4.15,8.8,8.8,0,0,0-.84-1A1.78,1.78,0,0,1,470.21,174.72Z"/><g class="cls-8"><path d="M484,239c-3.94-1.79-7.05-5.91-7.17-10.08a4.19,4.19,0,0,1,1-3.12c1.17-1.15,3.14-.94,4.59-.18,2.38,1.25,3.94,3.61,5.62,5.72s3.81,4.19,6.49,4.44a16.72,16.72,0,0,0,3.45-.26,5.84,5.84,0,0,1,3.39.41,2.57,2.57,0,0,1,1.4,2.87s-4.72,2.93-9.64,2.59A27.78,27.78,0,0,1,484,239Z"/></g><path class="cls-9" d="M470.18,252.34a9.91,9.91,0,0,1,1.54.37c1,.28,2.41.63,4.19,1s3.9.75,6.28,1.05a66.11,66.11,0,0,0,15.57,0c2.38-.28,4.52-.63,6.29-1s3.21-.72,4.19-1a8.26,8.26,0,0,1,1.54-.35,11.14,11.14,0,0,1-1.49.55c-1,.33-2.38.73-4.16,1.15a60,60,0,0,1-6.31,1.13,61.79,61.79,0,0,1-15.69,0,62.34,62.34,0,0,1-6.31-1.17c-1.77-.43-3.19-.84-4.15-1.18A7.9,7.9,0,0,1,470.18,252.34Z"/></g></svg>