<svg xmlns="http://www.w3.org/2000/svg" viewBox="0 0 686.67 434.27"><defs><style>.cls-1{fill:#ebebeb;}.cls-2{fill:#fafafa;}.cls-3{fill:#f5f5f5;}.cls-4{fill:#e0e0e0;}.cls-5{fill:#455a64;}.cls-6{fill:#2f57a4;}.cls-7{fill:#263238;}.cls-8,.cls-9{opacity:0.2;}.cls-10{fill:#ffbe9d;}.cls-11{fill:#eb996e;}.cls-12{fill:#e8505b;}</style></defs><g id="Background_Complete" data-name="Background Complete"><rect class="cls-1" x="8.65" y="37.22" width="119.58" height="214.82"/><rect class="cls-2" x="13.42" y="43.45" width="108.79" height="202.19"/><polygon class="cls-3" points="122.22 45.83 13.42 184.22 13.42 43.45 122.22 43.45 122.22 45.83"/><rect class="cls-1" x="13.42" y="101.61" width="111.15" height="2.15"/><rect class="cls-1" x="13.42" y="149.76" width="111.15" height="2.15"/><rect class="cls-1" x="13.42" y="197.91" width="111.15" height="2.15"/><rect class="cls-1" x="-6.52" y="174.28" width="148.68" height="5.5" transform="translate(-109.21 244.85) rotate(-90)"/><rect class="cls-1" x="34.37" y="43.45" width="2.49" height="59.24"/><rect class="cls-1" x="55.85" y="43.45" width="2.49" height="59.24"/><rect class="cls-1" x="77.33" y="43.45" width="2.49" height="59.24"/><rect class="cls-1" x="98.8" y="43.45" width="2.49" height="59.24"/><rect class="cls-3" x="3.59" y="33.58" width="5.06" height="219.79"/><polygon class="cls-4" points="133.28 253.97 128.23 252.04 128.23 33.58 133.28 33.58 133.28 253.97"/><rect class="cls-4" x="3.59" y="31.36" width="129.7" height="5.86"/><rect class="cls-4" y="254.7" width="136.71" height="5.46"/><polygon class="cls-1" points="128.23 252.04 136.71 254.7 0 254.7 8.65 252.04 128.23 252.04"/><path class="cls-1" d="M642.61,171.13s-8.45-.61-7.67,18.35,2.71,29.06,2.71,29.06-.25,4.21-3.51,3.38-9.38-4.91-12.4-1.86-2,8,2.14,13.77,12.82,18.62,13.59,19.79,1.08,3.3-1.23,3.09-17.89-5.49-20,2.06,12.15,21.6,13.68,23.16,1.6,2.56,1,3.51-5.68-1.32-10.18-2.64-9.93-2.07-10.76,2.39,5.44,17.47,28.89,31.16L650.18,322l10.68-6.81c22-16,26.89-29.56,25.62-33.91s-6.6-3.06-10.94-1.3-9.16,4.53-9.87,3.65-.72-1.87.64-3.59,14.09-17.12,11.29-24.42-17.78-.48-20.06,0-2.18-1.74-1.54-3,8-14.93,11.55-21.05,4.19-11.07.75-13.91-9,1.95-12.16,3.09-3.82-3-3.82-3,.91-10.24-.21-29.18-9.67-17.42-9.67-17.42"/><path class="cls-4" d="M643.28,188.11s0,.14,0,.4l.09,1.16c.07,1.05.18,2.55.31,4.48.26,3.89.59,9.52,1,16.48.78,13.91,1.68,33.14,2.61,54.38s1.78,40.49,2.48,54.41c.35,6.94.64,12.57.83,16.48.1,1.93.18,3.43.23,4.48,0,.5,0,.88,0,1.16s0,.4,0,.4a2.94,2.94,0,0,1,0-.39q0-.42-.09-1.17c-.07-1-.17-2.55-.3-4.47-.26-3.89-.59-9.52-1-16.48-.77-13.91-1.68-33.15-2.6-54.4s-1.79-40.47-2.48-54.39c-.36-6.94-.64-12.57-.84-16.48-.1-1.93-.17-3.44-.22-4.48,0-.5,0-.89-.05-1.17S643.28,188.11,643.28,188.11Z"/><path class="cls-4" d="M630.08,226.13a3.8,3.8,0,0,1,.7.59c.43.39,1,1,1.79,1.72,1.49,1.47,3.49,3.56,5.65,5.91l5.52,6,1.68,1.82a3.44,3.44,0,0,1,.59.7,4.19,4.19,0,0,1-.71-.58c-.43-.4-1-1-1.78-1.73-1.47-1.49-3.45-3.61-5.61-6l-5.56-6-1.69-1.81C630.26,226.4,630.05,226.15,630.08,226.13Z"/><path class="cls-4" d="M647.13,242.53c-.09-.08,4-4.4,9.21-9.65s9.44-9.43,9.52-9.34-4,4.4-9.21,9.65S647.21,242.62,647.13,242.53Z"/><path class="cls-4" d="M647.08,275.22a4.8,4.8,0,0,1,.79-.5l2.2-1.23c1.87-1.05,4.43-2.5,7.21-4.21s5.24-3.32,7-4.51l2.11-1.41a4.47,4.47,0,0,1,.8-.47,3.81,3.81,0,0,1-.7.61c-.47.37-1.17.89-2,1.52-1.74,1.25-4.18,2.92-7,4.63s-5.38,3.13-7.28,4.1c-1,.49-1.73.87-2.28,1.12A3.72,3.72,0,0,1,647.08,275.22Z"/><path class="cls-4" d="M628.39,263.78a3.76,3.76,0,0,1,.78.37c.49.26,1.19.65,2.05,1.14,1.72,1,4.07,2.35,6.66,3.89s4.93,2.95,6.6,4c.84.52,1.52.95,2,1.25s.71.48.69.51a3.39,3.39,0,0,1-.78-.37c-.49-.26-1.18-.64-2-1.13-1.72-1-4.08-2.35-6.67-3.89s-4.92-3-6.6-4c-.84-.52-1.51-.95-2-1.26A3.36,3.36,0,0,1,628.39,263.78Z"/><path class="cls-4" d="M624.69,292.64a5.77,5.77,0,0,1,1,.48l2.62,1.45c2.21,1.24,5.25,3,8.58,4.92s6.35,3.72,8.52,5l2.56,1.56a5.34,5.34,0,0,1,.91.63,6.18,6.18,0,0,1-1-.48l-2.62-1.45c-2.21-1.24-5.24-3-8.58-4.92s-6.35-3.72-8.52-5l-2.56-1.57A4.8,4.8,0,0,1,624.69,292.64Z"/><path class="cls-4" d="M648.38,306.21a6.44,6.44,0,0,1,1-.66l2.74-1.67c2.32-1.41,5.51-3.37,9-5.63s6.55-4.37,8.77-5.92l2.64-1.83a5.59,5.59,0,0,1,1-.63,6.3,6.3,0,0,1-.9.76c-.59.48-1.47,1.14-2.56,1.95-2.18,1.61-5.24,3.78-8.71,6s-6.69,4.18-9,5.53c-1.18.66-2.14,1.2-2.81,1.55A7.24,7.24,0,0,1,648.38,306.21Z"/><polygon class="cls-4" points="665.34 325.68 634.13 325.68 644.31 402.78 655.15 402.78 665.34 325.68"/><path class="cls-3" d="M635.75,335.16s0,.1.16.27a2.06,2.06,0,0,0,.76.54,3.75,3.75,0,0,0,3.29-.41c1.26-.69,2.36-2.06,4-2.66a8.85,8.85,0,0,1,5.74.11,24.75,24.75,0,0,1,5.34,2.59,35.3,35.3,0,0,0,4.35,2.33,11.81,11.81,0,0,0,3.2.93,5.65,5.65,0,0,0,.91.06,1.2,1.2,0,0,0,.32,0,16.85,16.85,0,0,1-4.29-1.29,43.67,43.67,0,0,1-4.25-2.41,23.28,23.28,0,0,0-5.43-2.67,9.2,9.2,0,0,0-6.06-.07,7.94,7.94,0,0,0-2.28,1.41,18.67,18.67,0,0,1-1.78,1.39,3.7,3.7,0,0,1-3,.52A3.34,3.34,0,0,1,635.75,335.16Z"/><path class="cls-3" d="M636.89,349.36s.24-.32.73-.83a6.93,6.93,0,0,1,2.49-1.58,11,11,0,0,1,4.34-.65,44.83,44.83,0,0,1,5.43.73,18.53,18.53,0,0,0,5.56.24,15.5,15.5,0,0,0,4.38-1.25,13.56,13.56,0,0,0,2.63-1.57,3.29,3.29,0,0,0,.83-.75,26,26,0,0,1-3.6,2,16.22,16.22,0,0,1-4.29,1.11,19.16,19.16,0,0,1-5.43-.27,40.45,40.45,0,0,0-5.49-.7,11,11,0,0,0-4.49.78,6.61,6.61,0,0,0-2.51,1.79,4.46,4.46,0,0,0-.47.69C636.91,349.26,636.87,349.35,636.89,349.36Z"/><path class="cls-3" d="M661.8,357a2.79,2.79,0,0,0-.86-.45,9.24,9.24,0,0,0-2.59-.55,16.48,16.48,0,0,0-3.91.22c-1.45.24-3,.64-4.65,1a19.54,19.54,0,0,1-4.65.52,10.06,10.06,0,0,1-3.69-.8,8.55,8.55,0,0,1-2.8-2.08,2.66,2.66,0,0,0,.53.82,6.62,6.62,0,0,0,2.12,1.59,9.92,9.92,0,0,0,3.82.94,19.15,19.15,0,0,0,4.77-.49c1.66-.36,3.21-.77,4.63-1a18,18,0,0,1,3.81-.32A14.06,14.06,0,0,1,661.8,357Z"/><path class="cls-3" d="M639.64,367.65a5.19,5.19,0,0,1,3-.3,14.46,14.46,0,0,1,3.17,1.18,11.91,11.91,0,0,0,4.12,1.13,12.25,12.25,0,0,0,7.46-1.73,9.75,9.75,0,0,0,1.86-1.43c.38-.4.58-.63.55-.66a26.35,26.35,0,0,1-2.59,1.78,12.76,12.76,0,0,1-7.24,1.54c-3-.17-5.22-1.93-7.27-2.17a4.61,4.61,0,0,0-2.35.21A1.65,1.65,0,0,0,639.64,367.65Z"/><path class="cls-3" d="M641.38,382.45a6,6,0,0,0,2.6-.51c1.57-.53,3.51-1.73,5.78-2.63a9.42,9.42,0,0,1,3.32-.7,6.14,6.14,0,0,1,2.66.61,5.84,5.84,0,0,1,1.93,1.67s0-.27-.29-.66a4.44,4.44,0,0,0-1.47-1.33,6.29,6.29,0,0,0-2.82-.76,9.36,9.36,0,0,0-3.51.69c-2.35.94-4.23,2.18-5.73,2.77S641.37,382.37,641.38,382.45Z"/><path class="cls-3" d="M642.91,389.34a7.47,7.47,0,0,0,2,.64,35.12,35.12,0,0,0,4.94.83,36,36,0,0,0,5,.15,7,7,0,0,0,2.07-.25c0-.15-3.16,0-7-.4S643,389.19,642.91,389.34Z"/><rect class="cls-4" x="551.26" y="46.06" width="96.36" height="63.36"/><rect class="cls-2" x="554.61" y="48.65" width="89.61" height="57.93"/><rect class="cls-4" x="584.8" y="69.76" width="29.23" height="15.94"/></g><g id="Device"><path class="cls-1" d="M245.55,0H451.91a0,0,0,0,1,0,0V196.54a16.22,16.22,0,0,1-16.22,16.22H245.55a0,0,0,0,1,0,0V0A0,0,0,0,1,245.55,0Z"/><path class="cls-5" d="M434.87,63.32c0,.43-37.3.78-83.3.78s-83.3-.35-83.3-.78,37.29-.78,83.3-.78S434.87,62.89,434.87,63.32Z"/><path class="cls-5" d="M352.56,77.73c0,.43-18.43.78-41.16.78s-41.15-.35-41.15-.78S288.67,77,311.4,77,352.56,77.3,352.56,77.73Z"/><path class="cls-5" d="M385.48,76.4c0,.43-4.88.78-10.9.78s-10.9-.35-10.9-.78,4.88-.78,10.9-.78S385.48,76,385.48,76.4Z"/><path class="cls-5" d="M439.32,75.51c0,.43-9.67.78-21.58.78s-21.58-.35-21.58-.78,9.66-.78,21.58-.78S439.32,75.08,439.32,75.51Z"/><path class="cls-5" d="M345.68,91.53c0,.43-17.33.78-38.7.78s-38.71-.35-38.71-.78,17.32-.79,38.71-.79S345.68,91.09,345.68,91.53Z"/><path class="cls-5" d="M439.32,91.13c0,.43-18.93.78-42.27.78s-42.27-.35-42.27-.78,18.92-.78,42.27-.78S439.32,90.7,439.32,91.13Z"/><path class="cls-5" d="M439.32,105c0,.43-8.43.78-18.82.78s-18.82-.35-18.82-.78,8.42-.78,18.82-.78S439.32,104.58,439.32,105Z"/><path class="cls-6" d="M361.45,47.87c0,.43-20.42.78-45.6.78s-45.6-.35-45.6-.78,20.41-.78,45.6-.78S361.45,47.44,361.45,47.87Z"/><rect class="cls-7" x="74.22" y="119.17" width="428.67" height="283.47" rx="14.57"/><path class="cls-7" d="M56.89,381.68H521.32a0,0,0,0,1,0,0v7a17.8,17.8,0,0,1-17.8,17.8H74.69a17.8,17.8,0,0,1-17.8-17.8v-7a0,0,0,0,1,0,0Z"/><rect class="cls-5" x="86.32" y="130.43" width="404.45" height="239.39"/><path class="cls-5" d="M246.89,381.68l.45,0h1.36l5.28,0,19.6-.08,65.52-.14h.49l-.25.41c-.82,1.42-1.71,2.93-2.6,4.46L334,391l-.08.14h-.16L252.66,391h-.07l0-.06L248.3,384l-1.06-1.75-.35-.57.41.6c.26.42.64,1,1.13,1.76,1,1.54,2.45,3.8,4.33,6.74l-.1-.06,81.09-.16-.24.14,2.75-4.71,2.6-4.45.24.41-65.25-.14-19.69-.08-5.37,0h-1.9Z"/><path class="cls-5" d="M502.88,381.67c0,.15-96,.27-214.32.27s-214.34-.12-214.34-.27,95.95-.26,214.34-.26S502.88,381.53,502.88,381.67Z"/><path class="cls-7" d="M393.48,82.62h0a12,12,0,0,1,12,12v24.57H369.65V96.5a13.89,13.89,0,0,1,13.88-13.88Z"/><path class="cls-7" d="M393.48,82.62c0,.15-33.78.23-75.44.2s-75.46-.19-75.46-.33,33.78-.23,75.46-.19S393.48,82.48,393.48,82.62Z"/><path class="cls-2" d="M393.17,82.59l-14.93-.1-21.69.13H197.21a24.5,24.5,0,0,0-24.5,24.5V370.39H379.06V96.05C379.67,82.62,393.17,82.59,393.17,82.59Z"/><path class="cls-7" d="M393.17,82.59l-124.43.28-62.21,0h-7.78c-1.3,0-2.58,0-3.85.12a26.72,26.72,0,0,0-3.78.68,24,24,0,0,0-16.49,14.8,17,17,0,0,0-.62,1.82l-.48,1.85a27.3,27.3,0,0,0-.45,3.81c-.11,5.15,0,10.36,0,15.54l.16,248.85-.49-.49,206.35.13-.36.36.1-148,.12-74,.07-37,0-9.25V97.52a14.78,14.78,0,0,1,.1-2.31,11.75,11.75,0,0,1,.36-2.29,12.21,12.21,0,0,1,5-7.53,14.5,14.5,0,0,1,4.15-2A17.51,17.51,0,0,1,393.17,82.59Zm0,0a18,18,0,0,0-4.54.81,14.42,14.42,0,0,0-4.13,2,12.14,12.14,0,0,0-4.95,7.52,12.46,12.46,0,0,0-.35,2.27,14.83,14.83,0,0,0-.09,2.31v4.62l0,9.25.07,37,.12,74,.1,148v.37h-.37l-206.35.13h-.5v-.5l.17-248.85c0-5.19,0-10.36.06-15.57a27,27,0,0,1,.47-3.9l.49-1.91A17.75,17.75,0,0,1,174,98.3,24.59,24.59,0,0,1,191,83.15a25.32,25.32,0,0,1,3.87-.7c1.31-.07,2.62-.15,3.91-.12h7.78l62.21,0Z"/><path class="cls-6" d="M203.79,130h36l.06,12.06h-1.72q-.85-6.47-4.85-8.75a15,15,0,0,0-6.72-1.38v31.51c0,2.2.39,3.66,1.16,4.38s2.37,1.08,4.8,1.08v1.52H211.21v-1.52c2.34,0,3.89-.36,4.66-1.09s1.15-2.19,1.15-4.37V131.92a15.35,15.35,0,0,0-6.72,1.38q-4.29,2.34-4.84,8.75h-1.73Z"/><path class="cls-6" d="M350.75,132.71c0,.43-19.87.78-44.36.78s-44.37-.35-44.37-.78,19.86-.78,44.37-.78S350.75,132.28,350.75,132.71Z"/><path class="cls-5" d="M298.11,146.89c0,.43-7.68.78-17.16.78s-17.15-.35-17.15-.78,7.68-.78,17.15-.78S298.11,146.46,298.11,146.89Z"/><path class="cls-5" d="M254.87,190.13c0,.43-14.59.78-32.58.78s-32.58-.35-32.58-.78,14.59-.78,32.58-.78S254.87,189.7,254.87,190.13Z"/><path class="cls-6" d="M328.64,190.13c0,.43-14.58.78-32.57.78s-32.58-.35-32.58-.78,14.58-.78,32.58-.78S328.64,189.7,328.64,190.13Z"/><path class="cls-5" d="M254.87,201.68c0,.43-14.59.78-32.58.78s-32.58-.35-32.58-.78,14.59-.78,32.58-.78S254.87,201.25,254.87,201.68Z"/><path class="cls-6" d="M254.87,213.23c0,.43-14.59.78-32.58.78s-32.58-.35-32.58-.78,14.59-.78,32.58-.78S254.87,212.8,254.87,213.23Z"/><path class="cls-5" d="M298.11,170.41c0,.43-7.68.78-17.16.78s-17.15-.35-17.15-.78,7.68-.78,17.15-.78S298.11,170,298.11,170.41Z"/><path class="cls-5" d="M357.6,190.13c0,.43-5.12.78-11.43.78s-11.44-.35-11.44-.78,5.12-.78,11.44-.78S357.6,189.7,357.6,190.13Z"/><path class="cls-5" d="M363.72,146.89c0,.43-13.18.78-29.43.78s-29.43-.35-29.43-.78,13.17-.78,29.43-.78S363.72,146.46,363.72,146.89Z"/><path class="cls-5" d="M361.07,158.15c0,.43-21.78.78-48.63.78s-48.64-.35-48.64-.78,21.77-.78,48.64-.78S361.07,157.72,361.07,158.15Z"/><path class="cls-5" d="M357.6,201.68c0,.43-21.07.78-47.05.78s-47.06-.35-47.06-.78,21.07-.78,47.06-.78S357.6,201.25,357.6,201.68Z"/><path class="cls-6" d="M357.6,235.11c0,.43-19.77.78-44.15.78s-44.16-.35-44.16-.78,19.77-.78,44.16-.78S357.6,234.68,357.6,235.11Z"/><path class="cls-5" d="M357.6,246.35c0,.43-19.77.78-44.15.78s-44.16-.35-44.16-.78,19.77-.78,44.16-.78S357.6,245.92,357.6,246.35Z"/><path class="cls-5" d="M357.6,257.59c0,.43-19.77.78-44.15.78s-44.16-.35-44.16-.78,19.77-.78,44.16-.78S357.6,257.16,357.6,257.59Z"/><path class="cls-5" d="M357.6,268.83c0,.43-19.77.78-44.15.78s-44.16-.35-44.16-.78,19.77-.78,44.16-.78S357.6,268.4,357.6,268.83Z"/><path class="cls-5" d="M320.13,280.07c0,.22-2.84.41-7.44.55s-11,.23-18,.23-13.37-.09-18-.23-7.45-.33-7.45-.55,2.85-.41,7.45-.55,10.95-.23,18-.23,13.38.09,18,.23S320.13,279.86,320.13,280.07Z"/><path class="cls-5" d="M341.6,213.83c0,.43-17,.78-38,.78s-38-.35-38-.78,17-.78,38-.78S341.6,213.4,341.6,213.83Z"/><polygon class="cls-4" points="253.32 236.38 258.01 323.14 173.18 333.76 173.11 235.65 253.32 236.38"/><rect class="cls-3" x="154.73" y="219.19" width="92.04" height="115.12" transform="translate(-77.29 475.72) rotate(-89.63)"/><rect class="cls-6" x="160.45" y="223.23" width="80.45" height="107.03" transform="translate(-77.36 475.64) rotate(-89.63)"/><g class="cls-8"><polygon points="146.9 316.63 184.6 266.87 207.56 298.3 223.37 281.68 253.93 317.32 146.9 316.63"/></g><g class="cls-8"><path d="M217.63,261a8.43,8.43,0,1,1-8.38-8.48A8.43,8.43,0,0,1,217.63,261Z"/></g><path class="cls-7" d="M269.1,344.86a1.78,1.78,0,1,1-1.78-1.78A1.78,1.78,0,0,1,269.1,344.86Z"/><path class="cls-7" d="M279.66,344.86a1.78,1.78,0,1,1-1.78-1.78A1.78,1.78,0,0,1,279.66,344.86Z"/><path class="cls-7" d="M290.22,344.86a1.78,1.78,0,1,1-1.78-1.78A1.78,1.78,0,0,1,290.22,344.86Z"/><path class="cls-6" d="M329.14,303.49c0,.43-14.59.78-32.58.78s-32.57-.35-32.57-.78,14.58-.78,32.57-.78S329.14,303.06,329.14,303.49Z"/><path class="cls-5" d="M358.1,315c0,.43-21.07.78-47.05.78S264,315.47,264,315s21.06-.78,47.06-.78S358.1,314.61,358.1,315Z"/></g><g id="Box"><rect class="cls-3" x="571.92" y="327.55" width="55.44" height="69.34" transform="matrix(0.01, -1, 1, 0.01, 233.58, 959.53)"/><rect class="cls-6" x="575.37" y="329.99" width="48.46" height="64.47" transform="translate(233.53 959.48) rotate(-89.63)"/><polygon class="cls-9" points="567.21 386.25 589.92 356.27 603.75 375.2 613.27 365.19 631.68 386.66 567.21 386.25"/><g class="cls-8"><path d="M609.81,352.71a5.08,5.08,0,1,1-5-5.11A5.07,5.07,0,0,1,609.81,352.71Z"/></g><rect class="cls-3" x="561.75" y="321.76" width="55.44" height="69.34" transform="translate(229.26 943.61) rotate(-89.63)"/><rect class="cls-6" x="565.2" y="324.2" width="48.46" height="64.47" transform="translate(229.22 943.56) rotate(-89.63)"/><polygon class="cls-9" points="557.04 380.46 579.75 350.48 593.58 369.41 603.1 359.4 621.51 380.87 557.04 380.46"/><g class="cls-8"><path d="M599.64,346.92a5.08,5.08,0,1,1-5-5.11A5.07,5.07,0,0,1,599.64,346.92Z"/></g><rect class="cls-3" x="552.7" y="316.98" width="55.44" height="69.34" transform="translate(225.05 929.8) rotate(-89.63)"/><rect class="cls-6" x="556.14" y="319.41" width="48.46" height="64.47" transform="translate(225 929.75) rotate(-89.63)"/><polygon class="cls-9" points="547.98 375.67 570.69 345.69 584.52 364.63 594.05 354.62 612.45 376.09 547.98 375.67"/><g class="cls-8"><path d="M590.59,342.13a5.08,5.08,0,1,1-5.05-5.11A5.09,5.09,0,0,1,590.59,342.13Z"/></g><rect class="cls-3" x="542.53" y="322.93" width="55.44" height="69.34" transform="matrix(0.01, -1, 1, 0.01, 208.99, 925.54)"/><rect class="cls-5" x="545.97" y="325.37" width="48.46" height="64.47" transform="translate(208.94 925.5) rotate(-89.63)"/><polygon class="cls-9" points="537.81 381.63 560.52 351.65 574.35 370.58 583.88 360.57 602.28 382.04 537.81 381.63"/><g class="cls-8"><path d="M580.42,348.09a5.08,5.08,0,1,1-5-5.11A5.08,5.08,0,0,1,580.42,348.09Z"/></g><rect class="cls-7" x="605.1" y="350.28" width="40.03" height="53.53"/><path class="cls-6" d="M528.42,350.28v53.53h80.07V350.28ZM577,363H560a3.69,3.69,0,1,1,0-7.37h17a3.69,3.69,0,1,1,0,7.37Z"/></g><g id="Character"><path class="cls-5" d="M476.51,398.21l-74.46-4.56c-.47-1.06-.78-1.68-.78-1.68l-20.18.4-6.57-.4-.26.53-67.74,1.35c-13.5,0-27.7,8.24-27.7,18.77-.17,10,4.68,20.9,16.78,20.65l92.3-.31,92.29.31c12.1.25,15.3-7,15.32-15.71C496.92,401.44,486.82,398.34,476.51,398.21Z"/><path class="cls-7" d="M304.07,433.28l.45,0,1.3,0,5-.05,18.57-.08,62-.08-.26.27c-.12-2-.26-4.18-.4-6.37-.27-4.46-.55-8.85-.81-13l.23.24-57.09-6.35-16.91-1.94-4.56-.54-1.18-.16-.4-.07.4,0,1.19.11,4.57.46,16.93,1.78,57.11,6.18.21,0,0,.22c.26,4.17.53,8.57.81,13,.14,2.18.27,4.35.4,6.37l0,.28h-.28l-62-.08-18.57-.08-5-.05-1.3,0A3.82,3.82,0,0,1,304.07,433.28Z"/><path class="cls-7" d="M323.1,406.8c-.06.07-1-.68-2.61-1.67a27.6,27.6,0,0,0-14.1-4.05c-1.91,0-3.09.11-3.1,0a3,3,0,0,1,.82-.19,17.43,17.43,0,0,1,2.27-.2,24.44,24.44,0,0,1,14.31,4.11,16,16,0,0,1,1.82,1.39C322.91,406.56,323.12,406.77,323.1,406.8Z"/><path class="cls-7" d="M470.73,402.84c0,.14-14.66,3.69-32.8,7.93S405,418.34,405,418.2s14.65-3.7,32.8-7.94S470.69,402.7,470.73,402.84Z"/><path class="cls-7" d="M458.31,401.41a28.91,28.91,0,0,0-5.75,2.75,29.44,29.44,0,0,0-4.68,4.34,5.11,5.11,0,0,1,1-1.63,15.28,15.28,0,0,1,7.55-5.13A4.85,4.85,0,0,1,458.31,401.41Z"/><path class="cls-10" d="M430.59,316.87l23.59,41.06a17.46,17.46,0,0,1,.48,16.49h0a17.46,17.46,0,0,1-16.1,9.63l-36.21-1-1-13.17,31.9-6.11-21.51-37.21Z"/><path class="cls-10" d="M342.7,387.13,376,396l.72-10L346,368.14l22.42-41.6-18.81-9.67-23.59,41.06h0a19.22,19.22,0,0,0,11.1,27.43Z"/><path class="cls-6" d="M420.58,343.23l22.76-12A115.7,115.7,0,0,0,433.59,315a50,50,0,0,0-30.39-19.16h0l-26.18.31a35.1,35.1,0,0,0-9.33,2.15l0-.1c-14.21,3.13-30,34.12-30,34.12l20.71,10.91.46,3.25a22.11,22.11,0,0,0,5.4,11.61l-6,39.67,67.22,1.39-8.56-28.41Z"/><path class="cls-7" d="M364.9,358.29a5,5,0,0,1-1-.76,14.27,14.27,0,0,1-2.29-2.55,16.64,16.64,0,0,1-2.8-10.82,34.91,34.91,0,0,1,1.53-6c.61-1.81,1.22-3.41,1.75-4.75s1-2.4,1.33-3.14a5.27,5.27,0,0,1,.57-1.11,6.57,6.57,0,0,1-.39,1.19c-.31.85-.7,1.92-1.17,3.19s-1.06,3-1.63,4.77a38.77,38.77,0,0,0-1.48,5.94,17.09,17.09,0,0,0,.57,6,15.75,15.75,0,0,0,2,4.53A27.24,27.24,0,0,0,364.9,358.29Z"/><polygon class="cls-7" points="354.82 407.32 351.03 363.07 432.91 363.07 427.48 407.87 354.82 407.32"/><path class="cls-2" d="M397.18,386.67a5.21,5.21,0,1,1-5.21-5.21A5.22,5.22,0,0,1,397.18,386.67Z"/><polygon class="cls-10" points="390.54 415.97 404.44 417.91 404.44 433.02 391.65 432.69 390.54 415.97"/><path class="cls-6" d="M404.44,417.91h6.25a7,7,0,0,1,3.46.92l3.3,1.91a53.31,53.31,0,0,0,5.76,2.75c3.8,1.22,10.19,2.86,11.54,3.9,3.84,3,2.68,6.47.56,6.84-1.85.32-30.87-1.21-30.87-1.21Z"/><path class="cls-7" d="M414.71,431.77a9.62,9.62,0,0,1-.68-3.93,9.77,9.77,0,0,1,.44-4,35.15,35.15,0,0,1,.08,3.95A38.19,38.19,0,0,1,414.71,431.77Z"/><path class="cls-7" d="M417.67,431.69a12.81,12.81,0,0,1-.23-3.61,12.68,12.68,0,0,1,.29-3.61,12.76,12.76,0,0,1,.23,3.61A13.13,13.13,0,0,1,417.67,431.69Z"/><path class="cls-7" d="M421.17,432.28a13.82,13.82,0,0,1-.54-3.69,13.52,13.52,0,0,1,0-3.74,26.79,26.79,0,0,1,.58,7.43Z"/><path class="cls-7" d="M412,427.75a4.57,4.57,0,0,1-1.28-.41,11.59,11.59,0,0,1-3.12-1.93c-.3-.25-.6-.53-.9-.83a3.68,3.68,0,0,1-.79-1.13,1.56,1.56,0,0,1,.17-1.55,1.16,1.16,0,0,1,.78-.43,2,2,0,0,1,.84.09A6.23,6.23,0,0,1,409,432.64a4.11,4.11,0,0,1-1.43.64,1.75,1.75,0,0,1-.82,0,1.06,1.06,0,0,1-.63-.56,1.59,1.59,0,0,1,.18-1.44,4.57,4.57,0,0,1,.81-1,9.58,9.58,0,0,1,3.07-2,4.07,4.07,0,0,1,1.29-.37s-.44.18-1.21.55a10.14,10.14,0,0,0-2.89,2.09,4.45,4.45,0,0,0-.72.9,1.18,1.18,0,0,0-.14,1.05.82.82,0,0,0,1,.34,3.56,3.56,0,0,0,1.25-.59A5.78,5.78,0,0,0,407.56,422a1,1,0,0,0-1.12.16,1.16,1.16,0,0,0-.13,1.11,6.14,6.14,0,0,0,1.53,1.85A17.3,17.3,0,0,0,412,427.75Z"/><path class="cls-7" d="M435.31,434.23a3.73,3.73,0,0,0,.77-1,3.62,3.62,0,0,0-.41-3.16,7.06,7.06,0,0,0-3.87-2.91c-1.76-.63-3.87-.94-6-1.6a41.66,41.66,0,0,1-10.32-4.71c-1.23-.78-2.18-1.48-2.82-2a5.86,5.86,0,0,1-1-.84,5.92,5.92,0,0,1,1.07.68c.67.44,1.65,1.09,2.89,1.83A46.79,46.79,0,0,0,426,425.11c2.1.65,4.18,1,6,1.65a7.27,7.27,0,0,1,4,3.19,3.7,3.7,0,0,1,.27,3.42,2.08,2.08,0,0,1-.65.71A.74.74,0,0,1,435.31,434.23Z"/><path class="cls-3" d="M425.85,306.69s0,.07,0,.21l-.05.62c-.05.59-.13,1.39-.22,2.42-.21,2.15-.52,5.22-.91,9.08l0,.23-.21-.11-12.07-6.35.28-.08-6.56,11.06L406,324l-.21-.17-11.05-8.47H395l-4.81,3.77-6.56,5.13-.24.19-.14-.27L377,312.64l.31.1-13.24,5.91-.24.1,0-.26-2-11.78.21.12-7.59,2.89-2,.75-.52.18-.18.05s.05,0,.17-.09l.5-.22,2-.82,7.54-3,.17-.07,0,.18c.59,3.29,1.3,7.23,2.11,11.76l-.29-.15,13.22-6,.2-.09.11.2L383.71,324l-.38-.08,6.55-5.14,4.81-3.77.16-.12.16.12,11,8.49-.36.07,6.61-11,.11-.18.18.1,12,6.45-.24.12,1.06-9.06c.13-1,.23-1.83.3-2.41,0-.25.07-.45.09-.62A.91.91,0,0,1,425.85,306.69Z"/><path class="cls-3" d="M435.57,317.82l-.06.29c-.05.22-.12.5-.21.85-.2.78-.49,1.87-.86,3.27-.77,2.88-1.88,7-3.27,12.17l-.05.2-.19-.09-14.11-6.77.28-.07-11.88,16.94-.18.25-.21-.22-11.42-11.57-2.4-2.43.33,0C386,334,380.82,337.27,376,340.33l-.22.13-.13-.22-8.29-14.65.26.09-15.83,5.45-.15.05,0-.15c-1.5-4.34-2.69-7.79-3.51-10.18l-.91-2.71c-.09-.29-.17-.52-.22-.7s-.07-.24-.07-.24a.88.88,0,0,1,.11.23l.26.68c.24.64.57,1.53,1,2.68l3.65,10.14-.2-.1,15.78-5.56.17-.06.09.16L376,340l-.34-.08,15.37-9.67.18-.12.15.15,2.39,2.43,11.41,11.59-.39,0,11.94-16.91.11-.15.17.08,14.06,6.86-.24.11c1.45-5.14,2.62-9.26,3.43-12.13l.94-3.24c.1-.35.19-.63.25-.84A1,1,0,0,1,435.57,317.82Z"/><path class="cls-7" d="M425.48,248.06a14.7,14.7,0,0,1-11.18-3.53c3.64,1.84,8.5-.68,9.78-4.56s.23-11.08-2.95-13.64a12.63,12.63,0,0,0-11-2.36c-3.75,1-7.73,6.71-9,10.39l.07.11c-.58-.23-1.16-.44-1.75-.64a30,30,0,0,0-12.94-1.56,21,21,0,0,0-11.83,5.2l25.43,40.88c4.61-.41,8.71-3.53,11.13-7.48s3.34-8.66,3.57-13.29c.06-1.16.06-2.34,0-3.51l8.18,1.31a18.21,18.21,0,0,0-5.44-4.86A6.82,6.82,0,0,0,425.48,248.06Z"/><path class="cls-10" d="M393.34,311.49a12.79,12.79,0,0,0,12.51-12.64l.59-50.85h0a4,4,0,0,0-3.62-4.1l-21.48-5.43c-6.88-.73-11.45,7.74-11.88,14.65-.49,7.66-.77,17.05.13,22.77,1.83,11.5,10.65,13,10.65,13s0,4.45,0,9.9a12.8,12.8,0,0,0,13.07,12.73Z"/><path class="cls-7" d="M373.92,260.56a1.47,1.47,0,0,0,1.42,1.49,1.41,1.41,0,0,0,1.52-1.33,1.48,1.48,0,0,0-1.42-1.49A1.41,1.41,0,0,0,373.92,260.56Z"/><path class="cls-7" d="M371.49,258c.18.19,1.3-.64,2.89-.63s2.75.79,2.92.6-.1-.43-.61-.8a4,4,0,0,0-2.34-.73,3.87,3.87,0,0,0-2.3.75C371.57,257.56,371.4,257.91,371.49,258Z"/><path class="cls-7" d="M389,260.56a1.48,1.48,0,0,0,1.43,1.49,1.41,1.41,0,0,0,1.52-1.33,1.48,1.48,0,0,0-1.42-1.49A1.42,1.42,0,0,0,389,260.56Z"/><path class="cls-7" d="M387.1,258.29c.18.19,1.3-.63,2.89-.63s2.75.8,2.92.61-.1-.44-.61-.81a4.06,4.06,0,0,0-2.34-.72,3.94,3.94,0,0,0-2.3.74C387.18,257.86,387,258.21,387.1,258.29Z"/><path class="cls-7" d="M381.34,270.07a10.81,10.81,0,0,0-2.58-.47c-.41,0-.79-.12-.86-.4a2,2,0,0,1,.27-1.2l1.2-3.09c1.67-4.39,2.87-8,2.69-8.07s-1.67,3.44-3.33,7.84l-1.15,3.1a2.32,2.32,0,0,0-.21,1.6,1,1,0,0,0,.66.59,2.62,2.62,0,0,0,.69.09A10.45,10.45,0,0,0,381.34,270.07Z"/><path class="cls-11" d="M380.24,288.86a29.27,29.27,0,0,0,15.41-4.11s-3.74,7.9-15.25,6.83Z"/><path class="cls-11" d="M382,273.9a2.86,2.86,0,0,1,2.56-1.07,2.66,2.66,0,0,1,1.81,1,1.65,1.65,0,0,1,.12,1.89,1.91,1.91,0,0,1-2.08.53,6,6,0,0,1-2-1.21,1.83,1.83,0,0,1-.45-.47.53.53,0,0,1,0-.59"/><path class="cls-7" d="M386,271.17c-.26,0-.26,1.71-1.74,2.93s-3.31,1-3.32,1.27.41.34,1.18.36a4.26,4.26,0,0,0,2.78-1,3.69,3.69,0,0,0,1.34-2.46C386.32,271.58,386.13,271.16,386,271.17Z"/><path class="cls-7" d="M386.39,255.51c.15.43,1.74.23,3.6.45s3.37.74,3.62.35c.11-.19-.15-.59-.76-1a6.05,6.05,0,0,0-2.68-.94,6.13,6.13,0,0,0-2.82.33C386.66,255,386.32,255.31,386.39,255.51Z"/><path class="cls-7" d="M371.71,255.07c.28.36,1.38,0,2.69,0s2.43.25,2.69-.13c.11-.18-.07-.54-.55-.89a3.78,3.78,0,0,0-2.19-.59,3.7,3.7,0,0,0-2.14.73C371.74,254.52,371.59,254.89,371.71,255.07Z"/><path class="cls-10" d="M405.17,262.3a2.9,2.9,0,0,1,3,.15,5.34,5.34,0,0,1-3.37,9.91"/><path class="cls-11" d="M406,268.93c0-.08.45.1,1-.16a2,2,0,0,0,1-2,2,2,0,0,0-1.23-1.85c-.57-.24-1-.12-1-.21s.39-.36,1.15-.19a2,2,0,0,1,1.12.7,2.59,2.59,0,0,1,.58,1.51,2.3,2.3,0,0,1-1.44,2.4C406.33,269.37,405.91,269,406,268.93Z"/><path class="cls-5" d="M409.12,271.26a2.41,2.41,0,0,1,.52.37l1.41,1.15,5,4.22.16.14-.14.17c-1.85,2.22-3.91,5-6.22,7.9-.53.66-1.05,1.3-1.56,1.9l-.42.5,0-.66c-.21-4.68-.37-8.83-.46-11.8,0-1.42-.07-2.6-.09-3.51a5.53,5.53,0,0,1,0-1.28,7.44,7.44,0,0,1,.15,1.27c.06.91.14,2.09.24,3.5.18,3,.41,7.12.63,11.8l-.45-.15,1.54-1.89c2.31-2.9,4.4-5.66,6.3-7.87l0,.32L410.89,273l-1.33-1.25C409.25,271.44,409.1,271.28,409.12,271.26Z"/><path class="cls-7" d="M385.85,233.44a42,42,0,0,0-8.39.92,14,14,0,0,0-7.26,4.08,8.52,8.52,0,0,0-2,7.85,6.17,6.17,0,0,0,6.37,4.44c2.12-.28,4.15-1.85,6.2-1.23s3,2.95,5,3.32,3.71-1.4,5.7-1.57c2.19-.19,4.1,1.61,5.07,3.58s1.35,4.2,2.33,6.18a5,5,0,0,0,3,2.82,4.08,4.08,0,0,0,3.59-1,8.41,8.41,0,0,0,2.1-3.22A17.87,17.87,0,0,0,393,235.11"/><path class="cls-12" d="M413.88,245.66c-.09,0-.35-.93-1.06-2.33a16.7,16.7,0,0,0-8.9-8.05c-1.47-.56-2.45-.73-2.43-.82a2,2,0,0,1,.7,0,10,10,0,0,1,1.85.44,15,15,0,0,1,5.43,3.15,15.25,15.25,0,0,1,3.68,5.08,9.91,9.91,0,0,1,.62,1.8C413.88,245.41,413.92,245.65,413.88,245.66Z"/><path class="cls-5" d="M422.68,228.81a18.27,18.27,0,0,0-2.77-.86,11.11,11.11,0,0,0-6.75,1A15.2,15.2,0,0,0,408,233.5c-1.07,1.45-1.57,2.46-1.65,2.42a2.17,2.17,0,0,1,.28-.74,13.63,13.63,0,0,1,1.07-1.89,14,14,0,0,1,5.28-4.79,10.7,10.7,0,0,1,7.06-.91,7.64,7.64,0,0,1,2,.76C422.48,228.6,422.7,228.78,422.68,228.81Z"/><path class="cls-5" d="M411.62,242.33a7.23,7.23,0,0,1,0,2.36,18.73,18.73,0,0,1-4.48,10.38,7.07,7.07,0,0,1-1.73,1.61,24.11,24.11,0,0,0,6.19-14.35Z"/><path class="cls-5" d="M412,242.57s.14.22.28.66a11.24,11.24,0,0,1,.46,1.9,16.3,16.3,0,0,1-3.09,12.2,11,11,0,0,1-1.3,1.46c-.33.31-.53.47-.56.44s.65-.78,1.56-2.11a17.93,17.93,0,0,0,3-12C412.15,243.57,411.86,242.6,412,242.57Z"/></g><g id="Speech_Bubble" data-name="Speech Bubble"><path class="cls-1" d="M442.21,245.19a4.72,4.72,0,1,0,2.16-.16"/><path class="cls-1" d="M455.73,225.55a5.4,5.4,0,1,0,2.47-.19"/><path class="cls-3" d="M484.61,138.94c-9.05-.76-18.2,1.26-24.4,7.89a30.58,30.58,0,0,0-7.8,25.13c-9.62,4-14.87,16.24-11.13,26s15.82,15.3,25.65,11.83a34.79,34.79,0,0,0,59.16,9.42c9.44,2.13,20,2,28-3.55s11.51-17.75,5.47-25.31c10.87-2.64,16.4-16.22,13.17-26.93S559.82,145,549.51,140.62c-6.81-2.88-15.3-4.38-21.12.19a26.9,26.9,0,0,0-43.78-1.87"/><path class="cls-7" d="M484.61,138.94s.17-.24.54-.7a24.63,24.63,0,0,1,1.76-1.93,27,27,0,0,1,8.35-5.61,27.84,27.84,0,0,1,7.06-2,26,26,0,0,1,8.75.27,27.61,27.61,0,0,1,9.36,3.79,27.15,27.15,0,0,1,8.11,8l-.26-.05a14.67,14.67,0,0,1,8.56-2.93,27.82,27.82,0,0,1,9.65,1.53,50.86,50.86,0,0,1,9.44,4.34,44.38,44.38,0,0,1,8.75,6.6,32.64,32.64,0,0,1,6.77,9.3,27.35,27.35,0,0,1,1.92,5.66,23.71,23.71,0,0,1,.41,6.08A24,24,0,0,1,569.87,183a18.81,18.81,0,0,1-4.39,4.69,17.7,17.7,0,0,1-5.9,2.83l.14-.4a14.18,14.18,0,0,1,2.68,5.71,17.25,17.25,0,0,1,.16,6.41,21.14,21.14,0,0,1-6,11.53,24.27,24.27,0,0,1-11.9,6.08,40.16,40.16,0,0,1-13.71.41c-1.67-.21-3.32-.53-4.94-.88l.26-.09a34.81,34.81,0,0,1-49.65,4.23,35.19,35.19,0,0,1-9.93-13.72l.3.13a20.93,20.93,0,0,1-16.79-1.75,19.68,19.68,0,0,1-9.82-12.45,21.09,21.09,0,0,1,2-14.67,20.44,20.44,0,0,1,9.91-9.3l-.11.19a31,31,0,0,1,.62-11.87,31.36,31.36,0,0,1,4.32-9.68,30.69,30.69,0,0,1,3-3.75,24.35,24.35,0,0,1,10.25-6.37,33.46,33.46,0,0,1,10.51-1.58,34.33,34.33,0,0,1,3.7.2s-.32,0-.94,0-1.55-.07-2.76-.06a33.81,33.81,0,0,0-10.45,1.65,24.9,24.9,0,0,0-6.82,3.48,23.74,23.74,0,0,0-3.29,2.89,30.14,30.14,0,0,0-7.18,13.32,30.38,30.38,0,0,0-.58,11.75l0,.14-.13,0a20.1,20.1,0,0,0-9.7,9.15,20.79,20.79,0,0,0-2,14.39,19.27,19.27,0,0,0,9.63,12.15,20.45,20.45,0,0,0,16.41,1.7l.22-.07.08.21a35.33,35.33,0,0,0,25.45,21.18A35.23,35.23,0,0,0,525.89,219l.1-.12.16,0c1.6.35,3.24.67,4.89.87a39.85,39.85,0,0,0,13.53-.39,23.89,23.89,0,0,0,11.65-5.95,20.64,20.64,0,0,0,5.84-11.24,15,15,0,0,0-2.74-11.73l-.24-.3.38-.1a16.8,16.8,0,0,0,5.72-2.73,18.81,18.81,0,0,0,4.29-4.57,23.52,23.52,0,0,0,3.83-11.55,23.25,23.25,0,0,0-.38-6,27.1,27.1,0,0,0-1.89-5.55,32.37,32.37,0,0,0-6.65-9.18,44.41,44.41,0,0,0-8.66-6.56,50.74,50.74,0,0,0-9.36-4.32,27.59,27.59,0,0,0-9.5-1.54A14.26,14.26,0,0,0,528.5,141l-.15.12-.1-.16a27.13,27.13,0,0,0-8-7.89,27.42,27.42,0,0,0-9.24-3.78,25.57,25.57,0,0,0-8.66-.3A27.8,27.8,0,0,0,487,136.38a23.47,23.47,0,0,0-1.79,1.9Z"/><path class="cls-5" d="M546.44,170.11c0,.44-17.73.79-39.6.79s-39.61-.35-39.61-.79,17.73-.78,39.61-.78S546.44,169.68,546.44,170.11Z"/><path class="cls-5" d="M546.44,178.71c0,.43-17.73.78-39.6.78s-39.61-.35-39.61-.78,17.73-.78,39.61-.78S546.44,178.28,546.44,178.71Z"/><path class="cls-5" d="M546.44,187.3c0,.43-17.73.78-39.6.78s-39.61-.35-39.61-.78,17.73-.78,39.61-.78S546.44,186.87,546.44,187.3Z"/><path class="cls-5" d="M546.44,195.89c0,.44-17.73.79-39.6.79s-39.61-.35-39.61-.79,17.73-.78,39.61-.78S546.44,195.46,546.44,195.89Z"/></g></svg>