<svg fill="none" height="60" viewBox="0 0 180 60" width="180" xmlns="http://www.w3.org/2000/svg" xmlns:xlink="http://www.w3.org/1999/xlink"><clipPath id="a"><path d="m0 11h65.2388v38h-65.2388z"/></clipPath><g clip-path="url(#a)"><path d="m65.0288 20.3042c0-4.9748-4.0472-9.3042-9.022-9.3042h-39.8158c-1.4593.0053-2.8967.3556-4.1948 1.0223s-2.42023 1.6309-3.27473 2.8139-1.41717 2.5512-1.64211 3.9931-.10576 2.9165.34781 4.3036c-1.75175.3611-3.36299 1.2176-4.64225 2.4677-1.796089 1.7742-2.78492 4.255-2.78492 6.9852 0 2.7303 1.02165 5.2505 2.87461 7.0269 1.23823 1.1835 3.41934 2.5945 6.78181 2.5945h6.40548c1.689.0008 3.3462-.4591 4.7933-1.3301.2394 2.2431 1.3045 4.317 2.9882 5.8183 1.6836 1.5013 3.8655 2.3228 6.1213 2.3046 3.4035.0143 6.6916-1.2327 9.2298-3.5003 1.4213-1.2752 2.625-2.7738 3.5637-4.4366 1.193.5658 2.4971.8587 3.8175.8576h9.7133c2.3728-.0047 4.6471-.9493 6.3249-2.6271s2.6225-3.9521 2.6271-6.3249zm-55.37238 14.6837c-1.47887 0-2.32332-.7394-2.32332-2.2883 0-1.5839.84445-2.3583 2.32332-2.3583 1.47888 0 2.29048.7766 2.29048 2.3605 0 1.5489-.8116 2.2861-2.29048 2.2861zm16.33098 0c-.292.0004-.5802-.066-.8426-.1942s-.492-.3147-.6712-.5452c-1.0939-1.5139-3.45-4.8567-3.45-4.8567s-2.3583 3.345-3.45 4.8567c-.1793.2304-.4089.4168-.6713.545-.2624.1281-.5505.1946-.8425.1944-.3547-.0016-.702-.102-1.0028-.2898-.3009-.1879-.5435-.4558-.7006-.7737-.1572-.318-.2227-.6735-.1893-1.0266.0335-.3531.1647-.6899.3788-.9726l4.2594-5.3489-4.1172-5.0667c-.2575-.3319-.3941-.7417-.3872-1.1617-.0012-.2499.0472-.4977.1423-.7288.0951-.2312.2351-.4412.4119-.618s.3868-.3168.618-.4119c.2311-.0951.4789-.1435.7289-.1423.2919-.0001.5801.0665.8424.1946s.492.3145.6714.5448l3.3078 4.5394 3.3078-4.5394c.1794-.2303.4091-.4167.6714-.5448.2624-.1281.5505-.1947.8424-.1946.25-.0012.4978.0472.7289.1423.2312.0951.4412.2351.618.4119s.3168.3868.4119.618c.0951.2311.1435.4789.1423.7288.0069.42-.1297.8298-.3872 1.1617l-4.1172 5.0667 4.2572 5.351c.2134.2827.344.6191.3772.9716.0333.3526-.0322.7075-.189 1.025-.1569.3175-.3989.5851-.699.773-.3002.1879-.6467.2887-1.0009.291zm17.8078-13.9027-6.5478 14.7822c-1.5488 3.4499-3.765 5.9067-7.2849 5.9067-.2364.0083-.472-.031-.6928-.1157s-.4223-.213-.5924-.3773c-.1702-.1642-.3055-.3611-.3979-.5788-.0924-.2176-.1401-.4517-.1401-.6882s.0477-.4706.1401-.6882c.0924-.2177.2277-.4146.3979-.5788.1701-.1643.3716-.2926.5924-.3773s.4564-.124.6928-.1157c2.2511 0 3.3077-1.7961 4.4694-4.6816l-5.4211-12.4873c-.0938-.2352-.1413-.4862-.14-.7394-.0011-.25.0472-.4977.1424-.7289.0951-.2312.2351-.4412.4118-.618.1768-.1768.3868-.3168.618-.4119s.4789-.1435.7289-.1423c.3791-.0036.7502.1093 1.0631.3233.313.2139.5528.5188.687.8733l3.8722 9.7855 3.8722-9.7855c.1346-.3543.3744-.659.6873-.8729.3129-.214.6838-.327 1.0629-.3237.25-.0012.4977.0472.7289.1423.2311.0951.4412.2351.6179.4119.1768.1768.3168.3868.4119.618s.1435.4789.1424.7289c.0069.252-.0347.503-.1225.7394zm12.4938 13.6205h-9.7133c-.4279-.0046-.8371-.1766-1.1397-.4792s-.4746-.7117-.4792-1.1397c-.0034-.3875.1342-.7631.3872-1.0566l4.1938-5.618 2.6624-3.5572.7088-.9494h-5.9461c-.208 0-.4139-.041-.6061-.1206s-.3668-.1963-.5138-.3433c-.1471-.1471-.2638-.3217-.3434-.5139-.0796-.1921-.1206-.3981-.1206-.6061s.041-.414.1206-.6061c.0796-.1922.1963-.3668.3434-.5139.147-.1471.3216-.2637.5138-.3433s.3981-.1206.6061-.1206h9.0439c.3223-.0001.638.0914.9102.2639.2723.1725.4899.4188.6275.7103s.1895.616.1496.9359c-.0398.3198-.1698.6217-.3747.8705l-7.4359 9.9495h6.4055c.4296 0 .8417.1707 1.1455.4745s.4745.7159.4745 1.1455-.1707.8417-.4745 1.1455-.7159.4745-1.1455.4745z" fill="#491d55"/></g></svg>